<?xml version="1.0" encoding="UTF-8"?>
<!DOCTYPE svg PUBLIC "-//W3C//DTD SVG 1.1//EN" "http://www.w3.org/Graphics/SVG/1.1/DTD/svg11.dtd">
<!-- Creator: CorelDRAW X6 -->
<svg xmlns="http://www.w3.org/2000/svg" xml:space="preserve" width="123.14mm" height="51.0886mm" version="1.1" style="shape-rendering:geometricPrecision; text-rendering:geometricPrecision; image-rendering:optimizeQuality; fill-rule:evenodd; clip-rule:evenodd"
viewBox="0 0 12314 5109"
 xmlns:xlink="http://www.w3.org/1999/xlink">
 <defs>
  <style type="text/css">
   <![CDATA[
    .fil0 {fill:#E31E24}
    .fil1 {fill:#2B2A29;fill-rule:nonzero}
   ]]>
  </style>
 </defs>
 <g id="Layer_x0020_1">
  <metadata id="CorelCorpID_0Corel-Layer"/>
  <g id="_938351320">
   <path class="fil0" d="M0 4011l1673 0c0,-2739 0,13 0,-2897l-1673 2897z"/>
   <polygon class="fil0" points="2174,0 2989,0 2989,5109 2174,5109 "/>
   <path class="fil0" d="M4078 2657c399,0 723,324 723,723 0,399 -324,723 -723,723 -399,0 -723,-324 -723,-723 0,-399 324,-723 723,-723z"/>
   <path class="fil1" d="M5829 1676l0 -1116 -336 0 0 -104 783 0 0 104 -336 0 0 1116 -111 0zm631 0l0 -1220 111 0 0 495 664 0 0 -495 111 0 0 1220 -111 0 0 -630 -664 0 0 630 -111 0zm1189 0l0 -1220 604 0 0 104 -493 0 0 382 493 0 0 104 -493 0 0 526 493 0 0 104 -604 0zm-2052 1488l0 -1220 718 0 0 220 -457 0 0 251 457 0 0 222 -457 0 0 527 -261 0zm2169 -607c0,87 -16,170 -49,247 -33,78 -79,146 -140,205 -63,61 -135,107 -214,139 -79,32 -162,48 -247,48 -74,0 -147,-13 -218,-38 -71,-25 -137,-62 -196,-109 -77,-61 -135,-134 -176,-219 -41,-85 -61,-176 -61,-274 0,-88 16,-170 48,-247 32,-77 79,-145 142,-205 61,-59 132,-106 213,-138 81,-33 164,-49 249,-49 85,0 168,16 248,49 80,33 151,79 213,138 62,60 109,129 141,206 32,77 48,159 48,247zm-650 408c111,0 202,-39 274,-116 72,-77 108,-174 108,-291 0,-115 -36,-213 -109,-291 -73,-79 -164,-118 -273,-118 -111,0 -202,39 -275,118 -73,78 -109,176 -109,292 0,118 36,215 107,292 72,77 164,115 277,115zm3071 200l-301 0 -320 -570 0 570 -261 0 0 -1220 374 0c148,0 259,29 333,86 74,57 111,144 111,260 0,84 -25,156 -76,215 -51,60 -116,94 -196,104l336 555zm-621 -700l39 0c105,0 175,-12 209,-35 34,-23 51,-63 51,-120 0,-60 -18,-103 -55,-128 -36,-25 -104,-38 -205,-38l-39 0 0 321zm1228 -299l0 998 -261 0 0 -998 -299 0 0 -222 858 0 0 222 -299 0zm469 998l0 -1220 261 0 0 490 529 0 0 -490 261 0 0 1220 -261 0 0 -510 -529 0 0 510 -261 0zm-2228 -1220l0 760c0,165 -44,289 -131,371 -87,82 -219,122 -394,122 -178,0 -311,-41 -398,-122 -87,-82 -131,-205 -131,-371l0 -760 259 0 0 719c0,101 22,176 67,227 45,51 111,76 199,76 89,0 156,-26 202,-77 45,-51 68,-127 68,-227l0 -719 259 0zm-2589 1488l181 662c12,42 22,87 32,136 10,48 19,103 28,163 1,-51 5,-100 11,-150 6,-49 16,-99 29,-149l158 -662 257 0 -319 1220 -251 0 -218 -778c-11,-36 -19,-71 -25,-107 -6,-36 -10,-74 -13,-113 -3,41 -7,80 -13,117 -6,37 -14,71 -23,103l-220 778 -251 0 -319 -1220 261 0 161 677c9,39 16,81 22,126 5,45 10,95 13,148 11,-71 30,-160 58,-268l4 -18 179 -666 257 0zm1468 756l-137 -394c-4,-12 -9,-32 -15,-60 -6,-28 -13,-63 -19,-104 -7,40 -14,75 -21,106 -7,32 -12,52 -15,63l-132 389 338 0zm-777 464l464 -1220 298 0 471 1220 -297 0 -99 -259 -473 0 -85 259 -280 0zm1361 0l0 -1220 261 0 0 998 416 0 0 222 -677 0zm841 0l0 -1220 261 0 0 998 416 0 0 222 -677 0z"/>
   <g>
    <path class="fil1" d="M10403 4220l0 300 43 0 0 -134 25 0c34,0 42,6 58,44l39 90 49 0 -50 -110c-12,-25 -18,-32 -37,-41 38,-6 63,-31 63,-70 0,-33 -19,-61 -49,-71 -18,-6 -32,-8 -68,-8l-72 0zm43 37l31 0c32,0 71,4 71,46 0,42 -44,47 -76,47l-27 0 0 -93z"/>
    <path class="fil1" d="M10498 4088c78,0 148,32 200,83l0 0c51,51 83,122 83,200 0,78 -32,148 -83,200l0 0c-51,51 -122,83 -200,83 -78,0 -148,-32 -200,-83 -51,-51 -83,-122 -83,-200 0,-78 32,-149 83,-200 51,-51 122,-83 200,-83zm172 111c-44,-44 -104,-71 -172,-71 -67,0 -128,27 -171,71 -44,44 -71,105 -71,172 0,67 27,128 71,172 44,44 105,71 171,71 67,0 128,-27 172,-71l0 0c44,-44 71,-105 71,-172 0,-67 -27,-128 -71,-172l0 0z"/>
   </g>
  </g>
 </g>
</svg>
