<?xml version="1.0" encoding="UTF-8"?>
<!DOCTYPE svg PUBLIC "-//W3C//DTD SVG 1.1//EN" "http://www.w3.org/Graphics/SVG/1.1/DTD/svg11.dtd">
<!-- Creator: CorelDRAW -->
<svg xmlns="http://www.w3.org/2000/svg" xml:space="preserve" width="25.4mm" height="25.4mm" version="1.1" style="shape-rendering:geometricPrecision; text-rendering:geometricPrecision; image-rendering:optimizeQuality; fill-rule:evenodd; clip-rule:evenodd"
viewBox="0 0 362.82 362.82"
 xmlns:xlink="http://www.w3.org/1999/xlink"
 xmlns:xodm="http://www.corel.com/coreldraw/odm/2003">
 <defs>
  <style type="text/css">
   <![CDATA[
    .str1 {stroke:#D9DADA;stroke-width:2.86;stroke-miterlimit:22.9256}
    .str0 {stroke:#898989;stroke-width:3.64;stroke-miterlimit:10}
    .fil2 {fill:none}
    .fil3 {fill:none;fill-rule:nonzero}
    .fil0 {fill:#D9DADA}
    .fil5 {fill:#898989}
    .fil1 {fill:#E31E24}
    .fil4 {fill:#898989;fill-rule:nonzero}
   ]]>
  </style>
    <clipPath id="id0">
     <path d="M47.12 362.69l0 -0.01 -0.19 0c-0.25,-0.02 -0.49,-0.04 -0.73,-0.06l0 -0.01 -0.09 0c-0.45,-0.04 -0.89,-0.09 -1.33,-0.14l0 -0 -0.03 0c-0.18,-0.02 -0.36,-0.04 -0.53,-0.06l0 -0.01 -0.06 0c-0.34,-0.04 -0.67,-0.09 -1,-0.14l0 -0 -0.01 0c-0.28,-0.04 -0.56,-0.09 -0.84,-0.14l0 -0.01 -0.03 0c-0.13,-0.02 -0.26,-0.04 -0.4,-0.07l0 -0.01 -0.03 0c-0.11,-0.02 -0.22,-0.04 -0.32,-0.06l0 -0.01 -0.06 0c-0.12,-0.02 -0.25,-0.05 -0.37,-0.07l0 0 0 0c-0.45,-0.09 -0.9,-0.18 -1.35,-0.28l0 -0.01 -0.02 0c-0.2,-0.05 -0.41,-0.09 -0.61,-0.14l0 -0 -0.01 0c-0.09,-0.02 -0.18,-0.04 -0.27,-0.07l0 -0 -0.02 0c-0.37,-0.09 -0.74,-0.18 -1.11,-0.28l0 -0 -0.01 0c-0.16,-0.04 -0.33,-0.09 -0.49,-0.13l0 -0.01 -0.03 0c-0.08,-0.02 -0.17,-0.04 -0.25,-0.07l0 -0 -0.01 0 -0.2 -0.06 0 -0.01 -0.04 0c-0.15,-0.04 -0.3,-0.09 -0.46,-0.14l0 -0.01 -0.02 0c-0.3,-0.09 -0.6,-0.18 -0.9,-0.28l0 -0 -0.01 0 -0.2 -0.07 0 -0.01 -0.02 0 -0.19 -0.06 0 -0.01 -0.03 0 -0.19 -0.06 0 -0.01 -0.03 0 -0.18 -0.06 0 -0.01 -0.03 0c-0.06,-0.02 -0.12,-0.04 -0.18,-0.06l0 -0.01 -0.02 0 -0.19 -0.07 0 -0 -0.01 0c-0.45,-0.16 -0.9,-0.32 -1.34,-0.49l0 -0.01 -0.02 0c-0.11,-0.04 -0.23,-0.09 -0.34,-0.13l0 -0.01 -0.03 0 -0.18 -0.07 0 -0 -0 0c-0.4,-0.16 -0.8,-0.33 -1.2,-0.49l0 -0 -0 0c-0.21,-0.09 -0.42,-0.19 -0.63,-0.28l0 -0.01 -0.01 0c-0.21,-0.09 -0.42,-0.19 -0.62,-0.28l0 -0 -0.01 0 -0.14 -0.06 0 -0.01 -0.02 0c-1.18,-0.55 -2.33,-1.14 -3.46,-1.77l0 -0 -0.01 0c-0.16,-0.09 -0.33,-0.18 -0.49,-0.27l0 -0.01 -0.02 0c-0.16,-0.09 -0.32,-0.19 -0.48,-0.28l0 -0 -0 0c-0.43,-0.25 -0.85,-0.51 -1.27,-0.78l0 -0 -0 0c-0.07,-0.04 -0.14,-0.09 -0.21,-0.13l0 -0.01 -0.02 0c-0.33,-0.21 -0.65,-0.42 -0.97,-0.64l0 -0 -0 0 -0.21 -0.14c-0.24,-0.16 -0.47,-0.33 -0.71,-0.49l0 -0 -0.01 0c-0.16,-0.12 -0.33,-0.23 -0.49,-0.35l0 -0.01 -0.01 0c-0.26,-0.19 -0.52,-0.37 -0.77,-0.57l0 -0 -0 0c-0.21,-0.16 -0.43,-0.32 -0.64,-0.49l0 -0.01 -0.01 0c-0.09,-0.07 -0.18,-0.14 -0.27,-0.21l0 -0 -0 0 -0.07 -0.05 0 -0.02 -0.02 0c-0.09,-0.07 -0.18,-0.14 -0.26,-0.21l0 0 -0 0c-0.26,-0.21 -0.52,-0.42 -0.78,-0.64l0 -0 -0 0c-0.17,-0.14 -0.33,-0.28 -0.49,-0.42l0 -0.01 -0.01 0c-0.16,-0.14 -0.32,-0.28 -0.49,-0.42l0 -0 -0 0 -0.07 -0.06 0 -0.01 -0.01 0c-0.55,-0.48 -1.09,-0.98 -1.62,-1.49l0 -0 0 0 -0.07 -0.07 0 -0 -0 0 -0.07 -0.07 0 -0 -0 0 -0.07 -0.06 0 -0.01 -0.01 0 -0.06 -0.06 0 -0.01 -0.01 0c-0.28,-0.28 -0.56,-0.56 -0.84,-0.84l0 -0.01 -0.01 0 -0.06 -0.07 0 -0.01 -0.01 0 -0.07 -0.07 0 -0 -0 0 -0.07 -0.07 0 -0 -0 0 -0.07 -0.07 0 -0 -0 0c-0.51,-0.53 -1,-1.07 -1.49,-1.62l0 -0.01 -0.01 0 -0.06 -0.07 0 -0 -0 0c-0.14,-0.16 -0.28,-0.32 -0.42,-0.49l0 -0.01 -0.01 0c-0.14,-0.16 -0.28,-0.33 -0.42,-0.49l0 -0 -0 0c-0.21,-0.26 -0.43,-0.52 -0.63,-0.78l0 -0 -0 0c-0.07,-0.09 -0.14,-0.17 -0.21,-0.26l0 -0.02 -0.02 0 -0.05 -0.07 0 -0 -0 0c-0.07,-0.09 -0.14,-0.18 -0.21,-0.27l0 -0.01 -0.01 0c-0.16,-0.21 -0.33,-0.42 -0.49,-0.64l0 -0 -0 0c-0.19,-0.25 -0.38,-0.51 -0.57,-0.77l0 -0.01 -0 0c-0.12,-0.16 -0.23,-0.33 -0.35,-0.49l0 -0.01 -0 0c-0.17,-0.23 -0.33,-0.47 -0.49,-0.71 -0.05,-0.07 -0.09,-0.14 -0.14,-0.21l0 -0 -0 0c-0.22,-0.32 -0.43,-0.65 -0.64,-0.97l0 -0.02 -0.01 0c-0.04,-0.07 -0.09,-0.14 -0.13,-0.21l0 -0.01 -0 0c-0.27,-0.42 -0.52,-0.84 -0.78,-1.27l0 -0 -0 0c-0.09,-0.16 -0.19,-0.32 -0.28,-0.48l0 -0.02 -0.01 0c-0.09,-0.16 -0.18,-0.32 -0.27,-0.49l0 -0.01 -0.01 0c-0.63,-1.13 -1.22,-2.28 -1.77,-3.46l0 -0.01 -0.01 0 -0.06 -0.14 0 -0 -0 0c-0.1,-0.21 -0.19,-0.42 -0.28,-0.63l0 -0.01 -0.01 0c-0.09,-0.21 -0.19,-0.42 -0.28,-0.63l0 -0 -0 0c-0.17,-0.4 -0.34,-0.8 -0.49,-1.2l0 -0 -0 0 -0.07 -0.18 0 -0.03 -0.01 0c-0.04,-0.11 -0.09,-0.23 -0.13,-0.34l0 -0.02 -0.01 0c-0.17,-0.44 -0.33,-0.89 -0.49,-1.34l0 -0.01 -0 0 -0.07 -0.19 0 -0.02 -0.01 0c-0.02,-0.06 -0.04,-0.12 -0.06,-0.18l0 -0.03 -0.01 0 -0.06 -0.18 0 -0.03 -0.01 0c-0.02,-0.06 -0.04,-0.12 -0.06,-0.19l0 -0.03 -0.01 0 -0.06 -0.19 0 -0.02 -0.01 0 -0.06 -0.2 0 -0.01 -0.01 0c-0.1,-0.3 -0.19,-0.6 -0.28,-0.9l0 -0.02 -0.01 0c-0.05,-0.15 -0.09,-0.3 -0.14,-0.46l0 -0.04 -0.01 0 -0.06 -0.2 0 -0.01 -0 0c-0.02,-0.08 -0.05,-0.17 -0.07,-0.25l0 -0.03 -0.01 0c-0.05,-0.16 -0.09,-0.33 -0.13,-0.49l0 -0.01 -0 0c-0.1,-0.37 -0.19,-0.74 -0.28,-1.11l0 -0.02 -0 0c-0.02,-0.09 -0.04,-0.18 -0.07,-0.27l0 -0.01 -0 0c-0.05,-0.2 -0.09,-0.41 -0.14,-0.61l0 -0.02 -0 0c-0.1,-0.45 -0.19,-0.89 -0.28,-1.34l0 -0 0 0c-0.02,-0.12 -0.05,-0.25 -0.07,-0.37l0 -0.06 -0.01 0c-0.02,-0.11 -0.04,-0.21 -0.06,-0.32l0 -0.03 -0.01 0c-0.02,-0.13 -0.04,-0.26 -0.07,-0.4l0 -0.03 -0 0c-0.05,-0.28 -0.09,-0.56 -0.14,-0.84l0 -0.01 -0 0c-0.05,-0.33 -0.1,-0.67 -0.14,-1l0 -0.06 -0.01 0c-0.02,-0.18 -0.04,-0.36 -0.06,-0.53l0 -0.03 -0 0c-0.05,-0.44 -0.1,-0.88 -0.14,-1.33l0 -0.09 -0.01 0c-0.02,-0.24 -0.04,-0.49 -0.06,-0.73l0 -0.19 -0.01 0c-0.09,-1.19 -0.13,-2.4 -0.13,-3.61l0 -261.34c0,-1.22 0.05,-2.42 0.13,-3.62l0.01 0 0 -0.19c0.02,-0.25 0.04,-0.49 0.06,-0.73l0.01 0 0 -0.09c0.04,-0.45 0.09,-0.89 0.14,-1.33l0 0 0 -0.03c0.02,-0.18 0.04,-0.36 0.06,-0.53l0.01 0 0 -0.06c0.04,-0.34 0.09,-0.67 0.14,-1.01l0 0 0 -0.01c0.04,-0.28 0.09,-0.56 0.14,-0.84l0 0 0 -0.03c0.02,-0.13 0.04,-0.26 0.07,-0.4l0.01 0 0 -0.03c0.02,-0.11 0.04,-0.21 0.06,-0.32l0.01 0 0 -0.06c0.02,-0.12 0.05,-0.25 0.07,-0.37l0 0 0 -0c0.09,-0.45 0.18,-0.9 0.28,-1.34l0 0 0 -0.02c0.05,-0.2 0.09,-0.41 0.14,-0.61l0 0 0 -0.01c0.02,-0.09 0.04,-0.18 0.07,-0.27l0 0 0 -0.02c0.09,-0.37 0.18,-0.74 0.28,-1.11l0 0 0 -0.01c0.04,-0.16 0.09,-0.33 0.13,-0.49l0.01 0 0 -0.03c0.02,-0.08 0.04,-0.17 0.07,-0.25l0 0 0 -0.01 0.06 -0.2 0.01 0 0 -0.04c0.04,-0.15 0.09,-0.3 0.14,-0.46l0.01 0 0 -0.02c0.09,-0.3 0.18,-0.6 0.28,-0.9l0.01 0 0 -0.01 0.06 -0.2 0.01 0 0 -0.02 0.06 -0.19 0.01 0 0 -0.03 0.06 -0.19 0.01 0 0 -0.03 0.06 -0.18 0.01 0 0 -0.03c0.02,-0.06 0.04,-0.12 0.06,-0.18l0.01 0 0 -0.02 0.07 -0.19 0 0 0 -0.01c0.16,-0.45 0.32,-0.9 0.49,-1.34l0.01 0 0 -0.02c0.04,-0.11 0.08,-0.23 0.13,-0.34l0.01 0 0 -0.03 0.07 -0.18 0 0 0 -0c0.16,-0.4 0.32,-0.8 0.49,-1.2l0 0 0 -0c0.09,-0.21 0.18,-0.42 0.28,-0.63l0.01 0 0 -0.01c0.09,-0.21 0.19,-0.42 0.28,-0.63l0 0 0 -0.01 0.06 -0.14 0.01 0 0 -0.02c0.55,-1.18 1.14,-2.33 1.77,-3.46l0.01 0 0 -0.01c0.09,-0.16 0.18,-0.33 0.27,-0.49l0.01 0 0 -0.02c0.09,-0.16 0.19,-0.32 0.28,-0.48l0 0 0 -0c0.25,-0.43 0.51,-0.85 0.78,-1.27l0 0 0 -0c0.04,-0.07 0.09,-0.14 0.13,-0.21l0.01 0 0 -0.02c0.21,-0.33 0.42,-0.65 0.64,-0.97l0 0 0 -0 0.14 -0.21 0 0 0 0c0.16,-0.24 0.33,-0.47 0.49,-0.71l0 0 0 -0.01c0.12,-0.16 0.23,-0.33 0.35,-0.49l0 0 0 -0.01c0.19,-0.26 0.37,-0.52 0.57,-0.77l0 0 0 -0c0.16,-0.21 0.32,-0.43 0.49,-0.64l0.01 0 0 -0.01c0.07,-0.09 0.14,-0.18 0.21,-0.27l0 0 0 -0 0.05 -0.07 0.02 0 0 -0.02c0.07,-0.09 0.14,-0.17 0.21,-0.26l0 0 0 -0c0.21,-0.26 0.42,-0.52 0.63,-0.78l0 0 0 -0c0.14,-0.17 0.28,-0.33 0.42,-0.49l0.01 0 0 -0.01c0.14,-0.16 0.28,-0.32 0.42,-0.49l0 0 0 -0 0.06 -0.07 0.01 0 0 -0.01c0.48,-0.55 0.98,-1.09 1.49,-1.62l0 0 0 0 0.07 -0.07 0 0 0 -0 0.07 -0.07 0 0 0 -0 0.07 -0.07 0.01 0 0 -0.01 0.06 -0.06 0.01 0 0 -0.01c0.28,-0.28 0.56,-0.56 0.84,-0.84l0.01 0 0 -0.01 0.06 -0.06 0.01 0 0 -0.01 0.07 -0.07 0 0 0 -0 0.07 -0.07 0 0 0 -0 0.07 -0.07 0 0 0 -0c0.53,-0.51 1.07,-1 1.62,-1.49l0.01 0 0 -0.01 0.07 -0.06 0 0 0 -0c0.16,-0.14 0.32,-0.28 0.49,-0.42l0.01 0 0 -0.01c0.16,-0.14 0.33,-0.28 0.49,-0.42l0 0 0 -0c0.26,-0.21 0.52,-0.43 0.78,-0.63l0 0 0 -0c0.09,-0.07 0.17,-0.14 0.26,-0.21l0.02 0 0 -0.02 0.07 -0.05 0 0 0 -0c0.09,-0.07 0.18,-0.14 0.27,-0.21l0.01 0 0 -0.01c0.21,-0.16 0.42,-0.33 0.64,-0.49l0 0 0 -0c0.26,-0.19 0.51,-0.38 0.77,-0.57l0.01 0 0 -0c0.16,-0.12 0.32,-0.23 0.49,-0.35l0.01 0 0 -0c0.3,-0.21 0.61,-0.43 0.92,-0.63l0 0 0 0c0.32,-0.22 0.65,-0.43 0.97,-0.64l0.02 0 0 -0.01c0.07,-0.04 0.14,-0.09 0.21,-0.13l0 0 0 -0c0.42,-0.26 0.85,-0.52 1.27,-0.78l0 0 0 -0c0.16,-0.09 0.32,-0.19 0.48,-0.28l0.02 0 0 -0.01c0.16,-0.09 0.33,-0.18 0.49,-0.27l0.01 0 0 -0.01c1.13,-0.63 2.28,-1.22 3.46,-1.77l0.02 0 0 -0.01 0.14 -0.06 0.01 0 0 -0c0.21,-0.1 0.42,-0.19 0.62,-0.28l0.01 0 0 -0.01c0.21,-0.09 0.42,-0.19 0.63,-0.28l0 0 0 -0c0.4,-0.17 0.8,-0.34 1.2,-0.49l0 0 0 -0 0.18 -0.07 0.03 0 0 -0.01c0.11,-0.04 0.23,-0.09 0.34,-0.13l0.02 0 0 -0.01c0.44,-0.17 0.89,-0.33 1.34,-0.49l0.01 0 0 -0 0.19 -0.07 0.02 0 0 -0.01c0.06,-0.02 0.12,-0.04 0.18,-0.06l0.03 0 0 -0.01 0.18 -0.06 0.03 0 0 -0.01c0.06,-0.02 0.13,-0.04 0.19,-0.06l0.03 0 0 -0.01 0.19 -0.06 0.02 0 0 -0.01 0.2 -0.06 0.01 0 0 -0c0.3,-0.1 0.6,-0.19 0.9,-0.28l0.02 0 0 -0.01c0.15,-0.04 0.3,-0.09 0.46,-0.14l0.04 0 0 -0.01 0.2 -0.06 0.01 0 0 -0c0.08,-0.02 0.17,-0.05 0.25,-0.07l0.03 0 0 -0.01c0.16,-0.05 0.33,-0.09 0.49,-0.13l0 0 0 -0c0.37,-0.1 0.74,-0.19 1.11,-0.28l0.02 0 0 -0c0.09,-0.02 0.18,-0.04 0.27,-0.07l0.01 0 0 -0c0.2,-0.05 0.41,-0.09 0.61,-0.14l0.02 0 0 -0.01c0.45,-0.1 0.89,-0.19 1.35,-0.28l0 0 0 0c0.12,-0.02 0.25,-0.05 0.37,-0.07l0.06 0 0 -0.01c0.11,-0.02 0.22,-0.04 0.32,-0.06l0.03 0 0 -0.01c0.13,-0.02 0.26,-0.04 0.4,-0.07l0.03 0 0 -0c0.28,-0.05 0.56,-0.09 0.84,-0.14l0.01 0 0 -0c0.33,-0.05 0.67,-0.1 1.01,-0.14l0.06 0 0 -0.01c0.18,-0.02 0.36,-0.04 0.53,-0.06l0.03 0 0 -0c0.44,-0.05 0.88,-0.1 1.33,-0.14l0.09 0 0 -0.01c0.25,-0.02 0.49,-0.04 0.74,-0.06l0.18 0 0 -0.01c1.19,-0.09 2.4,-0.13 3.61,-0.13l261.34 0c1.22,0 2.42,0.05 3.61,0.13l0 0.01 0.18 0c0.25,0.02 0.49,0.04 0.74,0.06l0 0.01 0.09 0c0.44,0.04 0.89,0.09 1.33,0.14l0 0 0.03 0c0.18,0.02 0.36,0.04 0.53,0.06l0 0.01 0.06 0c0.34,0.04 0.67,0.09 1.01,0.14l0 0 0.01 0c0.28,0.04 0.56,0.09 0.84,0.14l0 0 0.03 0c0.13,0.02 0.26,0.04 0.4,0.07l0 0.01 0.03 0c0.11,0.02 0.21,0.04 0.32,0.06l0 0.01 0.06 0c0.12,0.02 0.25,0.05 0.37,0.07l0 0 0 0c0.45,0.09 0.9,0.18 1.34,0.28l0 0.01 0.02 0c0.2,0.04 0.41,0.09 0.61,0.14l0 0 0.01 0c0.09,0.02 0.18,0.04 0.27,0.07l0 0 0.02 0c0.37,0.09 0.74,0.18 1.11,0.28l0 0 0 0c0.16,0.04 0.33,0.09 0.49,0.13l0 0.01 0.03 0c0.08,0.02 0.17,0.04 0.25,0.07l0 0 0.01 0 0.2 0.06 0 0.01 0.04 0c0.15,0.04 0.3,0.09 0.46,0.14l0 0.01 0.02 0c0.3,0.09 0.6,0.18 0.9,0.28l0 0 0.01 0 0.2 0.06 0 0.01 0.02 0 0.19 0.06 0 0.01 0.03 0 0.19 0.06 0 0.01 0.03 0 0.18 0.06 0 0.01 0.03 0c0.06,0.02 0.12,0.04 0.18,0.06l0 0.01 0.02 0 0.19 0.07 0 0 0.01 0c0.45,0.16 0.9,0.32 1.34,0.49l0 0.01 0.02 0c0.11,0.04 0.23,0.08 0.34,0.13l0 0.01 0.03 0 0.18 0.07 0 0 0 0c0.4,0.16 0.8,0.32 1.2,0.49l0 0 0 0c0.21,0.09 0.42,0.18 0.63,0.28l0 0.01 0.01 0c0.21,0.09 0.42,0.19 0.62,0.28l0 0 0.01 0 0.14 0.06 0 0.01 0.01 0c1.18,0.55 2.33,1.14 3.46,1.77l0 0.01 0.01 0c0.16,0.09 0.33,0.18 0.49,0.27l0 0.01 0.02 0c0.16,0.09 0.32,0.19 0.48,0.28l0 0 0 0c0.43,0.25 0.85,0.51 1.27,0.78l0 0 0 0c0.07,0.04 0.14,0.09 0.21,0.13l0 0.01 0.02 0c0.33,0.21 0.65,0.42 0.97,0.64l0 0 0 0c0.31,0.21 0.62,0.42 0.92,0.63l0 0 0.01 0c0.16,0.12 0.33,0.23 0.49,0.35l0 0 0.01 0c0.26,0.19 0.52,0.37 0.77,0.57l0 0 0 0c0.21,0.16 0.43,0.32 0.64,0.49l0 0.01 0.01 0c0.09,0.07 0.18,0.14 0.27,0.21l0 0 0 0 0.07 0.05 0 0.02 0.02 0c0.09,0.07 0.18,0.14 0.26,0.21l0 0 0 0c0.26,0.21 0.52,0.42 0.78,0.63l0 0 0 0c0.17,0.14 0.33,0.28 0.49,0.42l0 0.01 0.01 0c0.16,0.14 0.33,0.28 0.49,0.42l0 0 0 0 0.07 0.06 0 0.01 0.01 0c0.55,0.48 1.09,0.98 1.62,1.49l0 0 0 0 0.07 0.07 0 0 0 0 0.07 0.07 0 0 0 0 0.07 0.07 0 0.01 0.01 0 0.06 0.06 0 0.01 0.01 0c0.28,0.28 0.56,0.56 0.84,0.84l0 0.01 0.01 0 0.06 0.06 0 0.01 0.01 0 0.06 0.07 0 0 0 0 0.07 0.07 0 0 0 0 0.07 0.07 0 0 0 0c0.51,0.53 1,1.07 1.49,1.62l0 0.01 0.01 0 0.06 0.07 0 0 0 0c0.14,0.16 0.28,0.32 0.42,0.49l0 0.01 0.01 0c0.14,0.16 0.28,0.33 0.42,0.49l0 0 0 0c0.21,0.26 0.43,0.52 0.63,0.78l0 0 0 0c0.07,0.09 0.14,0.17 0.21,0.26l0 0.02 0.02 0 0.05 0.07 0 0 0 0c0.07,0.09 0.14,0.18 0.21,0.27l0 0.01 0.01 0c0.16,0.21 0.33,0.42 0.49,0.64l0 0 0 0c0.19,0.26 0.38,0.51 0.57,0.77l0 0.01 0.01 0c0.12,0.16 0.23,0.33 0.35,0.49l0 0.01 0 0c0.21,0.3 0.43,0.61 0.63,0.92l0 0 0 0c0.22,0.32 0.43,0.65 0.64,0.97l0 0.02 0.01 0c0.04,0.07 0.09,0.14 0.13,0.21l0 0 0 0c0.27,0.42 0.52,0.85 0.78,1.27l0 0 0 0c0.09,0.16 0.19,0.32 0.28,0.48l0 0.02 0.01 0c0.09,0.16 0.18,0.32 0.27,0.49l0 0.01 0 0c0.63,1.13 1.22,2.28 1.77,3.46l0 0.02 0.01 0 0.06 0.14 0 0.01 0 0c0.1,0.21 0.19,0.42 0.28,0.63l0 0.01 0.01 0c0.09,0.21 0.19,0.42 0.28,0.63l0 0 0 0c0.17,0.4 0.34,0.8 0.5,1.2l0 0 0 0 0.07 0.18 0 0.03 0.01 0c0.04,0.11 0.09,0.23 0.13,0.34l0 0.01 0 0c0.17,0.44 0.33,0.89 0.49,1.34l0 0.01 0 0 0.07 0.19 0 0.02 0.01 0c0.02,0.06 0.04,0.12 0.06,0.18l0 0.03 0.01 0 0.06 0.18 0 0.03 0.01 0c0.02,0.06 0.04,0.13 0.06,0.19l0 0.03 0.01 0 0.06 0.19 0 0.02 0.01 0 0.06 0.2 0 0.01 0.01 0c0.1,0.3 0.19,0.6 0.28,0.9l0 0.02 0.01 0c0.05,0.15 0.09,0.3 0.14,0.46l0 0.04 0.01 0 0.06 0.2 0 0.01 0 0c0.02,0.08 0.04,0.17 0.07,0.25l0 0.03 0.01 0c0.05,0.16 0.09,0.33 0.13,0.49l0 0 0 0c0.1,0.37 0.19,0.74 0.28,1.11l0 0.02 0 0c0.02,0.09 0.05,0.18 0.07,0.27l0 0.01 0 0c0.05,0.2 0.09,0.41 0.14,0.61l0 0.02 0 0c0.1,0.45 0.19,0.89 0.28,1.34l0 0 0 0c0.02,0.12 0.05,0.24 0.07,0.37l0 0.06 0.01 0c0.02,0.11 0.04,0.22 0.06,0.32l0 0.03 0.01 0c0.02,0.13 0.04,0.26 0.07,0.4l0 0.03 0 0c0.05,0.28 0.09,0.56 0.14,0.84l0 0.01 0 0c0.05,0.33 0.1,0.67 0.14,1.01l0 0.06 0.01 0c0.02,0.18 0.04,0.36 0.06,0.53l0 0.03 0 0c0.05,0.44 0.1,0.88 0.14,1.33l0 0.09 0.01 0c0.02,0.25 0.04,0.49 0.06,0.74l0 0.18 0.01 0c0.09,1.19 0.13,2.4 0.13,3.62l0 261.34c0,1.22 -0.05,2.42 -0.13,3.61l-0.01 0 0 0.19c-0.02,0.27 -0.04,0.54 -0.07,0.8l-0 0 0 0.02c-0.04,0.44 -0.09,0.88 -0.14,1.32l-0 0 0 0.04c-0.02,0.17 -0.04,0.35 -0.06,0.52l-0.01 0 0 0.07c-0.02,0.17 -0.05,0.33 -0.07,0.5l0 0 0 0.01c-0.06,0.45 -0.13,0.9 -0.21,1.34l-0.01 0 0 0.04c-0.02,0.13 -0.04,0.26 -0.06,0.38l-0.01 0 0 0.04c-0.04,0.25 -0.09,0.49 -0.14,0.74l-0 0 0 0.01c-0.09,0.45 -0.18,0.89 -0.27,1.33l-0.01 0 0 0.04c-0.02,0.1 -0.04,0.21 -0.07,0.31l-0 0 0 0.01 -0.06 0.27 -0.01 0 0 0.03c-0.02,0.09 -0.04,0.17 -0.06,0.25l-0.01 0 0 0.04c-0.11,0.46 -0.23,0.92 -0.35,1.38l0 0 0 0c-0.04,0.16 -0.09,0.33 -0.13,0.5l-0.01 0 0 0.03c-0.04,0.16 -0.09,0.31 -0.14,0.47l-0 0 0 0.01c-0.24,0.81 -0.49,1.61 -0.77,2.4l-0.01 0 0 0.03 -0.07 0.19 -0.01 0 0 0.02 -0.07 0.2 -0 0 0 0.01c-0.14,0.38 -0.28,0.75 -0.42,1.13l-0 0 0 0.01c-0.04,0.11 -0.09,0.23 -0.13,0.34l-0.01 0 0 0.03c-0.04,0.11 -0.09,0.22 -0.13,0.33l-0.01 0 0 0.02 -0.14 0.34 -0 0 0 0.01c-0.14,0.33 -0.28,0.66 -0.42,0.98l-0.01 0 0 0.02c-0.07,0.16 -0.14,0.32 -0.21,0.48l-0 0 0 0.01 -0.06 0.13 -0.01 0 0 0.02c-0.25,0.54 -0.5,1.08 -0.77,1.61l-0.01 0 0 0.02 -0.06 0.12 -0.01 0 0 0.02 -0.06 0.12 -0.01 0 0 0.02 -0.06 0.12 -0.01 0 0 0.02 -0.06 0.12 -0.01 0 0 0.02 -0.07 0.12 -0.01 0 0 0.01 -0.07 0.13 -0 0 0 0c-0.27,0.52 -0.56,1.04 -0.85,1.56l-0 0 0 0.01c-0.07,0.12 -0.13,0.23 -0.2,0.35l-0.01 0 0 0.02 -0.07 0.12 -0 0 0 0c-0.07,0.12 -0.14,0.23 -0.21,0.35l-0 0 0 0.01c-0.14,0.23 -0.28,0.47 -0.42,0.7l-0 0 0 0c-0.12,0.19 -0.23,0.38 -0.35,0.56l-0 0 0 0c-0.04,0.07 -0.09,0.14 -0.13,0.21l-0.01 0 0 0.02c-0.04,0.07 -0.09,0.13 -0.13,0.2l-0.01 0 0 0.02c-0.27,0.42 -0.56,0.84 -0.84,1.26l-0.01 0 0 0.01 -0.14 0.2 -0 0 0 0c-0.12,0.16 -0.23,0.33 -0.35,0.49l-0.01 0 0 0.01c-0.25,0.35 -0.51,0.71 -0.78,1.05l-0 0 0 0c-0.16,0.21 -0.32,0.43 -0.49,0.64l-0.01 0 0 0.01c-0.09,0.11 -0.18,0.23 -0.27,0.34l-0.01 0 0 0.01c-0.32,0.4 -0.65,0.8 -0.98,1.19l-0.01 0 0 0.01c-0.12,0.14 -0.23,0.28 -0.35,0.41l-0 0 0 0 -0.06 0.07 -0.01 0 0 0.01c-0.42,0.48 -0.84,0.94 -1.27,1.4l-0 0 0 0 -0.06 0.07 -0.01 0 0 0.01 -0.06 0.06 -0.01 0 0 0.01 -0.05 0.06 -0.02 0 0 0.02c-0.62,0.65 -1.25,1.28 -1.9,1.89l-0.01 0 0 0.01 -0.06 0.06 -0.01 0 0 0.01 -0.07 0.06 -0 0 0 0c-0.46,0.43 -0.93,0.86 -1.4,1.27l-0.02 0 0 0.01 -0.06 0.06 -0.01 0 0 0c-0.16,0.14 -0.33,0.28 -0.5,0.42l-0 0 0 0c-0.37,0.31 -0.74,0.62 -1.12,0.92l-0.01 0 0 0.01c-0.11,0.09 -0.23,0.18 -0.34,0.27l-0.01 0 0 0.01c-0.21,0.16 -0.42,0.32 -0.63,0.49l-0 0 0 0c-0.19,0.14 -0.38,0.28 -0.57,0.42l-0 0 0 0c-0.16,0.12 -0.32,0.24 -0.48,0.35l-0.01 0 0 0.01c-0.16,0.12 -0.33,0.23 -0.49,0.35l-0.01 0 0 0c-0.55,0.39 -1.11,0.76 -1.68,1.13l-0.02 0 0 0.01c-0.07,0.04 -0.14,0.09 -0.2,0.13l-0.01 0 0 0c-0.42,0.26 -0.84,0.52 -1.26,0.77l-0.01 0 0 0.01c-0.12,0.07 -0.23,0.14 -0.35,0.21l-0.01 0 0 0c-0.16,0.09 -0.32,0.19 -0.49,0.28l-0.01 0 0 0.01c-0.47,0.26 -0.94,0.52 -1.42,0.77l0 0 0 0 -0.13 0.07 -0.01 0 0 0 -0.13 0.07 -0.02 0 0 0.01 -0.12 0.06 -0.02 0 0 0.01 -0.11 0.06 -0.03 0 0 0.01 -0.12 0.06 -0.03 0 0 0.01c-0.37,0.19 -0.75,0.37 -1.13,0.55l-0 0 0 0c-0.25,0.12 -0.5,0.24 -0.75,0.35l-0.03 0 0 0.01 -0.13 0.06 -0.01 0 0 0.01c-0.21,0.09 -0.42,0.19 -0.63,0.28l-0 0 0 0c-0.39,0.17 -0.78,0.34 -1.18,0.5l-0.02 0 0 0.01c-0.11,0.04 -0.21,0.09 -0.32,0.13l-0.03 0 0 0.01c-0.11,0.04 -0.22,0.09 -0.34,0.13l-0.02 0 0 0.01c-0.31,0.12 -0.61,0.23 -0.92,0.35 -0.07,0.02 -0.13,0.05 -0.2,0.07l-0.01 0 0 0c-0.77,0.28 -1.55,0.53 -2.34,0.77 -0.16,0.05 -0.32,0.1 -0.48,0.14l-0.02 0 0 0.01c-0.15,0.04 -0.31,0.09 -0.46,0.14l-0.04 0 0 0.01c-0.16,0.05 -0.33,0.09 -0.49,0.13l-0.01 0 0 0c-0.46,0.12 -0.91,0.24 -1.37,0.35l-0.04 0 0 0.01c-0.08,0.02 -0.16,0.04 -0.25,0.06l-0.04 0 0 0.01 -0.27 0.06 -0.02 0 0 0c-0.21,0.05 -0.42,0.09 -0.63,0.14l-0 0 0 0c-0.35,0.07 -0.69,0.14 -1.04,0.21l-0.02 0 0 0c-0.12,0.02 -0.23,0.05 -0.35,0.07l-0 0 0 0c-0.13,0.02 -0.25,0.05 -0.38,0.07l-0.05 0 0 0.01c-0.13,0.02 -0.25,0.04 -0.38,0.06l-0.05 0 0 0.01c-0.44,0.07 -0.89,0.14 -1.34,0.2l-0.01 0 0 0c-0.17,0.02 -0.33,0.05 -0.49,0.07l-0.07 0 0 0.01c-0.17,0.02 -0.35,0.04 -0.52,0.06l-0.05 0 0 0.01c-0.44,0.05 -0.88,0.1 -1.32,0.14l-0.03 0 0 0c-0.26,0.02 -0.53,0.05 -0.8,0.07l-0.2 0 0 0.01c-1.19,0.08 -2.4,0.13 -3.61,0.13l-261.34 0c-1.21,0 -2.42,-0.05 -3.61,-0.13z"/>
    </clipPath>
 </defs>
 <g id="Layer_x0020_1">
  <metadata id="CorelCorpID_0Corel-Layer"/>
  <g id="_3047798193888">
   <path class="fil0" d="M47.12 362.69l0 -0.01 -0.19 0c-0.25,-0.02 -0.49,-0.04 -0.73,-0.06l0 -0.01 -0.09 0c-0.45,-0.04 -0.89,-0.09 -1.33,-0.14l0 -0 -0.03 0c-0.18,-0.02 -0.36,-0.04 -0.53,-0.06l0 -0.01 -0.06 0c-0.34,-0.04 -0.67,-0.09 -1,-0.14l0 -0 -0.01 0c-0.28,-0.04 -0.56,-0.09 -0.84,-0.14l0 -0.01 -0.03 0c-0.13,-0.02 -0.26,-0.04 -0.4,-0.07l0 -0.01 -0.03 0c-0.11,-0.02 -0.22,-0.04 -0.32,-0.06l0 -0.01 -0.06 0c-0.12,-0.02 -0.25,-0.05 -0.37,-0.07l0 0 0 0c-0.45,-0.09 -0.9,-0.18 -1.35,-0.28l0 -0.01 -0.02 0c-0.2,-0.05 -0.41,-0.09 -0.61,-0.14l0 -0 -0.01 0c-0.09,-0.02 -0.18,-0.04 -0.27,-0.07l0 -0 -0.02 0c-0.37,-0.09 -0.74,-0.18 -1.11,-0.28l0 -0 -0.01 0c-0.16,-0.04 -0.33,-0.09 -0.49,-0.13l0 -0.01 -0.03 0c-0.08,-0.02 -0.17,-0.04 -0.25,-0.07l0 -0 -0.01 0 -0.2 -0.06 0 -0.01 -0.04 0c-0.15,-0.04 -0.3,-0.09 -0.46,-0.14l0 -0.01 -0.02 0c-0.3,-0.09 -0.6,-0.18 -0.9,-0.28l0 -0 -0.01 0 -0.2 -0.07 0 -0.01 -0.02 0 -0.19 -0.06 0 -0.01 -0.03 0 -0.19 -0.06 0 -0.01 -0.03 0 -0.18 -0.06 0 -0.01 -0.03 0c-0.06,-0.02 -0.12,-0.04 -0.18,-0.06l0 -0.01 -0.02 0 -0.19 -0.07 0 -0 -0.01 0c-0.45,-0.16 -0.9,-0.32 -1.34,-0.49l0 -0.01 -0.02 0c-0.11,-0.04 -0.23,-0.09 -0.34,-0.13l0 -0.01 -0.03 0 -0.18 -0.07 0 -0 -0 0c-0.4,-0.16 -0.8,-0.33 -1.2,-0.49l0 -0 -0 0c-0.21,-0.09 -0.42,-0.19 -0.63,-0.28l0 -0.01 -0.01 0c-0.21,-0.09 -0.42,-0.19 -0.62,-0.28l0 -0 -0.01 0 -0.14 -0.06 0 -0.01 -0.02 0c-1.18,-0.55 -2.33,-1.14 -3.46,-1.77l0 -0 -0.01 0c-0.16,-0.09 -0.33,-0.18 -0.49,-0.27l0 -0.01 -0.02 0c-0.16,-0.09 -0.32,-0.19 -0.48,-0.28l0 -0 -0 0c-0.43,-0.25 -0.85,-0.51 -1.27,-0.78l0 -0 -0 0c-0.07,-0.04 -0.14,-0.09 -0.21,-0.13l0 -0.01 -0.02 0c-0.33,-0.21 -0.65,-0.42 -0.97,-0.64l0 -0 -0 0 -0.21 -0.14c-0.24,-0.16 -0.47,-0.33 -0.71,-0.49l0 -0 -0.01 0c-0.16,-0.12 -0.33,-0.23 -0.49,-0.35l0 -0.01 -0.01 0c-0.26,-0.19 -0.52,-0.37 -0.77,-0.57l0 -0 -0 0c-0.21,-0.16 -0.43,-0.32 -0.64,-0.49l0 -0.01 -0.01 0c-0.09,-0.07 -0.18,-0.14 -0.27,-0.21l0 -0 -0 0 -0.07 -0.05 0 -0.02 -0.02 0c-0.09,-0.07 -0.18,-0.14 -0.26,-0.21l0 0 -0 0c-0.26,-0.21 -0.52,-0.42 -0.78,-0.64l0 -0 -0 0c-0.17,-0.14 -0.33,-0.28 -0.49,-0.42l0 -0.01 -0.01 0c-0.16,-0.14 -0.32,-0.28 -0.49,-0.42l0 -0 -0 0 -0.07 -0.06 0 -0.01 -0.01 0c-0.55,-0.48 -1.09,-0.98 -1.62,-1.49l0 -0 0 0 -0.07 -0.07 0 -0 -0 0 -0.07 -0.07 0 -0 -0 0 -0.07 -0.06 0 -0.01 -0.01 0 -0.06 -0.06 0 -0.01 -0.01 0c-0.28,-0.28 -0.56,-0.56 -0.84,-0.84l0 -0.01 -0.01 0 -0.06 -0.07 0 -0.01 -0.01 0 -0.07 -0.07 0 -0 -0 0 -0.07 -0.07 0 -0 -0 0 -0.07 -0.07 0 -0 -0 0c-0.51,-0.53 -1,-1.07 -1.49,-1.62l0 -0.01 -0.01 0 -0.06 -0.07 0 -0 -0 0c-0.14,-0.16 -0.28,-0.32 -0.42,-0.49l0 -0.01 -0.01 0c-0.14,-0.16 -0.28,-0.33 -0.42,-0.49l0 -0 -0 0c-0.21,-0.26 -0.43,-0.52 -0.63,-0.78l0 -0 -0 0c-0.07,-0.09 -0.14,-0.17 -0.21,-0.26l0 -0.02 -0.02 0 -0.05 -0.07 0 -0 -0 0c-0.07,-0.09 -0.14,-0.18 -0.21,-0.27l0 -0.01 -0.01 0c-0.16,-0.21 -0.33,-0.42 -0.49,-0.64l0 -0 -0 0c-0.19,-0.25 -0.38,-0.51 -0.57,-0.77l0 -0.01 -0 0c-0.12,-0.16 -0.23,-0.33 -0.35,-0.49l0 -0.01 -0 0c-0.17,-0.23 -0.33,-0.47 -0.49,-0.71 -0.05,-0.07 -0.09,-0.14 -0.14,-0.21l0 -0 -0 0c-0.22,-0.32 -0.43,-0.65 -0.64,-0.97l0 -0.02 -0.01 0c-0.04,-0.07 -0.09,-0.14 -0.13,-0.21l0 -0.01 -0 0c-0.27,-0.42 -0.52,-0.84 -0.78,-1.27l0 -0 -0 0c-0.09,-0.16 -0.19,-0.32 -0.28,-0.48l0 -0.02 -0.01 0c-0.09,-0.16 -0.18,-0.32 -0.27,-0.49l0 -0.01 -0.01 0c-0.63,-1.13 -1.22,-2.28 -1.77,-3.46l0 -0.01 -0.01 0 -0.06 -0.14 0 -0 -0 0c-0.1,-0.21 -0.19,-0.42 -0.28,-0.63l0 -0.01 -0.01 0c-0.09,-0.21 -0.19,-0.42 -0.28,-0.63l0 -0 -0 0c-0.17,-0.4 -0.34,-0.8 -0.49,-1.2l0 -0 -0 0 -0.07 -0.18 0 -0.03 -0.01 0c-0.04,-0.11 -0.09,-0.23 -0.13,-0.34l0 -0.02 -0.01 0c-0.17,-0.44 -0.33,-0.89 -0.49,-1.34l0 -0.01 -0 0 -0.07 -0.19 0 -0.02 -0.01 0c-0.02,-0.06 -0.04,-0.12 -0.06,-0.18l0 -0.03 -0.01 0 -0.06 -0.18 0 -0.03 -0.01 0c-0.02,-0.06 -0.04,-0.12 -0.06,-0.19l0 -0.03 -0.01 0 -0.06 -0.19 0 -0.02 -0.01 0 -0.06 -0.2 0 -0.01 -0.01 0c-0.1,-0.3 -0.19,-0.6 -0.28,-0.9l0 -0.02 -0.01 0c-0.05,-0.15 -0.09,-0.3 -0.14,-0.46l0 -0.04 -0.01 0 -0.06 -0.2 0 -0.01 -0 0c-0.02,-0.08 -0.05,-0.17 -0.07,-0.25l0 -0.03 -0.01 0c-0.05,-0.16 -0.09,-0.33 -0.13,-0.49l0 -0.01 -0 0c-0.1,-0.37 -0.19,-0.74 -0.28,-1.11l0 -0.02 -0 0c-0.02,-0.09 -0.04,-0.18 -0.07,-0.27l0 -0.01 -0 0c-0.05,-0.2 -0.09,-0.41 -0.14,-0.61l0 -0.02 -0 0c-0.1,-0.45 -0.19,-0.89 -0.28,-1.34l0 -0 0 0c-0.02,-0.12 -0.05,-0.25 -0.07,-0.37l0 -0.06 -0.01 0c-0.02,-0.11 -0.04,-0.21 -0.06,-0.32l0 -0.03 -0.01 0c-0.02,-0.13 -0.04,-0.26 -0.07,-0.4l0 -0.03 -0 0c-0.05,-0.28 -0.09,-0.56 -0.14,-0.84l0 -0.01 -0 0c-0.05,-0.33 -0.1,-0.67 -0.14,-1l0 -0.06 -0.01 0c-0.02,-0.18 -0.04,-0.36 -0.06,-0.53l0 -0.03 -0 0c-0.05,-0.44 -0.1,-0.88 -0.14,-1.33l0 -0.09 -0.01 0c-0.02,-0.24 -0.04,-0.49 -0.06,-0.73l0 -0.19 -0.01 0c-0.09,-1.19 -0.13,-2.4 -0.13,-3.61l0 -261.34c0,-1.22 0.05,-2.42 0.13,-3.62l0.01 0 0 -0.19c0.02,-0.25 0.04,-0.49 0.06,-0.73l0.01 0 0 -0.09c0.04,-0.45 0.09,-0.89 0.14,-1.33l0 0 0 -0.03c0.02,-0.18 0.04,-0.36 0.06,-0.53l0.01 0 0 -0.06c0.04,-0.34 0.09,-0.67 0.14,-1.01l0 0 0 -0.01c0.04,-0.28 0.09,-0.56 0.14,-0.84l0 0 0 -0.03c0.02,-0.13 0.04,-0.26 0.07,-0.4l0.01 0 0 -0.03c0.02,-0.11 0.04,-0.21 0.06,-0.32l0.01 0 0 -0.06c0.02,-0.12 0.05,-0.25 0.07,-0.37l0 0 0 -0c0.09,-0.45 0.18,-0.9 0.28,-1.34l0 0 0 -0.02c0.05,-0.2 0.09,-0.41 0.14,-0.61l0 0 0 -0.01c0.02,-0.09 0.04,-0.18 0.07,-0.27l0 0 0 -0.02c0.09,-0.37 0.18,-0.74 0.28,-1.11l0 0 0 -0.01c0.04,-0.16 0.09,-0.33 0.13,-0.49l0.01 0 0 -0.03c0.02,-0.08 0.04,-0.17 0.07,-0.25l0 0 0 -0.01 0.06 -0.2 0.01 0 0 -0.04c0.04,-0.15 0.09,-0.3 0.14,-0.46l0.01 0 0 -0.02c0.09,-0.3 0.18,-0.6 0.28,-0.9l0.01 0 0 -0.01 0.06 -0.2 0.01 0 0 -0.02 0.06 -0.19 0.01 0 0 -0.03 0.06 -0.19 0.01 0 0 -0.03 0.06 -0.18 0.01 0 0 -0.03c0.02,-0.06 0.04,-0.12 0.06,-0.18l0.01 0 0 -0.02 0.07 -0.19 0 0 0 -0.01c0.16,-0.45 0.32,-0.9 0.49,-1.34l0.01 0 0 -0.02c0.04,-0.11 0.08,-0.23 0.13,-0.34l0.01 0 0 -0.03 0.07 -0.18 0 0 0 -0c0.16,-0.4 0.32,-0.8 0.49,-1.2l0 0 0 -0c0.09,-0.21 0.18,-0.42 0.28,-0.63l0.01 0 0 -0.01c0.09,-0.21 0.19,-0.42 0.28,-0.63l0 0 0 -0.01 0.06 -0.14 0.01 0 0 -0.02c0.55,-1.18 1.14,-2.33 1.77,-3.46l0.01 0 0 -0.01c0.09,-0.16 0.18,-0.33 0.27,-0.49l0.01 0 0 -0.02c0.09,-0.16 0.19,-0.32 0.28,-0.48l0 0 0 -0c0.25,-0.43 0.51,-0.85 0.78,-1.27l0 0 0 -0c0.04,-0.07 0.09,-0.14 0.13,-0.21l0.01 0 0 -0.02c0.21,-0.33 0.42,-0.65 0.64,-0.97l0 0 0 -0 0.14 -0.21 0 0 0 0c0.16,-0.24 0.33,-0.47 0.49,-0.71l0 0 0 -0.01c0.12,-0.16 0.23,-0.33 0.35,-0.49l0 0 0 -0.01c0.19,-0.26 0.37,-0.52 0.57,-0.77l0 0 0 -0c0.16,-0.21 0.32,-0.43 0.49,-0.64l0.01 0 0 -0.01c0.07,-0.09 0.14,-0.18 0.21,-0.27l0 0 0 -0 0.05 -0.07 0.02 0 0 -0.02c0.07,-0.09 0.14,-0.17 0.21,-0.26l0 0 0 -0c0.21,-0.26 0.42,-0.52 0.63,-0.78l0 0 0 -0c0.14,-0.17 0.28,-0.33 0.42,-0.49l0.01 0 0 -0.01c0.14,-0.16 0.28,-0.32 0.42,-0.49l0 0 0 -0 0.06 -0.07 0.01 0 0 -0.01c0.48,-0.55 0.98,-1.09 1.49,-1.62l0 0 0 0 0.07 -0.07 0 0 0 -0 0.07 -0.07 0 0 0 -0 0.07 -0.07 0.01 0 0 -0.01 0.06 -0.06 0.01 0 0 -0.01c0.28,-0.28 0.56,-0.56 0.84,-0.84l0.01 0 0 -0.01 0.06 -0.06 0.01 0 0 -0.01 0.07 -0.07 0 0 0 -0 0.07 -0.07 0 0 0 -0 0.07 -0.07 0 0 0 -0c0.53,-0.51 1.07,-1 1.62,-1.49l0.01 0 0 -0.01 0.07 -0.06 0 0 0 -0c0.16,-0.14 0.32,-0.28 0.49,-0.42l0.01 0 0 -0.01c0.16,-0.14 0.33,-0.28 0.49,-0.42l0 0 0 -0c0.26,-0.21 0.52,-0.43 0.78,-0.63l0 0 0 -0c0.09,-0.07 0.17,-0.14 0.26,-0.21l0.02 0 0 -0.02 0.07 -0.05 0 0 0 -0c0.09,-0.07 0.18,-0.14 0.27,-0.21l0.01 0 0 -0.01c0.21,-0.16 0.42,-0.33 0.64,-0.49l0 0 0 -0c0.26,-0.19 0.51,-0.38 0.77,-0.57l0.01 0 0 -0c0.16,-0.12 0.32,-0.23 0.49,-0.35l0.01 0 0 -0c0.3,-0.21 0.61,-0.43 0.92,-0.63l0 0 0 0c0.32,-0.22 0.65,-0.43 0.97,-0.64l0.02 0 0 -0.01c0.07,-0.04 0.14,-0.09 0.21,-0.13l0 0 0 -0c0.42,-0.26 0.85,-0.52 1.27,-0.78l0 0 0 -0c0.16,-0.09 0.32,-0.19 0.48,-0.28l0.02 0 0 -0.01c0.16,-0.09 0.33,-0.18 0.49,-0.27l0.01 0 0 -0.01c1.13,-0.63 2.28,-1.22 3.46,-1.77l0.02 0 0 -0.01 0.14 -0.06 0.01 0 0 -0c0.21,-0.1 0.42,-0.19 0.62,-0.28l0.01 0 0 -0.01c0.21,-0.09 0.42,-0.19 0.63,-0.28l0 0 0 -0c0.4,-0.17 0.8,-0.34 1.2,-0.49l0 0 0 -0 0.18 -0.07 0.03 0 0 -0.01c0.11,-0.04 0.23,-0.09 0.34,-0.13l0.02 0 0 -0.01c0.44,-0.17 0.89,-0.33 1.34,-0.49l0.01 0 0 -0 0.19 -0.07 0.02 0 0 -0.01c0.06,-0.02 0.12,-0.04 0.18,-0.06l0.03 0 0 -0.01 0.18 -0.06 0.03 0 0 -0.01c0.06,-0.02 0.13,-0.04 0.19,-0.06l0.03 0 0 -0.01 0.19 -0.06 0.02 0 0 -0.01 0.2 -0.06 0.01 0 0 -0c0.3,-0.1 0.6,-0.19 0.9,-0.28l0.02 0 0 -0.01c0.15,-0.04 0.3,-0.09 0.46,-0.14l0.04 0 0 -0.01 0.2 -0.06 0.01 0 0 -0c0.08,-0.02 0.17,-0.05 0.25,-0.07l0.03 0 0 -0.01c0.16,-0.05 0.33,-0.09 0.49,-0.13l0 0 0 -0c0.37,-0.1 0.74,-0.19 1.11,-0.28l0.02 0 0 -0c0.09,-0.02 0.18,-0.04 0.27,-0.07l0.01 0 0 -0c0.2,-0.05 0.41,-0.09 0.61,-0.14l0.02 0 0 -0.01c0.45,-0.1 0.89,-0.19 1.35,-0.28l0 0 0 0c0.12,-0.02 0.25,-0.05 0.37,-0.07l0.06 0 0 -0.01c0.11,-0.02 0.22,-0.04 0.32,-0.06l0.03 0 0 -0.01c0.13,-0.02 0.26,-0.04 0.4,-0.07l0.03 0 0 -0c0.28,-0.05 0.56,-0.09 0.84,-0.14l0.01 0 0 -0c0.33,-0.05 0.67,-0.1 1.01,-0.14l0.06 0 0 -0.01c0.18,-0.02 0.36,-0.04 0.53,-0.06l0.03 0 0 -0c0.44,-0.05 0.88,-0.1 1.33,-0.14l0.09 0 0 -0.01c0.25,-0.02 0.49,-0.04 0.74,-0.06l0.18 0 0 -0.01c1.19,-0.09 2.4,-0.13 3.61,-0.13l261.34 0c1.22,0 2.42,0.05 3.61,0.13l0 0.01 0.18 0c0.25,0.02 0.49,0.04 0.74,0.06l0 0.01 0.09 0c0.44,0.04 0.89,0.09 1.33,0.14l0 0 0.03 0c0.18,0.02 0.36,0.04 0.53,0.06l0 0.01 0.06 0c0.34,0.04 0.67,0.09 1.01,0.14l0 0 0.01 0c0.28,0.04 0.56,0.09 0.84,0.14l0 0 0.03 0c0.13,0.02 0.26,0.04 0.4,0.07l0 0.01 0.03 0c0.11,0.02 0.21,0.04 0.32,0.06l0 0.01 0.06 0c0.12,0.02 0.25,0.05 0.37,0.07l0 0 0 0c0.45,0.09 0.9,0.18 1.34,0.28l0 0.01 0.02 0c0.2,0.04 0.41,0.09 0.61,0.14l0 0 0.01 0c0.09,0.02 0.18,0.04 0.27,0.07l0 0 0.02 0c0.37,0.09 0.74,0.18 1.11,0.28l0 0 0 0c0.16,0.04 0.33,0.09 0.49,0.13l0 0.01 0.03 0c0.08,0.02 0.17,0.04 0.25,0.07l0 0 0.01 0 0.2 0.06 0 0.01 0.04 0c0.15,0.04 0.3,0.09 0.46,0.14l0 0.01 0.02 0c0.3,0.09 0.6,0.18 0.9,0.28l0 0 0.01 0 0.2 0.06 0 0.01 0.02 0 0.19 0.06 0 0.01 0.03 0 0.19 0.06 0 0.01 0.03 0 0.18 0.06 0 0.01 0.03 0c0.06,0.02 0.12,0.04 0.18,0.06l0 0.01 0.02 0 0.19 0.07 0 0 0.01 0c0.45,0.16 0.9,0.32 1.34,0.49l0 0.01 0.02 0c0.11,0.04 0.23,0.08 0.34,0.13l0 0.01 0.03 0 0.18 0.07 0 0 0 0c0.4,0.16 0.8,0.32 1.2,0.49l0 0 0 0c0.21,0.09 0.42,0.18 0.63,0.28l0 0.01 0.01 0c0.21,0.09 0.42,0.19 0.62,0.28l0 0 0.01 0 0.14 0.06 0 0.01 0.01 0c1.18,0.55 2.33,1.14 3.46,1.77l0 0.01 0.01 0c0.16,0.09 0.33,0.18 0.49,0.27l0 0.01 0.02 0c0.16,0.09 0.32,0.19 0.48,0.28l0 0 0 0c0.43,0.25 0.85,0.51 1.27,0.78l0 0 0 0c0.07,0.04 0.14,0.09 0.21,0.13l0 0.01 0.02 0c0.33,0.21 0.65,0.42 0.97,0.64l0 0 0 0c0.31,0.21 0.62,0.42 0.92,0.63l0 0 0.01 0c0.16,0.12 0.33,0.23 0.49,0.35l0 0 0.01 0c0.26,0.19 0.52,0.37 0.77,0.57l0 0 0 0c0.21,0.16 0.43,0.32 0.64,0.49l0 0.01 0.01 0c0.09,0.07 0.18,0.14 0.27,0.21l0 0 0 0 0.07 0.05 0 0.02 0.02 0c0.09,0.07 0.18,0.14 0.26,0.21l0 0 0 0c0.26,0.21 0.52,0.42 0.78,0.63l0 0 0 0c0.17,0.14 0.33,0.28 0.49,0.42l0 0.01 0.01 0c0.16,0.14 0.33,0.28 0.49,0.42l0 0 0 0 0.07 0.06 0 0.01 0.01 0c0.55,0.48 1.09,0.98 1.62,1.49l0 0 0 0 0.07 0.07 0 0 0 0 0.07 0.07 0 0 0 0 0.07 0.07 0 0.01 0.01 0 0.06 0.06 0 0.01 0.01 0c0.28,0.28 0.56,0.56 0.84,0.84l0 0.01 0.01 0 0.06 0.06 0 0.01 0.01 0 0.06 0.07 0 0 0 0 0.07 0.07 0 0 0 0 0.07 0.07 0 0 0 0c0.51,0.53 1,1.07 1.49,1.62l0 0.01 0.01 0 0.06 0.07 0 0 0 0c0.14,0.16 0.28,0.32 0.42,0.49l0 0.01 0.01 0c0.14,0.16 0.28,0.33 0.42,0.49l0 0 0 0c0.21,0.26 0.43,0.52 0.63,0.78l0 0 0 0c0.07,0.09 0.14,0.17 0.21,0.26l0 0.02 0.02 0 0.05 0.07 0 0 0 0c0.07,0.09 0.14,0.18 0.21,0.27l0 0.01 0.01 0c0.16,0.21 0.33,0.42 0.49,0.64l0 0 0 0c0.19,0.26 0.38,0.51 0.57,0.77l0 0.01 0.01 0c0.12,0.16 0.23,0.33 0.35,0.49l0 0.01 0 0c0.21,0.3 0.43,0.61 0.63,0.92l0 0 0 0c0.22,0.32 0.43,0.65 0.64,0.97l0 0.02 0.01 0c0.04,0.07 0.09,0.14 0.13,0.21l0 0 0 0c0.27,0.42 0.52,0.85 0.78,1.27l0 0 0 0c0.09,0.16 0.19,0.32 0.28,0.48l0 0.02 0.01 0c0.09,0.16 0.18,0.32 0.27,0.49l0 0.01 0 0c0.63,1.13 1.22,2.28 1.77,3.46l0 0.02 0.01 0 0.06 0.14 0 0.01 0 0c0.1,0.21 0.19,0.42 0.28,0.63l0 0.01 0.01 0c0.09,0.21 0.19,0.42 0.28,0.63l0 0 0 0c0.17,0.4 0.34,0.8 0.5,1.2l0 0 0 0 0.07 0.18 0 0.03 0.01 0c0.04,0.11 0.09,0.23 0.13,0.34l0 0.01 0 0c0.17,0.44 0.33,0.89 0.49,1.34l0 0.01 0 0 0.07 0.19 0 0.02 0.01 0c0.02,0.06 0.04,0.12 0.06,0.18l0 0.03 0.01 0 0.06 0.18 0 0.03 0.01 0c0.02,0.06 0.04,0.13 0.06,0.19l0 0.03 0.01 0 0.06 0.19 0 0.02 0.01 0 0.06 0.2 0 0.01 0.01 0c0.1,0.3 0.19,0.6 0.28,0.9l0 0.02 0.01 0c0.05,0.15 0.09,0.3 0.14,0.46l0 0.04 0.01 0 0.06 0.2 0 0.01 0 0c0.02,0.08 0.04,0.17 0.07,0.25l0 0.03 0.01 0c0.05,0.16 0.09,0.33 0.13,0.49l0 0 0 0c0.1,0.37 0.19,0.74 0.28,1.11l0 0.02 0 0c0.02,0.09 0.05,0.18 0.07,0.27l0 0.01 0 0c0.05,0.2 0.09,0.41 0.14,0.61l0 0.02 0 0c0.1,0.45 0.19,0.89 0.28,1.34l0 0 0 0c0.02,0.12 0.05,0.24 0.07,0.37l0 0.06 0.01 0c0.02,0.11 0.04,0.22 0.06,0.32l0 0.03 0.01 0c0.02,0.13 0.04,0.26 0.07,0.4l0 0.03 0 0c0.05,0.28 0.09,0.56 0.14,0.84l0 0.01 0 0c0.05,0.33 0.1,0.67 0.14,1.01l0 0.06 0.01 0c0.02,0.18 0.04,0.36 0.06,0.53l0 0.03 0 0c0.05,0.44 0.1,0.88 0.14,1.33l0 0.09 0.01 0c0.02,0.25 0.04,0.49 0.06,0.74l0 0.18 0.01 0c0.09,1.19 0.13,2.4 0.13,3.62l0 261.34c0,1.22 -0.05,2.42 -0.13,3.61l-0.01 0 0 0.19c-0.02,0.27 -0.04,0.54 -0.07,0.8l-0 0 0 0.02c-0.04,0.44 -0.09,0.88 -0.14,1.32l-0 0 0 0.04c-0.02,0.17 -0.04,0.35 -0.06,0.52l-0.01 0 0 0.07c-0.02,0.17 -0.05,0.33 -0.07,0.5l0 0 0 0.01c-0.06,0.45 -0.13,0.9 -0.21,1.34l-0.01 0 0 0.04c-0.02,0.13 -0.04,0.26 -0.06,0.38l-0.01 0 0 0.04c-0.04,0.25 -0.09,0.49 -0.14,0.74l-0 0 0 0.01c-0.09,0.45 -0.18,0.89 -0.27,1.33l-0.01 0 0 0.04c-0.02,0.1 -0.04,0.21 -0.07,0.31l-0 0 0 0.01 -0.06 0.27 -0.01 0 0 0.03c-0.02,0.09 -0.04,0.17 -0.06,0.25l-0.01 0 0 0.04c-0.11,0.46 -0.23,0.92 -0.35,1.38l0 0 0 0c-0.04,0.16 -0.09,0.33 -0.13,0.5l-0.01 0 0 0.03c-0.04,0.16 -0.09,0.31 -0.14,0.47l-0 0 0 0.01c-0.24,0.81 -0.49,1.61 -0.77,2.4l-0.01 0 0 0.03 -0.07 0.19 -0.01 0 0 0.02 -0.07 0.2 -0 0 0 0.01c-0.14,0.38 -0.28,0.75 -0.42,1.13l-0 0 0 0.01c-0.04,0.11 -0.09,0.23 -0.13,0.34l-0.01 0 0 0.03c-0.04,0.11 -0.09,0.22 -0.13,0.33l-0.01 0 0 0.02 -0.14 0.34 -0 0 0 0.01c-0.14,0.33 -0.28,0.66 -0.42,0.98l-0.01 0 0 0.02c-0.07,0.16 -0.14,0.32 -0.21,0.48l-0 0 0 0.01 -0.06 0.13 -0.01 0 0 0.02c-0.25,0.54 -0.5,1.08 -0.77,1.61l-0.01 0 0 0.02 -0.06 0.12 -0.01 0 0 0.02 -0.06 0.12 -0.01 0 0 0.02 -0.06 0.12 -0.01 0 0 0.02 -0.06 0.12 -0.01 0 0 0.02 -0.07 0.12 -0.01 0 0 0.01 -0.07 0.13 -0 0 0 0c-0.27,0.52 -0.56,1.04 -0.85,1.56l-0 0 0 0.01c-0.07,0.12 -0.13,0.23 -0.2,0.35l-0.01 0 0 0.02 -0.07 0.12 -0 0 0 0c-0.07,0.12 -0.14,0.23 -0.21,0.35l-0 0 0 0.01c-0.14,0.23 -0.28,0.47 -0.42,0.7l-0 0 0 0c-0.12,0.19 -0.23,0.38 -0.35,0.56l-0 0 0 0c-0.04,0.07 -0.09,0.14 -0.13,0.21l-0.01 0 0 0.02c-0.04,0.07 -0.09,0.13 -0.13,0.2l-0.01 0 0 0.02c-0.27,0.42 -0.56,0.84 -0.84,1.26l-0.01 0 0 0.01 -0.14 0.2 -0 0 0 0c-0.12,0.16 -0.23,0.33 -0.35,0.49l-0.01 0 0 0.01c-0.25,0.35 -0.51,0.71 -0.78,1.05l-0 0 0 0c-0.16,0.21 -0.32,0.43 -0.49,0.64l-0.01 0 0 0.01c-0.09,0.11 -0.18,0.23 -0.27,0.34l-0.01 0 0 0.01c-0.32,0.4 -0.65,0.8 -0.98,1.19l-0.01 0 0 0.01c-0.12,0.14 -0.23,0.28 -0.35,0.41l-0 0 0 0 -0.06 0.07 -0.01 0 0 0.01c-0.42,0.48 -0.84,0.94 -1.27,1.4l-0 0 0 0 -0.06 0.07 -0.01 0 0 0.01 -0.06 0.06 -0.01 0 0 0.01 -0.05 0.06 -0.02 0 0 0.02c-0.62,0.65 -1.25,1.28 -1.9,1.89l-0.01 0 0 0.01 -0.06 0.06 -0.01 0 0 0.01 -0.07 0.06 -0 0 0 0c-0.46,0.43 -0.93,0.86 -1.4,1.27l-0.02 0 0 0.01 -0.06 0.06 -0.01 0 0 0c-0.16,0.14 -0.33,0.28 -0.5,0.42l-0 0 0 0c-0.37,0.31 -0.74,0.62 -1.12,0.92l-0.01 0 0 0.01c-0.11,0.09 -0.23,0.18 -0.34,0.27l-0.01 0 0 0.01c-0.21,0.16 -0.42,0.32 -0.63,0.49l-0 0 0 0c-0.19,0.14 -0.38,0.28 -0.57,0.42l-0 0 0 0c-0.16,0.12 -0.32,0.24 -0.48,0.35l-0.01 0 0 0.01c-0.16,0.12 -0.33,0.23 -0.49,0.35l-0.01 0 0 0c-0.55,0.39 -1.11,0.76 -1.68,1.13l-0.02 0 0 0.01c-0.07,0.04 -0.14,0.09 -0.2,0.13l-0.01 0 0 0c-0.42,0.26 -0.84,0.52 -1.26,0.77l-0.01 0 0 0.01c-0.12,0.07 -0.23,0.14 -0.35,0.21l-0.01 0 0 0c-0.16,0.09 -0.32,0.19 -0.49,0.28l-0.01 0 0 0.01c-0.47,0.26 -0.94,0.52 -1.42,0.77l0 0 0 0 -0.13 0.07 -0.01 0 0 0 -0.13 0.07 -0.02 0 0 0.01 -0.12 0.06 -0.02 0 0 0.01 -0.11 0.06 -0.03 0 0 0.01 -0.12 0.06 -0.03 0 0 0.01c-0.37,0.19 -0.75,0.37 -1.13,0.55l-0 0 0 0c-0.25,0.12 -0.5,0.24 -0.75,0.35l-0.03 0 0 0.01 -0.13 0.06 -0.01 0 0 0.01c-0.21,0.09 -0.42,0.19 -0.63,0.28l-0 0 0 0c-0.39,0.17 -0.78,0.34 -1.18,0.5l-0.02 0 0 0.01c-0.11,0.04 -0.21,0.09 -0.32,0.13l-0.03 0 0 0.01c-0.11,0.04 -0.22,0.09 -0.34,0.13l-0.02 0 0 0.01c-0.31,0.12 -0.61,0.23 -0.92,0.35 -0.07,0.02 -0.13,0.05 -0.2,0.07l-0.01 0 0 0c-0.77,0.28 -1.55,0.53 -2.34,0.77 -0.16,0.05 -0.32,0.1 -0.48,0.14l-0.02 0 0 0.01c-0.15,0.04 -0.31,0.09 -0.46,0.14l-0.04 0 0 0.01c-0.16,0.05 -0.33,0.09 -0.49,0.13l-0.01 0 0 0c-0.46,0.12 -0.91,0.24 -1.37,0.35l-0.04 0 0 0.01c-0.08,0.02 -0.16,0.04 -0.25,0.06l-0.04 0 0 0.01 -0.27 0.06 -0.02 0 0 0c-0.21,0.05 -0.42,0.09 -0.63,0.14l-0 0 0 0c-0.35,0.07 -0.69,0.14 -1.04,0.21l-0.02 0 0 0c-0.12,0.02 -0.23,0.05 -0.35,0.07l-0 0 0 0c-0.13,0.02 -0.25,0.05 -0.38,0.07l-0.05 0 0 0.01c-0.13,0.02 -0.25,0.04 -0.38,0.06l-0.05 0 0 0.01c-0.44,0.07 -0.89,0.14 -1.34,0.2l-0.01 0 0 0c-0.17,0.02 -0.33,0.05 -0.49,0.07l-0.07 0 0 0.01c-0.17,0.02 -0.35,0.04 -0.52,0.06l-0.05 0 0 0.01c-0.44,0.05 -0.88,0.1 -1.32,0.14l-0.03 0 0 0c-0.26,0.02 -0.53,0.05 -0.8,0.07l-0.2 0 0 0.01c-1.19,0.08 -2.4,0.13 -3.61,0.13l-261.34 0c-1.21,0 -2.42,-0.05 -3.61,-0.13z"/>
   <g style="clip-path:url(#id0)">
    <g>
     <rect class="fil1" transform="matrix(0.510268 -0.510268 0.510268 0.510268 236.993 3.08846)" width="246.91" height="246.91"/>
    </g>
   </g>
   <path class="fil2" d="M47.12 362.69l0 -0.01 -0.19 0c-0.25,-0.02 -0.49,-0.04 -0.73,-0.06l0 -0.01 -0.09 0c-0.45,-0.04 -0.89,-0.09 -1.33,-0.14l0 -0 -0.03 0c-0.18,-0.02 -0.36,-0.04 -0.53,-0.06l0 -0.01 -0.06 0c-0.34,-0.04 -0.67,-0.09 -1,-0.14l0 -0 -0.01 0c-0.28,-0.04 -0.56,-0.09 -0.84,-0.14l0 -0.01 -0.03 0c-0.13,-0.02 -0.26,-0.04 -0.4,-0.07l0 -0.01 -0.03 0c-0.11,-0.02 -0.22,-0.04 -0.32,-0.06l0 -0.01 -0.06 0c-0.12,-0.02 -0.25,-0.05 -0.37,-0.07l0 0 0 0c-0.45,-0.09 -0.9,-0.18 -1.35,-0.28l0 -0.01 -0.02 0c-0.2,-0.05 -0.41,-0.09 -0.61,-0.14l0 -0 -0.01 0c-0.09,-0.02 -0.18,-0.04 -0.27,-0.07l0 -0 -0.02 0c-0.37,-0.09 -0.74,-0.18 -1.11,-0.28l0 -0 -0.01 0c-0.16,-0.04 -0.33,-0.09 -0.49,-0.13l0 -0.01 -0.03 0c-0.08,-0.02 -0.17,-0.04 -0.25,-0.07l0 -0 -0.01 0 -0.2 -0.06 0 -0.01 -0.04 0c-0.15,-0.04 -0.3,-0.09 -0.46,-0.14l0 -0.01 -0.02 0c-0.3,-0.09 -0.6,-0.18 -0.9,-0.28l0 -0 -0.01 0 -0.2 -0.07 0 -0.01 -0.02 0 -0.19 -0.06 0 -0.01 -0.03 0 -0.19 -0.06 0 -0.01 -0.03 0 -0.18 -0.06 0 -0.01 -0.03 0c-0.06,-0.02 -0.12,-0.04 -0.18,-0.06l0 -0.01 -0.02 0 -0.19 -0.07 0 -0 -0.01 0c-0.45,-0.16 -0.9,-0.32 -1.34,-0.49l0 -0.01 -0.02 0c-0.11,-0.04 -0.23,-0.09 -0.34,-0.13l0 -0.01 -0.03 0 -0.18 -0.07 0 -0 -0 0c-0.4,-0.16 -0.8,-0.33 -1.2,-0.49l0 -0 -0 0c-0.21,-0.09 -0.42,-0.19 -0.63,-0.28l0 -0.01 -0.01 0c-0.21,-0.09 -0.42,-0.19 -0.62,-0.28l0 -0 -0.01 0 -0.14 -0.06 0 -0.01 -0.02 0c-1.18,-0.55 -2.33,-1.14 -3.46,-1.77l0 -0 -0.01 0c-0.16,-0.09 -0.33,-0.18 -0.49,-0.27l0 -0.01 -0.02 0c-0.16,-0.09 -0.32,-0.19 -0.48,-0.28l0 -0 -0 0c-0.43,-0.25 -0.85,-0.51 -1.27,-0.78l0 -0 -0 0c-0.07,-0.04 -0.14,-0.09 -0.21,-0.13l0 -0.01 -0.02 0c-0.33,-0.21 -0.65,-0.42 -0.97,-0.64l0 -0 -0 0 -0.21 -0.14c-0.24,-0.16 -0.47,-0.33 -0.71,-0.49l0 -0 -0.01 0c-0.16,-0.12 -0.33,-0.23 -0.49,-0.35l0 -0.01 -0.01 0c-0.26,-0.19 -0.52,-0.37 -0.77,-0.57l0 -0 -0 0c-0.21,-0.16 -0.43,-0.32 -0.64,-0.49l0 -0.01 -0.01 0c-0.09,-0.07 -0.18,-0.14 -0.27,-0.21l0 -0 -0 0 -0.07 -0.05 0 -0.02 -0.02 0c-0.09,-0.07 -0.18,-0.14 -0.26,-0.21l0 0 -0 0c-0.26,-0.21 -0.52,-0.42 -0.78,-0.64l0 -0 -0 0c-0.17,-0.14 -0.33,-0.28 -0.49,-0.42l0 -0.01 -0.01 0c-0.16,-0.14 -0.32,-0.28 -0.49,-0.42l0 -0 -0 0 -0.07 -0.06 0 -0.01 -0.01 0c-0.55,-0.48 -1.09,-0.98 -1.62,-1.49l0 -0 0 0 -0.07 -0.07 0 -0 -0 0 -0.07 -0.07 0 -0 -0 0 -0.07 -0.06 0 -0.01 -0.01 0 -0.06 -0.06 0 -0.01 -0.01 0c-0.28,-0.28 -0.56,-0.56 -0.84,-0.84l0 -0.01 -0.01 0 -0.06 -0.07 0 -0.01 -0.01 0 -0.07 -0.07 0 -0 -0 0 -0.07 -0.07 0 -0 -0 0 -0.07 -0.07 0 -0 -0 0c-0.51,-0.53 -1,-1.07 -1.49,-1.62l0 -0.01 -0.01 0 -0.06 -0.07 0 -0 -0 0c-0.14,-0.16 -0.28,-0.32 -0.42,-0.49l0 -0.01 -0.01 0c-0.14,-0.16 -0.28,-0.33 -0.42,-0.49l0 -0 -0 0c-0.21,-0.26 -0.43,-0.52 -0.63,-0.78l0 -0 -0 0c-0.07,-0.09 -0.14,-0.17 -0.21,-0.26l0 -0.02 -0.02 0 -0.05 -0.07 0 -0 -0 0c-0.07,-0.09 -0.14,-0.18 -0.21,-0.27l0 -0.01 -0.01 0c-0.16,-0.21 -0.33,-0.42 -0.49,-0.64l0 -0 -0 0c-0.19,-0.25 -0.38,-0.51 -0.57,-0.77l0 -0.01 -0 0c-0.12,-0.16 -0.23,-0.33 -0.35,-0.49l0 -0.01 -0 0c-0.17,-0.23 -0.33,-0.47 -0.49,-0.71 -0.05,-0.07 -0.09,-0.14 -0.14,-0.21l0 -0 -0 0c-0.22,-0.32 -0.43,-0.65 -0.64,-0.97l0 -0.02 -0.01 0c-0.04,-0.07 -0.09,-0.14 -0.13,-0.21l0 -0.01 -0 0c-0.27,-0.42 -0.52,-0.84 -0.78,-1.27l0 -0 -0 0c-0.09,-0.16 -0.19,-0.32 -0.28,-0.48l0 -0.02 -0.01 0c-0.09,-0.16 -0.18,-0.32 -0.27,-0.49l0 -0.01 -0.01 0c-0.63,-1.13 -1.22,-2.28 -1.77,-3.46l0 -0.01 -0.01 0 -0.06 -0.14 0 -0 -0 0c-0.1,-0.21 -0.19,-0.42 -0.28,-0.63l0 -0.01 -0.01 0c-0.09,-0.21 -0.19,-0.42 -0.28,-0.63l0 -0 -0 0c-0.17,-0.4 -0.34,-0.8 -0.49,-1.2l0 -0 -0 0 -0.07 -0.18 0 -0.03 -0.01 0c-0.04,-0.11 -0.09,-0.23 -0.13,-0.34l0 -0.02 -0.01 0c-0.17,-0.44 -0.33,-0.89 -0.49,-1.34l0 -0.01 -0 0 -0.07 -0.19 0 -0.02 -0.01 0c-0.02,-0.06 -0.04,-0.12 -0.06,-0.18l0 -0.03 -0.01 0 -0.06 -0.18 0 -0.03 -0.01 0c-0.02,-0.06 -0.04,-0.12 -0.06,-0.19l0 -0.03 -0.01 0 -0.06 -0.19 0 -0.02 -0.01 0 -0.06 -0.2 0 -0.01 -0.01 0c-0.1,-0.3 -0.19,-0.6 -0.28,-0.9l0 -0.02 -0.01 0c-0.05,-0.15 -0.09,-0.3 -0.14,-0.46l0 -0.04 -0.01 0 -0.06 -0.2 0 -0.01 -0 0c-0.02,-0.08 -0.05,-0.17 -0.07,-0.25l0 -0.03 -0.01 0c-0.05,-0.16 -0.09,-0.33 -0.13,-0.49l0 -0.01 -0 0c-0.1,-0.37 -0.19,-0.74 -0.28,-1.11l0 -0.02 -0 0c-0.02,-0.09 -0.04,-0.18 -0.07,-0.27l0 -0.01 -0 0c-0.05,-0.2 -0.09,-0.41 -0.14,-0.61l0 -0.02 -0 0c-0.1,-0.45 -0.19,-0.89 -0.28,-1.34l0 -0 0 0c-0.02,-0.12 -0.05,-0.25 -0.07,-0.37l0 -0.06 -0.01 0c-0.02,-0.11 -0.04,-0.21 -0.06,-0.32l0 -0.03 -0.01 0c-0.02,-0.13 -0.04,-0.26 -0.07,-0.4l0 -0.03 -0 0c-0.05,-0.28 -0.09,-0.56 -0.14,-0.84l0 -0.01 -0 0c-0.05,-0.33 -0.1,-0.67 -0.14,-1l0 -0.06 -0.01 0c-0.02,-0.18 -0.04,-0.36 -0.06,-0.53l0 -0.03 -0 0c-0.05,-0.44 -0.1,-0.88 -0.14,-1.33l0 -0.09 -0.01 0c-0.02,-0.24 -0.04,-0.49 -0.06,-0.73l0 -0.19 -0.01 0c-0.09,-1.19 -0.13,-2.4 -0.13,-3.61l0 -261.34c0,-1.22 0.05,-2.42 0.13,-3.62l0.01 0 0 -0.19c0.02,-0.25 0.04,-0.49 0.06,-0.73l0.01 0 0 -0.09c0.04,-0.45 0.09,-0.89 0.14,-1.33l0 0 0 -0.03c0.02,-0.18 0.04,-0.36 0.06,-0.53l0.01 0 0 -0.06c0.04,-0.34 0.09,-0.67 0.14,-1.01l0 0 0 -0.01c0.04,-0.28 0.09,-0.56 0.14,-0.84l0 0 0 -0.03c0.02,-0.13 0.04,-0.26 0.07,-0.4l0.01 0 0 -0.03c0.02,-0.11 0.04,-0.21 0.06,-0.32l0.01 0 0 -0.06c0.02,-0.12 0.05,-0.25 0.07,-0.37l0 0 0 -0c0.09,-0.45 0.18,-0.9 0.28,-1.34l0 0 0 -0.02c0.05,-0.2 0.09,-0.41 0.14,-0.61l0 0 0 -0.01c0.02,-0.09 0.04,-0.18 0.07,-0.27l0 0 0 -0.02c0.09,-0.37 0.18,-0.74 0.28,-1.11l0 0 0 -0.01c0.04,-0.16 0.09,-0.33 0.13,-0.49l0.01 0 0 -0.03c0.02,-0.08 0.04,-0.17 0.07,-0.25l0 0 0 -0.01 0.06 -0.2 0.01 0 0 -0.04c0.04,-0.15 0.09,-0.3 0.14,-0.46l0.01 0 0 -0.02c0.09,-0.3 0.18,-0.6 0.28,-0.9l0.01 0 0 -0.01 0.06 -0.2 0.01 0 0 -0.02 0.06 -0.19 0.01 0 0 -0.03 0.06 -0.19 0.01 0 0 -0.03 0.06 -0.18 0.01 0 0 -0.03c0.02,-0.06 0.04,-0.12 0.06,-0.18l0.01 0 0 -0.02 0.07 -0.19 0 0 0 -0.01c0.16,-0.45 0.32,-0.9 0.49,-1.34l0.01 0 0 -0.02c0.04,-0.11 0.08,-0.23 0.13,-0.34l0.01 0 0 -0.03 0.07 -0.18 0 0 0 -0c0.16,-0.4 0.32,-0.8 0.49,-1.2l0 0 0 -0c0.09,-0.21 0.18,-0.42 0.28,-0.63l0.01 0 0 -0.01c0.09,-0.21 0.19,-0.42 0.28,-0.63l0 0 0 -0.01 0.06 -0.14 0.01 0 0 -0.02c0.55,-1.18 1.14,-2.33 1.77,-3.46l0.01 0 0 -0.01c0.09,-0.16 0.18,-0.33 0.27,-0.49l0.01 0 0 -0.02c0.09,-0.16 0.19,-0.32 0.28,-0.48l0 0 0 -0c0.25,-0.43 0.51,-0.85 0.78,-1.27l0 0 0 -0c0.04,-0.07 0.09,-0.14 0.13,-0.21l0.01 0 0 -0.02c0.21,-0.33 0.42,-0.65 0.64,-0.97l0 0 0 -0 0.14 -0.21 0 0 0 0c0.16,-0.24 0.33,-0.47 0.49,-0.71l0 0 0 -0.01c0.12,-0.16 0.23,-0.33 0.35,-0.49l0 0 0 -0.01c0.19,-0.26 0.37,-0.52 0.57,-0.77l0 0 0 -0c0.16,-0.21 0.32,-0.43 0.49,-0.64l0.01 0 0 -0.01c0.07,-0.09 0.14,-0.18 0.21,-0.27l0 0 0 -0 0.05 -0.07 0.02 0 0 -0.02c0.07,-0.09 0.14,-0.17 0.21,-0.26l0 0 0 -0c0.21,-0.26 0.42,-0.52 0.63,-0.78l0 0 0 -0c0.14,-0.17 0.28,-0.33 0.42,-0.49l0.01 0 0 -0.01c0.14,-0.16 0.28,-0.32 0.42,-0.49l0 0 0 -0 0.06 -0.07 0.01 0 0 -0.01c0.48,-0.55 0.98,-1.09 1.49,-1.62l0 0 0 0 0.07 -0.07 0 0 0 -0 0.07 -0.07 0 0 0 -0 0.07 -0.07 0.01 0 0 -0.01 0.06 -0.06 0.01 0 0 -0.01c0.28,-0.28 0.56,-0.56 0.84,-0.84l0.01 0 0 -0.01 0.06 -0.06 0.01 0 0 -0.01 0.07 -0.07 0 0 0 -0 0.07 -0.07 0 0 0 -0 0.07 -0.07 0 0 0 -0c0.53,-0.51 1.07,-1 1.62,-1.49l0.01 0 0 -0.01 0.07 -0.06 0 0 0 -0c0.16,-0.14 0.32,-0.28 0.49,-0.42l0.01 0 0 -0.01c0.16,-0.14 0.33,-0.28 0.49,-0.42l0 0 0 -0c0.26,-0.21 0.52,-0.43 0.78,-0.63l0 0 0 -0c0.09,-0.07 0.17,-0.14 0.26,-0.21l0.02 0 0 -0.02 0.07 -0.05 0 0 0 -0c0.09,-0.07 0.18,-0.14 0.27,-0.21l0.01 0 0 -0.01c0.21,-0.16 0.42,-0.33 0.64,-0.49l0 0 0 -0c0.26,-0.19 0.51,-0.38 0.77,-0.57l0.01 0 0 -0c0.16,-0.12 0.32,-0.23 0.49,-0.35l0.01 0 0 -0c0.3,-0.21 0.61,-0.43 0.92,-0.63l0 0 0 0c0.32,-0.22 0.65,-0.43 0.97,-0.64l0.02 0 0 -0.01c0.07,-0.04 0.14,-0.09 0.21,-0.13l0 0 0 -0c0.42,-0.26 0.85,-0.52 1.27,-0.78l0 0 0 -0c0.16,-0.09 0.32,-0.19 0.48,-0.28l0.02 0 0 -0.01c0.16,-0.09 0.33,-0.18 0.49,-0.27l0.01 0 0 -0.01c1.13,-0.63 2.28,-1.22 3.46,-1.77l0.02 0 0 -0.01 0.14 -0.06 0.01 0 0 -0c0.21,-0.1 0.42,-0.19 0.62,-0.28l0.01 0 0 -0.01c0.21,-0.09 0.42,-0.19 0.63,-0.28l0 0 0 -0c0.4,-0.17 0.8,-0.34 1.2,-0.49l0 0 0 -0 0.18 -0.07 0.03 0 0 -0.01c0.11,-0.04 0.23,-0.09 0.34,-0.13l0.02 0 0 -0.01c0.44,-0.17 0.89,-0.33 1.34,-0.49l0.01 0 0 -0 0.19 -0.07 0.02 0 0 -0.01c0.06,-0.02 0.12,-0.04 0.18,-0.06l0.03 0 0 -0.01 0.18 -0.06 0.03 0 0 -0.01c0.06,-0.02 0.13,-0.04 0.19,-0.06l0.03 0 0 -0.01 0.19 -0.06 0.02 0 0 -0.01 0.2 -0.06 0.01 0 0 -0c0.3,-0.1 0.6,-0.19 0.9,-0.28l0.02 0 0 -0.01c0.15,-0.04 0.3,-0.09 0.46,-0.14l0.04 0 0 -0.01 0.2 -0.06 0.01 0 0 -0c0.08,-0.02 0.17,-0.05 0.25,-0.07l0.03 0 0 -0.01c0.16,-0.05 0.33,-0.09 0.49,-0.13l0 0 0 -0c0.37,-0.1 0.74,-0.19 1.11,-0.28l0.02 0 0 -0c0.09,-0.02 0.18,-0.04 0.27,-0.07l0.01 0 0 -0c0.2,-0.05 0.41,-0.09 0.61,-0.14l0.02 0 0 -0.01c0.45,-0.1 0.89,-0.19 1.35,-0.28l0 0 0 0c0.12,-0.02 0.25,-0.05 0.37,-0.07l0.06 0 0 -0.01c0.11,-0.02 0.22,-0.04 0.32,-0.06l0.03 0 0 -0.01c0.13,-0.02 0.26,-0.04 0.4,-0.07l0.03 0 0 -0c0.28,-0.05 0.56,-0.09 0.84,-0.14l0.01 0 0 -0c0.33,-0.05 0.67,-0.1 1.01,-0.14l0.06 0 0 -0.01c0.18,-0.02 0.36,-0.04 0.53,-0.06l0.03 0 0 -0c0.44,-0.05 0.88,-0.1 1.33,-0.14l0.09 0 0 -0.01c0.25,-0.02 0.49,-0.04 0.74,-0.06l0.18 0 0 -0.01c1.19,-0.09 2.4,-0.13 3.61,-0.13l261.34 0c1.22,0 2.42,0.05 3.61,0.13l0 0.01 0.18 0c0.25,0.02 0.49,0.04 0.74,0.06l0 0.01 0.09 0c0.44,0.04 0.89,0.09 1.33,0.14l0 0 0.03 0c0.18,0.02 0.36,0.04 0.53,0.06l0 0.01 0.06 0c0.34,0.04 0.67,0.09 1.01,0.14l0 0 0.01 0c0.28,0.04 0.56,0.09 0.84,0.14l0 0 0.03 0c0.13,0.02 0.26,0.04 0.4,0.07l0 0.01 0.03 0c0.11,0.02 0.21,0.04 0.32,0.06l0 0.01 0.06 0c0.12,0.02 0.25,0.05 0.37,0.07l0 0 0 0c0.45,0.09 0.9,0.18 1.34,0.28l0 0.01 0.02 0c0.2,0.04 0.41,0.09 0.61,0.14l0 0 0.01 0c0.09,0.02 0.18,0.04 0.27,0.07l0 0 0.02 0c0.37,0.09 0.74,0.18 1.11,0.28l0 0 0 0c0.16,0.04 0.33,0.09 0.49,0.13l0 0.01 0.03 0c0.08,0.02 0.17,0.04 0.25,0.07l0 0 0.01 0 0.2 0.06 0 0.01 0.04 0c0.15,0.04 0.3,0.09 0.46,0.14l0 0.01 0.02 0c0.3,0.09 0.6,0.18 0.9,0.28l0 0 0.01 0 0.2 0.06 0 0.01 0.02 0 0.19 0.06 0 0.01 0.03 0 0.19 0.06 0 0.01 0.03 0 0.18 0.06 0 0.01 0.03 0c0.06,0.02 0.12,0.04 0.18,0.06l0 0.01 0.02 0 0.19 0.07 0 0 0.01 0c0.45,0.16 0.9,0.32 1.34,0.49l0 0.01 0.02 0c0.11,0.04 0.23,0.08 0.34,0.13l0 0.01 0.03 0 0.18 0.07 0 0 0 0c0.4,0.16 0.8,0.32 1.2,0.49l0 0 0 0c0.21,0.09 0.42,0.18 0.63,0.28l0 0.01 0.01 0c0.21,0.09 0.42,0.19 0.62,0.28l0 0 0.01 0 0.14 0.06 0 0.01 0.01 0c1.18,0.55 2.33,1.14 3.46,1.77l0 0.01 0.01 0c0.16,0.09 0.33,0.18 0.49,0.27l0 0.01 0.02 0c0.16,0.09 0.32,0.19 0.48,0.28l0 0 0 0c0.43,0.25 0.85,0.51 1.27,0.78l0 0 0 0c0.07,0.04 0.14,0.09 0.21,0.13l0 0.01 0.02 0c0.33,0.21 0.65,0.42 0.97,0.64l0 0 0 0c0.31,0.21 0.62,0.42 0.92,0.63l0 0 0.01 0c0.16,0.12 0.33,0.23 0.49,0.35l0 0 0.01 0c0.26,0.19 0.52,0.37 0.77,0.57l0 0 0 0c0.21,0.16 0.43,0.32 0.64,0.49l0 0.01 0.01 0c0.09,0.07 0.18,0.14 0.27,0.21l0 0 0 0 0.07 0.05 0 0.02 0.02 0c0.09,0.07 0.18,0.14 0.26,0.21l0 0 0 0c0.26,0.21 0.52,0.42 0.78,0.63l0 0 0 0c0.17,0.14 0.33,0.28 0.49,0.42l0 0.01 0.01 0c0.16,0.14 0.33,0.28 0.49,0.42l0 0 0 0 0.07 0.06 0 0.01 0.01 0c0.55,0.48 1.09,0.98 1.62,1.49l0 0 0 0 0.07 0.07 0 0 0 0 0.07 0.07 0 0 0 0 0.07 0.07 0 0.01 0.01 0 0.06 0.06 0 0.01 0.01 0c0.28,0.28 0.56,0.56 0.84,0.84l0 0.01 0.01 0 0.06 0.06 0 0.01 0.01 0 0.06 0.07 0 0 0 0 0.07 0.07 0 0 0 0 0.07 0.07 0 0 0 0c0.51,0.53 1,1.07 1.49,1.62l0 0.01 0.01 0 0.06 0.07 0 0 0 0c0.14,0.16 0.28,0.32 0.42,0.49l0 0.01 0.01 0c0.14,0.16 0.28,0.33 0.42,0.49l0 0 0 0c0.21,0.26 0.43,0.52 0.63,0.78l0 0 0 0c0.07,0.09 0.14,0.17 0.21,0.26l0 0.02 0.02 0 0.05 0.07 0 0 0 0c0.07,0.09 0.14,0.18 0.21,0.27l0 0.01 0.01 0c0.16,0.21 0.33,0.42 0.49,0.64l0 0 0 0c0.19,0.26 0.38,0.51 0.57,0.77l0 0.01 0.01 0c0.12,0.16 0.23,0.33 0.35,0.49l0 0.01 0 0c0.21,0.3 0.43,0.61 0.63,0.92l0 0 0 0c0.22,0.32 0.43,0.65 0.64,0.97l0 0.02 0.01 0c0.04,0.07 0.09,0.14 0.13,0.21l0 0 0 0c0.27,0.42 0.52,0.85 0.78,1.27l0 0 0 0c0.09,0.16 0.19,0.32 0.28,0.48l0 0.02 0.01 0c0.09,0.16 0.18,0.32 0.27,0.49l0 0.01 0 0c0.63,1.13 1.22,2.28 1.77,3.46l0 0.02 0.01 0 0.06 0.14 0 0.01 0 0c0.1,0.21 0.19,0.42 0.28,0.63l0 0.01 0.01 0c0.09,0.21 0.19,0.42 0.28,0.63l0 0 0 0c0.17,0.4 0.34,0.8 0.5,1.2l0 0 0 0 0.07 0.18 0 0.03 0.01 0c0.04,0.11 0.09,0.23 0.13,0.34l0 0.01 0 0c0.17,0.44 0.33,0.89 0.49,1.34l0 0.01 0 0 0.07 0.19 0 0.02 0.01 0c0.02,0.06 0.04,0.12 0.06,0.18l0 0.03 0.01 0 0.06 0.18 0 0.03 0.01 0c0.02,0.06 0.04,0.13 0.06,0.19l0 0.03 0.01 0 0.06 0.19 0 0.02 0.01 0 0.06 0.2 0 0.01 0.01 0c0.1,0.3 0.19,0.6 0.28,0.9l0 0.02 0.01 0c0.05,0.15 0.09,0.3 0.14,0.46l0 0.04 0.01 0 0.06 0.2 0 0.01 0 0c0.02,0.08 0.04,0.17 0.07,0.25l0 0.03 0.01 0c0.05,0.16 0.09,0.33 0.13,0.49l0 0 0 0c0.1,0.37 0.19,0.74 0.28,1.11l0 0.02 0 0c0.02,0.09 0.05,0.18 0.07,0.27l0 0.01 0 0c0.05,0.2 0.09,0.41 0.14,0.61l0 0.02 0 0c0.1,0.45 0.19,0.89 0.28,1.34l0 0 0 0c0.02,0.12 0.05,0.24 0.07,0.37l0 0.06 0.01 0c0.02,0.11 0.04,0.22 0.06,0.32l0 0.03 0.01 0c0.02,0.13 0.04,0.26 0.07,0.4l0 0.03 0 0c0.05,0.28 0.09,0.56 0.14,0.84l0 0.01 0 0c0.05,0.33 0.1,0.67 0.14,1.01l0 0.06 0.01 0c0.02,0.18 0.04,0.36 0.06,0.53l0 0.03 0 0c0.05,0.44 0.1,0.88 0.14,1.33l0 0.09 0.01 0c0.02,0.25 0.04,0.49 0.06,0.74l0 0.18 0.01 0c0.09,1.19 0.13,2.4 0.13,3.62l0 261.34c0,1.22 -0.05,2.42 -0.13,3.61l-0.01 0 0 0.19c-0.02,0.27 -0.04,0.54 -0.07,0.8l-0 0 0 0.02c-0.04,0.44 -0.09,0.88 -0.14,1.32l-0 0 0 0.04c-0.02,0.17 -0.04,0.35 -0.06,0.52l-0.01 0 0 0.07c-0.02,0.17 -0.05,0.33 -0.07,0.5l0 0 0 0.01c-0.06,0.45 -0.13,0.9 -0.21,1.34l-0.01 0 0 0.04c-0.02,0.13 -0.04,0.26 -0.06,0.38l-0.01 0 0 0.04c-0.04,0.25 -0.09,0.49 -0.14,0.74l-0 0 0 0.01c-0.09,0.45 -0.18,0.89 -0.27,1.33l-0.01 0 0 0.04c-0.02,0.1 -0.04,0.21 -0.07,0.31l-0 0 0 0.01 -0.06 0.27 -0.01 0 0 0.03c-0.02,0.09 -0.04,0.17 -0.06,0.25l-0.01 0 0 0.04c-0.11,0.46 -0.23,0.92 -0.35,1.38l0 0 0 0c-0.04,0.16 -0.09,0.33 -0.13,0.5l-0.01 0 0 0.03c-0.04,0.16 -0.09,0.31 -0.14,0.47l-0 0 0 0.01c-0.24,0.81 -0.49,1.61 -0.77,2.4l-0.01 0 0 0.03 -0.07 0.19 -0.01 0 0 0.02 -0.07 0.2 -0 0 0 0.01c-0.14,0.38 -0.28,0.75 -0.42,1.13l-0 0 0 0.01c-0.04,0.11 -0.09,0.23 -0.13,0.34l-0.01 0 0 0.03c-0.04,0.11 -0.09,0.22 -0.13,0.33l-0.01 0 0 0.02 -0.14 0.34 -0 0 0 0.01c-0.14,0.33 -0.28,0.66 -0.42,0.98l-0.01 0 0 0.02c-0.07,0.16 -0.14,0.32 -0.21,0.48l-0 0 0 0.01 -0.06 0.13 -0.01 0 0 0.02c-0.25,0.54 -0.5,1.08 -0.77,1.61l-0.01 0 0 0.02 -0.06 0.12 -0.01 0 0 0.02 -0.06 0.12 -0.01 0 0 0.02 -0.06 0.12 -0.01 0 0 0.02 -0.06 0.12 -0.01 0 0 0.02 -0.07 0.12 -0.01 0 0 0.01 -0.07 0.13 -0 0 0 0c-0.27,0.52 -0.56,1.04 -0.85,1.56l-0 0 0 0.01c-0.07,0.12 -0.13,0.23 -0.2,0.35l-0.01 0 0 0.02 -0.07 0.12 -0 0 0 0c-0.07,0.12 -0.14,0.23 -0.21,0.35l-0 0 0 0.01c-0.14,0.23 -0.28,0.47 -0.42,0.7l-0 0 0 0c-0.12,0.19 -0.23,0.38 -0.35,0.56l-0 0 0 0c-0.04,0.07 -0.09,0.14 -0.13,0.21l-0.01 0 0 0.02c-0.04,0.07 -0.09,0.13 -0.13,0.2l-0.01 0 0 0.02c-0.27,0.42 -0.56,0.84 -0.84,1.26l-0.01 0 0 0.01 -0.14 0.2 -0 0 0 0c-0.12,0.16 -0.23,0.33 -0.35,0.49l-0.01 0 0 0.01c-0.25,0.35 -0.51,0.71 -0.78,1.05l-0 0 0 0c-0.16,0.21 -0.32,0.43 -0.49,0.64l-0.01 0 0 0.01c-0.09,0.11 -0.18,0.23 -0.27,0.34l-0.01 0 0 0.01c-0.32,0.4 -0.65,0.8 -0.98,1.19l-0.01 0 0 0.01c-0.12,0.14 -0.23,0.28 -0.35,0.41l-0 0 0 0 -0.06 0.07 -0.01 0 0 0.01c-0.42,0.48 -0.84,0.94 -1.27,1.4l-0 0 0 0 -0.06 0.07 -0.01 0 0 0.01 -0.06 0.06 -0.01 0 0 0.01 -0.05 0.06 -0.02 0 0 0.02c-0.62,0.65 -1.25,1.28 -1.9,1.89l-0.01 0 0 0.01 -0.06 0.06 -0.01 0 0 0.01 -0.07 0.06 -0 0 0 0c-0.46,0.43 -0.93,0.86 -1.4,1.27l-0.02 0 0 0.01 -0.06 0.06 -0.01 0 0 0c-0.16,0.14 -0.33,0.28 -0.5,0.42l-0 0 0 0c-0.37,0.31 -0.74,0.62 -1.12,0.92l-0.01 0 0 0.01c-0.11,0.09 -0.23,0.18 -0.34,0.27l-0.01 0 0 0.01c-0.21,0.16 -0.42,0.32 -0.63,0.49l-0 0 0 0c-0.19,0.14 -0.38,0.28 -0.57,0.42l-0 0 0 0c-0.16,0.12 -0.32,0.24 -0.48,0.35l-0.01 0 0 0.01c-0.16,0.12 -0.33,0.23 -0.49,0.35l-0.01 0 0 0c-0.55,0.39 -1.11,0.76 -1.68,1.13l-0.02 0 0 0.01c-0.07,0.04 -0.14,0.09 -0.2,0.13l-0.01 0 0 0c-0.42,0.26 -0.84,0.52 -1.26,0.77l-0.01 0 0 0.01c-0.12,0.07 -0.23,0.14 -0.35,0.21l-0.01 0 0 0c-0.16,0.09 -0.32,0.19 -0.49,0.28l-0.01 0 0 0.01c-0.47,0.26 -0.94,0.52 -1.42,0.77l0 0 0 0 -0.13 0.07 -0.01 0 0 0 -0.13 0.07 -0.02 0 0 0.01 -0.12 0.06 -0.02 0 0 0.01 -0.11 0.06 -0.03 0 0 0.01 -0.12 0.06 -0.03 0 0 0.01c-0.37,0.19 -0.75,0.37 -1.13,0.55l-0 0 0 0c-0.25,0.12 -0.5,0.24 -0.75,0.35l-0.03 0 0 0.01 -0.13 0.06 -0.01 0 0 0.01c-0.21,0.09 -0.42,0.19 -0.63,0.28l-0 0 0 0c-0.39,0.17 -0.78,0.34 -1.18,0.5l-0.02 0 0 0.01c-0.11,0.04 -0.21,0.09 -0.32,0.13l-0.03 0 0 0.01c-0.11,0.04 -0.22,0.09 -0.34,0.13l-0.02 0 0 0.01c-0.31,0.12 -0.61,0.23 -0.92,0.35 -0.07,0.02 -0.13,0.05 -0.2,0.07l-0.01 0 0 0c-0.77,0.28 -1.55,0.53 -2.34,0.77 -0.16,0.05 -0.32,0.1 -0.48,0.14l-0.02 0 0 0.01c-0.15,0.04 -0.31,0.09 -0.46,0.14l-0.04 0 0 0.01c-0.16,0.05 -0.33,0.09 -0.49,0.13l-0.01 0 0 0c-0.46,0.12 -0.91,0.24 -1.37,0.35l-0.04 0 0 0.01c-0.08,0.02 -0.16,0.04 -0.25,0.06l-0.04 0 0 0.01 -0.27 0.06 -0.02 0 0 0c-0.21,0.05 -0.42,0.09 -0.63,0.14l-0 0 0 0c-0.35,0.07 -0.69,0.14 -1.04,0.21l-0.02 0 0 0c-0.12,0.02 -0.23,0.05 -0.35,0.07l-0 0 0 0c-0.13,0.02 -0.25,0.05 -0.38,0.07l-0.05 0 0 0.01c-0.13,0.02 -0.25,0.04 -0.38,0.06l-0.05 0 0 0.01c-0.44,0.07 -0.89,0.14 -1.34,0.2l-0.01 0 0 0c-0.17,0.02 -0.33,0.05 -0.49,0.07l-0.07 0 0 0.01c-0.17,0.02 -0.35,0.04 -0.52,0.06l-0.05 0 0 0.01c-0.44,0.05 -0.88,0.1 -1.32,0.14l-0.03 0 0 0c-0.26,0.02 -0.53,0.05 -0.8,0.07l-0.2 0 0 0.01c-1.19,0.08 -2.4,0.13 -3.61,0.13l-261.34 0c-1.21,0 -2.42,-0.05 -3.61,-0.13z"/>
   <path class="fil3 str0" d="M279.88 212.45c0,3.79 -2.12,7.28 -5.52,9 -6.27,3.19 -61.22,31.37 -63.04,32.53 -9,5.62 -22.21,7.03 -39.21,4.25 -14.42,-2.38 -28.08,-7.23 -34.86,-9.92 -3.39,-1.32 -13.16,-2.12 -17.86,-2.43l-0.99 -50.01 6.02 0c7.94,0.05 15.84,1.87 22.97,5.41 6.83,3.34 27.62,5.36 31.16,5.42l25.6 0.45c5.31,0.1 9.51,4.45 9.41,9.76l0 1.06c-0.1,5.31 -4.45,9.51 -9.76,9.41l-33.04 -0.56 -0.05 0c-1.42,0 -2.87,1.57 -2.92,3.04 0,1.42 -0.3,4.44 3.86,4.83l33.04 0.61 0.25 0c3.84,0 7.49,-1.47 10.27,-4.15 1.06,-1.01 1.97,-2.23 2.68,-3.49l47.3 -24.08c4.96,-2.53 11.08,-0.56 13.61,4.4 0.71,1.32 1.06,2.88 1.06,4.45z"/>
   <g>
    <path class="fil4" d="M97.32 214.71l0 -1.4 0 0 0.08 -0 0.08 -0 0.08 -0.01 0.08 -0.01 0.07 -0.01 0.07 -0.02 0.08 -0.02 0.07 -0.02 0.07 -0.03 0.07 -0.03 0.07 -0.03 0.07 -0.03 0.06 -0.04 0.06 -0.04 0.06 -0.04 0.05 -0.04 0.06 -0.05 0.05 -0.04 0.05 -0.05 0.05 -0.05 0.04 -0.05 0.04 -0.05 0.04 -0.06 0.03 -0.06 0.03 -0.05 0.02 -0.06 0.02 -0.06 0.02 -0.06 0.01 -0.06 0.01 -0.06 0.01 -0.06 0 -0.06 1.82 0 -0 0.14 -0.01 0.14 -0.02 0.13 -0.03 0.13 -0.04 0.13 -0.05 0.13 -0.06 0.12 -0.06 0.12 -0.07 0.12 -0.07 0.11 -0.08 0.11 -0.09 0.11 -0.1 0.1 -0.1 0.1 -0.11 0.1 -0.11 0.09 -0.12 0.09 -0.13 0.09 -0.13 0.08 -0.14 0.07 -0.14 0.07 -0.15 0.06 -0.15 0.06 -0.16 0.05 -0.16 0.05 -0.16 0.04 -0.17 0.04 -0.17 0.03 -0.17 0.02 -0.17 0.02 -0.17 0.01 -0.18 0 0 0zm-3.44 -2.66l1.82 0 0 0 0 0.06 0.01 0.06 0.01 0.06 0.01 0.06 0.02 0.06 0.02 0.06 0.02 0.06 0.03 0.05 0.03 0.06 0.04 0.06 0.04 0.05 0.04 0.05 0.05 0.05 0.05 0.05 0.05 0.04 0.06 0.05 0.05 0.04 0.06 0.04 0.06 0.04 0.06 0.04 0.07 0.03 0.07 0.03 0.07 0.03 0.07 0.03 0.07 0.02 0.08 0.02 0.07 0.02 0.07 0.01 0.08 0.01 0.08 0.01 0.08 0 0.08 0 0 1.4 -0.18 -0 -0.17 -0.01 -0.17 -0.02 -0.17 -0.02 -0.17 -0.03 -0.17 -0.04 -0.16 -0.04 -0.16 -0.05 -0.16 -0.05 -0.15 -0.06 -0.15 -0.06 -0.14 -0.07 -0.14 -0.07 -0.13 -0.08 -0.13 -0.09 -0.12 -0.09 -0.11 -0.09 -0.11 -0.1 -0.1 -0.1 -0.1 -0.1 -0.09 -0.11 -0.08 -0.11 -0.07 -0.11 -0.07 -0.12 -0.06 -0.12 -0.06 -0.12 -0.05 -0.13 -0.04 -0.13 -0.03 -0.13 -0.02 -0.13 -0.01 -0.14 -0 -0.14 0 0zm1.82 -14.65l0 14.65 -1.82 0 0 -14.65 0 0 1.82 0zm1.63 -2.66l0 1.4 0 0 -0.08 0 -0.08 0 -0.08 0.01 -0.08 0.01 -0.07 0.01 -0.07 0.02 -0.08 0.02 -0.07 0.02 -0.07 0.03 -0.07 0.03 -0.07 0.03 -0.06 0.03 -0.07 0.04 -0.06 0.04 -0.06 0.04 -0.06 0.04 -0.06 0.05 -0.05 0.04 -0.05 0.05 -0.04 0.05 -0.04 0.05 -0.04 0.05 -0.04 0.05 -0.03 0.06 -0.03 0.06 -0.03 0.06 -0.02 0.06 -0.02 0.06 -0.01 0.06 -0.01 0.07 -0.01 0.06 -0 0.06 -1.82 0 0 -0.14 0.01 -0.14 0.02 -0.13 0.03 -0.13 0.04 -0.13 0.05 -0.13 0.05 -0.12 0.06 -0.12 0.07 -0.12 0.08 -0.12 0.08 -0.11 0.09 -0.11 0.1 -0.11 0.1 -0.1 0.11 -0.1 0.11 -0.09 0.12 -0.09 0.13 -0.09 0.13 -0.08 0.13 -0.07 0.14 -0.07 0.15 -0.06 0.15 -0.06 0.16 -0.05 0.16 -0.05 0.16 -0.04 0.17 -0.04 0.17 -0.03 0.17 -0.02 0.17 -0.02 0.17 -0.01 0.18 -0 0 0zm3.44 2.66l-1.82 0 0 0 -0 -0.06 -0.01 -0.06 -0.01 -0.07 -0.01 -0.06 -0.02 -0.06 -0.02 -0.06 -0.03 -0.06 -0.03 -0.06 -0.03 -0.06 -0.04 -0.05 -0.04 -0.05 -0.04 -0.05 -0.04 -0.05 -0.05 -0.05 -0.05 -0.04 -0.06 -0.05 -0.06 -0.04 -0.06 -0.04 -0.06 -0.04 -0.07 -0.04 -0.06 -0.03 -0.07 -0.03 -0.07 -0.03 -0.07 -0.03 -0.07 -0.02 -0.08 -0.02 -0.07 -0.02 -0.07 -0.01 -0.08 -0.01 -0.08 -0.01 -0.08 -0 -0.08 -0 0 -1.4 0.18 0 0.17 0.01 0.17 0.02 0.17 0.02 0.17 0.03 0.17 0.04 0.16 0.04 0.16 0.05 0.16 0.05 0.15 0.06 0.15 0.06 0.14 0.07 0.13 0.07 0.13 0.08 0.13 0.09 0.12 0.09 0.11 0.09 0.11 0.1 0.1 0.1 0.1 0.11 0.09 0.11 0.08 0.11 0.08 0.12 0.07 0.12 0.06 0.12 0.05 0.12 0.05 0.13 0.04 0.13 0.03 0.13 0.02 0.13 0.01 0.14 0 0.14 0 0zm-1.82 14.65l0 -14.65 1.82 0 0 14.65 0 0 -1.82 0zm-16.2 37.96l0 -60.97 1.82 0 0 60.97 -0.91 0.7 -0.91 -0.7zm0.91 0.7l-0.91 0 0 -0.7 0.91 0.7zm27.33 0l-27.33 0 0 -1.4 27.33 0 0.91 0.7 -0.91 0.7zm0.91 -0.7l0 0.7 -0.91 0 0.91 -0.7zm0 -60.97l0 60.97 -1.82 0 0 -60.97 0.91 -0.7 0.91 0.7zm-0.91 -0.7l0.91 0 0 0.7 -0.91 -0.7zm-27.33 0l27.33 0 0 1.4 -27.33 0 -0.91 -0.7 0.91 -0.7zm-0.91 0.7l0 -0.7 0.91 0 -0.91 0.7z"/>
   </g>
   <g>
    <path class="fil5 str1" d="M189.05 127.84c-26.99,-19.45 -57.42,3 -56.59,33.24 0,0.04 0,0.08 0,0.12 0.12,7.34 4.24,14.09 10.59,18.07 3.27,2.05 6.71,3.88 10.31,5.47 -4.98,-6.65 -8.51,-14.41 -9.71,-22.56 -4.19,-26.6 20.84,-48.23 45.4,-34.33z"/>
    <path class="fil5 str1" d="M143.25 119.47c21.6,-16.83 53.4,-6.58 53.29,21.04 3.85,-32.44 -31.38,-46.82 -57.91,-31.01 -12.17,7.05 -21.55,18.21 -27.52,30.84 2.85,7.57 6.88,14.65 11.91,20.99 -0.04,-15.24 7.19,-31.92 20.23,-41.87z"/>
    <path class="fil5 str1" d="M173.94 153.12c26.99,19.46 57.42,-3 56.6,-33.23 -0,-0.04 -0,-0.08 -0,-0.12 -0.12,-7.34 -4.24,-14.09 -10.59,-18.07 -3.27,-2.05 -6.71,-3.88 -10.31,-5.47 4.98,6.65 8.51,14.41 9.71,22.56 4.2,26.6 -20.84,48.23 -45.4,34.33z"/>
    <path class="fil5 str1" d="M239.98 119.62c0.04,15.24 -7.19,31.92 -20.23,41.87 -21.6,16.83 -53.4,6.58 -53.29,-21.04 -3.85,32.44 31.38,46.82 57.91,31.01 12.17,-7.05 21.55,-18.21 27.52,-30.84 -2.85,-7.57 -6.88,-14.65 -11.91,-20.99z"/>
    <path class="fil5 str1" d="M181.1 97.78c25.8,9.76 32.56,41.65 7.89,55.37 24.86,-10.47 26.56,-36.44 11.94,-53.67 -5.41,-6.38 -13.58,-9.94 -22.08,-10.19 -16.06,-0.49 -31.45,3.75 -44.52,11.58 13.66,-6.97 31.98,-8.85 46.77,-3.08z"/>
    <path class="fil5 str1" d="M181.89 183.18c-25.8,-9.77 -32.56,-41.65 -7.89,-55.38 -24.86,10.47 -26.56,36.45 -11.94,53.68 5.45,6.42 13.7,9.96 22.26,10.2 14.51,0.41 28.47,-3.04 40.66,-9.51 -13.15,5.41 -29.58,6.28 -43.09,1.01z"/>
   </g>
  </g>
 </g>
</svg>
