<?xml version="1.0" encoding="UTF-8"?>
<!DOCTYPE svg PUBLIC "-//W3C//DTD SVG 1.1//EN" "http://www.w3.org/Graphics/SVG/1.1/DTD/svg11.dtd">
<!-- Creator: CorelDRAW X6 -->
<svg xmlns="http://www.w3.org/2000/svg" xml:space="preserve" width="53.4859mm" height="53.4859mm" version="1.1" style="shape-rendering:geometricPrecision; text-rendering:geometricPrecision; image-rendering:optimizeQuality; fill-rule:evenodd; clip-rule:evenodd"
viewBox="0 0 5349 5349"
 xmlns:xlink="http://www.w3.org/1999/xlink">
 <defs>
  <style type="text/css">
   <![CDATA[
    .fil2 {fill:none}
    .fil3 {fill:#898989}
    .fil0 {fill:#D9DADA}
    .fil1 {fill:#E31E24}
   ]]>
  </style>
    <clipPath id="id0">
     <path d="M695 5347l0 0 -3 0c-4,0 -7,-1 -11,-1l0 0 -1 0c-7,-1 -13,-1 -20,-2l0 0 -1 0c-3,0 -5,-1 -8,-1l0 0 -1 0c-5,-1 -10,-1 -15,-2l0 0 0 0c-4,-1 -8,-1 -12,-2l0 0 0 0c-2,0 -4,-1 -6,-1l0 0 0 0c-2,0 -3,-1 -5,-1l0 0 -1 0c-2,0 -4,-1 -5,-1l0 0 0 0c-7,-1 -13,-3 -20,-4l0 0 0 0c-3,-1 -6,-1 -9,-2l0 0 0 0c-1,0 -3,-1 -4,-1l0 0 0 0c-5,-1 -11,-3 -16,-4l0 0 0 0c-2,-1 -5,-1 -7,-2l0 0 0 0c-1,0 -2,-1 -4,-1l0 0 0 0 -3 -1 0 0 -1 0c-2,-1 -4,-1 -7,-2l0 0 0 0c-4,-1 -9,-3 -13,-4l0 0 0 0 -3 -1 0 0 0 0 -3 -1 0 0 0 0 -3 -1 0 0 0 0 -3 -1 0 0 0 0c-1,0 -2,-1 -3,-1l0 0 0 0 -3 -1 0 0 0 0c-7,-2 -13,-5 -20,-7l0 0 0 0c-2,-1 -3,-1 -5,-2l0 0 -1 0 -3 -1 0 0 0 0c-6,-2 -12,-5 -18,-7l0 0 0 0c-3,-1 -6,-3 -9,-4l0 0 0 0c-3,-1 -6,-3 -9,-4l0 0 0 0 -2 -1 0 0 0 0c-17,-8 -34,-17 -51,-26l0 0 0 0c-2,-1 -5,-3 -7,-4l0 0 0 0c-2,-1 -5,-3 -7,-4l0 0 0 0c-6,-4 -13,-8 -19,-11l0 0 0 0c-1,-1 -2,-1 -3,-2l0 0 0 0c-5,-3 -10,-6 -14,-9l0 0 0 0 -3 -2c-4,-2 -7,-5 -10,-7l0 0 0 0c-2,-2 -5,-3 -7,-5l0 0 0 0c-4,-3 -8,-6 -11,-8l0 0 0 0c-3,-2 -6,-5 -9,-7l0 0 0 0c-1,-1 -3,-2 -4,-3l0 0 0 0 -1 -1 0 0 0 0c-1,-1 -3,-2 -4,-3l0 0 0 0c-4,-3 -8,-6 -11,-9l0 0 0 0c-2,-2 -5,-4 -7,-6l0 0 0 0c-2,-2 -5,-4 -7,-6l0 0 0 0 -1 -1 0 0 0 0c-8,-7 -16,-14 -24,-22l0 0 0 0 -1 -1 0 0 0 0 -1 -1 0 0 0 0 -1 -1 0 0 0 0 -1 -1 0 0 0 0c-4,-4 -8,-8 -12,-12l0 0 0 0 -1 -1 0 0 0 0 -1 -1 0 0 0 0 -1 -1 0 0 0 0 -1 -1 0 0 0 0c-7,-8 -15,-16 -22,-24l0 0 0 0 -1 -1 0 0 0 0c-2,-2 -4,-5 -6,-7l0 0 0 0c-2,-2 -4,-5 -6,-7l0 0 0 0c-3,-4 -6,-8 -9,-11l0 0 0 0c-1,-1 -2,-3 -3,-4l0 0 0 0 -1 -1 0 0 0 0c-1,-1 -2,-3 -3,-4l0 0 0 0c-2,-3 -5,-6 -7,-9l0 0 0 0c-3,-4 -6,-8 -8,-11l0 0 0 0c-2,-2 -3,-5 -5,-7l0 0 0 0c-2,-3 -5,-7 -7,-10 -1,-1 -1,-2 -2,-3l0 0 0 0c-3,-5 -6,-10 -9,-14l0 0 0 0c-1,-1 -1,-2 -2,-3l0 0 0 0c-4,-6 -8,-12 -11,-19l0 0 0 0c-1,-2 -3,-5 -4,-7l0 0 0 0c-1,-2 -3,-5 -4,-7l0 0 0 0c-9,-17 -18,-34 -26,-51l0 0 0 0 -1 -2 0 0 0 0c-1,-3 -3,-6 -4,-9l0 0 0 0c-1,-3 -3,-6 -4,-9l0 0 0 0c-3,-6 -5,-12 -7,-18l0 0 0 0 -1 -3 0 0 0 0c-1,-2 -1,-3 -2,-5l0 0 0 0c-3,-7 -5,-13 -7,-20l0 0 0 0 -1 -3 0 0 0 0c0,-1 -1,-2 -1,-3l0 0 0 0 -1 -3 0 0 0 0c0,-1 -1,-2 -1,-3l0 0 0 0 -1 -3 0 0 0 0 -1 -3 0 0 0 0c-1,-4 -3,-9 -4,-13l0 0 0 0c-1,-2 -1,-4 -2,-7l0 -1 0 0 -1 -3 0 0 0 0c0,-1 -1,-2 -1,-4l0 0 0 0c-1,-2 -1,-5 -2,-7l0 0 0 0c-1,-5 -3,-11 -4,-16l0 0 0 0c0,-1 -1,-3 -1,-4l0 0 0 0c-1,-3 -1,-6 -2,-9l0 0 0 0c-1,-7 -3,-13 -4,-20l0 0 0 0c0,-2 -1,-4 -1,-5l0 -1 0 0c0,-2 -1,-3 -1,-5l0 0 0 0c0,-2 -1,-4 -1,-6l0 0 0 0c-1,-4 -1,-8 -2,-12l0 0 0 0c-1,-5 -1,-10 -2,-15l0 -1 0 0c0,-3 -1,-5 -1,-8l0 0 0 0c-1,-7 -1,-13 -2,-20l0 -1 0 0c0,-4 -1,-7 -1,-11l0 -3 0 0c-1,-18 -2,-35 -2,-53l0 -3853c0,-18 1,-36 2,-53l0 0 0 -3c0,-4 1,-7 1,-11l0 0 0 -1c1,-7 1,-13 2,-20l0 0 0 0c0,-3 1,-5 1,-8l0 0 0 -1c1,-5 1,-10 2,-15l0 0 0 0c1,-4 1,-8 2,-12l0 0 0 0c0,-2 1,-4 1,-6l0 0 0 0c0,-2 1,-3 1,-5l0 0 0 -1c0,-2 1,-4 1,-5l0 0 0 0c1,-7 3,-13 4,-20l0 0 0 0c1,-3 1,-6 2,-9l0 0 0 0c0,-1 1,-3 1,-4l0 0 0 0c1,-5 3,-11 4,-16l0 0 0 0c1,-2 1,-5 2,-7l0 0 0 0c0,-1 1,-2 1,-4l0 0 0 0 1 -3 0 0 0 -1c1,-2 1,-4 2,-7l0 0 0 0c1,-4 3,-9 4,-13l0 0 0 0 1 -3 0 0 0 0 1 -3 0 0 0 0 1 -3 0 0 0 0 1 -3 0 0 0 0c0,-1 1,-2 1,-3l0 0 0 0 1 -3 0 0 0 0c2,-7 5,-13 7,-20l0 0 0 0c1,-2 1,-3 2,-5l0 0 0 0 1 -3 0 0 0 0c2,-6 5,-12 7,-18l0 0 0 0c1,-3 3,-6 4,-9l0 0 0 0c1,-3 3,-6 4,-9l0 0 0 0 1 -2 0 0 0 0c8,-17 17,-34 26,-51l0 0 0 0c1,-2 3,-5 4,-7l0 0 0 0c1,-2 3,-5 4,-7l0 0 0 0c4,-6 8,-13 11,-19l0 0 0 0c1,-1 1,-2 2,-3l0 0 0 0c3,-5 6,-10 9,-14l0 0 0 0 2 -3 0 0 0 0c2,-4 5,-7 7,-10l0 0 0 0c2,-2 3,-5 5,-7l0 0 0 0c3,-4 6,-8 8,-11l0 0 0 0c2,-3 5,-6 7,-9l0 0 0 0c1,-1 2,-3 3,-4l0 0 0 0 1 -1 0 0 0 0c1,-1 2,-3 3,-4l0 0 0 0c3,-4 6,-8 9,-11l0 0 0 0c2,-2 4,-5 6,-7l0 0 0 0c2,-2 4,-5 6,-7l0 0 0 0 1 -1 0 0 0 0c7,-8 14,-16 22,-24l0 0 0 0 1 -1 0 0 0 0 1 -1 0 0 0 0 1 -1 0 0 0 0 1 -1 0 0 0 0c4,-4 8,-8 12,-12l0 0 0 0 1 -1 0 0 0 0 1 -1 0 0 0 0 1 -1 0 0 0 0 1 -1 0 0 0 0c8,-7 16,-15 24,-22l0 0 0 0 1 -1 0 0 0 0c2,-2 5,-4 7,-6l0 0 0 0c2,-2 5,-4 7,-6l0 0 0 0c4,-3 8,-6 11,-9l0 0 0 0c1,-1 3,-2 4,-3l0 0 0 0 1 -1 0 0 0 0c1,-1 3,-2 4,-3l0 0 0 0c3,-2 6,-5 9,-7l0 0 0 0c4,-3 8,-6 11,-8l0 0 0 0c2,-2 5,-3 7,-5l0 0 0 0c4,-3 9,-6 14,-9l0 0 0 0c5,-3 10,-6 14,-9l0 0 0 0c1,-1 2,-1 3,-2l0 0 0 0c6,-4 12,-8 19,-11l0 0 0 0c2,-1 5,-3 7,-4l0 0 0 0c2,-1 5,-3 7,-4l0 0 0 0c17,-9 34,-18 51,-26l0 0 0 0 2 -1 0 0 0 0c3,-1 6,-3 9,-4l0 0 0 0c3,-1 6,-3 9,-4l0 0 0 0c6,-3 12,-5 18,-7l0 0 0 0 3 -1 1 0 0 0c2,-1 3,-1 5,-2l0 0 0 0c7,-3 13,-5 20,-7l0 0 0 0 3 -1 0 0 0 0c1,0 2,-1 3,-1l0 0 0 0 3 -1 0 0 0 0c1,0 2,-1 3,-1l0 0 0 0 3 -1 0 0 0 0 3 -1 0 0 0 0c4,-1 9,-3 13,-4l0 0 0 0c2,-1 4,-1 7,-2l1 0 0 0 3 -1 0 0 0 0c1,0 2,-1 4,-1l0 0 0 0c2,-1 5,-1 7,-2l0 0 0 0c5,-1 11,-3 16,-4l0 0 0 0c1,0 3,-1 4,-1l0 0 0 0c3,-1 6,-1 9,-2l0 0 0 0c7,-1 13,-3 20,-4l0 0 0 0c2,0 4,-1 5,-1l1 0 0 0c2,0 3,-1 5,-1l0 0 0 0c2,0 4,-1 6,-1l0 0 0 0c4,-1 8,-1 12,-2l0 0 0 0c5,-1 10,-1 15,-2l1 0 0 0c3,0 5,-1 8,-1l1 0 0 0c7,-1 13,-1 20,-2l1 0 0 0c4,0 7,-1 11,-1l3 0 0 0c18,-1 35,-2 53,-2l3853 0c18,0 36,1 53,2l0 0 3 0c4,0 7,1 11,1l0 0 1 0c7,1 13,1 20,2l0 0 1 0c3,0 5,1 8,1l0 0 1 0c5,1 10,1 15,2l0 0 0 0c4,1 8,1 12,2l0 0 0 0c2,0 4,1 6,1l0 0 0 0c2,0 3,1 5,1l0 0 1 0c2,0 4,1 5,1l0 0 0 0c7,1 13,3 20,4l0 0 0 0c3,1 6,1 9,2l0 0 0 0c1,0 3,1 4,1l0 0 0 0c6,1 11,3 16,4l0 0 0 0c2,1 5,1 7,2l0 0 0 0c1,0 2,1 4,1l0 0 0 0 3 1 0 0 1 0c2,1 4,1 7,2l0 0 0 0c4,1 9,3 13,4l0 0 0 0 3 1 0 0 0 0 3 1 0 0 0 0 3 1 0 0 0 0 3 1 0 0 0 0c1,0 2,1 3,1l0 0 0 0 3 1 0 0 0 0c7,2 13,5 20,7l0 0 0 0c2,1 3,1 5,2l0 0 1 0 3 1 0 0 0 0c6,2 12,5 18,7l0 0 0 0c3,1 6,3 9,4l0 0 0 0c3,1 6,3 9,4l0 0 0 0 2 1 0 0 0 0c17,8 34,17 51,26l0 0 0 0c2,1 5,3 7,4l0 0 0 0c2,1 5,3 7,4l0 0 0 0c6,4 13,8 19,11l0 0 0 0c1,1 2,1 3,2l0 0 0 0c5,3 10,6 14,9l0 0 0 0c5,3 9,6 14,9l0 0 0 0c2,2 5,3 7,5l0 0 0 0c4,3 8,6 11,8l0 0 0 0c3,2 6,5 9,7l0 0 0 0c1,1 3,2 4,3l0 0 0 0 1 1 0 0 0 0c1,1 3,2 4,3l0 0 0 0c4,3 8,6 11,9l0 0 0 0c2,2 5,4 7,6l0 0 0 0c2,2 5,4 7,6l0 0 0 0 1 1 0 0 0 0c8,7 16,14 24,22l0 0 0 0 1 1 0 0 0 0 1 1 0 0 0 0 1 1 0 0 0 0 1 1 0 0 0 0c4,4 8,8 12,12l0 0 0 0 1 1 0 0 0 0 1 1 0 0 0 0 1 1 0 0 0 0 1 1 0 0 0 0c7,8 15,16 22,24l0 0 0 0 1 1 0 0 0 0c2,2 4,5 6,7l0 0 0 0c2,2 4,5 6,7l0 0 0 0c3,4 6,8 9,11l0 0 0 0c1,1 2,3 3,4l0 0 0 0 1 1 0 0 0 0c1,1 2,3 3,4l0 0 0 0c2,3 5,6 7,9l0 0 0 0c3,4 6,8 8,11l0 0 0 0c2,2 3,5 5,7l0 0 0 0c3,4 6,9 9,14l0 0 0 0c3,5 6,10 9,14l0 0 0 0c1,1 1,2 2,3l0 0 0 0c4,6 8,12 11,19l0 0 0 0c1,2 3,5 4,7l0 0 0 0c1,2 3,5 4,7l0 0 0 0c9,17 18,34 26,51l0 0 0 0 1 2 0 0 0 0c1,3 3,6 4,9l0 0 0 0c1,3 3,6 4,9l0 0 0 0c2,6 5,12 7,18l0 0 0 0 1 3 0 0 0 0c1,2 1,3 2,5l0 0 0 0c3,7 5,13 7,20l0 0 0 0 1 3 0 0 0 0c0,1 1,2 1,3l0 0 0 0 1 3 0 0 0 0c0,1 1,2 1,3l0 0 0 0 1 3 0 0 0 0 1 3 0 0 0 0c1,4 3,9 4,13l0 0 0 0c1,2 1,4 2,7l0 1 0 0 1 3 0 0 0 0c0,1 1,2 1,4l0 0 0 0c1,2 1,5 2,7l0 0 0 0c1,5 3,11 4,16l0 0 0 0c0,1 1,3 1,4l0 0 0 0c1,3 1,6 2,9l0 0 0 0c1,7 3,13 4,20l0 0 0 0c0,2 1,4 1,5l0 1 0 0c0,2 1,3 1,5l0 0 0 0c0,2 1,4 1,6l0 0 0 0c1,4 1,8 2,12l0 0 0 0c1,5 1,10 2,15l0 1 0 0c0,3 1,5 1,8l0 0 0 0c1,7 1,13 2,20l0 1 0 0c0,4 1,7 1,11l0 3 0 0c1,18 2,35 2,53l0 3853c0,18 -1,36 -2,53l0 0 0 3c0,4 -1,8 -1,12l0 0 0 0c-1,7 -1,13 -2,19l0 0 0 1c0,3 -1,5 -1,8l0 0 0 1c0,2 -1,5 -1,7l0 0 0 0c-1,7 -2,13 -3,20l0 0 0 1c0,2 -1,4 -1,6l0 0 0 1c-1,4 -1,7 -2,11l0 0 0 0c-1,7 -3,13 -4,20l0 0 0 1c0,2 -1,3 -1,5l0 0 0 0 -1 4 0 0 0 0c0,1 -1,3 -1,4l0 0 0 1c-2,7 -3,14 -5,20l0 0 0 0c-1,2 -1,5 -2,7l0 0 0 0c-1,2 -1,5 -2,7l0 0 0 0c-4,12 -7,24 -11,35l0 0 0 0 -1 3 0 0 0 0 -1 3 0 0 0 0c-2,6 -4,11 -6,17l0 0 0 0c-1,2 -1,3 -2,5l0 0 0 0c-1,2 -1,3 -2,5l0 0 0 0 -2 5 0 0 0 0c-2,5 -4,10 -6,14l0 0 0 0c-1,2 -2,5 -3,7l0 0 0 0 -1 2 0 0 0 0c-4,8 -7,16 -11,24l0 0 0 0 -1 2 0 0 0 0 -1 2 0 0 0 0 -1 2 0 0 0 0 -1 2 0 0 0 0 -1 2 0 0 0 0 -1 2 0 0 0 0c-4,8 -8,15 -12,23l0 0 0 0c-1,2 -2,3 -3,5l0 0 0 0 -1 2 0 0 0 0c-1,2 -2,3 -3,5l0 0 0 0c-2,3 -4,7 -6,10l0 0 0 0c-2,3 -3,6 -5,8l0 0 0 0c-1,1 -1,2 -2,3l0 0 0 0c-1,1 -1,2 -2,3l0 0 0 0c-4,6 -8,12 -12,19l0 0 0 0 -2 3 0 0 0 0c-2,2 -3,5 -5,7l0 0 0 0c-4,5 -8,10 -11,16l0 0 0 0c-2,3 -5,6 -7,9l0 0 0 0c-1,2 -3,3 -4,5l0 0 0 0c-5,6 -10,12 -14,18l0 0 0 0c-2,2 -3,4 -5,6l0 0 0 0 -1 1 0 0 0 0c-6,7 -12,14 -19,21l0 0 0 0 -1 1 0 0 0 0 -1 1 0 0 0 0 -1 1 0 0 0 0c-9,10 -18,19 -28,28l0 0 0 0 -1 1 0 0 0 0 -1 1 0 0 0 0c-7,6 -14,13 -21,19l0 0 0 0 -1 1 0 0 0 0c-2,2 -5,4 -7,6l0 0 0 0c-5,5 -11,9 -17,14l0 0 0 0c-2,1 -3,3 -5,4l0 0 0 0c-3,2 -6,5 -9,7l0 0 0 0c-3,2 -6,4 -8,6l0 0 0 0c-2,2 -5,3 -7,5l0 0 0 0c-2,2 -5,3 -7,5l0 0 0 0c-8,6 -16,11 -25,17l0 0 0 0c-1,1 -2,1 -3,2l0 0 0 0c-6,4 -12,8 -19,11l0 0 0 0c-2,1 -3,2 -5,3l0 0 0 0c-2,1 -5,3 -7,4l0 0 0 0c-7,4 -14,8 -21,11l0 0 0 0 -2 1 0 0 0 0 -2 1 0 0 0 0 -2 1 0 0 0 0 -2 1 0 0 0 0 -2 1 0 0 0 0c-6,3 -11,6 -17,8l0 0 0 0c-4,2 -7,3 -11,5l0 0 0 0 -2 1 0 0 0 0c-3,1 -6,3 -9,4l0 0 0 0c-6,3 -12,5 -17,7l0 0 0 0c-2,1 -3,1 -5,2l0 0 0 0c-2,1 -3,1 -5,2l0 0 0 0c-5,2 -9,3 -14,5 -1,0 -2,1 -3,1l0 0 0 0c-11,4 -23,8 -34,11 -2,1 -5,1 -7,2l0 0 0 0c-2,1 -5,1 -7,2l-1 0 0 0c-2,1 -5,1 -7,2l0 0 0 0c-7,2 -13,4 -20,5l-1 0 0 0c-1,0 -2,1 -4,1l-1 0 0 0 -4 1 0 0 0 0c-3,1 -6,1 -9,2l0 0 0 0c-5,1 -10,2 -15,3l0 0 0 0c-2,0 -3,1 -5,1l0 0 0 0c-2,0 -4,1 -6,1l-1 0 0 0c-2,0 -4,1 -6,1l-1 0 0 0c-7,1 -13,2 -20,3l0 0 0 0c-2,0 -5,1 -7,1l-1 0 0 0c-3,0 -5,1 -8,1l-1 0 0 0c-6,1 -13,1 -19,2l0 0 0 0c-4,0 -8,1 -12,1l-3 0 0 0c-18,1 -35,2 -53,2l-3853 0c-18,0 -36,-1 -53,-2z"/>
    </clipPath>
 </defs>
 <g id="Layer_x0020_1">
  <metadata id="CorelCorpID_0Corel-Layer"/>
  <g id="_384826152">
   <path class="fil0" d="M695 5347l0 0 -3 0c-4,0 -7,-1 -11,-1l0 0 -1 0c-7,-1 -13,-1 -20,-2l0 0 -1 0c-3,0 -5,-1 -8,-1l0 0 -1 0c-5,-1 -10,-1 -15,-2l0 0 0 0c-4,-1 -8,-1 -12,-2l0 0 0 0c-2,0 -4,-1 -6,-1l0 0 0 0c-2,0 -3,-1 -5,-1l0 0 -1 0c-2,0 -4,-1 -5,-1l0 0 0 0c-7,-1 -13,-3 -20,-4l0 0 0 0c-3,-1 -6,-1 -9,-2l0 0 0 0c-1,0 -3,-1 -4,-1l0 0 0 0c-5,-1 -11,-3 -16,-4l0 0 0 0c-2,-1 -5,-1 -7,-2l0 0 0 0c-1,0 -2,-1 -4,-1l0 0 0 0 -3 -1 0 0 -1 0c-2,-1 -4,-1 -7,-2l0 0 0 0c-4,-1 -9,-3 -13,-4l0 0 0 0 -3 -1 0 0 0 0 -3 -1 0 0 0 0 -3 -1 0 0 0 0 -3 -1 0 0 0 0c-1,0 -2,-1 -3,-1l0 0 0 0 -3 -1 0 0 0 0c-7,-2 -13,-5 -20,-7l0 0 0 0c-2,-1 -3,-1 -5,-2l0 0 -1 0 -3 -1 0 0 0 0c-6,-2 -12,-5 -18,-7l0 0 0 0c-3,-1 -6,-3 -9,-4l0 0 0 0c-3,-1 -6,-3 -9,-4l0 0 0 0 -2 -1 0 0 0 0c-17,-8 -34,-17 -51,-26l0 0 0 0c-2,-1 -5,-3 -7,-4l0 0 0 0c-2,-1 -5,-3 -7,-4l0 0 0 0c-6,-4 -13,-8 -19,-11l0 0 0 0c-1,-1 -2,-1 -3,-2l0 0 0 0c-5,-3 -10,-6 -14,-9l0 0 0 0 -3 -2c-4,-2 -7,-5 -10,-7l0 0 0 0c-2,-2 -5,-3 -7,-5l0 0 0 0c-4,-3 -8,-6 -11,-8l0 0 0 0c-3,-2 -6,-5 -9,-7l0 0 0 0c-1,-1 -3,-2 -4,-3l0 0 0 0 -1 -1 0 0 0 0c-1,-1 -3,-2 -4,-3l0 0 0 0c-4,-3 -8,-6 -11,-9l0 0 0 0c-2,-2 -5,-4 -7,-6l0 0 0 0c-2,-2 -5,-4 -7,-6l0 0 0 0 -1 -1 0 0 0 0c-8,-7 -16,-14 -24,-22l0 0 0 0 -1 -1 0 0 0 0 -1 -1 0 0 0 0 -1 -1 0 0 0 0 -1 -1 0 0 0 0c-4,-4 -8,-8 -12,-12l0 0 0 0 -1 -1 0 0 0 0 -1 -1 0 0 0 0 -1 -1 0 0 0 0 -1 -1 0 0 0 0c-7,-8 -15,-16 -22,-24l0 0 0 0 -1 -1 0 0 0 0c-2,-2 -4,-5 -6,-7l0 0 0 0c-2,-2 -4,-5 -6,-7l0 0 0 0c-3,-4 -6,-8 -9,-11l0 0 0 0c-1,-1 -2,-3 -3,-4l0 0 0 0 -1 -1 0 0 0 0c-1,-1 -2,-3 -3,-4l0 0 0 0c-2,-3 -5,-6 -7,-9l0 0 0 0c-3,-4 -6,-8 -8,-11l0 0 0 0c-2,-2 -3,-5 -5,-7l0 0 0 0c-2,-3 -5,-7 -7,-10 -1,-1 -1,-2 -2,-3l0 0 0 0c-3,-5 -6,-10 -9,-14l0 0 0 0c-1,-1 -1,-2 -2,-3l0 0 0 0c-4,-6 -8,-12 -11,-19l0 0 0 0c-1,-2 -3,-5 -4,-7l0 0 0 0c-1,-2 -3,-5 -4,-7l0 0 0 0c-9,-17 -18,-34 -26,-51l0 0 0 0 -1 -2 0 0 0 0c-1,-3 -3,-6 -4,-9l0 0 0 0c-1,-3 -3,-6 -4,-9l0 0 0 0c-3,-6 -5,-12 -7,-18l0 0 0 0 -1 -3 0 0 0 0c-1,-2 -1,-3 -2,-5l0 0 0 0c-3,-7 -5,-13 -7,-20l0 0 0 0 -1 -3 0 0 0 0c0,-1 -1,-2 -1,-3l0 0 0 0 -1 -3 0 0 0 0c0,-1 -1,-2 -1,-3l0 0 0 0 -1 -3 0 0 0 0 -1 -3 0 0 0 0c-1,-4 -3,-9 -4,-13l0 0 0 0c-1,-2 -1,-4 -2,-7l0 -1 0 0 -1 -3 0 0 0 0c0,-1 -1,-2 -1,-4l0 0 0 0c-1,-2 -1,-5 -2,-7l0 0 0 0c-1,-5 -3,-11 -4,-16l0 0 0 0c0,-1 -1,-3 -1,-4l0 0 0 0c-1,-3 -1,-6 -2,-9l0 0 0 0c-1,-7 -3,-13 -4,-20l0 0 0 0c0,-2 -1,-4 -1,-5l0 -1 0 0c0,-2 -1,-3 -1,-5l0 0 0 0c0,-2 -1,-4 -1,-6l0 0 0 0c-1,-4 -1,-8 -2,-12l0 0 0 0c-1,-5 -1,-10 -2,-15l0 -1 0 0c0,-3 -1,-5 -1,-8l0 0 0 0c-1,-7 -1,-13 -2,-20l0 -1 0 0c0,-4 -1,-7 -1,-11l0 -3 0 0c-1,-18 -2,-35 -2,-53l0 -3853c0,-18 1,-36 2,-53l0 0 0 -3c0,-4 1,-7 1,-11l0 0 0 -1c1,-7 1,-13 2,-20l0 0 0 0c0,-3 1,-5 1,-8l0 0 0 -1c1,-5 1,-10 2,-15l0 0 0 0c1,-4 1,-8 2,-12l0 0 0 0c0,-2 1,-4 1,-6l0 0 0 0c0,-2 1,-3 1,-5l0 0 0 -1c0,-2 1,-4 1,-5l0 0 0 0c1,-7 3,-13 4,-20l0 0 0 0c1,-3 1,-6 2,-9l0 0 0 0c0,-1 1,-3 1,-4l0 0 0 0c1,-5 3,-11 4,-16l0 0 0 0c1,-2 1,-5 2,-7l0 0 0 0c0,-1 1,-2 1,-4l0 0 0 0 1 -3 0 0 0 -1c1,-2 1,-4 2,-7l0 0 0 0c1,-4 3,-9 4,-13l0 0 0 0 1 -3 0 0 0 0 1 -3 0 0 0 0 1 -3 0 0 0 0 1 -3 0 0 0 0c0,-1 1,-2 1,-3l0 0 0 0 1 -3 0 0 0 0c2,-7 5,-13 7,-20l0 0 0 0c1,-2 1,-3 2,-5l0 0 0 0 1 -3 0 0 0 0c2,-6 5,-12 7,-18l0 0 0 0c1,-3 3,-6 4,-9l0 0 0 0c1,-3 3,-6 4,-9l0 0 0 0 1 -2 0 0 0 0c8,-17 17,-34 26,-51l0 0 0 0c1,-2 3,-5 4,-7l0 0 0 0c1,-2 3,-5 4,-7l0 0 0 0c4,-6 8,-13 11,-19l0 0 0 0c1,-1 1,-2 2,-3l0 0 0 0c3,-5 6,-10 9,-14l0 0 0 0 2 -3 0 0 0 0c2,-4 5,-7 7,-10l0 0 0 0c2,-2 3,-5 5,-7l0 0 0 0c3,-4 6,-8 8,-11l0 0 0 0c2,-3 5,-6 7,-9l0 0 0 0c1,-1 2,-3 3,-4l0 0 0 0 1 -1 0 0 0 0c1,-1 2,-3 3,-4l0 0 0 0c3,-4 6,-8 9,-11l0 0 0 0c2,-2 4,-5 6,-7l0 0 0 0c2,-2 4,-5 6,-7l0 0 0 0 1 -1 0 0 0 0c7,-8 14,-16 22,-24l0 0 0 0 1 -1 0 0 0 0 1 -1 0 0 0 0 1 -1 0 0 0 0 1 -1 0 0 0 0c4,-4 8,-8 12,-12l0 0 0 0 1 -1 0 0 0 0 1 -1 0 0 0 0 1 -1 0 0 0 0 1 -1 0 0 0 0c8,-7 16,-15 24,-22l0 0 0 0 1 -1 0 0 0 0c2,-2 5,-4 7,-6l0 0 0 0c2,-2 5,-4 7,-6l0 0 0 0c4,-3 8,-6 11,-9l0 0 0 0c1,-1 3,-2 4,-3l0 0 0 0 1 -1 0 0 0 0c1,-1 3,-2 4,-3l0 0 0 0c3,-2 6,-5 9,-7l0 0 0 0c4,-3 8,-6 11,-8l0 0 0 0c2,-2 5,-3 7,-5l0 0 0 0c4,-3 9,-6 14,-9l0 0 0 0c5,-3 10,-6 14,-9l0 0 0 0c1,-1 2,-1 3,-2l0 0 0 0c6,-4 12,-8 19,-11l0 0 0 0c2,-1 5,-3 7,-4l0 0 0 0c2,-1 5,-3 7,-4l0 0 0 0c17,-9 34,-18 51,-26l0 0 0 0 2 -1 0 0 0 0c3,-1 6,-3 9,-4l0 0 0 0c3,-1 6,-3 9,-4l0 0 0 0c6,-3 12,-5 18,-7l0 0 0 0 3 -1 1 0 0 0c2,-1 3,-1 5,-2l0 0 0 0c7,-3 13,-5 20,-7l0 0 0 0 3 -1 0 0 0 0c1,0 2,-1 3,-1l0 0 0 0 3 -1 0 0 0 0c1,0 2,-1 3,-1l0 0 0 0 3 -1 0 0 0 0 3 -1 0 0 0 0c4,-1 9,-3 13,-4l0 0 0 0c2,-1 4,-1 7,-2l1 0 0 0 3 -1 0 0 0 0c1,0 2,-1 4,-1l0 0 0 0c2,-1 5,-1 7,-2l0 0 0 0c5,-1 11,-3 16,-4l0 0 0 0c1,0 3,-1 4,-1l0 0 0 0c3,-1 6,-1 9,-2l0 0 0 0c7,-1 13,-3 20,-4l0 0 0 0c2,0 4,-1 5,-1l1 0 0 0c2,0 3,-1 5,-1l0 0 0 0c2,0 4,-1 6,-1l0 0 0 0c4,-1 8,-1 12,-2l0 0 0 0c5,-1 10,-1 15,-2l1 0 0 0c3,0 5,-1 8,-1l1 0 0 0c7,-1 13,-1 20,-2l1 0 0 0c4,0 7,-1 11,-1l3 0 0 0c18,-1 35,-2 53,-2l3853 0c18,0 36,1 53,2l0 0 3 0c4,0 7,1 11,1l0 0 1 0c7,1 13,1 20,2l0 0 1 0c3,0 5,1 8,1l0 0 1 0c5,1 10,1 15,2l0 0 0 0c4,1 8,1 12,2l0 0 0 0c2,0 4,1 6,1l0 0 0 0c2,0 3,1 5,1l0 0 1 0c2,0 4,1 5,1l0 0 0 0c7,1 13,3 20,4l0 0 0 0c3,1 6,1 9,2l0 0 0 0c1,0 3,1 4,1l0 0 0 0c6,1 11,3 16,4l0 0 0 0c2,1 5,1 7,2l0 0 0 0c1,0 2,1 4,1l0 0 0 0 3 1 0 0 1 0c2,1 4,1 7,2l0 0 0 0c4,1 9,3 13,4l0 0 0 0 3 1 0 0 0 0 3 1 0 0 0 0 3 1 0 0 0 0 3 1 0 0 0 0c1,0 2,1 3,1l0 0 0 0 3 1 0 0 0 0c7,2 13,5 20,7l0 0 0 0c2,1 3,1 5,2l0 0 1 0 3 1 0 0 0 0c6,2 12,5 18,7l0 0 0 0c3,1 6,3 9,4l0 0 0 0c3,1 6,3 9,4l0 0 0 0 2 1 0 0 0 0c17,8 34,17 51,26l0 0 0 0c2,1 5,3 7,4l0 0 0 0c2,1 5,3 7,4l0 0 0 0c6,4 13,8 19,11l0 0 0 0c1,1 2,1 3,2l0 0 0 0c5,3 10,6 14,9l0 0 0 0c5,3 9,6 14,9l0 0 0 0c2,2 5,3 7,5l0 0 0 0c4,3 8,6 11,8l0 0 0 0c3,2 6,5 9,7l0 0 0 0c1,1 3,2 4,3l0 0 0 0 1 1 0 0 0 0c1,1 3,2 4,3l0 0 0 0c4,3 8,6 11,9l0 0 0 0c2,2 5,4 7,6l0 0 0 0c2,2 5,4 7,6l0 0 0 0 1 1 0 0 0 0c8,7 16,14 24,22l0 0 0 0 1 1 0 0 0 0 1 1 0 0 0 0 1 1 0 0 0 0 1 1 0 0 0 0c4,4 8,8 12,12l0 0 0 0 1 1 0 0 0 0 1 1 0 0 0 0 1 1 0 0 0 0 1 1 0 0 0 0c7,8 15,16 22,24l0 0 0 0 1 1 0 0 0 0c2,2 4,5 6,7l0 0 0 0c2,2 4,5 6,7l0 0 0 0c3,4 6,8 9,11l0 0 0 0c1,1 2,3 3,4l0 0 0 0 1 1 0 0 0 0c1,1 2,3 3,4l0 0 0 0c2,3 5,6 7,9l0 0 0 0c3,4 6,8 8,11l0 0 0 0c2,2 3,5 5,7l0 0 0 0c3,4 6,9 9,14l0 0 0 0c3,5 6,10 9,14l0 0 0 0c1,1 1,2 2,3l0 0 0 0c4,6 8,12 11,19l0 0 0 0c1,2 3,5 4,7l0 0 0 0c1,2 3,5 4,7l0 0 0 0c9,17 18,34 26,51l0 0 0 0 1 2 0 0 0 0c1,3 3,6 4,9l0 0 0 0c1,3 3,6 4,9l0 0 0 0c2,6 5,12 7,18l0 0 0 0 1 3 0 0 0 0c1,2 1,3 2,5l0 0 0 0c3,7 5,13 7,20l0 0 0 0 1 3 0 0 0 0c0,1 1,2 1,3l0 0 0 0 1 3 0 0 0 0c0,1 1,2 1,3l0 0 0 0 1 3 0 0 0 0 1 3 0 0 0 0c1,4 3,9 4,13l0 0 0 0c1,2 1,4 2,7l0 1 0 0 1 3 0 0 0 0c0,1 1,2 1,4l0 0 0 0c1,2 1,5 2,7l0 0 0 0c1,5 3,11 4,16l0 0 0 0c0,1 1,3 1,4l0 0 0 0c1,3 1,6 2,9l0 0 0 0c1,7 3,13 4,20l0 0 0 0c0,2 1,4 1,5l0 1 0 0c0,2 1,3 1,5l0 0 0 0c0,2 1,4 1,6l0 0 0 0c1,4 1,8 2,12l0 0 0 0c1,5 1,10 2,15l0 1 0 0c0,3 1,5 1,8l0 0 0 0c1,7 1,13 2,20l0 1 0 0c0,4 1,7 1,11l0 3 0 0c1,18 2,35 2,53l0 3853c0,18 -1,36 -2,53l0 0 0 3c0,4 -1,8 -1,12l0 0 0 0c-1,7 -1,13 -2,19l0 0 0 1c0,3 -1,5 -1,8l0 0 0 1c0,2 -1,5 -1,7l0 0 0 0c-1,7 -2,13 -3,20l0 0 0 1c0,2 -1,4 -1,6l0 0 0 1c-1,4 -1,7 -2,11l0 0 0 0c-1,7 -3,13 -4,20l0 0 0 1c0,2 -1,3 -1,5l0 0 0 0 -1 4 0 0 0 0c0,1 -1,3 -1,4l0 0 0 1c-2,7 -3,14 -5,20l0 0 0 0c-1,2 -1,5 -2,7l0 0 0 0c-1,2 -1,5 -2,7l0 0 0 0c-4,12 -7,24 -11,35l0 0 0 0 -1 3 0 0 0 0 -1 3 0 0 0 0c-2,6 -4,11 -6,17l0 0 0 0c-1,2 -1,3 -2,5l0 0 0 0c-1,2 -1,3 -2,5l0 0 0 0 -2 5 0 0 0 0c-2,5 -4,10 -6,14l0 0 0 0c-1,2 -2,5 -3,7l0 0 0 0 -1 2 0 0 0 0c-4,8 -7,16 -11,24l0 0 0 0 -1 2 0 0 0 0 -1 2 0 0 0 0 -1 2 0 0 0 0 -1 2 0 0 0 0 -1 2 0 0 0 0 -1 2 0 0 0 0c-4,8 -8,15 -12,23l0 0 0 0c-1,2 -2,3 -3,5l0 0 0 0 -1 2 0 0 0 0c-1,2 -2,3 -3,5l0 0 0 0c-2,3 -4,7 -6,10l0 0 0 0c-2,3 -3,6 -5,8l0 0 0 0c-1,1 -1,2 -2,3l0 0 0 0c-1,1 -1,2 -2,3l0 0 0 0c-4,6 -8,12 -12,19l0 0 0 0 -2 3 0 0 0 0c-2,2 -3,5 -5,7l0 0 0 0c-4,5 -8,10 -11,16l0 0 0 0c-2,3 -5,6 -7,9l0 0 0 0c-1,2 -3,3 -4,5l0 0 0 0c-5,6 -10,12 -14,18l0 0 0 0c-2,2 -3,4 -5,6l0 0 0 0 -1 1 0 0 0 0c-6,7 -12,14 -19,21l0 0 0 0 -1 1 0 0 0 0 -1 1 0 0 0 0 -1 1 0 0 0 0c-9,10 -18,19 -28,28l0 0 0 0 -1 1 0 0 0 0 -1 1 0 0 0 0c-7,6 -14,13 -21,19l0 0 0 0 -1 1 0 0 0 0c-2,2 -5,4 -7,6l0 0 0 0c-5,5 -11,9 -17,14l0 0 0 0c-2,1 -3,3 -5,4l0 0 0 0c-3,2 -6,5 -9,7l0 0 0 0c-3,2 -6,4 -8,6l0 0 0 0c-2,2 -5,3 -7,5l0 0 0 0c-2,2 -5,3 -7,5l0 0 0 0c-8,6 -16,11 -25,17l0 0 0 0c-1,1 -2,1 -3,2l0 0 0 0c-6,4 -12,8 -19,11l0 0 0 0c-2,1 -3,2 -5,3l0 0 0 0c-2,1 -5,3 -7,4l0 0 0 0c-7,4 -14,8 -21,11l0 0 0 0 -2 1 0 0 0 0 -2 1 0 0 0 0 -2 1 0 0 0 0 -2 1 0 0 0 0 -2 1 0 0 0 0c-6,3 -11,6 -17,8l0 0 0 0c-4,2 -7,3 -11,5l0 0 0 0 -2 1 0 0 0 0c-3,1 -6,3 -9,4l0 0 0 0c-6,3 -12,5 -17,7l0 0 0 0c-2,1 -3,1 -5,2l0 0 0 0c-2,1 -3,1 -5,2l0 0 0 0c-5,2 -9,3 -14,5 -1,0 -2,1 -3,1l0 0 0 0c-11,4 -23,8 -34,11 -2,1 -5,1 -7,2l0 0 0 0c-2,1 -5,1 -7,2l-1 0 0 0c-2,1 -5,1 -7,2l0 0 0 0c-7,2 -13,4 -20,5l-1 0 0 0c-1,0 -2,1 -4,1l-1 0 0 0 -4 1 0 0 0 0c-3,1 -6,1 -9,2l0 0 0 0c-5,1 -10,2 -15,3l0 0 0 0c-2,0 -3,1 -5,1l0 0 0 0c-2,0 -4,1 -6,1l-1 0 0 0c-2,0 -4,1 -6,1l-1 0 0 0c-7,1 -13,2 -20,3l0 0 0 0c-2,0 -5,1 -7,1l-1 0 0 0c-3,0 -5,1 -8,1l-1 0 0 0c-6,1 -13,1 -19,2l0 0 0 0c-4,0 -8,1 -12,1l-3 0 0 0c-18,1 -35,2 -53,2l-3853 0c-18,0 -36,-1 -53,-2z"/>
   <g style="clip-path:url(#id0)">
    <g>
     <rect class="fil1" transform="matrix(1.07449 -1.07449 1.07449 1.07449 3493.75 45.5304)" width="1729" height="1729"/>
    </g>
   </g>
   <path class="fil2" d="M695 5347l0 0 -3 0c-4,0 -7,-1 -11,-1l0 0 -1 0c-7,-1 -13,-1 -20,-2l0 0 -1 0c-3,0 -5,-1 -8,-1l0 0 -1 0c-5,-1 -10,-1 -15,-2l0 0 0 0c-4,-1 -8,-1 -12,-2l0 0 0 0c-2,0 -4,-1 -6,-1l0 0 0 0c-2,0 -3,-1 -5,-1l0 0 -1 0c-2,0 -4,-1 -5,-1l0 0 0 0c-7,-1 -13,-3 -20,-4l0 0 0 0c-3,-1 -6,-1 -9,-2l0 0 0 0c-1,0 -3,-1 -4,-1l0 0 0 0c-5,-1 -11,-3 -16,-4l0 0 0 0c-2,-1 -5,-1 -7,-2l0 0 0 0c-1,0 -2,-1 -4,-1l0 0 0 0 -3 -1 0 0 -1 0c-2,-1 -4,-1 -7,-2l0 0 0 0c-4,-1 -9,-3 -13,-4l0 0 0 0 -3 -1 0 0 0 0 -3 -1 0 0 0 0 -3 -1 0 0 0 0 -3 -1 0 0 0 0c-1,0 -2,-1 -3,-1l0 0 0 0 -3 -1 0 0 0 0c-7,-2 -13,-5 -20,-7l0 0 0 0c-2,-1 -3,-1 -5,-2l0 0 -1 0 -3 -1 0 0 0 0c-6,-2 -12,-5 -18,-7l0 0 0 0c-3,-1 -6,-3 -9,-4l0 0 0 0c-3,-1 -6,-3 -9,-4l0 0 0 0 -2 -1 0 0 0 0c-17,-8 -34,-17 -51,-26l0 0 0 0c-2,-1 -5,-3 -7,-4l0 0 0 0c-2,-1 -5,-3 -7,-4l0 0 0 0c-6,-4 -13,-8 -19,-11l0 0 0 0c-1,-1 -2,-1 -3,-2l0 0 0 0c-5,-3 -10,-6 -14,-9l0 0 0 0 -3 -2c-4,-2 -7,-5 -10,-7l0 0 0 0c-2,-2 -5,-3 -7,-5l0 0 0 0c-4,-3 -8,-6 -11,-8l0 0 0 0c-3,-2 -6,-5 -9,-7l0 0 0 0c-1,-1 -3,-2 -4,-3l0 0 0 0 -1 -1 0 0 0 0c-1,-1 -3,-2 -4,-3l0 0 0 0c-4,-3 -8,-6 -11,-9l0 0 0 0c-2,-2 -5,-4 -7,-6l0 0 0 0c-2,-2 -5,-4 -7,-6l0 0 0 0 -1 -1 0 0 0 0c-8,-7 -16,-14 -24,-22l0 0 0 0 -1 -1 0 0 0 0 -1 -1 0 0 0 0 -1 -1 0 0 0 0 -1 -1 0 0 0 0c-4,-4 -8,-8 -12,-12l0 0 0 0 -1 -1 0 0 0 0 -1 -1 0 0 0 0 -1 -1 0 0 0 0 -1 -1 0 0 0 0c-7,-8 -15,-16 -22,-24l0 0 0 0 -1 -1 0 0 0 0c-2,-2 -4,-5 -6,-7l0 0 0 0c-2,-2 -4,-5 -6,-7l0 0 0 0c-3,-4 -6,-8 -9,-11l0 0 0 0c-1,-1 -2,-3 -3,-4l0 0 0 0 -1 -1 0 0 0 0c-1,-1 -2,-3 -3,-4l0 0 0 0c-2,-3 -5,-6 -7,-9l0 0 0 0c-3,-4 -6,-8 -8,-11l0 0 0 0c-2,-2 -3,-5 -5,-7l0 0 0 0c-2,-3 -5,-7 -7,-10 -1,-1 -1,-2 -2,-3l0 0 0 0c-3,-5 -6,-10 -9,-14l0 0 0 0c-1,-1 -1,-2 -2,-3l0 0 0 0c-4,-6 -8,-12 -11,-19l0 0 0 0c-1,-2 -3,-5 -4,-7l0 0 0 0c-1,-2 -3,-5 -4,-7l0 0 0 0c-9,-17 -18,-34 -26,-51l0 0 0 0 -1 -2 0 0 0 0c-1,-3 -3,-6 -4,-9l0 0 0 0c-1,-3 -3,-6 -4,-9l0 0 0 0c-3,-6 -5,-12 -7,-18l0 0 0 0 -1 -3 0 0 0 0c-1,-2 -1,-3 -2,-5l0 0 0 0c-3,-7 -5,-13 -7,-20l0 0 0 0 -1 -3 0 0 0 0c0,-1 -1,-2 -1,-3l0 0 0 0 -1 -3 0 0 0 0c0,-1 -1,-2 -1,-3l0 0 0 0 -1 -3 0 0 0 0 -1 -3 0 0 0 0c-1,-4 -3,-9 -4,-13l0 0 0 0c-1,-2 -1,-4 -2,-7l0 -1 0 0 -1 -3 0 0 0 0c0,-1 -1,-2 -1,-4l0 0 0 0c-1,-2 -1,-5 -2,-7l0 0 0 0c-1,-5 -3,-11 -4,-16l0 0 0 0c0,-1 -1,-3 -1,-4l0 0 0 0c-1,-3 -1,-6 -2,-9l0 0 0 0c-1,-7 -3,-13 -4,-20l0 0 0 0c0,-2 -1,-4 -1,-5l0 -1 0 0c0,-2 -1,-3 -1,-5l0 0 0 0c0,-2 -1,-4 -1,-6l0 0 0 0c-1,-4 -1,-8 -2,-12l0 0 0 0c-1,-5 -1,-10 -2,-15l0 -1 0 0c0,-3 -1,-5 -1,-8l0 0 0 0c-1,-7 -1,-13 -2,-20l0 -1 0 0c0,-4 -1,-7 -1,-11l0 -3 0 0c-1,-18 -2,-35 -2,-53l0 -3853c0,-18 1,-36 2,-53l0 0 0 -3c0,-4 1,-7 1,-11l0 0 0 -1c1,-7 1,-13 2,-20l0 0 0 0c0,-3 1,-5 1,-8l0 0 0 -1c1,-5 1,-10 2,-15l0 0 0 0c1,-4 1,-8 2,-12l0 0 0 0c0,-2 1,-4 1,-6l0 0 0 0c0,-2 1,-3 1,-5l0 0 0 -1c0,-2 1,-4 1,-5l0 0 0 0c1,-7 3,-13 4,-20l0 0 0 0c1,-3 1,-6 2,-9l0 0 0 0c0,-1 1,-3 1,-4l0 0 0 0c1,-5 3,-11 4,-16l0 0 0 0c1,-2 1,-5 2,-7l0 0 0 0c0,-1 1,-2 1,-4l0 0 0 0 1 -3 0 0 0 -1c1,-2 1,-4 2,-7l0 0 0 0c1,-4 3,-9 4,-13l0 0 0 0 1 -3 0 0 0 0 1 -3 0 0 0 0 1 -3 0 0 0 0 1 -3 0 0 0 0c0,-1 1,-2 1,-3l0 0 0 0 1 -3 0 0 0 0c2,-7 5,-13 7,-20l0 0 0 0c1,-2 1,-3 2,-5l0 0 0 0 1 -3 0 0 0 0c2,-6 5,-12 7,-18l0 0 0 0c1,-3 3,-6 4,-9l0 0 0 0c1,-3 3,-6 4,-9l0 0 0 0 1 -2 0 0 0 0c8,-17 17,-34 26,-51l0 0 0 0c1,-2 3,-5 4,-7l0 0 0 0c1,-2 3,-5 4,-7l0 0 0 0c4,-6 8,-13 11,-19l0 0 0 0c1,-1 1,-2 2,-3l0 0 0 0c3,-5 6,-10 9,-14l0 0 0 0 2 -3 0 0 0 0c2,-4 5,-7 7,-10l0 0 0 0c2,-2 3,-5 5,-7l0 0 0 0c3,-4 6,-8 8,-11l0 0 0 0c2,-3 5,-6 7,-9l0 0 0 0c1,-1 2,-3 3,-4l0 0 0 0 1 -1 0 0 0 0c1,-1 2,-3 3,-4l0 0 0 0c3,-4 6,-8 9,-11l0 0 0 0c2,-2 4,-5 6,-7l0 0 0 0c2,-2 4,-5 6,-7l0 0 0 0 1 -1 0 0 0 0c7,-8 14,-16 22,-24l0 0 0 0 1 -1 0 0 0 0 1 -1 0 0 0 0 1 -1 0 0 0 0 1 -1 0 0 0 0c4,-4 8,-8 12,-12l0 0 0 0 1 -1 0 0 0 0 1 -1 0 0 0 0 1 -1 0 0 0 0 1 -1 0 0 0 0c8,-7 16,-15 24,-22l0 0 0 0 1 -1 0 0 0 0c2,-2 5,-4 7,-6l0 0 0 0c2,-2 5,-4 7,-6l0 0 0 0c4,-3 8,-6 11,-9l0 0 0 0c1,-1 3,-2 4,-3l0 0 0 0 1 -1 0 0 0 0c1,-1 3,-2 4,-3l0 0 0 0c3,-2 6,-5 9,-7l0 0 0 0c4,-3 8,-6 11,-8l0 0 0 0c2,-2 5,-3 7,-5l0 0 0 0c4,-3 9,-6 14,-9l0 0 0 0c5,-3 10,-6 14,-9l0 0 0 0c1,-1 2,-1 3,-2l0 0 0 0c6,-4 12,-8 19,-11l0 0 0 0c2,-1 5,-3 7,-4l0 0 0 0c2,-1 5,-3 7,-4l0 0 0 0c17,-9 34,-18 51,-26l0 0 0 0 2 -1 0 0 0 0c3,-1 6,-3 9,-4l0 0 0 0c3,-1 6,-3 9,-4l0 0 0 0c6,-3 12,-5 18,-7l0 0 0 0 3 -1 1 0 0 0c2,-1 3,-1 5,-2l0 0 0 0c7,-3 13,-5 20,-7l0 0 0 0 3 -1 0 0 0 0c1,0 2,-1 3,-1l0 0 0 0 3 -1 0 0 0 0c1,0 2,-1 3,-1l0 0 0 0 3 -1 0 0 0 0 3 -1 0 0 0 0c4,-1 9,-3 13,-4l0 0 0 0c2,-1 4,-1 7,-2l1 0 0 0 3 -1 0 0 0 0c1,0 2,-1 4,-1l0 0 0 0c2,-1 5,-1 7,-2l0 0 0 0c5,-1 11,-3 16,-4l0 0 0 0c1,0 3,-1 4,-1l0 0 0 0c3,-1 6,-1 9,-2l0 0 0 0c7,-1 13,-3 20,-4l0 0 0 0c2,0 4,-1 5,-1l1 0 0 0c2,0 3,-1 5,-1l0 0 0 0c2,0 4,-1 6,-1l0 0 0 0c4,-1 8,-1 12,-2l0 0 0 0c5,-1 10,-1 15,-2l1 0 0 0c3,0 5,-1 8,-1l1 0 0 0c7,-1 13,-1 20,-2l1 0 0 0c4,0 7,-1 11,-1l3 0 0 0c18,-1 35,-2 53,-2l3853 0c18,0 36,1 53,2l0 0 3 0c4,0 7,1 11,1l0 0 1 0c7,1 13,1 20,2l0 0 1 0c3,0 5,1 8,1l0 0 1 0c5,1 10,1 15,2l0 0 0 0c4,1 8,1 12,2l0 0 0 0c2,0 4,1 6,1l0 0 0 0c2,0 3,1 5,1l0 0 1 0c2,0 4,1 5,1l0 0 0 0c7,1 13,3 20,4l0 0 0 0c3,1 6,1 9,2l0 0 0 0c1,0 3,1 4,1l0 0 0 0c6,1 11,3 16,4l0 0 0 0c2,1 5,1 7,2l0 0 0 0c1,0 2,1 4,1l0 0 0 0 3 1 0 0 1 0c2,1 4,1 7,2l0 0 0 0c4,1 9,3 13,4l0 0 0 0 3 1 0 0 0 0 3 1 0 0 0 0 3 1 0 0 0 0 3 1 0 0 0 0c1,0 2,1 3,1l0 0 0 0 3 1 0 0 0 0c7,2 13,5 20,7l0 0 0 0c2,1 3,1 5,2l0 0 1 0 3 1 0 0 0 0c6,2 12,5 18,7l0 0 0 0c3,1 6,3 9,4l0 0 0 0c3,1 6,3 9,4l0 0 0 0 2 1 0 0 0 0c17,8 34,17 51,26l0 0 0 0c2,1 5,3 7,4l0 0 0 0c2,1 5,3 7,4l0 0 0 0c6,4 13,8 19,11l0 0 0 0c1,1 2,1 3,2l0 0 0 0c5,3 10,6 14,9l0 0 0 0c5,3 9,6 14,9l0 0 0 0c2,2 5,3 7,5l0 0 0 0c4,3 8,6 11,8l0 0 0 0c3,2 6,5 9,7l0 0 0 0c1,1 3,2 4,3l0 0 0 0 1 1 0 0 0 0c1,1 3,2 4,3l0 0 0 0c4,3 8,6 11,9l0 0 0 0c2,2 5,4 7,6l0 0 0 0c2,2 5,4 7,6l0 0 0 0 1 1 0 0 0 0c8,7 16,14 24,22l0 0 0 0 1 1 0 0 0 0 1 1 0 0 0 0 1 1 0 0 0 0 1 1 0 0 0 0c4,4 8,8 12,12l0 0 0 0 1 1 0 0 0 0 1 1 0 0 0 0 1 1 0 0 0 0 1 1 0 0 0 0c7,8 15,16 22,24l0 0 0 0 1 1 0 0 0 0c2,2 4,5 6,7l0 0 0 0c2,2 4,5 6,7l0 0 0 0c3,4 6,8 9,11l0 0 0 0c1,1 2,3 3,4l0 0 0 0 1 1 0 0 0 0c1,1 2,3 3,4l0 0 0 0c2,3 5,6 7,9l0 0 0 0c3,4 6,8 8,11l0 0 0 0c2,2 3,5 5,7l0 0 0 0c3,4 6,9 9,14l0 0 0 0c3,5 6,10 9,14l0 0 0 0c1,1 1,2 2,3l0 0 0 0c4,6 8,12 11,19l0 0 0 0c1,2 3,5 4,7l0 0 0 0c1,2 3,5 4,7l0 0 0 0c9,17 18,34 26,51l0 0 0 0 1 2 0 0 0 0c1,3 3,6 4,9l0 0 0 0c1,3 3,6 4,9l0 0 0 0c2,6 5,12 7,18l0 0 0 0 1 3 0 0 0 0c1,2 1,3 2,5l0 0 0 0c3,7 5,13 7,20l0 0 0 0 1 3 0 0 0 0c0,1 1,2 1,3l0 0 0 0 1 3 0 0 0 0c0,1 1,2 1,3l0 0 0 0 1 3 0 0 0 0 1 3 0 0 0 0c1,4 3,9 4,13l0 0 0 0c1,2 1,4 2,7l0 1 0 0 1 3 0 0 0 0c0,1 1,2 1,4l0 0 0 0c1,2 1,5 2,7l0 0 0 0c1,5 3,11 4,16l0 0 0 0c0,1 1,3 1,4l0 0 0 0c1,3 1,6 2,9l0 0 0 0c1,7 3,13 4,20l0 0 0 0c0,2 1,4 1,5l0 1 0 0c0,2 1,3 1,5l0 0 0 0c0,2 1,4 1,6l0 0 0 0c1,4 1,8 2,12l0 0 0 0c1,5 1,10 2,15l0 1 0 0c0,3 1,5 1,8l0 0 0 0c1,7 1,13 2,20l0 1 0 0c0,4 1,7 1,11l0 3 0 0c1,18 2,35 2,53l0 3853c0,18 -1,36 -2,53l0 0 0 3c0,4 -1,8 -1,12l0 0 0 0c-1,7 -1,13 -2,19l0 0 0 1c0,3 -1,5 -1,8l0 0 0 1c0,2 -1,5 -1,7l0 0 0 0c-1,7 -2,13 -3,20l0 0 0 1c0,2 -1,4 -1,6l0 0 0 1c-1,4 -1,7 -2,11l0 0 0 0c-1,7 -3,13 -4,20l0 0 0 1c0,2 -1,3 -1,5l0 0 0 0 -1 4 0 0 0 0c0,1 -1,3 -1,4l0 0 0 1c-2,7 -3,14 -5,20l0 0 0 0c-1,2 -1,5 -2,7l0 0 0 0c-1,2 -1,5 -2,7l0 0 0 0c-4,12 -7,24 -11,35l0 0 0 0 -1 3 0 0 0 0 -1 3 0 0 0 0c-2,6 -4,11 -6,17l0 0 0 0c-1,2 -1,3 -2,5l0 0 0 0c-1,2 -1,3 -2,5l0 0 0 0 -2 5 0 0 0 0c-2,5 -4,10 -6,14l0 0 0 0c-1,2 -2,5 -3,7l0 0 0 0 -1 2 0 0 0 0c-4,8 -7,16 -11,24l0 0 0 0 -1 2 0 0 0 0 -1 2 0 0 0 0 -1 2 0 0 0 0 -1 2 0 0 0 0 -1 2 0 0 0 0 -1 2 0 0 0 0c-4,8 -8,15 -12,23l0 0 0 0c-1,2 -2,3 -3,5l0 0 0 0 -1 2 0 0 0 0c-1,2 -2,3 -3,5l0 0 0 0c-2,3 -4,7 -6,10l0 0 0 0c-2,3 -3,6 -5,8l0 0 0 0c-1,1 -1,2 -2,3l0 0 0 0c-1,1 -1,2 -2,3l0 0 0 0c-4,6 -8,12 -12,19l0 0 0 0 -2 3 0 0 0 0c-2,2 -3,5 -5,7l0 0 0 0c-4,5 -8,10 -11,16l0 0 0 0c-2,3 -5,6 -7,9l0 0 0 0c-1,2 -3,3 -4,5l0 0 0 0c-5,6 -10,12 -14,18l0 0 0 0c-2,2 -3,4 -5,6l0 0 0 0 -1 1 0 0 0 0c-6,7 -12,14 -19,21l0 0 0 0 -1 1 0 0 0 0 -1 1 0 0 0 0 -1 1 0 0 0 0c-9,10 -18,19 -28,28l0 0 0 0 -1 1 0 0 0 0 -1 1 0 0 0 0c-7,6 -14,13 -21,19l0 0 0 0 -1 1 0 0 0 0c-2,2 -5,4 -7,6l0 0 0 0c-5,5 -11,9 -17,14l0 0 0 0c-2,1 -3,3 -5,4l0 0 0 0c-3,2 -6,5 -9,7l0 0 0 0c-3,2 -6,4 -8,6l0 0 0 0c-2,2 -5,3 -7,5l0 0 0 0c-2,2 -5,3 -7,5l0 0 0 0c-8,6 -16,11 -25,17l0 0 0 0c-1,1 -2,1 -3,2l0 0 0 0c-6,4 -12,8 -19,11l0 0 0 0c-2,1 -3,2 -5,3l0 0 0 0c-2,1 -5,3 -7,4l0 0 0 0c-7,4 -14,8 -21,11l0 0 0 0 -2 1 0 0 0 0 -2 1 0 0 0 0 -2 1 0 0 0 0 -2 1 0 0 0 0 -2 1 0 0 0 0c-6,3 -11,6 -17,8l0 0 0 0c-4,2 -7,3 -11,5l0 0 0 0 -2 1 0 0 0 0c-3,1 -6,3 -9,4l0 0 0 0c-6,3 -12,5 -17,7l0 0 0 0c-2,1 -3,1 -5,2l0 0 0 0c-2,1 -3,1 -5,2l0 0 0 0c-5,2 -9,3 -14,5 -1,0 -2,1 -3,1l0 0 0 0c-11,4 -23,8 -34,11 -2,1 -5,1 -7,2l0 0 0 0c-2,1 -5,1 -7,2l-1 0 0 0c-2,1 -5,1 -7,2l0 0 0 0c-7,2 -13,4 -20,5l-1 0 0 0c-1,0 -2,1 -4,1l-1 0 0 0 -4 1 0 0 0 0c-3,1 -6,1 -9,2l0 0 0 0c-5,1 -10,2 -15,3l0 0 0 0c-2,0 -3,1 -5,1l0 0 0 0c-2,0 -4,1 -6,1l-1 0 0 0c-2,0 -4,1 -6,1l-1 0 0 0c-7,1 -13,2 -20,3l0 0 0 0c-2,0 -5,1 -7,1l-1 0 0 0c-3,0 -5,1 -8,1l-1 0 0 0c-6,1 -13,1 -19,2l0 0 0 0c-4,0 -8,1 -12,1l-3 0 0 0c-18,1 -35,2 -53,2l-3853 0c-18,0 -36,-1 -53,-2z"/>
   <g>
    <g>
     <path class="fil3" d="M4043 4067l-529 0c-23,0 -43,-19 -43,-43 0,-23 19,-43 43,-43l486 0 0 -764c0,-23 19,-43 43,-43 23,0 43,19 43,43l0 807c0,23 -19,43 -43,43z"/>
     <path class="fil3" d="M4043 2759c-23,0 -43,-19 -43,-43l0 -1067 -1509 0c-23,0 -43,-19 -43,-43 0,-23 19,-43 43,-43l1552 0c23,0 43,19 43,43l0 1110c0,23 -19,43 -43,43z"/>
     <path class="fil3" d="M1632 3654c-23,0 -43,-19 -43,-43l0 -2005c0,-23 19,-43 43,-43l495 0c23,0 43,19 43,43 0,23 -19,43 -43,43l-452 0 0 1962c0,23 -19,43 -43,43z"/>
     <path class="fil3" d="M1213 3854c-22,0 -41,-18 -43,-40 0,-2 0,-4 0,-6l0 -2174c0,-139 113,-252 252,-252 67,0 131,26 178,74 48,48 74,111 74,178l0 1971c0,23 -19,43 -43,43 -23,0 -43,-19 -43,-43l0 -1971c0,-45 -18,-87 -49,-118 -31,-31 -73,-49 -118,-49 -92,0 -167,75 -167,167l0 2175c1,23 -17,44 -40,45 -1,0 -2,0 -3,0z"/>
     <path class="fil3" d="M3374 4067l-1952 0c-139,0 -252,-113 -252,-252 0,-2 0,-3 0,-5 3,-136 116,-247 252,-247l209 0c23,0 43,19 43,43 0,23 -19,43 -43,43l-209 0c-91,0 -166,74 -167,164 0,1 0,1 0,2l0 1c0,92 75,167 167,167l1952 0c23,0 43,19 43,43 0,23 -19,43 -43,43z"/>
     <path class="fil3" d="M3157 2772l515 0 0 -515 -515 0 0 515zm558 86l-601 0c-23,0 -43,-19 -43,-43l0 -601c0,-23 19,-43 43,-43l601 0c23,0 43,19 43,43l0 601c0,23 -19,43 -43,43z"/>
     <path class="fil3" d="M3061 2171l699 0 -349 -396 -350 396zm793 86l-888 0c-17,0 -32,-10 -39,-25 -7,-16 -4,-33 7,-46l444 -503c8,-9 19,-15 32,-15 13,0 24,5 32,15l444 503c11,13 14,30 7,46 -8,16 -23,25 -40,25z"/>
     <path class="fil3" d="M3387 2772l40 0 0 -145 -40 0 0 145zm84 86l-126 0c-23,0 -43,-19 -43,-43l0 -231c0,-23 19,-43 43,-43l126 0c23,0 43,19 43,43l0 231c0,23 -19,43 -43,43z"/>
     <path class="fil3" d="M2211 1721c26,26 61,41 98,41 2,0 4,0 7,0 36,-2 70,-17 95,-44 24,-26 38,-60 38,-96 0,-4 0,-8 -1,-11 0,0 0,0 0,-1 -5,-57 -43,-104 -97,-122 -27,-9 -57,-9 -85,0 -55,18 -93,65 -97,122 0,4 -1,8 -1,12 0,37 15,71 40,97 2,1 2,1 3,2zm98 126c-60,0 -118,-23 -160,-67 -1,-1 -2,-2 -3,-3 -40,-42 -62,-97 -62,-156 0,-7 0,-14 1,-19 8,-91 69,-168 157,-196 45,-14 92,-14 136,0 88,28 149,104 157,196 1,6 1,13 1,19 0,57 -22,113 -61,155 -41,43 -95,68 -154,70 -6,1 -9,1 -12,1z"/>
     <path class="fil3" d="M2382 1616c-3,-30 -23,-56 -52,-64 -7,-2 -15,-4 -22,-4 -8,0 -16,1 -22,4 -28,9 -49,34 -52,64 0,2 0,4 0,6 0,20 8,38 21,52l0 0c14,14 32,22 53,22 1,0 2,0 3,0 19,-1 38,-10 51,-23 13,-14 20,-31 20,-51 1,-2 1,-4 0,-6z"/>
     <path class="fil3" d="M2260 1671c14,13 30,20 49,20 1,0 2,0 3,0 19,-1 35,-9 48,-21 13,-13 19,-30 19,-49 0,-2 0,-4 0,-6l0 0c-2,-28 -21,-53 -49,-61 -14,-4 -28,-4 -43,0 -27,9 -47,32 -49,61 0,2 0,4 0,6 0,19 7,36 21,50l0 0zm49 27c-20,0 -40,-8 -55,-22l-1 0 -1 -2c-14,-15 -21,-33 -21,-54 0,-2 0,-4 0,-7 3,-31 23,-57 54,-67 16,-5 31,-5 47,0 30,10 51,36 54,67 0,2 0,4 0,7 0,19 -8,39 -21,54 -14,15 -33,23 -53,24 0,0 -1,0 -2,0z"/>
     <path class="fil3" d="M2310 1483c-23,0 -43,-19 -43,-43l0 -221c0,-23 19,-43 43,-43 23,0 43,19 43,43l0 221c0,24 -19,43 -43,43z"/>
     <path class="fil3" d="M2676 2859c-19,0 -36,-13 -41,-31l-291 -1029c-7,-22 7,-47 29,-53 22,-7 47,7 53,29l291 1029c7,22 -7,47 -29,53 -4,2 -8,2 -12,2z"/>
     <path class="fil3" d="M1942 2859c-4,0 -8,-1 -12,-2 -22,-7 -36,-30 -29,-53l291 -1029c7,-22 30,-36 53,-29 22,7 36,30 29,53l-291 1029c-5,19 -22,31 -41,31z"/>
     <path class="fil3" d="M3484 3767l144 83 633 -1093 -144 -83 -633 1093zm160 184c-8,0 -15,-2 -21,-6l-218 -126c-20,-12 -27,-38 -16,-58l676 -1167c12,-20 38,-27 58,-16l218 126c10,6 17,15 19,26 3,12 1,22 -4,32l-676 1167c-6,10 -15,17 -26,19 -4,2 -8,2 -11,2z"/>
     <path class="fil3" d="M3455 3849l-45 211 161 -144 -116 -67zm-114 374c-8,0 -15,-2 -21,-6 -16,-10 -24,-28 -20,-46l85 -398c3,-14 12,-24 24,-30 13,-6 27,-5 39,2l218 126c12,7 19,19 21,32 1,14 -4,27 -14,36l-302 271c-10,9 -19,13 -30,13z"/>
     <path class="fil3" d="M4160 2600l144 83 129 -222 -144 -83 -129 222zm159 184c-7,0 -15,-2 -21,-6l-218 -126c-10,-6 -17,-15 -19,-26 -3,-12 -1,-22 4,-32l171 -296c12,-20 38,-27 58,-16l218 126c10,6 17,15 19,26 3,12 1,22 -4,32l-171 296c-8,14 -22,21 -37,21z"/>
     <path class="fil3" d="M1884 3556l1381 0 0 -222 -1381 0 0 222zm1423 85l-1466 0c-23,0 -43,-19 -43,-43l0 -308c0,-23 19,-43 43,-43l1466 0c23,0 43,19 43,43l0 308c0,24 -19,43 -43,43z"/>
     <path class="fil3" d="M2011 3462c-23,0 -43,-19 -43,-43l0 -130c0,-23 19,-43 43,-43 23,0 43,19 43,43l0 131c0,23 -19,42 -43,42z"/>
     <path class="fil3" d="M2172 3462c-23,0 -43,-19 -43,-43l0 -130c0,-23 19,-43 43,-43 23,0 43,19 43,43l0 131c0,23 -19,42 -43,42z"/>
     <path class="fil3" d="M2331 3462c-23,0 -43,-19 -43,-43l0 -130c0,-23 19,-43 43,-43 23,0 43,19 43,43l0 131c0,23 -19,42 -43,42z"/>
     <path class="fil3" d="M2492 3462c-23,0 -43,-19 -43,-43l0 -130c0,-23 19,-43 43,-43 23,0 43,19 43,43l0 131c0,23 -19,42 -43,42z"/>
     <path class="fil3" d="M2653 3462c-23,0 -43,-19 -43,-43l0 -130c0,-23 19,-43 43,-43 23,0 43,19 43,43l0 131c0,23 -19,42 -43,42z"/>
     <path class="fil3" d="M2814 3462c-23,0 -43,-19 -43,-43l0 -130c0,-23 19,-43 43,-43 23,0 43,19 43,43l0 131c-1,23 -19,42 -43,42z"/>
     <path class="fil3" d="M2974 3462c-23,0 -43,-19 -43,-43l0 -130c0,-23 19,-43 43,-43 23,0 43,19 43,43l0 131c0,23 -19,42 -43,42z"/>
     <path class="fil3" d="M3134 3462c-23,0 -43,-19 -43,-43l0 -130c0,-23 19,-43 43,-43 23,0 43,19 43,43l0 131c0,23 -19,42 -43,42z"/>
    </g>
    <path class="fil3" d="M3875 1255c14,34 0,68 -34,82 -34,14 -68,0 -82,-34 -14,-34 0,-68 34,-82 27,-14 68,0 82,34z"/>
    <path class="fil3" d="M3223 863c-116,0 -211,95 -211,211 0,115 95,211 211,211 115,0 211,-95 211,-211 0,-116 -88,-211 -211,-211zm0 510c-163,0 -299,-136 -299,-299 0,-163 136,-299 299,-299 163,0 299,136 299,299 0,163 -136,299 -299,299z"/>
    <path class="fil3" d="M2821 4300c-62,0 -114,51 -114,114 0,62 51,113 114,113 62,0 114,-51 114,-113 0,-62 -48,-114 -114,-114zm0 275c-88,0 -161,-73 -161,-161 0,-88 73,-161 161,-161 88,0 161,73 161,161 0,88 -73,161 -161,161z"/>
    <path class="fil3" d="M2356 4368c14,34 0,68 -34,82 -34,14 -68,0 -82,-34 -14,-34 0,-68 34,-82 27,-14 68,0 82,34z"/>
   </g>
  </g>
 </g>
</svg>
