<?xml version="1.0" encoding="UTF-8"?>
<!DOCTYPE svg PUBLIC "-//W3C//DTD SVG 1.1//EN" "http://www.w3.org/Graphics/SVG/1.1/DTD/svg11.dtd">
<!-- Creator: CorelDRAW X6 -->
<svg xmlns="http://www.w3.org/2000/svg" xml:space="preserve" width="53.4859mm" height="53.4859mm" version="1.1" style="shape-rendering:geometricPrecision; text-rendering:geometricPrecision; image-rendering:optimizeQuality; fill-rule:evenodd; clip-rule:evenodd"
viewBox="0 0 6229 6229"
 xmlns:xlink="http://www.w3.org/1999/xlink">
 <defs>
  <style type="text/css">
   <![CDATA[
    .fil2 {fill:none}
    .fil3 {fill:#898989}
    .fil0 {fill:#D9DADA}
    .fil1 {fill:#E31E24}
   ]]>
  </style>
    <clipPath id="id0">
     <path d="M809 6227l0 0 -3 0c-4,0 -8,-1 -13,-1l0 0 -2 0c-8,-1 -15,-2 -23,-2l0 0 -1 0c-3,0 -6,-1 -9,-1l0 0 -1 0c-6,-1 -11,-2 -17,-2l0 0 0 0c-5,-1 -10,-2 -14,-2l0 0 -1 0c-2,0 -5,-1 -7,-1l0 0 -1 0c-2,0 -4,-1 -6,-1l0 0 -1 0c-2,0 -4,-1 -6,-1l0 0 0 0c-8,-2 -15,-3 -23,-5l0 0 0 0c-4,-1 -7,-2 -11,-2l0 0 0 0c-2,0 -3,-1 -5,-1l0 0 0 0c-6,-2 -13,-3 -19,-5l0 0 0 0c-3,-1 -6,-2 -8,-2l0 0 -1 0c-1,0 -3,-1 -4,-1l0 0 0 0 -3 -1 0 0 -1 0c-3,-1 -5,-2 -8,-2l0 0 0 0c-5,-2 -10,-3 -15,-5l0 0 0 0 -3 -1 0 0 0 0 -3 -1 0 0 0 0 -3 -1 0 0 -1 0 -3 -1 0 0 -1 0c-1,0 -2,-1 -3,-1l0 0 0 0 -3 -1 0 0 0 0c-8,-3 -15,-6 -23,-8l0 0 0 0c-2,-1 -4,-1 -6,-2l0 0 -1 0 -3 -1 0 0 0 0c-7,-3 -14,-6 -21,-8l0 0 0 0c-4,-2 -7,-3 -11,-5l0 0 0 0c-4,-2 -7,-3 -11,-5l0 0 0 0 -2 -1 0 0 0 0c-20,-9 -40,-19 -59,-30l0 0 0 0c-3,-2 -6,-3 -8,-5l0 0 0 0c-3,-2 -5,-3 -8,-5l0 0 0 0c-7,-4 -15,-9 -22,-13l0 0 0 0c-1,-1 -2,-1 -4,-2l0 0 0 0c-6,-4 -11,-7 -17,-11l0 0 0 0 -4 -2c-4,-3 -8,-6 -12,-8l0 0 0 0c-3,-2 -6,-4 -8,-6l0 0 0 0c-4,-3 -9,-6 -13,-10l0 0 0 0c-4,-3 -7,-6 -11,-8l0 0 0 0c-2,-1 -3,-2 -5,-4l0 0 0 0 -1 -1 0 0 0 0c-2,-1 -3,-2 -5,-4l0 0 0 0c-4,-4 -9,-7 -13,-11l0 0 0 0c-3,-2 -6,-5 -8,-7l0 0 0 0c-3,-2 -6,-5 -8,-7l0 0 0 0 -1 -1 0 0 0 0c-9,-8 -19,-17 -28,-26l0 0 0 0 -1 -1 0 0 0 0 -1 -1 0 0 0 0 -1 -1 0 0 0 0 -1 -1 0 0 0 0c-5,-5 -10,-10 -14,-14l0 0 0 0 -1 -1 0 0 0 0 -1 -1 0 0 0 0 -1 -1 0 0 0 0 -1 -1 0 0 0 0c-9,-9 -17,-18 -26,-28l0 0 0 0 -1 -1 0 0 0 0c-2,-3 -5,-6 -7,-8l0 0 0 0c-2,-3 -5,-6 -7,-8l0 0 0 0c-4,-4 -7,-9 -11,-13l0 0 0 0c-1,-2 -2,-3 -4,-4l0 0 0 0 -1 -1 0 0 0 0c-1,-2 -2,-3 -4,-5l0 0 0 0c-3,-4 -6,-7 -8,-11l0 0 0 0c-3,-4 -6,-9 -10,-13l0 0 0 0c-2,-3 -4,-6 -6,-8l0 0 0 0c-3,-4 -6,-8 -8,-12 -1,-1 -2,-2 -2,-4l0 0 0 0c-4,-6 -7,-11 -11,-17l0 0 0 0c-1,-1 -1,-2 -2,-4l0 0 0 0c-5,-7 -9,-15 -13,-22l0 0 0 0c-2,-3 -3,-5 -5,-8l0 0 0 0c-2,-3 -3,-6 -5,-8l0 0 0 0c-11,-19 -21,-39 -30,-59l0 0 0 0 -1 -2 0 0 0 0c-2,-4 -3,-7 -5,-11l0 0 0 0c-2,-4 -3,-7 -5,-11l0 0 0 0c-3,-7 -6,-14 -8,-21l0 0 0 0 -1 -3 0 -1 0 0c-1,-2 -1,-4 -2,-6l0 0 0 0c-3,-8 -6,-15 -8,-23l0 0 0 0 -1 -3 0 0 0 0c0,-1 -1,-2 -1,-3l0 -1 0 0 -1 -3 0 -1 0 0c0,-1 -1,-2 -1,-3l0 0 0 0 -1 -3 0 0 0 0 -1 -3 0 0 0 0c-2,-5 -3,-10 -5,-15l0 0 0 0c-1,-3 -2,-5 -2,-8l0 -1 0 0 -1 -3 0 0 0 0c0,-1 -1,-3 -1,-4l0 -1 0 0c-1,-3 -2,-6 -2,-8l0 0 0 0c-2,-6 -3,-13 -5,-19l0 0 0 0c0,-2 -1,-3 -1,-5l0 0 0 0c-1,-3 -2,-7 -2,-11l0 0 0 0c-2,-8 -3,-15 -5,-23l0 0 0 0c0,-2 -1,-4 -1,-6l0 -1 0 0c0,-2 -1,-4 -1,-6l0 -1 0 0c0,-2 -1,-5 -1,-7l0 -1 0 0c-1,-5 -2,-10 -2,-14l0 0 0 0c-1,-6 -2,-11 -2,-17l0 -1 0 0c0,-3 -1,-6 -1,-9l0 -1 0 0c-1,-8 -2,-15 -2,-23l0 -2 0 0c0,-4 -1,-8 -1,-13l0 -3 0 0c-1,-20 -2,-41 -2,-62l0 -4487c0,-21 1,-42 2,-62l0 0 0 -3c0,-4 1,-8 1,-13l0 0 0 -2c1,-8 1,-15 2,-23l0 0 0 -1c0,-3 1,-6 1,-9l0 0 0 -1c1,-6 2,-12 2,-17l0 0 0 0c1,-5 2,-10 2,-14l0 0 0 -1c0,-2 1,-5 1,-7l0 0 0 -1c0,-2 1,-4 1,-6l0 0 0 -1c0,-2 1,-4 1,-6l0 0 0 0c2,-8 3,-15 5,-23l0 0 0 0c1,-4 2,-7 2,-11l0 0 0 0c0,-2 1,-3 1,-5l0 0 0 0c2,-6 3,-13 5,-19l0 0 0 0c1,-3 2,-6 2,-8l0 0 0 -1c0,-1 1,-3 1,-4l0 0 0 0 1 -3 0 0 0 -1c1,-3 2,-5 2,-8l0 0 0 0c2,-5 3,-10 5,-15l0 0 0 0 1 -3 0 0 0 0 1 -3 0 0 0 0 1 -3 0 0 0 -1 1 -3 0 0 0 -1c0,-1 1,-2 1,-3l0 0 0 0 1 -3 0 0 0 0c3,-8 5,-15 8,-23l0 0 0 0c1,-2 1,-4 2,-6l0 0 0 -1 1 -3 0 0 0 0c3,-7 6,-14 8,-21l0 0 0 0c2,-4 3,-7 5,-11l0 0 0 0c2,-4 3,-7 5,-11l0 0 0 0 1 -2 0 0 0 0c9,-20 19,-40 30,-59l0 0 0 0c2,-3 3,-6 5,-8l0 0 0 0c2,-3 3,-5 5,-8l0 0 0 0c4,-7 9,-15 13,-22l0 0 0 0c1,-1 1,-2 2,-4l0 0 0 0c4,-6 7,-11 11,-17l0 0 0 0 2 -4 0 0 0 0c3,-4 6,-8 8,-12l0 0 0 0c2,-3 4,-6 6,-8l0 0 0 0c3,-4 6,-9 10,-13l0 0 0 0c3,-4 6,-7 8,-11l0 0 0 0c1,-2 2,-3 4,-5l0 0 0 0 1 -1 0 0 0 0c1,-2 2,-3 4,-5l0 0 0 0c4,-5 7,-9 11,-13l0 0 0 0c2,-3 5,-6 7,-8l0 0 0 0c2,-3 5,-6 7,-8l0 0 0 0 1 -1 0 0 0 0c8,-9 17,-19 26,-28l0 0 0 0 1 -1 0 0 0 0 1 -1 0 0 0 0 1 -1 0 0 0 0 1 -1 0 0 0 0c5,-5 10,-10 14,-14l0 0 0 0 1 -1 0 0 0 0 1 -1 0 0 0 0 1 -1 0 0 0 0 1 -1 0 0 0 0c9,-9 18,-17 28,-26l0 0 0 0 1 -1 0 0 0 0c3,-2 6,-5 8,-7l0 0 0 0c3,-2 6,-5 8,-7l0 0 0 0c4,-4 9,-7 13,-11l0 0 0 0c2,-1 3,-2 5,-4l0 0 0 0 1 -1 0 0 0 0c2,-1 3,-2 5,-4l0 0 0 0c4,-3 7,-6 11,-8l0 0 0 0c4,-3 9,-6 13,-10l0 0 0 0c3,-2 6,-4 8,-6l0 0 0 0c5,-4 10,-7 16,-11l0 0 0 0c6,-4 11,-7 17,-11l0 0 0 0c1,-1 2,-1 4,-2l0 0 0 0c7,-5 14,-9 22,-13l0 0 0 0c3,-2 5,-3 8,-5l0 0 0 0c3,-2 6,-3 8,-5l0 0 0 0c19,-11 39,-21 59,-30l0 0 0 0 2 -1 0 0 0 0c4,-2 7,-3 11,-5l0 0 0 0c4,-2 7,-3 11,-5l0 0 0 0c7,-3 14,-6 21,-9l0 0 0 0 3 -1 1 0 0 0c2,-1 4,-1 6,-2l0 0 0 0c8,-3 15,-6 23,-8l0 0 0 0 3 -1 0 0 0 0c1,0 2,-1 3,-1l1 0 0 0 3 -1 1 0 0 0c1,0 2,-1 3,-1l0 0 0 0 3 -1 0 0 0 0 3 -1 0 0 0 0c5,-2 10,-3 15,-5l0 0 0 0c3,-1 5,-2 8,-2l1 0 0 0 3 -1 0 0 0 0c1,0 3,-1 4,-1l1 0 0 0c3,-1 6,-2 8,-2l0 0 0 0c6,-2 13,-3 19,-5l0 0 0 0c2,0 3,-1 5,-1l0 0 0 0c4,-1 7,-2 11,-2l0 0 0 0c8,-2 15,-3 23,-5l0 0 0 0c2,0 4,-1 6,-1l1 0 0 0c2,0 4,-1 6,-1l1 0 0 0c2,0 5,-1 7,-1l1 0 0 0c5,-1 10,-2 14,-2l0 0 0 0c6,-1 11,-2 17,-2l1 0 0 0c3,0 6,-1 9,-1l1 0 0 0c8,-1 15,-2 23,-2l2 0 0 0c4,0 8,-1 13,-1l3 0 0 0c20,-1 41,-2 62,-2l4487 0c21,0 42,1 62,2l0 0 3 0c4,0 8,1 13,1l0 0 2 0c8,1 15,1 23,2l0 0 1 0c3,0 6,1 9,1l0 0 1 0c6,1 12,2 17,2l0 0 0 0c5,1 10,2 14,2l0 0 1 0c2,0 5,1 7,1l0 0 1 0c2,0 4,1 6,1l0 0 1 0c2,0 4,1 6,1l0 0 0 0c8,2 15,3 23,5l0 0 0 0c4,1 7,2 11,2l0 0 0 0c2,0 3,1 5,1l0 0 0 0c6,2 13,3 19,5l0 0 0 0c3,1 6,2 8,2l0 0 1 0c1,0 3,1 4,1l0 0 0 0 3 1 0 0 1 0c3,1 5,2 8,2l0 0 0 0c5,2 10,3 15,5l0 0 0 0 3 1 0 0 0 0 3 1 0 0 0 0 3 1 0 0 1 0 3 1 0 0 1 0c1,0 2,1 3,1l0 0 0 0 3 1 0 0 0 0c8,3 15,6 23,8l0 0 0 0c2,1 4,1 6,2l0 0 1 0 3 1 0 0 0 0c7,3 14,6 21,9l0 0 0 0c4,2 7,3 11,5l0 0 0 0c4,2 7,3 11,5l0 0 0 0 2 1 0 0 0 0c20,9 40,19 59,30l0 0 0 0c3,2 6,3 8,5l0 0 0 0c3,2 5,3 8,5l0 0 0 0c7,4 15,9 22,13l0 0 0 0c1,1 2,1 4,2l0 0 0 0c6,4 11,7 17,11l0 0 0 0c5,4 11,7 16,11l0 0 0 0c3,2 6,4 8,6l0 0 0 0c4,3 9,6 13,10l0 0 0 0c4,3 7,6 11,8l0 0 0 0c2,1 3,2 5,4l0 0 0 0 1 1 0 0 0 0c2,1 3,2 5,4l0 0 0 0c4,4 9,7 13,11l0 0 0 0c3,2 6,5 8,7l0 0 0 0c3,2 6,5 8,7l0 0 0 0 1 1 0 0 0 0c9,8 19,17 28,26l0 0 0 0 1 1 0 0 0 0 1 1 0 0 0 0 1 1 0 0 0 0 1 1 0 0 0 0c5,5 10,10 14,14l0 0 0 0 1 1 0 0 0 0 1 1 0 0 0 0 1 1 0 0 0 0 1 1 0 0 0 0c9,9 17,18 26,28l0 0 0 0 1 1 0 0 0 0c2,3 5,6 7,8l0 0 0 0c2,3 5,6 7,8l0 0 0 0c4,4 7,9 11,13l0 0 0 0c1,2 2,3 4,5l0 0 0 0 1 1 0 0 0 0c1,2 2,3 4,5l0 0 0 0c3,4 6,7 8,11l0 0 0 0c3,4 7,9 10,13l0 0 0 0c2,3 4,6 6,8l0 0 0 0c4,5 7,10 11,16l0 0 0 0c4,6 7,11 11,17l0 0 0 0c1,1 1,2 2,4l0 0 0 0c5,7 9,14 13,22l0 0 0 0c2,3 3,5 5,8l0 0 0 0c2,3 3,6 5,8l0 0 0 0c11,19 21,39 30,59l0 0 0 0 1 2 0 0 0 0c2,4 3,7 5,11l0 0 0 0c2,4 3,7 5,11l0 0 0 0c3,7 6,14 8,21l0 0 0 0 1 3 0 1 0 0c1,2 1,4 2,6l0 0 0 0c3,8 6,15 8,23l0 0 0 0 1 3 0 0 0 0c0,1 1,2 1,3l0 1 0 0 1 3 0 1 0 0c0,1 1,2 1,3l0 0 0 0 1 3 0 0 0 0 1 3 0 0 0 0c2,5 3,10 5,15l0 0 0 0c1,3 2,5 2,8l0 1 0 0 1 3 0 0 0 0c0,1 1,3 1,4l0 1 0 0c1,3 2,6 2,8l0 0 0 0c2,6 3,13 5,19l0 0 0 0c0,2 1,3 1,5l0 0 0 0c1,3 2,7 2,11l0 0 0 0c2,8 3,15 5,23l0 0 0 0c0,2 1,4 1,6l0 1 0 0c0,2 1,4 1,6l0 1 0 0c0,2 1,5 1,7l0 1 0 0c1,5 2,10 2,14l0 0 0 0c1,6 2,11 2,17l0 1 0 0c0,3 1,6 1,9l0 1 0 0c1,8 2,15 2,23l0 2 0 0c0,4 1,8 1,13l0 3 0 0c1,20 2,41 2,62l0 4487c0,21 -1,42 -2,62l0 0 0 3c0,5 -1,9 -1,14l0 0 0 0c-1,8 -1,15 -2,23l0 0 0 1c0,3 -1,6 -1,9l0 0 0 1c0,3 -1,6 -1,9l0 0 0 0c-1,8 -2,15 -4,23l0 0 0 1c0,2 -1,4 -1,7l0 0 0 1c-1,4 -2,8 -2,13l0 0 0 0c-1,8 -3,15 -5,23l0 0 0 1c0,2 -1,4 -1,5l0 0 0 0 -1 5 0 0 0 1c0,1 -1,3 -1,4l0 0 0 1c-2,8 -4,16 -6,24l0 0 0 0c-1,3 -2,6 -2,9l0 0 0 1c-1,3 -2,5 -2,8l0 0 0 0c-4,14 -8,28 -13,41l0 0 0 0 -1 3 0 0 0 0 -1 3 0 0 0 0c-2,6 -5,13 -7,19l0 0 0 0c-1,2 -1,4 -2,6l0 0 0 0c-1,2 -2,4 -2,6l0 0 0 0 -2 6 0 0 0 0c-2,6 -5,11 -7,17l0 0 0 0c-1,3 -2,6 -4,8l0 0 0 0 -1 2 0 0 0 0c-4,9 -9,19 -13,28l0 0 0 0 -1 2 0 0 0 0 -1 2 0 0 0 0 -1 2 0 0 0 0 -1 2 0 0 0 0 -1 2 0 0 0 0 -1 2 0 0 0 0c-5,9 -10,18 -15,27l0 0 0 0c-1,2 -2,4 -3,6l0 0 0 0 -1 2 0 0 0 0c-1,2 -2,4 -4,6l0 0 0 0c-2,4 -5,8 -7,12l0 0 0 0c-2,3 -4,6 -6,10l0 0 0 0c-1,1 -1,2 -2,4l0 0 0 0c-1,1 -1,2 -2,3l0 0 0 0c-5,7 -10,14 -14,22l0 0 0 0 -2 3 0 0 0 0c-2,3 -4,6 -6,8l0 0 0 0c-4,6 -9,12 -13,18l0 0 0 0c-3,4 -6,7 -8,11l0 0 0 0c-2,2 -3,4 -5,6l0 0 0 0c-6,7 -11,14 -17,20l0 0 0 0c-2,2 -4,5 -6,7l0 0 0 0 -1 1 0 0 0 0c-7,8 -14,16 -22,24l0 0 0 0 -1 1 0 0 0 0 -1 1 0 0 0 0 -1 1 0 0 0 0c-11,11 -21,22 -33,33l0 0 0 0 -1 1 0 0 0 0 -1 1 0 0 0 0c-8,7 -16,15 -24,22l0 0 0 0 -1 1 0 0 0 0c-3,2 -6,5 -9,7l0 0 0 0c-6,5 -13,11 -19,16l0 0 0 0c-2,2 -4,3 -6,5l0 0 0 0c-4,3 -7,6 -11,8l0 0 0 0c-3,2 -6,5 -10,7l0 0 0 0c-3,2 -6,4 -8,6l0 0 0 0c-3,2 -6,4 -8,6l0 0 0 0c-9,7 -19,13 -29,19l0 0 0 0c-1,1 -2,1 -4,2l0 0 0 0c-7,5 -14,9 -22,13l0 0 0 0c-2,1 -4,2 -6,4l0 0 0 0c-3,2 -6,3 -8,5l0 0 0 0c-8,5 -16,9 -24,13l0 0 0 0 -2 1 0 0 0 0 -2 1 0 0 0 0 -2 1 0 0 0 0 -2 1 0 0 0 0 -2 1 0 0 0 0c-6,3 -13,6 -19,10l0 0 0 0c-4,2 -9,4 -13,6l0 0 0 0 -2 1 0 0 0 0c-4,2 -7,3 -11,5l0 0 0 0c-7,3 -13,6 -20,9l0 0 0 0c-2,1 -4,2 -6,2l-1 0 0 0c-2,1 -4,1 -6,2l0 0 0 0c-5,2 -11,4 -16,6 -1,0 -2,1 -3,1l0 0 0 0c-13,5 -27,9 -40,13 -3,1 -5,2 -8,2l0 0 0 0c-3,1 -5,2 -8,2l-1 0 0 0c-3,1 -6,2 -8,2l0 0 0 0c-8,2 -16,4 -24,6l-1 0 0 0c-1,0 -3,1 -4,1l-1 0 0 0 -5 1 0 0 0 0c-4,1 -7,2 -11,2l0 0 0 0c-6,1 -12,2 -18,4l0 0 0 0c-2,0 -4,1 -6,1l0 0 0 0c-2,0 -4,1 -6,1l-1 0 0 0c-2,0 -4,1 -6,1l-1 0 0 0c-8,1 -15,2 -23,4l0 0 0 0c-3,0 -6,1 -8,1l-1 0 0 0c-3,0 -6,1 -9,1l-1 0 0 0c-8,1 -15,2 -23,2l0 0 0 0c-5,0 -9,1 -14,1l-3 0 0 0c-21,1 -41,2 -62,2l-4487 0c-21,0 -42,-1 -62,-2z"/>
    </clipPath>
 </defs>
 <g id="Layer_x0020_1">
  <metadata id="CorelCorpID_0Corel-Layer"/>
  <g id="_382457240">
   <path class="fil0" d="M809 6227l0 0 -3 0c-4,0 -8,-1 -13,-1l0 0 -2 0c-8,-1 -15,-2 -23,-2l0 0 -1 0c-3,0 -6,-1 -9,-1l0 0 -1 0c-6,-1 -11,-2 -17,-2l0 0 0 0c-5,-1 -10,-2 -14,-2l0 0 -1 0c-2,0 -5,-1 -7,-1l0 0 -1 0c-2,0 -4,-1 -6,-1l0 0 -1 0c-2,0 -4,-1 -6,-1l0 0 0 0c-8,-2 -15,-3 -23,-5l0 0 0 0c-4,-1 -7,-2 -11,-2l0 0 0 0c-2,0 -3,-1 -5,-1l0 0 0 0c-6,-2 -13,-3 -19,-5l0 0 0 0c-3,-1 -6,-2 -8,-2l0 0 -1 0c-1,0 -3,-1 -4,-1l0 0 0 0 -3 -1 0 0 -1 0c-3,-1 -5,-2 -8,-2l0 0 0 0c-5,-2 -10,-3 -15,-5l0 0 0 0 -3 -1 0 0 0 0 -3 -1 0 0 0 0 -3 -1 0 0 -1 0 -3 -1 0 0 -1 0c-1,0 -2,-1 -3,-1l0 0 0 0 -3 -1 0 0 0 0c-8,-3 -15,-6 -23,-8l0 0 0 0c-2,-1 -4,-1 -6,-2l0 0 -1 0 -3 -1 0 0 0 0c-7,-3 -14,-6 -21,-8l0 0 0 0c-4,-2 -7,-3 -11,-5l0 0 0 0c-4,-2 -7,-3 -11,-5l0 0 0 0 -2 -1 0 0 0 0c-20,-9 -40,-19 -59,-30l0 0 0 0c-3,-2 -6,-3 -8,-5l0 0 0 0c-3,-2 -5,-3 -8,-5l0 0 0 0c-7,-4 -15,-9 -22,-13l0 0 0 0c-1,-1 -2,-1 -4,-2l0 0 0 0c-6,-4 -11,-7 -17,-11l0 0 0 0 -4 -2c-4,-3 -8,-6 -12,-8l0 0 0 0c-3,-2 -6,-4 -8,-6l0 0 0 0c-4,-3 -9,-6 -13,-10l0 0 0 0c-4,-3 -7,-6 -11,-8l0 0 0 0c-2,-1 -3,-2 -5,-4l0 0 0 0 -1 -1 0 0 0 0c-2,-1 -3,-2 -5,-4l0 0 0 0c-4,-4 -9,-7 -13,-11l0 0 0 0c-3,-2 -6,-5 -8,-7l0 0 0 0c-3,-2 -6,-5 -8,-7l0 0 0 0 -1 -1 0 0 0 0c-9,-8 -19,-17 -28,-26l0 0 0 0 -1 -1 0 0 0 0 -1 -1 0 0 0 0 -1 -1 0 0 0 0 -1 -1 0 0 0 0c-5,-5 -10,-10 -14,-14l0 0 0 0 -1 -1 0 0 0 0 -1 -1 0 0 0 0 -1 -1 0 0 0 0 -1 -1 0 0 0 0c-9,-9 -17,-18 -26,-28l0 0 0 0 -1 -1 0 0 0 0c-2,-3 -5,-6 -7,-8l0 0 0 0c-2,-3 -5,-6 -7,-8l0 0 0 0c-4,-4 -7,-9 -11,-13l0 0 0 0c-1,-2 -2,-3 -4,-4l0 0 0 0 -1 -1 0 0 0 0c-1,-2 -2,-3 -4,-5l0 0 0 0c-3,-4 -6,-7 -8,-11l0 0 0 0c-3,-4 -6,-9 -10,-13l0 0 0 0c-2,-3 -4,-6 -6,-8l0 0 0 0c-3,-4 -6,-8 -8,-12 -1,-1 -2,-2 -2,-4l0 0 0 0c-4,-6 -7,-11 -11,-17l0 0 0 0c-1,-1 -1,-2 -2,-4l0 0 0 0c-5,-7 -9,-15 -13,-22l0 0 0 0c-2,-3 -3,-5 -5,-8l0 0 0 0c-2,-3 -3,-6 -5,-8l0 0 0 0c-11,-19 -21,-39 -30,-59l0 0 0 0 -1 -2 0 0 0 0c-2,-4 -3,-7 -5,-11l0 0 0 0c-2,-4 -3,-7 -5,-11l0 0 0 0c-3,-7 -6,-14 -8,-21l0 0 0 0 -1 -3 0 -1 0 0c-1,-2 -1,-4 -2,-6l0 0 0 0c-3,-8 -6,-15 -8,-23l0 0 0 0 -1 -3 0 0 0 0c0,-1 -1,-2 -1,-3l0 -1 0 0 -1 -3 0 -1 0 0c0,-1 -1,-2 -1,-3l0 0 0 0 -1 -3 0 0 0 0 -1 -3 0 0 0 0c-2,-5 -3,-10 -5,-15l0 0 0 0c-1,-3 -2,-5 -2,-8l0 -1 0 0 -1 -3 0 0 0 0c0,-1 -1,-3 -1,-4l0 -1 0 0c-1,-3 -2,-6 -2,-8l0 0 0 0c-2,-6 -3,-13 -5,-19l0 0 0 0c0,-2 -1,-3 -1,-5l0 0 0 0c-1,-3 -2,-7 -2,-11l0 0 0 0c-2,-8 -3,-15 -5,-23l0 0 0 0c0,-2 -1,-4 -1,-6l0 -1 0 0c0,-2 -1,-4 -1,-6l0 -1 0 0c0,-2 -1,-5 -1,-7l0 -1 0 0c-1,-5 -2,-10 -2,-14l0 0 0 0c-1,-6 -2,-11 -2,-17l0 -1 0 0c0,-3 -1,-6 -1,-9l0 -1 0 0c-1,-8 -2,-15 -2,-23l0 -2 0 0c0,-4 -1,-8 -1,-13l0 -3 0 0c-1,-20 -2,-41 -2,-62l0 -4487c0,-21 1,-42 2,-62l0 0 0 -3c0,-4 1,-8 1,-13l0 0 0 -2c1,-8 1,-15 2,-23l0 0 0 -1c0,-3 1,-6 1,-9l0 0 0 -1c1,-6 2,-12 2,-17l0 0 0 0c1,-5 2,-10 2,-14l0 0 0 -1c0,-2 1,-5 1,-7l0 0 0 -1c0,-2 1,-4 1,-6l0 0 0 -1c0,-2 1,-4 1,-6l0 0 0 0c2,-8 3,-15 5,-23l0 0 0 0c1,-4 2,-7 2,-11l0 0 0 0c0,-2 1,-3 1,-5l0 0 0 0c2,-6 3,-13 5,-19l0 0 0 0c1,-3 2,-6 2,-8l0 0 0 -1c0,-1 1,-3 1,-4l0 0 0 0 1 -3 0 0 0 -1c1,-3 2,-5 2,-8l0 0 0 0c2,-5 3,-10 5,-15l0 0 0 0 1 -3 0 0 0 0 1 -3 0 0 0 0 1 -3 0 0 0 -1 1 -3 0 0 0 -1c0,-1 1,-2 1,-3l0 0 0 0 1 -3 0 0 0 0c3,-8 5,-15 8,-23l0 0 0 0c1,-2 1,-4 2,-6l0 0 0 -1 1 -3 0 0 0 0c3,-7 6,-14 8,-21l0 0 0 0c2,-4 3,-7 5,-11l0 0 0 0c2,-4 3,-7 5,-11l0 0 0 0 1 -2 0 0 0 0c9,-20 19,-40 30,-59l0 0 0 0c2,-3 3,-6 5,-8l0 0 0 0c2,-3 3,-5 5,-8l0 0 0 0c4,-7 9,-15 13,-22l0 0 0 0c1,-1 1,-2 2,-4l0 0 0 0c4,-6 7,-11 11,-17l0 0 0 0 2 -4 0 0 0 0c3,-4 6,-8 8,-12l0 0 0 0c2,-3 4,-6 6,-8l0 0 0 0c3,-4 6,-9 10,-13l0 0 0 0c3,-4 6,-7 8,-11l0 0 0 0c1,-2 2,-3 4,-5l0 0 0 0 1 -1 0 0 0 0c1,-2 2,-3 4,-5l0 0 0 0c4,-5 7,-9 11,-13l0 0 0 0c2,-3 5,-6 7,-8l0 0 0 0c2,-3 5,-6 7,-8l0 0 0 0 1 -1 0 0 0 0c8,-9 17,-19 26,-28l0 0 0 0 1 -1 0 0 0 0 1 -1 0 0 0 0 1 -1 0 0 0 0 1 -1 0 0 0 0c5,-5 10,-10 14,-14l0 0 0 0 1 -1 0 0 0 0 1 -1 0 0 0 0 1 -1 0 0 0 0 1 -1 0 0 0 0c9,-9 18,-17 28,-26l0 0 0 0 1 -1 0 0 0 0c3,-2 6,-5 8,-7l0 0 0 0c3,-2 6,-5 8,-7l0 0 0 0c4,-4 9,-7 13,-11l0 0 0 0c2,-1 3,-2 5,-4l0 0 0 0 1 -1 0 0 0 0c2,-1 3,-2 5,-4l0 0 0 0c4,-3 7,-6 11,-8l0 0 0 0c4,-3 9,-6 13,-10l0 0 0 0c3,-2 6,-4 8,-6l0 0 0 0c5,-4 10,-7 16,-11l0 0 0 0c6,-4 11,-7 17,-11l0 0 0 0c1,-1 2,-1 4,-2l0 0 0 0c7,-5 14,-9 22,-13l0 0 0 0c3,-2 5,-3 8,-5l0 0 0 0c3,-2 6,-3 8,-5l0 0 0 0c19,-11 39,-21 59,-30l0 0 0 0 2 -1 0 0 0 0c4,-2 7,-3 11,-5l0 0 0 0c4,-2 7,-3 11,-5l0 0 0 0c7,-3 14,-6 21,-9l0 0 0 0 3 -1 1 0 0 0c2,-1 4,-1 6,-2l0 0 0 0c8,-3 15,-6 23,-8l0 0 0 0 3 -1 0 0 0 0c1,0 2,-1 3,-1l1 0 0 0 3 -1 1 0 0 0c1,0 2,-1 3,-1l0 0 0 0 3 -1 0 0 0 0 3 -1 0 0 0 0c5,-2 10,-3 15,-5l0 0 0 0c3,-1 5,-2 8,-2l1 0 0 0 3 -1 0 0 0 0c1,0 3,-1 4,-1l1 0 0 0c3,-1 6,-2 8,-2l0 0 0 0c6,-2 13,-3 19,-5l0 0 0 0c2,0 3,-1 5,-1l0 0 0 0c4,-1 7,-2 11,-2l0 0 0 0c8,-2 15,-3 23,-5l0 0 0 0c2,0 4,-1 6,-1l1 0 0 0c2,0 4,-1 6,-1l1 0 0 0c2,0 5,-1 7,-1l1 0 0 0c5,-1 10,-2 14,-2l0 0 0 0c6,-1 11,-2 17,-2l1 0 0 0c3,0 6,-1 9,-1l1 0 0 0c8,-1 15,-2 23,-2l2 0 0 0c4,0 8,-1 13,-1l3 0 0 0c20,-1 41,-2 62,-2l4487 0c21,0 42,1 62,2l0 0 3 0c4,0 8,1 13,1l0 0 2 0c8,1 15,1 23,2l0 0 1 0c3,0 6,1 9,1l0 0 1 0c6,1 12,2 17,2l0 0 0 0c5,1 10,2 14,2l0 0 1 0c2,0 5,1 7,1l0 0 1 0c2,0 4,1 6,1l0 0 1 0c2,0 4,1 6,1l0 0 0 0c8,2 15,3 23,5l0 0 0 0c4,1 7,2 11,2l0 0 0 0c2,0 3,1 5,1l0 0 0 0c6,2 13,3 19,5l0 0 0 0c3,1 6,2 8,2l0 0 1 0c1,0 3,1 4,1l0 0 0 0 3 1 0 0 1 0c3,1 5,2 8,2l0 0 0 0c5,2 10,3 15,5l0 0 0 0 3 1 0 0 0 0 3 1 0 0 0 0 3 1 0 0 1 0 3 1 0 0 1 0c1,0 2,1 3,1l0 0 0 0 3 1 0 0 0 0c8,3 15,6 23,8l0 0 0 0c2,1 4,1 6,2l0 0 1 0 3 1 0 0 0 0c7,3 14,6 21,9l0 0 0 0c4,2 7,3 11,5l0 0 0 0c4,2 7,3 11,5l0 0 0 0 2 1 0 0 0 0c20,9 40,19 59,30l0 0 0 0c3,2 6,3 8,5l0 0 0 0c3,2 5,3 8,5l0 0 0 0c7,4 15,9 22,13l0 0 0 0c1,1 2,1 4,2l0 0 0 0c6,4 11,7 17,11l0 0 0 0c5,4 11,7 16,11l0 0 0 0c3,2 6,4 8,6l0 0 0 0c4,3 9,6 13,10l0 0 0 0c4,3 7,6 11,8l0 0 0 0c2,1 3,2 5,4l0 0 0 0 1 1 0 0 0 0c2,1 3,2 5,4l0 0 0 0c4,4 9,7 13,11l0 0 0 0c3,2 6,5 8,7l0 0 0 0c3,2 6,5 8,7l0 0 0 0 1 1 0 0 0 0c9,8 19,17 28,26l0 0 0 0 1 1 0 0 0 0 1 1 0 0 0 0 1 1 0 0 0 0 1 1 0 0 0 0c5,5 10,10 14,14l0 0 0 0 1 1 0 0 0 0 1 1 0 0 0 0 1 1 0 0 0 0 1 1 0 0 0 0c9,9 17,18 26,28l0 0 0 0 1 1 0 0 0 0c2,3 5,6 7,8l0 0 0 0c2,3 5,6 7,8l0 0 0 0c4,4 7,9 11,13l0 0 0 0c1,2 2,3 4,5l0 0 0 0 1 1 0 0 0 0c1,2 2,3 4,5l0 0 0 0c3,4 6,7 8,11l0 0 0 0c3,4 7,9 10,13l0 0 0 0c2,3 4,6 6,8l0 0 0 0c4,5 7,10 11,16l0 0 0 0c4,6 7,11 11,17l0 0 0 0c1,1 1,2 2,4l0 0 0 0c5,7 9,14 13,22l0 0 0 0c2,3 3,5 5,8l0 0 0 0c2,3 3,6 5,8l0 0 0 0c11,19 21,39 30,59l0 0 0 0 1 2 0 0 0 0c2,4 3,7 5,11l0 0 0 0c2,4 3,7 5,11l0 0 0 0c3,7 6,14 8,21l0 0 0 0 1 3 0 1 0 0c1,2 1,4 2,6l0 0 0 0c3,8 6,15 8,23l0 0 0 0 1 3 0 0 0 0c0,1 1,2 1,3l0 1 0 0 1 3 0 1 0 0c0,1 1,2 1,3l0 0 0 0 1 3 0 0 0 0 1 3 0 0 0 0c2,5 3,10 5,15l0 0 0 0c1,3 2,5 2,8l0 1 0 0 1 3 0 0 0 0c0,1 1,3 1,4l0 1 0 0c1,3 2,6 2,8l0 0 0 0c2,6 3,13 5,19l0 0 0 0c0,2 1,3 1,5l0 0 0 0c1,3 2,7 2,11l0 0 0 0c2,8 3,15 5,23l0 0 0 0c0,2 1,4 1,6l0 1 0 0c0,2 1,4 1,6l0 1 0 0c0,2 1,5 1,7l0 1 0 0c1,5 2,10 2,14l0 0 0 0c1,6 2,11 2,17l0 1 0 0c0,3 1,6 1,9l0 1 0 0c1,8 2,15 2,23l0 2 0 0c0,4 1,8 1,13l0 3 0 0c1,20 2,41 2,62l0 4487c0,21 -1,42 -2,62l0 0 0 3c0,5 -1,9 -1,14l0 0 0 0c-1,8 -1,15 -2,23l0 0 0 1c0,3 -1,6 -1,9l0 0 0 1c0,3 -1,6 -1,9l0 0 0 0c-1,8 -2,15 -4,23l0 0 0 1c0,2 -1,4 -1,7l0 0 0 1c-1,4 -2,8 -2,13l0 0 0 0c-1,8 -3,15 -5,23l0 0 0 1c0,2 -1,4 -1,5l0 0 0 0 -1 5 0 0 0 1c0,1 -1,3 -1,4l0 0 0 1c-2,8 -4,16 -6,24l0 0 0 0c-1,3 -2,6 -2,9l0 0 0 1c-1,3 -2,5 -2,8l0 0 0 0c-4,14 -8,28 -13,41l0 0 0 0 -1 3 0 0 0 0 -1 3 0 0 0 0c-2,6 -5,13 -7,19l0 0 0 0c-1,2 -1,4 -2,6l0 0 0 0c-1,2 -2,4 -2,6l0 0 0 0 -2 6 0 0 0 0c-2,6 -5,11 -7,17l0 0 0 0c-1,3 -2,6 -4,8l0 0 0 0 -1 2 0 0 0 0c-4,9 -9,19 -13,28l0 0 0 0 -1 2 0 0 0 0 -1 2 0 0 0 0 -1 2 0 0 0 0 -1 2 0 0 0 0 -1 2 0 0 0 0 -1 2 0 0 0 0c-5,9 -10,18 -15,27l0 0 0 0c-1,2 -2,4 -3,6l0 0 0 0 -1 2 0 0 0 0c-1,2 -2,4 -4,6l0 0 0 0c-2,4 -5,8 -7,12l0 0 0 0c-2,3 -4,6 -6,10l0 0 0 0c-1,1 -1,2 -2,4l0 0 0 0c-1,1 -1,2 -2,3l0 0 0 0c-5,7 -10,14 -14,22l0 0 0 0 -2 3 0 0 0 0c-2,3 -4,6 -6,8l0 0 0 0c-4,6 -9,12 -13,18l0 0 0 0c-3,4 -6,7 -8,11l0 0 0 0c-2,2 -3,4 -5,6l0 0 0 0c-6,7 -11,14 -17,20l0 0 0 0c-2,2 -4,5 -6,7l0 0 0 0 -1 1 0 0 0 0c-7,8 -14,16 -22,24l0 0 0 0 -1 1 0 0 0 0 -1 1 0 0 0 0 -1 1 0 0 0 0c-11,11 -21,22 -33,33l0 0 0 0 -1 1 0 0 0 0 -1 1 0 0 0 0c-8,7 -16,15 -24,22l0 0 0 0 -1 1 0 0 0 0c-3,2 -6,5 -9,7l0 0 0 0c-6,5 -13,11 -19,16l0 0 0 0c-2,2 -4,3 -6,5l0 0 0 0c-4,3 -7,6 -11,8l0 0 0 0c-3,2 -6,5 -10,7l0 0 0 0c-3,2 -6,4 -8,6l0 0 0 0c-3,2 -6,4 -8,6l0 0 0 0c-9,7 -19,13 -29,19l0 0 0 0c-1,1 -2,1 -4,2l0 0 0 0c-7,5 -14,9 -22,13l0 0 0 0c-2,1 -4,2 -6,4l0 0 0 0c-3,2 -6,3 -8,5l0 0 0 0c-8,5 -16,9 -24,13l0 0 0 0 -2 1 0 0 0 0 -2 1 0 0 0 0 -2 1 0 0 0 0 -2 1 0 0 0 0 -2 1 0 0 0 0c-6,3 -13,6 -19,10l0 0 0 0c-4,2 -9,4 -13,6l0 0 0 0 -2 1 0 0 0 0c-4,2 -7,3 -11,5l0 0 0 0c-7,3 -13,6 -20,9l0 0 0 0c-2,1 -4,2 -6,2l-1 0 0 0c-2,1 -4,1 -6,2l0 0 0 0c-5,2 -11,4 -16,6 -1,0 -2,1 -3,1l0 0 0 0c-13,5 -27,9 -40,13 -3,1 -5,2 -8,2l0 0 0 0c-3,1 -5,2 -8,2l-1 0 0 0c-3,1 -6,2 -8,2l0 0 0 0c-8,2 -16,4 -24,6l-1 0 0 0c-1,0 -3,1 -4,1l-1 0 0 0 -5 1 0 0 0 0c-4,1 -7,2 -11,2l0 0 0 0c-6,1 -12,2 -18,4l0 0 0 0c-2,0 -4,1 -6,1l0 0 0 0c-2,0 -4,1 -6,1l-1 0 0 0c-2,0 -4,1 -6,1l-1 0 0 0c-8,1 -15,2 -23,4l0 0 0 0c-3,0 -6,1 -8,1l-1 0 0 0c-3,0 -6,1 -9,1l-1 0 0 0c-8,1 -15,2 -23,2l0 0 0 0c-5,0 -9,1 -14,1l-3 0 0 0c-21,1 -41,2 -62,2l-4487 0c-21,0 -42,-1 -62,-2z"/>
   <g style="clip-path:url(#id0)">
    <g>
     <rect class="fil1" transform="matrix(1.07449 -1.07449 1.07449 1.07449 4068.75 53.0187)" width="2013" height="2013"/>
    </g>
   </g>
   <path class="fil2" d="M809 6227l0 0 -3 0c-4,0 -8,-1 -13,-1l0 0 -2 0c-8,-1 -15,-2 -23,-2l0 0 -1 0c-3,0 -6,-1 -9,-1l0 0 -1 0c-6,-1 -11,-2 -17,-2l0 0 0 0c-5,-1 -10,-2 -14,-2l0 0 -1 0c-2,0 -5,-1 -7,-1l0 0 -1 0c-2,0 -4,-1 -6,-1l0 0 -1 0c-2,0 -4,-1 -6,-1l0 0 0 0c-8,-2 -15,-3 -23,-5l0 0 0 0c-4,-1 -7,-2 -11,-2l0 0 0 0c-2,0 -3,-1 -5,-1l0 0 0 0c-6,-2 -13,-3 -19,-5l0 0 0 0c-3,-1 -6,-2 -8,-2l0 0 -1 0c-1,0 -3,-1 -4,-1l0 0 0 0 -3 -1 0 0 -1 0c-3,-1 -5,-2 -8,-2l0 0 0 0c-5,-2 -10,-3 -15,-5l0 0 0 0 -3 -1 0 0 0 0 -3 -1 0 0 0 0 -3 -1 0 0 -1 0 -3 -1 0 0 -1 0c-1,0 -2,-1 -3,-1l0 0 0 0 -3 -1 0 0 0 0c-8,-3 -15,-6 -23,-8l0 0 0 0c-2,-1 -4,-1 -6,-2l0 0 -1 0 -3 -1 0 0 0 0c-7,-3 -14,-6 -21,-8l0 0 0 0c-4,-2 -7,-3 -11,-5l0 0 0 0c-4,-2 -7,-3 -11,-5l0 0 0 0 -2 -1 0 0 0 0c-20,-9 -40,-19 -59,-30l0 0 0 0c-3,-2 -6,-3 -8,-5l0 0 0 0c-3,-2 -5,-3 -8,-5l0 0 0 0c-7,-4 -15,-9 -22,-13l0 0 0 0c-1,-1 -2,-1 -4,-2l0 0 0 0c-6,-4 -11,-7 -17,-11l0 0 0 0 -4 -2c-4,-3 -8,-6 -12,-8l0 0 0 0c-3,-2 -6,-4 -8,-6l0 0 0 0c-4,-3 -9,-6 -13,-10l0 0 0 0c-4,-3 -7,-6 -11,-8l0 0 0 0c-2,-1 -3,-2 -5,-4l0 0 0 0 -1 -1 0 0 0 0c-2,-1 -3,-2 -5,-4l0 0 0 0c-4,-4 -9,-7 -13,-11l0 0 0 0c-3,-2 -6,-5 -8,-7l0 0 0 0c-3,-2 -6,-5 -8,-7l0 0 0 0 -1 -1 0 0 0 0c-9,-8 -19,-17 -28,-26l0 0 0 0 -1 -1 0 0 0 0 -1 -1 0 0 0 0 -1 -1 0 0 0 0 -1 -1 0 0 0 0c-5,-5 -10,-10 -14,-14l0 0 0 0 -1 -1 0 0 0 0 -1 -1 0 0 0 0 -1 -1 0 0 0 0 -1 -1 0 0 0 0c-9,-9 -17,-18 -26,-28l0 0 0 0 -1 -1 0 0 0 0c-2,-3 -5,-6 -7,-8l0 0 0 0c-2,-3 -5,-6 -7,-8l0 0 0 0c-4,-4 -7,-9 -11,-13l0 0 0 0c-1,-2 -2,-3 -4,-4l0 0 0 0 -1 -1 0 0 0 0c-1,-2 -2,-3 -4,-5l0 0 0 0c-3,-4 -6,-7 -8,-11l0 0 0 0c-3,-4 -6,-9 -10,-13l0 0 0 0c-2,-3 -4,-6 -6,-8l0 0 0 0c-3,-4 -6,-8 -8,-12 -1,-1 -2,-2 -2,-4l0 0 0 0c-4,-6 -7,-11 -11,-17l0 0 0 0c-1,-1 -1,-2 -2,-4l0 0 0 0c-5,-7 -9,-15 -13,-22l0 0 0 0c-2,-3 -3,-5 -5,-8l0 0 0 0c-2,-3 -3,-6 -5,-8l0 0 0 0c-11,-19 -21,-39 -30,-59l0 0 0 0 -1 -2 0 0 0 0c-2,-4 -3,-7 -5,-11l0 0 0 0c-2,-4 -3,-7 -5,-11l0 0 0 0c-3,-7 -6,-14 -8,-21l0 0 0 0 -1 -3 0 -1 0 0c-1,-2 -1,-4 -2,-6l0 0 0 0c-3,-8 -6,-15 -8,-23l0 0 0 0 -1 -3 0 0 0 0c0,-1 -1,-2 -1,-3l0 -1 0 0 -1 -3 0 -1 0 0c0,-1 -1,-2 -1,-3l0 0 0 0 -1 -3 0 0 0 0 -1 -3 0 0 0 0c-2,-5 -3,-10 -5,-15l0 0 0 0c-1,-3 -2,-5 -2,-8l0 -1 0 0 -1 -3 0 0 0 0c0,-1 -1,-3 -1,-4l0 -1 0 0c-1,-3 -2,-6 -2,-8l0 0 0 0c-2,-6 -3,-13 -5,-19l0 0 0 0c0,-2 -1,-3 -1,-5l0 0 0 0c-1,-3 -2,-7 -2,-11l0 0 0 0c-2,-8 -3,-15 -5,-23l0 0 0 0c0,-2 -1,-4 -1,-6l0 -1 0 0c0,-2 -1,-4 -1,-6l0 -1 0 0c0,-2 -1,-5 -1,-7l0 -1 0 0c-1,-5 -2,-10 -2,-14l0 0 0 0c-1,-6 -2,-11 -2,-17l0 -1 0 0c0,-3 -1,-6 -1,-9l0 -1 0 0c-1,-8 -2,-15 -2,-23l0 -2 0 0c0,-4 -1,-8 -1,-13l0 -3 0 0c-1,-20 -2,-41 -2,-62l0 -4487c0,-21 1,-42 2,-62l0 0 0 -3c0,-4 1,-8 1,-13l0 0 0 -2c1,-8 1,-15 2,-23l0 0 0 -1c0,-3 1,-6 1,-9l0 0 0 -1c1,-6 2,-12 2,-17l0 0 0 0c1,-5 2,-10 2,-14l0 0 0 -1c0,-2 1,-5 1,-7l0 0 0 -1c0,-2 1,-4 1,-6l0 0 0 -1c0,-2 1,-4 1,-6l0 0 0 0c2,-8 3,-15 5,-23l0 0 0 0c1,-4 2,-7 2,-11l0 0 0 0c0,-2 1,-3 1,-5l0 0 0 0c2,-6 3,-13 5,-19l0 0 0 0c1,-3 2,-6 2,-8l0 0 0 -1c0,-1 1,-3 1,-4l0 0 0 0 1 -3 0 0 0 -1c1,-3 2,-5 2,-8l0 0 0 0c2,-5 3,-10 5,-15l0 0 0 0 1 -3 0 0 0 0 1 -3 0 0 0 0 1 -3 0 0 0 -1 1 -3 0 0 0 -1c0,-1 1,-2 1,-3l0 0 0 0 1 -3 0 0 0 0c3,-8 5,-15 8,-23l0 0 0 0c1,-2 1,-4 2,-6l0 0 0 -1 1 -3 0 0 0 0c3,-7 6,-14 8,-21l0 0 0 0c2,-4 3,-7 5,-11l0 0 0 0c2,-4 3,-7 5,-11l0 0 0 0 1 -2 0 0 0 0c9,-20 19,-40 30,-59l0 0 0 0c2,-3 3,-6 5,-8l0 0 0 0c2,-3 3,-5 5,-8l0 0 0 0c4,-7 9,-15 13,-22l0 0 0 0c1,-1 1,-2 2,-4l0 0 0 0c4,-6 7,-11 11,-17l0 0 0 0 2 -4 0 0 0 0c3,-4 6,-8 8,-12l0 0 0 0c2,-3 4,-6 6,-8l0 0 0 0c3,-4 6,-9 10,-13l0 0 0 0c3,-4 6,-7 8,-11l0 0 0 0c1,-2 2,-3 4,-5l0 0 0 0 1 -1 0 0 0 0c1,-2 2,-3 4,-5l0 0 0 0c4,-5 7,-9 11,-13l0 0 0 0c2,-3 5,-6 7,-8l0 0 0 0c2,-3 5,-6 7,-8l0 0 0 0 1 -1 0 0 0 0c8,-9 17,-19 26,-28l0 0 0 0 1 -1 0 0 0 0 1 -1 0 0 0 0 1 -1 0 0 0 0 1 -1 0 0 0 0c5,-5 10,-10 14,-14l0 0 0 0 1 -1 0 0 0 0 1 -1 0 0 0 0 1 -1 0 0 0 0 1 -1 0 0 0 0c9,-9 18,-17 28,-26l0 0 0 0 1 -1 0 0 0 0c3,-2 6,-5 8,-7l0 0 0 0c3,-2 6,-5 8,-7l0 0 0 0c4,-4 9,-7 13,-11l0 0 0 0c2,-1 3,-2 5,-4l0 0 0 0 1 -1 0 0 0 0c2,-1 3,-2 5,-4l0 0 0 0c4,-3 7,-6 11,-8l0 0 0 0c4,-3 9,-6 13,-10l0 0 0 0c3,-2 6,-4 8,-6l0 0 0 0c5,-4 10,-7 16,-11l0 0 0 0c6,-4 11,-7 17,-11l0 0 0 0c1,-1 2,-1 4,-2l0 0 0 0c7,-5 14,-9 22,-13l0 0 0 0c3,-2 5,-3 8,-5l0 0 0 0c3,-2 6,-3 8,-5l0 0 0 0c19,-11 39,-21 59,-30l0 0 0 0 2 -1 0 0 0 0c4,-2 7,-3 11,-5l0 0 0 0c4,-2 7,-3 11,-5l0 0 0 0c7,-3 14,-6 21,-9l0 0 0 0 3 -1 1 0 0 0c2,-1 4,-1 6,-2l0 0 0 0c8,-3 15,-6 23,-8l0 0 0 0 3 -1 0 0 0 0c1,0 2,-1 3,-1l1 0 0 0 3 -1 1 0 0 0c1,0 2,-1 3,-1l0 0 0 0 3 -1 0 0 0 0 3 -1 0 0 0 0c5,-2 10,-3 15,-5l0 0 0 0c3,-1 5,-2 8,-2l1 0 0 0 3 -1 0 0 0 0c1,0 3,-1 4,-1l1 0 0 0c3,-1 6,-2 8,-2l0 0 0 0c6,-2 13,-3 19,-5l0 0 0 0c2,0 3,-1 5,-1l0 0 0 0c4,-1 7,-2 11,-2l0 0 0 0c8,-2 15,-3 23,-5l0 0 0 0c2,0 4,-1 6,-1l1 0 0 0c2,0 4,-1 6,-1l1 0 0 0c2,0 5,-1 7,-1l1 0 0 0c5,-1 10,-2 14,-2l0 0 0 0c6,-1 11,-2 17,-2l1 0 0 0c3,0 6,-1 9,-1l1 0 0 0c8,-1 15,-2 23,-2l2 0 0 0c4,0 8,-1 13,-1l3 0 0 0c20,-1 41,-2 62,-2l4487 0c21,0 42,1 62,2l0 0 3 0c4,0 8,1 13,1l0 0 2 0c8,1 15,1 23,2l0 0 1 0c3,0 6,1 9,1l0 0 1 0c6,1 12,2 17,2l0 0 0 0c5,1 10,2 14,2l0 0 1 0c2,0 5,1 7,1l0 0 1 0c2,0 4,1 6,1l0 0 1 0c2,0 4,1 6,1l0 0 0 0c8,2 15,3 23,5l0 0 0 0c4,1 7,2 11,2l0 0 0 0c2,0 3,1 5,1l0 0 0 0c6,2 13,3 19,5l0 0 0 0c3,1 6,2 8,2l0 0 1 0c1,0 3,1 4,1l0 0 0 0 3 1 0 0 1 0c3,1 5,2 8,2l0 0 0 0c5,2 10,3 15,5l0 0 0 0 3 1 0 0 0 0 3 1 0 0 0 0 3 1 0 0 1 0 3 1 0 0 1 0c1,0 2,1 3,1l0 0 0 0 3 1 0 0 0 0c8,3 15,6 23,8l0 0 0 0c2,1 4,1 6,2l0 0 1 0 3 1 0 0 0 0c7,3 14,6 21,9l0 0 0 0c4,2 7,3 11,5l0 0 0 0c4,2 7,3 11,5l0 0 0 0 2 1 0 0 0 0c20,9 40,19 59,30l0 0 0 0c3,2 6,3 8,5l0 0 0 0c3,2 5,3 8,5l0 0 0 0c7,4 15,9 22,13l0 0 0 0c1,1 2,1 4,2l0 0 0 0c6,4 11,7 17,11l0 0 0 0c5,4 11,7 16,11l0 0 0 0c3,2 6,4 8,6l0 0 0 0c4,3 9,6 13,10l0 0 0 0c4,3 7,6 11,8l0 0 0 0c2,1 3,2 5,4l0 0 0 0 1 1 0 0 0 0c2,1 3,2 5,4l0 0 0 0c4,4 9,7 13,11l0 0 0 0c3,2 6,5 8,7l0 0 0 0c3,2 6,5 8,7l0 0 0 0 1 1 0 0 0 0c9,8 19,17 28,26l0 0 0 0 1 1 0 0 0 0 1 1 0 0 0 0 1 1 0 0 0 0 1 1 0 0 0 0c5,5 10,10 14,14l0 0 0 0 1 1 0 0 0 0 1 1 0 0 0 0 1 1 0 0 0 0 1 1 0 0 0 0c9,9 17,18 26,28l0 0 0 0 1 1 0 0 0 0c2,3 5,6 7,8l0 0 0 0c2,3 5,6 7,8l0 0 0 0c4,4 7,9 11,13l0 0 0 0c1,2 2,3 4,5l0 0 0 0 1 1 0 0 0 0c1,2 2,3 4,5l0 0 0 0c3,4 6,7 8,11l0 0 0 0c3,4 7,9 10,13l0 0 0 0c2,3 4,6 6,8l0 0 0 0c4,5 7,10 11,16l0 0 0 0c4,6 7,11 11,17l0 0 0 0c1,1 1,2 2,4l0 0 0 0c5,7 9,14 13,22l0 0 0 0c2,3 3,5 5,8l0 0 0 0c2,3 3,6 5,8l0 0 0 0c11,19 21,39 30,59l0 0 0 0 1 2 0 0 0 0c2,4 3,7 5,11l0 0 0 0c2,4 3,7 5,11l0 0 0 0c3,7 6,14 8,21l0 0 0 0 1 3 0 1 0 0c1,2 1,4 2,6l0 0 0 0c3,8 6,15 8,23l0 0 0 0 1 3 0 0 0 0c0,1 1,2 1,3l0 1 0 0 1 3 0 1 0 0c0,1 1,2 1,3l0 0 0 0 1 3 0 0 0 0 1 3 0 0 0 0c2,5 3,10 5,15l0 0 0 0c1,3 2,5 2,8l0 1 0 0 1 3 0 0 0 0c0,1 1,3 1,4l0 1 0 0c1,3 2,6 2,8l0 0 0 0c2,6 3,13 5,19l0 0 0 0c0,2 1,3 1,5l0 0 0 0c1,3 2,7 2,11l0 0 0 0c2,8 3,15 5,23l0 0 0 0c0,2 1,4 1,6l0 1 0 0c0,2 1,4 1,6l0 1 0 0c0,2 1,5 1,7l0 1 0 0c1,5 2,10 2,14l0 0 0 0c1,6 2,11 2,17l0 1 0 0c0,3 1,6 1,9l0 1 0 0c1,8 2,15 2,23l0 2 0 0c0,4 1,8 1,13l0 3 0 0c1,20 2,41 2,62l0 4487c0,21 -1,42 -2,62l0 0 0 3c0,5 -1,9 -1,14l0 0 0 0c-1,8 -1,15 -2,23l0 0 0 1c0,3 -1,6 -1,9l0 0 0 1c0,3 -1,6 -1,9l0 0 0 0c-1,8 -2,15 -4,23l0 0 0 1c0,2 -1,4 -1,7l0 0 0 1c-1,4 -2,8 -2,13l0 0 0 0c-1,8 -3,15 -5,23l0 0 0 1c0,2 -1,4 -1,5l0 0 0 0 -1 5 0 0 0 1c0,1 -1,3 -1,4l0 0 0 1c-2,8 -4,16 -6,24l0 0 0 0c-1,3 -2,6 -2,9l0 0 0 1c-1,3 -2,5 -2,8l0 0 0 0c-4,14 -8,28 -13,41l0 0 0 0 -1 3 0 0 0 0 -1 3 0 0 0 0c-2,6 -5,13 -7,19l0 0 0 0c-1,2 -1,4 -2,6l0 0 0 0c-1,2 -2,4 -2,6l0 0 0 0 -2 6 0 0 0 0c-2,6 -5,11 -7,17l0 0 0 0c-1,3 -2,6 -4,8l0 0 0 0 -1 2 0 0 0 0c-4,9 -9,19 -13,28l0 0 0 0 -1 2 0 0 0 0 -1 2 0 0 0 0 -1 2 0 0 0 0 -1 2 0 0 0 0 -1 2 0 0 0 0 -1 2 0 0 0 0c-5,9 -10,18 -15,27l0 0 0 0c-1,2 -2,4 -3,6l0 0 0 0 -1 2 0 0 0 0c-1,2 -2,4 -4,6l0 0 0 0c-2,4 -5,8 -7,12l0 0 0 0c-2,3 -4,6 -6,10l0 0 0 0c-1,1 -1,2 -2,4l0 0 0 0c-1,1 -1,2 -2,3l0 0 0 0c-5,7 -10,14 -14,22l0 0 0 0 -2 3 0 0 0 0c-2,3 -4,6 -6,8l0 0 0 0c-4,6 -9,12 -13,18l0 0 0 0c-3,4 -6,7 -8,11l0 0 0 0c-2,2 -3,4 -5,6l0 0 0 0c-6,7 -11,14 -17,20l0 0 0 0c-2,2 -4,5 -6,7l0 0 0 0 -1 1 0 0 0 0c-7,8 -14,16 -22,24l0 0 0 0 -1 1 0 0 0 0 -1 1 0 0 0 0 -1 1 0 0 0 0c-11,11 -21,22 -33,33l0 0 0 0 -1 1 0 0 0 0 -1 1 0 0 0 0c-8,7 -16,15 -24,22l0 0 0 0 -1 1 0 0 0 0c-3,2 -6,5 -9,7l0 0 0 0c-6,5 -13,11 -19,16l0 0 0 0c-2,2 -4,3 -6,5l0 0 0 0c-4,3 -7,6 -11,8l0 0 0 0c-3,2 -6,5 -10,7l0 0 0 0c-3,2 -6,4 -8,6l0 0 0 0c-3,2 -6,4 -8,6l0 0 0 0c-9,7 -19,13 -29,19l0 0 0 0c-1,1 -2,1 -4,2l0 0 0 0c-7,5 -14,9 -22,13l0 0 0 0c-2,1 -4,2 -6,4l0 0 0 0c-3,2 -6,3 -8,5l0 0 0 0c-8,5 -16,9 -24,13l0 0 0 0 -2 1 0 0 0 0 -2 1 0 0 0 0 -2 1 0 0 0 0 -2 1 0 0 0 0 -2 1 0 0 0 0c-6,3 -13,6 -19,10l0 0 0 0c-4,2 -9,4 -13,6l0 0 0 0 -2 1 0 0 0 0c-4,2 -7,3 -11,5l0 0 0 0c-7,3 -13,6 -20,9l0 0 0 0c-2,1 -4,2 -6,2l-1 0 0 0c-2,1 -4,1 -6,2l0 0 0 0c-5,2 -11,4 -16,6 -1,0 -2,1 -3,1l0 0 0 0c-13,5 -27,9 -40,13 -3,1 -5,2 -8,2l0 0 0 0c-3,1 -5,2 -8,2l-1 0 0 0c-3,1 -6,2 -8,2l0 0 0 0c-8,2 -16,4 -24,6l-1 0 0 0c-1,0 -3,1 -4,1l-1 0 0 0 -5 1 0 0 0 0c-4,1 -7,2 -11,2l0 0 0 0c-6,1 -12,2 -18,4l0 0 0 0c-2,0 -4,1 -6,1l0 0 0 0c-2,0 -4,1 -6,1l-1 0 0 0c-2,0 -4,1 -6,1l-1 0 0 0c-8,1 -15,2 -23,4l0 0 0 0c-3,0 -6,1 -8,1l-1 0 0 0c-3,0 -6,1 -9,1l-1 0 0 0c-8,1 -15,2 -23,2l0 0 0 0c-5,0 -9,1 -14,1l-3 0 0 0c-21,1 -41,2 -62,2l-4487 0c-21,0 -42,-1 -62,-2z"/>
   <g>
    <g>
     <path class="fil3" d="M4581 3946l-2788 0c-33,0 -59,-27 -59,-59 0,-33 27,-59 59,-59l2729 0 0 -1909 -2864 0 0 1789c0,33 -27,59 -59,59 -33,0 -59,-27 -59,-59l0 -1850c0,-33 27,-59 59,-59l2982 0c33,0 59,27 59,59l0 2028c1,34 -26,60 -59,60z"/>
     <path class="fil3" d="M2994 1799l238 0 0 -253 -238 0 0 253zm299 120l-358 0c-33,0 -59,-27 -59,-59l0 -374c0,-33 27,-59 59,-59l358 0c33,0 59,27 59,59l0 373c0,34 -27,60 -59,60z"/>
     <path class="fil3" d="M2218 4051l1790 0 0 -105 -1790 0 0 105zm1850 119l-1909 0c-33,0 -59,-27 -59,-59l0 -224c0,-33 27,-59 59,-59l1909 0c33,0 59,27 59,59l0 224c0,33 -27,59 -59,59z"/>
     <path class="fil3" d="M2106 5244c-42,0 -83,-11 -120,-33 -114,-66 -152,-213 -86,-326l469 -804c17,-29 53,-38 81,-22 29,17 39,53 22,81l-469 804c-16,28 -21,59 -12,90 8,31 28,56 55,72 28,16 59,21 90,12 31,-8 56,-28 72,-55l541 -928c7,-12 12,-25 14,-38 6,-33 38,-53 69,-47 33,6 53,38 47,69 -5,27 -15,52 -29,76l-539 930c-32,55 -84,94 -145,111 -21,5 -42,8 -61,8z"/>
     <path class="fil3" d="M4122 5244c-21,0 -41,-3 -61,-8 -61,-16 -113,-55 -145,-111l-541 -928c-14,-24 -24,-49 -29,-76 -6,-33 15,-63 47,-69 33,-6 63,15 69,47 3,13 7,26 14,39l541 928c16,28 42,47 72,55 31,8 63,4 90,-12 28,-16 47,-42 55,-72 8,-31 4,-63 -12,-91l-469 -804c-17,-29 -7,-65 22,-81 29,-17 65,-7 81,22l469 804c66,114 28,260 -86,326 -35,20 -75,31 -118,31z"/>
     <path class="fil3" d="M2754 2689c-138,34 -282,80 -321,120 -70,70 -70,183 0,253 33,33 87,50 143,47 46,-3 87,-19 105,-43l0 0c10,-13 11,-26 8,-69 -2,-37 -5,-81 5,-139 10,-58 31,-115 60,-169zm-192 540c-83,0 -160,-30 -214,-83 -117,-117 -117,-306 0,-421 101,-101 466,-172 538,-185 26,-5 50,8 63,31 12,23 9,50 -9,69 -71,75 -115,155 -129,239 -8,45 -5,80 -3,112 3,49 6,101 -33,150l0 0c-40,49 -111,83 -192,87 -9,1 -16,1 -23,1z"/>
     <path class="fil3" d="M1462 4211c-47,0 -93,-19 -127,-52 -70,-70 -70,-183 0,-253l949 -949c24,-24 61,-24 84,0 24,24 24,61 0,84l-949 949c-24,24 -24,61 0,84 11,11 27,18 43,18 16,0 31,-6 43,-18l955 -955c24,-24 61,-24 84,0 24,24 24,61 0,84l-955 955c-34,35 -78,53 -127,53z"/>
     <path class="fil3" d="M3097 3518l870 53 212 -364 -164 -609 -724 -444 -138 102 512 312c18,11 29,30 29,51l0 477c0,25 -15,46 -38,55l-559 224 0 143zm903 175c-1,0 -2,0 -4,0l-962 -59c-32,-2 -56,-28 -56,-59l0 -239c0,-25 15,-46 38,-55l559 -224 0 -404 -560 -340c-17,-10 -28,-29 -29,-48 -1,-20 8,-39 24,-50l241 -179c20,-15 46,-16 66,-3l778 477c13,8 23,21 27,36l177 656c4,16 2,32 -6,46l-242 417c-9,19 -29,31 -50,31z"/>
    </g>
    <g>
     <path class="fil3" d="M2258 1076c-120,0 -218,98 -218,218 0,119 98,218 218,218 119,0 218,-98 218,-218 0,-120 -91,-218 -218,-218zm0 527c-169,0 -309,-141 -309,-309 0,-169 141,-309 309,-309 169,0 309,141 309,309 0,169 -141,309 -309,309z"/>
     <path class="fil3" d="M1505 1435c16,41 0,83 -41,99 -41,16 -83,0 -99,-41 -16,-41 0,-82 41,-99 33,-16 82,0 99,41z"/>
     <path class="fil3" d="M4848 4217c-89,0 -163,74 -163,163 0,89 74,163 163,163 89,0 163,-74 163,-163 0,-89 -68,-163 -163,-163zm0 395c-126,0 -232,-105 -232,-231 0,-126 105,-232 232,-232 126,0 232,105 232,232 0,126 -105,231 -232,231z"/>
     <path class="fil3" d="M5039 3655c16,41 0,83 -41,99 -41,16 -83,0 -99,-41 -16,-41 0,-82 41,-99 33,-16 82,0 99,41z"/>
     <path class="fil3" d="M1295 2282c16,41 0,83 -41,99 -41,16 -83,0 -99,-41 -16,-41 0,-82 41,-99 33,-16 82,0 99,41z"/>
    </g>
   </g>
  </g>
 </g>
</svg>
