<?xml version="1.0" encoding="UTF-8"?>
<!DOCTYPE svg PUBLIC "-//W3C//DTD SVG 1.1//EN" "http://www.w3.org/Graphics/SVG/1.1/DTD/svg11.dtd">
<!-- Creator: CorelDRAW -->
<svg xmlns="http://www.w3.org/2000/svg" xml:space="preserve" width="25.4mm" height="25.4mm" version="1.1" style="shape-rendering:geometricPrecision; text-rendering:geometricPrecision; image-rendering:optimizeQuality; fill-rule:evenodd; clip-rule:evenodd"
viewBox="0 0 825.69 825.69"
 xmlns:xlink="http://www.w3.org/1999/xlink"
 xmlns:xodm="http://www.corel.com/coreldraw/odm/2003">
 <defs>
  <style type="text/css">
   <![CDATA[
    .fil2 {fill:none}
    .fil0 {fill:#D9DADA}
    .fil4 {fill:#898989}
    .fil1 {fill:#E31E24}
    .fil3 {fill:#9D9E9E;fill-rule:nonzero}
   ]]>
  </style>
   <clipPath id="id0">
    <path d="M107.25 825.4l0 -0.03 -0.43 0c-0.56,-0.04 -1.11,-0.09 -1.67,-0.14l0 -0.02 -0.2 0c-1.01,-0.09 -2.02,-0.2 -3.02,-0.32l0 -0.01 -0.08 0c-0.4,-0.05 -0.81,-0.09 -1.21,-0.14l0 -0.02 -0.13 0c-0.76,-0.1 -1.53,-0.21 -2.29,-0.32l0 0 -0.01 0c-0.64,-0.1 -1.28,-0.2 -1.92,-0.31l0 -0.01 -0.07 0c-0.3,-0.05 -0.6,-0.1 -0.9,-0.15l0 -0.01 -0.07 0c-0.24,-0.04 -0.49,-0.09 -0.73,-0.14l0 -0.03 -0.13 0c-0.28,-0.05 -0.56,-0.11 -0.84,-0.16l0 0 -0 0c-1.03,-0.2 -2.04,-0.41 -3.06,-0.63l0 -0.01 -0.06 0c-0.46,-0.1 -0.93,-0.2 -1.39,-0.32l0 -0.01 -0.03 0c-0.2,-0.05 -0.41,-0.1 -0.61,-0.15l0 -0.01 -0.05 0c-0.85,-0.2 -1.69,-0.42 -2.53,-0.64l0 -0 -0.01 0c-0.37,-0.1 -0.75,-0.2 -1.12,-0.3l0 -0.02 -0.07 0c-0.19,-0.05 -0.38,-0.1 -0.57,-0.16l0 -0.01 -0.03 0 -0.46 -0.13 0 -0.03 -0.09 0c-0.35,-0.1 -0.69,-0.21 -1.04,-0.31l0 -0.01 -0.05 0c-0.69,-0.2 -1.37,-0.42 -2.05,-0.63l0 -0.01 -0.03 0 -0.45 -0.15 0 -0.02 -0.05 0 -0.44 -0.14 0 -0.02 -0.06 0 -0.43 -0.14 0 -0.02 -0.07 0 -0.42 -0.14 0 -0.03 -0.07 0c-0.14,-0.05 -0.28,-0.1 -0.41,-0.15l0 -0.01 -0.04 0 -0.44 -0.16 0 -0.01 -0.02 0c-1.02,-0.36 -2.04,-0.73 -3.05,-1.12l0 -0.01 -0.04 0c-0.26,-0.1 -0.51,-0.2 -0.77,-0.29l0 -0.03 -0.07 0 -0.41 -0.16 0 -0 -0.01 0c-0.92,-0.36 -1.83,-0.74 -2.73,-1.12l0 -0 -0.01 0c-0.48,-0.2 -0.97,-0.42 -1.44,-0.63l0 -0.01 -0.03 0c-0.48,-0.21 -0.95,-0.43 -1.42,-0.64l0 -0.01 -0.01 0 -0.31 -0.15 0 -0.02 -0.04 0c-2.68,-1.24 -5.3,-2.58 -7.87,-4.02l0 -0.01 -0.02 0c-0.37,-0.21 -0.74,-0.41 -1.11,-0.62l0 -0.02 -0.05 0c-0.36,-0.21 -0.72,-0.43 -1.09,-0.64l0 -0 -0 0c-0.98,-0.58 -1.94,-1.16 -2.9,-1.77l0 -0.01 -0.01 0c-0.16,-0.1 -0.32,-0.2 -0.47,-0.3l0 -0.03 -0.05 0c-0.74,-0.47 -1.48,-0.96 -2.21,-1.45l0 0 0 0 -0.48 -0.32c-0.54,-0.37 -1.08,-0.74 -1.61,-1.12l0 -0.01 -0.01 0c-0.37,-0.26 -0.74,-0.53 -1.12,-0.79l0 -0.01 -0.02 0c-0.59,-0.42 -1.18,-0.85 -1.76,-1.29l0 0 -0 0c-0.49,-0.37 -0.97,-0.74 -1.45,-1.11l0 -0.02 -0.03 0c-0.2,-0.16 -0.42,-0.32 -0.62,-0.47l0 -0.01 -0.01 0 -0.15 -0.12 0 -0.04 -0.05 0c-0.2,-0.16 -0.4,-0.32 -0.6,-0.48l0 -0 -0 0c-0.59,-0.48 -1.18,-0.96 -1.77,-1.44l0 -0.01 -0.01 0c-0.38,-0.32 -0.75,-0.63 -1.12,-0.95l0 -0.02 -0.02 0c-0.37,-0.32 -0.74,-0.64 -1.11,-0.96l0 -0.01 -0.01 0 -0.15 -0.13 0 -0.03 -0.03 0c-1.25,-1.11 -2.48,-2.23 -3.68,-3.39l0 0 0 0 -0.16 -0.16 0 -0.01 -0.01 0 -0.16 -0.15 0 -0.01 -0.01 0 -0.15 -0.15 0 -0.01 -0.02 0 -0.15 -0.14 0 -0.02 -0.02 0c-0.65,-0.63 -1.28,-1.27 -1.91,-1.91l0 -0.02 -0.02 0 -0.14 -0.15 0 -0.02 -0.01 0 -0.15 -0.15 0 -0.01 -0.01 0 -0.15 -0.16 0 -0.01 -0.01 0 -0.16 -0.16 0 0 0 0c-1.16,-1.2 -2.28,-2.43 -3.39,-3.68l0 -0.03 -0.03 0 -0.13 -0.15 0 -0.01 -0.01 0c-0.32,-0.37 -0.64,-0.73 -0.96,-1.11l0 -0.02 -0.02 0c-0.32,-0.37 -0.63,-0.74 -0.95,-1.12l0 -0.01 -0.01 0c-0.49,-0.58 -0.97,-1.18 -1.44,-1.77l0 -0 -0 0c-0.16,-0.2 -0.32,-0.4 -0.48,-0.6l0 -0.05 -0.04 0 -0.12 -0.15 0 -0.01 -0.01 0c-0.16,-0.2 -0.32,-0.42 -0.47,-0.62l0 -0.03 -0.02 0c-0.37,-0.48 -0.74,-0.96 -1.11,-1.45l0 -0 0 0c-0.44,-0.58 -0.86,-1.17 -1.29,-1.76l0 -0.02 -0.01 0c-0.27,-0.37 -0.53,-0.74 -0.79,-1.12l0 -0.01 -0.01 0c-0.37,-0.54 -0.75,-1.07 -1.12,-1.61 -0.11,-0.16 -0.21,-0.32 -0.32,-0.48l0 0 0 0c-0.49,-0.73 -0.98,-1.47 -1.45,-2.21l0 -0.05 -0.03 0c-0.1,-0.16 -0.2,-0.32 -0.3,-0.47l0 -0.01 -0.01 0c-0.6,-0.96 -1.19,-1.92 -1.77,-2.9l0 -0.01 -0 0c-0.21,-0.36 -0.43,-0.72 -0.64,-1.08l0 -0.05 -0.02 0c-0.21,-0.37 -0.42,-0.74 -0.62,-1.11l0 -0.02 -0.01 0c-1.44,-2.56 -2.78,-5.19 -4.02,-7.87l0 -0.04 -0.01 0 -0.15 -0.31 0 -0.01 -0.01 0c-0.21,-0.47 -0.43,-0.95 -0.64,-1.42l0 -0.03 -0.01 0c-0.21,-0.48 -0.43,-0.96 -0.63,-1.44l0 -0.01 -0 0c-0.39,-0.91 -0.76,-1.82 -1.12,-2.73l0 -0.01 -0 0 -0.16 -0.41 0 -0.07 -0.03 0c-0.1,-0.26 -0.2,-0.51 -0.29,-0.77l0 -0.04 -0.01 0c-0.39,-1.01 -0.76,-2.03 -1.12,-3.05l0 -0.02 -0.01 0 -0.16 -0.44 0 -0.04 -0.01 0c-0.05,-0.14 -0.1,-0.27 -0.15,-0.41l0 -0.07 -0.03 0 -0.14 -0.41 0 -0.07 -0.02 0c-0.05,-0.14 -0.09,-0.29 -0.14,-0.43l0 -0.06 -0.02 0 -0.14 -0.44 0 -0.05 -0.02 0 -0.15 -0.45 0 -0.03 -0.01 0c-0.22,-0.68 -0.43,-1.37 -0.63,-2.05l0 -0.05 -0.02 0c-0.1,-0.34 -0.21,-0.69 -0.31,-1.04l0 -0.09 -0.03 0 -0.13 -0.46 0 -0.02 -0.01 0c-0.06,-0.19 -0.1,-0.38 -0.16,-0.57l0 -0.07 -0.02 0c-0.1,-0.37 -0.2,-0.74 -0.3,-1.12l0 -0.01 -0 0c-0.22,-0.84 -0.44,-1.68 -0.64,-2.53l0 -0.05 -0.01 0c-0.05,-0.2 -0.1,-0.41 -0.15,-0.61l0 -0.03 -0.01 0c-0.11,-0.46 -0.21,-0.93 -0.32,-1.39l0 -0.06 -0.01 0c-0.22,-1.01 -0.44,-2.04 -0.63,-3.06l0 -0 0 0c-0.06,-0.28 -0.11,-0.56 -0.16,-0.84l0 -0.13 -0.03 0c-0.05,-0.25 -0.09,-0.49 -0.14,-0.73l0 -0.07 -0.01 0c-0.05,-0.3 -0.1,-0.6 -0.15,-0.9l0 -0.07 -0.01 0c-0.11,-0.64 -0.21,-1.28 -0.31,-1.92l0 -0.01 0 0c-0.12,-0.76 -0.22,-1.52 -0.32,-2.29l0 -0.13 -0.02 0c-0.05,-0.4 -0.09,-0.81 -0.14,-1.21l0 -0.08 -0.01 0c-0.12,-1 -0.22,-2.01 -0.32,-3.02l0 -0.2 -0.02 0c-0.05,-0.56 -0.1,-1.11 -0.14,-1.67l0 -0.43 -0.03 0c-0.2,-2.71 -0.3,-5.46 -0.3,-8.22l0 -594.76c0,-2.77 0.1,-5.51 0.3,-8.22l0.03 0 0 -0.43c0.04,-0.56 0.09,-1.11 0.14,-1.67l0.02 0 0 -0.2c0.09,-1.01 0.2,-2.02 0.32,-3.02l0.01 0 0 -0.08c0.05,-0.4 0.09,-0.81 0.14,-1.21l0.02 0 0 -0.13c0.1,-0.76 0.2,-1.53 0.32,-2.29l0 0 0 -0.01c0.1,-0.64 0.2,-1.28 0.31,-1.92l0.01 0 0 -0.07c0.05,-0.3 0.1,-0.6 0.15,-0.9l0.01 0 0 -0.07c0.04,-0.24 0.09,-0.49 0.14,-0.73l0.03 0 0 -0.13c0.05,-0.28 0.1,-0.56 0.16,-0.84l0 0 0 -0c0.2,-1.02 0.41,-2.04 0.63,-3.06l0.01 0 0 -0.05c0.1,-0.47 0.2,-0.93 0.32,-1.4l0.01 0 0 -0.03c0.05,-0.2 0.1,-0.41 0.15,-0.61l0.01 0 0 -0.05c0.2,-0.85 0.42,-1.69 0.64,-2.53l0 0 0 -0.01c0.1,-0.37 0.2,-0.74 0.3,-1.12l0.02 0 0 -0.07c0.05,-0.19 0.1,-0.38 0.16,-0.57l0.01 0 0 -0.02 0.13 -0.46 0.03 0 0 -0.09c0.1,-0.35 0.21,-0.69 0.31,-1.04l0.02 0 0 -0.05c0.2,-0.69 0.42,-1.37 0.63,-2.05l0.01 0 0 -0.03 0.15 -0.45 0.02 0 0 -0.05 0.14 -0.44 0.02 0 0 -0.06 0.14 -0.43 0.02 0 0 -0.07 0.14 -0.41 0.03 0 0 -0.07c0.05,-0.14 0.1,-0.28 0.15,-0.41l0.01 0 0 -0.04 0.16 -0.44 0.01 0 0 -0.02c0.36,-1.02 0.73,-2.04 1.12,-3.05l0.01 0 0 -0.03c0.1,-0.26 0.2,-0.52 0.29,-0.77l0.03 0 0 -0.07 0.16 -0.41 0 0 0 -0.01c0.36,-0.92 0.74,-1.83 1.12,-2.73l0 0 0 -0.01c0.2,-0.48 0.42,-0.96 0.63,-1.44l0.01 0 0 -0.03c0.21,-0.47 0.42,-0.95 0.64,-1.42l0.01 0 0 -0.01 0.15 -0.31 0.01 0 0 -0.03c1.25,-2.68 2.58,-5.31 4.02,-7.87l0.01 0 0 -0.02c0.21,-0.37 0.41,-0.74 0.62,-1.11l0.03 0 0 -0.05c0.21,-0.36 0.43,-0.72 0.64,-1.08l0 0 0 -0.01c0.58,-0.98 1.16,-1.94 1.77,-2.9l0.01 0 0 -0.01c0.1,-0.16 0.2,-0.32 0.3,-0.47l0.03 0 0 -0.05c0.47,-0.74 0.96,-1.48 1.45,-2.21l0 0 0 0 0.32 -0.48 0 0 0 -0c0.37,-0.54 0.74,-1.08 1.12,-1.61l0.01 0 0 -0.01c0.26,-0.37 0.53,-0.74 0.79,-1.12l0.01 0 0 -0.02c0.42,-0.59 0.85,-1.18 1.29,-1.76l0 0 0 -0c0.37,-0.48 0.74,-0.97 1.11,-1.45l0.02 0 0 -0.03c0.16,-0.2 0.32,-0.41 0.47,-0.62l0.01 0 0 -0.01 0.12 -0.15 0.04 0 0 -0.05c0.16,-0.2 0.32,-0.4 0.48,-0.59l0 0 0 -0c0.48,-0.59 0.96,-1.19 1.44,-1.77l0.01 0 0 -0.01c0.32,-0.37 0.63,-0.75 0.95,-1.12l0.02 0 0 -0.03c0.32,-0.37 0.64,-0.74 0.96,-1.11l0.01 0 0 -0.01 0.13 -0.15 0.03 0 0 -0.03c1.11,-1.25 2.23,-2.48 3.39,-3.68l0 0 0 -0 0.16 -0.16 0.01 0 0 -0.01 0.15 -0.16 0.01 0 0 -0.01 0.15 -0.15 0.01 0 0 -0.01 0.14 -0.15 0.02 0 0 -0.02c0.63,-0.65 1.27,-1.29 1.92,-1.92l0.02 0 0 -0.02 0.15 -0.15 0.02 0 0 -0.01 0.15 -0.15 0.01 0 0 -0.01 0.16 -0.15 0.01 0 0 -0.01 0.16 -0.16 0 0 0 0c1.2,-1.16 2.43,-2.28 3.68,-3.38l0.03 0 0 -0.03 0.15 -0.14 0.01 0 0 -0.01c0.37,-0.32 0.73,-0.64 1.11,-0.96l0.02 0 0 -0.02c0.37,-0.32 0.74,-0.63 1.12,-0.95l0.01 0 0 -0.01c0.58,-0.49 1.17,-0.97 1.77,-1.45l0 0 0 0c0.2,-0.16 0.4,-0.33 0.6,-0.48l0.05 0 0 -0.04 0.15 -0.12 0.01 0 0 -0.01c0.2,-0.16 0.42,-0.32 0.62,-0.48l0.03 0 0 -0.02c0.48,-0.37 0.96,-0.74 1.45,-1.11l0 0 0 -0c0.58,-0.44 1.17,-0.86 1.76,-1.29l0.02 0 0 -0.01c0.37,-0.27 0.74,-0.53 1.12,-0.79l0.01 0 0 -0.01c0.69,-0.49 1.39,-0.97 2.1,-1.44l0 0 0 0c0.73,-0.49 1.47,-0.98 2.21,-1.45l0.05 0 0 -0.03c0.16,-0.1 0.32,-0.2 0.47,-0.29l0.01 0 0 -0.01c0.96,-0.6 1.92,-1.19 2.9,-1.77l0 0 0 -0c0.36,-0.21 0.72,-0.43 1.09,-0.64l0.05 0 0 -0.03c0.36,-0.21 0.74,-0.41 1.11,-0.62l0.02 0 0 -0.01c2.56,-1.44 5.19,-2.78 7.87,-4.02l0.04 0 0 -0.02 0.31 -0.15 0.01 0 0 -0c0.47,-0.22 0.95,-0.43 1.42,-0.64l0.03 0 0 -0.01c0.48,-0.21 0.96,-0.43 1.44,-0.63l0.01 0 0 -0c0.91,-0.39 1.82,-0.76 2.73,-1.12l0.01 0 0 -0 0.41 -0.16 0.07 0 0 -0.03c0.26,-0.1 0.52,-0.2 0.77,-0.3l0.03 0 0 -0.01c1.01,-0.39 2.03,-0.76 3.05,-1.12l0.02 0 0 -0.01 0.44 -0.16 0.04 0 0 -0.01c0.14,-0.05 0.28,-0.1 0.42,-0.15l0.07 0 0 -0.03 0.42 -0.14 0.07 0 0 -0.02c0.14,-0.05 0.29,-0.09 0.43,-0.14l0.06 0 0 -0.02 0.44 -0.14 0.05 0 0 -0.02 0.45 -0.15 0.03 0 0 -0.01c0.68,-0.22 1.37,-0.43 2.05,-0.63l0.05 0 0 -0.01c0.34,-0.1 0.69,-0.21 1.04,-0.31l0.09 0 0 -0.03 0.46 -0.13 0.03 0 0 -0.01c0.19,-0.06 0.38,-0.1 0.57,-0.16l0.07 0 0 -0.02c0.37,-0.1 0.74,-0.2 1.12,-0.3l0.01 0 0 -0c0.84,-0.22 1.68,-0.44 2.53,-0.64l0.05 0 0 -0.01c0.2,-0.05 0.41,-0.1 0.61,-0.15l0.03 0 0 -0.01c0.46,-0.11 0.93,-0.21 1.39,-0.32l0.06 0 0 -0.01c1.01,-0.22 2.03,-0.44 3.06,-0.63l0 0 0 -0c0.28,-0.05 0.56,-0.11 0.84,-0.16l0.13 0 0 -0.03c0.25,-0.05 0.49,-0.09 0.74,-0.14l0.07 0 0 -0.01c0.3,-0.06 0.6,-0.1 0.9,-0.15l0.07 0 0 -0.01c0.64,-0.11 1.28,-0.21 1.92,-0.31l0.01 0 0 0c0.76,-0.11 1.52,-0.22 2.29,-0.32l0.13 0 0 -0.02c0.4,-0.05 0.81,-0.1 1.21,-0.14l0.08 0 0 -0.01c1,-0.12 2.01,-0.22 3.02,-0.32l0.2 0 0 -0.02c0.56,-0.05 1.12,-0.1 1.67,-0.14l0.42 0 0 -0.03c2.71,-0.2 5.46,-0.3 8.22,-0.3l594.76 0c2.77,0 5.51,0.1 8.22,0.3l0 0.03 0.42 0c0.56,0.04 1.12,0.09 1.68,0.14l0 0.02 0.2 0c1.01,0.09 2.02,0.2 3.02,0.32l0 0.01 0.08 0c0.4,0.05 0.81,0.09 1.21,0.14l0 0.02 0.13 0c0.76,0.1 1.53,0.21 2.29,0.32l0 0 0.01 0c0.64,0.1 1.28,0.2 1.92,0.31l0 0.01 0.07 0c0.3,0.05 0.6,0.09 0.9,0.15l0 0.01 0.07 0c0.24,0.05 0.49,0.09 0.73,0.14l0 0.03 0.13 0c0.28,0.05 0.56,0.11 0.84,0.16l0 0 0 0c1.02,0.2 2.04,0.41 3.06,0.63l0 0.01 0.06 0c0.47,0.1 0.93,0.2 1.4,0.32l0 0.01 0.03 0c0.2,0.05 0.41,0.1 0.61,0.15l0 0.01 0.05 0c0.85,0.2 1.69,0.42 2.54,0.64l0 0 0.01 0c0.37,0.1 0.75,0.2 1.12,0.3l0 0.02 0.07 0c0.19,0.06 0.38,0.1 0.57,0.16l0 0.01 0.02 0 0.46 0.13 0 0.03 0.09 0c0.35,0.1 0.69,0.2 1.04,0.31l0 0.01 0.05 0c0.69,0.2 1.37,0.42 2.05,0.63l0 0.01 0.03 0 0.45 0.15 0 0.02 0.04 0 0.44 0.14 0 0.02 0.06 0 0.43 0.14 0 0.02 0.07 0 0.41 0.14 0 0.03 0.07 0c0.14,0.05 0.28,0.1 0.42,0.15l0 0.01 0.04 0 0.44 0.16 0 0.01 0.02 0c1.02,0.36 2.04,0.73 3.05,1.12l0 0.01 0.04 0c0.26,0.1 0.52,0.2 0.77,0.3l0 0.03 0.08 0 0.41 0.16 0 0 0.01 0c0.92,0.36 1.83,0.74 2.73,1.12l0 0 0.01 0c0.48,0.21 0.96,0.42 1.44,0.63l0 0.01 0.03 0c0.47,0.21 0.95,0.42 1.42,0.64l0 0.01 0.01 0 0.31 0.15 0 0.02 0.03 0c2.68,1.24 5.31,2.58 7.87,4.02l0 0.01 0.02 0c0.37,0.21 0.74,0.41 1.11,0.62l0 0.03 0.05 0c0.36,0.21 0.72,0.43 1.08,0.64l0 0 0.01 0c0.98,0.58 1.94,1.16 2.9,1.77l0 0.01 0.01 0c0.16,0.1 0.32,0.2 0.47,0.29l0 0.03 0.04 0c0.74,0.47 1.48,0.96 2.22,1.45l0 0 0 0c0.71,0.47 1.4,0.96 2.09,1.44l0 0.01 0.02 0c0.37,0.26 0.74,0.53 1.12,0.79l0 0.01 0.02 0c0.59,0.43 1.18,0.85 1.76,1.29l0 0 0.01 0c0.48,0.36 0.97,0.74 1.45,1.11l0 0.02 0.02 0c0.21,0.16 0.42,0.32 0.62,0.48l0 0.01 0.01 0 0.15 0.12 0 0.04 0.05 0c0.2,0.16 0.4,0.32 0.59,0.48l0 0 0 0c0.59,0.48 1.19,0.96 1.77,1.45l0 0.01 0.01 0c0.37,0.31 0.75,0.63 1.12,0.95l0 0.02 0.03 0c0.37,0.32 0.74,0.64 1.11,0.96l0 0.01 0.01 0 0.15 0.14 0 0.03 0.03 0c1.25,1.1 2.48,2.23 3.68,3.38l0 0 0 0 0.16 0.16 0 0.01 0.01 0 0.16 0.15 0 0.01 0.01 0 0.15 0.15 0 0.01 0.01 0 0.15 0.15 0 0.02 0.02 0c0.65,0.63 1.29,1.27 1.92,1.92l0 0.02 0.02 0 0.15 0.15 0 0.01 0.01 0 0.15 0.15 0 0.01 0.01 0 0.15 0.16 0 0.01 0.01 0 0.15 0.16 0 0 0 0c1.15,1.2 2.28,2.43 3.38,3.68l0 0.03 0.03 0 0.14 0.15 0 0.01 0.01 0c0.32,0.37 0.64,0.73 0.96,1.11l0 0.03 0.02 0c0.32,0.37 0.63,0.74 0.95,1.12l0 0.01 0.01 0c0.49,0.59 0.97,1.18 1.45,1.77l0 0 0 0c0.16,0.2 0.33,0.4 0.48,0.59l0 0.05 0.04 0 0.12 0.15 0 0.01 0.01 0c0.16,0.2 0.32,0.41 0.48,0.62l0 0.02 0.02 0c0.37,0.48 0.74,0.96 1.11,1.45l0 0 0 0c0.44,0.58 0.86,1.17 1.29,1.76l0 0.02 0.01 0c0.27,0.37 0.53,0.74 0.79,1.12l0 0.01 0.01 0c0.49,0.7 0.97,1.39 1.44,2.1l0 0 0 0c0.49,0.73 0.98,1.47 1.45,2.21l0 0.05 0.03 0c0.1,0.16 0.2,0.32 0.3,0.47l0 0.01 0.01 0c0.6,0.96 1.19,1.92 1.77,2.9l0 0.01 0 0c0.21,0.36 0.43,0.72 0.64,1.08l0 0.05 0.03 0c0.21,0.37 0.41,0.74 0.62,1.11l0 0.02 0.01 0c1.44,2.56 2.78,5.19 4.02,7.87l0 0.03 0.02 0 0.15 0.31 0 0.01 0 0c0.22,0.47 0.43,0.95 0.64,1.42l0 0.03 0.01 0c0.21,0.48 0.43,0.96 0.63,1.44l0 0.01 0 0c0.38,0.91 0.76,1.82 1.12,2.73l0 0.01 0 0 0.16 0.41 0 0.07 0.03 0c0.1,0.26 0.2,0.52 0.3,0.77l0 0.03 0.01 0c0.38,1.01 0.76,2.03 1.12,3.05l0 0.02 0.01 0 0.16 0.44 0 0.04 0.01 0c0.05,0.14 0.1,0.28 0.15,0.42l0 0.07 0.03 0 0.14 0.41 0 0.07 0.02 0c0.05,0.14 0.09,0.28 0.14,0.43l0 0.06 0.02 0 0.14 0.44 0 0.05 0.01 0 0.15 0.45 0 0.03 0.01 0c0.22,0.68 0.43,1.37 0.63,2.05l0 0.05 0.01 0c0.1,0.34 0.21,0.69 0.31,1.04l0 0.09 0.03 0 0.13 0.46 0 0.02 0.01 0c0.05,0.19 0.1,0.38 0.15,0.57l0 0.07 0.02 0c0.1,0.37 0.2,0.75 0.3,1.12l0 0.01 0 0c0.22,0.84 0.44,1.69 0.64,2.54l0 0.05 0.01 0c0.05,0.2 0.1,0.41 0.15,0.61l0 0.03 0.01 0c0.11,0.46 0.21,0.93 0.32,1.4l0 0.05 0.01 0c0.22,1.02 0.43,2.04 0.63,3.06l0 0 0 0c0.05,0.28 0.11,0.56 0.16,0.84l0 0.13 0.03 0c0.05,0.24 0.09,0.49 0.14,0.73l0 0.07 0.01 0c0.05,0.3 0.1,0.6 0.15,0.9l0 0.07 0.01 0c0.11,0.64 0.21,1.28 0.31,1.92l0 0.01 0 0c0.11,0.76 0.22,1.52 0.32,2.29l0 0.13 0.02 0c0.05,0.4 0.09,0.81 0.14,1.21l0 0.08 0.01 0c0.12,1 0.22,2.01 0.31,3.02l0 0.2 0.02 0c0.05,0.56 0.1,1.12 0.14,1.68l0 0.42 0.03 0c0.2,2.72 0.3,5.46 0.3,8.22l0 594.76c0,2.77 -0.1,5.51 -0.29,8.22l-0.03 0 0 0.44c-0.05,0.61 -0.1,1.22 -0.16,1.82l-0.01 0 0 0.06c-0.09,1.01 -0.2,2.01 -0.31,3.01l-0.01 0 0 0.1c-0.05,0.4 -0.09,0.8 -0.14,1.19l-0.02 0 0 0.15c-0.05,0.38 -0.11,0.76 -0.16,1.14l-0 0 0 0.01c-0.14,1.02 -0.3,2.04 -0.47,3.05l-0.02 0 0 0.09c-0.05,0.29 -0.09,0.58 -0.14,0.87l-0.02 0 0 0.1c-0.1,0.56 -0.21,1.12 -0.32,1.67l-0.01 0 0 0.03c-0.2,1.02 -0.4,2.03 -0.62,3.03l-0.02 0 0 0.09c-0.05,0.24 -0.1,0.48 -0.16,0.72l-0.01 0 0 0.02 -0.14 0.62 -0.02 0 0 0.07c-0.05,0.19 -0.09,0.38 -0.14,0.58l-0.02 0 0 0.08c-0.25,1.05 -0.52,2.1 -0.81,3.14l0 0 0 0c-0.1,0.38 -0.2,0.75 -0.31,1.13l-0.02 0 0 0.07c-0.1,0.36 -0.21,0.71 -0.32,1.06l-0.01 0 0 0.03c-0.54,1.84 -1.12,3.66 -1.75,5.45l-0.02 0 0 0.07 -0.15 0.42 -0.01 0 0 0.04 -0.16 0.45 -0 0 0 0.01c-0.31,0.86 -0.63,1.72 -0.96,2.57l-0.01 0 0 0.03c-0.1,0.26 -0.2,0.52 -0.3,0.78l-0.02 0 0 0.06c-0.1,0.25 -0.2,0.5 -0.31,0.75l-0.02 0 0 0.04 -0.31 0.77 -0.01 0 0 0.02c-0.31,0.75 -0.62,1.49 -0.95,2.23l-0.02 0 0 0.04c-0.16,0.36 -0.32,0.73 -0.48,1.09l-0.01 0 0 0.02 -0.14 0.31 -0.02 0 0 0.04c-0.56,1.24 -1.15,2.45 -1.75,3.67l-0.02 0 0 0.04 -0.14 0.28 -0.02 0 0 0.05 -0.14 0.28 -0.03 0 0 0.05 -0.13 0.27 -0.03 0 0 0.05 -0.14 0.27 -0.02 0 0 0.04 -0.15 0.29 -0.01 0 0 0.02 -0.16 0.3 -0 0 0 0.01c-0.62,1.19 -1.26,2.37 -1.93,3.54l-0.01 0 0 0.02c-0.15,0.26 -0.3,0.53 -0.46,0.79l-0.03 0 0 0.05 -0.16 0.27 -0 0 0 0c-0.16,0.27 -0.32,0.53 -0.47,0.8l-0.01 0 0 0.02c-0.32,0.53 -0.64,1.07 -0.96,1.6l-0 0 0 0.01c-0.27,0.43 -0.53,0.86 -0.8,1.28l-0.01 0 0 0.01c-0.1,0.16 -0.2,0.32 -0.3,0.47l-0.03 0 0 0.04c-0.09,0.15 -0.2,0.3 -0.29,0.45l-0.03 0 0 0.05c-0.62,0.97 -1.26,1.91 -1.92,2.86l-0.02 0 0 0.03 -0.32 0.46 -0 0 0 0.01c-0.26,0.38 -0.53,0.75 -0.79,1.12l-0.01 0 0 0.02c-0.58,0.81 -1.17,1.61 -1.77,2.4l-0 0 0 0c-0.37,0.48 -0.73,0.97 -1.11,1.45l-0.02 0 0 0.03c-0.2,0.26 -0.42,0.52 -0.62,0.78l-0.02 0 0 0.03c-0.73,0.92 -1.48,1.82 -2.23,2.71l-0.02 0 0 0.03c-0.27,0.31 -0.53,0.63 -0.8,0.94l-0.01 0 0 0.01 -0.14 0.15 -0.03 0 0 0.03c-0.94,1.08 -1.91,2.15 -2.89,3.2l-0.01 0 0 0.01 -0.14 0.15 -0.02 0 0 0.02 -0.13 0.14 -0.03 0 0 0.03 -0.12 0.13 -0.04 0 0 0.05c-1.4,1.48 -2.84,2.91 -4.32,4.31l-0.03 0 0 0.03 -0.14 0.13 -0.02 0 0 0.02 -0.15 0.14 -0.01 0 0 0.01c-1.05,0.98 -2.11,1.95 -3.19,2.89l-0.04 0 0 0.03 -0.15 0.13 -0.01 0 0 0.01c-0.37,0.32 -0.75,0.64 -1.13,0.96l0 0 0 0c-0.84,0.71 -1.69,1.41 -2.55,2.1l-0.03 0 0 0.03c-0.26,0.2 -0.52,0.41 -0.78,0.62l-0.03 0 0 0.02c-0.48,0.37 -0.96,0.74 -1.44,1.11l-0.01 0 0 0.01c-0.43,0.32 -0.85,0.64 -1.29,0.96l-0 0 0 0c-0.36,0.27 -0.73,0.54 -1.1,0.8l-0.03 0 0 0.02c-0.37,0.27 -0.74,0.53 -1.12,0.79l-0.01 0 0 0.01c-1.26,0.88 -2.53,1.74 -3.82,2.57l-0.05 0 0 0.03c-0.15,0.1 -0.31,0.2 -0.46,0.29l-0.02 0 0 0.01c-0.95,0.6 -1.91,1.19 -2.87,1.76l-0.03 0 0 0.02c-0.26,0.16 -0.53,0.31 -0.79,0.47l-0.02 0 0 0.01c-0.37,0.21 -0.73,0.43 -1.11,0.64l-0.02 0 0 0.01c-1.06,0.6 -2.14,1.19 -3.22,1.76l0 0 0 0 -0.31 0.16 -0.02 0 0 0.01 -0.29 0.15 -0.04 0 0 0.02 -0.27 0.14 -0.05 0 0 0.03 -0.26 0.13 -0.06 0 0 0.03 -0.26 0.13 -0.06 0 0 0.03c-0.85,0.43 -1.71,0.85 -2.57,1.26l-0.01 0 0 0c-0.57,0.27 -1.14,0.54 -1.72,0.8l-0.06 0 0 0.03 -0.29 0.13 -0.03 0 0 0.01c-0.48,0.21 -0.96,0.42 -1.44,0.63l-0.01 0 0 0c-0.89,0.38 -1.78,0.76 -2.69,1.12l-0.06 0 0 0.02c-0.24,0.1 -0.49,0.2 -0.73,0.3l-0.07 0 0 0.03c-0.25,0.1 -0.51,0.2 -0.76,0.29l-0.04 0 0 0.02c-0.7,0.27 -1.39,0.54 -2.1,0.79 -0.15,0.06 -0.3,0.1 -0.46,0.16l-0.03 0 0 0.01c-1.76,0.63 -3.53,1.22 -5.32,1.77 -0.36,0.11 -0.72,0.21 -1.08,0.32l-0.05 0 0 0.01c-0.35,0.1 -0.7,0.21 -1.05,0.31l-0.08 0 0 0.02c-0.37,0.1 -0.74,0.2 -1.11,0.3l-0.02 0 0 0.01c-1.04,0.28 -2.08,0.55 -3.13,0.8l-0.1 0 0 0.03c-0.19,0.05 -0.37,0.09 -0.56,0.14l-0.08 0 0 0.02 -0.61 0.14 -0.04 0 0 0.01c-0.48,0.11 -0.96,0.21 -1.45,0.32l-0.01 0 0 0c-0.79,0.17 -1.58,0.33 -2.37,0.48l-0.05 0 0 0.01c-0.27,0.05 -0.53,0.1 -0.79,0.15l-0.01 0 0 0c-0.29,0.05 -0.57,0.11 -0.85,0.16l-0.11 0 0 0.02c-0.29,0.05 -0.57,0.09 -0.86,0.14l-0.11 0 0 0.02c-1.01,0.17 -2.02,0.33 -3.04,0.46l-0.03 0 0 0.01c-0.37,0.05 -0.75,0.11 -1.12,0.16l-0.17 0 0 0.02c-0.39,0.05 -0.79,0.09 -1.18,0.14l-0.11 0 0 0.01c-0.99,0.12 -2,0.22 -3,0.31l-0.06 0 0 0.01c-0.6,0.05 -1.21,0.11 -1.81,0.15l-0.45 0 0 0.03c-2.72,0.2 -5.46,0.3 -8.22,0.3l-594.76 0c-2.77,0 -5.51,-0.1 -8.22,-0.3z"/>
   </clipPath>
 </defs>
 <g id="Layer_x0020_1">
  <metadata id="CorelCorpID_0Corel-Layer"/>
  <path class="fil0" d="M107.25 825.4l0 -0.03 -0.43 0c-0.56,-0.04 -1.11,-0.09 -1.67,-0.14l0 -0.02 -0.2 0c-1.01,-0.09 -2.02,-0.2 -3.02,-0.32l0 -0.01 -0.08 0c-0.4,-0.05 -0.81,-0.09 -1.21,-0.14l0 -0.02 -0.13 0c-0.76,-0.1 -1.53,-0.21 -2.29,-0.32l0 0 -0.01 0c-0.64,-0.1 -1.28,-0.2 -1.92,-0.31l0 -0.01 -0.07 0c-0.3,-0.05 -0.6,-0.1 -0.9,-0.15l0 -0.01 -0.07 0c-0.24,-0.04 -0.49,-0.09 -0.73,-0.14l0 -0.03 -0.13 0c-0.28,-0.05 -0.56,-0.11 -0.84,-0.16l0 0 -0 0c-1.03,-0.2 -2.04,-0.41 -3.06,-0.63l0 -0.01 -0.06 0c-0.46,-0.1 -0.93,-0.2 -1.39,-0.32l0 -0.01 -0.03 0c-0.2,-0.05 -0.41,-0.1 -0.61,-0.15l0 -0.01 -0.05 0c-0.85,-0.2 -1.69,-0.42 -2.53,-0.64l0 -0 -0.01 0c-0.37,-0.1 -0.75,-0.2 -1.12,-0.3l0 -0.02 -0.07 0c-0.19,-0.05 -0.38,-0.1 -0.57,-0.16l0 -0.01 -0.03 0 -0.46 -0.13 0 -0.03 -0.09 0c-0.35,-0.1 -0.69,-0.21 -1.04,-0.31l0 -0.01 -0.05 0c-0.69,-0.2 -1.37,-0.42 -2.05,-0.63l0 -0.01 -0.03 0 -0.45 -0.15 0 -0.02 -0.05 0 -0.44 -0.14 0 -0.02 -0.06 0 -0.43 -0.14 0 -0.02 -0.07 0 -0.42 -0.14 0 -0.03 -0.07 0c-0.14,-0.05 -0.28,-0.1 -0.41,-0.15l0 -0.01 -0.04 0 -0.44 -0.16 0 -0.01 -0.02 0c-1.02,-0.36 -2.04,-0.73 -3.05,-1.12l0 -0.01 -0.04 0c-0.26,-0.1 -0.51,-0.2 -0.77,-0.29l0 -0.03 -0.07 0 -0.41 -0.16 0 -0 -0.01 0c-0.92,-0.36 -1.83,-0.74 -2.73,-1.12l0 -0 -0.01 0c-0.48,-0.2 -0.97,-0.42 -1.44,-0.63l0 -0.01 -0.03 0c-0.48,-0.21 -0.95,-0.43 -1.42,-0.64l0 -0.01 -0.01 0 -0.31 -0.15 0 -0.02 -0.04 0c-2.68,-1.24 -5.3,-2.58 -7.87,-4.02l0 -0.01 -0.02 0c-0.37,-0.21 -0.74,-0.41 -1.11,-0.62l0 -0.02 -0.05 0c-0.36,-0.21 -0.72,-0.43 -1.09,-0.64l0 -0 -0 0c-0.98,-0.58 -1.94,-1.16 -2.9,-1.77l0 -0.01 -0.01 0c-0.16,-0.1 -0.32,-0.2 -0.47,-0.3l0 -0.03 -0.05 0c-0.74,-0.47 -1.48,-0.96 -2.21,-1.45l0 0 0 0 -0.48 -0.32c-0.54,-0.37 -1.08,-0.74 -1.61,-1.12l0 -0.01 -0.01 0c-0.37,-0.26 -0.74,-0.53 -1.12,-0.79l0 -0.01 -0.02 0c-0.59,-0.42 -1.18,-0.85 -1.76,-1.29l0 0 -0 0c-0.49,-0.37 -0.97,-0.74 -1.45,-1.11l0 -0.02 -0.03 0c-0.2,-0.16 -0.42,-0.32 -0.62,-0.47l0 -0.01 -0.01 0 -0.15 -0.12 0 -0.04 -0.05 0c-0.2,-0.16 -0.4,-0.32 -0.6,-0.48l0 -0 -0 0c-0.59,-0.48 -1.18,-0.96 -1.77,-1.44l0 -0.01 -0.01 0c-0.38,-0.32 -0.75,-0.63 -1.12,-0.95l0 -0.02 -0.02 0c-0.37,-0.32 -0.74,-0.64 -1.11,-0.96l0 -0.01 -0.01 0 -0.15 -0.13 0 -0.03 -0.03 0c-1.25,-1.11 -2.48,-2.23 -3.68,-3.39l0 0 0 0 -0.16 -0.16 0 -0.01 -0.01 0 -0.16 -0.15 0 -0.01 -0.01 0 -0.15 -0.15 0 -0.01 -0.02 0 -0.15 -0.14 0 -0.02 -0.02 0c-0.65,-0.63 -1.28,-1.27 -1.91,-1.91l0 -0.02 -0.02 0 -0.14 -0.15 0 -0.02 -0.01 0 -0.15 -0.15 0 -0.01 -0.01 0 -0.15 -0.16 0 -0.01 -0.01 0 -0.16 -0.16 0 0 0 0c-1.16,-1.2 -2.28,-2.43 -3.39,-3.68l0 -0.03 -0.03 0 -0.13 -0.15 0 -0.01 -0.01 0c-0.32,-0.37 -0.64,-0.73 -0.96,-1.11l0 -0.02 -0.02 0c-0.32,-0.37 -0.63,-0.74 -0.95,-1.12l0 -0.01 -0.01 0c-0.49,-0.58 -0.97,-1.18 -1.44,-1.77l0 -0 -0 0c-0.16,-0.2 -0.32,-0.4 -0.48,-0.6l0 -0.05 -0.04 0 -0.12 -0.15 0 -0.01 -0.01 0c-0.16,-0.2 -0.32,-0.42 -0.47,-0.62l0 -0.03 -0.02 0c-0.37,-0.48 -0.74,-0.96 -1.11,-1.45l0 -0 0 0c-0.44,-0.58 -0.86,-1.17 -1.29,-1.76l0 -0.02 -0.01 0c-0.27,-0.37 -0.53,-0.74 -0.79,-1.12l0 -0.01 -0.01 0c-0.37,-0.54 -0.75,-1.07 -1.12,-1.61 -0.11,-0.16 -0.21,-0.32 -0.32,-0.48l0 0 0 0c-0.49,-0.73 -0.98,-1.47 -1.45,-2.21l0 -0.05 -0.03 0c-0.1,-0.16 -0.2,-0.32 -0.3,-0.47l0 -0.01 -0.01 0c-0.6,-0.96 -1.19,-1.92 -1.77,-2.9l0 -0.01 -0 0c-0.21,-0.36 -0.43,-0.72 -0.64,-1.08l0 -0.05 -0.02 0c-0.21,-0.37 -0.42,-0.74 -0.62,-1.11l0 -0.02 -0.01 0c-1.44,-2.56 -2.78,-5.19 -4.02,-7.87l0 -0.04 -0.01 0 -0.15 -0.31 0 -0.01 -0.01 0c-0.21,-0.47 -0.43,-0.95 -0.64,-1.42l0 -0.03 -0.01 0c-0.21,-0.48 -0.43,-0.96 -0.63,-1.44l0 -0.01 -0 0c-0.39,-0.91 -0.76,-1.82 -1.12,-2.73l0 -0.01 -0 0 -0.16 -0.41 0 -0.07 -0.03 0c-0.1,-0.26 -0.2,-0.51 -0.29,-0.77l0 -0.04 -0.01 0c-0.39,-1.01 -0.76,-2.03 -1.12,-3.05l0 -0.02 -0.01 0 -0.16 -0.44 0 -0.04 -0.01 0c-0.05,-0.14 -0.1,-0.27 -0.15,-0.41l0 -0.07 -0.03 0 -0.14 -0.41 0 -0.07 -0.02 0c-0.05,-0.14 -0.09,-0.29 -0.14,-0.43l0 -0.06 -0.02 0 -0.14 -0.44 0 -0.05 -0.02 0 -0.15 -0.45 0 -0.03 -0.01 0c-0.22,-0.68 -0.43,-1.37 -0.63,-2.05l0 -0.05 -0.02 0c-0.1,-0.34 -0.21,-0.69 -0.31,-1.04l0 -0.09 -0.03 0 -0.13 -0.46 0 -0.02 -0.01 0c-0.06,-0.19 -0.1,-0.38 -0.16,-0.57l0 -0.07 -0.02 0c-0.1,-0.37 -0.2,-0.74 -0.3,-1.12l0 -0.01 -0 0c-0.22,-0.84 -0.44,-1.68 -0.64,-2.53l0 -0.05 -0.01 0c-0.05,-0.2 -0.1,-0.41 -0.15,-0.61l0 -0.03 -0.01 0c-0.11,-0.46 -0.21,-0.93 -0.32,-1.39l0 -0.06 -0.01 0c-0.22,-1.01 -0.44,-2.04 -0.63,-3.06l0 -0 0 0c-0.06,-0.28 -0.11,-0.56 -0.16,-0.84l0 -0.13 -0.03 0c-0.05,-0.25 -0.09,-0.49 -0.14,-0.73l0 -0.07 -0.01 0c-0.05,-0.3 -0.1,-0.6 -0.15,-0.9l0 -0.07 -0.01 0c-0.11,-0.64 -0.21,-1.28 -0.31,-1.92l0 -0.01 0 0c-0.12,-0.76 -0.22,-1.52 -0.32,-2.29l0 -0.13 -0.02 0c-0.05,-0.4 -0.09,-0.81 -0.14,-1.21l0 -0.08 -0.01 0c-0.12,-1 -0.22,-2.01 -0.32,-3.02l0 -0.2 -0.02 0c-0.05,-0.56 -0.1,-1.11 -0.14,-1.67l0 -0.43 -0.03 0c-0.2,-2.71 -0.3,-5.46 -0.3,-8.22l0 -594.76c0,-2.77 0.1,-5.51 0.3,-8.22l0.03 0 0 -0.43c0.04,-0.56 0.09,-1.11 0.14,-1.67l0.02 0 0 -0.2c0.09,-1.01 0.2,-2.02 0.32,-3.02l0.01 0 0 -0.08c0.05,-0.4 0.09,-0.81 0.14,-1.21l0.02 0 0 -0.13c0.1,-0.76 0.2,-1.53 0.32,-2.29l0 0 0 -0.01c0.1,-0.64 0.2,-1.28 0.31,-1.92l0.01 0 0 -0.07c0.05,-0.3 0.1,-0.6 0.15,-0.9l0.01 0 0 -0.07c0.04,-0.24 0.09,-0.49 0.14,-0.73l0.03 0 0 -0.13c0.05,-0.28 0.1,-0.56 0.16,-0.84l0 0 0 -0c0.2,-1.02 0.41,-2.04 0.63,-3.06l0.01 0 0 -0.05c0.1,-0.47 0.2,-0.93 0.32,-1.4l0.01 0 0 -0.03c0.05,-0.2 0.1,-0.41 0.15,-0.61l0.01 0 0 -0.05c0.2,-0.85 0.42,-1.69 0.64,-2.53l0 0 0 -0.01c0.1,-0.37 0.2,-0.74 0.3,-1.12l0.02 0 0 -0.07c0.05,-0.19 0.1,-0.38 0.16,-0.57l0.01 0 0 -0.02 0.13 -0.46 0.03 0 0 -0.09c0.1,-0.35 0.21,-0.69 0.31,-1.04l0.02 0 0 -0.05c0.2,-0.69 0.42,-1.37 0.63,-2.05l0.01 0 0 -0.03 0.15 -0.45 0.02 0 0 -0.05 0.14 -0.44 0.02 0 0 -0.06 0.14 -0.43 0.02 0 0 -0.07 0.14 -0.41 0.03 0 0 -0.07c0.05,-0.14 0.1,-0.28 0.15,-0.41l0.01 0 0 -0.04 0.16 -0.44 0.01 0 0 -0.02c0.36,-1.02 0.73,-2.04 1.12,-3.05l0.01 0 0 -0.03c0.1,-0.26 0.2,-0.52 0.29,-0.77l0.03 0 0 -0.07 0.16 -0.41 0 0 0 -0.01c0.36,-0.92 0.74,-1.83 1.12,-2.73l0 0 0 -0.01c0.2,-0.48 0.42,-0.96 0.63,-1.44l0.01 0 0 -0.03c0.21,-0.47 0.42,-0.95 0.64,-1.42l0.01 0 0 -0.01 0.15 -0.31 0.01 0 0 -0.03c1.25,-2.68 2.58,-5.31 4.02,-7.87l0.01 0 0 -0.02c0.21,-0.37 0.41,-0.74 0.62,-1.11l0.03 0 0 -0.05c0.21,-0.36 0.43,-0.72 0.64,-1.08l0 0 0 -0.01c0.58,-0.98 1.16,-1.94 1.77,-2.9l0.01 0 0 -0.01c0.1,-0.16 0.2,-0.32 0.3,-0.47l0.03 0 0 -0.05c0.47,-0.74 0.96,-1.48 1.45,-2.21l0 0 0 0 0.32 -0.48 0 0 0 -0c0.37,-0.54 0.74,-1.08 1.12,-1.61l0.01 0 0 -0.01c0.26,-0.37 0.53,-0.74 0.79,-1.12l0.01 0 0 -0.02c0.42,-0.59 0.85,-1.18 1.29,-1.76l0 0 0 -0c0.37,-0.48 0.74,-0.97 1.11,-1.45l0.02 0 0 -0.03c0.16,-0.2 0.32,-0.41 0.47,-0.62l0.01 0 0 -0.01 0.12 -0.15 0.04 0 0 -0.05c0.16,-0.2 0.32,-0.4 0.48,-0.59l0 0 0 -0c0.48,-0.59 0.96,-1.19 1.44,-1.77l0.01 0 0 -0.01c0.32,-0.37 0.63,-0.75 0.95,-1.12l0.02 0 0 -0.03c0.32,-0.37 0.64,-0.74 0.96,-1.11l0.01 0 0 -0.01 0.13 -0.15 0.03 0 0 -0.03c1.11,-1.25 2.23,-2.48 3.39,-3.68l0 0 0 -0 0.16 -0.16 0.01 0 0 -0.01 0.15 -0.16 0.01 0 0 -0.01 0.15 -0.15 0.01 0 0 -0.01 0.14 -0.15 0.02 0 0 -0.02c0.63,-0.65 1.27,-1.29 1.92,-1.92l0.02 0 0 -0.02 0.15 -0.15 0.02 0 0 -0.01 0.15 -0.15 0.01 0 0 -0.01 0.16 -0.15 0.01 0 0 -0.01 0.16 -0.16 0 0 0 0c1.2,-1.16 2.43,-2.28 3.68,-3.38l0.03 0 0 -0.03 0.15 -0.14 0.01 0 0 -0.01c0.37,-0.32 0.73,-0.64 1.11,-0.96l0.02 0 0 -0.02c0.37,-0.32 0.74,-0.63 1.12,-0.95l0.01 0 0 -0.01c0.58,-0.49 1.17,-0.97 1.77,-1.45l0 0 0 0c0.2,-0.16 0.4,-0.33 0.6,-0.48l0.05 0 0 -0.04 0.15 -0.12 0.01 0 0 -0.01c0.2,-0.16 0.42,-0.32 0.62,-0.48l0.03 0 0 -0.02c0.48,-0.37 0.96,-0.74 1.45,-1.11l0 0 0 -0c0.58,-0.44 1.17,-0.86 1.76,-1.29l0.02 0 0 -0.01c0.37,-0.27 0.74,-0.53 1.12,-0.79l0.01 0 0 -0.01c0.69,-0.49 1.39,-0.97 2.1,-1.44l0 0 0 0c0.73,-0.49 1.47,-0.98 2.21,-1.45l0.05 0 0 -0.03c0.16,-0.1 0.32,-0.2 0.47,-0.29l0.01 0 0 -0.01c0.96,-0.6 1.92,-1.19 2.9,-1.77l0 0 0 -0c0.36,-0.21 0.72,-0.43 1.09,-0.64l0.05 0 0 -0.03c0.36,-0.21 0.74,-0.41 1.11,-0.62l0.02 0 0 -0.01c2.56,-1.44 5.19,-2.78 7.87,-4.02l0.04 0 0 -0.02 0.31 -0.15 0.01 0 0 -0c0.47,-0.22 0.95,-0.43 1.42,-0.64l0.03 0 0 -0.01c0.48,-0.21 0.96,-0.43 1.44,-0.63l0.01 0 0 -0c0.91,-0.39 1.82,-0.76 2.73,-1.12l0.01 0 0 -0 0.41 -0.16 0.07 0 0 -0.03c0.26,-0.1 0.52,-0.2 0.77,-0.3l0.03 0 0 -0.01c1.01,-0.39 2.03,-0.76 3.05,-1.12l0.02 0 0 -0.01 0.44 -0.16 0.04 0 0 -0.01c0.14,-0.05 0.28,-0.1 0.42,-0.15l0.07 0 0 -0.03 0.42 -0.14 0.07 0 0 -0.02c0.14,-0.05 0.29,-0.09 0.43,-0.14l0.06 0 0 -0.02 0.44 -0.14 0.05 0 0 -0.02 0.45 -0.15 0.03 0 0 -0.01c0.68,-0.22 1.37,-0.43 2.05,-0.63l0.05 0 0 -0.01c0.34,-0.1 0.69,-0.21 1.04,-0.31l0.09 0 0 -0.03 0.46 -0.13 0.03 0 0 -0.01c0.19,-0.06 0.38,-0.1 0.57,-0.16l0.07 0 0 -0.02c0.37,-0.1 0.74,-0.2 1.12,-0.3l0.01 0 0 -0c0.84,-0.22 1.68,-0.44 2.53,-0.64l0.05 0 0 -0.01c0.2,-0.05 0.41,-0.1 0.61,-0.15l0.03 0 0 -0.01c0.46,-0.11 0.93,-0.21 1.39,-0.32l0.06 0 0 -0.01c1.01,-0.22 2.03,-0.44 3.06,-0.63l0 0 0 -0c0.28,-0.05 0.56,-0.11 0.84,-0.16l0.13 0 0 -0.03c0.25,-0.05 0.49,-0.09 0.74,-0.14l0.07 0 0 -0.01c0.3,-0.06 0.6,-0.1 0.9,-0.15l0.07 0 0 -0.01c0.64,-0.11 1.28,-0.21 1.92,-0.31l0.01 0 0 0c0.76,-0.11 1.52,-0.22 2.29,-0.32l0.13 0 0 -0.02c0.4,-0.05 0.81,-0.1 1.21,-0.14l0.08 0 0 -0.01c1,-0.12 2.01,-0.22 3.02,-0.32l0.2 0 0 -0.02c0.56,-0.05 1.12,-0.1 1.67,-0.14l0.42 0 0 -0.03c2.71,-0.2 5.46,-0.3 8.22,-0.3l594.76 0c2.77,0 5.51,0.1 8.22,0.3l0 0.03 0.42 0c0.56,0.04 1.12,0.09 1.68,0.14l0 0.02 0.2 0c1.01,0.09 2.02,0.2 3.02,0.32l0 0.01 0.08 0c0.4,0.05 0.81,0.09 1.21,0.14l0 0.02 0.13 0c0.76,0.1 1.53,0.21 2.29,0.32l0 0 0.01 0c0.64,0.1 1.28,0.2 1.92,0.31l0 0.01 0.07 0c0.3,0.05 0.6,0.09 0.9,0.15l0 0.01 0.07 0c0.24,0.05 0.49,0.09 0.73,0.14l0 0.03 0.13 0c0.28,0.05 0.56,0.11 0.84,0.16l0 0 0 0c1.02,0.2 2.04,0.41 3.06,0.63l0 0.01 0.06 0c0.47,0.1 0.93,0.2 1.4,0.32l0 0.01 0.03 0c0.2,0.05 0.41,0.1 0.61,0.15l0 0.01 0.05 0c0.85,0.2 1.69,0.42 2.54,0.64l0 0 0.01 0c0.37,0.1 0.75,0.2 1.12,0.3l0 0.02 0.07 0c0.19,0.06 0.38,0.1 0.57,0.16l0 0.01 0.02 0 0.46 0.13 0 0.03 0.09 0c0.35,0.1 0.69,0.2 1.04,0.31l0 0.01 0.05 0c0.69,0.2 1.37,0.42 2.05,0.63l0 0.01 0.03 0 0.45 0.15 0 0.02 0.04 0 0.44 0.14 0 0.02 0.06 0 0.43 0.14 0 0.02 0.07 0 0.41 0.14 0 0.03 0.07 0c0.14,0.05 0.28,0.1 0.42,0.15l0 0.01 0.04 0 0.44 0.16 0 0.01 0.02 0c1.02,0.36 2.04,0.73 3.05,1.12l0 0.01 0.04 0c0.26,0.1 0.52,0.2 0.77,0.3l0 0.03 0.08 0 0.41 0.16 0 0 0.01 0c0.92,0.36 1.83,0.74 2.73,1.12l0 0 0.01 0c0.48,0.21 0.96,0.42 1.44,0.63l0 0.01 0.03 0c0.47,0.21 0.95,0.42 1.42,0.64l0 0.01 0.01 0 0.31 0.15 0 0.02 0.03 0c2.68,1.24 5.31,2.58 7.87,4.02l0 0.01 0.02 0c0.37,0.21 0.74,0.41 1.11,0.62l0 0.03 0.05 0c0.36,0.21 0.72,0.43 1.08,0.64l0 0 0.01 0c0.98,0.58 1.94,1.16 2.9,1.77l0 0.01 0.01 0c0.16,0.1 0.32,0.2 0.47,0.29l0 0.03 0.04 0c0.74,0.47 1.48,0.96 2.22,1.45l0 0 0 0c0.71,0.47 1.4,0.96 2.09,1.44l0 0.01 0.02 0c0.37,0.26 0.74,0.53 1.12,0.79l0 0.01 0.02 0c0.59,0.43 1.18,0.85 1.76,1.29l0 0 0.01 0c0.48,0.36 0.97,0.74 1.45,1.11l0 0.02 0.02 0c0.21,0.16 0.42,0.32 0.62,0.48l0 0.01 0.01 0 0.15 0.12 0 0.04 0.05 0c0.2,0.16 0.4,0.32 0.59,0.48l0 0 0 0c0.59,0.48 1.19,0.96 1.77,1.45l0 0.01 0.01 0c0.37,0.31 0.75,0.63 1.12,0.95l0 0.02 0.03 0c0.37,0.32 0.74,0.64 1.11,0.96l0 0.01 0.01 0 0.15 0.14 0 0.03 0.03 0c1.25,1.1 2.48,2.23 3.68,3.38l0 0 0 0 0.16 0.16 0 0.01 0.01 0 0.16 0.15 0 0.01 0.01 0 0.15 0.15 0 0.01 0.01 0 0.15 0.15 0 0.02 0.02 0c0.65,0.63 1.29,1.27 1.92,1.92l0 0.02 0.02 0 0.15 0.15 0 0.01 0.01 0 0.15 0.15 0 0.01 0.01 0 0.15 0.16 0 0.01 0.01 0 0.15 0.16 0 0 0 0c1.15,1.2 2.28,2.43 3.38,3.68l0 0.03 0.03 0 0.14 0.15 0 0.01 0.01 0c0.32,0.37 0.64,0.73 0.96,1.11l0 0.03 0.02 0c0.32,0.37 0.63,0.74 0.95,1.12l0 0.01 0.01 0c0.49,0.59 0.97,1.18 1.45,1.77l0 0 0 0c0.16,0.2 0.33,0.4 0.48,0.59l0 0.05 0.04 0 0.12 0.15 0 0.01 0.01 0c0.16,0.2 0.32,0.41 0.48,0.62l0 0.02 0.02 0c0.37,0.48 0.74,0.96 1.11,1.45l0 0 0 0c0.44,0.58 0.86,1.17 1.29,1.76l0 0.02 0.01 0c0.27,0.37 0.53,0.74 0.79,1.12l0 0.01 0.01 0c0.49,0.7 0.97,1.39 1.44,2.1l0 0 0 0c0.49,0.73 0.98,1.47 1.45,2.21l0 0.05 0.03 0c0.1,0.16 0.2,0.32 0.3,0.47l0 0.01 0.01 0c0.6,0.96 1.19,1.92 1.77,2.9l0 0.01 0 0c0.21,0.36 0.43,0.72 0.64,1.08l0 0.05 0.03 0c0.21,0.37 0.41,0.74 0.62,1.11l0 0.02 0.01 0c1.44,2.56 2.78,5.19 4.02,7.87l0 0.03 0.02 0 0.15 0.31 0 0.01 0 0c0.22,0.47 0.43,0.95 0.64,1.42l0 0.03 0.01 0c0.21,0.48 0.43,0.96 0.63,1.44l0 0.01 0 0c0.38,0.91 0.76,1.82 1.12,2.73l0 0.01 0 0 0.16 0.41 0 0.07 0.03 0c0.1,0.26 0.2,0.52 0.3,0.77l0 0.03 0.01 0c0.38,1.01 0.76,2.03 1.12,3.05l0 0.02 0.01 0 0.16 0.44 0 0.04 0.01 0c0.05,0.14 0.1,0.28 0.15,0.42l0 0.07 0.03 0 0.14 0.41 0 0.07 0.02 0c0.05,0.14 0.09,0.28 0.14,0.43l0 0.06 0.02 0 0.14 0.44 0 0.05 0.01 0 0.15 0.45 0 0.03 0.01 0c0.22,0.68 0.43,1.37 0.63,2.05l0 0.05 0.01 0c0.1,0.34 0.21,0.69 0.31,1.04l0 0.09 0.03 0 0.13 0.46 0 0.02 0.01 0c0.05,0.19 0.1,0.38 0.15,0.57l0 0.07 0.02 0c0.1,0.37 0.2,0.75 0.3,1.12l0 0.01 0 0c0.22,0.84 0.44,1.69 0.64,2.54l0 0.05 0.01 0c0.05,0.2 0.1,0.41 0.15,0.61l0 0.03 0.01 0c0.11,0.46 0.21,0.93 0.32,1.4l0 0.05 0.01 0c0.22,1.02 0.43,2.04 0.63,3.06l0 0 0 0c0.05,0.28 0.11,0.56 0.16,0.84l0 0.13 0.03 0c0.05,0.24 0.09,0.49 0.14,0.73l0 0.07 0.01 0c0.05,0.3 0.1,0.6 0.15,0.9l0 0.07 0.01 0c0.11,0.64 0.21,1.28 0.31,1.92l0 0.01 0 0c0.11,0.76 0.22,1.52 0.32,2.29l0 0.13 0.02 0c0.05,0.4 0.09,0.81 0.14,1.21l0 0.08 0.01 0c0.12,1 0.22,2.01 0.31,3.02l0 0.2 0.02 0c0.05,0.56 0.1,1.12 0.14,1.68l0 0.42 0.03 0c0.2,2.72 0.3,5.46 0.3,8.22l0 594.76c0,2.77 -0.1,5.51 -0.29,8.22l-0.03 0 0 0.44c-0.05,0.61 -0.1,1.22 -0.16,1.82l-0.01 0 0 0.06c-0.09,1.01 -0.2,2.01 -0.31,3.01l-0.01 0 0 0.1c-0.05,0.4 -0.09,0.8 -0.14,1.19l-0.02 0 0 0.15c-0.05,0.38 -0.11,0.76 -0.16,1.14l-0 0 0 0.01c-0.14,1.02 -0.3,2.04 -0.47,3.05l-0.02 0 0 0.09c-0.05,0.29 -0.09,0.58 -0.14,0.87l-0.02 0 0 0.1c-0.1,0.56 -0.21,1.12 -0.32,1.67l-0.01 0 0 0.03c-0.2,1.02 -0.4,2.03 -0.62,3.03l-0.02 0 0 0.09c-0.05,0.24 -0.1,0.48 -0.16,0.72l-0.01 0 0 0.02 -0.14 0.62 -0.02 0 0 0.07c-0.05,0.19 -0.09,0.38 -0.14,0.58l-0.02 0 0 0.08c-0.25,1.05 -0.52,2.1 -0.81,3.14l0 0 0 0c-0.1,0.38 -0.2,0.75 -0.31,1.13l-0.02 0 0 0.07c-0.1,0.36 -0.21,0.71 -0.32,1.06l-0.01 0 0 0.03c-0.54,1.84 -1.12,3.66 -1.75,5.45l-0.02 0 0 0.07 -0.15 0.42 -0.01 0 0 0.04 -0.16 0.45 -0 0 0 0.01c-0.31,0.86 -0.63,1.72 -0.96,2.57l-0.01 0 0 0.03c-0.1,0.26 -0.2,0.52 -0.3,0.78l-0.02 0 0 0.06c-0.1,0.25 -0.2,0.5 -0.31,0.75l-0.02 0 0 0.04 -0.31 0.77 -0.01 0 0 0.02c-0.31,0.75 -0.62,1.49 -0.95,2.23l-0.02 0 0 0.04c-0.16,0.36 -0.32,0.73 -0.48,1.09l-0.01 0 0 0.02 -0.14 0.31 -0.02 0 0 0.04c-0.56,1.24 -1.15,2.45 -1.75,3.67l-0.02 0 0 0.04 -0.14 0.28 -0.02 0 0 0.05 -0.14 0.28 -0.03 0 0 0.05 -0.13 0.27 -0.03 0 0 0.05 -0.14 0.27 -0.02 0 0 0.04 -0.15 0.29 -0.01 0 0 0.02 -0.16 0.3 -0 0 0 0.01c-0.62,1.19 -1.26,2.37 -1.93,3.54l-0.01 0 0 0.02c-0.15,0.26 -0.3,0.53 -0.46,0.79l-0.03 0 0 0.05 -0.16 0.27 -0 0 0 0c-0.16,0.27 -0.32,0.53 -0.47,0.8l-0.01 0 0 0.02c-0.32,0.53 -0.64,1.07 -0.96,1.6l-0 0 0 0.01c-0.27,0.43 -0.53,0.86 -0.8,1.28l-0.01 0 0 0.01c-0.1,0.16 -0.2,0.32 -0.3,0.47l-0.03 0 0 0.04c-0.09,0.15 -0.2,0.3 -0.29,0.45l-0.03 0 0 0.05c-0.62,0.97 -1.26,1.91 -1.92,2.86l-0.02 0 0 0.03 -0.32 0.46 -0 0 0 0.01c-0.26,0.38 -0.53,0.75 -0.79,1.12l-0.01 0 0 0.02c-0.58,0.81 -1.17,1.61 -1.77,2.4l-0 0 0 0c-0.37,0.48 -0.73,0.97 -1.11,1.45l-0.02 0 0 0.03c-0.2,0.26 -0.42,0.52 -0.62,0.78l-0.02 0 0 0.03c-0.73,0.92 -1.48,1.82 -2.23,2.71l-0.02 0 0 0.03c-0.27,0.31 -0.53,0.63 -0.8,0.94l-0.01 0 0 0.01 -0.14 0.15 -0.03 0 0 0.03c-0.94,1.08 -1.91,2.15 -2.89,3.2l-0.01 0 0 0.01 -0.14 0.15 -0.02 0 0 0.02 -0.13 0.14 -0.03 0 0 0.03 -0.12 0.13 -0.04 0 0 0.05c-1.4,1.48 -2.84,2.91 -4.32,4.31l-0.03 0 0 0.03 -0.14 0.13 -0.02 0 0 0.02 -0.15 0.14 -0.01 0 0 0.01c-1.05,0.98 -2.11,1.95 -3.19,2.89l-0.04 0 0 0.03 -0.15 0.13 -0.01 0 0 0.01c-0.37,0.32 -0.75,0.64 -1.13,0.96l0 0 0 0c-0.84,0.71 -1.69,1.41 -2.55,2.1l-0.03 0 0 0.03c-0.26,0.2 -0.52,0.41 -0.78,0.62l-0.03 0 0 0.02c-0.48,0.37 -0.96,0.74 -1.44,1.11l-0.01 0 0 0.01c-0.43,0.32 -0.85,0.64 -1.29,0.96l-0 0 0 0c-0.36,0.27 -0.73,0.54 -1.1,0.8l-0.03 0 0 0.02c-0.37,0.27 -0.74,0.53 -1.12,0.79l-0.01 0 0 0.01c-1.26,0.88 -2.53,1.74 -3.82,2.57l-0.05 0 0 0.03c-0.15,0.1 -0.31,0.2 -0.46,0.29l-0.02 0 0 0.01c-0.95,0.6 -1.91,1.19 -2.87,1.76l-0.03 0 0 0.02c-0.26,0.16 -0.53,0.31 -0.79,0.47l-0.02 0 0 0.01c-0.37,0.21 -0.73,0.43 -1.11,0.64l-0.02 0 0 0.01c-1.06,0.6 -2.14,1.19 -3.22,1.76l0 0 0 0 -0.31 0.16 -0.02 0 0 0.01 -0.29 0.15 -0.04 0 0 0.02 -0.27 0.14 -0.05 0 0 0.03 -0.26 0.13 -0.06 0 0 0.03 -0.26 0.13 -0.06 0 0 0.03c-0.85,0.43 -1.71,0.85 -2.57,1.26l-0.01 0 0 0c-0.57,0.27 -1.14,0.54 -1.72,0.8l-0.06 0 0 0.03 -0.29 0.13 -0.03 0 0 0.01c-0.48,0.21 -0.96,0.42 -1.44,0.63l-0.01 0 0 0c-0.89,0.38 -1.78,0.76 -2.69,1.12l-0.06 0 0 0.02c-0.24,0.1 -0.49,0.2 -0.73,0.3l-0.07 0 0 0.03c-0.25,0.1 -0.51,0.2 -0.76,0.29l-0.04 0 0 0.02c-0.7,0.27 -1.39,0.54 -2.1,0.79 -0.15,0.06 -0.3,0.1 -0.46,0.16l-0.03 0 0 0.01c-1.76,0.63 -3.53,1.22 -5.32,1.77 -0.36,0.11 -0.72,0.21 -1.08,0.32l-0.05 0 0 0.01c-0.35,0.1 -0.7,0.21 -1.05,0.31l-0.08 0 0 0.02c-0.37,0.1 -0.74,0.2 -1.11,0.3l-0.02 0 0 0.01c-1.04,0.28 -2.08,0.55 -3.13,0.8l-0.1 0 0 0.03c-0.19,0.05 -0.37,0.09 -0.56,0.14l-0.08 0 0 0.02 -0.61 0.14 -0.04 0 0 0.01c-0.48,0.11 -0.96,0.21 -1.45,0.32l-0.01 0 0 0c-0.79,0.17 -1.58,0.33 -2.37,0.48l-0.05 0 0 0.01c-0.27,0.05 -0.53,0.1 -0.79,0.15l-0.01 0 0 0c-0.29,0.05 -0.57,0.11 -0.85,0.16l-0.11 0 0 0.02c-0.29,0.05 -0.57,0.09 -0.86,0.14l-0.11 0 0 0.02c-1.01,0.17 -2.02,0.33 -3.04,0.46l-0.03 0 0 0.01c-0.37,0.05 -0.75,0.11 -1.12,0.16l-0.17 0 0 0.02c-0.39,0.05 -0.79,0.09 -1.18,0.14l-0.11 0 0 0.01c-0.99,0.12 -2,0.22 -3,0.31l-0.06 0 0 0.01c-0.6,0.05 -1.21,0.11 -1.81,0.15l-0.45 0 0 0.03c-2.72,0.2 -5.46,0.3 -8.22,0.3l-594.76 0c-2.77,0 -5.51,-0.1 -8.22,-0.3z"/>
  <g style="clip-path:url(#id0)">
   <g id="_3040879800560">
    <rect class="fil1" transform="matrix(0.510268 -0.510268 0.510268 0.510268 539.349 7.02688)" width="561.92" height="561.92"/>
   </g>
  </g>
  <path class="fil2" d="M107.25 825.4l0 -0.03 -0.43 0c-0.56,-0.04 -1.11,-0.09 -1.67,-0.14l0 -0.02 -0.2 0c-1.01,-0.09 -2.02,-0.2 -3.02,-0.32l0 -0.01 -0.08 0c-0.4,-0.05 -0.81,-0.09 -1.21,-0.14l0 -0.02 -0.13 0c-0.76,-0.1 -1.53,-0.21 -2.29,-0.32l0 0 -0.01 0c-0.64,-0.1 -1.28,-0.2 -1.92,-0.31l0 -0.01 -0.07 0c-0.3,-0.05 -0.6,-0.1 -0.9,-0.15l0 -0.01 -0.07 0c-0.24,-0.04 -0.49,-0.09 -0.73,-0.14l0 -0.03 -0.13 0c-0.28,-0.05 -0.56,-0.11 -0.84,-0.16l0 0 -0 0c-1.03,-0.2 -2.04,-0.41 -3.06,-0.63l0 -0.01 -0.06 0c-0.46,-0.1 -0.93,-0.2 -1.39,-0.32l0 -0.01 -0.03 0c-0.2,-0.05 -0.41,-0.1 -0.61,-0.15l0 -0.01 -0.05 0c-0.85,-0.2 -1.69,-0.42 -2.53,-0.64l0 -0 -0.01 0c-0.37,-0.1 -0.75,-0.2 -1.12,-0.3l0 -0.02 -0.07 0c-0.19,-0.05 -0.38,-0.1 -0.57,-0.16l0 -0.01 -0.03 0 -0.46 -0.13 0 -0.03 -0.09 0c-0.35,-0.1 -0.69,-0.21 -1.04,-0.31l0 -0.01 -0.05 0c-0.69,-0.2 -1.37,-0.42 -2.05,-0.63l0 -0.01 -0.03 0 -0.45 -0.15 0 -0.02 -0.05 0 -0.44 -0.14 0 -0.02 -0.06 0 -0.43 -0.14 0 -0.02 -0.07 0 -0.42 -0.14 0 -0.03 -0.07 0c-0.14,-0.05 -0.28,-0.1 -0.41,-0.15l0 -0.01 -0.04 0 -0.44 -0.16 0 -0.01 -0.02 0c-1.02,-0.36 -2.04,-0.73 -3.05,-1.12l0 -0.01 -0.04 0c-0.26,-0.1 -0.51,-0.2 -0.77,-0.29l0 -0.03 -0.07 0 -0.41 -0.16 0 -0 -0.01 0c-0.92,-0.36 -1.83,-0.74 -2.73,-1.12l0 -0 -0.01 0c-0.48,-0.2 -0.97,-0.42 -1.44,-0.63l0 -0.01 -0.03 0c-0.48,-0.21 -0.95,-0.43 -1.42,-0.64l0 -0.01 -0.01 0 -0.31 -0.15 0 -0.02 -0.04 0c-2.68,-1.24 -5.3,-2.58 -7.87,-4.02l0 -0.01 -0.02 0c-0.37,-0.21 -0.74,-0.41 -1.11,-0.62l0 -0.02 -0.05 0c-0.36,-0.21 -0.72,-0.43 -1.09,-0.64l0 -0 -0 0c-0.98,-0.58 -1.94,-1.16 -2.9,-1.77l0 -0.01 -0.01 0c-0.16,-0.1 -0.32,-0.2 -0.47,-0.3l0 -0.03 -0.05 0c-0.74,-0.47 -1.48,-0.96 -2.21,-1.45l0 0 0 0 -0.48 -0.32c-0.54,-0.37 -1.08,-0.74 -1.61,-1.12l0 -0.01 -0.01 0c-0.37,-0.26 -0.74,-0.53 -1.12,-0.79l0 -0.01 -0.02 0c-0.59,-0.42 -1.18,-0.85 -1.76,-1.29l0 0 -0 0c-0.49,-0.37 -0.97,-0.74 -1.45,-1.11l0 -0.02 -0.03 0c-0.2,-0.16 -0.42,-0.32 -0.62,-0.47l0 -0.01 -0.01 0 -0.15 -0.12 0 -0.04 -0.05 0c-0.2,-0.16 -0.4,-0.32 -0.6,-0.48l0 -0 -0 0c-0.59,-0.48 -1.18,-0.96 -1.77,-1.44l0 -0.01 -0.01 0c-0.38,-0.32 -0.75,-0.63 -1.12,-0.95l0 -0.02 -0.02 0c-0.37,-0.32 -0.74,-0.64 -1.11,-0.96l0 -0.01 -0.01 0 -0.15 -0.13 0 -0.03 -0.03 0c-1.25,-1.11 -2.48,-2.23 -3.68,-3.39l0 0 0 0 -0.16 -0.16 0 -0.01 -0.01 0 -0.16 -0.15 0 -0.01 -0.01 0 -0.15 -0.15 0 -0.01 -0.02 0 -0.15 -0.14 0 -0.02 -0.02 0c-0.65,-0.63 -1.28,-1.27 -1.91,-1.91l0 -0.02 -0.02 0 -0.14 -0.15 0 -0.02 -0.01 0 -0.15 -0.15 0 -0.01 -0.01 0 -0.15 -0.16 0 -0.01 -0.01 0 -0.16 -0.16 0 0 0 0c-1.16,-1.2 -2.28,-2.43 -3.39,-3.68l0 -0.03 -0.03 0 -0.13 -0.15 0 -0.01 -0.01 0c-0.32,-0.37 -0.64,-0.73 -0.96,-1.11l0 -0.02 -0.02 0c-0.32,-0.37 -0.63,-0.74 -0.95,-1.12l0 -0.01 -0.01 0c-0.49,-0.58 -0.97,-1.18 -1.44,-1.77l0 -0 -0 0c-0.16,-0.2 -0.32,-0.4 -0.48,-0.6l0 -0.05 -0.04 0 -0.12 -0.15 0 -0.01 -0.01 0c-0.16,-0.2 -0.32,-0.42 -0.47,-0.62l0 -0.03 -0.02 0c-0.37,-0.48 -0.74,-0.96 -1.11,-1.45l0 -0 0 0c-0.44,-0.58 -0.86,-1.17 -1.29,-1.76l0 -0.02 -0.01 0c-0.27,-0.37 -0.53,-0.74 -0.79,-1.12l0 -0.01 -0.01 0c-0.37,-0.54 -0.75,-1.07 -1.12,-1.61 -0.11,-0.16 -0.21,-0.32 -0.32,-0.48l0 0 0 0c-0.49,-0.73 -0.98,-1.47 -1.45,-2.21l0 -0.05 -0.03 0c-0.1,-0.16 -0.2,-0.32 -0.3,-0.47l0 -0.01 -0.01 0c-0.6,-0.96 -1.19,-1.92 -1.77,-2.9l0 -0.01 -0 0c-0.21,-0.36 -0.43,-0.72 -0.64,-1.08l0 -0.05 -0.02 0c-0.21,-0.37 -0.42,-0.74 -0.62,-1.11l0 -0.02 -0.01 0c-1.44,-2.56 -2.78,-5.19 -4.02,-7.87l0 -0.04 -0.01 0 -0.15 -0.31 0 -0.01 -0.01 0c-0.21,-0.47 -0.43,-0.95 -0.64,-1.42l0 -0.03 -0.01 0c-0.21,-0.48 -0.43,-0.96 -0.63,-1.44l0 -0.01 -0 0c-0.39,-0.91 -0.76,-1.82 -1.12,-2.73l0 -0.01 -0 0 -0.16 -0.41 0 -0.07 -0.03 0c-0.1,-0.26 -0.2,-0.51 -0.29,-0.77l0 -0.04 -0.01 0c-0.39,-1.01 -0.76,-2.03 -1.12,-3.05l0 -0.02 -0.01 0 -0.16 -0.44 0 -0.04 -0.01 0c-0.05,-0.14 -0.1,-0.27 -0.15,-0.41l0 -0.07 -0.03 0 -0.14 -0.41 0 -0.07 -0.02 0c-0.05,-0.14 -0.09,-0.29 -0.14,-0.43l0 -0.06 -0.02 0 -0.14 -0.44 0 -0.05 -0.02 0 -0.15 -0.45 0 -0.03 -0.01 0c-0.22,-0.68 -0.43,-1.37 -0.63,-2.05l0 -0.05 -0.02 0c-0.1,-0.34 -0.21,-0.69 -0.31,-1.04l0 -0.09 -0.03 0 -0.13 -0.46 0 -0.02 -0.01 0c-0.06,-0.19 -0.1,-0.38 -0.16,-0.57l0 -0.07 -0.02 0c-0.1,-0.37 -0.2,-0.74 -0.3,-1.12l0 -0.01 -0 0c-0.22,-0.84 -0.44,-1.68 -0.64,-2.53l0 -0.05 -0.01 0c-0.05,-0.2 -0.1,-0.41 -0.15,-0.61l0 -0.03 -0.01 0c-0.11,-0.46 -0.21,-0.93 -0.32,-1.39l0 -0.06 -0.01 0c-0.22,-1.01 -0.44,-2.04 -0.63,-3.06l0 -0 0 0c-0.06,-0.28 -0.11,-0.56 -0.16,-0.84l0 -0.13 -0.03 0c-0.05,-0.25 -0.09,-0.49 -0.14,-0.73l0 -0.07 -0.01 0c-0.05,-0.3 -0.1,-0.6 -0.15,-0.9l0 -0.07 -0.01 0c-0.11,-0.64 -0.21,-1.28 -0.31,-1.92l0 -0.01 0 0c-0.12,-0.76 -0.22,-1.52 -0.32,-2.29l0 -0.13 -0.02 0c-0.05,-0.4 -0.09,-0.81 -0.14,-1.21l0 -0.08 -0.01 0c-0.12,-1 -0.22,-2.01 -0.32,-3.02l0 -0.2 -0.02 0c-0.05,-0.56 -0.1,-1.11 -0.14,-1.67l0 -0.43 -0.03 0c-0.2,-2.71 -0.3,-5.46 -0.3,-8.22l0 -594.76c0,-2.77 0.1,-5.51 0.3,-8.22l0.03 0 0 -0.43c0.04,-0.56 0.09,-1.11 0.14,-1.67l0.02 0 0 -0.2c0.09,-1.01 0.2,-2.02 0.32,-3.02l0.01 0 0 -0.08c0.05,-0.4 0.09,-0.81 0.14,-1.21l0.02 0 0 -0.13c0.1,-0.76 0.2,-1.53 0.32,-2.29l0 0 0 -0.01c0.1,-0.64 0.2,-1.28 0.31,-1.92l0.01 0 0 -0.07c0.05,-0.3 0.1,-0.6 0.15,-0.9l0.01 0 0 -0.07c0.04,-0.24 0.09,-0.49 0.14,-0.73l0.03 0 0 -0.13c0.05,-0.28 0.1,-0.56 0.16,-0.84l0 0 0 -0c0.2,-1.02 0.41,-2.04 0.63,-3.06l0.01 0 0 -0.05c0.1,-0.47 0.2,-0.93 0.32,-1.4l0.01 0 0 -0.03c0.05,-0.2 0.1,-0.41 0.15,-0.61l0.01 0 0 -0.05c0.2,-0.85 0.42,-1.69 0.64,-2.53l0 0 0 -0.01c0.1,-0.37 0.2,-0.74 0.3,-1.12l0.02 0 0 -0.07c0.05,-0.19 0.1,-0.38 0.16,-0.57l0.01 0 0 -0.02 0.13 -0.46 0.03 0 0 -0.09c0.1,-0.35 0.21,-0.69 0.31,-1.04l0.02 0 0 -0.05c0.2,-0.69 0.42,-1.37 0.63,-2.05l0.01 0 0 -0.03 0.15 -0.45 0.02 0 0 -0.05 0.14 -0.44 0.02 0 0 -0.06 0.14 -0.43 0.02 0 0 -0.07 0.14 -0.41 0.03 0 0 -0.07c0.05,-0.14 0.1,-0.28 0.15,-0.41l0.01 0 0 -0.04 0.16 -0.44 0.01 0 0 -0.02c0.36,-1.02 0.73,-2.04 1.12,-3.05l0.01 0 0 -0.03c0.1,-0.26 0.2,-0.52 0.29,-0.77l0.03 0 0 -0.07 0.16 -0.41 0 0 0 -0.01c0.36,-0.92 0.74,-1.83 1.12,-2.73l0 0 0 -0.01c0.2,-0.48 0.42,-0.96 0.63,-1.44l0.01 0 0 -0.03c0.21,-0.47 0.42,-0.95 0.64,-1.42l0.01 0 0 -0.01 0.15 -0.31 0.01 0 0 -0.03c1.25,-2.68 2.58,-5.31 4.02,-7.87l0.01 0 0 -0.02c0.21,-0.37 0.41,-0.74 0.62,-1.11l0.03 0 0 -0.05c0.21,-0.36 0.43,-0.72 0.64,-1.08l0 0 0 -0.01c0.58,-0.98 1.16,-1.94 1.77,-2.9l0.01 0 0 -0.01c0.1,-0.16 0.2,-0.32 0.3,-0.47l0.03 0 0 -0.05c0.47,-0.74 0.96,-1.48 1.45,-2.21l0 0 0 0 0.32 -0.48 0 0 0 -0c0.37,-0.54 0.74,-1.08 1.12,-1.61l0.01 0 0 -0.01c0.26,-0.37 0.53,-0.74 0.79,-1.12l0.01 0 0 -0.02c0.42,-0.59 0.85,-1.18 1.29,-1.76l0 0 0 -0c0.37,-0.48 0.74,-0.97 1.11,-1.45l0.02 0 0 -0.03c0.16,-0.2 0.32,-0.41 0.47,-0.62l0.01 0 0 -0.01 0.12 -0.15 0.04 0 0 -0.05c0.16,-0.2 0.32,-0.4 0.48,-0.59l0 0 0 -0c0.48,-0.59 0.96,-1.19 1.44,-1.77l0.01 0 0 -0.01c0.32,-0.37 0.63,-0.75 0.95,-1.12l0.02 0 0 -0.03c0.32,-0.37 0.64,-0.74 0.96,-1.11l0.01 0 0 -0.01 0.13 -0.15 0.03 0 0 -0.03c1.11,-1.25 2.23,-2.48 3.39,-3.68l0 0 0 -0 0.16 -0.16 0.01 0 0 -0.01 0.15 -0.16 0.01 0 0 -0.01 0.15 -0.15 0.01 0 0 -0.01 0.14 -0.15 0.02 0 0 -0.02c0.63,-0.65 1.27,-1.29 1.92,-1.92l0.02 0 0 -0.02 0.15 -0.15 0.02 0 0 -0.01 0.15 -0.15 0.01 0 0 -0.01 0.16 -0.15 0.01 0 0 -0.01 0.16 -0.16 0 0 0 0c1.2,-1.16 2.43,-2.28 3.68,-3.38l0.03 0 0 -0.03 0.15 -0.14 0.01 0 0 -0.01c0.37,-0.32 0.73,-0.64 1.11,-0.96l0.02 0 0 -0.02c0.37,-0.32 0.74,-0.63 1.12,-0.95l0.01 0 0 -0.01c0.58,-0.49 1.17,-0.97 1.77,-1.45l0 0 0 0c0.2,-0.16 0.4,-0.33 0.6,-0.48l0.05 0 0 -0.04 0.15 -0.12 0.01 0 0 -0.01c0.2,-0.16 0.42,-0.32 0.62,-0.48l0.03 0 0 -0.02c0.48,-0.37 0.96,-0.74 1.45,-1.11l0 0 0 -0c0.58,-0.44 1.17,-0.86 1.76,-1.29l0.02 0 0 -0.01c0.37,-0.27 0.74,-0.53 1.12,-0.79l0.01 0 0 -0.01c0.69,-0.49 1.39,-0.97 2.1,-1.44l0 0 0 0c0.73,-0.49 1.47,-0.98 2.21,-1.45l0.05 0 0 -0.03c0.16,-0.1 0.32,-0.2 0.47,-0.29l0.01 0 0 -0.01c0.96,-0.6 1.92,-1.19 2.9,-1.77l0 0 0 -0c0.36,-0.21 0.72,-0.43 1.09,-0.64l0.05 0 0 -0.03c0.36,-0.21 0.74,-0.41 1.11,-0.62l0.02 0 0 -0.01c2.56,-1.44 5.19,-2.78 7.87,-4.02l0.04 0 0 -0.02 0.31 -0.15 0.01 0 0 -0c0.47,-0.22 0.95,-0.43 1.42,-0.64l0.03 0 0 -0.01c0.48,-0.21 0.96,-0.43 1.44,-0.63l0.01 0 0 -0c0.91,-0.39 1.82,-0.76 2.73,-1.12l0.01 0 0 -0 0.41 -0.16 0.07 0 0 -0.03c0.26,-0.1 0.52,-0.2 0.77,-0.3l0.03 0 0 -0.01c1.01,-0.39 2.03,-0.76 3.05,-1.12l0.02 0 0 -0.01 0.44 -0.16 0.04 0 0 -0.01c0.14,-0.05 0.28,-0.1 0.42,-0.15l0.07 0 0 -0.03 0.42 -0.14 0.07 0 0 -0.02c0.14,-0.05 0.29,-0.09 0.43,-0.14l0.06 0 0 -0.02 0.44 -0.14 0.05 0 0 -0.02 0.45 -0.15 0.03 0 0 -0.01c0.68,-0.22 1.37,-0.43 2.05,-0.63l0.05 0 0 -0.01c0.34,-0.1 0.69,-0.21 1.04,-0.31l0.09 0 0 -0.03 0.46 -0.13 0.03 0 0 -0.01c0.19,-0.06 0.38,-0.1 0.57,-0.16l0.07 0 0 -0.02c0.37,-0.1 0.74,-0.2 1.12,-0.3l0.01 0 0 -0c0.84,-0.22 1.68,-0.44 2.53,-0.64l0.05 0 0 -0.01c0.2,-0.05 0.41,-0.1 0.61,-0.15l0.03 0 0 -0.01c0.46,-0.11 0.93,-0.21 1.39,-0.32l0.06 0 0 -0.01c1.01,-0.22 2.03,-0.44 3.06,-0.63l0 0 0 -0c0.28,-0.05 0.56,-0.11 0.84,-0.16l0.13 0 0 -0.03c0.25,-0.05 0.49,-0.09 0.74,-0.14l0.07 0 0 -0.01c0.3,-0.06 0.6,-0.1 0.9,-0.15l0.07 0 0 -0.01c0.64,-0.11 1.28,-0.21 1.92,-0.31l0.01 0 0 0c0.76,-0.11 1.52,-0.22 2.29,-0.32l0.13 0 0 -0.02c0.4,-0.05 0.81,-0.1 1.21,-0.14l0.08 0 0 -0.01c1,-0.12 2.01,-0.22 3.02,-0.32l0.2 0 0 -0.02c0.56,-0.05 1.12,-0.1 1.67,-0.14l0.42 0 0 -0.03c2.71,-0.2 5.46,-0.3 8.22,-0.3l594.76 0c2.77,0 5.51,0.1 8.22,0.3l0 0.03 0.42 0c0.56,0.04 1.12,0.09 1.68,0.14l0 0.02 0.2 0c1.01,0.09 2.02,0.2 3.02,0.32l0 0.01 0.08 0c0.4,0.05 0.81,0.09 1.21,0.14l0 0.02 0.13 0c0.76,0.1 1.53,0.21 2.29,0.32l0 0 0.01 0c0.64,0.1 1.28,0.2 1.92,0.31l0 0.01 0.07 0c0.3,0.05 0.6,0.09 0.9,0.15l0 0.01 0.07 0c0.24,0.05 0.49,0.09 0.73,0.14l0 0.03 0.13 0c0.28,0.05 0.56,0.11 0.84,0.16l0 0 0 0c1.02,0.2 2.04,0.41 3.06,0.63l0 0.01 0.06 0c0.47,0.1 0.93,0.2 1.4,0.32l0 0.01 0.03 0c0.2,0.05 0.41,0.1 0.61,0.15l0 0.01 0.05 0c0.85,0.2 1.69,0.42 2.54,0.64l0 0 0.01 0c0.37,0.1 0.75,0.2 1.12,0.3l0 0.02 0.07 0c0.19,0.06 0.38,0.1 0.57,0.16l0 0.01 0.02 0 0.46 0.13 0 0.03 0.09 0c0.35,0.1 0.69,0.2 1.04,0.31l0 0.01 0.05 0c0.69,0.2 1.37,0.42 2.05,0.63l0 0.01 0.03 0 0.45 0.15 0 0.02 0.04 0 0.44 0.14 0 0.02 0.06 0 0.43 0.14 0 0.02 0.07 0 0.41 0.14 0 0.03 0.07 0c0.14,0.05 0.28,0.1 0.42,0.15l0 0.01 0.04 0 0.44 0.16 0 0.01 0.02 0c1.02,0.36 2.04,0.73 3.05,1.12l0 0.01 0.04 0c0.26,0.1 0.52,0.2 0.77,0.3l0 0.03 0.08 0 0.41 0.16 0 0 0.01 0c0.92,0.36 1.83,0.74 2.73,1.12l0 0 0.01 0c0.48,0.21 0.96,0.42 1.44,0.63l0 0.01 0.03 0c0.47,0.21 0.95,0.42 1.42,0.64l0 0.01 0.01 0 0.31 0.15 0 0.02 0.03 0c2.68,1.24 5.31,2.58 7.87,4.02l0 0.01 0.02 0c0.37,0.21 0.74,0.41 1.11,0.62l0 0.03 0.05 0c0.36,0.21 0.72,0.43 1.08,0.64l0 0 0.01 0c0.98,0.58 1.94,1.16 2.9,1.77l0 0.01 0.01 0c0.16,0.1 0.32,0.2 0.47,0.29l0 0.03 0.04 0c0.74,0.47 1.48,0.96 2.22,1.45l0 0 0 0c0.71,0.47 1.4,0.96 2.09,1.44l0 0.01 0.02 0c0.37,0.26 0.74,0.53 1.12,0.79l0 0.01 0.02 0c0.59,0.43 1.18,0.85 1.76,1.29l0 0 0.01 0c0.48,0.36 0.97,0.74 1.45,1.11l0 0.02 0.02 0c0.21,0.16 0.42,0.32 0.62,0.48l0 0.01 0.01 0 0.15 0.12 0 0.04 0.05 0c0.2,0.16 0.4,0.32 0.59,0.48l0 0 0 0c0.59,0.48 1.19,0.96 1.77,1.45l0 0.01 0.01 0c0.37,0.31 0.75,0.63 1.12,0.95l0 0.02 0.03 0c0.37,0.32 0.74,0.64 1.11,0.96l0 0.01 0.01 0 0.15 0.14 0 0.03 0.03 0c1.25,1.1 2.48,2.23 3.68,3.38l0 0 0 0 0.16 0.16 0 0.01 0.01 0 0.16 0.15 0 0.01 0.01 0 0.15 0.15 0 0.01 0.01 0 0.15 0.15 0 0.02 0.02 0c0.65,0.63 1.29,1.27 1.92,1.92l0 0.02 0.02 0 0.15 0.15 0 0.01 0.01 0 0.15 0.15 0 0.01 0.01 0 0.15 0.16 0 0.01 0.01 0 0.15 0.16 0 0 0 0c1.15,1.2 2.28,2.43 3.38,3.68l0 0.03 0.03 0 0.14 0.15 0 0.01 0.01 0c0.32,0.37 0.64,0.73 0.96,1.11l0 0.03 0.02 0c0.32,0.37 0.63,0.74 0.95,1.12l0 0.01 0.01 0c0.49,0.59 0.97,1.18 1.45,1.77l0 0 0 0c0.16,0.2 0.33,0.4 0.48,0.59l0 0.05 0.04 0 0.12 0.15 0 0.01 0.01 0c0.16,0.2 0.32,0.41 0.48,0.62l0 0.02 0.02 0c0.37,0.48 0.74,0.96 1.11,1.45l0 0 0 0c0.44,0.58 0.86,1.17 1.29,1.76l0 0.02 0.01 0c0.27,0.37 0.53,0.74 0.79,1.12l0 0.01 0.01 0c0.49,0.7 0.97,1.39 1.44,2.1l0 0 0 0c0.49,0.73 0.98,1.47 1.45,2.21l0 0.05 0.03 0c0.1,0.16 0.2,0.32 0.3,0.47l0 0.01 0.01 0c0.6,0.96 1.19,1.92 1.77,2.9l0 0.01 0 0c0.21,0.36 0.43,0.72 0.64,1.08l0 0.05 0.03 0c0.21,0.37 0.41,0.74 0.62,1.11l0 0.02 0.01 0c1.44,2.56 2.78,5.19 4.02,7.87l0 0.03 0.02 0 0.15 0.31 0 0.01 0 0c0.22,0.47 0.43,0.95 0.64,1.42l0 0.03 0.01 0c0.21,0.48 0.43,0.96 0.63,1.44l0 0.01 0 0c0.38,0.91 0.76,1.82 1.12,2.73l0 0.01 0 0 0.16 0.41 0 0.07 0.03 0c0.1,0.26 0.2,0.52 0.3,0.77l0 0.03 0.01 0c0.38,1.01 0.76,2.03 1.12,3.05l0 0.02 0.01 0 0.16 0.44 0 0.04 0.01 0c0.05,0.14 0.1,0.28 0.15,0.42l0 0.07 0.03 0 0.14 0.41 0 0.07 0.02 0c0.05,0.14 0.09,0.28 0.14,0.43l0 0.06 0.02 0 0.14 0.44 0 0.05 0.01 0 0.15 0.45 0 0.03 0.01 0c0.22,0.68 0.43,1.37 0.63,2.05l0 0.05 0.01 0c0.1,0.34 0.21,0.69 0.31,1.04l0 0.09 0.03 0 0.13 0.46 0 0.02 0.01 0c0.05,0.19 0.1,0.38 0.15,0.57l0 0.07 0.02 0c0.1,0.37 0.2,0.75 0.3,1.12l0 0.01 0 0c0.22,0.84 0.44,1.69 0.64,2.54l0 0.05 0.01 0c0.05,0.2 0.1,0.41 0.15,0.61l0 0.03 0.01 0c0.11,0.46 0.21,0.93 0.32,1.4l0 0.05 0.01 0c0.22,1.02 0.43,2.04 0.63,3.06l0 0 0 0c0.05,0.28 0.11,0.56 0.16,0.84l0 0.13 0.03 0c0.05,0.24 0.09,0.49 0.14,0.73l0 0.07 0.01 0c0.05,0.3 0.1,0.6 0.15,0.9l0 0.07 0.01 0c0.11,0.64 0.21,1.28 0.31,1.92l0 0.01 0 0c0.11,0.76 0.22,1.52 0.32,2.29l0 0.13 0.02 0c0.05,0.4 0.09,0.81 0.14,1.21l0 0.08 0.01 0c0.12,1 0.22,2.01 0.31,3.02l0 0.2 0.02 0c0.05,0.56 0.1,1.12 0.14,1.68l0 0.42 0.03 0c0.2,2.72 0.3,5.46 0.3,8.22l0 594.76c0,2.77 -0.1,5.51 -0.29,8.22l-0.03 0 0 0.44c-0.05,0.61 -0.1,1.22 -0.16,1.82l-0.01 0 0 0.06c-0.09,1.01 -0.2,2.01 -0.31,3.01l-0.01 0 0 0.1c-0.05,0.4 -0.09,0.8 -0.14,1.19l-0.02 0 0 0.15c-0.05,0.38 -0.11,0.76 -0.16,1.14l-0 0 0 0.01c-0.14,1.02 -0.3,2.04 -0.47,3.05l-0.02 0 0 0.09c-0.05,0.29 -0.09,0.58 -0.14,0.87l-0.02 0 0 0.1c-0.1,0.56 -0.21,1.12 -0.32,1.67l-0.01 0 0 0.03c-0.2,1.02 -0.4,2.03 -0.62,3.03l-0.02 0 0 0.09c-0.05,0.24 -0.1,0.48 -0.16,0.72l-0.01 0 0 0.02 -0.14 0.62 -0.02 0 0 0.07c-0.05,0.19 -0.09,0.38 -0.14,0.58l-0.02 0 0 0.08c-0.25,1.05 -0.52,2.1 -0.81,3.14l0 0 0 0c-0.1,0.38 -0.2,0.75 -0.31,1.13l-0.02 0 0 0.07c-0.1,0.36 -0.21,0.71 -0.32,1.06l-0.01 0 0 0.03c-0.54,1.84 -1.12,3.66 -1.75,5.45l-0.02 0 0 0.07 -0.15 0.42 -0.01 0 0 0.04 -0.16 0.45 -0 0 0 0.01c-0.31,0.86 -0.63,1.72 -0.96,2.57l-0.01 0 0 0.03c-0.1,0.26 -0.2,0.52 -0.3,0.78l-0.02 0 0 0.06c-0.1,0.25 -0.2,0.5 -0.31,0.75l-0.02 0 0 0.04 -0.31 0.77 -0.01 0 0 0.02c-0.31,0.75 -0.62,1.49 -0.95,2.23l-0.02 0 0 0.04c-0.16,0.36 -0.32,0.73 -0.48,1.09l-0.01 0 0 0.02 -0.14 0.31 -0.02 0 0 0.04c-0.56,1.24 -1.15,2.45 -1.75,3.67l-0.02 0 0 0.04 -0.14 0.28 -0.02 0 0 0.05 -0.14 0.28 -0.03 0 0 0.05 -0.13 0.27 -0.03 0 0 0.05 -0.14 0.27 -0.02 0 0 0.04 -0.15 0.29 -0.01 0 0 0.02 -0.16 0.3 -0 0 0 0.01c-0.62,1.19 -1.26,2.37 -1.93,3.54l-0.01 0 0 0.02c-0.15,0.26 -0.3,0.53 -0.46,0.79l-0.03 0 0 0.05 -0.16 0.27 -0 0 0 0c-0.16,0.27 -0.32,0.53 -0.47,0.8l-0.01 0 0 0.02c-0.32,0.53 -0.64,1.07 -0.96,1.6l-0 0 0 0.01c-0.27,0.43 -0.53,0.86 -0.8,1.28l-0.01 0 0 0.01c-0.1,0.16 -0.2,0.32 -0.3,0.47l-0.03 0 0 0.04c-0.09,0.15 -0.2,0.3 -0.29,0.45l-0.03 0 0 0.05c-0.62,0.97 -1.26,1.91 -1.92,2.86l-0.02 0 0 0.03 -0.32 0.46 -0 0 0 0.01c-0.26,0.38 -0.53,0.75 -0.79,1.12l-0.01 0 0 0.02c-0.58,0.81 -1.17,1.61 -1.77,2.4l-0 0 0 0c-0.37,0.48 -0.73,0.97 -1.11,1.45l-0.02 0 0 0.03c-0.2,0.26 -0.42,0.52 -0.62,0.78l-0.02 0 0 0.03c-0.73,0.92 -1.48,1.82 -2.23,2.71l-0.02 0 0 0.03c-0.27,0.31 -0.53,0.63 -0.8,0.94l-0.01 0 0 0.01 -0.14 0.15 -0.03 0 0 0.03c-0.94,1.08 -1.91,2.15 -2.89,3.2l-0.01 0 0 0.01 -0.14 0.15 -0.02 0 0 0.02 -0.13 0.14 -0.03 0 0 0.03 -0.12 0.13 -0.04 0 0 0.05c-1.4,1.48 -2.84,2.91 -4.32,4.31l-0.03 0 0 0.03 -0.14 0.13 -0.02 0 0 0.02 -0.15 0.14 -0.01 0 0 0.01c-1.05,0.98 -2.11,1.95 -3.19,2.89l-0.04 0 0 0.03 -0.15 0.13 -0.01 0 0 0.01c-0.37,0.32 -0.75,0.64 -1.13,0.96l0 0 0 0c-0.84,0.71 -1.69,1.41 -2.55,2.1l-0.03 0 0 0.03c-0.26,0.2 -0.52,0.41 -0.78,0.62l-0.03 0 0 0.02c-0.48,0.37 -0.96,0.74 -1.44,1.11l-0.01 0 0 0.01c-0.43,0.32 -0.85,0.64 -1.29,0.96l-0 0 0 0c-0.36,0.27 -0.73,0.54 -1.1,0.8l-0.03 0 0 0.02c-0.37,0.27 -0.74,0.53 -1.12,0.79l-0.01 0 0 0.01c-1.26,0.88 -2.53,1.74 -3.82,2.57l-0.05 0 0 0.03c-0.15,0.1 -0.31,0.2 -0.46,0.29l-0.02 0 0 0.01c-0.95,0.6 -1.91,1.19 -2.87,1.76l-0.03 0 0 0.02c-0.26,0.16 -0.53,0.31 -0.79,0.47l-0.02 0 0 0.01c-0.37,0.21 -0.73,0.43 -1.11,0.64l-0.02 0 0 0.01c-1.06,0.6 -2.14,1.19 -3.22,1.76l0 0 0 0 -0.31 0.16 -0.02 0 0 0.01 -0.29 0.15 -0.04 0 0 0.02 -0.27 0.14 -0.05 0 0 0.03 -0.26 0.13 -0.06 0 0 0.03 -0.26 0.13 -0.06 0 0 0.03c-0.85,0.43 -1.71,0.85 -2.57,1.26l-0.01 0 0 0c-0.57,0.27 -1.14,0.54 -1.72,0.8l-0.06 0 0 0.03 -0.29 0.13 -0.03 0 0 0.01c-0.48,0.21 -0.96,0.42 -1.44,0.63l-0.01 0 0 0c-0.89,0.38 -1.78,0.76 -2.69,1.12l-0.06 0 0 0.02c-0.24,0.1 -0.49,0.2 -0.73,0.3l-0.07 0 0 0.03c-0.25,0.1 -0.51,0.2 -0.76,0.29l-0.04 0 0 0.02c-0.7,0.27 -1.39,0.54 -2.1,0.79 -0.15,0.06 -0.3,0.1 -0.46,0.16l-0.03 0 0 0.01c-1.76,0.63 -3.53,1.22 -5.32,1.77 -0.36,0.11 -0.72,0.21 -1.08,0.32l-0.05 0 0 0.01c-0.35,0.1 -0.7,0.21 -1.05,0.31l-0.08 0 0 0.02c-0.37,0.1 -0.74,0.2 -1.11,0.3l-0.02 0 0 0.01c-1.04,0.28 -2.08,0.55 -3.13,0.8l-0.1 0 0 0.03c-0.19,0.05 -0.37,0.09 -0.56,0.14l-0.08 0 0 0.02 -0.61 0.14 -0.04 0 0 0.01c-0.48,0.11 -0.96,0.21 -1.45,0.32l-0.01 0 0 0c-0.79,0.17 -1.58,0.33 -2.37,0.48l-0.05 0 0 0.01c-0.27,0.05 -0.53,0.1 -0.79,0.15l-0.01 0 0 0c-0.29,0.05 -0.57,0.11 -0.85,0.16l-0.11 0 0 0.02c-0.29,0.05 -0.57,0.09 -0.86,0.14l-0.11 0 0 0.02c-1.01,0.17 -2.02,0.33 -3.04,0.46l-0.03 0 0 0.01c-0.37,0.05 -0.75,0.11 -1.12,0.16l-0.17 0 0 0.02c-0.39,0.05 -0.79,0.09 -1.18,0.14l-0.11 0 0 0.01c-0.99,0.12 -2,0.22 -3,0.31l-0.06 0 0 0.01c-0.6,0.05 -1.21,0.11 -1.81,0.15l-0.45 0 0 0.03c-2.72,0.2 -5.46,0.3 -8.22,0.3l-594.76 0c-2.77,0 -5.51,-0.1 -8.22,-0.3z"/>
  <g>
   <path class="fil3" d="M557.43 313.93l8.71 -1.01 -2.22 -3.33 1.07 0.61 1.07 0.64 1.06 0.66 1.04 0.68 1.02 0.7 1.01 0.72 0.99 0.74 0.98 0.76 0.97 0.79 0.95 0.81 0.94 0.83 0.92 0.85 0.9 0.87 0.89 0.89 0.87 0.91 0.85 0.93 0.84 0.95 0.82 0.96 0.8 0.99 0.78 1.01 0.76 1.02 0.74 1.05 0.72 1.06 0.7 1.08 0.68 1.11 0.65 1.12 0.64 1.14 0.61 1.15 0.59 1.17 0.57 1.19 0.54 1.21 0.52 1.22 -8.11 3.35 -0.45 -1.05 -0.47 -1.04 -0.48 -1.02 -0.51 -1 -0.52 -0.99 -0.55 -0.97 -0.56 -0.96 -0.58 -0.94 -0.6 -0.93 -0.61 -0.91 -0.63 -0.89 -0.65 -0.88 -0.66 -0.85 -0.68 -0.84 -0.71 -0.83 -0.71 -0.81 -0.73 -0.79 -0.74 -0.78 -0.76 -0.76 -0.77 -0.74 -0.79 -0.72 -0.8 -0.71 -0.82 -0.69 -0.83 -0.67 -0.84 -0.65 -0.85 -0.64 -0.87 -0.62 -0.88 -0.6 -0.89 -0.58 -0.89 -0.56 -0.91 -0.54 -0.92 -0.53 -2.22 -3.33zm2.22 3.33l-1.97 -1.1 -0.26 -2.23 2.22 3.33zm-17.05 -34.02l6.21 -6.2 -0 0 0.93 0.95 0.9 0.97 0.88 0.98 0.85 0.99 0.83 1.01 0.81 1.03 0.78 1.03 0.75 1.05 0.73 1.06 0.71 1.08 0.68 1.09 0.65 1.09 0.63 1.11 0.6 1.12 0.58 1.12 0.56 1.13 0.53 1.14 0.51 1.16 0.48 1.16 0.46 1.17 0.43 1.18 0.4 1.18 0.38 1.19 0.35 1.19 0.33 1.2 0.3 1.2 0.28 1.22 0.25 1.21 0.23 1.22 0.2 1.23 0.18 1.22 0.15 1.23 -8.71 1.01 -0.13 -1.06 -0.15 -1.05 -0.17 -1.04 -0.2 -1.04 -0.22 -1.04 -0.24 -1.03 -0.26 -1.03 -0.28 -1.03 -0.3 -1.02 -0.32 -1.01 -0.34 -1.01 -0.37 -1 -0.39 -1 -0.41 -0.99 -0.43 -0.98 -0.46 -0.98 -0.47 -0.97 -0.49 -0.96 -0.51 -0.95 -0.54 -0.94 -0.56 -0.95 -0.58 -0.92 -0.6 -0.91 -0.62 -0.9 -0.65 -0.9 -0.67 -0.89 -0.68 -0.87 -0.71 -0.86 -0.73 -0.85 -0.75 -0.84 -0.77 -0.83 -0.79 -0.81 -0 0zm-34 -17.08l7.67 -4.26 -3.33 -2.23 1.23 0.15 1.23 0.18 1.22 0.2 1.22 0.23 1.21 0.26 1.21 0.28 1.2 0.3 1.2 0.33 1.2 0.35 1.19 0.38 1.18 0.4 1.18 0.43 1.16 0.46 1.16 0.48 1.15 0.5 1.14 0.53 1.14 0.56 1.13 0.59 1.11 0.6 1.1 0.63 1.1 0.66 1.08 0.68 1.07 0.7 1.06 0.73 1.04 0.75 1.04 0.78 1.02 0.81 1 0.83 1 0.86 0.98 0.88 0.96 0.9 0.95 0.93 -6.21 6.2 -0.81 -0.8 -0.83 -0.77 -0.84 -0.76 -0.85 -0.72 -0.87 -0.72 -0.87 -0.69 -0.89 -0.66 -0.9 -0.65 -0.9 -0.62 -0.92 -0.61 -0.93 -0.59 -0.93 -0.56 -0.95 -0.54 -0.96 -0.52 -0.96 -0.49 -0.97 -0.47 -0.98 -0.46 -0.98 -0.43 -0.99 -0.41 -1 -0.39 -1 -0.37 -1.01 -0.34 -1.02 -0.33 -1.02 -0.3 -1.03 -0.28 -1.03 -0.26 -1.03 -0.24 -1.04 -0.22 -1.04 -0.2 -1.05 -0.17 -1.05 -0.16 -1.05 -0.13 -3.33 -2.23zm3.33 2.23l-2.23 -0.26 -1.09 -1.97 3.33 2.23zm-28.79 -24.93l3.36 -8.1 0 0 1.22 0.52 1.2 0.55 1.19 0.57 1.17 0.59 1.15 0.62 1.13 0.64 1.12 0.66 1.1 0.68 1.08 0.7 1.06 0.72 1.04 0.74 1.03 0.77 1 0.78 0.98 0.8 0.97 0.82 0.95 0.84 0.93 0.85 0.91 0.87 0.89 0.89 0.87 0.91 0.85 0.92 0.83 0.95 0.81 0.95 0.78 0.97 0.76 0.98 0.74 1 0.72 1.01 0.69 1.02 0.68 1.03 0.66 1.06 0.63 1.06 0.61 1.08 -7.67 4.26 -0.53 -0.92 -0.54 -0.91 -0.56 -0.89 -0.58 -0.89 -0.6 -0.88 -0.61 -0.86 -0.63 -0.85 -0.65 -0.84 -0.68 -0.84 -0.68 -0.82 -0.71 -0.8 -0.73 -0.79 -0.74 -0.77 -0.76 -0.76 -0.78 -0.74 -0.79 -0.73 -0.81 -0.72 -0.83 -0.7 -0.84 -0.68 -0.86 -0.67 -0.87 -0.65 -0.89 -0.63 -0.91 -0.62 -0.93 -0.6 -0.94 -0.58 -0.96 -0.57 -0.98 -0.55 -0.98 -0.53 -1 -0.51 -1.02 -0.49 -1.03 -0.47 -1.05 -0.45 0 0zm-19.87 -3.98l0 -8.77 0 0 0.72 0 0.73 0.01 0.73 0.02 0.73 0.03 0.73 0.04 0.74 0.05 0.73 0.06 0.72 0.07 0.73 0.07 0.74 0.08 0.73 0.09 0.73 0.1 0.73 0.11 0.73 0.12 0.72 0.13 0.74 0.14 0.73 0.15 0.73 0.16 0.72 0.17 0.72 0.17 0.73 0.19 0.72 0.2 0.72 0.2 0.73 0.22 0.72 0.22 0.72 0.23 0.73 0.25 0.71 0.25 0.72 0.26 0.72 0.28 0.71 0.28 0.72 0.29 -3.36 8.1 -0.61 -0.25 -0.62 -0.24 -0.61 -0.23 -0.61 -0.22 -0.63 -0.22 -0.61 -0.21 -0.61 -0.2 -0.62 -0.2 -0.61 -0.18 -0.62 -0.18 -0.63 -0.17 -0.61 -0.16 -0.63 -0.15 -0.62 -0.14 -0.62 -0.14 -0.62 -0.13 -0.61 -0.12 -0.64 -0.11 -0.63 -0.11 -0.62 -0.09 -0.62 -0.09 -0.63 -0.08 -0.61 -0.07 -0.63 -0.06 -0.63 -0.06 -0.62 -0.05 -0.61 -0.04 -0.62 -0.03 -0.62 -0.03 -0.62 -0.02 -0.62 -0.01 -0.62 -0 0 0zm-18.17 1.21l5.46 -6.87 -3.93 -0.79 0.51 -0.14 0.5 -0.13 0.49 -0.13 0.51 -0.13 0.52 -0.13 0.52 -0.12 0.52 -0.12 0.51 -0.11 0.51 -0.11 0.52 -0.1 0.51 -0.09 0.53 -0.1 0.52 -0.09 0.51 -0.08 0.51 -0.08 0.53 -0.08 0.53 -0.07 0.51 -0.07 0.53 -0.07 0.52 -0.06 0.52 -0.06 0.55 -0.05 0.53 -0.04 0.52 -0.04 0.52 -0.04 0.53 -0.03 0.54 -0.03 0.52 -0.02 0.54 -0.02 0.54 -0.01 0.52 -0.01 0.54 -0 0 8.77 -0.45 0 -0.46 0.01 -0.45 0.01 -0.45 0.01 -0.46 0.02 -0.45 0.02 -0.45 0.03 -0.46 0.03 -0.46 0.03 -0.45 0.04 -0.43 0.04 -0.46 0.05 -0.46 0.05 -0.44 0.05 -0.46 0.06 -0.44 0.06 -0.44 0.07 -0.45 0.07 -0.46 0.07 -0.44 0.07 -0.44 0.08 -0.45 0.09 -0.44 0.08 -0.45 0.09 -0.44 0.09 -0.43 0.1 -0.43 0.1 -0.43 0.11 -0.44 0.11 -0.44 0.12 -0.44 0.12 -0.43 0.12 -3.93 -0.79zm3.93 0.79l-2.17 0.62 -1.77 -1.4 3.93 0.79zm-36.19 -12.03l0 -8.77 0 0 1.33 0.01 1.33 0.04 1.32 0.07 1.3 0.1 1.31 0.13 1.3 0.15 1.29 0.18 1.27 0.21 1.27 0.23 1.26 0.26 1.25 0.29 1.24 0.31 1.23 0.33 1.23 0.36 1.21 0.39 1.19 0.41 1.19 0.44 1.18 0.46 1.17 0.48 1.15 0.51 1.13 0.53 1.12 0.55 1.12 0.58 1.1 0.59 1.08 0.61 1.07 0.64 1.06 0.66 1.04 0.68 1.03 0.71 1.01 0.72 0.99 0.74 0.98 0.76 -5.46 6.87 -0.84 -0.65 -0.85 -0.64 -0.86 -0.62 -0.88 -0.6 -0.89 -0.58 -0.9 -0.57 -0.91 -0.54 -0.93 -0.53 -0.94 -0.51 -0.95 -0.49 -0.96 -0.47 -0.98 -0.46 -0.98 -0.44 -0.99 -0.41 -1 -0.39 -1.01 -0.37 -1.03 -0.35 -1.03 -0.33 -1.03 -0.31 -1.05 -0.29 -1.07 -0.27 -1.06 -0.25 -1.08 -0.22 -1.09 -0.2 -1.09 -0.18 -1.1 -0.16 -1.11 -0.13 -1.11 -0.11 -1.13 -0.08 -1.13 -0.06 -1.13 -0.04 -1.14 -0.01 0 0zm-36.13 11.98l2.4 -8.44 -3.92 0.78 0.98 -0.76 0.99 -0.73 1.01 -0.72 1.02 -0.7 1.04 -0.68 1.05 -0.66 1.07 -0.64 1.09 -0.61 1.1 -0.59 1.11 -0.57 1.12 -0.55 1.14 -0.53 1.14 -0.5 1.16 -0.48 1.17 -0.46 1.18 -0.44 1.2 -0.41 1.21 -0.39 1.22 -0.36 1.22 -0.33 1.24 -0.31 1.25 -0.29 1.25 -0.26 1.27 -0.23 1.27 -0.21 1.29 -0.18 1.3 -0.15 1.29 -0.12 1.31 -0.1 1.32 -0.07 1.32 -0.04 1.33 -0.01 0 8.77 -1.14 0.01 -1.13 0.04 -1.12 0.06 -1.12 0.09 -1.12 0.11 -1.1 0.13 -1.1 0.16 -1.09 0.18 -1.09 0.2 -1.08 0.22 -1.06 0.24 -1.06 0.27 -1.06 0.29 -1.04 0.31 -1.02 0.33 -1.02 0.35 -1.01 0.37 -1.01 0.4 -0.99 0.41 -0.98 0.43 -0.97 0.45 -0.96 0.47 -0.95 0.49 -0.93 0.5 -0.92 0.53 -0.92 0.55 -0.9 0.56 -0.89 0.58 -0.87 0.59 -0.86 0.62 -0.85 0.63 -0.83 0.65 -3.92 0.78zm3.92 -0.78l-1.76 1.39 -2.16 -0.61 3.92 -0.78zm-18.14 -1.21l0 -8.77 0 0 0.53 0 0.52 0.01 0.54 0.01 0.53 0.02 0.52 0.02 0.52 0.02 0.54 0.03 0.53 0.04 0.53 0.04 0.53 0.05 0.52 0.05 0.51 0.05 0.53 0.06 0.53 0.07 0.52 0.07 0.51 0.07 0.53 0.07 0.53 0.08 0.51 0.08 0.52 0.09 0.52 0.1 0.51 0.1 0.5 0.1 0.52 0.11 0.51 0.11 0.5 0.11 0.53 0.12 0.5 0.12 0.5 0.13 0.51 0.14 0.49 0.13 0.51 0.14 -2.4 8.44 -0.43 -0.12 -0.44 -0.12 -0.42 -0.11 -0.44 -0.11 -0.45 -0.11 -0.41 -0.1 -0.45 -0.1 -0.44 -0.1 -0.44 -0.09 -0.45 -0.09 -0.44 -0.08 -0.44 -0.08 -0.44 -0.07 -0.45 -0.07 -0.44 -0.07 -0.44 -0.06 -0.45 -0.06 -0.45 -0.06 -0.44 -0.05 -0.45 -0.05 -0.46 -0.05 -0.46 -0.04 -0.45 -0.04 -0.44 -0.03 -0.45 -0.03 -0.45 -0.02 -0.46 -0.02 -0.46 -0.02 -0.45 -0.01 -0.45 -0.01 -0.46 -0.01 -0.45 -0 0 0zm-19.83 3.96l-3.35 -8.11 0 0 0.71 -0.29 0.72 -0.28 0.72 -0.27 0.71 -0.26 0.71 -0.25 0.72 -0.24 0.72 -0.23 0.72 -0.22 0.73 -0.22 0.73 -0.2 0.72 -0.19 0.72 -0.18 0.72 -0.18 0.72 -0.17 0.73 -0.16 0.74 -0.15 0.73 -0.14 0.71 -0.13 0.72 -0.12 0.74 -0.11 0.74 -0.1 0.73 -0.09 0.72 -0.08 0.73 -0.08 0.74 -0.07 0.73 -0.06 0.73 -0.05 0.72 -0.04 0.73 -0.03 0.72 -0.02 0.73 -0.01 0.72 -0 0 8.77 -0.62 0 -0.62 0.01 -0.62 0.02 -0.62 0.03 -0.62 0.03 -0.62 0.04 -0.62 0.05 -0.61 0.06 -0.62 0.07 -0.63 0.07 -0.62 0.08 -0.61 0.08 -0.61 0.09 -0.62 0.1 -0.64 0.11 -0.62 0.12 -0.61 0.13 -0.61 0.13 -0.62 0.15 -0.62 0.15 -0.62 0.16 -0.63 0.17 -0.61 0.17 -0.61 0.18 -0.62 0.19 -0.62 0.2 -0.61 0.2 -0.62 0.22 -0.62 0.22 -0.6 0.23 -0.61 0.24 -0.61 0.25 0 0zm-28.81 24.9l-1.01 -8.71 -3.33 2.22 0.61 -1.08 0.63 -1.06 0.66 -1.05 0.68 -1.04 0.7 -1.03 0.72 -1.01 0.74 -1 0.76 -0.98 0.78 -0.97 0.81 -0.96 0.83 -0.94 0.85 -0.92 0.87 -0.9 0.88 -0.89 0.91 -0.87 0.93 -0.85 0.95 -0.84 0.97 -0.82 0.99 -0.8 1.01 -0.78 1.02 -0.76 1.05 -0.74 1.06 -0.72 1.09 -0.71 1.1 -0.68 1.11 -0.65 1.14 -0.64 1.15 -0.61 1.17 -0.59 1.19 -0.57 1.21 -0.55 1.22 -0.52 3.35 8.11 -1.05 0.45 -1.03 0.47 -1.02 0.49 -1.01 0.51 -0.98 0.52 -0.97 0.54 -0.96 0.57 -0.94 0.58 -0.92 0.59 -0.91 0.62 -0.89 0.63 -0.88 0.65 -0.86 0.67 -0.84 0.68 -0.83 0.7 -0.81 0.71 -0.79 0.73 -0.77 0.74 -0.76 0.76 -0.74 0.77 -0.72 0.79 -0.71 0.8 -0.69 0.81 -0.67 0.83 -0.66 0.84 -0.63 0.85 -0.62 0.87 -0.6 0.87 -0.58 0.89 -0.57 0.9 -0.54 0.91 -0.52 0.92 -3.33 2.22zm3.33 -2.22l-1.09 1.96 -2.24 0.26 3.33 -2.22zm-34.02 17.06l-6.2 -6.2 0 -0 0.95 -0.93 0.97 -0.9 0.98 -0.88 0.99 -0.85 1.01 -0.83 1.02 -0.8 1.04 -0.78 1.05 -0.75 1.06 -0.73 1.07 -0.7 1.09 -0.68 1.09 -0.65 1.11 -0.63 1.12 -0.6 1.12 -0.58 1.13 -0.56 1.14 -0.53 1.15 -0.5 1.16 -0.48 1.17 -0.45 1.18 -0.43 1.18 -0.4 1.19 -0.38 1.2 -0.35 1.2 -0.33 1.2 -0.3 1.22 -0.28 1.21 -0.25 1.21 -0.23 1.22 -0.2 1.23 -0.18 1.23 -0.15 1.01 8.71 -1.05 0.13 -1.05 0.16 -1.05 0.17 -1.04 0.2 -1.04 0.22 -1.03 0.24 -1.03 0.26 -1.03 0.28 -1.02 0.3 -1.02 0.33 -1.01 0.34 -1.01 0.37 -1 0.39 -0.99 0.41 -0.99 0.43 -0.98 0.45 -0.97 0.47 -0.97 0.5 -0.96 0.52 -0.94 0.54 -0.94 0.56 -0.92 0.58 -0.91 0.6 -0.91 0.62 -0.89 0.64 -0.89 0.67 -0.87 0.69 -0.86 0.71 -0.85 0.73 -0.84 0.75 -0.83 0.77 -0.81 0.8 0 -0zm-17.07 34.01l-4.27 -7.67 -2.22 3.33 0.15 -1.23 0.18 -1.23 0.2 -1.22 0.23 -1.22 0.26 -1.21 0.28 -1.21 0.3 -1.2 0.33 -1.2 0.35 -1.19 0.38 -1.19 0.41 -1.19 0.43 -1.17 0.45 -1.17 0.48 -1.16 0.5 -1.15 0.53 -1.15 0.56 -1.13 0.58 -1.12 0.61 -1.12 0.62 -1.1 0.66 -1.1 0.68 -1.08 0.7 -1.07 0.73 -1.06 0.75 -1.04 0.78 -1.04 0.81 -1.02 0.83 -1 0.85 -0.99 0.88 -0.98 0.91 -0.97 0.93 -0.95 6.2 6.2 -0.8 0.81 -0.78 0.83 -0.75 0.84 -0.73 0.85 -0.72 0.87 -0.69 0.87 -0.66 0.89 -0.65 0.9 -0.62 0.9 -0.6 0.92 -0.58 0.93 -0.56 0.93 -0.54 0.95 -0.52 0.95 -0.49 0.96 -0.48 0.97 -0.45 0.97 -0.43 0.99 -0.41 0.99 -0.39 1 -0.37 1.01 -0.34 1 -0.32 1.01 -0.31 1.02 -0.28 1.03 -0.26 1.03 -0.24 1.03 -0.22 1.04 -0.2 1.04 -0.17 1.05 -0.16 1.05 -0.13 1.05 -2.22 3.33zm2.22 -3.33l-0.26 2.23 -1.96 1.09 2.22 -3.33zm-24.92 28.8l-8.1 -3.36 0 0 0.52 -1.22 0.55 -1.21 0.57 -1.19 0.59 -1.16 0.61 -1.15 0.64 -1.14 0.66 -1.12 0.68 -1.1 0.7 -1.08 0.72 -1.06 0.74 -1.04 0.76 -1.03 0.78 -1 0.8 -0.98 0.82 -0.97 0.84 -0.95 0.85 -0.93 0.87 -0.91 0.89 -0.89 0.9 -0.86 0.92 -0.85 0.94 -0.83 0.95 -0.81 0.97 -0.79 0.99 -0.76 0.99 -0.74 1.01 -0.72 1.03 -0.7 1.03 -0.68 1.05 -0.66 1.07 -0.64 1.07 -0.61 4.27 7.67 -0.92 0.53 -0.91 0.54 -0.9 0.57 -0.89 0.58 -0.87 0.6 -0.86 0.62 -0.86 0.64 -0.84 0.65 -0.83 0.67 -0.82 0.69 -0.8 0.71 -0.79 0.72 -0.77 0.74 -0.76 0.76 -0.74 0.77 -0.73 0.8 -0.72 0.81 -0.7 0.83 -0.69 0.85 -0.67 0.85 -0.65 0.88 -0.63 0.89 -0.62 0.91 -0.6 0.92 -0.58 0.94 -0.57 0.95 -0.54 0.97 -0.52 0.99 -0.51 1.01 -0.49 1.01 -0.47 1.03 -0.45 1.05 0 0zm-8.34 16.37l0 8.77 -4.39 -4.31 -0.01 -0.75 0 -0.75 0.01 -0.76 0.02 -0.76 0.03 -0.75 0.04 -0.76 0.05 -0.76 0.06 -0.77 0.07 -0.75 0.08 -0.76 0.09 -0.77 0.1 -0.74 0.1 -0.76 0.12 -0.77 0.13 -0.75 0.14 -0.75 0.15 -0.76 0.16 -0.76 0.17 -0.76 0.18 -0.76 0.19 -0.75 0.2 -0.75 0.21 -0.75 0.22 -0.76 0.23 -0.75 0.24 -0.74 0.25 -0.76 0.26 -0.75 0.27 -0.74 0.28 -0.75 0.29 -0.74 0.3 -0.74 8.1 3.36 -0.26 0.64 -0.25 0.64 -0.24 0.63 -0.23 0.65 -0.22 0.64 -0.21 0.63 -0.2 0.65 -0.2 0.64 -0.19 0.64 -0.18 0.65 -0.17 0.64 -0.16 0.65 -0.15 0.65 -0.14 0.65 -0.13 0.64 -0.13 0.65 -0.12 0.66 -0.11 0.66 -0.1 0.64 -0.09 0.64 -0.08 0.67 -0.08 0.64 -0.07 0.65 -0.06 0.66 -0.05 0.64 -0.04 0.65 -0.03 0.65 -0.03 0.65 -0.02 0.64 -0.01 0.64 0 0.65 0.01 0.65 -4.39 -4.31zm0 8.77l-4.31 0 -0.07 -4.31 4.39 4.31zm55.52 0l-55.52 0 0 -8.77 55.52 0 4.07 6.03 -4.07 2.74zm4.07 -2.74l-1.11 2.74 -2.96 0 4.07 -2.74zm21.87 -48.49l6.2 6.2 0 0 -1.14 1.16 -1.13 1.17 -1.11 1.18 -1.1 1.2 -1.08 1.2 -1.06 1.22 -1.04 1.23 -1.02 1.24 -1.01 1.25 -0.99 1.26 -0.98 1.27 -0.96 1.28 -0.94 1.29 -0.92 1.3 -0.91 1.31 -0.89 1.32 -0.87 1.33 -0.85 1.34 -0.84 1.35 -0.82 1.36 -0.8 1.37 -0.78 1.38 -0.76 1.39 -0.75 1.39 -0.73 1.4 -0.71 1.42 -0.7 1.42 -0.67 1.43 -0.66 1.43 -0.64 1.45 -0.62 1.46 -0.6 1.46 -8.13 -3.29 0.65 -1.56 0.66 -1.55 0.68 -1.55 0.7 -1.54 0.72 -1.53 0.74 -1.52 0.76 -1.51 0.78 -1.51 0.8 -1.49 0.82 -1.48 0.84 -1.48 0.85 -1.47 0.87 -1.45 0.89 -1.45 0.91 -1.43 0.93 -1.42 0.95 -1.42 0.97 -1.4 0.99 -1.39 1 -1.38 1.02 -1.37 1.04 -1.36 1.06 -1.35 1.08 -1.33 1.1 -1.33 1.12 -1.31 1.13 -1.3 1.15 -1.29 1.17 -1.27 1.19 -1.26 1.2 -1.25 1.22 -1.24 0 0zm96.31 -39.88l0 8.77 0 0 -3.19 0.04 -3.18 0.12 -3.16 0.2 -3.15 0.27 -3.12 0.34 -3.11 0.42 -3.09 0.49 -3.07 0.57 -3.05 0.64 -3.03 0.72 -3.01 0.79 -2.98 0.86 -2.95 0.94 -2.93 1.01 -2.91 1.08 -2.87 1.15 -2.85 1.22 -2.82 1.29 -2.78 1.36 -2.75 1.43 -2.72 1.5 -2.68 1.57 -2.65 1.64 -2.61 1.7 -2.57 1.77 -2.54 1.84 -2.5 1.9 -2.45 1.96 -2.41 2.03 -2.37 2.1 -2.33 2.16 -2.28 2.23 -6.2 -6.2 2.43 -2.38 2.48 -2.31 2.53 -2.24 2.57 -2.17 2.63 -2.11 2.67 -2.03 2.7 -1.96 2.76 -1.89 2.79 -1.82 2.83 -1.75 2.87 -1.68 2.91 -1.6 2.94 -1.53 2.98 -1.46 3.01 -1.38 3.04 -1.31 3.08 -1.23 3.11 -1.15 3.13 -1.07 3.16 -1 3.19 -0.93 3.22 -0.84 3.24 -0.77 3.26 -0.69 3.28 -0.61 3.3 -0.53 3.32 -0.45 3.34 -0.37 3.35 -0.29 3.37 -0.21 3.39 -0.12 3.4 -0.04 0 0zm96.31 39.88l-6.2 6.2 0 0 -2.28 -2.23 -2.33 -2.16 -2.37 -2.1 -2.41 -2.03 -2.45 -1.96 -2.5 -1.9 -2.54 -1.84 -2.57 -1.77 -2.61 -1.7 -2.65 -1.64 -2.68 -1.57 -2.72 -1.5 -2.75 -1.43 -2.78 -1.36 -2.82 -1.29 -2.85 -1.23 -2.87 -1.15 -2.9 -1.08 -2.93 -1.01 -2.95 -0.94 -2.98 -0.86 -3.01 -0.79 -3.03 -0.72 -3.05 -0.64 -3.07 -0.57 -3.09 -0.49 -3.11 -0.42 -3.12 -0.34 -3.15 -0.27 -3.16 -0.2 -3.18 -0.12 -3.19 -0.04 0 -8.77 3.4 0.04 3.39 0.12 3.37 0.21 3.35 0.29 3.35 0.37 3.32 0.45 3.3 0.53 3.28 0.61 3.26 0.69 3.23 0.77 3.22 0.84 3.19 0.93 3.16 1 3.13 1.07 3.1 1.15 3.08 1.23 3.04 1.3 3.01 1.38 2.98 1.46 2.94 1.53 2.91 1.6 2.87 1.68 2.83 1.75 2.79 1.82 2.75 1.89 2.71 1.96 2.67 2.03 2.63 2.11 2.57 2.17 2.53 2.24 2.48 2.31 2.43 2.38 0 0zm25.94 42.46l0 8.77 -4.07 -2.74 -0.6 -1.46 -0.62 -1.46 -0.64 -1.45 -0.66 -1.43 -0.68 -1.43 -0.69 -1.42 -0.71 -1.41 -0.73 -1.41 -0.74 -1.39 -0.76 -1.39 -0.78 -1.38 -0.8 -1.37 -0.82 -1.36 -0.84 -1.35 -0.85 -1.34 -0.87 -1.34 -0.88 -1.32 -0.91 -1.31 -0.93 -1.31 -0.94 -1.29 -0.96 -1.28 -0.98 -1.27 -0.99 -1.25 -1.01 -1.25 -1.03 -1.24 -1.04 -1.23 -1.06 -1.22 -1.08 -1.2 -1.1 -1.2 -1.11 -1.18 -1.13 -1.17 -1.14 -1.16 6.2 -6.2 1.22 1.24 1.2 1.25 1.19 1.26 1.17 1.27 1.15 1.29 1.13 1.3 1.12 1.31 1.09 1.33 1.08 1.33 1.06 1.35 1.04 1.36 1.02 1.37 1 1.38 0.98 1.39 0.97 1.4 0.95 1.42 0.93 1.42 0.91 1.43 0.89 1.45 0.87 1.45 0.85 1.47 0.84 1.47 0.82 1.49 0.8 1.5 0.78 1.5 0.76 1.51 0.74 1.52 0.72 1.53 0.7 1.54 0.68 1.55 0.66 1.55 0.65 1.56 -4.07 -2.74zm0 8.77l-2.96 0 -1.11 -2.74 4.07 2.74zm55.56 0l-55.56 0 0 -8.77 55.56 0 4.39 4.45 -4.39 4.32zm4.39 -4.32l-0.07 4.32 -4.32 0 4.39 -4.32zm-12.71 -20.7l8.11 -3.35 0 0 0.3 0.74 0.29 0.74 0.28 0.73 0.27 0.74 0.26 0.75 0.25 0.74 0.24 0.75 0.23 0.75 0.21 0.75 0.2 0.74 0.2 0.75 0.19 0.76 0.18 0.75 0.16 0.76 0.16 0.75 0.14 0.75 0.14 0.76 0.13 0.76 0.12 0.75 0.11 0.76 0.1 0.76 0.09 0.76 0.08 0.75 0.07 0.75 0.06 0.76 0.05 0.75 0.04 0.75 0.03 0.76 0.02 0.76 0.01 0.75 0 0.75 -0.01 0.75 -8.77 -0.14 0.01 -0.64 -0 -0.65 -0.01 -0.65 -0.02 -0.64 -0.03 -0.64 -0.04 -0.65 -0.04 -0.65 -0.05 -0.64 -0.06 -0.65 -0.07 -0.65 -0.07 -0.64 -0.08 -0.64 -0.09 -0.64 -0.1 -0.65 -0.11 -0.64 -0.12 -0.64 -0.13 -0.65 -0.13 -0.65 -0.14 -0.64 -0.15 -0.64 -0.16 -0.64 -0.17 -0.64 -0.18 -0.65 -0.19 -0.64 -0.19 -0.64 -0.2 -0.63 -0.21 -0.64 -0.22 -0.64 -0.23 -0.63 -0.24 -0.64 -0.25 -0.63 -0.26 -0.63 0 0z"/>
  </g>
  <g>
   <path class="fil3" d="M316.54 509.16l6.2 -6.2 0 0 2.28 2.23 2.32 2.17 2.37 2.1 2.41 2.03 2.45 1.97 2.5 1.9 2.54 1.83 2.57 1.77 2.61 1.7 2.65 1.64 2.68 1.57 2.72 1.5 2.75 1.43 2.79 1.36 2.81 1.29 2.84 1.22 2.87 1.15 2.91 1.08 2.93 1.01 2.95 0.94 2.98 0.86 3.01 0.79 3.03 0.72 3.05 0.64 3.07 0.57 3.09 0.49 3.11 0.42 3.12 0.34 3.15 0.27 3.16 0.2 3.18 0.12 3.19 0.04 0 8.77 -3.4 -0.04 -3.39 -0.12 -3.37 -0.21 -3.35 -0.29 -3.34 -0.37 -3.32 -0.45 -3.3 -0.53 -3.28 -0.61 -3.26 -0.69 -3.24 -0.77 -3.22 -0.84 -3.19 -0.93 -3.16 -1 -3.13 -1.08 -3.11 -1.15 -3.08 -1.23 -3.05 -1.31 -3.01 -1.38 -2.97 -1.45 -2.94 -1.53 -2.91 -1.6 -2.87 -1.68 -2.83 -1.75 -2.79 -1.82 -2.76 -1.89 -2.7 -1.96 -2.67 -2.03 -2.62 -2.1 -2.57 -2.17 -2.53 -2.24 -2.49 -2.31 -2.43 -2.38 0 0zm-20.4 -30.53l0 -8.77 3.88 2.34 0.56 1.04 0.57 1.04 0.58 1.04 0.59 1.03 0.59 1.02 0.61 1.03 0.61 1.02 0.62 1 0.64 1.01 0.65 1 0.66 1 0.67 0.99 0.67 0.98 0.69 0.97 0.7 0.98 0.71 0.97 0.71 0.96 0.72 0.96 0.74 0.95 0.74 0.94 0.75 0.94 0.76 0.93 0.77 0.92 0.78 0.92 0.79 0.91 0.8 0.9 0.82 0.9 0.82 0.89 0.83 0.89 0.84 0.88 0.85 0.87 0.86 0.87 -6.2 6.2 -0.92 -0.93 -0.9 -0.93 -0.9 -0.94 -0.88 -0.95 -0.87 -0.95 -0.87 -0.96 -0.86 -0.97 -0.85 -0.98 -0.84 -0.98 -0.83 -0.99 -0.82 -0.99 -0.81 -1 -0.8 -1.01 -0.78 -1.01 -0.78 -1.02 -0.77 -1.03 -0.75 -1.03 -0.74 -1.03 -0.74 -1.05 -0.72 -1.05 -0.71 -1.06 -0.71 -1.06 -0.69 -1.07 -0.68 -1.07 -0.68 -1.08 -0.66 -1.09 -0.65 -1.09 -0.64 -1.1 -0.63 -1.11 -0.61 -1.11 -0.61 -1.11 -0.6 -1.12 3.88 2.34zm0 -8.77l2.65 0 1.23 2.34 -3.88 -2.34zm-59.99 0l59.99 0 0 8.77 -59.99 0 -4.3 -3.51 4.3 -5.26zm-4.3 5.26l-1.07 -5.26 5.36 0 -4.3 5.26zm11.52 7.84l-8.11 3.35 0 0 -0.14 -0.35 -0.14 -0.34 -0.14 -0.34 -0.14 -0.34 -0.14 -0.36 -0.13 -0.36 -0.13 -0.35 -0.12 -0.33 -0.13 -0.35 -0.13 -0.37 -0.12 -0.35 -0.11 -0.34 -0.11 -0.34 -0.11 -0.35 -0.12 -0.36 -0.1 -0.34 -0.1 -0.34 -0.11 -0.36 -0.1 -0.34 -0.09 -0.34 -0.1 -0.35 -0.1 -0.37 -0.09 -0.34 -0.09 -0.35 -0.09 -0.37 -0.08 -0.35 -0.08 -0.35 -0.08 -0.34 -0.08 -0.35 -0.08 -0.36 -0.07 -0.34 -0.07 -0.35 8.6 -1.74 0.07 0.3 0.06 0.31 0.07 0.29 0.07 0.3 0.07 0.31 0.07 0.31 0.07 0.3 0.07 0.29 0.08 0.3 0.08 0.31 0.07 0.29 0.08 0.3 0.09 0.31 0.09 0.31 0.08 0.29 0.1 0.31 0.09 0.31 0.09 0.29 0.1 0.3 0.1 0.3 0.1 0.31 0.1 0.3 0.09 0.28 0.11 0.29 0.12 0.33 0.11 0.3 0.11 0.29 0.11 0.29 0.12 0.3 0.12 0.3 0.12 0.3 0.12 0.3 0 0zm24.89 28.82l-8.71 1 2.22 3.33 -1.08 -0.61 -1.06 -0.64 -1.05 -0.65 -1.04 -0.68 -1.02 -0.7 -1.01 -0.72 -1 -0.75 -0.98 -0.77 -0.96 -0.78 -0.95 -0.81 -0.94 -0.83 -0.92 -0.85 -0.91 -0.87 -0.88 -0.88 -0.87 -0.91 -0.85 -0.93 -0.84 -0.95 -0.82 -0.97 -0.8 -0.98 -0.78 -1 -0.76 -1.03 -0.74 -1.04 -0.72 -1.06 -0.7 -1.09 -0.68 -1.1 -0.66 -1.12 -0.64 -1.14 -0.61 -1.15 -0.59 -1.17 -0.57 -1.19 -0.54 -1.21 -0.52 -1.22 8.11 -3.35 0.45 1.05 0.47 1.04 0.48 1.02 0.51 1 0.53 0.99 0.54 0.97 0.56 0.96 0.59 0.95 0.59 0.92 0.62 0.91 0.63 0.89 0.65 0.87 0.67 0.86 0.69 0.85 0.7 0.83 0.71 0.81 0.73 0.79 0.74 0.78 0.76 0.76 0.77 0.74 0.79 0.72 0.8 0.71 0.82 0.69 0.83 0.68 0.84 0.65 0.85 0.63 0.87 0.62 0.88 0.6 0.88 0.58 0.9 0.56 0.92 0.55 0.92 0.52 2.22 3.33zm-2.22 -3.33l1.96 1.09 0.26 2.24 -2.22 -3.33zm17.04 34.02l-6.21 6.2 0 0 -0.93 -0.95 -0.9 -0.97 -0.88 -0.98 -0.85 -0.99 -0.83 -1.01 -0.8 -1.02 -0.78 -1.03 -0.75 -1.05 -0.73 -1.06 -0.7 -1.07 -0.68 -1.09 -0.65 -1.1 -0.63 -1.1 -0.6 -1.12 -0.58 -1.12 -0.56 -1.13 -0.53 -1.14 -0.5 -1.15 -0.48 -1.16 -0.45 -1.17 -0.43 -1.18 -0.4 -1.18 -0.38 -1.19 -0.35 -1.19 -0.33 -1.2 -0.3 -1.2 -0.28 -1.21 -0.25 -1.21 -0.23 -1.21 -0.2 -1.23 -0.18 -1.23 -0.15 -1.23 8.71 -1 0.13 1.05 0.15 1.05 0.17 1.04 0.2 1.04 0.22 1.04 0.24 1.03 0.26 1.03 0.28 1.02 0.31 1.02 0.32 1.01 0.34 1.01 0.37 1.01 0.39 1 0.41 0.99 0.43 0.99 0.46 0.98 0.47 0.97 0.49 0.96 0.51 0.95 0.54 0.95 0.56 0.94 0.58 0.92 0.6 0.92 0.62 0.91 0.64 0.9 0.67 0.88 0.69 0.88 0.71 0.86 0.73 0.85 0.75 0.84 0.77 0.83 0.8 0.81 0 0zm34 17.08l-7.67 4.27 3.33 2.22 -1.23 -0.15 -1.23 -0.18 -1.22 -0.21 -1.21 -0.23 -1.22 -0.26 -1.21 -0.28 -1.21 -0.31 -1.2 -0.33 -1.19 -0.35 -1.19 -0.38 -1.19 -0.41 -1.17 -0.43 -1.16 -0.46 -1.16 -0.48 -1.15 -0.5 -1.14 -0.53 -1.13 -0.56 -1.13 -0.58 -1.11 -0.6 -1.11 -0.63 -1.1 -0.66 -1.08 -0.68 -1.07 -0.71 -1.06 -0.73 -1.05 -0.76 -1.03 -0.78 -1.03 -0.81 -1 -0.83 -0.99 -0.85 -0.98 -0.88 -0.96 -0.91 -0.95 -0.93 6.21 -6.2 0.81 0.8 0.83 0.77 0.84 0.76 0.85 0.73 0.86 0.71 0.87 0.69 0.89 0.67 0.9 0.65 0.9 0.62 0.92 0.61 0.93 0.58 0.93 0.56 0.95 0.54 0.96 0.52 0.96 0.5 0.97 0.47 0.98 0.45 0.99 0.43 0.99 0.41 1 0.39 1 0.37 1 0.34 1.01 0.32 1.03 0.31 1.03 0.29 1.03 0.26 1.03 0.24 1.04 0.22 1.04 0.2 1.05 0.18 1.04 0.16 1.05 0.13 3.33 2.22zm-3.33 -2.22l2.23 0.26 1.09 1.96 -3.33 -2.22zm28.79 24.93l-3.37 8.1 0 0 -1.22 -0.52 -1.2 -0.55 -1.19 -0.57 -1.17 -0.59 -1.15 -0.62 -1.13 -0.64 -1.12 -0.66 -1.1 -0.68 -1.08 -0.7 -1.06 -0.72 -1.04 -0.74 -1.02 -0.76 -1.01 -0.78 -0.98 -0.8 -0.97 -0.82 -0.94 -0.84 -0.93 -0.85 -0.91 -0.88 -0.88 -0.89 -0.87 -0.91 -0.84 -0.92 -0.83 -0.94 -0.81 -0.96 -0.79 -0.97 -0.76 -0.98 -0.74 -1 -0.72 -1.01 -0.69 -1.02 -0.68 -1.04 -0.66 -1.06 -0.63 -1.06 -0.61 -1.07 7.67 -4.27 0.53 0.92 0.54 0.91 0.56 0.89 0.58 0.89 0.61 0.88 0.61 0.86 0.63 0.85 0.66 0.85 0.67 0.83 0.69 0.81 0.71 0.8 0.72 0.79 0.74 0.77 0.76 0.76 0.77 0.74 0.79 0.73 0.81 0.72 0.83 0.7 0.84 0.68 0.86 0.67 0.87 0.65 0.89 0.63 0.91 0.62 0.92 0.6 0.94 0.58 0.96 0.57 0.98 0.55 0.98 0.53 1 0.51 1.02 0.49 1.03 0.47 1.05 0.45 0 0zm19.87 3.98l0 8.77 0 0 -0.72 -0 -0.73 -0.01 -0.73 -0.02 -0.73 -0.03 -0.73 -0.04 -0.74 -0.05 -0.73 -0.06 -0.72 -0.07 -0.73 -0.07 -0.74 -0.08 -0.73 -0.09 -0.72 -0.1 -0.74 -0.11 -0.73 -0.12 -0.73 -0.13 -0.72 -0.14 -0.72 -0.15 -0.73 -0.16 -0.73 -0.17 -0.72 -0.17 -0.73 -0.19 -0.72 -0.2 -0.73 -0.2 -0.72 -0.22 -0.72 -0.22 -0.72 -0.24 -0.72 -0.24 -0.72 -0.25 -0.72 -0.26 -0.71 -0.27 -0.71 -0.28 -0.72 -0.29 3.37 -8.1 0.61 0.25 0.62 0.24 0.62 0.23 0.61 0.22 0.61 0.21 0.62 0.21 0.61 0.2 0.62 0.19 0.62 0.19 0.61 0.17 0.62 0.17 0.62 0.16 0.62 0.15 0.62 0.14 0.62 0.13 0.63 0.13 0.63 0.12 0.62 0.11 0.62 0.11 0.62 0.09 0.63 0.09 0.63 0.08 0.61 0.07 0.62 0.06 0.64 0.06 0.62 0.05 0.61 0.04 0.62 0.03 0.62 0.03 0.62 0.02 0.62 0.01 0.62 0 0 0zm18.18 -1.22l-5.46 6.87 3.93 0.78 -0.5 0.14 -0.5 0.14 -0.52 0.14 -0.51 0.13 -0.5 0.12 -0.52 0.12 -0.5 0.11 -0.5 0.11 -0.52 0.11 -0.52 0.1 -0.51 0.09 -0.52 0.1 -0.53 0.09 -0.51 0.08 -0.51 0.08 -0.52 0.08 -0.53 0.07 -0.51 0.07 -0.53 0.07 -0.51 0.06 -0.52 0.06 -0.55 0.05 -0.53 0.04 -0.52 0.04 -0.52 0.04 -0.53 0.03 -0.54 0.03 -0.52 0.02 -0.54 0.02 -0.54 0.01 -0.52 0.01 -0.54 0 0 -8.77 0.45 -0 0.46 -0.01 0.45 -0.01 0.45 -0.01 0.46 -0.02 0.45 -0.02 0.45 -0.03 0.46 -0.03 0.46 -0.03 0.45 -0.04 0.43 -0.04 0.46 -0.05 0.46 -0.05 0.44 -0.05 0.46 -0.06 0.44 -0.06 0.44 -0.07 0.46 -0.07 0.45 -0.07 0.44 -0.07 0.44 -0.08 0.45 -0.09 0.43 -0.08 0.43 -0.09 0.45 -0.1 0.45 -0.1 0.43 -0.1 0.45 -0.11 0.44 -0.11 0.41 -0.11 0.45 -0.12 0.44 -0.12 3.93 0.78zm-3.93 -0.78l2.17 -0.62 1.77 1.4 -3.93 -0.78zm36.19 12.02l0 8.77 0 0 -1.33 -0.01 -1.33 -0.04 -1.32 -0.07 -1.3 -0.1 -1.31 -0.13 -1.3 -0.15 -1.29 -0.18 -1.27 -0.21 -1.27 -0.23 -1.26 -0.26 -1.25 -0.29 -1.24 -0.31 -1.23 -0.33 -1.23 -0.36 -1.21 -0.39 -1.19 -0.41 -1.19 -0.44 -1.18 -0.46 -1.16 -0.48 -1.14 -0.5 -1.15 -0.53 -1.12 -0.55 -1.11 -0.57 -1.1 -0.6 -1.08 -0.62 -1.06 -0.63 -1.06 -0.66 -1.04 -0.68 -1.02 -0.7 -1.01 -0.72 -0.99 -0.74 -0.98 -0.76 5.46 -6.87 0.84 0.65 0.85 0.64 0.86 0.61 0.88 0.6 0.89 0.59 0.9 0.56 0.92 0.55 0.93 0.53 0.93 0.5 0.95 0.49 0.96 0.47 0.97 0.45 0.99 0.44 0.99 0.41 1 0.39 1.01 0.37 1.03 0.35 1.03 0.33 1.03 0.31 1.05 0.29 1.07 0.27 1.06 0.25 1.08 0.22 1.09 0.2 1.09 0.18 1.1 0.16 1.11 0.13 1.11 0.11 1.13 0.08 1.13 0.06 1.13 0.04 1.14 0.01 0 0zm36.14 -11.98l-2.41 8.44 3.93 -0.78 -0.98 0.76 -0.99 0.73 -1.01 0.72 -1.02 0.7 -1.04 0.68 -1.05 0.65 -1.06 0.63 -1.08 0.62 -1.1 0.6 -1.11 0.57 -1.12 0.55 -1.14 0.53 -1.14 0.5 -1.16 0.48 -1.17 0.46 -1.18 0.44 -1.2 0.41 -1.21 0.39 -1.22 0.36 -1.22 0.33 -1.24 0.31 -1.25 0.29 -1.25 0.26 -1.27 0.23 -1.27 0.21 -1.29 0.18 -1.3 0.15 -1.29 0.12 -1.31 0.1 -1.32 0.07 -1.32 0.04 -1.33 0.01 0 -8.77 1.14 -0.01 1.13 -0.04 1.12 -0.06 1.12 -0.09 1.12 -0.11 1.1 -0.13 1.1 -0.16 1.09 -0.18 1.09 -0.2 1.08 -0.22 1.06 -0.24 1.06 -0.27 1.06 -0.29 1.04 -0.31 1.03 -0.33 1.02 -0.35 1.01 -0.37 1.01 -0.4 0.99 -0.41 0.98 -0.43 0.97 -0.45 0.96 -0.47 0.96 -0.49 0.93 -0.5 0.92 -0.53 0.92 -0.55 0.9 -0.56 0.89 -0.58 0.87 -0.59 0.86 -0.62 0.85 -0.63 0.83 -0.65 3.93 -0.78zm-3.93 0.78l1.77 -1.4 2.16 0.62 -3.93 0.78zm18.13 1.21l0 8.77 0 0 -0.53 -0 -0.52 -0.01 -0.54 -0.01 -0.53 -0.02 -0.52 -0.02 -0.52 -0.02 -0.53 -0.03 -0.53 -0.04 -0.53 -0.04 -0.53 -0.05 -0.52 -0.05 -0.52 -0.05 -0.53 -0.06 -0.53 -0.07 -0.52 -0.07 -0.51 -0.07 -0.53 -0.07 -0.53 -0.08 -0.52 -0.09 -0.51 -0.09 -0.51 -0.09 -0.52 -0.1 -0.51 -0.1 -0.52 -0.11 -0.52 -0.11 -0.5 -0.11 -0.5 -0.12 -0.52 -0.13 -0.51 -0.13 -0.5 -0.13 -0.49 -0.13 -0.51 -0.14 2.41 -8.44 0.43 0.12 0.44 0.12 0.44 0.11 0.43 0.11 0.42 0.1 0.45 0.1 0.45 0.1 0.43 0.09 0.43 0.09 0.45 0.09 0.44 0.08 0.45 0.08 0.45 0.08 0.44 0.07 0.44 0.07 0.44 0.06 0.45 0.06 0.45 0.06 0.44 0.05 0.44 0.05 0.46 0.05 0.46 0.04 0.45 0.04 0.44 0.03 0.45 0.03 0.44 0.02 0.46 0.02 0.46 0.02 0.45 0.01 0.45 0.01 0.46 0.01 0.45 0 0 0zm19.84 -3.96l3.35 8.11 0 0 -0.72 0.29 -0.71 0.27 -0.71 0.27 -0.72 0.26 -0.71 0.25 -0.72 0.24 -0.73 0.23 -0.72 0.22 -0.72 0.21 -0.72 0.2 -0.72 0.2 -0.73 0.19 -0.73 0.18 -0.72 0.16 -0.72 0.16 -0.72 0.15 -0.72 0.14 -0.74 0.13 -0.73 0.12 -0.72 0.11 -0.73 0.1 -0.73 0.09 -0.73 0.08 -0.73 0.08 -0.74 0.07 -0.73 0.06 -0.73 0.05 -0.73 0.04 -0.72 0.03 -0.73 0.02 -0.73 0.01 -0.72 0 0 -8.77 0.62 -0 0.62 -0.01 0.62 -0.02 0.62 -0.03 0.62 -0.03 0.62 -0.04 0.62 -0.05 0.61 -0.06 0.62 -0.07 0.62 -0.07 0.62 -0.08 0.62 -0.09 0.63 -0.1 0.62 -0.1 0.61 -0.11 0.62 -0.12 0.63 -0.13 0.62 -0.13 0.63 -0.14 0.61 -0.15 0.61 -0.16 0.62 -0.17 0.62 -0.17 0.62 -0.19 0.62 -0.19 0.61 -0.2 0.61 -0.2 0.62 -0.22 0.61 -0.22 0.61 -0.23 0.62 -0.24 0.6 -0.25 0 0zm28.8 -24.9l1.01 8.71 3.33 -2.22 -0.61 1.07 -0.64 1.07 -0.66 1.05 -0.68 1.04 -0.7 1.02 -0.72 1.01 -0.74 1 -0.77 0.98 -0.78 0.97 -0.81 0.95 -0.83 0.94 -0.85 0.92 -0.87 0.91 -0.89 0.89 -0.9 0.87 -0.93 0.85 -0.96 0.84 -0.97 0.81 -0.98 0.8 -1.01 0.78 -1.03 0.76 -1.04 0.74 -1.06 0.72 -1.08 0.7 -1.1 0.68 -1.12 0.66 -1.13 0.63 -1.15 0.61 -1.18 0.59 -1.19 0.57 -1.2 0.54 -1.23 0.52 -3.35 -8.11 1.04 -0.45 1.04 -0.47 1.02 -0.48 0.99 -0.5 0.99 -0.53 0.97 -0.54 0.96 -0.56 0.94 -0.58 0.92 -0.6 0.91 -0.62 0.89 -0.63 0.87 -0.65 0.86 -0.67 0.85 -0.68 0.83 -0.7 0.81 -0.71 0.79 -0.73 0.78 -0.74 0.76 -0.76 0.74 -0.77 0.72 -0.79 0.71 -0.8 0.69 -0.82 0.67 -0.83 0.65 -0.84 0.63 -0.85 0.62 -0.87 0.6 -0.87 0.58 -0.89 0.57 -0.9 0.54 -0.91 0.53 -0.92 3.33 -2.22zm-3.33 2.22l1.09 -1.97 2.24 -0.26 -3.33 2.22zm34.02 -17.06l6.2 6.2 0 0 -0.95 0.93 -0.97 0.91 -0.98 0.88 -0.99 0.85 -1.01 0.83 -1.02 0.8 -1.03 0.78 -1.05 0.75 -1.06 0.73 -1.08 0.71 -1.08 0.68 -1.09 0.65 -1.11 0.63 -1.11 0.6 -1.12 0.58 -1.14 0.56 -1.14 0.53 -1.16 0.51 -1.16 0.48 -1.17 0.45 -1.17 0.43 -1.18 0.41 -1.19 0.38 -1.19 0.35 -1.2 0.33 -1.21 0.31 -1.21 0.28 -1.21 0.25 -1.21 0.23 -1.22 0.21 -1.23 0.18 -1.22 0.15 -1.01 -8.71 1.05 -0.13 1.04 -0.15 1.05 -0.18 1.04 -0.2 1.04 -0.22 1.03 -0.24 1.03 -0.26 1.03 -0.28 1.02 -0.31 1.01 -0.32 1.01 -0.35 1 -0.36 1 -0.39 0.99 -0.41 0.98 -0.43 0.98 -0.46 0.97 -0.47 0.96 -0.5 0.96 -0.52 0.94 -0.54 0.94 -0.56 0.93 -0.58 0.91 -0.6 0.91 -0.63 0.89 -0.64 0.89 -0.67 0.88 -0.69 0.86 -0.71 0.85 -0.73 0.84 -0.75 0.83 -0.78 0.81 -0.8 0 0zm17.07 -34.01l4.27 7.67 2.22 -3.33 -0.15 1.23 -0.18 1.23 -0.21 1.22 -0.23 1.21 -0.26 1.22 -0.28 1.21 -0.3 1.2 -0.33 1.2 -0.36 1.19 -0.38 1.18 -0.4 1.18 -0.43 1.18 -0.46 1.16 -0.48 1.16 -0.5 1.15 -0.53 1.14 -0.56 1.13 -0.58 1.13 -0.61 1.12 -0.63 1.1 -0.65 1.09 -0.68 1.09 -0.71 1.08 -0.73 1.06 -0.75 1.05 -0.78 1.03 -0.8 1.02 -0.84 1.01 -0.85 0.99 -0.88 0.98 -0.91 0.97 -0.93 0.95 -6.2 -6.2 0.8 -0.81 0.78 -0.83 0.75 -0.84 0.73 -0.85 0.71 -0.86 0.69 -0.88 0.67 -0.89 0.64 -0.89 0.63 -0.91 0.6 -0.91 0.58 -0.92 0.56 -0.94 0.54 -0.95 0.51 -0.95 0.49 -0.96 0.47 -0.97 0.46 -0.98 0.43 -0.99 0.41 -0.99 0.39 -1 0.37 -1 0.34 -1.01 0.33 -1.02 0.31 -1.02 0.28 -1.02 0.26 -1.03 0.24 -1.03 0.22 -1.04 0.2 -1.04 0.18 -1.05 0.16 -1.04 0.13 -1.05 2.22 -3.33zm-2.22 3.33l0.26 -2.23 1.96 -1.09 -2.22 3.33zm24.92 -28.8l8.1 3.37 0 -0 -0.52 1.22 -0.55 1.21 -0.57 1.19 -0.59 1.16 -0.61 1.15 -0.64 1.14 -0.66 1.12 -0.68 1.1 -0.7 1.08 -0.72 1.06 -0.74 1.04 -0.76 1.03 -0.78 1 -0.8 0.98 -0.82 0.97 -0.84 0.95 -0.85 0.92 -0.87 0.9 -0.89 0.89 -0.91 0.87 -0.92 0.85 -0.94 0.83 -0.95 0.81 -0.97 0.79 -0.99 0.77 -0.99 0.74 -1 0.72 -1.03 0.7 -1.04 0.68 -1.06 0.66 -1.06 0.63 -1.07 0.61 -4.27 -7.67 0.92 -0.53 0.91 -0.54 0.89 -0.56 0.89 -0.58 0.88 -0.6 0.87 -0.62 0.86 -0.63 0.84 -0.65 0.83 -0.67 0.82 -0.69 0.8 -0.71 0.79 -0.72 0.77 -0.74 0.76 -0.76 0.74 -0.78 0.73 -0.79 0.71 -0.8 0.7 -0.83 0.69 -0.85 0.67 -0.85 0.65 -0.88 0.63 -0.89 0.62 -0.91 0.6 -0.92 0.58 -0.94 0.57 -0.95 0.54 -0.97 0.52 -0.99 0.51 -1.01 0.49 -1.01 0.47 -1.03 0.45 -1.05 0 -0zm7.26 -4.45l0 -8.77 4.3 5.25 -0.07 0.35 -0.07 0.35 -0.08 0.37 -0.08 0.35 -0.08 0.35 -0.08 0.37 -0.09 0.34 -0.08 0.35 -0.09 0.36 -0.09 0.35 -0.1 0.37 -0.1 0.37 -0.1 0.35 -0.1 0.35 -0.1 0.35 -0.1 0.34 -0.11 0.37 -0.11 0.35 -0.11 0.34 -0.12 0.37 -0.12 0.35 -0.12 0.34 -0.12 0.36 -0.13 0.37 -0.13 0.34 -0.12 0.33 -0.14 0.37 -0.14 0.36 -0.13 0.33 -0.14 0.36 -0.15 0.36 -0.14 0.34 -8.1 -3.37 0.13 -0.31 0.12 -0.29 0.11 -0.29 0.13 -0.33 0.11 -0.29 0.1 -0.28 0.12 -0.33 0.11 -0.31 0.1 -0.28 0.1 -0.3 0.1 -0.31 0.1 -0.31 0.1 -0.29 0.1 -0.31 0.09 -0.3 0.09 -0.29 0.09 -0.32 0.09 -0.31 0.09 -0.31 0.09 -0.31 0.08 -0.29 0.07 -0.29 0.08 -0.31 0.08 -0.31 0.08 -0.31 0.07 -0.32 0.07 -0.29 0.07 -0.31 0.07 -0.31 0.07 -0.29 0.06 -0.31 0.07 -0.31 4.3 5.25zm0 -8.77l5.35 0 -1.05 5.25 -4.3 -5.25zm-59.97 0l59.97 0 0 8.77 -59.97 0 -3.88 -6.43 3.88 -2.34zm-3.88 2.34l1.23 -2.34 2.65 0 -3.88 2.34zm-16.53 36.96l-6.2 -6.2 0 0 0.86 -0.87 0.85 -0.87 0.84 -0.88 0.83 -0.89 0.82 -0.89 0.82 -0.9 0.8 -0.9 0.79 -0.91 0.78 -0.92 0.77 -0.92 0.76 -0.93 0.76 -0.94 0.74 -0.94 0.73 -0.95 0.73 -0.96 0.72 -0.96 0.71 -0.97 0.7 -0.97 0.68 -0.98 0.68 -0.98 0.66 -0.98 0.66 -1 0.65 -1 0.63 -1 0.62 -1.01 0.62 -1.02 0.61 -1.02 0.59 -1.02 0.59 -1.03 0.58 -1.04 0.57 -1.04 0.56 -1.04 7.76 4.1 -0.6 1.12 -0.61 1.11 -0.61 1.11 -0.63 1.11 -0.64 1.1 -0.65 1.09 -0.66 1.09 -0.67 1.08 -0.69 1.08 -0.69 1.07 -0.7 1.06 -0.72 1.06 -0.72 1.05 -0.73 1.05 -0.74 1.04 -0.75 1.03 -0.77 1.03 -0.77 1.02 -0.78 1.02 -0.8 1.01 -0.8 1 -0.82 0.99 -0.83 0.99 -0.84 0.98 -0.85 0.98 -0.86 0.97 -0.87 0.96 -0.87 0.95 -0.88 0.95 -0.9 0.94 -0.9 0.93 -0.92 0.93 0 0zm-96.31 39.89l0 -8.77 0 0 3.19 -0.04 3.18 -0.12 3.16 -0.2 3.15 -0.27 3.12 -0.34 3.11 -0.42 3.09 -0.49 3.07 -0.57 3.05 -0.64 3.03 -0.72 3.01 -0.79 2.98 -0.86 2.95 -0.94 2.93 -1.01 2.9 -1.08 2.87 -1.15 2.84 -1.22 2.82 -1.29 2.78 -1.36 2.75 -1.43 2.72 -1.5 2.68 -1.57 2.65 -1.64 2.61 -1.7 2.57 -1.77 2.54 -1.83 2.49 -1.9 2.46 -1.97 2.41 -2.03 2.37 -2.1 2.32 -2.17 2.28 -2.23 6.2 6.2 -2.43 2.38 -2.49 2.31 -2.53 2.24 -2.58 2.17 -2.62 2.1 -2.67 2.03 -2.71 1.96 -2.75 1.89 -2.79 1.82 -2.83 1.75 -2.87 1.68 -2.91 1.6 -2.94 1.53 -2.98 1.46 -3.01 1.38 -3.05 1.3 -3.08 1.23 -3.1 1.15 -3.13 1.08 -3.16 1 -3.19 0.93 -3.22 0.84 -3.23 0.77 -3.26 0.69 -3.28 0.61 -3.31 0.53 -3.32 0.45 -3.35 0.37 -3.35 0.29 -3.37 0.21 -3.39 0.12 -3.4 0.04 0 0z"/>
  </g>
  <g>
   <path class="fil3" d="M180.75 377.29l103.98 0 0 8.77 -103.98 0 -2.52 -0.8 2.52 -7.97zm-2.52 7.97l-11.34 -7.97 13.86 0 -2.52 7.97zm44.31 31.17l-44.31 -31.17 5.05 -7.18 44.31 31.17 0.51 6.75 -5.56 0.43zm5.05 -7.18l4.36 3.07 -3.84 3.69 -0.51 -6.75zm-49.87 42.95l44.31 -42.53 6.07 6.33 -44.31 42.53 -3.04 1.22 -3.04 -7.55zm3.04 7.55l-10.9 0 7.86 -7.55 3.04 7.55zm107.27 0l-107.27 0 0 -8.77 107.27 0 4.15 2.97 -4.15 5.8zm4.15 -5.8l1.97 5.8 -6.12 0 4.15 -5.8zm-15.53 -41.12l8.77 0 0 0 0.01 1.33 0.02 1.33 0.03 1.33 0.05 1.32 0.06 1.32 0.07 1.32 0.09 1.32 0.1 1.31 0.12 1.31 0.12 1.31 0.14 1.3 0.15 1.3 0.17 1.3 0.18 1.3 0.19 1.29 0.21 1.29 0.22 1.29 0.23 1.29 0.24 1.27 0.26 1.27 0.27 1.28 0.28 1.27 0.3 1.26 0.31 1.26 0.32 1.26 0.33 1.25 0.35 1.25 0.36 1.24 0.37 1.24 0.38 1.24 0.4 1.23 0.41 1.23 -8.31 2.82 -0.44 -1.31 -0.43 -1.32 -0.41 -1.32 -0.4 -1.32 -0.38 -1.33 -0.37 -1.34 -0.36 -1.34 -0.34 -1.34 -0.33 -1.35 -0.32 -1.36 -0.3 -1.36 -0.29 -1.36 -0.28 -1.37 -0.26 -1.37 -0.25 -1.37 -0.23 -1.37 -0.22 -1.38 -0.21 -1.38 -0.19 -1.38 -0.18 -1.38 -0.17 -1.39 -0.15 -1.4 -0.14 -1.39 -0.12 -1.4 -0.11 -1.41 -0.09 -1.41 -0.07 -1.41 -0.07 -1.41 -0.05 -1.42 -0.03 -1.41 -0.02 -1.42 -0.01 -1.42 0 0zm8.08 -26.79l0 -8.77 4.27 5.42 -0.22 0.91 -0.21 0.92 -0.2 0.92 -0.2 0.92 -0.19 0.92 -0.18 0.92 -0.18 0.94 -0.17 0.93 -0.16 0.93 -0.16 0.93 -0.15 0.94 -0.15 0.94 -0.13 0.94 -0.13 0.94 -0.12 0.93 -0.11 0.95 -0.11 0.94 -0.1 0.95 -0.1 0.95 -0.09 0.95 -0.08 0.95 -0.07 0.96 -0.07 0.96 -0.06 0.95 -0.05 0.95 -0.05 0.96 -0.04 0.96 -0.03 0.96 -0.03 0.96 -0.02 0.97 -0.01 0.97 -0 0.96 -8.77 0 0 -1.03 0.01 -1.02 0.02 -1.02 0.03 -1.03 0.04 -1.03 0.04 -1.02 0.05 -1.02 0.06 -1.02 0.07 -1.02 0.07 -1.01 0.08 -1.01 0.09 -1.02 0.09 -1.02 0.1 -1.01 0.11 -1.01 0.12 -1.01 0.12 -1 0.13 -1.01 0.14 -1 0.15 -1 0.15 -1 0.16 -0.99 0.17 -1 0.18 -1 0.19 -0.99 0.19 -0.98 0.2 -1 0.2 -0.99 0.21 -0.98 0.22 -0.98 0.22 -0.98 0.23 -0.98 4.27 5.42zm0 -8.77l5.57 0 -1.31 5.42 -4.27 -5.42z"/>
  </g>
  <g>
   <path class="fil3" d="M644.95 459.76l-107.27 0 0 -8.77 107.27 0 3.04 1.22 -3.04 7.55zm3.04 -7.55l7.86 7.55 -10.9 0 3.04 -7.55zm-44.31 -42.53l44.31 42.53 -6.07 6.33 -44.31 -42.53 0.51 -6.75 5.56 0.43zm-6.07 6.33l-3.84 -3.69 4.36 -3.07 -0.51 6.75zm49.87 -30.75l-44.31 31.17 -5.05 -7.18 44.31 -31.17 2.52 -0.8 2.52 7.97zm-2.52 -7.97l13.86 0 -11.34 7.97 -2.52 -7.97zm-103.98 0l103.98 0 0 8.77 -103.98 0 -4.26 -3.35 4.26 -5.42zm-4.26 5.42l-1.31 -5.42 5.57 0 -4.26 5.42zm12.34 30.14l-8.77 0 0 0 -0 -0.96 -0.01 -0.97 -0.02 -0.97 -0.03 -0.96 -0.03 -0.96 -0.04 -0.96 -0.05 -0.96 -0.05 -0.95 -0.06 -0.95 -0.07 -0.96 -0.07 -0.96 -0.08 -0.95 -0.09 -0.95 -0.09 -0.94 -0.1 -0.95 -0.11 -0.94 -0.12 -0.94 -0.12 -0.94 -0.13 -0.94 -0.14 -0.94 -0.14 -0.94 -0.15 -0.93 -0.16 -0.94 -0.16 -0.93 -0.17 -0.92 -0.18 -0.93 -0.18 -0.93 -0.19 -0.92 -0.2 -0.92 -0.2 -0.92 -0.21 -0.92 -0.21 -0.91 8.52 -2.06 0.23 0.98 0.22 0.98 0.22 0.98 0.21 0.98 0.2 0.99 0.2 0.99 0.19 0.99 0.18 0.99 0.18 0.99 0.17 0.99 0.16 1 0.15 1 0.15 1 0.14 1.01 0.13 1 0.12 1.01 0.11 1.01 0.11 1.01 0.1 1.01 0.09 1.01 0.09 1.02 0.08 1.01 0.07 1.01 0.07 1.02 0.06 1.02 0.05 1.02 0.04 1.02 0.04 1.03 0.03 1.03 0.02 1.02 0.01 1.02 0 1.03 0 0zm-11.37 38.14l0 8.77 -4.15 -5.8 0.41 -1.23 0.4 -1.24 0.39 -1.24 0.37 -1.24 0.36 -1.24 0.34 -1.25 0.33 -1.26 0.32 -1.25 0.31 -1.26 0.3 -1.26 0.28 -1.26 0.27 -1.27 0.26 -1.28 0.25 -1.28 0.23 -1.28 0.22 -1.28 0.21 -1.29 0.19 -1.29 0.18 -1.3 0.17 -1.29 0.15 -1.3 0.14 -1.32 0.13 -1.3 0.11 -1.31 0.1 -1.31 0.09 -1.32 0.07 -1.32 0.06 -1.32 0.05 -1.32 0.03 -1.33 0.02 -1.33 0.01 -1.33 8.77 0 -0.01 1.42 -0.02 1.42 -0.03 1.41 -0.05 1.42 -0.07 1.41 -0.07 1.41 -0.09 1.41 -0.11 1.4 -0.12 1.4 -0.14 1.4 -0.15 1.39 -0.16 1.39 -0.18 1.39 -0.2 1.38 -0.2 1.38 -0.22 1.38 -0.23 1.38 -0.25 1.37 -0.26 1.37 -0.28 1.36 -0.29 1.36 -0.3 1.36 -0.32 1.35 -0.33 1.35 -0.35 1.35 -0.35 1.33 -0.37 1.34 -0.39 1.33 -0.4 1.32 -0.41 1.33 -0.43 1.31 -0.44 1.31 -4.15 -5.8zm0 8.77l-6.12 0 1.97 -5.8 4.15 5.8z"/>
  </g>
  <path class="fil4" d="M391.34 484.67l0 -136.85 -12.6 -6.8 -2 0c-2,3.87 -4.74,7.47 -8.2,10.81 -3.47,3.34 -7.67,5.94 -12.61,7.8l4.4 13.2 12.01 -3.6 0 115.44 19.01 0z"/>
  <path class="fil4" d="M410.35 365.63l0 94.43c0,16.41 7.67,24.61 23.01,24.61l13.41 0c15.34,0 23.01,-8.2 23.01,-24.61l0 -94.43c0,-16.4 -7.67,-24.61 -23.01,-24.61l-13.41 0c-15.34,0 -23.01,8.2 -23.01,24.61zm19.21 1.2c0,-5.6 2.53,-8.4 7.6,-8.4l4.8 0c5.74,0 8.6,2.8 8.6,8.4l0 92.04c0,5.6 -2.53,8.4 -7.6,8.4l-4.8 0c-5.73,0 -8.6,-2.8 -8.6,-8.4l0 -92.04z"/>
 </g>
</svg>
