<?xml version="1.0" encoding="UTF-8"?>
<!DOCTYPE svg PUBLIC "-//W3C//DTD SVG 1.1//EN" "http://www.w3.org/Graphics/SVG/1.1/DTD/svg11.dtd">
<!-- Creator: CorelDRAW -->
<svg xmlns="http://www.w3.org/2000/svg" xml:space="preserve" width="25.4mm" height="25.4mm" version="1.1" style="shape-rendering:geometricPrecision; text-rendering:geometricPrecision; image-rendering:optimizeQuality; fill-rule:evenodd; clip-rule:evenodd"
viewBox="0 0 1773.84 1773.84"
 xmlns:xlink="http://www.w3.org/1999/xlink"
 xmlns:xodm="http://www.corel.com/coreldraw/odm/2003">
 <defs>
  <style type="text/css">
   <![CDATA[
    .fil2 {fill:none}
    .fil0 {fill:#D9DADA}
    .fil1 {fill:#E31E24}
    .fil3 {fill:#898989;fill-rule:nonzero}
   ]]>
  </style>
   <clipPath id="id0">
    <path d="M230.39 1773.21l0 -0.06 -0.91 0c-1.2,-0.08 -2.39,-0.2 -3.58,-0.31l0 -0.03 -0.43 0c-2.18,-0.2 -4.34,-0.43 -6.5,-0.68l0 -0.01 -0.16 0c-0.87,-0.1 -1.74,-0.2 -2.61,-0.31l0 -0.04 -0.28 0c-1.64,-0.22 -3.28,-0.45 -4.92,-0.69l0 0 -0.03 0c-1.38,-0.21 -2.75,-0.44 -4.13,-0.67l0 -0.02 -0.15 0c-0.64,-0.11 -1.29,-0.21 -1.93,-0.32l0 -0.03 -0.15 0c-0.52,-0.09 -1.05,-0.2 -1.58,-0.29l0 -0.06 -0.28 0c-0.6,-0.11 -1.19,-0.23 -1.79,-0.34l0 0 -0.01 0c-2.21,-0.43 -4.39,-0.88 -6.58,-1.36l0 -0.03 -0.12 0c-1,-0.22 -2,-0.44 -3,-0.68l0 -0.01 -0.07 0c-0.44,-0.1 -0.88,-0.22 -1.32,-0.32l0 -0.03 -0.1 0c-1.82,-0.44 -3.64,-0.89 -5.45,-1.38l0 -0.01 -0.02 0c-0.8,-0.22 -1.61,-0.43 -2.4,-0.65l0 -0.04 -0.15 0c-0.41,-0.11 -0.82,-0.22 -1.23,-0.34l0 -0.01 -0.06 0 -0.98 -0.29 0 -0.06 -0.2 0c-0.75,-0.22 -1.49,-0.45 -2.23,-0.67l0 -0.03 -0.1 0c-1.47,-0.44 -2.95,-0.89 -4.41,-1.36l0 -0.02 -0.07 0 -0.97 -0.31 0 -0.03 -0.1 0 -0.94 -0.31 0 -0.03 -0.13 0 -0.91 -0.3 0 -0.05 -0.15 0 -0.89 -0.29 0 -0.06 -0.15 0c-0.3,-0.1 -0.59,-0.21 -0.89,-0.31l0 -0.03 -0.09 0 -0.95 -0.34 0 -0.01 -0.03 0c-2.2,-0.77 -4.38,-1.56 -6.55,-2.4l0 -0.03 -0.08 0c-0.55,-0.21 -1.1,-0.42 -1.66,-0.63l0 -0.06 -0.16 0 -0.88 -0.34 0 -0.01 -0.01 0c-1.97,-0.78 -3.92,-1.59 -5.87,-2.42l0 -0.01 -0.01 0c-1.04,-0.44 -2.07,-0.9 -3.11,-1.36l0 -0.02 -0.06 0c-1.03,-0.45 -2.05,-0.91 -3.06,-1.38l0 -0.01 -0.03 0 -0.66 -0.31 0 -0.03 -0.08 0c-5.75,-2.66 -11.39,-5.54 -16.9,-8.63l0 -0.03 -0.04 0c-0.8,-0.45 -1.6,-0.88 -2.38,-1.33l0 -0.05 -0.1 0c-0.78,-0.45 -1.55,-0.92 -2.33,-1.38l0 -0.01 -0.01 0c-2.1,-1.24 -4.17,-2.5 -6.23,-3.79l0 -0.01 -0.02 0c-0.34,-0.22 -0.68,-0.42 -1.01,-0.64l0 -0.06 -0.1 0c-1.6,-1.02 -3.18,-2.06 -4.76,-3.11l0 0 0 0 -1.04 -0.69c-1.16,-0.79 -2.31,-1.6 -3.46,-2.4l0 -0.03 -0.03 0c-0.8,-0.56 -1.59,-1.13 -2.39,-1.7l0 -0.03 -0.03 0c-1.26,-0.91 -2.53,-1.83 -3.78,-2.77l0 0 -0.01 0c-1.05,-0.79 -2.07,-1.59 -3.11,-2.39l0 -0.04 -0.06 0c-0.44,-0.34 -0.89,-0.68 -1.33,-1.02l0 -0.02 -0.01 0 -0.33 -0.26 0 -0.08 -0.1 0c-0.43,-0.34 -0.86,-0.69 -1.28,-1.03l0 -0.01 -0.01 0c-1.28,-1.03 -2.54,-2.05 -3.8,-3.1l0 -0.01 -0.02 0c-0.81,-0.68 -1.61,-1.35 -2.41,-2.04l0 -0.04 -0.05 0c-0.8,-0.68 -1.59,-1.37 -2.37,-2.06l0 -0.02 -0.02 0 -0.33 -0.29 0 -0.06 -0.06 0c-2.68,-2.37 -5.32,-4.8 -7.91,-7.28l0 0 0 0 -0.34 -0.34 0 -0.01 -0.01 0 -0.34 -0.32 0 -0.02 -0.02 0 -0.32 -0.32 0 -0.03 -0.03 0 -0.31 -0.31 0 -0.04 -0.04 0c-1.39,-1.35 -2.76,-2.73 -4.11,-4.11l0 -0.04 -0.04 0 -0.31 -0.31 0 -0.03 -0.03 0 -0.32 -0.32 0 -0.02 -0.02 0 -0.32 -0.34 0 -0.01 -0.01 0 -0.34 -0.34 0 0 0 0c-2.49,-2.58 -4.91,-5.22 -7.28,-7.91l0 -0.06 -0.06 0 -0.29 -0.33 0 -0.02 -0.02 0c-0.69,-0.79 -1.38,-1.58 -2.06,-2.37l0 -0.05 -0.04 0c-0.68,-0.8 -1.36,-1.6 -2.04,-2.41l0 -0.02 -0.01 0c-1.05,-1.25 -2.08,-2.53 -3.1,-3.8l0 -0.01 -0.01 0c-0.34,-0.43 -0.69,-0.85 -1.03,-1.28l0 -0.1 -0.08 0 -0.27 -0.33 0 -0.01 -0.01 0c-0.34,-0.44 -0.68,-0.89 -1.02,-1.33l0 -0.06 -0.04 0c-0.8,-1.03 -1.6,-2.06 -2.39,-3.11l0 -0.01 0 0c-0.94,-1.25 -1.86,-2.51 -2.77,-3.78l0 -0.03 -0.03 0c-0.57,-0.8 -1.15,-1.59 -1.71,-2.4l0 -0.03 -0.02 0c-0.81,-1.15 -1.61,-2.3 -2.4,-3.46 -0.23,-0.35 -0.46,-0.69 -0.69,-1.04l0 0 0 0c-1.05,-1.57 -2.1,-3.16 -3.12,-4.76l0 -0.1 -0.06 0c-0.22,-0.34 -0.42,-0.68 -0.64,-1.01l0 -0.03 -0.01 0c-1.29,-2.05 -2.56,-4.13 -3.79,-6.22l0 -0.01 -0.01 0c-0.46,-0.78 -0.93,-1.54 -1.38,-2.33l0 -0.1 -0.05 0c-0.45,-0.79 -0.89,-1.59 -1.33,-2.38l0 -0.04 -0.03 0c-3.09,-5.51 -5.96,-11.15 -8.64,-16.9l0 -0.08 -0.03 0 -0.31 -0.66 0 -0.03 -0.01 0c-0.47,-1.01 -0.92,-2.03 -1.38,-3.06l0 -0.06 -0.03 0c-0.45,-1.03 -0.91,-2.06 -1.35,-3.1l0 -0.01 -0.01 0c-0.83,-1.95 -1.63,-3.9 -2.42,-5.87l0 -0.01 -0.01 0 -0.34 -0.88 0 -0.16 -0.06 0c-0.22,-0.55 -0.42,-1.1 -0.63,-1.66l0 -0.08 -0.03 0c-0.83,-2.17 -1.63,-4.36 -2.4,-6.55l0 -0.03 -0.01 0 -0.34 -0.95 0 -0.09 -0.03 0c-0.1,-0.29 -0.21,-0.59 -0.31,-0.89l0 -0.15 -0.05 0 -0.29 -0.89 0 -0.15 -0.05 0c-0.1,-0.31 -0.2,-0.61 -0.3,-0.92l0 -0.12 -0.04 0 -0.3 -0.94 0 -0.1 -0.03 0 -0.31 -0.97 0 -0.07 -0.02 0c-0.47,-1.46 -0.92,-2.93 -1.37,-4.41l0 -0.1 -0.03 0c-0.22,-0.74 -0.45,-1.48 -0.66,-2.23l0 -0.2 -0.06 0 -0.29 -0.99 0 -0.05 -0.01 0c-0.12,-0.41 -0.22,-0.82 -0.34,-1.23l0 -0.15 -0.04 0c-0.22,-0.8 -0.44,-1.6 -0.65,-2.4l0 -0.03 -0.01 0c-0.48,-1.8 -0.94,-3.62 -1.38,-5.44l0 -0.1 -0.03 0c-0.1,-0.44 -0.22,-0.88 -0.32,-1.32l0 -0.07 -0.02 0c-0.23,-0.99 -0.45,-2 -0.67,-3l0 -0.12 -0.03 0c-0.48,-2.18 -0.94,-4.38 -1.36,-6.58l0 -0.01 0 0c-0.12,-0.6 -0.24,-1.19 -0.34,-1.79l0 -0.28 -0.06 0c-0.1,-0.53 -0.2,-1.05 -0.29,-1.58l0 -0.16 -0.03 0c-0.11,-0.64 -0.21,-1.28 -0.32,-1.93l0 -0.15 -0.02 0c-0.23,-1.38 -0.46,-2.75 -0.67,-4.13l0 -0.03 0 0c-0.25,-1.63 -0.47,-3.27 -0.69,-4.91l0 -0.29 -0.04 0c-0.11,-0.87 -0.2,-1.74 -0.31,-2.6l0 -0.17 -0.01 0c-0.26,-2.16 -0.48,-4.32 -0.68,-6.49l0 -0.43 -0.03 0c-0.11,-1.19 -0.22,-2.39 -0.31,-3.58l0 -0.92 -0.06 0c-0.42,-5.83 -0.64,-11.73 -0.64,-17.67l0 -1277.72c0,-5.94 0.22,-11.83 0.64,-17.67l0.06 0 0 -0.92c0.08,-1.19 0.2,-2.39 0.31,-3.58l0.03 0 0 -0.43c0.2,-2.17 0.42,-4.34 0.68,-6.49l0.01 0 0 -0.17c0.1,-0.87 0.2,-1.74 0.31,-2.6l0.04 0 0 -0.29c0.21,-1.64 0.44,-3.28 0.69,-4.91l0 0 0 -0.03c0.21,-1.38 0.44,-2.76 0.67,-4.13l0.02 0 0 -0.15c0.11,-0.64 0.21,-1.29 0.32,-1.93l0.03 0 0 -0.16c0.09,-0.52 0.2,-1.05 0.29,-1.57l0.06 0 0 -0.28c0.1,-0.61 0.22,-1.2 0.34,-1.8l0 0 0 -0.01c0.43,-2.2 0.88,-4.39 1.36,-6.58l0.03 0 0 -0.11c0.22,-1.01 0.44,-2 0.67,-3l0.02 0 0 -0.07c0.1,-0.44 0.22,-0.87 0.32,-1.31l0.03 0 0 -0.1c0.44,-1.82 0.89,-3.64 1.38,-5.44l0.01 0 0 -0.03c0.21,-0.8 0.43,-1.6 0.65,-2.4l0.04 0 0 -0.15c0.11,-0.41 0.22,-0.82 0.34,-1.23l0.01 0 0 -0.05 0.29 -0.99 0.06 0 0 -0.2c0.22,-0.75 0.45,-1.49 0.66,-2.23l0.03 0 0 -0.1c0.45,-1.47 0.9,-2.94 1.37,-4.41l0.02 0 0 -0.07 0.31 -0.97 0.03 0 0 -0.1 0.3 -0.94 0.04 0 0 -0.12 0.3 -0.91 0.05 0 0 -0.15 0.29 -0.89 0.05 0 0 -0.15c0.1,-0.29 0.22,-0.59 0.31,-0.89l0.03 0 0 -0.09 0.34 -0.95 0.01 0 0 -0.03c0.77,-2.19 1.56,-4.38 2.4,-6.55l0.03 0 0 -0.07c0.21,-0.55 0.42,-1.11 0.63,-1.66l0.06 0 0 -0.16 0.34 -0.87 0.01 0 0 -0.02c0.78,-1.97 1.59,-3.92 2.42,-5.87l0.01 0 0 -0.01c0.44,-1.04 0.9,-2.07 1.35,-3.1l0.03 0 0 -0.06c0.45,-1.02 0.91,-2.04 1.38,-3.06l0.01 0 0 -0.02 0.31 -0.67 0.03 0 0 -0.07c2.67,-5.76 5.55,-11.4 8.64,-16.91l0.03 0 0 -0.04c0.44,-0.8 0.87,-1.59 1.33,-2.38l0.06 0 0 -0.1c0.45,-0.78 0.92,-1.55 1.38,-2.33l0.01 0 0 -0.01c1.24,-2.1 2.49,-4.17 3.79,-6.22l0.01 0 0 -0.03c0.22,-0.34 0.42,-0.68 0.64,-1.01l0.06 0 0 -0.1c1.03,-1.6 2.07,-3.18 3.12,-4.76l0 0 0 0 0.69 -1.03 0 0 0 -0.01c0.79,-1.16 1.59,-2.31 2.4,-3.46l0.02 0 0 -0.03c0.57,-0.8 1.14,-1.6 1.71,-2.4l0.03 0 0 -0.03c0.91,-1.26 1.83,-2.53 2.77,-3.78l0 0 0 -0.01c0.79,-1.04 1.59,-2.07 2.39,-3.11l0.04 0 0 -0.06c0.34,-0.44 0.68,-0.89 1.02,-1.33l0.01 0 0 -0.02 0.27 -0.33 0.08 0 0 -0.1c0.34,-0.43 0.69,-0.85 1.03,-1.28l0.01 0 0 -0.01c1.02,-1.28 2.05,-2.55 3.1,-3.81l0.01 0 0 -0.02c0.68,-0.8 1.35,-1.61 2.04,-2.4l0.04 0 0 -0.06c0.68,-0.8 1.37,-1.59 2.06,-2.37l0.02 0 0 -0.01 0.29 -0.33 0.06 0 0 -0.06c2.37,-2.69 4.79,-5.33 7.28,-7.91l0 0 0 -0.01 0.34 -0.34 0.01 0 0 -0.01 0.33 -0.34 0.01 0 0 -0.01 0.32 -0.33 0.03 0 0 -0.03 0.31 -0.32 0.04 0 0 -0.03c1.35,-1.39 2.73,-2.77 4.12,-4.12l0.03 0 0 -0.03 0.31 -0.31 0.03 0 0 -0.03 0.32 -0.31 0.02 0 0 -0.02 0.34 -0.33 0.01 0 0 -0.01 0.34 -0.34 0 0 0 0c2.58,-2.49 5.22,-4.9 7.91,-7.27l0.06 0 0 -0.06 0.33 -0.29 0.02 0 0 -0.02c0.79,-0.69 1.58,-1.38 2.37,-2.06l0.05 0 0 -0.04c0.8,-0.68 1.6,-1.36 2.41,-2.03l0.02 0 0 -0.01c1.25,-1.05 2.52,-2.08 3.8,-3.11l0.01 0 0 0c0.43,-0.35 0.85,-0.7 1.28,-1.04l0.1 0 0 -0.08 0.33 -0.27 0.01 0 0 -0.01c0.44,-0.35 0.89,-0.68 1.33,-1.03l0.06 0 0 -0.04c1.03,-0.8 2.06,-1.6 3.11,-2.38l0.01 0 0 -0.01c1.25,-0.94 2.51,-1.85 3.78,-2.77l0.03 0 0 -0.03c0.8,-0.57 1.59,-1.14 2.39,-1.7l0.03 0 0 -0.02c1.49,-1.05 2.99,-2.08 4.5,-3.1l0 0 0 0c1.57,-1.05 3.16,-2.1 4.76,-3.11l0.1 0 0 -0.06c0.34,-0.21 0.68,-0.42 1.01,-0.63l0.02 0 0 -0.02c2.06,-1.29 4.13,-2.56 6.23,-3.79l0.01 0 0 -0.01c0.78,-0.46 1.55,-0.93 2.33,-1.38l0.1 0 0 -0.06c0.78,-0.45 1.59,-0.89 2.37,-1.33l0.05 0 0 -0.03c5.51,-3.09 11.15,-5.96 16.9,-8.63l0.08 0 0 -0.03 0.67 -0.31 0.02 0 0 -0.01c1.01,-0.47 2.03,-0.92 3.06,-1.38l0.06 0 0 -0.03c1.03,-0.46 2.07,-0.91 3.11,-1.36l0.01 0 0 -0.01c1.95,-0.83 3.9,-1.63 5.87,-2.42l0.01 0 0 -0.01 0.88 -0.34 0.16 0 0 -0.06c0.55,-0.22 1.11,-0.43 1.66,-0.64l0.07 0 0 -0.03c2.17,-0.83 4.35,-1.63 6.55,-2.4l0.03 0 0 -0.01 0.95 -0.34 0.09 0 0 -0.03c0.29,-0.1 0.59,-0.22 0.89,-0.31l0.15 0 0 -0.06 0.89 -0.29 0.15 0 0 -0.05c0.31,-0.1 0.61,-0.2 0.91,-0.29l0.13 0 0 -0.04 0.94 -0.31 0.1 0 0 -0.03 0.97 -0.31 0.07 0 0 -0.02c1.46,-0.47 2.93,-0.92 4.41,-1.36l0.1 0 0 -0.03c0.74,-0.22 1.48,-0.45 2.23,-0.66l0.2 0 0 -0.06 0.98 -0.29 0.06 0 0 -0.01c0.41,-0.12 0.82,-0.22 1.23,-0.34l0.15 0 0 -0.04c0.8,-0.22 1.6,-0.43 2.4,-0.65l0.02 0 0 -0.01c1.81,-0.48 3.62,-0.94 5.45,-1.38l0.1 0 0 -0.03c0.44,-0.1 0.88,-0.22 1.32,-0.32l0.07 0 0 -0.01c0.99,-0.24 2,-0.45 3,-0.68l0.12 0 0 -0.03c2.18,-0.48 4.37,-0.94 6.58,-1.35l0.01 0 0 -0.01c0.59,-0.11 1.19,-0.23 1.79,-0.34l0.28 0 0 -0.06c0.53,-0.1 1.05,-0.2 1.59,-0.29l0.15 0 0 -0.02c0.64,-0.12 1.29,-0.22 1.93,-0.32l0.15 0 0 -0.03c1.38,-0.23 2.75,-0.46 4.13,-0.67l0.03 0 0 0c1.63,-0.24 3.28,-0.47 4.92,-0.69l0.27 0 0 -0.03c0.87,-0.11 1.75,-0.21 2.61,-0.31l0.16 0 0 -0.02c2.16,-0.25 4.33,-0.47 6.5,-0.68l0.43 0 0 -0.03c1.19,-0.1 2.4,-0.22 3.6,-0.31l0.9 0 0 -0.06c5.84,-0.42 11.73,-0.64 17.68,-0.64l1277.72 0c5.94,0 11.83,0.22 17.67,0.64l0 0.06 0.9 0c1.21,0.09 2.4,0.2 3.6,0.31l0 0.03 0.43 0c2.17,0.2 4.34,0.43 6.49,0.68l0 0.02 0.17 0c0.87,0.1 1.74,0.2 2.6,0.31l0 0.03 0.28 0c1.64,0.22 3.28,0.45 4.92,0.69l0 0 0.03 0c1.38,0.21 2.76,0.44 4.13,0.67l0 0.03 0.15 0c0.65,0.1 1.29,0.2 1.93,0.32l0 0.02 0.15 0c0.52,0.1 1.05,0.2 1.58,0.29l0 0.06 0.28 0c0.6,0.11 1.2,0.23 1.8,0.34l0 0.01 0.01 0c2.2,0.42 4.39,0.87 6.57,1.35l0 0.03 0.12 0c1.01,0.22 2,0.44 3,0.68l0 0.01 0.07 0c0.44,0.1 0.87,0.22 1.31,0.32l0 0.03 0.1 0c1.82,0.44 3.64,0.89 5.45,1.38l0 0.01 0.02 0c0.8,0.22 1.61,0.43 2.4,0.65l0 0.04 0.16 0c0.41,0.12 0.82,0.22 1.23,0.34l0 0.01 0.05 0 0.99 0.29 0 0.06 0.2 0c0.75,0.21 1.49,0.44 2.23,0.66l0 0.03 0.1 0c1.47,0.44 2.94,0.89 4.41,1.36l0 0.02 0.07 0 0.97 0.31 0 0.03 0.09 0 0.94 0.31 0 0.04 0.13 0 0.91 0.29 0 0.05 0.15 0 0.89 0.29 0 0.06 0.15 0c0.3,0.1 0.59,0.21 0.89,0.31l0 0.03 0.09 0 0.95 0.34 0 0.01 0.03 0c2.19,0.77 4.38,1.57 6.54,2.4l0 0.03 0.08 0c0.55,0.21 1.11,0.42 1.66,0.64l0 0.06 0.17 0 0.87 0.34 0 0.01 0.01 0c1.98,0.78 3.93,1.59 5.88,2.42l0 0.01 0.01 0c1.04,0.45 2.07,0.9 3.1,1.36l0 0.03 0.06 0c1.02,0.45 2.04,0.91 3.06,1.37l0 0.01 0.02 0 0.67 0.31 0 0.03 0.07 0c5.76,2.67 11.4,5.54 16.91,8.63l0 0.03 0.04 0c0.8,0.45 1.59,0.88 2.38,1.33l0 0.06 0.1 0c0.78,0.45 1.55,0.91 2.33,1.38l0 0.01 0.01 0c2.1,1.24 4.17,2.5 6.22,3.79l0 0.02 0.03 0c0.34,0.21 0.68,0.42 1.01,0.63l0 0.06 0.09 0c1.6,1.02 3.18,2.06 4.76,3.11l0 0 0.01 0c1.52,1.02 3.01,2.05 4.5,3.1l0 0.02 0.03 0c0.8,0.57 1.6,1.13 2.4,1.7l0 0.03 0.03 0c1.26,0.91 2.53,1.83 3.77,2.77l0 0.01 0.01 0c1.04,0.78 2.07,1.59 3.11,2.38l0 0.04 0.05 0c0.45,0.34 0.89,0.68 1.33,1.03l0 0.01 0.02 0 0.33 0.27 0 0.08 0.1 0c0.43,0.34 0.85,0.69 1.28,1.04l0 0 0.01 0c1.28,1.03 2.55,2.06 3.81,3.11l0 0.01 0.02 0c0.8,0.67 1.61,1.35 2.4,2.03l0 0.04 0.06 0c0.8,0.68 1.59,1.37 2.37,2.06l0 0.02 0.02 0 0.33 0.29 0 0.06 0.06 0c2.69,2.37 5.33,4.78 7.91,7.27l0 0 0.01 0 0.34 0.34 0 0.01 0.01 0 0.33 0.33 0 0.02 0.02 0 0.33 0.31 0 0.03 0.03 0 0.32 0.31 0 0.03 0.03 0c1.39,1.35 2.77,2.73 4.12,4.12l0 0.03 0.03 0 0.31 0.32 0 0.03 0.03 0 0.31 0.32 0 0.02 0.02 0 0.33 0.34 0 0.01 0.01 0 0.34 0.34 0 0.01 0.01 0c2.48,2.58 4.9,5.22 7.27,7.91l0 0.06 0.06 0 0.29 0.33 0 0.01 0.01 0c0.69,0.79 1.38,1.58 2.06,2.37l0 0.06 0.05 0c0.68,0.8 1.36,1.6 2.03,2.4l0 0.02 0.01 0c1.05,1.26 2.08,2.53 3.11,3.81l0 0.01 0 0c0.34,0.43 0.7,0.85 1.03,1.28l0 0.1 0.08 0 0.27 0.33 0 0.02 0.01 0c0.35,0.44 0.68,0.89 1.03,1.33l0 0.05 0.04 0c0.8,1.03 1.6,2.07 2.38,3.11l0 0.01 0.01 0c0.94,1.25 1.85,2.51 2.77,3.78l0 0.03 0.03 0c0.57,0.8 1.14,1.59 1.7,2.4l0 0.03 0.02 0c1.05,1.49 2.08,2.99 3.09,4.5l0 0 0.01 0c1.05,1.58 2.1,3.16 3.11,4.76l0 0.1 0.06 0c0.22,0.34 0.43,0.68 0.64,1.01l0 0.03 0.01 0c1.3,2.05 2.56,4.13 3.8,6.22l0 0.01 0.01 0c0.46,0.78 0.93,1.54 1.38,2.33l0 0.1 0.06 0c0.45,0.79 0.89,1.59 1.33,2.38l0 0.04 0.02 0c3.09,5.51 5.97,11.15 8.64,16.91l0 0.07 0.03 0 0.31 0.67 0 0.02 0.01 0c0.47,1.02 0.92,2.04 1.38,3.06l0 0.06 0.03 0c0.45,1.03 0.91,2.06 1.36,3.1l0 0.01 0.01 0c0.82,1.95 1.63,3.9 2.42,5.87l0 0.02 0.01 0 0.34 0.87 0 0.16 0.06 0c0.22,0.55 0.42,1.11 0.64,1.66l0 0.07 0.03 0c0.82,2.17 1.63,4.36 2.4,6.55l0 0.03 0.01 0 0.33 0.95 0 0.09 0.03 0c0.1,0.3 0.22,0.59 0.31,0.89l0 0.15 0.05 0 0.3 0.89 0 0.15 0.05 0c0.1,0.3 0.2,0.61 0.29,0.91l0 0.12 0.04 0 0.31 0.94 0 0.1 0.03 0 0.32 0.97 0 0.07 0.02 0c0.47,1.47 0.92,2.93 1.36,4.41l0 0.1 0.03 0c0.22,0.74 0.45,1.48 0.66,2.23l0 0.2 0.06 0 0.29 0.99 0 0.05 0.01 0c0.11,0.41 0.22,0.82 0.33,1.23l0 0.15 0.04 0c0.22,0.8 0.44,1.61 0.66,2.4l0 0.03 0.01 0c0.48,1.81 0.94,3.62 1.38,5.45l0 0.1 0.02 0c0.11,0.44 0.22,0.87 0.33,1.31l0 0.07 0.01 0c0.24,1 0.45,2 0.68,3l0 0.11 0.03 0c0.48,2.19 0.93,4.38 1.35,6.58l0 0.01 0.01 0c0.11,0.6 0.23,1.2 0.34,1.8l0 0.28 0.06 0c0.1,0.52 0.2,1.05 0.29,1.58l0 0.15 0.02 0c0.11,0.64 0.22,1.28 0.32,1.93l0 0.15 0.03 0c0.23,1.38 0.45,2.75 0.66,4.13l0 0.03 0.01 0c0.24,1.63 0.47,3.27 0.69,4.92l0 0.28 0.03 0c0.11,0.87 0.2,1.74 0.31,2.6l0 0.17 0.02 0c0.25,2.16 0.47,4.32 0.67,6.49l0 0.43 0.04 0c0.1,1.2 0.22,2.4 0.31,3.6l0 0.9 0.06 0c0.42,5.84 0.64,11.73 0.64,17.67l0 1277.72c0,5.94 -0.22,11.84 -0.63,17.67l-0.06 0 0 0.94c-0.1,1.31 -0.22,2.61 -0.34,3.92l-0.01 0 0 0.12c-0.2,2.16 -0.42,4.32 -0.66,6.46l-0.03 0 0 0.21c-0.1,0.86 -0.19,1.72 -0.3,2.56l-0.04 0 0 0.32c-0.11,0.82 -0.23,1.63 -0.34,2.45l-0.01 0 0 0.03c-0.31,2.2 -0.64,4.38 -1.01,6.56l-0.03 0 0 0.2c-0.1,0.63 -0.2,1.25 -0.31,1.87l-0.03 0 0 0.22c-0.22,1.21 -0.45,2.4 -0.68,3.6l-0.01 0 0 0.07c-0.42,2.19 -0.87,4.35 -1.34,6.52l-0.04 0 0 0.19c-0.11,0.52 -0.22,1.03 -0.34,1.54l-0.01 0 0 0.05 -0.31 1.33 -0.03 0 0 0.15c-0.1,0.41 -0.21,0.82 -0.31,1.24l-0.04 0 0 0.17c-0.54,2.26 -1.12,4.51 -1.73,6.75l0 0 0 0c-0.22,0.81 -0.43,1.62 -0.66,2.42l-0.03 0 0 0.14c-0.22,0.77 -0.45,1.52 -0.68,2.28l-0.01 0 0 0.06c-1.16,3.95 -2.42,7.86 -3.76,11.72l-0.05 0 0 0.14 -0.32 0.9 -0.03 0 0 0.08 -0.34 0.96 -0.01 0 0 0.02c-0.66,1.85 -1.35,3.69 -2.06,5.52l-0.02 0 0 0.06c-0.22,0.56 -0.42,1.12 -0.64,1.68l-0.05 0 0 0.12c-0.22,0.54 -0.44,1.08 -0.66,1.61l-0.03 0 0 0.08 -0.67 1.65 -0.03 0 0 0.05c-0.66,1.61 -1.34,3.21 -2.04,4.8l-0.03 0 0 0.08c-0.34,0.78 -0.68,1.56 -1.03,2.35l-0.01 0 0 0.03 -0.3 0.66 -0.05 0 0 0.09c-1.21,2.65 -2.47,5.27 -3.76,7.88l-0.04 0 0 0.09 -0.3 0.6 -0.05 0 0 0.1 -0.29 0.59 -0.06 0 0 0.1 -0.29 0.59 -0.06 0 0 0.11 -0.31 0.59 -0.04 0 0 0.08 -0.32 0.61 -0.03 0 0 0.05 -0.34 0.64 -0.01 0 0 0.01c-1.34,2.56 -2.72,5.1 -4.14,7.61l-0.01 0 0 0.03c-0.33,0.57 -0.65,1.14 -0.98,1.7l-0.06 0 0 0.11 -0.34 0.58 -0.01 0 0 0.01c-0.34,0.58 -0.68,1.15 -1.02,1.72l-0.02 0 0 0.03c-0.68,1.15 -1.37,2.29 -2.07,3.43l-0.01 0 0 0.01c-0.57,0.92 -1.15,1.84 -1.72,2.76l-0.01 0 0 0.02c-0.22,0.34 -0.43,0.68 -0.64,1.02l-0.06 0 0 0.08c-0.2,0.32 -0.42,0.64 -0.63,0.96l-0.06 0 0 0.1c-1.34,2.07 -2.72,4.11 -4.12,6.14l-0.03 0 0 0.06 -0.68 0.98 -0.01 0 0 0.01c-0.57,0.81 -1.13,1.61 -1.7,2.41l-0.03 0 0 0.04c-1.25,1.74 -2.52,3.46 -3.81,5.16l-0.01 0 0 0.01c-0.79,1.04 -1.58,2.08 -2.38,3.11l-0.04 0 0 0.06c-0.45,0.57 -0.89,1.12 -1.34,1.68l-0.05 0 0 0.06c-1.57,1.97 -3.17,3.92 -4.8,5.83l-0.05 0 0 0.06c-0.57,0.67 -1.14,1.35 -1.72,2.02l-0.01 0 0 0.02 -0.29 0.33 -0.06 0 0 0.06c-2.03,2.33 -4.11,4.62 -6.22,6.86l-0.02 0 0 0.02 -0.3 0.33 -0.05 0 0 0.04 -0.28 0.3 -0.06 0 0 0.07 -0.26 0.28 -0.09 0 0 0.1c-3.01,3.17 -6.11,6.25 -9.28,9.25l-0.07 0 0 0.07 -0.3 0.28 -0.05 0 0 0.04 -0.32 0.3 -0.03 0 0 0.02c-2.24,2.12 -4.53,4.19 -6.85,6.22l-0.08 0 0 0.07 -0.31 0.28 -0.03 0 0 0.03c-0.8,0.69 -1.61,1.37 -2.42,2.05l0 0 0 0c-1.81,1.52 -3.63,3.03 -5.48,4.5l-0.06 0 0 0.06c-0.56,0.44 -1.11,0.89 -1.67,1.33l-0.06 0 0 0.05c-1.03,0.8 -2.06,1.59 -3.1,2.37l-0.02 0 0 0.02c-0.91,0.69 -1.84,1.38 -2.77,2.06l-0.01 0 0 0.01c-0.78,0.57 -1.57,1.15 -2.37,1.72l-0.06 0 0 0.04c-0.8,0.57 -1.59,1.13 -2.4,1.69l-0.03 0 0 0.02c-2.7,1.89 -5.43,3.74 -8.21,5.52l-0.1 0 0 0.06c-0.33,0.22 -0.67,0.42 -1,0.63l-0.04 0 0 0.03c-2.04,1.29 -4.1,2.55 -6.17,3.79l-0.06 0 0 0.03c-0.57,0.34 -1.13,0.67 -1.7,1.01l-0.03 0 0 0.01c-0.79,0.46 -1.58,0.91 -2.37,1.37l-0.05 0 0 0.03c-2.28,1.3 -4.6,2.56 -6.93,3.79l0 0 0 0 -0.66 0.34 -0.03 0 0 0.02 -0.62 0.33 -0.08 0 0 0.04 -0.58 0.31 -0.11 0 0 0.06 -0.56 0.29 -0.13 0 0 0.06 -0.57 0.29 -0.13 0 0 0.06c-1.83,0.92 -3.67,1.82 -5.52,2.71l-0.02 0 0 0.01c-1.22,0.58 -2.45,1.16 -3.69,1.72l-0.13 0 0 0.06 -0.63 0.29 -0.06 0 0 0.03c-1.03,0.46 -2.07,0.91 -3.1,1.36l-0.01 0 0 0.01c-1.91,0.82 -3.83,1.63 -5.78,2.42l-0.12 0 0 0.05c-0.52,0.21 -1.05,0.43 -1.57,0.64l-0.16 0 0 0.06c-0.54,0.22 -1.1,0.42 -1.64,0.63l-0.09 0 0 0.03c-1.49,0.58 -3,1.15 -4.5,1.7 -0.32,0.12 -0.66,0.22 -0.98,0.34l-0.06 0 0 0.02c-3.76,1.35 -7.58,2.62 -11.43,3.79 -0.77,0.24 -1.54,0.46 -2.33,0.69l-0.1 0 0 0.03c-0.75,0.22 -1.49,0.45 -2.25,0.66l-0.17 0 0 0.05c-0.8,0.22 -1.59,0.43 -2.39,0.64l-0.03 0 0 0.01c-2.23,0.61 -4.47,1.18 -6.73,1.72l-0.21 0 0 0.06c-0.4,0.1 -0.8,0.2 -1.21,0.29l-0.17 0 0 0.04 -1.31 0.31 -0.08 0 0 0.01c-1.03,0.24 -2.07,0.45 -3.1,0.68l-0.01 0 0 0.01c-1.69,0.36 -3.39,0.71 -5.09,1.03l-0.1 0 0 0.02c-0.57,0.1 -1.14,0.22 -1.7,0.32l-0.03 0 0 0.01c-0.61,0.11 -1.22,0.23 -1.84,0.34l-0.24 0 0 0.04c-0.61,0.1 -1.23,0.2 -1.84,0.31l-0.24 0 0 0.03c-2.16,0.36 -4.34,0.7 -6.52,1l-0.06 0 0 0.01c-0.8,0.11 -1.61,0.23 -2.42,0.34l-0.36 0 0 0.05c-0.85,0.11 -1.7,0.2 -2.54,0.3l-0.23 0 0 0.02c-2.14,0.25 -4.29,0.47 -6.45,0.67l-0.13 0 0 0.01c-1.3,0.11 -2.59,0.23 -3.89,0.33l-0.96 0 0 0.06c-5.84,0.42 -11.73,0.64 -17.67,0.64l-1277.72 0c-5.94,0 -11.84,-0.22 -17.68,-0.64z"/>
   </clipPath>
 </defs>
 <g id="Layer_x0020_1">
  <metadata id="CorelCorpID_0Corel-Layer"/>
  <path class="fil0" d="M230.39 1773.21l0 -0.06 -0.91 0c-1.2,-0.08 -2.39,-0.2 -3.58,-0.31l0 -0.03 -0.43 0c-2.18,-0.2 -4.34,-0.43 -6.5,-0.68l0 -0.01 -0.16 0c-0.87,-0.1 -1.74,-0.2 -2.61,-0.31l0 -0.04 -0.28 0c-1.64,-0.22 -3.28,-0.45 -4.92,-0.69l0 0 -0.03 0c-1.38,-0.21 -2.75,-0.44 -4.13,-0.67l0 -0.02 -0.15 0c-0.64,-0.11 -1.29,-0.21 -1.93,-0.32l0 -0.03 -0.15 0c-0.52,-0.09 -1.05,-0.2 -1.58,-0.29l0 -0.06 -0.28 0c-0.6,-0.11 -1.19,-0.23 -1.79,-0.34l0 0 -0.01 0c-2.21,-0.43 -4.39,-0.88 -6.58,-1.36l0 -0.03 -0.12 0c-1,-0.22 -2,-0.44 -3,-0.68l0 -0.01 -0.07 0c-0.44,-0.1 -0.88,-0.22 -1.32,-0.32l0 -0.03 -0.1 0c-1.82,-0.44 -3.64,-0.89 -5.45,-1.38l0 -0.01 -0.02 0c-0.8,-0.22 -1.61,-0.43 -2.4,-0.65l0 -0.04 -0.15 0c-0.41,-0.11 -0.82,-0.22 -1.23,-0.34l0 -0.01 -0.06 0 -0.98 -0.29 0 -0.06 -0.2 0c-0.75,-0.22 -1.49,-0.45 -2.23,-0.67l0 -0.03 -0.1 0c-1.47,-0.44 -2.95,-0.89 -4.41,-1.36l0 -0.02 -0.07 0 -0.97 -0.31 0 -0.03 -0.1 0 -0.94 -0.31 0 -0.03 -0.13 0 -0.91 -0.3 0 -0.05 -0.15 0 -0.89 -0.29 0 -0.06 -0.15 0c-0.3,-0.1 -0.59,-0.21 -0.89,-0.31l0 -0.03 -0.09 0 -0.95 -0.34 0 -0.01 -0.03 0c-2.2,-0.77 -4.38,-1.56 -6.55,-2.4l0 -0.03 -0.08 0c-0.55,-0.21 -1.1,-0.42 -1.66,-0.63l0 -0.06 -0.16 0 -0.88 -0.34 0 -0.01 -0.01 0c-1.97,-0.78 -3.92,-1.59 -5.87,-2.42l0 -0.01 -0.01 0c-1.04,-0.44 -2.07,-0.9 -3.11,-1.36l0 -0.02 -0.06 0c-1.03,-0.45 -2.05,-0.91 -3.06,-1.38l0 -0.01 -0.03 0 -0.66 -0.31 0 -0.03 -0.08 0c-5.75,-2.66 -11.39,-5.54 -16.9,-8.63l0 -0.03 -0.04 0c-0.8,-0.45 -1.6,-0.88 -2.38,-1.33l0 -0.05 -0.1 0c-0.78,-0.45 -1.55,-0.92 -2.33,-1.38l0 -0.01 -0.01 0c-2.1,-1.24 -4.17,-2.5 -6.23,-3.79l0 -0.01 -0.02 0c-0.34,-0.22 -0.68,-0.42 -1.01,-0.64l0 -0.06 -0.1 0c-1.6,-1.02 -3.18,-2.06 -4.76,-3.11l0 0 0 0 -1.04 -0.69c-1.16,-0.79 -2.31,-1.6 -3.46,-2.4l0 -0.03 -0.03 0c-0.8,-0.56 -1.59,-1.13 -2.39,-1.7l0 -0.03 -0.03 0c-1.26,-0.91 -2.53,-1.83 -3.78,-2.77l0 0 -0.01 0c-1.05,-0.79 -2.07,-1.59 -3.11,-2.39l0 -0.04 -0.06 0c-0.44,-0.34 -0.89,-0.68 -1.33,-1.02l0 -0.02 -0.01 0 -0.33 -0.26 0 -0.08 -0.1 0c-0.43,-0.34 -0.86,-0.69 -1.28,-1.03l0 -0.01 -0.01 0c-1.28,-1.03 -2.54,-2.05 -3.8,-3.1l0 -0.01 -0.02 0c-0.81,-0.68 -1.61,-1.35 -2.41,-2.04l0 -0.04 -0.05 0c-0.8,-0.68 -1.59,-1.37 -2.37,-2.06l0 -0.02 -0.02 0 -0.33 -0.29 0 -0.06 -0.06 0c-2.68,-2.37 -5.32,-4.8 -7.91,-7.28l0 0 0 0 -0.34 -0.34 0 -0.01 -0.01 0 -0.34 -0.32 0 -0.02 -0.02 0 -0.32 -0.32 0 -0.03 -0.03 0 -0.31 -0.31 0 -0.04 -0.04 0c-1.39,-1.35 -2.76,-2.73 -4.11,-4.11l0 -0.04 -0.04 0 -0.31 -0.31 0 -0.03 -0.03 0 -0.32 -0.32 0 -0.02 -0.02 0 -0.32 -0.34 0 -0.01 -0.01 0 -0.34 -0.34 0 0 0 0c-2.49,-2.58 -4.91,-5.22 -7.28,-7.91l0 -0.06 -0.06 0 -0.29 -0.33 0 -0.02 -0.02 0c-0.69,-0.79 -1.38,-1.58 -2.06,-2.37l0 -0.05 -0.04 0c-0.68,-0.8 -1.36,-1.6 -2.04,-2.41l0 -0.02 -0.01 0c-1.05,-1.25 -2.08,-2.53 -3.1,-3.8l0 -0.01 -0.01 0c-0.34,-0.43 -0.69,-0.85 -1.03,-1.28l0 -0.1 -0.08 0 -0.27 -0.33 0 -0.01 -0.01 0c-0.34,-0.44 -0.68,-0.89 -1.02,-1.33l0 -0.06 -0.04 0c-0.8,-1.03 -1.6,-2.06 -2.39,-3.11l0 -0.01 0 0c-0.94,-1.25 -1.86,-2.51 -2.77,-3.78l0 -0.03 -0.03 0c-0.57,-0.8 -1.15,-1.59 -1.71,-2.4l0 -0.03 -0.02 0c-0.81,-1.15 -1.61,-2.3 -2.4,-3.46 -0.23,-0.35 -0.46,-0.69 -0.69,-1.04l0 0 0 0c-1.05,-1.57 -2.1,-3.16 -3.12,-4.76l0 -0.1 -0.06 0c-0.22,-0.34 -0.42,-0.68 -0.64,-1.01l0 -0.03 -0.01 0c-1.29,-2.05 -2.56,-4.13 -3.79,-6.22l0 -0.01 -0.01 0c-0.46,-0.78 -0.93,-1.54 -1.38,-2.33l0 -0.1 -0.05 0c-0.45,-0.79 -0.89,-1.59 -1.33,-2.38l0 -0.04 -0.03 0c-3.09,-5.51 -5.96,-11.15 -8.64,-16.9l0 -0.08 -0.03 0 -0.31 -0.66 0 -0.03 -0.01 0c-0.47,-1.01 -0.92,-2.03 -1.38,-3.06l0 -0.06 -0.03 0c-0.45,-1.03 -0.91,-2.06 -1.35,-3.1l0 -0.01 -0.01 0c-0.83,-1.95 -1.63,-3.9 -2.42,-5.87l0 -0.01 -0.01 0 -0.34 -0.88 0 -0.16 -0.06 0c-0.22,-0.55 -0.42,-1.1 -0.63,-1.66l0 -0.08 -0.03 0c-0.83,-2.17 -1.63,-4.36 -2.4,-6.55l0 -0.03 -0.01 0 -0.34 -0.95 0 -0.09 -0.03 0c-0.1,-0.29 -0.21,-0.59 -0.31,-0.89l0 -0.15 -0.05 0 -0.29 -0.89 0 -0.15 -0.05 0c-0.1,-0.31 -0.2,-0.61 -0.3,-0.92l0 -0.12 -0.04 0 -0.3 -0.94 0 -0.1 -0.03 0 -0.31 -0.97 0 -0.07 -0.02 0c-0.47,-1.46 -0.92,-2.93 -1.37,-4.41l0 -0.1 -0.03 0c-0.22,-0.74 -0.45,-1.48 -0.66,-2.23l0 -0.2 -0.06 0 -0.29 -0.99 0 -0.05 -0.01 0c-0.12,-0.41 -0.22,-0.82 -0.34,-1.23l0 -0.15 -0.04 0c-0.22,-0.8 -0.44,-1.6 -0.65,-2.4l0 -0.03 -0.01 0c-0.48,-1.8 -0.94,-3.62 -1.38,-5.44l0 -0.1 -0.03 0c-0.1,-0.44 -0.22,-0.88 -0.32,-1.32l0 -0.07 -0.02 0c-0.23,-0.99 -0.45,-2 -0.67,-3l0 -0.12 -0.03 0c-0.48,-2.18 -0.94,-4.38 -1.36,-6.58l0 -0.01 0 0c-0.12,-0.6 -0.24,-1.19 -0.34,-1.79l0 -0.28 -0.06 0c-0.1,-0.53 -0.2,-1.05 -0.29,-1.58l0 -0.16 -0.03 0c-0.11,-0.64 -0.21,-1.28 -0.32,-1.93l0 -0.15 -0.02 0c-0.23,-1.38 -0.46,-2.75 -0.67,-4.13l0 -0.03 0 0c-0.25,-1.63 -0.47,-3.27 -0.69,-4.91l0 -0.29 -0.04 0c-0.11,-0.87 -0.2,-1.74 -0.31,-2.6l0 -0.17 -0.01 0c-0.26,-2.16 -0.48,-4.32 -0.68,-6.49l0 -0.43 -0.03 0c-0.11,-1.19 -0.22,-2.39 -0.31,-3.58l0 -0.92 -0.06 0c-0.42,-5.83 -0.64,-11.73 -0.64,-17.67l0 -1277.72c0,-5.94 0.22,-11.83 0.64,-17.67l0.06 0 0 -0.92c0.08,-1.19 0.2,-2.39 0.31,-3.58l0.03 0 0 -0.43c0.2,-2.17 0.42,-4.34 0.68,-6.49l0.01 0 0 -0.17c0.1,-0.87 0.2,-1.74 0.31,-2.6l0.04 0 0 -0.29c0.21,-1.64 0.44,-3.28 0.69,-4.91l0 0 0 -0.03c0.21,-1.38 0.44,-2.76 0.67,-4.13l0.02 0 0 -0.15c0.11,-0.64 0.21,-1.29 0.32,-1.93l0.03 0 0 -0.16c0.09,-0.52 0.2,-1.05 0.29,-1.57l0.06 0 0 -0.28c0.1,-0.61 0.22,-1.2 0.34,-1.8l0 0 0 -0.01c0.43,-2.2 0.88,-4.39 1.36,-6.58l0.03 0 0 -0.11c0.22,-1.01 0.44,-2 0.67,-3l0.02 0 0 -0.07c0.1,-0.44 0.22,-0.87 0.32,-1.31l0.03 0 0 -0.1c0.44,-1.82 0.89,-3.64 1.38,-5.44l0.01 0 0 -0.03c0.21,-0.8 0.43,-1.6 0.65,-2.4l0.04 0 0 -0.15c0.11,-0.41 0.22,-0.82 0.34,-1.23l0.01 0 0 -0.05 0.29 -0.99 0.06 0 0 -0.2c0.22,-0.75 0.45,-1.49 0.66,-2.23l0.03 0 0 -0.1c0.45,-1.47 0.9,-2.94 1.37,-4.41l0.02 0 0 -0.07 0.31 -0.97 0.03 0 0 -0.1 0.3 -0.94 0.04 0 0 -0.12 0.3 -0.91 0.05 0 0 -0.15 0.29 -0.89 0.05 0 0 -0.15c0.1,-0.29 0.22,-0.59 0.31,-0.89l0.03 0 0 -0.09 0.34 -0.95 0.01 0 0 -0.03c0.77,-2.19 1.56,-4.38 2.4,-6.55l0.03 0 0 -0.07c0.21,-0.55 0.42,-1.11 0.63,-1.66l0.06 0 0 -0.16 0.34 -0.87 0.01 0 0 -0.02c0.78,-1.97 1.59,-3.92 2.42,-5.87l0.01 0 0 -0.01c0.44,-1.04 0.9,-2.07 1.35,-3.1l0.03 0 0 -0.06c0.45,-1.02 0.91,-2.04 1.38,-3.06l0.01 0 0 -0.02 0.31 -0.67 0.03 0 0 -0.07c2.67,-5.76 5.55,-11.4 8.64,-16.91l0.03 0 0 -0.04c0.44,-0.8 0.87,-1.59 1.33,-2.38l0.06 0 0 -0.1c0.45,-0.78 0.92,-1.55 1.38,-2.33l0.01 0 0 -0.01c1.24,-2.1 2.49,-4.17 3.79,-6.22l0.01 0 0 -0.03c0.22,-0.34 0.42,-0.68 0.64,-1.01l0.06 0 0 -0.1c1.03,-1.6 2.07,-3.18 3.12,-4.76l0 0 0 0 0.69 -1.03 0 0 0 -0.01c0.79,-1.16 1.59,-2.31 2.4,-3.46l0.02 0 0 -0.03c0.57,-0.8 1.14,-1.6 1.71,-2.4l0.03 0 0 -0.03c0.91,-1.26 1.83,-2.53 2.77,-3.78l0 0 0 -0.01c0.79,-1.04 1.59,-2.07 2.39,-3.11l0.04 0 0 -0.06c0.34,-0.44 0.68,-0.89 1.02,-1.33l0.01 0 0 -0.02 0.27 -0.33 0.08 0 0 -0.1c0.34,-0.43 0.69,-0.85 1.03,-1.28l0.01 0 0 -0.01c1.02,-1.28 2.05,-2.55 3.1,-3.81l0.01 0 0 -0.02c0.68,-0.8 1.35,-1.61 2.04,-2.4l0.04 0 0 -0.06c0.68,-0.8 1.37,-1.59 2.06,-2.37l0.02 0 0 -0.01 0.29 -0.33 0.06 0 0 -0.06c2.37,-2.69 4.79,-5.33 7.28,-7.91l0 0 0 -0.01 0.34 -0.34 0.01 0 0 -0.01 0.33 -0.34 0.01 0 0 -0.01 0.32 -0.33 0.03 0 0 -0.03 0.31 -0.32 0.04 0 0 -0.03c1.35,-1.39 2.73,-2.77 4.12,-4.12l0.03 0 0 -0.03 0.31 -0.31 0.03 0 0 -0.03 0.32 -0.31 0.02 0 0 -0.02 0.34 -0.33 0.01 0 0 -0.01 0.34 -0.34 0 0 0 0c2.58,-2.49 5.22,-4.9 7.91,-7.27l0.06 0 0 -0.06 0.33 -0.29 0.02 0 0 -0.02c0.79,-0.69 1.58,-1.38 2.37,-2.06l0.05 0 0 -0.04c0.8,-0.68 1.6,-1.36 2.41,-2.03l0.02 0 0 -0.01c1.25,-1.05 2.52,-2.08 3.8,-3.11l0.01 0 0 0c0.43,-0.35 0.85,-0.7 1.28,-1.04l0.1 0 0 -0.08 0.33 -0.27 0.01 0 0 -0.01c0.44,-0.35 0.89,-0.68 1.33,-1.03l0.06 0 0 -0.04c1.03,-0.8 2.06,-1.6 3.11,-2.38l0.01 0 0 -0.01c1.25,-0.94 2.51,-1.85 3.78,-2.77l0.03 0 0 -0.03c0.8,-0.57 1.59,-1.14 2.39,-1.7l0.03 0 0 -0.02c1.49,-1.05 2.99,-2.08 4.5,-3.1l0 0 0 0c1.57,-1.05 3.16,-2.1 4.76,-3.11l0.1 0 0 -0.06c0.34,-0.21 0.68,-0.42 1.01,-0.63l0.02 0 0 -0.02c2.06,-1.29 4.13,-2.56 6.23,-3.79l0.01 0 0 -0.01c0.78,-0.46 1.55,-0.93 2.33,-1.38l0.1 0 0 -0.06c0.78,-0.45 1.59,-0.89 2.37,-1.33l0.05 0 0 -0.03c5.51,-3.09 11.15,-5.96 16.9,-8.63l0.08 0 0 -0.03 0.67 -0.31 0.02 0 0 -0.01c1.01,-0.47 2.03,-0.92 3.06,-1.38l0.06 0 0 -0.03c1.03,-0.46 2.07,-0.91 3.11,-1.36l0.01 0 0 -0.01c1.95,-0.83 3.9,-1.63 5.87,-2.42l0.01 0 0 -0.01 0.88 -0.34 0.16 0 0 -0.06c0.55,-0.22 1.11,-0.43 1.66,-0.64l0.07 0 0 -0.03c2.17,-0.83 4.35,-1.63 6.55,-2.4l0.03 0 0 -0.01 0.95 -0.34 0.09 0 0 -0.03c0.29,-0.1 0.59,-0.22 0.89,-0.31l0.15 0 0 -0.06 0.89 -0.29 0.15 0 0 -0.05c0.31,-0.1 0.61,-0.2 0.91,-0.29l0.13 0 0 -0.04 0.94 -0.31 0.1 0 0 -0.03 0.97 -0.31 0.07 0 0 -0.02c1.46,-0.47 2.93,-0.92 4.41,-1.36l0.1 0 0 -0.03c0.74,-0.22 1.48,-0.45 2.23,-0.66l0.2 0 0 -0.06 0.98 -0.29 0.06 0 0 -0.01c0.41,-0.12 0.82,-0.22 1.23,-0.34l0.15 0 0 -0.04c0.8,-0.22 1.6,-0.43 2.4,-0.65l0.02 0 0 -0.01c1.81,-0.48 3.62,-0.94 5.45,-1.38l0.1 0 0 -0.03c0.44,-0.1 0.88,-0.22 1.32,-0.32l0.07 0 0 -0.01c0.99,-0.24 2,-0.45 3,-0.68l0.12 0 0 -0.03c2.18,-0.48 4.37,-0.94 6.58,-1.35l0.01 0 0 -0.01c0.59,-0.11 1.19,-0.23 1.79,-0.34l0.28 0 0 -0.06c0.53,-0.1 1.05,-0.2 1.59,-0.29l0.15 0 0 -0.02c0.64,-0.12 1.29,-0.22 1.93,-0.32l0.15 0 0 -0.03c1.38,-0.23 2.75,-0.46 4.13,-0.67l0.03 0 0 0c1.63,-0.24 3.28,-0.47 4.92,-0.69l0.27 0 0 -0.03c0.87,-0.11 1.75,-0.21 2.61,-0.31l0.16 0 0 -0.02c2.16,-0.25 4.33,-0.47 6.5,-0.68l0.43 0 0 -0.03c1.19,-0.1 2.4,-0.22 3.6,-0.31l0.9 0 0 -0.06c5.84,-0.42 11.73,-0.64 17.68,-0.64l1277.72 0c5.94,0 11.83,0.22 17.67,0.64l0 0.06 0.9 0c1.21,0.09 2.4,0.2 3.6,0.31l0 0.03 0.43 0c2.17,0.2 4.34,0.43 6.49,0.68l0 0.02 0.17 0c0.87,0.1 1.74,0.2 2.6,0.31l0 0.03 0.28 0c1.64,0.22 3.28,0.45 4.92,0.69l0 0 0.03 0c1.38,0.21 2.76,0.44 4.13,0.67l0 0.03 0.15 0c0.65,0.1 1.29,0.2 1.93,0.32l0 0.02 0.15 0c0.52,0.1 1.05,0.2 1.58,0.29l0 0.06 0.28 0c0.6,0.11 1.2,0.23 1.8,0.34l0 0.01 0.01 0c2.2,0.42 4.39,0.87 6.57,1.35l0 0.03 0.12 0c1.01,0.22 2,0.44 3,0.68l0 0.01 0.07 0c0.44,0.1 0.87,0.22 1.31,0.32l0 0.03 0.1 0c1.82,0.44 3.64,0.89 5.45,1.38l0 0.01 0.02 0c0.8,0.22 1.61,0.43 2.4,0.65l0 0.04 0.16 0c0.41,0.12 0.82,0.22 1.23,0.34l0 0.01 0.05 0 0.99 0.29 0 0.06 0.2 0c0.75,0.21 1.49,0.44 2.23,0.66l0 0.03 0.1 0c1.47,0.44 2.94,0.89 4.41,1.36l0 0.02 0.07 0 0.97 0.31 0 0.03 0.09 0 0.94 0.31 0 0.04 0.13 0 0.91 0.29 0 0.05 0.15 0 0.89 0.29 0 0.06 0.15 0c0.3,0.1 0.59,0.21 0.89,0.31l0 0.03 0.09 0 0.95 0.34 0 0.01 0.03 0c2.19,0.77 4.38,1.57 6.54,2.4l0 0.03 0.08 0c0.55,0.21 1.11,0.42 1.66,0.64l0 0.06 0.17 0 0.87 0.34 0 0.01 0.01 0c1.98,0.78 3.93,1.59 5.88,2.42l0 0.01 0.01 0c1.04,0.45 2.07,0.9 3.1,1.36l0 0.03 0.06 0c1.02,0.45 2.04,0.91 3.06,1.37l0 0.01 0.02 0 0.67 0.31 0 0.03 0.07 0c5.76,2.67 11.4,5.54 16.91,8.63l0 0.03 0.04 0c0.8,0.45 1.59,0.88 2.38,1.33l0 0.06 0.1 0c0.78,0.45 1.55,0.91 2.33,1.38l0 0.01 0.01 0c2.1,1.24 4.17,2.5 6.22,3.79l0 0.02 0.03 0c0.34,0.21 0.68,0.42 1.01,0.63l0 0.06 0.09 0c1.6,1.02 3.18,2.06 4.76,3.11l0 0 0.01 0c1.52,1.02 3.01,2.05 4.5,3.1l0 0.02 0.03 0c0.8,0.57 1.6,1.13 2.4,1.7l0 0.03 0.03 0c1.26,0.91 2.53,1.83 3.77,2.77l0 0.01 0.01 0c1.04,0.78 2.07,1.59 3.11,2.38l0 0.04 0.05 0c0.45,0.34 0.89,0.68 1.33,1.03l0 0.01 0.02 0 0.33 0.27 0 0.08 0.1 0c0.43,0.34 0.85,0.69 1.28,1.04l0 0 0.01 0c1.28,1.03 2.55,2.06 3.81,3.11l0 0.01 0.02 0c0.8,0.67 1.61,1.35 2.4,2.03l0 0.04 0.06 0c0.8,0.68 1.59,1.37 2.37,2.06l0 0.02 0.02 0 0.33 0.29 0 0.06 0.06 0c2.69,2.37 5.33,4.78 7.91,7.27l0 0 0.01 0 0.34 0.34 0 0.01 0.01 0 0.33 0.33 0 0.02 0.02 0 0.33 0.31 0 0.03 0.03 0 0.32 0.31 0 0.03 0.03 0c1.39,1.35 2.77,2.73 4.12,4.12l0 0.03 0.03 0 0.31 0.32 0 0.03 0.03 0 0.31 0.32 0 0.02 0.02 0 0.33 0.34 0 0.01 0.01 0 0.34 0.34 0 0.01 0.01 0c2.48,2.58 4.9,5.22 7.27,7.91l0 0.06 0.06 0 0.29 0.33 0 0.01 0.01 0c0.69,0.79 1.38,1.58 2.06,2.37l0 0.06 0.05 0c0.68,0.8 1.36,1.6 2.03,2.4l0 0.02 0.01 0c1.05,1.26 2.08,2.53 3.11,3.81l0 0.01 0 0c0.34,0.43 0.7,0.85 1.03,1.28l0 0.1 0.08 0 0.27 0.33 0 0.02 0.01 0c0.35,0.44 0.68,0.89 1.03,1.33l0 0.05 0.04 0c0.8,1.03 1.6,2.07 2.38,3.11l0 0.01 0.01 0c0.94,1.25 1.85,2.51 2.77,3.78l0 0.03 0.03 0c0.57,0.8 1.14,1.59 1.7,2.4l0 0.03 0.02 0c1.05,1.49 2.08,2.99 3.09,4.5l0 0 0.01 0c1.05,1.58 2.1,3.16 3.11,4.76l0 0.1 0.06 0c0.22,0.34 0.43,0.68 0.64,1.01l0 0.03 0.01 0c1.3,2.05 2.56,4.13 3.8,6.22l0 0.01 0.01 0c0.46,0.78 0.93,1.54 1.38,2.33l0 0.1 0.06 0c0.45,0.79 0.89,1.59 1.33,2.38l0 0.04 0.02 0c3.09,5.51 5.97,11.15 8.64,16.91l0 0.07 0.03 0 0.31 0.67 0 0.02 0.01 0c0.47,1.02 0.92,2.04 1.38,3.06l0 0.06 0.03 0c0.45,1.03 0.91,2.06 1.36,3.1l0 0.01 0.01 0c0.82,1.95 1.63,3.9 2.42,5.87l0 0.02 0.01 0 0.34 0.87 0 0.16 0.06 0c0.22,0.55 0.42,1.11 0.64,1.66l0 0.07 0.03 0c0.82,2.17 1.63,4.36 2.4,6.55l0 0.03 0.01 0 0.33 0.95 0 0.09 0.03 0c0.1,0.3 0.22,0.59 0.31,0.89l0 0.15 0.05 0 0.3 0.89 0 0.15 0.05 0c0.1,0.3 0.2,0.61 0.29,0.91l0 0.12 0.04 0 0.31 0.94 0 0.1 0.03 0 0.32 0.97 0 0.07 0.02 0c0.47,1.47 0.92,2.93 1.36,4.41l0 0.1 0.03 0c0.22,0.74 0.45,1.48 0.66,2.23l0 0.2 0.06 0 0.29 0.99 0 0.05 0.01 0c0.11,0.41 0.22,0.82 0.33,1.23l0 0.15 0.04 0c0.22,0.8 0.44,1.61 0.66,2.4l0 0.03 0.01 0c0.48,1.81 0.94,3.62 1.38,5.45l0 0.1 0.02 0c0.11,0.44 0.22,0.87 0.33,1.31l0 0.07 0.01 0c0.24,1 0.45,2 0.68,3l0 0.11 0.03 0c0.48,2.19 0.93,4.38 1.35,6.58l0 0.01 0.01 0c0.11,0.6 0.23,1.2 0.34,1.8l0 0.28 0.06 0c0.1,0.52 0.2,1.05 0.29,1.58l0 0.15 0.02 0c0.11,0.64 0.22,1.28 0.32,1.93l0 0.15 0.03 0c0.23,1.38 0.45,2.75 0.66,4.13l0 0.03 0.01 0c0.24,1.63 0.47,3.27 0.69,4.92l0 0.28 0.03 0c0.11,0.87 0.2,1.74 0.31,2.6l0 0.17 0.02 0c0.25,2.16 0.47,4.32 0.67,6.49l0 0.43 0.04 0c0.1,1.2 0.22,2.4 0.31,3.6l0 0.9 0.06 0c0.42,5.84 0.64,11.73 0.64,17.67l0 1277.72c0,5.94 -0.22,11.84 -0.63,17.67l-0.06 0 0 0.94c-0.1,1.31 -0.22,2.61 -0.34,3.92l-0.01 0 0 0.12c-0.2,2.16 -0.42,4.32 -0.66,6.46l-0.03 0 0 0.21c-0.1,0.86 -0.19,1.72 -0.3,2.56l-0.04 0 0 0.32c-0.11,0.82 -0.23,1.63 -0.34,2.45l-0.01 0 0 0.03c-0.31,2.2 -0.64,4.38 -1.01,6.56l-0.03 0 0 0.2c-0.1,0.63 -0.2,1.25 -0.31,1.87l-0.03 0 0 0.22c-0.22,1.21 -0.45,2.4 -0.68,3.6l-0.01 0 0 0.07c-0.42,2.19 -0.87,4.35 -1.34,6.52l-0.04 0 0 0.19c-0.11,0.52 -0.22,1.03 -0.34,1.54l-0.01 0 0 0.05 -0.31 1.33 -0.03 0 0 0.15c-0.1,0.41 -0.21,0.82 -0.31,1.24l-0.04 0 0 0.17c-0.54,2.26 -1.12,4.51 -1.73,6.75l0 0 0 0c-0.22,0.81 -0.43,1.62 -0.66,2.42l-0.03 0 0 0.14c-0.22,0.77 -0.45,1.52 -0.68,2.28l-0.01 0 0 0.06c-1.16,3.95 -2.42,7.86 -3.76,11.72l-0.05 0 0 0.14 -0.32 0.9 -0.03 0 0 0.08 -0.34 0.96 -0.01 0 0 0.02c-0.66,1.85 -1.35,3.69 -2.06,5.52l-0.02 0 0 0.06c-0.22,0.56 -0.42,1.12 -0.64,1.68l-0.05 0 0 0.12c-0.22,0.54 -0.44,1.08 -0.66,1.61l-0.03 0 0 0.08 -0.67 1.65 -0.03 0 0 0.05c-0.66,1.61 -1.34,3.21 -2.04,4.8l-0.03 0 0 0.08c-0.34,0.78 -0.68,1.56 -1.03,2.35l-0.01 0 0 0.03 -0.3 0.66 -0.05 0 0 0.09c-1.21,2.65 -2.47,5.27 -3.76,7.88l-0.04 0 0 0.09 -0.3 0.6 -0.05 0 0 0.1 -0.29 0.59 -0.06 0 0 0.1 -0.29 0.59 -0.06 0 0 0.11 -0.31 0.59 -0.04 0 0 0.08 -0.32 0.61 -0.03 0 0 0.05 -0.34 0.64 -0.01 0 0 0.01c-1.34,2.56 -2.72,5.1 -4.14,7.61l-0.01 0 0 0.03c-0.33,0.57 -0.65,1.14 -0.98,1.7l-0.06 0 0 0.11 -0.34 0.58 -0.01 0 0 0.01c-0.34,0.58 -0.68,1.15 -1.02,1.72l-0.02 0 0 0.03c-0.68,1.15 -1.37,2.29 -2.07,3.43l-0.01 0 0 0.01c-0.57,0.92 -1.15,1.84 -1.72,2.76l-0.01 0 0 0.02c-0.22,0.34 -0.43,0.68 -0.64,1.02l-0.06 0 0 0.08c-0.2,0.32 -0.42,0.64 -0.63,0.96l-0.06 0 0 0.1c-1.34,2.07 -2.72,4.11 -4.12,6.14l-0.03 0 0 0.06 -0.68 0.98 -0.01 0 0 0.01c-0.57,0.81 -1.13,1.61 -1.7,2.41l-0.03 0 0 0.04c-1.25,1.74 -2.52,3.46 -3.81,5.16l-0.01 0 0 0.01c-0.79,1.04 -1.58,2.08 -2.38,3.11l-0.04 0 0 0.06c-0.45,0.57 -0.89,1.12 -1.34,1.68l-0.05 0 0 0.06c-1.57,1.97 -3.17,3.92 -4.8,5.83l-0.05 0 0 0.06c-0.57,0.67 -1.14,1.35 -1.72,2.02l-0.01 0 0 0.02 -0.29 0.33 -0.06 0 0 0.06c-2.03,2.33 -4.11,4.62 -6.22,6.86l-0.02 0 0 0.02 -0.3 0.33 -0.05 0 0 0.04 -0.28 0.3 -0.06 0 0 0.07 -0.26 0.28 -0.09 0 0 0.1c-3.01,3.17 -6.11,6.25 -9.28,9.25l-0.07 0 0 0.07 -0.3 0.28 -0.05 0 0 0.04 -0.32 0.3 -0.03 0 0 0.02c-2.24,2.12 -4.53,4.19 -6.85,6.22l-0.08 0 0 0.07 -0.31 0.28 -0.03 0 0 0.03c-0.8,0.69 -1.61,1.37 -2.42,2.05l0 0 0 0c-1.81,1.52 -3.63,3.03 -5.48,4.5l-0.06 0 0 0.06c-0.56,0.44 -1.11,0.89 -1.67,1.33l-0.06 0 0 0.05c-1.03,0.8 -2.06,1.59 -3.1,2.37l-0.02 0 0 0.02c-0.91,0.69 -1.84,1.38 -2.77,2.06l-0.01 0 0 0.01c-0.78,0.57 -1.57,1.15 -2.37,1.72l-0.06 0 0 0.04c-0.8,0.57 -1.59,1.13 -2.4,1.69l-0.03 0 0 0.02c-2.7,1.89 -5.43,3.74 -8.21,5.52l-0.1 0 0 0.06c-0.33,0.22 -0.67,0.42 -1,0.63l-0.04 0 0 0.03c-2.04,1.29 -4.1,2.55 -6.17,3.79l-0.06 0 0 0.03c-0.57,0.34 -1.13,0.67 -1.7,1.01l-0.03 0 0 0.01c-0.79,0.46 -1.58,0.91 -2.37,1.37l-0.05 0 0 0.03c-2.28,1.3 -4.6,2.56 -6.93,3.79l0 0 0 0 -0.66 0.34 -0.03 0 0 0.02 -0.62 0.33 -0.08 0 0 0.04 -0.58 0.31 -0.11 0 0 0.06 -0.56 0.29 -0.13 0 0 0.06 -0.57 0.29 -0.13 0 0 0.06c-1.83,0.92 -3.67,1.82 -5.52,2.71l-0.02 0 0 0.01c-1.22,0.58 -2.45,1.16 -3.69,1.72l-0.13 0 0 0.06 -0.63 0.29 -0.06 0 0 0.03c-1.03,0.46 -2.07,0.91 -3.1,1.36l-0.01 0 0 0.01c-1.91,0.82 -3.83,1.63 -5.78,2.42l-0.12 0 0 0.05c-0.52,0.21 -1.05,0.43 -1.57,0.64l-0.16 0 0 0.06c-0.54,0.22 -1.1,0.42 -1.64,0.63l-0.09 0 0 0.03c-1.49,0.58 -3,1.15 -4.5,1.7 -0.32,0.12 -0.66,0.22 -0.98,0.34l-0.06 0 0 0.02c-3.76,1.35 -7.58,2.62 -11.43,3.79 -0.77,0.24 -1.54,0.46 -2.33,0.69l-0.1 0 0 0.03c-0.75,0.22 -1.49,0.45 -2.25,0.66l-0.17 0 0 0.05c-0.8,0.22 -1.59,0.43 -2.39,0.64l-0.03 0 0 0.01c-2.23,0.61 -4.47,1.18 -6.73,1.72l-0.21 0 0 0.06c-0.4,0.1 -0.8,0.2 -1.21,0.29l-0.17 0 0 0.04 -1.31 0.31 -0.08 0 0 0.01c-1.03,0.24 -2.07,0.45 -3.1,0.68l-0.01 0 0 0.01c-1.69,0.36 -3.39,0.71 -5.09,1.03l-0.1 0 0 0.02c-0.57,0.1 -1.14,0.22 -1.7,0.32l-0.03 0 0 0.01c-0.61,0.11 -1.22,0.23 -1.84,0.34l-0.24 0 0 0.04c-0.61,0.1 -1.23,0.2 -1.84,0.31l-0.24 0 0 0.03c-2.16,0.36 -4.34,0.7 -6.52,1l-0.06 0 0 0.01c-0.8,0.11 -1.61,0.23 -2.42,0.34l-0.36 0 0 0.05c-0.85,0.11 -1.7,0.2 -2.54,0.3l-0.23 0 0 0.02c-2.14,0.25 -4.29,0.47 -6.45,0.67l-0.13 0 0 0.01c-1.3,0.11 -2.59,0.23 -3.89,0.33l-0.96 0 0 0.06c-5.84,0.42 -11.73,0.64 -17.67,0.64l-1277.72 0c-5.94,0 -11.84,-0.22 -17.68,-0.64z"/>
  <g style="clip-path:url(#id0)">
   <g id="_3041012353840">
    <rect class="fil1" transform="matrix(0.510268 -0.510268 0.510268 0.510268 1158.68 15.0959)" width="1207.17" height="1207.17"/>
   </g>
  </g>
  <path class="fil2" d="M230.39 1773.21l0 -0.06 -0.91 0c-1.2,-0.08 -2.39,-0.2 -3.58,-0.31l0 -0.03 -0.43 0c-2.18,-0.2 -4.34,-0.43 -6.5,-0.68l0 -0.01 -0.16 0c-0.87,-0.1 -1.74,-0.2 -2.61,-0.31l0 -0.04 -0.28 0c-1.64,-0.22 -3.28,-0.45 -4.92,-0.69l0 0 -0.03 0c-1.38,-0.21 -2.75,-0.44 -4.13,-0.67l0 -0.02 -0.15 0c-0.64,-0.11 -1.29,-0.21 -1.93,-0.32l0 -0.03 -0.15 0c-0.52,-0.09 -1.05,-0.2 -1.58,-0.29l0 -0.06 -0.28 0c-0.6,-0.11 -1.19,-0.23 -1.79,-0.34l0 0 -0.01 0c-2.21,-0.43 -4.39,-0.88 -6.58,-1.36l0 -0.03 -0.12 0c-1,-0.22 -2,-0.44 -3,-0.68l0 -0.01 -0.07 0c-0.44,-0.1 -0.88,-0.22 -1.32,-0.32l0 -0.03 -0.1 0c-1.82,-0.44 -3.64,-0.89 -5.45,-1.38l0 -0.01 -0.02 0c-0.8,-0.22 -1.61,-0.43 -2.4,-0.65l0 -0.04 -0.15 0c-0.41,-0.11 -0.82,-0.22 -1.23,-0.34l0 -0.01 -0.06 0 -0.98 -0.29 0 -0.06 -0.2 0c-0.75,-0.22 -1.49,-0.45 -2.23,-0.67l0 -0.03 -0.1 0c-1.47,-0.44 -2.95,-0.89 -4.41,-1.36l0 -0.02 -0.07 0 -0.97 -0.31 0 -0.03 -0.1 0 -0.94 -0.31 0 -0.03 -0.13 0 -0.91 -0.3 0 -0.05 -0.15 0 -0.89 -0.29 0 -0.06 -0.15 0c-0.3,-0.1 -0.59,-0.21 -0.89,-0.31l0 -0.03 -0.09 0 -0.95 -0.34 0 -0.01 -0.03 0c-2.2,-0.77 -4.38,-1.56 -6.55,-2.4l0 -0.03 -0.08 0c-0.55,-0.21 -1.1,-0.42 -1.66,-0.63l0 -0.06 -0.16 0 -0.88 -0.34 0 -0.01 -0.01 0c-1.97,-0.78 -3.92,-1.59 -5.87,-2.42l0 -0.01 -0.01 0c-1.04,-0.44 -2.07,-0.9 -3.11,-1.36l0 -0.02 -0.06 0c-1.03,-0.45 -2.05,-0.91 -3.06,-1.38l0 -0.01 -0.03 0 -0.66 -0.31 0 -0.03 -0.08 0c-5.75,-2.66 -11.39,-5.54 -16.9,-8.63l0 -0.03 -0.04 0c-0.8,-0.45 -1.6,-0.88 -2.38,-1.33l0 -0.05 -0.1 0c-0.78,-0.45 -1.55,-0.92 -2.33,-1.38l0 -0.01 -0.01 0c-2.1,-1.24 -4.17,-2.5 -6.23,-3.79l0 -0.01 -0.02 0c-0.34,-0.22 -0.68,-0.42 -1.01,-0.64l0 -0.06 -0.1 0c-1.6,-1.02 -3.18,-2.06 -4.76,-3.11l0 0 0 0 -1.04 -0.69c-1.16,-0.79 -2.31,-1.6 -3.46,-2.4l0 -0.03 -0.03 0c-0.8,-0.56 -1.59,-1.13 -2.39,-1.7l0 -0.03 -0.03 0c-1.26,-0.91 -2.53,-1.83 -3.78,-2.77l0 0 -0.01 0c-1.05,-0.79 -2.07,-1.59 -3.11,-2.39l0 -0.04 -0.06 0c-0.44,-0.34 -0.89,-0.68 -1.33,-1.02l0 -0.02 -0.01 0 -0.33 -0.26 0 -0.08 -0.1 0c-0.43,-0.34 -0.86,-0.69 -1.28,-1.03l0 -0.01 -0.01 0c-1.28,-1.03 -2.54,-2.05 -3.8,-3.1l0 -0.01 -0.02 0c-0.81,-0.68 -1.61,-1.35 -2.41,-2.04l0 -0.04 -0.05 0c-0.8,-0.68 -1.59,-1.37 -2.37,-2.06l0 -0.02 -0.02 0 -0.33 -0.29 0 -0.06 -0.06 0c-2.68,-2.37 -5.32,-4.8 -7.91,-7.28l0 0 0 0 -0.34 -0.34 0 -0.01 -0.01 0 -0.34 -0.32 0 -0.02 -0.02 0 -0.32 -0.32 0 -0.03 -0.03 0 -0.31 -0.31 0 -0.04 -0.04 0c-1.39,-1.35 -2.76,-2.73 -4.11,-4.11l0 -0.04 -0.04 0 -0.31 -0.31 0 -0.03 -0.03 0 -0.32 -0.32 0 -0.02 -0.02 0 -0.32 -0.34 0 -0.01 -0.01 0 -0.34 -0.34 0 0 0 0c-2.49,-2.58 -4.91,-5.22 -7.28,-7.91l0 -0.06 -0.06 0 -0.29 -0.33 0 -0.02 -0.02 0c-0.69,-0.79 -1.38,-1.58 -2.06,-2.37l0 -0.05 -0.04 0c-0.68,-0.8 -1.36,-1.6 -2.04,-2.41l0 -0.02 -0.01 0c-1.05,-1.25 -2.08,-2.53 -3.1,-3.8l0 -0.01 -0.01 0c-0.34,-0.43 -0.69,-0.85 -1.03,-1.28l0 -0.1 -0.08 0 -0.27 -0.33 0 -0.01 -0.01 0c-0.34,-0.44 -0.68,-0.89 -1.02,-1.33l0 -0.06 -0.04 0c-0.8,-1.03 -1.6,-2.06 -2.39,-3.11l0 -0.01 0 0c-0.94,-1.25 -1.86,-2.51 -2.77,-3.78l0 -0.03 -0.03 0c-0.57,-0.8 -1.15,-1.59 -1.71,-2.4l0 -0.03 -0.02 0c-0.81,-1.15 -1.61,-2.3 -2.4,-3.46 -0.23,-0.35 -0.46,-0.69 -0.69,-1.04l0 0 0 0c-1.05,-1.57 -2.1,-3.16 -3.12,-4.76l0 -0.1 -0.06 0c-0.22,-0.34 -0.42,-0.68 -0.64,-1.01l0 -0.03 -0.01 0c-1.29,-2.05 -2.56,-4.13 -3.79,-6.22l0 -0.01 -0.01 0c-0.46,-0.78 -0.93,-1.54 -1.38,-2.33l0 -0.1 -0.05 0c-0.45,-0.79 -0.89,-1.59 -1.33,-2.38l0 -0.04 -0.03 0c-3.09,-5.51 -5.96,-11.15 -8.64,-16.9l0 -0.08 -0.03 0 -0.31 -0.66 0 -0.03 -0.01 0c-0.47,-1.01 -0.92,-2.03 -1.38,-3.06l0 -0.06 -0.03 0c-0.45,-1.03 -0.91,-2.06 -1.35,-3.1l0 -0.01 -0.01 0c-0.83,-1.95 -1.63,-3.9 -2.42,-5.87l0 -0.01 -0.01 0 -0.34 -0.88 0 -0.16 -0.06 0c-0.22,-0.55 -0.42,-1.1 -0.63,-1.66l0 -0.08 -0.03 0c-0.83,-2.17 -1.63,-4.36 -2.4,-6.55l0 -0.03 -0.01 0 -0.34 -0.95 0 -0.09 -0.03 0c-0.1,-0.29 -0.21,-0.59 -0.31,-0.89l0 -0.15 -0.05 0 -0.29 -0.89 0 -0.15 -0.05 0c-0.1,-0.31 -0.2,-0.61 -0.3,-0.92l0 -0.12 -0.04 0 -0.3 -0.94 0 -0.1 -0.03 0 -0.31 -0.97 0 -0.07 -0.02 0c-0.47,-1.46 -0.92,-2.93 -1.37,-4.41l0 -0.1 -0.03 0c-0.22,-0.74 -0.45,-1.48 -0.66,-2.23l0 -0.2 -0.06 0 -0.29 -0.99 0 -0.05 -0.01 0c-0.12,-0.41 -0.22,-0.82 -0.34,-1.23l0 -0.15 -0.04 0c-0.22,-0.8 -0.44,-1.6 -0.65,-2.4l0 -0.03 -0.01 0c-0.48,-1.8 -0.94,-3.62 -1.38,-5.44l0 -0.1 -0.03 0c-0.1,-0.44 -0.22,-0.88 -0.32,-1.32l0 -0.07 -0.02 0c-0.23,-0.99 -0.45,-2 -0.67,-3l0 -0.12 -0.03 0c-0.48,-2.18 -0.94,-4.38 -1.36,-6.58l0 -0.01 0 0c-0.12,-0.6 -0.24,-1.19 -0.34,-1.79l0 -0.28 -0.06 0c-0.1,-0.53 -0.2,-1.05 -0.29,-1.58l0 -0.16 -0.03 0c-0.11,-0.64 -0.21,-1.28 -0.32,-1.93l0 -0.15 -0.02 0c-0.23,-1.38 -0.46,-2.75 -0.67,-4.13l0 -0.03 0 0c-0.25,-1.63 -0.47,-3.27 -0.69,-4.91l0 -0.29 -0.04 0c-0.11,-0.87 -0.2,-1.74 -0.31,-2.6l0 -0.17 -0.01 0c-0.26,-2.16 -0.48,-4.32 -0.68,-6.49l0 -0.43 -0.03 0c-0.11,-1.19 -0.22,-2.39 -0.31,-3.58l0 -0.92 -0.06 0c-0.42,-5.83 -0.64,-11.73 -0.64,-17.67l0 -1277.72c0,-5.94 0.22,-11.83 0.64,-17.67l0.06 0 0 -0.92c0.08,-1.19 0.2,-2.39 0.31,-3.58l0.03 0 0 -0.43c0.2,-2.17 0.42,-4.34 0.68,-6.49l0.01 0 0 -0.17c0.1,-0.87 0.2,-1.74 0.31,-2.6l0.04 0 0 -0.29c0.21,-1.64 0.44,-3.28 0.69,-4.91l0 0 0 -0.03c0.21,-1.38 0.44,-2.76 0.67,-4.13l0.02 0 0 -0.15c0.11,-0.64 0.21,-1.29 0.32,-1.93l0.03 0 0 -0.16c0.09,-0.52 0.2,-1.05 0.29,-1.57l0.06 0 0 -0.28c0.1,-0.61 0.22,-1.2 0.34,-1.8l0 0 0 -0.01c0.43,-2.2 0.88,-4.39 1.36,-6.58l0.03 0 0 -0.11c0.22,-1.01 0.44,-2 0.67,-3l0.02 0 0 -0.07c0.1,-0.44 0.22,-0.87 0.32,-1.31l0.03 0 0 -0.1c0.44,-1.82 0.89,-3.64 1.38,-5.44l0.01 0 0 -0.03c0.21,-0.8 0.43,-1.6 0.65,-2.4l0.04 0 0 -0.15c0.11,-0.41 0.22,-0.82 0.34,-1.23l0.01 0 0 -0.05 0.29 -0.99 0.06 0 0 -0.2c0.22,-0.75 0.45,-1.49 0.66,-2.23l0.03 0 0 -0.1c0.45,-1.47 0.9,-2.94 1.37,-4.41l0.02 0 0 -0.07 0.31 -0.97 0.03 0 0 -0.1 0.3 -0.94 0.04 0 0 -0.12 0.3 -0.91 0.05 0 0 -0.15 0.29 -0.89 0.05 0 0 -0.15c0.1,-0.29 0.22,-0.59 0.31,-0.89l0.03 0 0 -0.09 0.34 -0.95 0.01 0 0 -0.03c0.77,-2.19 1.56,-4.38 2.4,-6.55l0.03 0 0 -0.07c0.21,-0.55 0.42,-1.11 0.63,-1.66l0.06 0 0 -0.16 0.34 -0.87 0.01 0 0 -0.02c0.78,-1.97 1.59,-3.92 2.42,-5.87l0.01 0 0 -0.01c0.44,-1.04 0.9,-2.07 1.35,-3.1l0.03 0 0 -0.06c0.45,-1.02 0.91,-2.04 1.38,-3.06l0.01 0 0 -0.02 0.31 -0.67 0.03 0 0 -0.07c2.67,-5.76 5.55,-11.4 8.64,-16.91l0.03 0 0 -0.04c0.44,-0.8 0.87,-1.59 1.33,-2.38l0.06 0 0 -0.1c0.45,-0.78 0.92,-1.55 1.38,-2.33l0.01 0 0 -0.01c1.24,-2.1 2.49,-4.17 3.79,-6.22l0.01 0 0 -0.03c0.22,-0.34 0.42,-0.68 0.64,-1.01l0.06 0 0 -0.1c1.03,-1.6 2.07,-3.18 3.12,-4.76l0 0 0 0 0.69 -1.03 0 0 0 -0.01c0.79,-1.16 1.59,-2.31 2.4,-3.46l0.02 0 0 -0.03c0.57,-0.8 1.14,-1.6 1.71,-2.4l0.03 0 0 -0.03c0.91,-1.26 1.83,-2.53 2.77,-3.78l0 0 0 -0.01c0.79,-1.04 1.59,-2.07 2.39,-3.11l0.04 0 0 -0.06c0.34,-0.44 0.68,-0.89 1.02,-1.33l0.01 0 0 -0.02 0.27 -0.33 0.08 0 0 -0.1c0.34,-0.43 0.69,-0.85 1.03,-1.28l0.01 0 0 -0.01c1.02,-1.28 2.05,-2.55 3.1,-3.81l0.01 0 0 -0.02c0.68,-0.8 1.35,-1.61 2.04,-2.4l0.04 0 0 -0.06c0.68,-0.8 1.37,-1.59 2.06,-2.37l0.02 0 0 -0.01 0.29 -0.33 0.06 0 0 -0.06c2.37,-2.69 4.79,-5.33 7.28,-7.91l0 0 0 -0.01 0.34 -0.34 0.01 0 0 -0.01 0.33 -0.34 0.01 0 0 -0.01 0.32 -0.33 0.03 0 0 -0.03 0.31 -0.32 0.04 0 0 -0.03c1.35,-1.39 2.73,-2.77 4.12,-4.12l0.03 0 0 -0.03 0.31 -0.31 0.03 0 0 -0.03 0.32 -0.31 0.02 0 0 -0.02 0.34 -0.33 0.01 0 0 -0.01 0.34 -0.34 0 0 0 0c2.58,-2.49 5.22,-4.9 7.91,-7.27l0.06 0 0 -0.06 0.33 -0.29 0.02 0 0 -0.02c0.79,-0.69 1.58,-1.38 2.37,-2.06l0.05 0 0 -0.04c0.8,-0.68 1.6,-1.36 2.41,-2.03l0.02 0 0 -0.01c1.25,-1.05 2.52,-2.08 3.8,-3.11l0.01 0 0 0c0.43,-0.35 0.85,-0.7 1.28,-1.04l0.1 0 0 -0.08 0.33 -0.27 0.01 0 0 -0.01c0.44,-0.35 0.89,-0.68 1.33,-1.03l0.06 0 0 -0.04c1.03,-0.8 2.06,-1.6 3.11,-2.38l0.01 0 0 -0.01c1.25,-0.94 2.51,-1.85 3.78,-2.77l0.03 0 0 -0.03c0.8,-0.57 1.59,-1.14 2.39,-1.7l0.03 0 0 -0.02c1.49,-1.05 2.99,-2.08 4.5,-3.1l0 0 0 0c1.57,-1.05 3.16,-2.1 4.76,-3.11l0.1 0 0 -0.06c0.34,-0.21 0.68,-0.42 1.01,-0.63l0.02 0 0 -0.02c2.06,-1.29 4.13,-2.56 6.23,-3.79l0.01 0 0 -0.01c0.78,-0.46 1.55,-0.93 2.33,-1.38l0.1 0 0 -0.06c0.78,-0.45 1.59,-0.89 2.37,-1.33l0.05 0 0 -0.03c5.51,-3.09 11.15,-5.96 16.9,-8.63l0.08 0 0 -0.03 0.67 -0.31 0.02 0 0 -0.01c1.01,-0.47 2.03,-0.92 3.06,-1.38l0.06 0 0 -0.03c1.03,-0.46 2.07,-0.91 3.11,-1.36l0.01 0 0 -0.01c1.95,-0.83 3.9,-1.63 5.87,-2.42l0.01 0 0 -0.01 0.88 -0.34 0.16 0 0 -0.06c0.55,-0.22 1.11,-0.43 1.66,-0.64l0.07 0 0 -0.03c2.17,-0.83 4.35,-1.63 6.55,-2.4l0.03 0 0 -0.01 0.95 -0.34 0.09 0 0 -0.03c0.29,-0.1 0.59,-0.22 0.89,-0.31l0.15 0 0 -0.06 0.89 -0.29 0.15 0 0 -0.05c0.31,-0.1 0.61,-0.2 0.91,-0.29l0.13 0 0 -0.04 0.94 -0.31 0.1 0 0 -0.03 0.97 -0.31 0.07 0 0 -0.02c1.46,-0.47 2.93,-0.92 4.41,-1.36l0.1 0 0 -0.03c0.74,-0.22 1.48,-0.45 2.23,-0.66l0.2 0 0 -0.06 0.98 -0.29 0.06 0 0 -0.01c0.41,-0.12 0.82,-0.22 1.23,-0.34l0.15 0 0 -0.04c0.8,-0.22 1.6,-0.43 2.4,-0.65l0.02 0 0 -0.01c1.81,-0.48 3.62,-0.94 5.45,-1.38l0.1 0 0 -0.03c0.44,-0.1 0.88,-0.22 1.32,-0.32l0.07 0 0 -0.01c0.99,-0.24 2,-0.45 3,-0.68l0.12 0 0 -0.03c2.18,-0.48 4.37,-0.94 6.58,-1.35l0.01 0 0 -0.01c0.59,-0.11 1.19,-0.23 1.79,-0.34l0.28 0 0 -0.06c0.53,-0.1 1.05,-0.2 1.59,-0.29l0.15 0 0 -0.02c0.64,-0.12 1.29,-0.22 1.93,-0.32l0.15 0 0 -0.03c1.38,-0.23 2.75,-0.46 4.13,-0.67l0.03 0 0 0c1.63,-0.24 3.28,-0.47 4.92,-0.69l0.27 0 0 -0.03c0.87,-0.11 1.75,-0.21 2.61,-0.31l0.16 0 0 -0.02c2.16,-0.25 4.33,-0.47 6.5,-0.68l0.43 0 0 -0.03c1.19,-0.1 2.4,-0.22 3.6,-0.31l0.9 0 0 -0.06c5.84,-0.42 11.73,-0.64 17.68,-0.64l1277.72 0c5.94,0 11.83,0.22 17.67,0.64l0 0.06 0.9 0c1.21,0.09 2.4,0.2 3.6,0.31l0 0.03 0.43 0c2.17,0.2 4.34,0.43 6.49,0.68l0 0.02 0.17 0c0.87,0.1 1.74,0.2 2.6,0.31l0 0.03 0.28 0c1.64,0.22 3.28,0.45 4.92,0.69l0 0 0.03 0c1.38,0.21 2.76,0.44 4.13,0.67l0 0.03 0.15 0c0.65,0.1 1.29,0.2 1.93,0.32l0 0.02 0.15 0c0.52,0.1 1.05,0.2 1.58,0.29l0 0.06 0.28 0c0.6,0.11 1.2,0.23 1.8,0.34l0 0.01 0.01 0c2.2,0.42 4.39,0.87 6.57,1.35l0 0.03 0.12 0c1.01,0.22 2,0.44 3,0.68l0 0.01 0.07 0c0.44,0.1 0.87,0.22 1.31,0.32l0 0.03 0.1 0c1.82,0.44 3.64,0.89 5.45,1.38l0 0.01 0.02 0c0.8,0.22 1.61,0.43 2.4,0.65l0 0.04 0.16 0c0.41,0.12 0.82,0.22 1.23,0.34l0 0.01 0.05 0 0.99 0.29 0 0.06 0.2 0c0.75,0.21 1.49,0.44 2.23,0.66l0 0.03 0.1 0c1.47,0.44 2.94,0.89 4.41,1.36l0 0.02 0.07 0 0.97 0.31 0 0.03 0.09 0 0.94 0.31 0 0.04 0.13 0 0.91 0.29 0 0.05 0.15 0 0.89 0.29 0 0.06 0.15 0c0.3,0.1 0.59,0.21 0.89,0.31l0 0.03 0.09 0 0.95 0.34 0 0.01 0.03 0c2.19,0.77 4.38,1.57 6.54,2.4l0 0.03 0.08 0c0.55,0.21 1.11,0.42 1.66,0.64l0 0.06 0.17 0 0.87 0.34 0 0.01 0.01 0c1.98,0.78 3.93,1.59 5.88,2.42l0 0.01 0.01 0c1.04,0.45 2.07,0.9 3.1,1.36l0 0.03 0.06 0c1.02,0.45 2.04,0.91 3.06,1.37l0 0.01 0.02 0 0.67 0.31 0 0.03 0.07 0c5.76,2.67 11.4,5.54 16.91,8.63l0 0.03 0.04 0c0.8,0.45 1.59,0.88 2.38,1.33l0 0.06 0.1 0c0.78,0.45 1.55,0.91 2.33,1.38l0 0.01 0.01 0c2.1,1.24 4.17,2.5 6.22,3.79l0 0.02 0.03 0c0.34,0.21 0.68,0.42 1.01,0.63l0 0.06 0.09 0c1.6,1.02 3.18,2.06 4.76,3.11l0 0 0.01 0c1.52,1.02 3.01,2.05 4.5,3.1l0 0.02 0.03 0c0.8,0.57 1.6,1.13 2.4,1.7l0 0.03 0.03 0c1.26,0.91 2.53,1.83 3.77,2.77l0 0.01 0.01 0c1.04,0.78 2.07,1.59 3.11,2.38l0 0.04 0.05 0c0.45,0.34 0.89,0.68 1.33,1.03l0 0.01 0.02 0 0.33 0.27 0 0.08 0.1 0c0.43,0.34 0.85,0.69 1.28,1.04l0 0 0.01 0c1.28,1.03 2.55,2.06 3.81,3.11l0 0.01 0.02 0c0.8,0.67 1.61,1.35 2.4,2.03l0 0.04 0.06 0c0.8,0.68 1.59,1.37 2.37,2.06l0 0.02 0.02 0 0.33 0.29 0 0.06 0.06 0c2.69,2.37 5.33,4.78 7.91,7.27l0 0 0.01 0 0.34 0.34 0 0.01 0.01 0 0.33 0.33 0 0.02 0.02 0 0.33 0.31 0 0.03 0.03 0 0.32 0.31 0 0.03 0.03 0c1.39,1.35 2.77,2.73 4.12,4.12l0 0.03 0.03 0 0.31 0.32 0 0.03 0.03 0 0.31 0.32 0 0.02 0.02 0 0.33 0.34 0 0.01 0.01 0 0.34 0.34 0 0.01 0.01 0c2.48,2.58 4.9,5.22 7.27,7.91l0 0.06 0.06 0 0.29 0.33 0 0.01 0.01 0c0.69,0.79 1.38,1.58 2.06,2.37l0 0.06 0.05 0c0.68,0.8 1.36,1.6 2.03,2.4l0 0.02 0.01 0c1.05,1.26 2.08,2.53 3.11,3.81l0 0.01 0 0c0.34,0.43 0.7,0.85 1.03,1.28l0 0.1 0.08 0 0.27 0.33 0 0.02 0.01 0c0.35,0.44 0.68,0.89 1.03,1.33l0 0.05 0.04 0c0.8,1.03 1.6,2.07 2.38,3.11l0 0.01 0.01 0c0.94,1.25 1.85,2.51 2.77,3.78l0 0.03 0.03 0c0.57,0.8 1.14,1.59 1.7,2.4l0 0.03 0.02 0c1.05,1.49 2.08,2.99 3.09,4.5l0 0 0.01 0c1.05,1.58 2.1,3.16 3.11,4.76l0 0.1 0.06 0c0.22,0.34 0.43,0.68 0.64,1.01l0 0.03 0.01 0c1.3,2.05 2.56,4.13 3.8,6.22l0 0.01 0.01 0c0.46,0.78 0.93,1.54 1.38,2.33l0 0.1 0.06 0c0.45,0.79 0.89,1.59 1.33,2.38l0 0.04 0.02 0c3.09,5.51 5.97,11.15 8.64,16.91l0 0.07 0.03 0 0.31 0.67 0 0.02 0.01 0c0.47,1.02 0.92,2.04 1.38,3.06l0 0.06 0.03 0c0.45,1.03 0.91,2.06 1.36,3.1l0 0.01 0.01 0c0.82,1.95 1.63,3.9 2.42,5.87l0 0.02 0.01 0 0.34 0.87 0 0.16 0.06 0c0.22,0.55 0.42,1.11 0.64,1.66l0 0.07 0.03 0c0.82,2.17 1.63,4.36 2.4,6.55l0 0.03 0.01 0 0.33 0.95 0 0.09 0.03 0c0.1,0.3 0.22,0.59 0.31,0.89l0 0.15 0.05 0 0.3 0.89 0 0.15 0.05 0c0.1,0.3 0.2,0.61 0.29,0.91l0 0.12 0.04 0 0.31 0.94 0 0.1 0.03 0 0.32 0.97 0 0.07 0.02 0c0.47,1.47 0.92,2.93 1.36,4.41l0 0.1 0.03 0c0.22,0.74 0.45,1.48 0.66,2.23l0 0.2 0.06 0 0.29 0.99 0 0.05 0.01 0c0.11,0.41 0.22,0.82 0.33,1.23l0 0.15 0.04 0c0.22,0.8 0.44,1.61 0.66,2.4l0 0.03 0.01 0c0.48,1.81 0.94,3.62 1.38,5.45l0 0.1 0.02 0c0.11,0.44 0.22,0.87 0.33,1.31l0 0.07 0.01 0c0.24,1 0.45,2 0.68,3l0 0.11 0.03 0c0.48,2.19 0.93,4.38 1.35,6.58l0 0.01 0.01 0c0.11,0.6 0.23,1.2 0.34,1.8l0 0.28 0.06 0c0.1,0.52 0.2,1.05 0.29,1.58l0 0.15 0.02 0c0.11,0.64 0.22,1.28 0.32,1.93l0 0.15 0.03 0c0.23,1.38 0.45,2.75 0.66,4.13l0 0.03 0.01 0c0.24,1.63 0.47,3.27 0.69,4.92l0 0.28 0.03 0c0.11,0.87 0.2,1.74 0.31,2.6l0 0.17 0.02 0c0.25,2.16 0.47,4.32 0.67,6.49l0 0.43 0.04 0c0.1,1.2 0.22,2.4 0.31,3.6l0 0.9 0.06 0c0.42,5.84 0.64,11.73 0.64,17.67l0 1277.72c0,5.94 -0.22,11.84 -0.63,17.67l-0.06 0 0 0.94c-0.1,1.31 -0.22,2.61 -0.34,3.92l-0.01 0 0 0.12c-0.2,2.16 -0.42,4.32 -0.66,6.46l-0.03 0 0 0.21c-0.1,0.86 -0.19,1.72 -0.3,2.56l-0.04 0 0 0.32c-0.11,0.82 -0.23,1.63 -0.34,2.45l-0.01 0 0 0.03c-0.31,2.2 -0.64,4.38 -1.01,6.56l-0.03 0 0 0.2c-0.1,0.63 -0.2,1.25 -0.31,1.87l-0.03 0 0 0.22c-0.22,1.21 -0.45,2.4 -0.68,3.6l-0.01 0 0 0.07c-0.42,2.19 -0.87,4.35 -1.34,6.52l-0.04 0 0 0.19c-0.11,0.52 -0.22,1.03 -0.34,1.54l-0.01 0 0 0.05 -0.31 1.33 -0.03 0 0 0.15c-0.1,0.41 -0.21,0.82 -0.31,1.24l-0.04 0 0 0.17c-0.54,2.26 -1.12,4.51 -1.73,6.75l0 0 0 0c-0.22,0.81 -0.43,1.62 -0.66,2.42l-0.03 0 0 0.14c-0.22,0.77 -0.45,1.52 -0.68,2.28l-0.01 0 0 0.06c-1.16,3.95 -2.42,7.86 -3.76,11.72l-0.05 0 0 0.14 -0.32 0.9 -0.03 0 0 0.08 -0.34 0.96 -0.01 0 0 0.02c-0.66,1.85 -1.35,3.69 -2.06,5.52l-0.02 0 0 0.06c-0.22,0.56 -0.42,1.12 -0.64,1.68l-0.05 0 0 0.12c-0.22,0.54 -0.44,1.08 -0.66,1.61l-0.03 0 0 0.08 -0.67 1.65 -0.03 0 0 0.05c-0.66,1.61 -1.34,3.21 -2.04,4.8l-0.03 0 0 0.08c-0.34,0.78 -0.68,1.56 -1.03,2.35l-0.01 0 0 0.03 -0.3 0.66 -0.05 0 0 0.09c-1.21,2.65 -2.47,5.27 -3.76,7.88l-0.04 0 0 0.09 -0.3 0.6 -0.05 0 0 0.1 -0.29 0.59 -0.06 0 0 0.1 -0.29 0.59 -0.06 0 0 0.11 -0.31 0.59 -0.04 0 0 0.08 -0.32 0.61 -0.03 0 0 0.05 -0.34 0.64 -0.01 0 0 0.01c-1.34,2.56 -2.72,5.1 -4.14,7.61l-0.01 0 0 0.03c-0.33,0.57 -0.65,1.14 -0.98,1.7l-0.06 0 0 0.11 -0.34 0.58 -0.01 0 0 0.01c-0.34,0.58 -0.68,1.15 -1.02,1.72l-0.02 0 0 0.03c-0.68,1.15 -1.37,2.29 -2.07,3.43l-0.01 0 0 0.01c-0.57,0.92 -1.15,1.84 -1.72,2.76l-0.01 0 0 0.02c-0.22,0.34 -0.43,0.68 -0.64,1.02l-0.06 0 0 0.08c-0.2,0.32 -0.42,0.64 -0.63,0.96l-0.06 0 0 0.1c-1.34,2.07 -2.72,4.11 -4.12,6.14l-0.03 0 0 0.06 -0.68 0.98 -0.01 0 0 0.01c-0.57,0.81 -1.13,1.61 -1.7,2.41l-0.03 0 0 0.04c-1.25,1.74 -2.52,3.46 -3.81,5.16l-0.01 0 0 0.01c-0.79,1.04 -1.58,2.08 -2.38,3.11l-0.04 0 0 0.06c-0.45,0.57 -0.89,1.12 -1.34,1.68l-0.05 0 0 0.06c-1.57,1.97 -3.17,3.92 -4.8,5.83l-0.05 0 0 0.06c-0.57,0.67 -1.14,1.35 -1.72,2.02l-0.01 0 0 0.02 -0.29 0.33 -0.06 0 0 0.06c-2.03,2.33 -4.11,4.62 -6.22,6.86l-0.02 0 0 0.02 -0.3 0.33 -0.05 0 0 0.04 -0.28 0.3 -0.06 0 0 0.07 -0.26 0.28 -0.09 0 0 0.1c-3.01,3.17 -6.11,6.25 -9.28,9.25l-0.07 0 0 0.07 -0.3 0.28 -0.05 0 0 0.04 -0.32 0.3 -0.03 0 0 0.02c-2.24,2.12 -4.53,4.19 -6.85,6.22l-0.08 0 0 0.07 -0.31 0.28 -0.03 0 0 0.03c-0.8,0.69 -1.61,1.37 -2.42,2.05l0 0 0 0c-1.81,1.52 -3.63,3.03 -5.48,4.5l-0.06 0 0 0.06c-0.56,0.44 -1.11,0.89 -1.67,1.33l-0.06 0 0 0.05c-1.03,0.8 -2.06,1.59 -3.1,2.37l-0.02 0 0 0.02c-0.91,0.69 -1.84,1.38 -2.77,2.06l-0.01 0 0 0.01c-0.78,0.57 -1.57,1.15 -2.37,1.72l-0.06 0 0 0.04c-0.8,0.57 -1.59,1.13 -2.4,1.69l-0.03 0 0 0.02c-2.7,1.89 -5.43,3.74 -8.21,5.52l-0.1 0 0 0.06c-0.33,0.22 -0.67,0.42 -1,0.63l-0.04 0 0 0.03c-2.04,1.29 -4.1,2.55 -6.17,3.79l-0.06 0 0 0.03c-0.57,0.34 -1.13,0.67 -1.7,1.01l-0.03 0 0 0.01c-0.79,0.46 -1.58,0.91 -2.37,1.37l-0.05 0 0 0.03c-2.28,1.3 -4.6,2.56 -6.93,3.79l0 0 0 0 -0.66 0.34 -0.03 0 0 0.02 -0.62 0.33 -0.08 0 0 0.04 -0.58 0.31 -0.11 0 0 0.06 -0.56 0.29 -0.13 0 0 0.06 -0.57 0.29 -0.13 0 0 0.06c-1.83,0.92 -3.67,1.82 -5.52,2.71l-0.02 0 0 0.01c-1.22,0.58 -2.45,1.16 -3.69,1.72l-0.13 0 0 0.06 -0.63 0.29 -0.06 0 0 0.03c-1.03,0.46 -2.07,0.91 -3.1,1.36l-0.01 0 0 0.01c-1.91,0.82 -3.83,1.63 -5.78,2.42l-0.12 0 0 0.05c-0.52,0.21 -1.05,0.43 -1.57,0.64l-0.16 0 0 0.06c-0.54,0.22 -1.1,0.42 -1.64,0.63l-0.09 0 0 0.03c-1.49,0.58 -3,1.15 -4.5,1.7 -0.32,0.12 -0.66,0.22 -0.98,0.34l-0.06 0 0 0.02c-3.76,1.35 -7.58,2.62 -11.43,3.79 -0.77,0.24 -1.54,0.46 -2.33,0.69l-0.1 0 0 0.03c-0.75,0.22 -1.49,0.45 -2.25,0.66l-0.17 0 0 0.05c-0.8,0.22 -1.59,0.43 -2.39,0.64l-0.03 0 0 0.01c-2.23,0.61 -4.47,1.18 -6.73,1.72l-0.21 0 0 0.06c-0.4,0.1 -0.8,0.2 -1.21,0.29l-0.17 0 0 0.04 -1.31 0.31 -0.08 0 0 0.01c-1.03,0.24 -2.07,0.45 -3.1,0.68l-0.01 0 0 0.01c-1.69,0.36 -3.39,0.71 -5.09,1.03l-0.1 0 0 0.02c-0.57,0.1 -1.14,0.22 -1.7,0.32l-0.03 0 0 0.01c-0.61,0.11 -1.22,0.23 -1.84,0.34l-0.24 0 0 0.04c-0.61,0.1 -1.23,0.2 -1.84,0.31l-0.24 0 0 0.03c-2.16,0.36 -4.34,0.7 -6.52,1l-0.06 0 0 0.01c-0.8,0.11 -1.61,0.23 -2.42,0.34l-0.36 0 0 0.05c-0.85,0.11 -1.7,0.2 -2.54,0.3l-0.23 0 0 0.02c-2.14,0.25 -4.29,0.47 -6.45,0.67l-0.13 0 0 0.01c-1.3,0.11 -2.59,0.23 -3.89,0.33l-0.96 0 0 0.06c-5.84,0.42 -11.73,0.64 -17.67,0.64l-1277.72 0c-5.94,0 -11.84,-0.22 -17.68,-0.64z"/>
  <g>
   <path class="fil3" d="M896.34 626.62l77.34 0 0 15.38 -77.34 0 -7.69 -7.69 7.69 -7.69zm0 15.38l-7.69 0 0 -7.69 7.69 7.69zm7.69 -85.05l0 77.36 -15.38 0 0 -77.36 7.69 -7.69 7.69 7.69zm-15.38 0l0 -7.69 7.69 0 -7.69 7.69zm85.03 7.69l-77.34 0 0 -15.38 77.34 0 7.69 7.69 -7.69 7.69zm0 -15.38l7.69 0 0 7.69 -7.69 -7.69zm-7.69 85.05l0 -77.36 15.38 0 0 77.36 -7.69 7.69 -7.69 -7.69zm15.38 0l0 7.69 -7.69 0 7.69 -7.69zm-85.03 91.26l77.34 0 0 15.38 -77.34 0 -7.69 -7.69 7.69 -7.69zm0 15.38l-7.69 0 0 -7.69 7.69 7.69zm7.69 -85.05l0 77.36 -15.38 0 0 -77.36 7.69 -7.69 7.69 7.69zm-15.38 0l0 -7.69 7.69 0 -7.69 7.69zm85.03 7.69l-77.34 0 0 -15.38 77.34 0 7.69 7.69 -7.69 7.69zm0 -15.38l7.69 0 0 7.69 -7.69 -7.69zm-7.69 85.05l0 -77.36 15.38 0 0 77.36 -7.69 7.69 -7.69 -7.69zm15.38 0l0 7.69 -7.69 0 7.69 -7.69zm-181.2 -106.64l77.35 0 0 15.38 -77.35 0 -7.69 -7.69 7.69 -7.69zm0 15.38l-7.69 0 0 -7.69 7.69 7.69zm7.69 -85.05l0 77.36 -15.38 0 0 -77.36 7.69 -7.69 7.69 7.69zm-15.38 0l0 -7.69 7.69 0 -7.69 7.69zm85.04 7.69l-77.35 0 0 -15.38 77.35 0 7.69 7.69 -7.69 7.69zm0 -15.38l7.69 0 0 7.69 -7.69 -7.69zm-7.69 85.05l0 -77.36 15.38 0 0 77.36 -7.69 7.69 -7.69 -7.69zm15.38 0l0 7.69 -7.69 0 7.69 -7.69zm-85.04 91.26l77.35 0 0 15.38 -77.35 0 -7.69 -7.69 7.69 -7.69zm0 15.38l-7.69 0 0 -7.69 7.69 7.69zm7.69 -85.05l0 77.36 -15.38 0 0 -77.36 7.69 -7.69 7.69 7.69zm-15.38 0l0 -7.69 7.69 0 -7.69 7.69zm85.04 7.69l-77.35 0 0 -15.38 77.35 0 7.69 7.69 -7.69 7.69zm0 -15.38l7.69 0 0 7.69 -7.69 -7.69zm-7.69 85.05l0 -77.36 15.38 0 0 77.36 -7.69 7.69 -7.69 -7.69zm15.38 0l0 7.69 -7.69 0 7.69 -7.69zm-99.19 -366.98l95.82 -84.45 10.17 11.54 -95.82 84.45 -12.77 -5.77 2.6 -5.77zm10.17 11.54l-12.77 11.26 0 -17.03 12.77 5.77zm2.6 -49.19l0 43.42 -15.38 0 0 -43.42 7.69 -7.69 7.69 7.69zm-7.69 -7.69l7.69 0 0 7.69 -7.69 -7.69zm-64.23 0l64.23 0 0 15.38 -64.23 0 -7.69 -7.69 7.69 -7.69zm-7.69 7.69l0 -7.69 7.69 0 -7.69 7.69zm0 100.03l0 -100.03 15.38 0 0 100.03 -2.6 5.77 -12.77 -5.77zm15.38 0l0 3.47 -2.6 2.3 2.6 -5.77zm-132.25 99.54l119.48 -105.31 10.17 11.54 -119.48 105.31 -5.08 1.92 -5.08 -13.46zm5.08 13.46l-20.35 0 15.27 -13.46 5.08 13.46zm80.7 0l-80.7 0 0 -15.38 80.7 0 7.69 7.69 -7.69 7.69zm0 -15.38l7.69 0 0 7.69 -7.69 -7.69zm-7.69 240.47l0 -232.78 15.38 0 0 232.78 -12.21 6.22 -3.17 -6.22zm3.17 6.22l-3.17 -2.3 0 -3.92 3.17 6.22zm98.9 71.85l-98.9 -71.85 9.04 -12.44 98.9 71.85 3.17 6.22 -12.21 6.22zm9.04 -12.44l3.17 2.3 0 3.92 -3.17 -6.22zm-12.21 62.96l0 -56.74 15.38 0 0 56.74 -7.69 7.69 -7.69 -7.69zm7.69 7.69l-7.69 0 0 -7.69 7.69 7.69zm22.52 0l-22.52 0 0 -15.38 22.52 0 7.69 7.69 -7.69 7.69zm0 -15.38l7.69 0 0 7.69 -7.69 -7.69zm-7.69 525l0 -517.31 15.38 0 0 517.31 -13.42 5.13 -1.96 -5.13zm1.96 5.13l-1.96 -2.19 0 -2.95 1.96 5.13zm32.35 36.08l-32.35 -36.08 11.45 -10.27 32.35 36.08 1.96 5.13 -13.42 5.13zm13.42 -5.13l0 20.1 -13.42 -14.97 13.42 -5.13zm0 -556.36l0 556.36 -15.38 0 0 -556.36 7.69 -7.69 7.69 7.69zm-15.38 0l0 -7.69 7.69 0 -7.69 7.69zm32.5 7.69l-24.81 0 0 -15.38 24.81 0 7.69 7.69 -7.69 7.69zm0 -15.38l7.69 0 0 7.69 -7.69 -7.69zm-7.69 591.71l0 -584.02 15.38 0 0 584.02 -13.42 5.13 -1.96 -5.13zm1.96 5.13l-1.96 -2.19 0 -2.95 1.96 5.13zm8.83 9.85l-8.83 -9.85 11.45 -10.27 8.83 9.85 -0.07 10.34 -11.38 -0.08zm11.38 0.08l-5.73 6.22 -5.65 -6.3 11.38 0.08zm88.82 -96.44l-88.82 96.44 -11.31 -10.42 88.82 -96.44 13.35 5.21 -2.03 5.21zm2.03 -5.21l0 3 -2.03 2.21 2.03 -5.21zm0 -30.29l0 30.29 -15.38 0 0 -30.29 11.36 -6.76 4.02 6.76zm-4.02 -6.76l4.02 2.18 0 4.58 -4.02 -6.76zm-38.91 -21.15l38.91 21.15 -7.35 13.52 -38.91 -21.15 -1.45 -12.49 8.8 -1.03zm-7.35 13.52l-9.59 -5.21 8.14 -7.28 1.45 12.49zm47.71 -35.85l-38.91 34.83 -10.25 -11.47 38.91 -34.83 12.81 5.73 -2.56 5.73zm2.56 -5.73l0 3.44 -2.56 2.29 2.56 -5.73zm0 -28.52l0 28.52 -15.38 0 0 -28.52 9.61 -7.44 5.77 7.44zm-5.77 -7.44l5.77 1.49 0 5.96 -5.77 -7.44zm-39.57 -10.22l39.57 10.22 -3.84 14.89 -39.57 -10.22 -5.75 -6.95 9.6 -7.94zm-3.84 14.89l-5.4 -1.4 -0.36 -5.55 5.75 6.95zm6.72 -52.59l2.88 44.65 -15.35 0.99 -2.88 -44.65 4.39 -7.44 10.96 6.45zm-15.35 0.99l-0.34 -5.21 4.72 -2.23 -4.39 7.44zm53.41 -13.63l-42.45 20.08 -6.58 -13.9 42.45 -20.08 10.98 6.95 -4.4 6.95zm4.4 -6.95l0 4.87 -4.4 2.08 4.4 -6.95zm0 -41.11l0 41.11 -15.38 0 0 -41.11 10.48 -7.17 4.9 7.17zm-4.9 -7.17l4.9 1.91 0 5.26 -4.9 -7.17zm-44.46 -17.31l44.46 17.31 -5.57 14.33 -44.46 -17.31 -4.79 -5.84 10.36 -8.49zm-5.57 14.33l-4.04 -1.57 -0.75 -4.27 4.79 5.84zm5.06 -38.7l5.3 30.2 -15.15 2.65 -5.3 -30.2 3.3 -7.72 11.86 5.06zm-15.15 2.65l-0.87 -4.93 4.16 -2.79 -3.3 7.72zm61.62 -28.29l-49.76 33.35 -8.56 -12.78 49.76 -33.35 11.97 6.39 -3.41 6.39zm3.41 -6.39l0 4.11 -3.41 2.28 3.41 -6.39zm0 -182.75l0 182.75 -15.38 0 0 -182.75 7.69 -7.69 7.69 7.69zm-15.38 0l0 -7.69 7.69 0 -7.69 7.69zm30.21 7.69l-22.52 0 0 -15.38 22.52 0 7.69 7.69 -7.69 7.69zm7.69 -7.69l0 7.69 -7.69 0 7.69 -7.69zm0 -56.74l0 56.74 -15.38 0 0 -56.74 3.17 -6.22 12.21 6.22zm-15.38 0l0 -3.92 3.17 -2.3 -3.17 6.22zm111.1 -65.63l-98.9 71.85 -9.04 -12.44 98.9 -71.85 12.21 6.22 -3.17 6.22zm3.17 -6.22l0 3.92 -3.17 2.3 3.17 -6.22zm0 -232.78l0 232.78 -15.38 0 0 -232.78 7.69 -7.69 7.69 7.69zm-15.38 0l0 -7.69 7.69 0 -7.69 7.69zm88.38 7.69l-80.69 0 0 -15.38 80.69 0 5.08 1.92 -5.08 13.46zm5.08 -13.46l15.27 13.46 -20.35 0 5.08 -13.46zm-279.52 -246.36l279.52 246.36 -10.17 11.54 -279.52 -246.36 0 -11.54 10.17 0zm-10.17 0l5.08 -4.48 5.08 4.48 -10.17 0z"/>
  </g>
 </g>
</svg>
