<?xml version="1.0" encoding="UTF-8"?>
<!DOCTYPE svg PUBLIC "-//W3C//DTD SVG 1.1//EN" "http://www.w3.org/Graphics/SVG/1.1/DTD/svg11.dtd">
<!-- Creator: CorelDRAW -->
<svg xmlns="http://www.w3.org/2000/svg" xml:space="preserve" width="25.4mm" height="25.4mm" version="1.1" style="shape-rendering:geometricPrecision; text-rendering:geometricPrecision; image-rendering:optimizeQuality; fill-rule:evenodd; clip-rule:evenodd"
viewBox="0 0 671.04 671.04"
 xmlns:xlink="http://www.w3.org/1999/xlink"
 xmlns:xodm="http://www.corel.com/coreldraw/odm/2003">
 <defs>
  <style type="text/css">
   <![CDATA[
    .str0 {stroke:#D9DADA;stroke-width:5.28;stroke-miterlimit:22.9256}
    .fil2 {fill:none}
    .fil0 {fill:#D9DADA}
    .fil1 {fill:#E31E24}
    .fil3 {fill:#898989;fill-rule:nonzero}
   ]]>
  </style>
   <clipPath id="id0">
    <path d="M87.16 670.8l0 -0.02 -0.35 0c-0.45,-0.03 -0.9,-0.07 -1.36,-0.12l0 -0.01 -0.16 0c-0.82,-0.07 -1.64,-0.16 -2.46,-0.26l0 -0.01 -0.06 0c-0.33,-0.04 -0.66,-0.07 -0.99,-0.12l0 -0.02 -0.11 0c-0.62,-0.08 -1.24,-0.17 -1.86,-0.26l0 0 -0.01 0c-0.52,-0.08 -1.04,-0.17 -1.56,-0.25l0 -0.01 -0.06 0c-0.24,-0.04 -0.49,-0.08 -0.73,-0.12l0 -0.01 -0.06 0c-0.2,-0.03 -0.4,-0.07 -0.6,-0.11l0 -0.02 -0.11 0c-0.23,-0.04 -0.45,-0.09 -0.68,-0.13l0 0 -0 0c-0.83,-0.16 -1.66,-0.33 -2.49,-0.52l0 -0.01 -0.04 0c-0.38,-0.08 -0.76,-0.17 -1.13,-0.26l0 -0.01 -0.03 0c-0.17,-0.04 -0.33,-0.08 -0.5,-0.12l0 -0.01 -0.04 0c-0.69,-0.17 -1.38,-0.34 -2.06,-0.52l0 -0 -0.01 0c-0.3,-0.08 -0.61,-0.16 -0.91,-0.25l0 -0.02 -0.06 0c-0.16,-0.04 -0.31,-0.08 -0.46,-0.13l0 -0.01 -0.02 0 -0.37 -0.11 0 -0.02 -0.07 0c-0.28,-0.08 -0.56,-0.17 -0.84,-0.25l0 -0.01 -0.04 0c-0.56,-0.17 -1.11,-0.34 -1.67,-0.52l0 -0.01 -0.03 0 -0.37 -0.12 0 -0.01 -0.04 0 -0.36 -0.12 0 -0.01 -0.05 0 -0.35 -0.11 0 -0.02 -0.06 0 -0.34 -0.11 0 -0.02 -0.06 0c-0.11,-0.04 -0.22,-0.08 -0.34,-0.12l0 -0.01 -0.03 0 -0.36 -0.13 0 -0.01 -0.01 0c-0.83,-0.29 -1.66,-0.59 -2.48,-0.91l0 -0.01 -0.03 0c-0.21,-0.08 -0.42,-0.16 -0.63,-0.24l0 -0.02 -0.06 0 -0.33 -0.13 0 -0 -0.01 0c-0.75,-0.3 -1.48,-0.6 -2.22,-0.91l0 -0 -0.01 0c-0.39,-0.17 -0.78,-0.34 -1.17,-0.52l0 -0.01 -0.02 0c-0.39,-0.17 -0.77,-0.35 -1.16,-0.52l0 -0.01 -0.01 0 -0.25 -0.12 0 -0.01 -0.03 0c-2.18,-1.01 -4.31,-2.1 -6.39,-3.27l0 -0.01 -0.02 0c-0.3,-0.17 -0.6,-0.33 -0.9,-0.5l0 -0.02 -0.04 0c-0.3,-0.17 -0.59,-0.35 -0.88,-0.52l0 -0 -0.01 0c-0.79,-0.47 -1.58,-0.95 -2.35,-1.43l0 -0.01 -0.01 0c-0.13,-0.08 -0.26,-0.16 -0.38,-0.24l0 -0.02 -0.04 0c-0.6,-0.39 -1.2,-0.78 -1.8,-1.18l0 0 0 0 -0.39 -0.26c-0.44,-0.3 -0.87,-0.6 -1.31,-0.91l0 -0.01 -0.01 0c-0.3,-0.21 -0.6,-0.43 -0.91,-0.64l0 -0.01 -0.01 0c-0.48,-0.34 -0.96,-0.69 -1.43,-1.05l0 0 -0 0c-0.4,-0.3 -0.78,-0.6 -1.18,-0.9l0 -0.02 -0.02 0c-0.17,-0.13 -0.34,-0.26 -0.5,-0.39l0 -0.01 -0.01 0 -0.12 -0.1 0 -0.03 -0.04 0c-0.16,-0.13 -0.32,-0.26 -0.49,-0.39l0 -0 -0 0c-0.48,-0.39 -0.96,-0.78 -1.44,-1.17l0 -0.01 -0.01 0c-0.31,-0.26 -0.61,-0.51 -0.91,-0.77l0 -0.02 -0.02 0c-0.3,-0.26 -0.6,-0.52 -0.9,-0.78l0 -0.01 -0.01 0 -0.12 -0.11 0 -0.02 -0.02 0c-1.01,-0.9 -2.01,-1.81 -2.99,-2.75l0 0 0 0 -0.13 -0.13 0 -0.01 -0.01 0 -0.13 -0.12 0 -0.01 -0.01 0 -0.12 -0.12 0 -0.01 -0.01 0 -0.12 -0.12 0 -0.02 -0.02 0c-0.52,-0.51 -1.04,-1.03 -1.56,-1.56l0 -0.02 -0.02 0 -0.12 -0.12 0 -0.01 -0.01 0 -0.12 -0.12 0 -0.01 -0.01 0 -0.12 -0.13 0 -0.01 -0.01 0 -0.13 -0.13 0 0 0 0c-0.94,-0.98 -1.85,-1.98 -2.75,-2.99l0 -0.02 -0.02 0 -0.11 -0.12 0 -0.01 -0.01 0c-0.26,-0.3 -0.52,-0.6 -0.78,-0.9l0 -0.02 -0.02 0c-0.26,-0.3 -0.52,-0.6 -0.77,-0.91l0 -0.01 -0.01 0c-0.4,-0.47 -0.78,-0.96 -1.17,-1.44l0 -0 -0 0c-0.13,-0.16 -0.26,-0.32 -0.39,-0.49l0 -0.04 -0.03 0 -0.1 -0.12 0 -0.01 -0.01 0c-0.13,-0.17 -0.26,-0.34 -0.39,-0.5l0 -0.02 -0.02 0c-0.3,-0.39 -0.6,-0.78 -0.9,-1.18l0 -0 0 0c-0.35,-0.47 -0.7,-0.95 -1.05,-1.43l0 -0.01 -0.01 0c-0.22,-0.3 -0.43,-0.6 -0.64,-0.91l0 -0.01 -0.01 0c-0.3,-0.44 -0.61,-0.87 -0.91,-1.31 -0.09,-0.13 -0.17,-0.26 -0.26,-0.39l0 0 0 0c-0.4,-0.59 -0.79,-1.19 -1.18,-1.8l0 -0.04 -0.02 0c-0.08,-0.13 -0.16,-0.26 -0.24,-0.38l0 -0.01 -0.01 0c-0.49,-0.78 -0.97,-1.56 -1.43,-2.35l0 -0.01 -0 0c-0.17,-0.29 -0.35,-0.58 -0.52,-0.88l0 -0.04 -0.02 0c-0.17,-0.3 -0.34,-0.6 -0.5,-0.9l0 -0.02 -0.01 0c-1.17,-2.08 -2.26,-4.22 -3.27,-6.39l0 -0.03 -0.01 0 -0.12 -0.25 0 -0.01 -0.01 0c-0.17,-0.38 -0.35,-0.77 -0.52,-1.16l0 -0.02 -0.01 0c-0.17,-0.39 -0.35,-0.78 -0.52,-1.17l0 -0.01 -0 0c-0.31,-0.74 -0.62,-1.48 -0.91,-2.22l0 -0.01 -0 0 -0.13 -0.33 0 -0.06 -0.02 0c-0.08,-0.21 -0.16,-0.42 -0.24,-0.63l0 -0.03 -0.01 0c-0.31,-0.82 -0.62,-1.65 -0.91,-2.48l0 -0.01 -0.01 0 -0.13 -0.36 0 -0.03 -0.01 0c-0.04,-0.11 -0.08,-0.22 -0.12,-0.34l0 -0.06 -0.02 0 -0.11 -0.34 0 -0.06 -0.02 0c-0.04,-0.12 -0.07,-0.23 -0.11,-0.35l0 -0.04 -0.01 0 -0.12 -0.36 0 -0.04 -0.01 0 -0.12 -0.37 0 -0.03 -0.01 0c-0.18,-0.55 -0.35,-1.11 -0.52,-1.67l0 -0.04 -0.01 0c-0.08,-0.28 -0.17,-0.56 -0.25,-0.84l0 -0.07 -0.02 0 -0.11 -0.38 0 -0.02 -0.01 0c-0.04,-0.15 -0.08,-0.31 -0.13,-0.46l0 -0.06 -0.02 0c-0.08,-0.3 -0.16,-0.6 -0.25,-0.91l0 -0.01 -0 0c-0.18,-0.68 -0.35,-1.37 -0.52,-2.06l0 -0.04 -0.01 0c-0.04,-0.17 -0.08,-0.33 -0.12,-0.5l0 -0.03 -0.01 0c-0.09,-0.38 -0.17,-0.76 -0.26,-1.13l0 -0.04 -0.01 0c-0.18,-0.82 -0.35,-1.66 -0.52,-2.49l0 -0 0 0c-0.04,-0.23 -0.09,-0.45 -0.13,-0.68l0 -0.11 -0.02 0c-0.04,-0.2 -0.08,-0.4 -0.11,-0.6l0 -0.06 -0.01 0c-0.04,-0.24 -0.08,-0.49 -0.12,-0.73l0 -0.06 -0.01 0c-0.09,-0.52 -0.17,-1.04 -0.25,-1.56l0 -0.01 0 0c-0.1,-0.62 -0.18,-1.24 -0.26,-1.86l0 -0.11 -0.02 0c-0.04,-0.33 -0.08,-0.66 -0.12,-0.99l0 -0.06 -0.01 0c-0.1,-0.82 -0.18,-1.64 -0.26,-2.46l0 -0.16 -0.01 0c-0.04,-0.45 -0.08,-0.9 -0.12,-1.36l0 -0.35 -0.02 0c-0.16,-2.21 -0.24,-4.44 -0.24,-6.68l0 -483.35c0,-2.25 0.08,-4.48 0.24,-6.68l0.02 0 0 -0.35c0.03,-0.45 0.07,-0.9 0.12,-1.36l0.01 0 0 -0.16c0.07,-0.82 0.16,-1.64 0.26,-2.46l0.01 0 0 -0.06c0.04,-0.33 0.07,-0.66 0.12,-0.99l0.02 0 0 -0.11c0.08,-0.62 0.17,-1.24 0.26,-1.86l0 0 0 -0.01c0.08,-0.52 0.17,-1.04 0.25,-1.56l0.01 0 0 -0.06c0.04,-0.24 0.08,-0.49 0.12,-0.73l0.01 0 0 -0.06c0.03,-0.2 0.07,-0.4 0.11,-0.59l0.02 0 0 -0.11c0.04,-0.23 0.09,-0.45 0.13,-0.68l0 0 0 -0c0.16,-0.83 0.33,-1.66 0.52,-2.49l0.01 0 0 -0.04c0.08,-0.38 0.17,-0.76 0.26,-1.14l0.01 0 0 -0.03c0.04,-0.17 0.08,-0.33 0.12,-0.5l0.01 0 0 -0.04c0.17,-0.69 0.34,-1.38 0.52,-2.06l0 0 0 -0.01c0.08,-0.3 0.16,-0.6 0.25,-0.91l0.02 0 0 -0.06c0.04,-0.16 0.08,-0.31 0.13,-0.46l0.01 0 0 -0.02 0.11 -0.38 0.02 0 0 -0.07c0.08,-0.28 0.17,-0.56 0.25,-0.84l0.01 0 0 -0.04c0.17,-0.56 0.34,-1.11 0.52,-1.67l0.01 0 0 -0.03 0.12 -0.37 0.01 0 0 -0.04 0.12 -0.36 0.01 0 0 -0.04 0.11 -0.35 0.02 0 0 -0.06 0.11 -0.34 0.02 0 0 -0.06c0.04,-0.11 0.08,-0.22 0.12,-0.34l0.01 0 0 -0.03 0.13 -0.36 0.01 0 0 -0.01c0.29,-0.83 0.59,-1.66 0.91,-2.48l0.01 0 0 -0.03c0.08,-0.21 0.16,-0.42 0.24,-0.63l0.02 0 0 -0.06 0.13 -0.33 0 0 0 -0.01c0.3,-0.75 0.6,-1.48 0.91,-2.22l0 0 0 -0.01c0.17,-0.39 0.34,-0.78 0.52,-1.17l0.01 0 0 -0.02c0.17,-0.39 0.34,-0.77 0.52,-1.16l0.01 0 0 -0.01 0.12 -0.25 0.01 0 0 -0.03c1.01,-2.18 2.1,-4.31 3.27,-6.4l0.01 0 0 -0.02c0.17,-0.3 0.33,-0.6 0.5,-0.9l0.02 0 0 -0.04c0.17,-0.3 0.35,-0.59 0.52,-0.88l0 0 0 -0.01c0.47,-0.79 0.95,-1.58 1.43,-2.35l0.01 0 0 -0.01c0.08,-0.13 0.16,-0.26 0.24,-0.38l0.02 0 0 -0.04c0.39,-0.6 0.78,-1.2 1.18,-1.8l0 0 0 0 0.26 -0.39 0 0 0 -0c0.3,-0.44 0.6,-0.87 0.91,-1.31l0.01 0 0 -0.01c0.21,-0.3 0.43,-0.6 0.64,-0.91l0.01 0 0 -0.01c0.34,-0.48 0.69,-0.96 1.05,-1.43l0 0 0 -0c0.3,-0.39 0.6,-0.78 0.9,-1.18l0.02 0 0 -0.02c0.13,-0.17 0.26,-0.34 0.39,-0.5l0.01 0 0 -0.01 0.1 -0.12 0.03 0 0 -0.04c0.13,-0.16 0.26,-0.32 0.39,-0.48l0 0 0 -0c0.39,-0.48 0.78,-0.96 1.18,-1.44l0 0 0 -0.01c0.26,-0.3 0.51,-0.61 0.77,-0.91l0.02 0 0 -0.02c0.26,-0.3 0.52,-0.6 0.78,-0.9l0.01 0 0 -0.01 0.11 -0.12 0.02 0 0 -0.02c0.9,-1.02 1.81,-2.02 2.75,-2.99l0 0 0 -0 0.13 -0.13 0.01 0 0 -0.01 0.12 -0.13 0.01 0 0 -0.01 0.12 -0.12 0.01 0 0 -0.01 0.12 -0.12 0.02 0 0 -0.01c0.51,-0.53 1.03,-1.05 1.56,-1.56l0.01 0 0 -0.01 0.12 -0.12 0.01 0 0 -0.01 0.12 -0.12 0.01 0 0 -0.01 0.13 -0.12 0.01 0 0 -0.01 0.13 -0.13 0 0 0 0c0.98,-0.94 1.98,-1.85 2.99,-2.75l0.02 0 0 -0.02 0.12 -0.11 0.01 0 0 -0.01c0.3,-0.26 0.6,-0.52 0.9,-0.78l0.02 0 0 -0.02c0.3,-0.26 0.6,-0.52 0.91,-0.77l0.01 0 0 -0.01c0.47,-0.4 0.95,-0.79 1.44,-1.18l0 0 0 0c0.16,-0.13 0.32,-0.26 0.49,-0.39l0.04 0 0 -0.03 0.12 -0.1 0.01 0 0 -0.01c0.17,-0.13 0.34,-0.26 0.5,-0.39l0.02 0 0 -0.02c0.39,-0.3 0.78,-0.6 1.18,-0.9l0 0 0 -0c0.47,-0.35 0.95,-0.7 1.43,-1.05l0.01 0 0 -0.01c0.3,-0.22 0.6,-0.43 0.91,-0.64l0.01 0 0 -0.01c0.56,-0.4 1.13,-0.79 1.7,-1.17l0 0 0 0c0.59,-0.4 1.19,-0.79 1.8,-1.18l0.04 0 0 -0.02c0.13,-0.08 0.26,-0.16 0.38,-0.24l0.01 0 0 -0.01c0.78,-0.49 1.56,-0.97 2.35,-1.43l0.01 0 0 -0c0.29,-0.17 0.58,-0.35 0.88,-0.52l0.04 0 0 -0.02c0.3,-0.17 0.6,-0.34 0.9,-0.5l0.02 0 0 -0.01c2.08,-1.17 4.22,-2.26 6.39,-3.27l0.03 0 0 -0.01 0.25 -0.12 0.01 0 0 -0c0.38,-0.18 0.77,-0.35 1.16,-0.52l0.02 0 0 -0.01c0.39,-0.17 0.78,-0.35 1.17,-0.52l0.01 0 0 -0c0.74,-0.31 1.48,-0.62 2.22,-0.91l0.01 0 0 -0 0.33 -0.13 0.06 0 0 -0.02c0.21,-0.08 0.42,-0.16 0.63,-0.24l0.03 0 0 -0.01c0.82,-0.31 1.65,-0.62 2.48,-0.91l0.01 0 0 -0.01 0.36 -0.13 0.03 0 0 -0.01c0.11,-0.04 0.22,-0.08 0.34,-0.12l0.06 0 0 -0.02 0.34 -0.11 0.06 0 0 -0.02c0.12,-0.04 0.23,-0.07 0.35,-0.11l0.05 0 0 -0.02 0.36 -0.12 0.04 0 0 -0.01 0.37 -0.12 0.03 0 0 -0.01c0.55,-0.18 1.11,-0.35 1.67,-0.52l0.04 0 0 -0.01c0.28,-0.08 0.56,-0.17 0.84,-0.25l0.07 0 0 -0.02 0.37 -0.11 0.02 0 0 -0.01c0.15,-0.04 0.31,-0.08 0.46,-0.13l0.06 0 0 -0.02c0.3,-0.08 0.6,-0.16 0.91,-0.25l0.01 0 0 -0c0.68,-0.18 1.37,-0.35 2.06,-0.52l0.04 0 0 -0.01c0.17,-0.04 0.33,-0.08 0.5,-0.12l0.03 0 0 -0.01c0.38,-0.09 0.76,-0.17 1.13,-0.26l0.04 0 0 -0.01c0.82,-0.18 1.66,-0.35 2.49,-0.51l0 0 0 -0c0.23,-0.04 0.45,-0.09 0.68,-0.13l0.11 0 0 -0.02c0.2,-0.04 0.4,-0.07 0.6,-0.11l0.06 0 0 -0.01c0.24,-0.04 0.49,-0.08 0.73,-0.12l0.06 0 0 -0.01c0.52,-0.09 1.04,-0.17 1.56,-0.25l0.01 0 0 0c0.62,-0.09 1.24,-0.18 1.86,-0.26l0.11 0 0 -0.01c0.33,-0.04 0.66,-0.08 0.99,-0.12l0.06 0 0 -0.01c0.81,-0.1 1.64,-0.18 2.46,-0.26l0.16 0 0 -0.01c0.45,-0.04 0.91,-0.08 1.36,-0.12l0.34 0 0 -0.02c2.21,-0.16 4.44,-0.24 6.68,-0.24l483.35 0c2.25,0 4.48,0.08 6.68,0.24l0 0.02 0.34 0c0.46,0.03 0.91,0.08 1.36,0.12l0 0.01 0.16 0c0.82,0.08 1.64,0.16 2.46,0.26l0 0.01 0.06 0c0.33,0.04 0.66,0.07 0.99,0.12l0 0.01 0.11 0c0.62,0.08 1.24,0.17 1.86,0.26l0 0 0.01 0c0.52,0.08 1.04,0.17 1.56,0.25l0 0.01 0.06 0c0.24,0.04 0.49,0.08 0.73,0.12l0 0.01 0.06 0c0.2,0.04 0.4,0.07 0.6,0.11l0 0.02 0.11 0c0.23,0.04 0.45,0.09 0.68,0.13l0 0 0 0c0.83,0.16 1.66,0.33 2.49,0.51l0 0.01 0.04 0c0.38,0.08 0.76,0.17 1.14,0.26l0 0.01 0.03 0c0.17,0.04 0.33,0.08 0.5,0.12l0 0.01 0.04 0c0.69,0.17 1.38,0.34 2.06,0.52l0 0 0.01 0c0.3,0.08 0.61,0.16 0.91,0.25l0 0.02 0.06 0c0.15,0.04 0.31,0.08 0.46,0.13l0 0.01 0.02 0 0.38 0.11 0 0.02 0.07 0c0.28,0.08 0.56,0.17 0.84,0.25l0 0.01 0.04 0c0.56,0.17 1.11,0.34 1.67,0.52l0 0.01 0.03 0 0.37 0.12 0 0.01 0.03 0 0.36 0.12 0 0.02 0.04 0 0.35 0.11 0 0.02 0.06 0 0.34 0.11 0 0.02 0.06 0c0.11,0.04 0.22,0.08 0.34,0.12l0 0.01 0.03 0 0.36 0.13 0 0.01 0.01 0c0.83,0.29 1.66,0.59 2.48,0.91l0 0.01 0.03 0c0.21,0.08 0.42,0.16 0.63,0.24l0 0.02 0.06 0 0.33 0.13 0 0 0.01 0c0.75,0.3 1.48,0.6 2.22,0.91l0 0 0.01 0c0.39,0.17 0.78,0.34 1.17,0.52l0 0.01 0.02 0c0.39,0.17 0.77,0.34 1.16,0.52l0 0.01 0.01 0 0.25 0.12 0 0.01 0.03 0c2.18,1.01 4.31,2.1 6.4,3.27l0 0.01 0.02 0c0.3,0.17 0.6,0.33 0.9,0.5l0 0.02 0.04 0c0.3,0.17 0.59,0.35 0.88,0.52l0 0 0.01 0c0.79,0.47 1.58,0.95 2.35,1.43l0 0.01 0.01 0c0.13,0.08 0.26,0.16 0.38,0.24l0 0.02 0.04 0c0.6,0.39 1.2,0.78 1.8,1.18l0 0 0 0c0.57,0.39 1.14,0.78 1.7,1.17l0 0.01 0.01 0c0.3,0.21 0.6,0.43 0.91,0.64l0 0.01 0.01 0c0.48,0.35 0.96,0.69 1.43,1.05l0 0 0.01 0c0.39,0.3 0.78,0.6 1.18,0.9l0 0.02 0.02 0c0.17,0.13 0.34,0.26 0.5,0.39l0 0.01 0.01 0 0.12 0.1 0 0.03 0.04 0c0.16,0.13 0.32,0.26 0.48,0.39l0 0 0 0c0.48,0.39 0.96,0.78 1.44,1.18l0 0.01 0.01 0c0.3,0.25 0.61,0.51 0.91,0.77l0 0.02 0.02 0c0.3,0.26 0.6,0.52 0.9,0.78l0 0.01 0.01 0 0.12 0.11 0 0.02 0.02 0c1.02,0.9 2.02,1.81 2.99,2.75l0 0 0 0 0.13 0.13 0 0.01 0.01 0 0.13 0.12 0 0.01 0.01 0 0.12 0.12 0 0.01 0.01 0 0.12 0.12 0 0.01 0.01 0c0.53,0.51 1.05,1.03 1.56,1.56l0 0.01 0.01 0 0.12 0.12 0 0.01 0.01 0 0.12 0.12 0 0.01 0.01 0 0.12 0.13 0 0.01 0.01 0 0.13 0.13 0 0 0 0c0.94,0.97 1.85,1.97 2.75,2.99l0 0.02 0.02 0 0.11 0.12 0 0.01 0.01 0c0.26,0.3 0.52,0.6 0.78,0.9l0 0.02 0.02 0c0.26,0.3 0.52,0.6 0.77,0.91l0 0.01 0.01 0c0.4,0.48 0.79,0.96 1.18,1.44l0 0 0 0c0.13,0.16 0.26,0.32 0.39,0.48l0 0.04 0.03 0 0.1 0.12 0 0.01 0.01 0c0.13,0.17 0.26,0.34 0.39,0.5l0 0.02 0.02 0c0.3,0.39 0.6,0.78 0.9,1.18l0 0 0 0c0.35,0.47 0.7,0.95 1.05,1.43l0 0.01 0.01 0c0.22,0.3 0.43,0.6 0.64,0.91l0 0.01 0.01 0c0.4,0.57 0.79,1.13 1.17,1.7l0 0 0 0c0.4,0.6 0.79,1.2 1.18,1.8l0 0.04 0.02 0c0.08,0.13 0.16,0.26 0.24,0.38l0 0.01 0.01 0c0.49,0.78 0.97,1.56 1.44,2.35l0 0.01 0 0c0.17,0.29 0.35,0.58 0.52,0.88l0 0.04 0.02 0c0.17,0.3 0.34,0.6 0.5,0.9l0 0.02 0.01 0c1.17,2.08 2.26,4.22 3.27,6.4l0 0.03 0.01 0 0.12 0.25 0 0.01 0 0c0.18,0.39 0.35,0.77 0.52,1.16l0 0.02 0.01 0c0.17,0.39 0.35,0.78 0.52,1.17l0 0.01 0 0c0.31,0.74 0.62,1.48 0.91,2.22l0 0.01 0 0 0.13 0.33 0 0.06 0.02 0c0.08,0.21 0.16,0.42 0.24,0.63l0 0.03 0.01 0c0.31,0.82 0.62,1.65 0.91,2.48l0 0.01 0.01 0 0.13 0.36 0 0.03 0.01 0c0.04,0.11 0.08,0.22 0.12,0.34l0 0.06 0.02 0 0.11 0.34 0 0.06 0.02 0c0.04,0.11 0.07,0.23 0.11,0.35l0 0.04 0.02 0 0.12 0.36 0 0.04 0.01 0 0.12 0.37 0 0.03 0.01 0c0.18,0.55 0.35,1.11 0.52,1.67l0 0.04 0.01 0c0.08,0.28 0.17,0.56 0.25,0.84l0 0.07 0.02 0 0.11 0.38 0 0.02 0.01 0c0.04,0.15 0.08,0.31 0.12,0.46l0 0.06 0.02 0c0.08,0.3 0.16,0.61 0.25,0.91l0 0.01 0 0c0.18,0.68 0.35,1.37 0.52,2.06l0 0.04 0.01 0c0.04,0.17 0.08,0.33 0.12,0.5l0 0.03 0.01 0c0.09,0.38 0.17,0.76 0.26,1.14l0 0.04 0.01 0c0.18,0.83 0.35,1.66 0.51,2.49l0 0 0 0c0.04,0.23 0.09,0.45 0.13,0.68l0 0.11 0.02 0c0.04,0.2 0.07,0.4 0.11,0.6l0 0.06 0.01 0c0.04,0.24 0.08,0.49 0.12,0.73l0 0.06 0.01 0c0.09,0.52 0.17,1.04 0.25,1.56l0 0.01 0 0c0.09,0.62 0.18,1.24 0.26,1.86l0 0.11 0.01 0c0.04,0.33 0.08,0.66 0.12,0.99l0 0.06 0.01 0c0.1,0.82 0.18,1.64 0.26,2.46l0 0.16 0.01 0c0.04,0.45 0.08,0.91 0.12,1.36l0 0.34 0.02 0c0.16,2.21 0.24,4.44 0.24,6.68l0 483.35c0,2.25 -0.08,4.48 -0.24,6.68l-0.02 0 0 0.35c-0.04,0.49 -0.08,0.99 -0.13,1.48l-0 0 0 0.04c-0.07,0.82 -0.16,1.63 -0.25,2.44l-0.01 0 0 0.08c-0.04,0.32 -0.07,0.65 -0.11,0.97l-0.02 0 0 0.12c-0.04,0.31 -0.09,0.62 -0.13,0.93l-0 0 0 0.01c-0.12,0.83 -0.24,1.66 -0.38,2.48l-0.01 0 0 0.08c-0.04,0.24 -0.08,0.47 -0.12,0.71l-0.01 0 0 0.08c-0.08,0.46 -0.17,0.91 -0.26,1.36l-0.01 0 0 0.03c-0.16,0.83 -0.33,1.65 -0.51,2.46l-0.02 0 0 0.07c-0.04,0.2 -0.08,0.39 -0.13,0.58l-0.01 0 0 0.02 -0.12 0.5 -0.01 0 0 0.06c-0.04,0.16 -0.08,0.31 -0.12,0.47l-0.02 0 0 0.07c-0.21,0.86 -0.43,1.71 -0.66,2.55l0 0 0 0c-0.08,0.31 -0.16,0.61 -0.25,0.92l-0.01 0 0 0.05c-0.08,0.29 -0.17,0.58 -0.26,0.86l-0.01 0 0 0.02c-0.44,1.49 -0.91,2.97 -1.42,4.43l-0.02 0 0 0.05 -0.12 0.34 -0.01 0 0 0.03 -0.13 0.36 -0 0 0 0.01c-0.25,0.7 -0.51,1.4 -0.78,2.09l-0.01 0 0 0.02c-0.08,0.21 -0.16,0.42 -0.24,0.63l-0.02 0 0 0.04c-0.08,0.21 -0.17,0.41 -0.25,0.61l-0.01 0 0 0.03 -0.25 0.62 -0.01 0 0 0.02c-0.25,0.61 -0.51,1.21 -0.77,1.81l-0.01 0 0 0.03c-0.13,0.3 -0.26,0.59 -0.39,0.89l-0.01 0 0 0.01 -0.11 0.25 -0.02 0 0 0.03c-0.46,1 -0.93,1.99 -1.42,2.98l-0.02 0 0 0.03 -0.11 0.23 -0.02 0 0 0.04 -0.11 0.22 -0.02 0 0 0.04 -0.11 0.22 -0.02 0 0 0.04 -0.12 0.22 -0.02 0 0 0.03 -0.12 0.23 -0.01 0 0 0.02 -0.13 0.24 -0 0 0 0.01c-0.51,0.97 -1.03,1.93 -1.57,2.88l-0.01 0 0 0.01c-0.12,0.21 -0.25,0.43 -0.37,0.64l-0.02 0 0 0.04 -0.13 0.22 -0 0 0 0c-0.13,0.22 -0.26,0.43 -0.39,0.65l-0.01 0 0 0.01c-0.26,0.43 -0.52,0.87 -0.78,1.3l-0 0 0 0.01c-0.22,0.35 -0.43,0.7 -0.65,1.04l-0.01 0 0 0.01c-0.08,0.13 -0.16,0.26 -0.24,0.39l-0.02 0 0 0.03c-0.08,0.12 -0.16,0.24 -0.24,0.36l-0.02 0 0 0.04c-0.51,0.78 -1.03,1.56 -1.56,2.32l-0.01 0 0 0.02 -0.26 0.37 -0 0 0 0.01c-0.21,0.31 -0.43,0.61 -0.64,0.91l-0.01 0 0 0.02c-0.47,0.66 -0.95,1.31 -1.44,1.95l-0 0 0 0c-0.3,0.39 -0.6,0.79 -0.9,1.18l-0.02 0 0 0.02c-0.17,0.21 -0.34,0.42 -0.51,0.63l-0.02 0 0 0.02c-0.59,0.75 -1.2,1.48 -1.81,2.21l-0.02 0 0 0.02c-0.22,0.25 -0.43,0.51 -0.65,0.76l-0.01 0 0 0.01 -0.11 0.12 -0.02 0 0 0.02c-0.77,0.88 -1.55,1.75 -2.35,2.6l-0.01 0 0 0.01 -0.11 0.12 -0.02 0 0 0.02 -0.11 0.11 -0.02 0 0 0.03 -0.1 0.11 -0.03 0 0 0.04c-1.14,1.2 -2.31,2.36 -3.51,3.5l-0.03 0 0 0.03 -0.11 0.11 -0.02 0 0 0.02 -0.12 0.11 -0.01 0 0 0.01c-0.85,0.8 -1.71,1.59 -2.59,2.35l-0.03 0 0 0.03 -0.12 0.11 -0.01 0 0 0.01c-0.3,0.26 -0.61,0.52 -0.92,0.78l0 0 0 0c-0.68,0.58 -1.37,1.15 -2.07,1.7l-0.02 0 0 0.02c-0.21,0.17 -0.42,0.34 -0.63,0.5l-0.02 0 0 0.02c-0.39,0.3 -0.78,0.6 -1.17,0.9l-0.01 0 0 0.01c-0.35,0.26 -0.69,0.52 -1.05,0.78l-0 0 0 0c-0.3,0.22 -0.59,0.44 -0.9,0.65l-0.02 0 0 0.02c-0.3,0.22 -0.6,0.43 -0.91,0.64l-0.01 0 0 0.01c-1.02,0.72 -2.06,1.41 -3.11,2.09l-0.04 0 0 0.02c-0.12,0.08 -0.25,0.16 -0.38,0.24l-0.02 0 0 0.01c-0.77,0.49 -1.55,0.96 -2.34,1.43l-0.02 0 0 0.01c-0.21,0.13 -0.43,0.25 -0.64,0.38l-0.01 0 0 0.01c-0.3,0.17 -0.6,0.35 -0.9,0.52l-0.02 0 0 0.01c-0.86,0.49 -1.74,0.97 -2.62,1.43l0 0 0 0 -0.25 0.13 -0.01 0 0 0.01 -0.24 0.12 -0.03 0 0 0.02 -0.22 0.12 -0.04 0 0 0.02 -0.21 0.11 -0.05 0 0 0.02 -0.21 0.11 -0.05 0 0 0.02c-0.69,0.35 -1.39,0.69 -2.09,1.03l-0.01 0 0 0c-0.46,0.22 -0.93,0.44 -1.39,0.65l-0.05 0 0 0.02 -0.24 0.11 -0.02 0 0 0.01c-0.39,0.17 -0.78,0.34 -1.17,0.52l-0.01 0 0 0c-0.72,0.31 -1.45,0.62 -2.18,0.91l-0.05 0 0 0.02c-0.2,0.08 -0.4,0.16 -0.59,0.24l-0.06 0 0 0.02c-0.21,0.08 -0.41,0.16 -0.62,0.24l-0.03 0 0 0.01c-0.57,0.22 -1.13,0.44 -1.7,0.64 -0.12,0.04 -0.25,0.08 -0.37,0.13l-0.02 0 0 0.01c-1.43,0.51 -2.87,0.99 -4.33,1.43 -0.29,0.09 -0.58,0.17 -0.88,0.26l-0.04 0 0 0.01c-0.29,0.08 -0.57,0.17 -0.85,0.25l-0.07 0 0 0.02c-0.3,0.08 -0.6,0.16 -0.9,0.24l-0.01 0 0 0.01c-0.84,0.23 -1.69,0.45 -2.54,0.65l-0.08 0 0 0.02c-0.15,0.04 -0.3,0.07 -0.46,0.11l-0.07 0 0 0.02 -0.49 0.12 -0.03 0 0 0.01c-0.39,0.09 -0.78,0.17 -1.18,0.26l-0.01 0 0 0c-0.64,0.14 -1.28,0.27 -1.93,0.39l-0.04 0 0 0.01c-0.22,0.04 -0.43,0.08 -0.64,0.12l-0.01 0 0 0c-0.23,0.04 -0.46,0.09 -0.69,0.13l-0.09 0 0 0.02c-0.23,0.04 -0.46,0.08 -0.7,0.12l-0.09 0 0 0.01c-0.82,0.14 -1.64,0.26 -2.47,0.38l-0.02 0 0 0.01c-0.3,0.04 -0.61,0.09 -0.91,0.13l-0.13 0 0 0.02c-0.32,0.04 -0.64,0.07 -0.96,0.11l-0.09 0 0 0.01c-0.81,0.1 -1.62,0.18 -2.44,0.25l-0.05 0 0 0.01c-0.49,0.04 -0.98,0.09 -1.47,0.12l-0.36 0 0 0.02c-2.21,0.16 -4.44,0.24 -6.68,0.24l-483.35 0c-2.25,0 -4.48,-0.08 -6.68,-0.24z"/>
   </clipPath>
 </defs>
 <g id="Layer_x0020_1">
  <metadata id="CorelCorpID_0Corel-Layer"/>
  <path class="fil0" d="M87.16 670.8l0 -0.02 -0.35 0c-0.45,-0.03 -0.9,-0.07 -1.36,-0.12l0 -0.01 -0.16 0c-0.82,-0.07 -1.64,-0.16 -2.46,-0.26l0 -0.01 -0.06 0c-0.33,-0.04 -0.66,-0.07 -0.99,-0.12l0 -0.02 -0.11 0c-0.62,-0.08 -1.24,-0.17 -1.86,-0.26l0 0 -0.01 0c-0.52,-0.08 -1.04,-0.17 -1.56,-0.25l0 -0.01 -0.06 0c-0.24,-0.04 -0.49,-0.08 -0.73,-0.12l0 -0.01 -0.06 0c-0.2,-0.03 -0.4,-0.07 -0.6,-0.11l0 -0.02 -0.11 0c-0.23,-0.04 -0.45,-0.09 -0.68,-0.13l0 0 -0 0c-0.83,-0.16 -1.66,-0.33 -2.49,-0.52l0 -0.01 -0.04 0c-0.38,-0.08 -0.76,-0.17 -1.13,-0.26l0 -0.01 -0.03 0c-0.17,-0.04 -0.33,-0.08 -0.5,-0.12l0 -0.01 -0.04 0c-0.69,-0.17 -1.38,-0.34 -2.06,-0.52l0 -0 -0.01 0c-0.3,-0.08 -0.61,-0.16 -0.91,-0.25l0 -0.02 -0.06 0c-0.16,-0.04 -0.31,-0.08 -0.46,-0.13l0 -0.01 -0.02 0 -0.37 -0.11 0 -0.02 -0.07 0c-0.28,-0.08 -0.56,-0.17 -0.84,-0.25l0 -0.01 -0.04 0c-0.56,-0.17 -1.11,-0.34 -1.67,-0.52l0 -0.01 -0.03 0 -0.37 -0.12 0 -0.01 -0.04 0 -0.36 -0.12 0 -0.01 -0.05 0 -0.35 -0.11 0 -0.02 -0.06 0 -0.34 -0.11 0 -0.02 -0.06 0c-0.11,-0.04 -0.22,-0.08 -0.34,-0.12l0 -0.01 -0.03 0 -0.36 -0.13 0 -0.01 -0.01 0c-0.83,-0.29 -1.66,-0.59 -2.48,-0.91l0 -0.01 -0.03 0c-0.21,-0.08 -0.42,-0.16 -0.63,-0.24l0 -0.02 -0.06 0 -0.33 -0.13 0 -0 -0.01 0c-0.75,-0.3 -1.48,-0.6 -2.22,-0.91l0 -0 -0.01 0c-0.39,-0.17 -0.78,-0.34 -1.17,-0.52l0 -0.01 -0.02 0c-0.39,-0.17 -0.77,-0.35 -1.16,-0.52l0 -0.01 -0.01 0 -0.25 -0.12 0 -0.01 -0.03 0c-2.18,-1.01 -4.31,-2.1 -6.39,-3.27l0 -0.01 -0.02 0c-0.3,-0.17 -0.6,-0.33 -0.9,-0.5l0 -0.02 -0.04 0c-0.3,-0.17 -0.59,-0.35 -0.88,-0.52l0 -0 -0.01 0c-0.79,-0.47 -1.58,-0.95 -2.35,-1.43l0 -0.01 -0.01 0c-0.13,-0.08 -0.26,-0.16 -0.38,-0.24l0 -0.02 -0.04 0c-0.6,-0.39 -1.2,-0.78 -1.8,-1.18l0 0 0 0 -0.39 -0.26c-0.44,-0.3 -0.87,-0.6 -1.31,-0.91l0 -0.01 -0.01 0c-0.3,-0.21 -0.6,-0.43 -0.91,-0.64l0 -0.01 -0.01 0c-0.48,-0.34 -0.96,-0.69 -1.43,-1.05l0 0 -0 0c-0.4,-0.3 -0.78,-0.6 -1.18,-0.9l0 -0.02 -0.02 0c-0.17,-0.13 -0.34,-0.26 -0.5,-0.39l0 -0.01 -0.01 0 -0.12 -0.1 0 -0.03 -0.04 0c-0.16,-0.13 -0.32,-0.26 -0.49,-0.39l0 -0 -0 0c-0.48,-0.39 -0.96,-0.78 -1.44,-1.17l0 -0.01 -0.01 0c-0.31,-0.26 -0.61,-0.51 -0.91,-0.77l0 -0.02 -0.02 0c-0.3,-0.26 -0.6,-0.52 -0.9,-0.78l0 -0.01 -0.01 0 -0.12 -0.11 0 -0.02 -0.02 0c-1.01,-0.9 -2.01,-1.81 -2.99,-2.75l0 0 0 0 -0.13 -0.13 0 -0.01 -0.01 0 -0.13 -0.12 0 -0.01 -0.01 0 -0.12 -0.12 0 -0.01 -0.01 0 -0.12 -0.12 0 -0.02 -0.02 0c-0.52,-0.51 -1.04,-1.03 -1.56,-1.56l0 -0.02 -0.02 0 -0.12 -0.12 0 -0.01 -0.01 0 -0.12 -0.12 0 -0.01 -0.01 0 -0.12 -0.13 0 -0.01 -0.01 0 -0.13 -0.13 0 0 0 0c-0.94,-0.98 -1.85,-1.98 -2.75,-2.99l0 -0.02 -0.02 0 -0.11 -0.12 0 -0.01 -0.01 0c-0.26,-0.3 -0.52,-0.6 -0.78,-0.9l0 -0.02 -0.02 0c-0.26,-0.3 -0.52,-0.6 -0.77,-0.91l0 -0.01 -0.01 0c-0.4,-0.47 -0.78,-0.96 -1.17,-1.44l0 -0 -0 0c-0.13,-0.16 -0.26,-0.32 -0.39,-0.49l0 -0.04 -0.03 0 -0.1 -0.12 0 -0.01 -0.01 0c-0.13,-0.17 -0.26,-0.34 -0.39,-0.5l0 -0.02 -0.02 0c-0.3,-0.39 -0.6,-0.78 -0.9,-1.18l0 -0 0 0c-0.35,-0.47 -0.7,-0.95 -1.05,-1.43l0 -0.01 -0.01 0c-0.22,-0.3 -0.43,-0.6 -0.64,-0.91l0 -0.01 -0.01 0c-0.3,-0.44 -0.61,-0.87 -0.91,-1.31 -0.09,-0.13 -0.17,-0.26 -0.26,-0.39l0 0 0 0c-0.4,-0.59 -0.79,-1.19 -1.18,-1.8l0 -0.04 -0.02 0c-0.08,-0.13 -0.16,-0.26 -0.24,-0.38l0 -0.01 -0.01 0c-0.49,-0.78 -0.97,-1.56 -1.43,-2.35l0 -0.01 -0 0c-0.17,-0.29 -0.35,-0.58 -0.52,-0.88l0 -0.04 -0.02 0c-0.17,-0.3 -0.34,-0.6 -0.5,-0.9l0 -0.02 -0.01 0c-1.17,-2.08 -2.26,-4.22 -3.27,-6.39l0 -0.03 -0.01 0 -0.12 -0.25 0 -0.01 -0.01 0c-0.17,-0.38 -0.35,-0.77 -0.52,-1.16l0 -0.02 -0.01 0c-0.17,-0.39 -0.35,-0.78 -0.52,-1.17l0 -0.01 -0 0c-0.31,-0.74 -0.62,-1.48 -0.91,-2.22l0 -0.01 -0 0 -0.13 -0.33 0 -0.06 -0.02 0c-0.08,-0.21 -0.16,-0.42 -0.24,-0.63l0 -0.03 -0.01 0c-0.31,-0.82 -0.62,-1.65 -0.91,-2.48l0 -0.01 -0.01 0 -0.13 -0.36 0 -0.03 -0.01 0c-0.04,-0.11 -0.08,-0.22 -0.12,-0.34l0 -0.06 -0.02 0 -0.11 -0.34 0 -0.06 -0.02 0c-0.04,-0.12 -0.07,-0.23 -0.11,-0.35l0 -0.04 -0.01 0 -0.12 -0.36 0 -0.04 -0.01 0 -0.12 -0.37 0 -0.03 -0.01 0c-0.18,-0.55 -0.35,-1.11 -0.52,-1.67l0 -0.04 -0.01 0c-0.08,-0.28 -0.17,-0.56 -0.25,-0.84l0 -0.07 -0.02 0 -0.11 -0.38 0 -0.02 -0.01 0c-0.04,-0.15 -0.08,-0.31 -0.13,-0.46l0 -0.06 -0.02 0c-0.08,-0.3 -0.16,-0.6 -0.25,-0.91l0 -0.01 -0 0c-0.18,-0.68 -0.35,-1.37 -0.52,-2.06l0 -0.04 -0.01 0c-0.04,-0.17 -0.08,-0.33 -0.12,-0.5l0 -0.03 -0.01 0c-0.09,-0.38 -0.17,-0.76 -0.26,-1.13l0 -0.04 -0.01 0c-0.18,-0.82 -0.35,-1.66 -0.52,-2.49l0 -0 0 0c-0.04,-0.23 -0.09,-0.45 -0.13,-0.68l0 -0.11 -0.02 0c-0.04,-0.2 -0.08,-0.4 -0.11,-0.6l0 -0.06 -0.01 0c-0.04,-0.24 -0.08,-0.49 -0.12,-0.73l0 -0.06 -0.01 0c-0.09,-0.52 -0.17,-1.04 -0.25,-1.56l0 -0.01 0 0c-0.1,-0.62 -0.18,-1.24 -0.26,-1.86l0 -0.11 -0.02 0c-0.04,-0.33 -0.08,-0.66 -0.12,-0.99l0 -0.06 -0.01 0c-0.1,-0.82 -0.18,-1.64 -0.26,-2.46l0 -0.16 -0.01 0c-0.04,-0.45 -0.08,-0.9 -0.12,-1.36l0 -0.35 -0.02 0c-0.16,-2.21 -0.24,-4.44 -0.24,-6.68l0 -483.35c0,-2.25 0.08,-4.48 0.24,-6.68l0.02 0 0 -0.35c0.03,-0.45 0.07,-0.9 0.12,-1.36l0.01 0 0 -0.16c0.07,-0.82 0.16,-1.64 0.26,-2.46l0.01 0 0 -0.06c0.04,-0.33 0.07,-0.66 0.12,-0.99l0.02 0 0 -0.11c0.08,-0.62 0.17,-1.24 0.26,-1.86l0 0 0 -0.01c0.08,-0.52 0.17,-1.04 0.25,-1.56l0.01 0 0 -0.06c0.04,-0.24 0.08,-0.49 0.12,-0.73l0.01 0 0 -0.06c0.03,-0.2 0.07,-0.4 0.11,-0.59l0.02 0 0 -0.11c0.04,-0.23 0.09,-0.45 0.13,-0.68l0 0 0 -0c0.16,-0.83 0.33,-1.66 0.52,-2.49l0.01 0 0 -0.04c0.08,-0.38 0.17,-0.76 0.26,-1.14l0.01 0 0 -0.03c0.04,-0.17 0.08,-0.33 0.12,-0.5l0.01 0 0 -0.04c0.17,-0.69 0.34,-1.38 0.52,-2.06l0 0 0 -0.01c0.08,-0.3 0.16,-0.6 0.25,-0.91l0.02 0 0 -0.06c0.04,-0.16 0.08,-0.31 0.13,-0.46l0.01 0 0 -0.02 0.11 -0.38 0.02 0 0 -0.07c0.08,-0.28 0.17,-0.56 0.25,-0.84l0.01 0 0 -0.04c0.17,-0.56 0.34,-1.11 0.52,-1.67l0.01 0 0 -0.03 0.12 -0.37 0.01 0 0 -0.04 0.12 -0.36 0.01 0 0 -0.04 0.11 -0.35 0.02 0 0 -0.06 0.11 -0.34 0.02 0 0 -0.06c0.04,-0.11 0.08,-0.22 0.12,-0.34l0.01 0 0 -0.03 0.13 -0.36 0.01 0 0 -0.01c0.29,-0.83 0.59,-1.66 0.91,-2.48l0.01 0 0 -0.03c0.08,-0.21 0.16,-0.42 0.24,-0.63l0.02 0 0 -0.06 0.13 -0.33 0 0 0 -0.01c0.3,-0.75 0.6,-1.48 0.91,-2.22l0 0 0 -0.01c0.17,-0.39 0.34,-0.78 0.52,-1.17l0.01 0 0 -0.02c0.17,-0.39 0.34,-0.77 0.52,-1.16l0.01 0 0 -0.01 0.12 -0.25 0.01 0 0 -0.03c1.01,-2.18 2.1,-4.31 3.27,-6.4l0.01 0 0 -0.02c0.17,-0.3 0.33,-0.6 0.5,-0.9l0.02 0 0 -0.04c0.17,-0.3 0.35,-0.59 0.52,-0.88l0 0 0 -0.01c0.47,-0.79 0.95,-1.58 1.43,-2.35l0.01 0 0 -0.01c0.08,-0.13 0.16,-0.26 0.24,-0.38l0.02 0 0 -0.04c0.39,-0.6 0.78,-1.2 1.18,-1.8l0 0 0 0 0.26 -0.39 0 0 0 -0c0.3,-0.44 0.6,-0.87 0.91,-1.31l0.01 0 0 -0.01c0.21,-0.3 0.43,-0.6 0.64,-0.91l0.01 0 0 -0.01c0.34,-0.48 0.69,-0.96 1.05,-1.43l0 0 0 -0c0.3,-0.39 0.6,-0.78 0.9,-1.18l0.02 0 0 -0.02c0.13,-0.17 0.26,-0.34 0.39,-0.5l0.01 0 0 -0.01 0.1 -0.12 0.03 0 0 -0.04c0.13,-0.16 0.26,-0.32 0.39,-0.48l0 0 0 -0c0.39,-0.48 0.78,-0.96 1.18,-1.44l0 0 0 -0.01c0.26,-0.3 0.51,-0.61 0.77,-0.91l0.02 0 0 -0.02c0.26,-0.3 0.52,-0.6 0.78,-0.9l0.01 0 0 -0.01 0.11 -0.12 0.02 0 0 -0.02c0.9,-1.02 1.81,-2.02 2.75,-2.99l0 0 0 -0 0.13 -0.13 0.01 0 0 -0.01 0.12 -0.13 0.01 0 0 -0.01 0.12 -0.12 0.01 0 0 -0.01 0.12 -0.12 0.02 0 0 -0.01c0.51,-0.53 1.03,-1.05 1.56,-1.56l0.01 0 0 -0.01 0.12 -0.12 0.01 0 0 -0.01 0.12 -0.12 0.01 0 0 -0.01 0.13 -0.12 0.01 0 0 -0.01 0.13 -0.13 0 0 0 0c0.98,-0.94 1.98,-1.85 2.99,-2.75l0.02 0 0 -0.02 0.12 -0.11 0.01 0 0 -0.01c0.3,-0.26 0.6,-0.52 0.9,-0.78l0.02 0 0 -0.02c0.3,-0.26 0.6,-0.52 0.91,-0.77l0.01 0 0 -0.01c0.47,-0.4 0.95,-0.79 1.44,-1.18l0 0 0 0c0.16,-0.13 0.32,-0.26 0.49,-0.39l0.04 0 0 -0.03 0.12 -0.1 0.01 0 0 -0.01c0.17,-0.13 0.34,-0.26 0.5,-0.39l0.02 0 0 -0.02c0.39,-0.3 0.78,-0.6 1.18,-0.9l0 0 0 -0c0.47,-0.35 0.95,-0.7 1.43,-1.05l0.01 0 0 -0.01c0.3,-0.22 0.6,-0.43 0.91,-0.64l0.01 0 0 -0.01c0.56,-0.4 1.13,-0.79 1.7,-1.17l0 0 0 0c0.59,-0.4 1.19,-0.79 1.8,-1.18l0.04 0 0 -0.02c0.13,-0.08 0.26,-0.16 0.38,-0.24l0.01 0 0 -0.01c0.78,-0.49 1.56,-0.97 2.35,-1.43l0.01 0 0 -0c0.29,-0.17 0.58,-0.35 0.88,-0.52l0.04 0 0 -0.02c0.3,-0.17 0.6,-0.34 0.9,-0.5l0.02 0 0 -0.01c2.08,-1.17 4.22,-2.26 6.39,-3.27l0.03 0 0 -0.01 0.25 -0.12 0.01 0 0 -0c0.38,-0.18 0.77,-0.35 1.16,-0.52l0.02 0 0 -0.01c0.39,-0.17 0.78,-0.35 1.17,-0.52l0.01 0 0 -0c0.74,-0.31 1.48,-0.62 2.22,-0.91l0.01 0 0 -0 0.33 -0.13 0.06 0 0 -0.02c0.21,-0.08 0.42,-0.16 0.63,-0.24l0.03 0 0 -0.01c0.82,-0.31 1.65,-0.62 2.48,-0.91l0.01 0 0 -0.01 0.36 -0.13 0.03 0 0 -0.01c0.11,-0.04 0.22,-0.08 0.34,-0.12l0.06 0 0 -0.02 0.34 -0.11 0.06 0 0 -0.02c0.12,-0.04 0.23,-0.07 0.35,-0.11l0.05 0 0 -0.02 0.36 -0.12 0.04 0 0 -0.01 0.37 -0.12 0.03 0 0 -0.01c0.55,-0.18 1.11,-0.35 1.67,-0.52l0.04 0 0 -0.01c0.28,-0.08 0.56,-0.17 0.84,-0.25l0.07 0 0 -0.02 0.37 -0.11 0.02 0 0 -0.01c0.15,-0.04 0.31,-0.08 0.46,-0.13l0.06 0 0 -0.02c0.3,-0.08 0.6,-0.16 0.91,-0.25l0.01 0 0 -0c0.68,-0.18 1.37,-0.35 2.06,-0.52l0.04 0 0 -0.01c0.17,-0.04 0.33,-0.08 0.5,-0.12l0.03 0 0 -0.01c0.38,-0.09 0.76,-0.17 1.13,-0.26l0.04 0 0 -0.01c0.82,-0.18 1.66,-0.35 2.49,-0.51l0 0 0 -0c0.23,-0.04 0.45,-0.09 0.68,-0.13l0.11 0 0 -0.02c0.2,-0.04 0.4,-0.07 0.6,-0.11l0.06 0 0 -0.01c0.24,-0.04 0.49,-0.08 0.73,-0.12l0.06 0 0 -0.01c0.52,-0.09 1.04,-0.17 1.56,-0.25l0.01 0 0 0c0.62,-0.09 1.24,-0.18 1.86,-0.26l0.11 0 0 -0.01c0.33,-0.04 0.66,-0.08 0.99,-0.12l0.06 0 0 -0.01c0.81,-0.1 1.64,-0.18 2.46,-0.26l0.16 0 0 -0.01c0.45,-0.04 0.91,-0.08 1.36,-0.12l0.34 0 0 -0.02c2.21,-0.16 4.44,-0.24 6.68,-0.24l483.35 0c2.25,0 4.48,0.08 6.68,0.24l0 0.02 0.34 0c0.46,0.03 0.91,0.08 1.36,0.12l0 0.01 0.16 0c0.82,0.08 1.64,0.16 2.46,0.26l0 0.01 0.06 0c0.33,0.04 0.66,0.07 0.99,0.12l0 0.01 0.11 0c0.62,0.08 1.24,0.17 1.86,0.26l0 0 0.01 0c0.52,0.08 1.04,0.17 1.56,0.25l0 0.01 0.06 0c0.24,0.04 0.49,0.08 0.73,0.12l0 0.01 0.06 0c0.2,0.04 0.4,0.07 0.6,0.11l0 0.02 0.11 0c0.23,0.04 0.45,0.09 0.68,0.13l0 0 0 0c0.83,0.16 1.66,0.33 2.49,0.51l0 0.01 0.04 0c0.38,0.08 0.76,0.17 1.14,0.26l0 0.01 0.03 0c0.17,0.04 0.33,0.08 0.5,0.12l0 0.01 0.04 0c0.69,0.17 1.38,0.34 2.06,0.52l0 0 0.01 0c0.3,0.08 0.61,0.16 0.91,0.25l0 0.02 0.06 0c0.15,0.04 0.31,0.08 0.46,0.13l0 0.01 0.02 0 0.38 0.11 0 0.02 0.07 0c0.28,0.08 0.56,0.17 0.84,0.25l0 0.01 0.04 0c0.56,0.17 1.11,0.34 1.67,0.52l0 0.01 0.03 0 0.37 0.12 0 0.01 0.03 0 0.36 0.12 0 0.02 0.04 0 0.35 0.11 0 0.02 0.06 0 0.34 0.11 0 0.02 0.06 0c0.11,0.04 0.22,0.08 0.34,0.12l0 0.01 0.03 0 0.36 0.13 0 0.01 0.01 0c0.83,0.29 1.66,0.59 2.48,0.91l0 0.01 0.03 0c0.21,0.08 0.42,0.16 0.63,0.24l0 0.02 0.06 0 0.33 0.13 0 0 0.01 0c0.75,0.3 1.48,0.6 2.22,0.91l0 0 0.01 0c0.39,0.17 0.78,0.34 1.17,0.52l0 0.01 0.02 0c0.39,0.17 0.77,0.34 1.16,0.52l0 0.01 0.01 0 0.25 0.12 0 0.01 0.03 0c2.18,1.01 4.31,2.1 6.4,3.27l0 0.01 0.02 0c0.3,0.17 0.6,0.33 0.9,0.5l0 0.02 0.04 0c0.3,0.17 0.59,0.35 0.88,0.52l0 0 0.01 0c0.79,0.47 1.58,0.95 2.35,1.43l0 0.01 0.01 0c0.13,0.08 0.26,0.16 0.38,0.24l0 0.02 0.04 0c0.6,0.39 1.2,0.78 1.8,1.18l0 0 0 0c0.57,0.39 1.14,0.78 1.7,1.17l0 0.01 0.01 0c0.3,0.21 0.6,0.43 0.91,0.64l0 0.01 0.01 0c0.48,0.35 0.96,0.69 1.43,1.05l0 0 0.01 0c0.39,0.3 0.78,0.6 1.18,0.9l0 0.02 0.02 0c0.17,0.13 0.34,0.26 0.5,0.39l0 0.01 0.01 0 0.12 0.1 0 0.03 0.04 0c0.16,0.13 0.32,0.26 0.48,0.39l0 0 0 0c0.48,0.39 0.96,0.78 1.44,1.18l0 0.01 0.01 0c0.3,0.25 0.61,0.51 0.91,0.77l0 0.02 0.02 0c0.3,0.26 0.6,0.52 0.9,0.78l0 0.01 0.01 0 0.12 0.11 0 0.02 0.02 0c1.02,0.9 2.02,1.81 2.99,2.75l0 0 0 0 0.13 0.13 0 0.01 0.01 0 0.13 0.12 0 0.01 0.01 0 0.12 0.12 0 0.01 0.01 0 0.12 0.12 0 0.01 0.01 0c0.53,0.51 1.05,1.03 1.56,1.56l0 0.01 0.01 0 0.12 0.12 0 0.01 0.01 0 0.12 0.12 0 0.01 0.01 0 0.12 0.13 0 0.01 0.01 0 0.13 0.13 0 0 0 0c0.94,0.97 1.85,1.97 2.75,2.99l0 0.02 0.02 0 0.11 0.12 0 0.01 0.01 0c0.26,0.3 0.52,0.6 0.78,0.9l0 0.02 0.02 0c0.26,0.3 0.52,0.6 0.77,0.91l0 0.01 0.01 0c0.4,0.48 0.79,0.96 1.18,1.44l0 0 0 0c0.13,0.16 0.26,0.32 0.39,0.48l0 0.04 0.03 0 0.1 0.12 0 0.01 0.01 0c0.13,0.17 0.26,0.34 0.39,0.5l0 0.02 0.02 0c0.3,0.39 0.6,0.78 0.9,1.18l0 0 0 0c0.35,0.47 0.7,0.95 1.05,1.43l0 0.01 0.01 0c0.22,0.3 0.43,0.6 0.64,0.91l0 0.01 0.01 0c0.4,0.57 0.79,1.13 1.17,1.7l0 0 0 0c0.4,0.6 0.79,1.2 1.18,1.8l0 0.04 0.02 0c0.08,0.13 0.16,0.26 0.24,0.38l0 0.01 0.01 0c0.49,0.78 0.97,1.56 1.44,2.35l0 0.01 0 0c0.17,0.29 0.35,0.58 0.52,0.88l0 0.04 0.02 0c0.17,0.3 0.34,0.6 0.5,0.9l0 0.02 0.01 0c1.17,2.08 2.26,4.22 3.27,6.4l0 0.03 0.01 0 0.12 0.25 0 0.01 0 0c0.18,0.39 0.35,0.77 0.52,1.16l0 0.02 0.01 0c0.17,0.39 0.35,0.78 0.52,1.17l0 0.01 0 0c0.31,0.74 0.62,1.48 0.91,2.22l0 0.01 0 0 0.13 0.33 0 0.06 0.02 0c0.08,0.21 0.16,0.42 0.24,0.63l0 0.03 0.01 0c0.31,0.82 0.62,1.65 0.91,2.48l0 0.01 0.01 0 0.13 0.36 0 0.03 0.01 0c0.04,0.11 0.08,0.22 0.12,0.34l0 0.06 0.02 0 0.11 0.34 0 0.06 0.02 0c0.04,0.11 0.07,0.23 0.11,0.35l0 0.04 0.02 0 0.12 0.36 0 0.04 0.01 0 0.12 0.37 0 0.03 0.01 0c0.18,0.55 0.35,1.11 0.52,1.67l0 0.04 0.01 0c0.08,0.28 0.17,0.56 0.25,0.84l0 0.07 0.02 0 0.11 0.38 0 0.02 0.01 0c0.04,0.15 0.08,0.31 0.12,0.46l0 0.06 0.02 0c0.08,0.3 0.16,0.61 0.25,0.91l0 0.01 0 0c0.18,0.68 0.35,1.37 0.52,2.06l0 0.04 0.01 0c0.04,0.17 0.08,0.33 0.12,0.5l0 0.03 0.01 0c0.09,0.38 0.17,0.76 0.26,1.14l0 0.04 0.01 0c0.18,0.83 0.35,1.66 0.51,2.49l0 0 0 0c0.04,0.23 0.09,0.45 0.13,0.68l0 0.11 0.02 0c0.04,0.2 0.07,0.4 0.11,0.6l0 0.06 0.01 0c0.04,0.24 0.08,0.49 0.12,0.73l0 0.06 0.01 0c0.09,0.52 0.17,1.04 0.25,1.56l0 0.01 0 0c0.09,0.62 0.18,1.24 0.26,1.86l0 0.11 0.01 0c0.04,0.33 0.08,0.66 0.12,0.99l0 0.06 0.01 0c0.1,0.82 0.18,1.64 0.26,2.46l0 0.16 0.01 0c0.04,0.45 0.08,0.91 0.12,1.36l0 0.34 0.02 0c0.16,2.21 0.24,4.44 0.24,6.68l0 483.35c0,2.25 -0.08,4.48 -0.24,6.68l-0.02 0 0 0.35c-0.04,0.49 -0.08,0.99 -0.13,1.48l-0 0 0 0.04c-0.07,0.82 -0.16,1.63 -0.25,2.44l-0.01 0 0 0.08c-0.04,0.32 -0.07,0.65 -0.11,0.97l-0.02 0 0 0.12c-0.04,0.31 -0.09,0.62 -0.13,0.93l-0 0 0 0.01c-0.12,0.83 -0.24,1.66 -0.38,2.48l-0.01 0 0 0.08c-0.04,0.24 -0.08,0.47 -0.12,0.71l-0.01 0 0 0.08c-0.08,0.46 -0.17,0.91 -0.26,1.36l-0.01 0 0 0.03c-0.16,0.83 -0.33,1.65 -0.51,2.46l-0.02 0 0 0.07c-0.04,0.2 -0.08,0.39 -0.13,0.58l-0.01 0 0 0.02 -0.12 0.5 -0.01 0 0 0.06c-0.04,0.16 -0.08,0.31 -0.12,0.47l-0.02 0 0 0.07c-0.21,0.86 -0.43,1.71 -0.66,2.55l0 0 0 0c-0.08,0.31 -0.16,0.61 -0.25,0.92l-0.01 0 0 0.05c-0.08,0.29 -0.17,0.58 -0.26,0.86l-0.01 0 0 0.02c-0.44,1.49 -0.91,2.97 -1.42,4.43l-0.02 0 0 0.05 -0.12 0.34 -0.01 0 0 0.03 -0.13 0.36 -0 0 0 0.01c-0.25,0.7 -0.51,1.4 -0.78,2.09l-0.01 0 0 0.02c-0.08,0.21 -0.16,0.42 -0.24,0.63l-0.02 0 0 0.04c-0.08,0.21 -0.17,0.41 -0.25,0.61l-0.01 0 0 0.03 -0.25 0.62 -0.01 0 0 0.02c-0.25,0.61 -0.51,1.21 -0.77,1.81l-0.01 0 0 0.03c-0.13,0.3 -0.26,0.59 -0.39,0.89l-0.01 0 0 0.01 -0.11 0.25 -0.02 0 0 0.03c-0.46,1 -0.93,1.99 -1.42,2.98l-0.02 0 0 0.03 -0.11 0.23 -0.02 0 0 0.04 -0.11 0.22 -0.02 0 0 0.04 -0.11 0.22 -0.02 0 0 0.04 -0.12 0.22 -0.02 0 0 0.03 -0.12 0.23 -0.01 0 0 0.02 -0.13 0.24 -0 0 0 0.01c-0.51,0.97 -1.03,1.93 -1.57,2.88l-0.01 0 0 0.01c-0.12,0.21 -0.25,0.43 -0.37,0.64l-0.02 0 0 0.04 -0.13 0.22 -0 0 0 0c-0.13,0.22 -0.26,0.43 -0.39,0.65l-0.01 0 0 0.01c-0.26,0.43 -0.52,0.87 -0.78,1.3l-0 0 0 0.01c-0.22,0.35 -0.43,0.7 -0.65,1.04l-0.01 0 0 0.01c-0.08,0.13 -0.16,0.26 -0.24,0.39l-0.02 0 0 0.03c-0.08,0.12 -0.16,0.24 -0.24,0.36l-0.02 0 0 0.04c-0.51,0.78 -1.03,1.56 -1.56,2.32l-0.01 0 0 0.02 -0.26 0.37 -0 0 0 0.01c-0.21,0.31 -0.43,0.61 -0.64,0.91l-0.01 0 0 0.02c-0.47,0.66 -0.95,1.31 -1.44,1.95l-0 0 0 0c-0.3,0.39 -0.6,0.79 -0.9,1.18l-0.02 0 0 0.02c-0.17,0.21 -0.34,0.42 -0.51,0.63l-0.02 0 0 0.02c-0.59,0.75 -1.2,1.48 -1.81,2.21l-0.02 0 0 0.02c-0.22,0.25 -0.43,0.51 -0.65,0.76l-0.01 0 0 0.01 -0.11 0.12 -0.02 0 0 0.02c-0.77,0.88 -1.55,1.75 -2.35,2.6l-0.01 0 0 0.01 -0.11 0.12 -0.02 0 0 0.02 -0.11 0.11 -0.02 0 0 0.03 -0.1 0.11 -0.03 0 0 0.04c-1.14,1.2 -2.31,2.36 -3.51,3.5l-0.03 0 0 0.03 -0.11 0.11 -0.02 0 0 0.02 -0.12 0.11 -0.01 0 0 0.01c-0.85,0.8 -1.71,1.59 -2.59,2.35l-0.03 0 0 0.03 -0.12 0.11 -0.01 0 0 0.01c-0.3,0.26 -0.61,0.52 -0.92,0.78l0 0 0 0c-0.68,0.58 -1.37,1.15 -2.07,1.7l-0.02 0 0 0.02c-0.21,0.17 -0.42,0.34 -0.63,0.5l-0.02 0 0 0.02c-0.39,0.3 -0.78,0.6 -1.17,0.9l-0.01 0 0 0.01c-0.35,0.26 -0.69,0.52 -1.05,0.78l-0 0 0 0c-0.3,0.22 -0.59,0.44 -0.9,0.65l-0.02 0 0 0.02c-0.3,0.22 -0.6,0.43 -0.91,0.64l-0.01 0 0 0.01c-1.02,0.72 -2.06,1.41 -3.11,2.09l-0.04 0 0 0.02c-0.12,0.08 -0.25,0.16 -0.38,0.24l-0.02 0 0 0.01c-0.77,0.49 -1.55,0.96 -2.34,1.43l-0.02 0 0 0.01c-0.21,0.13 -0.43,0.25 -0.64,0.38l-0.01 0 0 0.01c-0.3,0.17 -0.6,0.35 -0.9,0.52l-0.02 0 0 0.01c-0.86,0.49 -1.74,0.97 -2.62,1.43l0 0 0 0 -0.25 0.13 -0.01 0 0 0.01 -0.24 0.12 -0.03 0 0 0.02 -0.22 0.12 -0.04 0 0 0.02 -0.21 0.11 -0.05 0 0 0.02 -0.21 0.11 -0.05 0 0 0.02c-0.69,0.35 -1.39,0.69 -2.09,1.03l-0.01 0 0 0c-0.46,0.22 -0.93,0.44 -1.39,0.65l-0.05 0 0 0.02 -0.24 0.11 -0.02 0 0 0.01c-0.39,0.17 -0.78,0.34 -1.17,0.52l-0.01 0 0 0c-0.72,0.31 -1.45,0.62 -2.18,0.91l-0.05 0 0 0.02c-0.2,0.08 -0.4,0.16 -0.59,0.24l-0.06 0 0 0.02c-0.21,0.08 -0.41,0.16 -0.62,0.24l-0.03 0 0 0.01c-0.57,0.22 -1.13,0.44 -1.7,0.64 -0.12,0.04 -0.25,0.08 -0.37,0.13l-0.02 0 0 0.01c-1.43,0.51 -2.87,0.99 -4.33,1.43 -0.29,0.09 -0.58,0.17 -0.88,0.26l-0.04 0 0 0.01c-0.29,0.08 -0.57,0.17 -0.85,0.25l-0.07 0 0 0.02c-0.3,0.08 -0.6,0.16 -0.9,0.24l-0.01 0 0 0.01c-0.84,0.23 -1.69,0.45 -2.54,0.65l-0.08 0 0 0.02c-0.15,0.04 -0.3,0.07 -0.46,0.11l-0.07 0 0 0.02 -0.49 0.12 -0.03 0 0 0.01c-0.39,0.09 -0.78,0.17 -1.18,0.26l-0.01 0 0 0c-0.64,0.14 -1.28,0.27 -1.93,0.39l-0.04 0 0 0.01c-0.22,0.04 -0.43,0.08 -0.64,0.12l-0.01 0 0 0c-0.23,0.04 -0.46,0.09 -0.69,0.13l-0.09 0 0 0.02c-0.23,0.04 -0.46,0.08 -0.7,0.12l-0.09 0 0 0.01c-0.82,0.14 -1.64,0.26 -2.47,0.38l-0.02 0 0 0.01c-0.3,0.04 -0.61,0.09 -0.91,0.13l-0.13 0 0 0.02c-0.32,0.04 -0.64,0.07 -0.96,0.11l-0.09 0 0 0.01c-0.81,0.1 -1.62,0.18 -2.44,0.25l-0.05 0 0 0.01c-0.49,0.04 -0.98,0.09 -1.47,0.12l-0.36 0 0 0.02c-2.21,0.16 -4.44,0.24 -6.68,0.24l-483.35 0c-2.25,0 -4.48,-0.08 -6.68,-0.24z"/>
  <g style="clip-path:url(#id0)">
   <g id="_3045515823376">
    <rect class="fil1" transform="matrix(0.510268 -0.510268 0.510268 0.510268 438.326 5.7107)" width="456.67" height="456.67"/>
   </g>
  </g>
  <path class="fil2" d="M87.16 670.8l0 -0.02 -0.35 0c-0.45,-0.03 -0.9,-0.07 -1.36,-0.12l0 -0.01 -0.16 0c-0.82,-0.07 -1.64,-0.16 -2.46,-0.26l0 -0.01 -0.06 0c-0.33,-0.04 -0.66,-0.07 -0.99,-0.12l0 -0.02 -0.11 0c-0.62,-0.08 -1.24,-0.17 -1.86,-0.26l0 0 -0.01 0c-0.52,-0.08 -1.04,-0.17 -1.56,-0.25l0 -0.01 -0.06 0c-0.24,-0.04 -0.49,-0.08 -0.73,-0.12l0 -0.01 -0.06 0c-0.2,-0.03 -0.4,-0.07 -0.6,-0.11l0 -0.02 -0.11 0c-0.23,-0.04 -0.45,-0.09 -0.68,-0.13l0 0 -0 0c-0.83,-0.16 -1.66,-0.33 -2.49,-0.52l0 -0.01 -0.04 0c-0.38,-0.08 -0.76,-0.17 -1.13,-0.26l0 -0.01 -0.03 0c-0.17,-0.04 -0.33,-0.08 -0.5,-0.12l0 -0.01 -0.04 0c-0.69,-0.17 -1.38,-0.34 -2.06,-0.52l0 -0 -0.01 0c-0.3,-0.08 -0.61,-0.16 -0.91,-0.25l0 -0.02 -0.06 0c-0.16,-0.04 -0.31,-0.08 -0.46,-0.13l0 -0.01 -0.02 0 -0.37 -0.11 0 -0.02 -0.07 0c-0.28,-0.08 -0.56,-0.17 -0.84,-0.25l0 -0.01 -0.04 0c-0.56,-0.17 -1.11,-0.34 -1.67,-0.52l0 -0.01 -0.03 0 -0.37 -0.12 0 -0.01 -0.04 0 -0.36 -0.12 0 -0.01 -0.05 0 -0.35 -0.11 0 -0.02 -0.06 0 -0.34 -0.11 0 -0.02 -0.06 0c-0.11,-0.04 -0.22,-0.08 -0.34,-0.12l0 -0.01 -0.03 0 -0.36 -0.13 0 -0.01 -0.01 0c-0.83,-0.29 -1.66,-0.59 -2.48,-0.91l0 -0.01 -0.03 0c-0.21,-0.08 -0.42,-0.16 -0.63,-0.24l0 -0.02 -0.06 0 -0.33 -0.13 0 -0 -0.01 0c-0.75,-0.3 -1.48,-0.6 -2.22,-0.91l0 -0 -0.01 0c-0.39,-0.17 -0.78,-0.34 -1.17,-0.52l0 -0.01 -0.02 0c-0.39,-0.17 -0.77,-0.35 -1.16,-0.52l0 -0.01 -0.01 0 -0.25 -0.12 0 -0.01 -0.03 0c-2.18,-1.01 -4.31,-2.1 -6.39,-3.27l0 -0.01 -0.02 0c-0.3,-0.17 -0.6,-0.33 -0.9,-0.5l0 -0.02 -0.04 0c-0.3,-0.17 -0.59,-0.35 -0.88,-0.52l0 -0 -0.01 0c-0.79,-0.47 -1.58,-0.95 -2.35,-1.43l0 -0.01 -0.01 0c-0.13,-0.08 -0.26,-0.16 -0.38,-0.24l0 -0.02 -0.04 0c-0.6,-0.39 -1.2,-0.78 -1.8,-1.18l0 0 0 0 -0.39 -0.26c-0.44,-0.3 -0.87,-0.6 -1.31,-0.91l0 -0.01 -0.01 0c-0.3,-0.21 -0.6,-0.43 -0.91,-0.64l0 -0.01 -0.01 0c-0.48,-0.34 -0.96,-0.69 -1.43,-1.05l0 0 -0 0c-0.4,-0.3 -0.78,-0.6 -1.18,-0.9l0 -0.02 -0.02 0c-0.17,-0.13 -0.34,-0.26 -0.5,-0.39l0 -0.01 -0.01 0 -0.12 -0.1 0 -0.03 -0.04 0c-0.16,-0.13 -0.32,-0.26 -0.49,-0.39l0 -0 -0 0c-0.48,-0.39 -0.96,-0.78 -1.44,-1.17l0 -0.01 -0.01 0c-0.31,-0.26 -0.61,-0.51 -0.91,-0.77l0 -0.02 -0.02 0c-0.3,-0.26 -0.6,-0.52 -0.9,-0.78l0 -0.01 -0.01 0 -0.12 -0.11 0 -0.02 -0.02 0c-1.01,-0.9 -2.01,-1.81 -2.99,-2.75l0 0 0 0 -0.13 -0.13 0 -0.01 -0.01 0 -0.13 -0.12 0 -0.01 -0.01 0 -0.12 -0.12 0 -0.01 -0.01 0 -0.12 -0.12 0 -0.02 -0.02 0c-0.52,-0.51 -1.04,-1.03 -1.56,-1.56l0 -0.02 -0.02 0 -0.12 -0.12 0 -0.01 -0.01 0 -0.12 -0.12 0 -0.01 -0.01 0 -0.12 -0.13 0 -0.01 -0.01 0 -0.13 -0.13 0 0 0 0c-0.94,-0.98 -1.85,-1.98 -2.75,-2.99l0 -0.02 -0.02 0 -0.11 -0.12 0 -0.01 -0.01 0c-0.26,-0.3 -0.52,-0.6 -0.78,-0.9l0 -0.02 -0.02 0c-0.26,-0.3 -0.52,-0.6 -0.77,-0.91l0 -0.01 -0.01 0c-0.4,-0.47 -0.78,-0.96 -1.17,-1.44l0 -0 -0 0c-0.13,-0.16 -0.26,-0.32 -0.39,-0.49l0 -0.04 -0.03 0 -0.1 -0.12 0 -0.01 -0.01 0c-0.13,-0.17 -0.26,-0.34 -0.39,-0.5l0 -0.02 -0.02 0c-0.3,-0.39 -0.6,-0.78 -0.9,-1.18l0 -0 0 0c-0.35,-0.47 -0.7,-0.95 -1.05,-1.43l0 -0.01 -0.01 0c-0.22,-0.3 -0.43,-0.6 -0.64,-0.91l0 -0.01 -0.01 0c-0.3,-0.44 -0.61,-0.87 -0.91,-1.31 -0.09,-0.13 -0.17,-0.26 -0.26,-0.39l0 0 0 0c-0.4,-0.59 -0.79,-1.19 -1.18,-1.8l0 -0.04 -0.02 0c-0.08,-0.13 -0.16,-0.26 -0.24,-0.38l0 -0.01 -0.01 0c-0.49,-0.78 -0.97,-1.56 -1.43,-2.35l0 -0.01 -0 0c-0.17,-0.29 -0.35,-0.58 -0.52,-0.88l0 -0.04 -0.02 0c-0.17,-0.3 -0.34,-0.6 -0.5,-0.9l0 -0.02 -0.01 0c-1.17,-2.08 -2.26,-4.22 -3.27,-6.39l0 -0.03 -0.01 0 -0.12 -0.25 0 -0.01 -0.01 0c-0.17,-0.38 -0.35,-0.77 -0.52,-1.16l0 -0.02 -0.01 0c-0.17,-0.39 -0.35,-0.78 -0.52,-1.17l0 -0.01 -0 0c-0.31,-0.74 -0.62,-1.48 -0.91,-2.22l0 -0.01 -0 0 -0.13 -0.33 0 -0.06 -0.02 0c-0.08,-0.21 -0.16,-0.42 -0.24,-0.63l0 -0.03 -0.01 0c-0.31,-0.82 -0.62,-1.65 -0.91,-2.48l0 -0.01 -0.01 0 -0.13 -0.36 0 -0.03 -0.01 0c-0.04,-0.11 -0.08,-0.22 -0.12,-0.34l0 -0.06 -0.02 0 -0.11 -0.34 0 -0.06 -0.02 0c-0.04,-0.12 -0.07,-0.23 -0.11,-0.35l0 -0.04 -0.01 0 -0.12 -0.36 0 -0.04 -0.01 0 -0.12 -0.37 0 -0.03 -0.01 0c-0.18,-0.55 -0.35,-1.11 -0.52,-1.67l0 -0.04 -0.01 0c-0.08,-0.28 -0.17,-0.56 -0.25,-0.84l0 -0.07 -0.02 0 -0.11 -0.38 0 -0.02 -0.01 0c-0.04,-0.15 -0.08,-0.31 -0.13,-0.46l0 -0.06 -0.02 0c-0.08,-0.3 -0.16,-0.6 -0.25,-0.91l0 -0.01 -0 0c-0.18,-0.68 -0.35,-1.37 -0.52,-2.06l0 -0.04 -0.01 0c-0.04,-0.17 -0.08,-0.33 -0.12,-0.5l0 -0.03 -0.01 0c-0.09,-0.38 -0.17,-0.76 -0.26,-1.13l0 -0.04 -0.01 0c-0.18,-0.82 -0.35,-1.66 -0.52,-2.49l0 -0 0 0c-0.04,-0.23 -0.09,-0.45 -0.13,-0.68l0 -0.11 -0.02 0c-0.04,-0.2 -0.08,-0.4 -0.11,-0.6l0 -0.06 -0.01 0c-0.04,-0.24 -0.08,-0.49 -0.12,-0.73l0 -0.06 -0.01 0c-0.09,-0.52 -0.17,-1.04 -0.25,-1.56l0 -0.01 0 0c-0.1,-0.62 -0.18,-1.24 -0.26,-1.86l0 -0.11 -0.02 0c-0.04,-0.33 -0.08,-0.66 -0.12,-0.99l0 -0.06 -0.01 0c-0.1,-0.82 -0.18,-1.64 -0.26,-2.46l0 -0.16 -0.01 0c-0.04,-0.45 -0.08,-0.9 -0.12,-1.36l0 -0.35 -0.02 0c-0.16,-2.21 -0.24,-4.44 -0.24,-6.68l0 -483.35c0,-2.25 0.08,-4.48 0.24,-6.68l0.02 0 0 -0.35c0.03,-0.45 0.07,-0.9 0.12,-1.36l0.01 0 0 -0.16c0.07,-0.82 0.16,-1.64 0.26,-2.46l0.01 0 0 -0.06c0.04,-0.33 0.07,-0.66 0.12,-0.99l0.02 0 0 -0.11c0.08,-0.62 0.17,-1.24 0.26,-1.86l0 0 0 -0.01c0.08,-0.52 0.17,-1.04 0.25,-1.56l0.01 0 0 -0.06c0.04,-0.24 0.08,-0.49 0.12,-0.73l0.01 0 0 -0.06c0.03,-0.2 0.07,-0.4 0.11,-0.59l0.02 0 0 -0.11c0.04,-0.23 0.09,-0.45 0.13,-0.68l0 0 0 -0c0.16,-0.83 0.33,-1.66 0.52,-2.49l0.01 0 0 -0.04c0.08,-0.38 0.17,-0.76 0.26,-1.14l0.01 0 0 -0.03c0.04,-0.17 0.08,-0.33 0.12,-0.5l0.01 0 0 -0.04c0.17,-0.69 0.34,-1.38 0.52,-2.06l0 0 0 -0.01c0.08,-0.3 0.16,-0.6 0.25,-0.91l0.02 0 0 -0.06c0.04,-0.16 0.08,-0.31 0.13,-0.46l0.01 0 0 -0.02 0.11 -0.38 0.02 0 0 -0.07c0.08,-0.28 0.17,-0.56 0.25,-0.84l0.01 0 0 -0.04c0.17,-0.56 0.34,-1.11 0.52,-1.67l0.01 0 0 -0.03 0.12 -0.37 0.01 0 0 -0.04 0.12 -0.36 0.01 0 0 -0.04 0.11 -0.35 0.02 0 0 -0.06 0.11 -0.34 0.02 0 0 -0.06c0.04,-0.11 0.08,-0.22 0.12,-0.34l0.01 0 0 -0.03 0.13 -0.36 0.01 0 0 -0.01c0.29,-0.83 0.59,-1.66 0.91,-2.48l0.01 0 0 -0.03c0.08,-0.21 0.16,-0.42 0.24,-0.63l0.02 0 0 -0.06 0.13 -0.33 0 0 0 -0.01c0.3,-0.75 0.6,-1.48 0.91,-2.22l0 0 0 -0.01c0.17,-0.39 0.34,-0.78 0.52,-1.17l0.01 0 0 -0.02c0.17,-0.39 0.34,-0.77 0.52,-1.16l0.01 0 0 -0.01 0.12 -0.25 0.01 0 0 -0.03c1.01,-2.18 2.1,-4.31 3.27,-6.4l0.01 0 0 -0.02c0.17,-0.3 0.33,-0.6 0.5,-0.9l0.02 0 0 -0.04c0.17,-0.3 0.35,-0.59 0.52,-0.88l0 0 0 -0.01c0.47,-0.79 0.95,-1.58 1.43,-2.35l0.01 0 0 -0.01c0.08,-0.13 0.16,-0.26 0.24,-0.38l0.02 0 0 -0.04c0.39,-0.6 0.78,-1.2 1.18,-1.8l0 0 0 0 0.26 -0.39 0 0 0 -0c0.3,-0.44 0.6,-0.87 0.91,-1.31l0.01 0 0 -0.01c0.21,-0.3 0.43,-0.6 0.64,-0.91l0.01 0 0 -0.01c0.34,-0.48 0.69,-0.96 1.05,-1.43l0 0 0 -0c0.3,-0.39 0.6,-0.78 0.9,-1.18l0.02 0 0 -0.02c0.13,-0.17 0.26,-0.34 0.39,-0.5l0.01 0 0 -0.01 0.1 -0.12 0.03 0 0 -0.04c0.13,-0.16 0.26,-0.32 0.39,-0.48l0 0 0 -0c0.39,-0.48 0.78,-0.96 1.18,-1.44l0 0 0 -0.01c0.26,-0.3 0.51,-0.61 0.77,-0.91l0.02 0 0 -0.02c0.26,-0.3 0.52,-0.6 0.78,-0.9l0.01 0 0 -0.01 0.11 -0.12 0.02 0 0 -0.02c0.9,-1.02 1.81,-2.02 2.75,-2.99l0 0 0 -0 0.13 -0.13 0.01 0 0 -0.01 0.12 -0.13 0.01 0 0 -0.01 0.12 -0.12 0.01 0 0 -0.01 0.12 -0.12 0.02 0 0 -0.01c0.51,-0.53 1.03,-1.05 1.56,-1.56l0.01 0 0 -0.01 0.12 -0.12 0.01 0 0 -0.01 0.12 -0.12 0.01 0 0 -0.01 0.13 -0.12 0.01 0 0 -0.01 0.13 -0.13 0 0 0 0c0.98,-0.94 1.98,-1.85 2.99,-2.75l0.02 0 0 -0.02 0.12 -0.11 0.01 0 0 -0.01c0.3,-0.26 0.6,-0.52 0.9,-0.78l0.02 0 0 -0.02c0.3,-0.26 0.6,-0.52 0.91,-0.77l0.01 0 0 -0.01c0.47,-0.4 0.95,-0.79 1.44,-1.18l0 0 0 0c0.16,-0.13 0.32,-0.26 0.49,-0.39l0.04 0 0 -0.03 0.12 -0.1 0.01 0 0 -0.01c0.17,-0.13 0.34,-0.26 0.5,-0.39l0.02 0 0 -0.02c0.39,-0.3 0.78,-0.6 1.18,-0.9l0 0 0 -0c0.47,-0.35 0.95,-0.7 1.43,-1.05l0.01 0 0 -0.01c0.3,-0.22 0.6,-0.43 0.91,-0.64l0.01 0 0 -0.01c0.56,-0.4 1.13,-0.79 1.7,-1.17l0 0 0 0c0.59,-0.4 1.19,-0.79 1.8,-1.18l0.04 0 0 -0.02c0.13,-0.08 0.26,-0.16 0.38,-0.24l0.01 0 0 -0.01c0.78,-0.49 1.56,-0.97 2.35,-1.43l0.01 0 0 -0c0.29,-0.17 0.58,-0.35 0.88,-0.52l0.04 0 0 -0.02c0.3,-0.17 0.6,-0.34 0.9,-0.5l0.02 0 0 -0.01c2.08,-1.17 4.22,-2.26 6.39,-3.27l0.03 0 0 -0.01 0.25 -0.12 0.01 0 0 -0c0.38,-0.18 0.77,-0.35 1.16,-0.52l0.02 0 0 -0.01c0.39,-0.17 0.78,-0.35 1.17,-0.52l0.01 0 0 -0c0.74,-0.31 1.48,-0.62 2.22,-0.91l0.01 0 0 -0 0.33 -0.13 0.06 0 0 -0.02c0.21,-0.08 0.42,-0.16 0.63,-0.24l0.03 0 0 -0.01c0.82,-0.31 1.65,-0.62 2.48,-0.91l0.01 0 0 -0.01 0.36 -0.13 0.03 0 0 -0.01c0.11,-0.04 0.22,-0.08 0.34,-0.12l0.06 0 0 -0.02 0.34 -0.11 0.06 0 0 -0.02c0.12,-0.04 0.23,-0.07 0.35,-0.11l0.05 0 0 -0.02 0.36 -0.12 0.04 0 0 -0.01 0.37 -0.12 0.03 0 0 -0.01c0.55,-0.18 1.11,-0.35 1.67,-0.52l0.04 0 0 -0.01c0.28,-0.08 0.56,-0.17 0.84,-0.25l0.07 0 0 -0.02 0.37 -0.11 0.02 0 0 -0.01c0.15,-0.04 0.31,-0.08 0.46,-0.13l0.06 0 0 -0.02c0.3,-0.08 0.6,-0.16 0.91,-0.25l0.01 0 0 -0c0.68,-0.18 1.37,-0.35 2.06,-0.52l0.04 0 0 -0.01c0.17,-0.04 0.33,-0.08 0.5,-0.12l0.03 0 0 -0.01c0.38,-0.09 0.76,-0.17 1.13,-0.26l0.04 0 0 -0.01c0.82,-0.18 1.66,-0.35 2.49,-0.51l0 0 0 -0c0.23,-0.04 0.45,-0.09 0.68,-0.13l0.11 0 0 -0.02c0.2,-0.04 0.4,-0.07 0.6,-0.11l0.06 0 0 -0.01c0.24,-0.04 0.49,-0.08 0.73,-0.12l0.06 0 0 -0.01c0.52,-0.09 1.04,-0.17 1.56,-0.25l0.01 0 0 0c0.62,-0.09 1.24,-0.18 1.86,-0.26l0.11 0 0 -0.01c0.33,-0.04 0.66,-0.08 0.99,-0.12l0.06 0 0 -0.01c0.81,-0.1 1.64,-0.18 2.46,-0.26l0.16 0 0 -0.01c0.45,-0.04 0.91,-0.08 1.36,-0.12l0.34 0 0 -0.02c2.21,-0.16 4.44,-0.24 6.68,-0.24l483.35 0c2.25,0 4.48,0.08 6.68,0.24l0 0.02 0.34 0c0.46,0.03 0.91,0.08 1.36,0.12l0 0.01 0.16 0c0.82,0.08 1.64,0.16 2.46,0.26l0 0.01 0.06 0c0.33,0.04 0.66,0.07 0.99,0.12l0 0.01 0.11 0c0.62,0.08 1.24,0.17 1.86,0.26l0 0 0.01 0c0.52,0.08 1.04,0.17 1.56,0.25l0 0.01 0.06 0c0.24,0.04 0.49,0.08 0.73,0.12l0 0.01 0.06 0c0.2,0.04 0.4,0.07 0.6,0.11l0 0.02 0.11 0c0.23,0.04 0.45,0.09 0.68,0.13l0 0 0 0c0.83,0.16 1.66,0.33 2.49,0.51l0 0.01 0.04 0c0.38,0.08 0.76,0.17 1.14,0.26l0 0.01 0.03 0c0.17,0.04 0.33,0.08 0.5,0.12l0 0.01 0.04 0c0.69,0.17 1.38,0.34 2.06,0.52l0 0 0.01 0c0.3,0.08 0.61,0.16 0.91,0.25l0 0.02 0.06 0c0.15,0.04 0.31,0.08 0.46,0.13l0 0.01 0.02 0 0.38 0.11 0 0.02 0.07 0c0.28,0.08 0.56,0.17 0.84,0.25l0 0.01 0.04 0c0.56,0.17 1.11,0.34 1.67,0.52l0 0.01 0.03 0 0.37 0.12 0 0.01 0.03 0 0.36 0.12 0 0.02 0.04 0 0.35 0.11 0 0.02 0.06 0 0.34 0.11 0 0.02 0.06 0c0.11,0.04 0.22,0.08 0.34,0.12l0 0.01 0.03 0 0.36 0.13 0 0.01 0.01 0c0.83,0.29 1.66,0.59 2.48,0.91l0 0.01 0.03 0c0.21,0.08 0.42,0.16 0.63,0.24l0 0.02 0.06 0 0.33 0.13 0 0 0.01 0c0.75,0.3 1.48,0.6 2.22,0.91l0 0 0.01 0c0.39,0.17 0.78,0.34 1.17,0.52l0 0.01 0.02 0c0.39,0.17 0.77,0.34 1.16,0.52l0 0.01 0.01 0 0.25 0.12 0 0.01 0.03 0c2.18,1.01 4.31,2.1 6.4,3.27l0 0.01 0.02 0c0.3,0.17 0.6,0.33 0.9,0.5l0 0.02 0.04 0c0.3,0.17 0.59,0.35 0.88,0.52l0 0 0.01 0c0.79,0.47 1.58,0.95 2.35,1.43l0 0.01 0.01 0c0.13,0.08 0.26,0.16 0.38,0.24l0 0.02 0.04 0c0.6,0.39 1.2,0.78 1.8,1.18l0 0 0 0c0.57,0.39 1.14,0.78 1.7,1.17l0 0.01 0.01 0c0.3,0.21 0.6,0.43 0.91,0.64l0 0.01 0.01 0c0.48,0.35 0.96,0.69 1.43,1.05l0 0 0.01 0c0.39,0.3 0.78,0.6 1.18,0.9l0 0.02 0.02 0c0.17,0.13 0.34,0.26 0.5,0.39l0 0.01 0.01 0 0.12 0.1 0 0.03 0.04 0c0.16,0.13 0.32,0.26 0.48,0.39l0 0 0 0c0.48,0.39 0.96,0.78 1.44,1.18l0 0.01 0.01 0c0.3,0.25 0.61,0.51 0.91,0.77l0 0.02 0.02 0c0.3,0.26 0.6,0.52 0.9,0.78l0 0.01 0.01 0 0.12 0.11 0 0.02 0.02 0c1.02,0.9 2.02,1.81 2.99,2.75l0 0 0 0 0.13 0.13 0 0.01 0.01 0 0.13 0.12 0 0.01 0.01 0 0.12 0.12 0 0.01 0.01 0 0.12 0.12 0 0.01 0.01 0c0.53,0.51 1.05,1.03 1.56,1.56l0 0.01 0.01 0 0.12 0.12 0 0.01 0.01 0 0.12 0.12 0 0.01 0.01 0 0.12 0.13 0 0.01 0.01 0 0.13 0.13 0 0 0 0c0.94,0.97 1.85,1.97 2.75,2.99l0 0.02 0.02 0 0.11 0.12 0 0.01 0.01 0c0.26,0.3 0.52,0.6 0.78,0.9l0 0.02 0.02 0c0.26,0.3 0.52,0.6 0.77,0.91l0 0.01 0.01 0c0.4,0.48 0.79,0.96 1.18,1.44l0 0 0 0c0.13,0.16 0.26,0.32 0.39,0.48l0 0.04 0.03 0 0.1 0.12 0 0.01 0.01 0c0.13,0.17 0.26,0.34 0.39,0.5l0 0.02 0.02 0c0.3,0.39 0.6,0.78 0.9,1.18l0 0 0 0c0.35,0.47 0.7,0.95 1.05,1.43l0 0.01 0.01 0c0.22,0.3 0.43,0.6 0.64,0.91l0 0.01 0.01 0c0.4,0.57 0.79,1.13 1.17,1.7l0 0 0 0c0.4,0.6 0.79,1.2 1.18,1.8l0 0.04 0.02 0c0.08,0.13 0.16,0.26 0.24,0.38l0 0.01 0.01 0c0.49,0.78 0.97,1.56 1.44,2.35l0 0.01 0 0c0.17,0.29 0.35,0.58 0.52,0.88l0 0.04 0.02 0c0.17,0.3 0.34,0.6 0.5,0.9l0 0.02 0.01 0c1.17,2.08 2.26,4.22 3.27,6.4l0 0.03 0.01 0 0.12 0.25 0 0.01 0 0c0.18,0.39 0.35,0.77 0.52,1.16l0 0.02 0.01 0c0.17,0.39 0.35,0.78 0.52,1.17l0 0.01 0 0c0.31,0.74 0.62,1.48 0.91,2.22l0 0.01 0 0 0.13 0.33 0 0.06 0.02 0c0.08,0.21 0.16,0.42 0.24,0.63l0 0.03 0.01 0c0.31,0.82 0.62,1.65 0.91,2.48l0 0.01 0.01 0 0.13 0.36 0 0.03 0.01 0c0.04,0.11 0.08,0.22 0.12,0.34l0 0.06 0.02 0 0.11 0.34 0 0.06 0.02 0c0.04,0.11 0.07,0.23 0.11,0.35l0 0.04 0.02 0 0.12 0.36 0 0.04 0.01 0 0.12 0.37 0 0.03 0.01 0c0.18,0.55 0.35,1.11 0.52,1.67l0 0.04 0.01 0c0.08,0.28 0.17,0.56 0.25,0.84l0 0.07 0.02 0 0.11 0.38 0 0.02 0.01 0c0.04,0.15 0.08,0.31 0.12,0.46l0 0.06 0.02 0c0.08,0.3 0.16,0.61 0.25,0.91l0 0.01 0 0c0.18,0.68 0.35,1.37 0.52,2.06l0 0.04 0.01 0c0.04,0.17 0.08,0.33 0.12,0.5l0 0.03 0.01 0c0.09,0.38 0.17,0.76 0.26,1.14l0 0.04 0.01 0c0.18,0.83 0.35,1.66 0.51,2.49l0 0 0 0c0.04,0.23 0.09,0.45 0.13,0.68l0 0.11 0.02 0c0.04,0.2 0.07,0.4 0.11,0.6l0 0.06 0.01 0c0.04,0.24 0.08,0.49 0.12,0.73l0 0.06 0.01 0c0.09,0.52 0.17,1.04 0.25,1.56l0 0.01 0 0c0.09,0.62 0.18,1.24 0.26,1.86l0 0.11 0.01 0c0.04,0.33 0.08,0.66 0.12,0.99l0 0.06 0.01 0c0.1,0.82 0.18,1.64 0.26,2.46l0 0.16 0.01 0c0.04,0.45 0.08,0.91 0.12,1.36l0 0.34 0.02 0c0.16,2.21 0.24,4.44 0.24,6.68l0 483.35c0,2.25 -0.08,4.48 -0.24,6.68l-0.02 0 0 0.35c-0.04,0.49 -0.08,0.99 -0.13,1.48l-0 0 0 0.04c-0.07,0.82 -0.16,1.63 -0.25,2.44l-0.01 0 0 0.08c-0.04,0.32 -0.07,0.65 -0.11,0.97l-0.02 0 0 0.12c-0.04,0.31 -0.09,0.62 -0.13,0.93l-0 0 0 0.01c-0.12,0.83 -0.24,1.66 -0.38,2.48l-0.01 0 0 0.08c-0.04,0.24 -0.08,0.47 -0.12,0.71l-0.01 0 0 0.08c-0.08,0.46 -0.17,0.91 -0.26,1.36l-0.01 0 0 0.03c-0.16,0.83 -0.33,1.65 -0.51,2.46l-0.02 0 0 0.07c-0.04,0.2 -0.08,0.39 -0.13,0.58l-0.01 0 0 0.02 -0.12 0.5 -0.01 0 0 0.06c-0.04,0.16 -0.08,0.31 -0.12,0.47l-0.02 0 0 0.07c-0.21,0.86 -0.43,1.71 -0.66,2.55l0 0 0 0c-0.08,0.31 -0.16,0.61 -0.25,0.92l-0.01 0 0 0.05c-0.08,0.29 -0.17,0.58 -0.26,0.86l-0.01 0 0 0.02c-0.44,1.49 -0.91,2.97 -1.42,4.43l-0.02 0 0 0.05 -0.12 0.34 -0.01 0 0 0.03 -0.13 0.36 -0 0 0 0.01c-0.25,0.7 -0.51,1.4 -0.78,2.09l-0.01 0 0 0.02c-0.08,0.21 -0.16,0.42 -0.24,0.63l-0.02 0 0 0.04c-0.08,0.21 -0.17,0.41 -0.25,0.61l-0.01 0 0 0.03 -0.25 0.62 -0.01 0 0 0.02c-0.25,0.61 -0.51,1.21 -0.77,1.81l-0.01 0 0 0.03c-0.13,0.3 -0.26,0.59 -0.39,0.89l-0.01 0 0 0.01 -0.11 0.25 -0.02 0 0 0.03c-0.46,1 -0.93,1.99 -1.42,2.98l-0.02 0 0 0.03 -0.11 0.23 -0.02 0 0 0.04 -0.11 0.22 -0.02 0 0 0.04 -0.11 0.22 -0.02 0 0 0.04 -0.12 0.22 -0.02 0 0 0.03 -0.12 0.23 -0.01 0 0 0.02 -0.13 0.24 -0 0 0 0.01c-0.51,0.97 -1.03,1.93 -1.57,2.88l-0.01 0 0 0.01c-0.12,0.21 -0.25,0.43 -0.37,0.64l-0.02 0 0 0.04 -0.13 0.22 -0 0 0 0c-0.13,0.22 -0.26,0.43 -0.39,0.65l-0.01 0 0 0.01c-0.26,0.43 -0.52,0.87 -0.78,1.3l-0 0 0 0.01c-0.22,0.35 -0.43,0.7 -0.65,1.04l-0.01 0 0 0.01c-0.08,0.13 -0.16,0.26 -0.24,0.39l-0.02 0 0 0.03c-0.08,0.12 -0.16,0.24 -0.24,0.36l-0.02 0 0 0.04c-0.51,0.78 -1.03,1.56 -1.56,2.32l-0.01 0 0 0.02 -0.26 0.37 -0 0 0 0.01c-0.21,0.31 -0.43,0.61 -0.64,0.91l-0.01 0 0 0.02c-0.47,0.66 -0.95,1.31 -1.44,1.95l-0 0 0 0c-0.3,0.39 -0.6,0.79 -0.9,1.18l-0.02 0 0 0.02c-0.17,0.21 -0.34,0.42 -0.51,0.63l-0.02 0 0 0.02c-0.59,0.75 -1.2,1.48 -1.81,2.21l-0.02 0 0 0.02c-0.22,0.25 -0.43,0.51 -0.65,0.76l-0.01 0 0 0.01 -0.11 0.12 -0.02 0 0 0.02c-0.77,0.88 -1.55,1.75 -2.35,2.6l-0.01 0 0 0.01 -0.11 0.12 -0.02 0 0 0.02 -0.11 0.11 -0.02 0 0 0.03 -0.1 0.11 -0.03 0 0 0.04c-1.14,1.2 -2.31,2.36 -3.51,3.5l-0.03 0 0 0.03 -0.11 0.11 -0.02 0 0 0.02 -0.12 0.11 -0.01 0 0 0.01c-0.85,0.8 -1.71,1.59 -2.59,2.35l-0.03 0 0 0.03 -0.12 0.11 -0.01 0 0 0.01c-0.3,0.26 -0.61,0.52 -0.92,0.78l0 0 0 0c-0.68,0.58 -1.37,1.15 -2.07,1.7l-0.02 0 0 0.02c-0.21,0.17 -0.42,0.34 -0.63,0.5l-0.02 0 0 0.02c-0.39,0.3 -0.78,0.6 -1.17,0.9l-0.01 0 0 0.01c-0.35,0.26 -0.69,0.52 -1.05,0.78l-0 0 0 0c-0.3,0.22 -0.59,0.44 -0.9,0.65l-0.02 0 0 0.02c-0.3,0.22 -0.6,0.43 -0.91,0.64l-0.01 0 0 0.01c-1.02,0.72 -2.06,1.41 -3.11,2.09l-0.04 0 0 0.02c-0.12,0.08 -0.25,0.16 -0.38,0.24l-0.02 0 0 0.01c-0.77,0.49 -1.55,0.96 -2.34,1.43l-0.02 0 0 0.01c-0.21,0.13 -0.43,0.25 -0.64,0.38l-0.01 0 0 0.01c-0.3,0.17 -0.6,0.35 -0.9,0.52l-0.02 0 0 0.01c-0.86,0.49 -1.74,0.97 -2.62,1.43l0 0 0 0 -0.25 0.13 -0.01 0 0 0.01 -0.24 0.12 -0.03 0 0 0.02 -0.22 0.12 -0.04 0 0 0.02 -0.21 0.11 -0.05 0 0 0.02 -0.21 0.11 -0.05 0 0 0.02c-0.69,0.35 -1.39,0.69 -2.09,1.03l-0.01 0 0 0c-0.46,0.22 -0.93,0.44 -1.39,0.65l-0.05 0 0 0.02 -0.24 0.11 -0.02 0 0 0.01c-0.39,0.17 -0.78,0.34 -1.17,0.52l-0.01 0 0 0c-0.72,0.31 -1.45,0.62 -2.18,0.91l-0.05 0 0 0.02c-0.2,0.08 -0.4,0.16 -0.59,0.24l-0.06 0 0 0.02c-0.21,0.08 -0.41,0.16 -0.62,0.24l-0.03 0 0 0.01c-0.57,0.22 -1.13,0.44 -1.7,0.64 -0.12,0.04 -0.25,0.08 -0.37,0.13l-0.02 0 0 0.01c-1.43,0.51 -2.87,0.99 -4.33,1.43 -0.29,0.09 -0.58,0.17 -0.88,0.26l-0.04 0 0 0.01c-0.29,0.08 -0.57,0.17 -0.85,0.25l-0.07 0 0 0.02c-0.3,0.08 -0.6,0.16 -0.9,0.24l-0.01 0 0 0.01c-0.84,0.23 -1.69,0.45 -2.54,0.65l-0.08 0 0 0.02c-0.15,0.04 -0.3,0.07 -0.46,0.11l-0.07 0 0 0.02 -0.49 0.12 -0.03 0 0 0.01c-0.39,0.09 -0.78,0.17 -1.18,0.26l-0.01 0 0 0c-0.64,0.14 -1.28,0.27 -1.93,0.39l-0.04 0 0 0.01c-0.22,0.04 -0.43,0.08 -0.64,0.12l-0.01 0 0 0c-0.23,0.04 -0.46,0.09 -0.69,0.13l-0.09 0 0 0.02c-0.23,0.04 -0.46,0.08 -0.7,0.12l-0.09 0 0 0.01c-0.82,0.14 -1.64,0.26 -2.47,0.38l-0.02 0 0 0.01c-0.3,0.04 -0.61,0.09 -0.91,0.13l-0.13 0 0 0.02c-0.32,0.04 -0.64,0.07 -0.96,0.11l-0.09 0 0 0.01c-0.81,0.1 -1.62,0.18 -2.44,0.25l-0.05 0 0 0.01c-0.49,0.04 -0.98,0.09 -1.47,0.12l-0.36 0 0 0.02c-2.21,0.16 -4.44,0.24 -6.68,0.24l-483.35 0c-2.25,0 -4.48,-0.08 -6.68,-0.24z"/>
  <g id="_3045515821072">
   <path class="fil3 str0" d="M166.74 509.56c-3,0 -5.44,-2.44 -5.44,-5.44l0 -70.45c0,-16 10.22,-29.89 25.55,-34.56l68.33 -24.56 9.44 -23.78c1.11,-2.78 4.22,-4.22 7.11,-3.11 2.78,1.11 4.11,4.22 3.11,7.11l-10.33 26.11c-0.55,1.45 -1.78,2.56 -3.22,3.11l-70.78 25.45c-0.11,0 -0.22,0.11 -0.22,0.11 -10.56,3.22 -18,13.11 -18,24.11l0 70.45c-0.11,3 -2.55,5.44 -5.56,5.44z"/>
   <path class="fil3 str0" d="M417.3 509.56l-250.56 0c-3,0 -5.44,-2.44 -5.44,-5.44 0,-3 2.44,-5.44 5.44,-5.44l245.12 0 0 -65c0,-11 -7.33,-21 -18,-24.11 -0.11,0 -0.22,-0.11 -0.22,-0.11l-70.78 -25.45c-1.45,-0.55 -2.67,-1.67 -3.22,-3.11l-10.33 -26.11c-1.11,-2.78 0.22,-6 3.11,-7.11 2.78,-1.11 6,0.22 7.11,3.11l9.44 23.78 68.33 24.56c15.33,4.67 25.56,18.56 25.56,34.56l0 70.45c-0.11,3 -2.56,5.44 -5.56,5.44z"/>
   <path class="fil3 str0" d="M292.08 362.56c-33,0 -59.89,-26.89 -59.89,-59.89l0 -38.44c0,-3 2.44,-5.44 5.44,-5.44 3,0 5.44,2.44 5.44,5.44l0 38.44c0,27 22,49 49,49 27,0 49,-22 49,-49l0 -38.44c0,-3 2.45,-5.44 5.44,-5.44 3,0 5.44,2.44 5.44,5.44l0 38.44c0,33 -26.89,59.89 -59.89,59.89z"/>
   <path class="fil3 str0" d="M237.63 269.67c-3,0 -5.44,-2.45 -5.44,-5.44l0 -16c0,-13.11 4.22,-25.67 12.11,-36.11 7.67,-10.11 18.56,-17.67 30.56,-21.33 2.89,-0.89 5.89,0.78 6.78,3.67 0.89,2.89 -0.78,5.89 -3.67,6.78 -20.56,6.11 -34.89,25.44 -34.89,46.89l0 16c0,3.11 -2.45,5.56 -5.44,5.56z"/>
   <path class="fil3 str0" d="M346.52 269.67c-3,0 -5.44,-2.45 -5.44,-5.44l0 -16c0,-13.11 -5.11,-25.44 -14.33,-34.67 -5.78,-5.78 -12.89,-10 -20.56,-12.33 -2.89,-0.89 -4.55,-3.89 -3.67,-6.78 0.89,-2.89 3.89,-4.55 6.78,-3.67 9.44,2.78 18.11,8 25.11,15 11.33,11.33 17.56,26.33 17.56,42.33l0 16c0,3.11 -2.44,5.56 -5.44,5.56z"/>
   <path class="fil3 str0" d="M302.96 248.22c-0.22,0 -0.33,0 -0.55,0 -3,-0.33 -5.22,-3 -4.89,-6l4.89 -48.44 -20.67 0 4.89 48.44c0.33,3 -1.89,5.67 -4.89,6 -3,0.34 -5.67,-1.89 -6,-4.89l-5.44 -54.45c-0.11,-1.56 0.33,-3 1.33,-4.22 1,-1.11 2.44,-1.78 4,-1.78l32.67 0c1.56,0 3,0.67 4,1.78 1,1.11 1.56,2.67 1.33,4.22l-5.44 54.45c-0.11,2.78 -2.44,4.89 -5.22,4.89z"/>
   <path class="fil3 str0" d="M292.08 397.89c-13.23,0 -26.45,-5 -36.56,-15.11 -2.11,-2.11 -2.11,-5.55 0,-7.67 2.11,-2.11 5.56,-2.11 7.67,0 7.67,7.67 17.89,11.89 28.78,11.89 10.89,0 21.11,-4.22 28.78,-11.89 2.11,-2.11 5.56,-2.11 7.67,0 2.11,2.11 2.11,5.56 0,7.67 -9.89,10.11 -23.11,15.11 -36.33,15.11z"/>
   <path class="fil3 str0" d="M362.74 270l-141.56 0c-3,0 -5.44,-2.44 -5.44,-5.44 0,-3 2.45,-5.44 5.44,-5.44l141.56 0c3,0 5.44,2.44 5.44,5.44 0,3 -2.45,5.44 -5.44,5.44z"/>
   <path class="fil3 str0" d="M346.41 444.23c-3,0 -5.44,-2.44 -5.44,-5.44l0 -52.11c0,-3 2.45,-5.44 5.44,-5.44 3,0 5.44,2.44 5.44,5.44l0 52.11c0,3 -2.44,5.44 -5.44,5.44z"/>
   <path class="fil3 str0" d="M368.19 444.23c-3,0 -5.44,-2.44 -5.44,-5.44l0 -44.22c0,-3 2.44,-5.44 5.44,-5.44 3,0 5.44,2.44 5.44,5.44l0 44.22c0,3 -2.45,5.44 -5.44,5.44z"/>
   <path class="fil3 str0" d="M215.74 444.23c-3,0 -5.44,-2.44 -5.44,-5.44l0 -44.22c0,-3 2.45,-5.44 5.44,-5.44 3,0 5.44,2.44 5.44,5.44l0 44.22c0,3 -2.44,5.44 -5.44,5.44z"/>
   <path class="fil3 str0" d="M237.52 444.23c-3,0 -5.44,-2.44 -5.44,-5.44l0 -52c0,-3 2.44,-5.44 5.44,-5.44 3,0 5.44,2.44 5.44,5.44l0 52c0,3 -2.45,5.44 -5.44,5.44z"/>
   <path class="fil3 str0" d="M215.74 498.68l152.45 0 0 -54.45 -152.45 0 0 54.45zm157.89 10.89l-163.34 0c-3,0 -5.44,-2.44 -5.44,-5.44l0 -65.34c0,-3 2.45,-5.44 5.44,-5.44l163.34 0c3,0 5.44,2.44 5.44,5.44l0 65.34c0,3 -2.44,5.44 -5.44,5.44z"/>
   <path class="fil3 str0" d="M357.3 476.9l-125.22 0c-3,0 -5.44,-2.44 -5.44,-5.44 0,-3 2.44,-5.44 5.44,-5.44l125.22 0c3,0 5.44,2.45 5.44,5.44 0,3 -2.44,5.44 -5.44,5.44z"/>
   <path class="fil3 str0" d="M471.63 370.34c-3,0 -5.44,-2.44 -5.44,-5.44l0 -118c0,-2.45 1.67,-4.67 4.11,-5.22 16.78,-4.33 28.56,-19.56 28.56,-36.89 0,-10.11 -4,-19.67 -10.89,-26.67l0 10.34c0,15 -12.22,27.22 -27.22,27.22 -15,0 -27.22,-12.22 -27.22,-27.22l0 -10.34c-6.89,7 -10.89,16.56 -10.89,26.67 0,17.45 11.78,32.56 28.56,36.89 2.44,0.67 4.11,2.78 4.11,5.22l0 118c0,3 -2.45,5.44 -5.44,5.44 -3,0 -5.44,-2.44 -5.44,-5.44l0 -114c-19.44,-6.89 -32.67,-25.34 -32.67,-46.22 0,-17.44 9.33,-33.67 24.45,-42.44 1.66,-1 3.78,-1 5.44,0 1.67,1 2.78,2.78 2.78,4.67l0 21.45c0,9 7.33,16.33 16.33,16.33 9,0 16.33,-7.33 16.33,-16.33l0 -21.45c0,-2 1,-3.78 2.78,-4.67 1.67,-1 3.78,-1 5.44,0 15.11,8.78 24.44,25 24.44,42.44 0,20.89 -13.22,39.33 -32.67,46.22l0 114c0,3 -2.44,5.44 -5.44,5.44z"/>
   <path class="fil3 str0" d="M460.75 368.01c-12,0 -21.78,9.78 -21.78,21.78 0,12 9.78,21.78 21.78,21.78 12,0 21.78,-9.78 21.78,-21.78 0,-12 -9.78,-21.78 -21.78,-21.78zm0 54.44c-18,0 -32.67,-14.67 -32.67,-32.67 0,-18 14.67,-32.67 32.67,-32.67 18,0 32.67,14.67 32.67,32.67 0,18 -14.67,32.67 -32.67,32.67z"/>
   <path class="fil3 str0" d="M460.75 384.34c-3,0 -5.44,2.45 -5.44,5.44 0,3 2.44,5.44 5.44,5.44 3,0 5.44,-2.44 5.44,-5.44 0,-3 -2.44,-5.44 -5.44,-5.44zm0 21.78c-9,0 -16.33,-7.33 -16.33,-16.33 0,-9 7.33,-16.33 16.33,-16.33 9,0 16.33,7.33 16.33,16.33 0,9 -7.33,16.33 -16.33,16.33z"/>
  </g>
 </g>
</svg>
