<?xml version="1.0" encoding="UTF-8"?>
<!DOCTYPE svg PUBLIC "-//W3C//DTD SVG 1.1//EN" "http://www.w3.org/Graphics/SVG/1.1/DTD/svg11.dtd">
<!-- Creator: CorelDRAW -->
<svg xmlns="http://www.w3.org/2000/svg" xml:space="preserve" width="25.4mm" height="25.4mm" version="1.1" style="shape-rendering:geometricPrecision; text-rendering:geometricPrecision; image-rendering:optimizeQuality; fill-rule:evenodd; clip-rule:evenodd"
viewBox="0 0 402.36 402.36"
 xmlns:xlink="http://www.w3.org/1999/xlink"
 xmlns:xodm="http://www.corel.com/coreldraw/odm/2003">
 <defs>
  <style type="text/css">
   <![CDATA[
    .str0 {stroke:#D9DADA;stroke-width:3.17;stroke-miterlimit:22.9256}
    .fil2 {fill:none}
    .fil0 {fill:#D9DADA}
    .fil1 {fill:#E31E24}
    .fil3 {fill:#898989;fill-rule:nonzero}
   ]]>
  </style>
   <clipPath id="id0">
    <path d="M52.26 402.21l0 -0.01 -0.21 0c-0.27,-0.02 -0.54,-0.05 -0.81,-0.07l0 -0.01 -0.1 0c-0.49,-0.04 -0.99,-0.1 -1.47,-0.15l0 -0 -0.04 0c-0.2,-0.02 -0.39,-0.04 -0.59,-0.07l0 -0.01 -0.06 0c-0.37,-0.05 -0.74,-0.1 -1.12,-0.16l0 -0 -0 0c-0.31,-0.05 -0.63,-0.1 -0.94,-0.15l0 -0 -0.03 0c-0.15,-0.03 -0.29,-0.05 -0.44,-0.07l0 -0.01 -0.03 0c-0.12,-0.02 -0.24,-0.04 -0.36,-0.07l0 -0.01 -0.06 0c-0.14,-0.03 -0.27,-0.05 -0.41,-0.08l0 0 -0 0c-0.5,-0.1 -1,-0.2 -1.49,-0.31l0 -0 -0.03 0c-0.23,-0.05 -0.45,-0.1 -0.68,-0.15l0 -0 -0.02 0c-0.1,-0.02 -0.2,-0.05 -0.3,-0.07l0 -0 -0.02 0c-0.41,-0.1 -0.83,-0.2 -1.23,-0.31l0 -0 -0.01 0c-0.18,-0.05 -0.36,-0.1 -0.54,-0.15l0 -0.01 -0.03 0c-0.09,-0.03 -0.19,-0.05 -0.28,-0.08l0 -0 -0.01 0 -0.22 -0.06 0 -0.01 -0.04 0c-0.17,-0.05 -0.34,-0.1 -0.51,-0.15l0 -0.01 -0.02 0c-0.33,-0.1 -0.67,-0.2 -1,-0.31l0 -0 -0.02 0 -0.22 -0.07 0 -0.01 -0.02 0 -0.21 -0.07 0 -0.01 -0.03 0 -0.21 -0.07 0 -0.01 -0.03 0 -0.2 -0.07 0 -0.01 -0.03 0c-0.07,-0.02 -0.13,-0.05 -0.2,-0.07l0 -0.01 -0.02 0 -0.22 -0.08 0 -0 -0.01 0c-0.5,-0.18 -0.99,-0.36 -1.49,-0.54l0 -0.01 -0.02 0c-0.13,-0.05 -0.25,-0.09 -0.38,-0.14l0 -0.01 -0.04 0 -0.2 -0.08 0 -0 -0 0c-0.45,-0.18 -0.89,-0.36 -1.33,-0.55l0 -0 -0 0c-0.24,-0.1 -0.47,-0.2 -0.7,-0.31l0 -0.01 -0.01 0c-0.23,-0.1 -0.46,-0.21 -0.69,-0.31l0 -0 -0.01 0 -0.15 -0.07 0 -0.01 -0.02 0c-1.31,-0.61 -2.58,-1.26 -3.83,-1.96l0 -0.01 -0.01 0c-0.18,-0.1 -0.36,-0.2 -0.54,-0.3l0 -0.01 -0.02 0c-0.18,-0.1 -0.35,-0.21 -0.53,-0.31l0 -0 -0 0c-0.48,-0.28 -0.95,-0.57 -1.41,-0.86l0 -0 -0 0c-0.08,-0.05 -0.15,-0.1 -0.23,-0.14l0 -0.01 -0.02 0c-0.36,-0.23 -0.72,-0.47 -1.08,-0.71l0 0 0 0 -0.24 -0.16c-0.26,-0.18 -0.52,-0.36 -0.79,-0.54l0 -0 -0.01 0c-0.18,-0.13 -0.36,-0.26 -0.54,-0.39l0 -0 -0.01 0c-0.29,-0.21 -0.57,-0.42 -0.86,-0.63l0 -0 -0 0c-0.24,-0.18 -0.47,-0.36 -0.7,-0.54l0 -0.01 -0.01 0c-0.1,-0.08 -0.2,-0.15 -0.3,-0.23l0 -0 -0 0 -0.07 -0.06 0 -0.02 -0.02 0c-0.1,-0.08 -0.19,-0.16 -0.29,-0.23l0 -0 -0 0c-0.29,-0.23 -0.58,-0.47 -0.86,-0.7l0 -0 -0 0c-0.18,-0.15 -0.36,-0.31 -0.55,-0.46l0 -0.01 -0.01 0c-0.18,-0.16 -0.36,-0.31 -0.54,-0.47l0 -0 -0 0 -0.07 -0.07 0 -0.01 -0.01 0c-0.61,-0.54 -1.21,-1.09 -1.79,-1.65l0 -0 0 0 -0.08 -0.08 0 -0 -0 0 -0.08 -0.07 0 -0 -0 0 -0.07 -0.07 0 -0.01 -0.01 0 -0.07 -0.07 0 -0.01 -0.01 0c-0.32,-0.31 -0.63,-0.62 -0.93,-0.93l0 -0.01 -0.01 0 -0.07 -0.07 0 -0.01 -0.01 0 -0.07 -0.07 0 -0 -0 0 -0.07 -0.08 0 -0 -0 0 -0.08 -0.08 0 0 0 0c-0.56,-0.59 -1.11,-1.18 -1.65,-1.79l0 -0.01 -0.01 0 -0.06 -0.07 0 -0 -0 0c-0.16,-0.18 -0.31,-0.36 -0.47,-0.54l0 -0.01 -0.01 0c-0.16,-0.18 -0.31,-0.36 -0.46,-0.55l0 -0 -0 0c-0.24,-0.29 -0.47,-0.57 -0.7,-0.86l0 -0 -0 0c-0.08,-0.1 -0.16,-0.19 -0.23,-0.29l0 -0.02 -0.02 0 -0.06 -0.07 0 -0 -0 0c-0.08,-0.1 -0.15,-0.2 -0.23,-0.3l0 -0.01 -0.01 0c-0.18,-0.23 -0.36,-0.47 -0.54,-0.71l0 -0 0 0c-0.21,-0.28 -0.42,-0.57 -0.63,-0.86l0 -0.01 -0.01 0c-0.13,-0.18 -0.26,-0.36 -0.39,-0.54l0 -0.01 -0 0c-0.18,-0.26 -0.37,-0.52 -0.54,-0.79 -0.05,-0.08 -0.1,-0.16 -0.16,-0.23l0 -0 0 0c-0.24,-0.36 -0.48,-0.72 -0.71,-1.08l0 -0.02 -0.01 0c-0.05,-0.08 -0.1,-0.15 -0.14,-0.23l0 -0 -0 0c-0.29,-0.47 -0.58,-0.94 -0.86,-1.41l0 -0 -0 0c-0.1,-0.18 -0.21,-0.35 -0.31,-0.53l0 -0.02 -0.01 0c-0.1,-0.18 -0.2,-0.36 -0.3,-0.54l0 -0.01 -0.01 0c-0.7,-1.25 -1.35,-2.53 -1.96,-3.83l0 -0.02 -0.01 0 -0.07 -0.15 0 -0.01 -0 0c-0.11,-0.23 -0.21,-0.46 -0.31,-0.69l0 -0.01 -0.01 0c-0.1,-0.23 -0.21,-0.47 -0.31,-0.7l0 -0 -0 0c-0.19,-0.44 -0.37,-0.89 -0.55,-1.33l0 -0 -0 0 -0.08 -0.2 0 -0.04 -0.01 0c-0.05,-0.13 -0.1,-0.25 -0.14,-0.38l0 -0.02 -0.01 0c-0.19,-0.49 -0.37,-0.99 -0.54,-1.49l0 -0.01 -0 0 -0.08 -0.22 0 -0.02 -0.01 0c-0.02,-0.07 -0.05,-0.13 -0.07,-0.2l0 -0.03 -0.01 0 -0.07 -0.2 0 -0.03 -0.01 0c-0.02,-0.07 -0.04,-0.14 -0.07,-0.21l0 -0.03 -0.01 0 -0.07 -0.21 0 -0.02 -0.01 0 -0.07 -0.22 0 -0.02 -0 0c-0.11,-0.33 -0.21,-0.67 -0.31,-1l0 -0.02 -0.01 0c-0.05,-0.17 -0.1,-0.34 -0.15,-0.51l0 -0.05 -0.01 0 -0.06 -0.22 0 -0.01 -0 0c-0.03,-0.09 -0.05,-0.19 -0.08,-0.28l0 -0.04 -0.01 0c-0.05,-0.18 -0.1,-0.36 -0.15,-0.54l0 -0.01 -0 0c-0.11,-0.41 -0.21,-0.82 -0.31,-1.24l0 -0.02 -0.01 0c-0.02,-0.1 -0.05,-0.2 -0.07,-0.3l0 -0.01 -0 0c-0.05,-0.23 -0.1,-0.45 -0.15,-0.68l0 -0.03 -0.01 0c-0.11,-0.49 -0.21,-0.99 -0.31,-1.49l0 -0 0 0c-0.03,-0.13 -0.05,-0.27 -0.08,-0.41l0 -0.06 -0.01 0c-0.02,-0.12 -0.05,-0.24 -0.07,-0.36l0 -0.03 -0.01 0c-0.03,-0.15 -0.05,-0.29 -0.07,-0.44l0 -0.03 -0 0c-0.05,-0.31 -0.1,-0.62 -0.15,-0.94l0 -0.01 0 0c-0.06,-0.37 -0.11,-0.74 -0.16,-1.12l0 -0.06 -0.01 0c-0.03,-0.2 -0.05,-0.39 -0.07,-0.59l0 -0.04 -0 0c-0.06,-0.49 -0.11,-0.98 -0.15,-1.47l0 -0.1 -0.01 0c-0.03,-0.27 -0.05,-0.54 -0.07,-0.81l0 -0.21 -0.01 0c-0.1,-1.32 -0.14,-2.66 -0.14,-4.01l0 -289.82c0,-1.35 0.05,-2.68 0.14,-4.01l0.01 0 0 -0.21c0.02,-0.27 0.04,-0.54 0.07,-0.81l0.01 0 0 -0.1c0.04,-0.49 0.1,-0.98 0.15,-1.47l0 0 0 -0.04c0.02,-0.2 0.04,-0.4 0.07,-0.59l0.01 0 0 -0.06c0.05,-0.37 0.1,-0.74 0.16,-1.11l0 0 0 -0.01c0.05,-0.31 0.1,-0.62 0.15,-0.94l0 0 0 -0.03c0.03,-0.15 0.05,-0.29 0.07,-0.44l0.01 0 0 -0.03c0.02,-0.12 0.04,-0.24 0.07,-0.36l0.01 0 0 -0.06c0.02,-0.14 0.05,-0.27 0.08,-0.41l0 0 0 -0c0.1,-0.5 0.2,-1 0.31,-1.49l0.01 0 0 -0.03c0.05,-0.23 0.1,-0.45 0.15,-0.68l0 0 0 -0.01c0.02,-0.1 0.05,-0.2 0.07,-0.3l0.01 0 0 -0.02c0.1,-0.41 0.2,-0.82 0.31,-1.23l0 0 0 -0.01c0.05,-0.18 0.1,-0.36 0.15,-0.54l0.01 0 0 -0.04c0.03,-0.09 0.05,-0.19 0.08,-0.28l0 0 0 -0.01 0.06 -0.22 0.01 0 0 -0.05c0.05,-0.17 0.1,-0.34 0.15,-0.51l0.01 0 0 -0.02c0.1,-0.34 0.2,-0.67 0.31,-1l0 0 0 -0.02 0.07 -0.22 0.01 0 0 -0.02 0.07 -0.21 0.01 0 0 -0.03 0.07 -0.21 0.01 0 0 -0.03 0.07 -0.2 0.01 0 0 -0.03c0.02,-0.07 0.05,-0.13 0.07,-0.2l0.01 0 0 -0.02 0.08 -0.22 0 0 0 -0.01c0.17,-0.5 0.35,-0.99 0.54,-1.49l0.01 0 0 -0.02c0.05,-0.13 0.1,-0.25 0.14,-0.38l0.01 0 0 -0.04 0.08 -0.2 0 0 0 -0c0.18,-0.45 0.36,-0.89 0.55,-1.33l0 0 0 -0c0.1,-0.24 0.2,-0.47 0.31,-0.7l0.01 0 0 -0.01c0.1,-0.23 0.21,-0.46 0.31,-0.69l0 0 0 -0.01 0.07 -0.15 0.01 0 0 -0.02c0.61,-1.31 1.26,-2.59 1.96,-3.84l0.01 0 0 -0.01c0.1,-0.18 0.2,-0.36 0.3,-0.54l0.01 0 0 -0.02c0.1,-0.18 0.21,-0.35 0.31,-0.53l0 0 0 -0c0.28,-0.48 0.57,-0.95 0.86,-1.41l0 0 0 -0.01c0.05,-0.08 0.1,-0.15 0.14,-0.23l0.01 0 0 -0.02c0.23,-0.36 0.47,-0.72 0.71,-1.08l0 0 0 -0 0.16 -0.23 0 0 0 0c0.18,-0.26 0.36,-0.53 0.54,-0.79l0 0 0 -0.01c0.13,-0.18 0.26,-0.36 0.39,-0.54l0.01 0 0 -0.01c0.21,-0.29 0.42,-0.57 0.63,-0.86l0 0 0 -0c0.18,-0.24 0.36,-0.47 0.54,-0.71l0.01 0 0 -0.01c0.08,-0.1 0.15,-0.2 0.23,-0.3l0 0 0 -0 0.06 -0.07 0.02 0 0 -0.02c0.08,-0.1 0.16,-0.19 0.23,-0.29l0 0 0 -0c0.23,-0.29 0.47,-0.58 0.7,-0.86l0 0 0 -0c0.15,-0.18 0.31,-0.37 0.46,-0.55l0.01 0 0 -0.01c0.16,-0.18 0.31,-0.36 0.47,-0.54l0 0 0 -0 0.06 -0.07 0.01 0 0 -0.01c0.54,-0.61 1.09,-1.21 1.65,-1.79l0 0 0 -0 0.08 -0.08 0 0 0 -0 0.07 -0.08 0 0 0 -0 0.07 -0.07 0.01 0 0 -0.01 0.07 -0.07 0.01 0 0 -0.01c0.31,-0.32 0.62,-0.63 0.93,-0.93l0.01 0 0 -0.01 0.07 -0.07 0.01 0 0 -0.01 0.07 -0.07 0 0 0 -0 0.08 -0.07 0 0 0 -0 0.08 -0.08 0 0 0 -0c0.59,-0.56 1.18,-1.11 1.79,-1.65l0.01 0 0 -0.01 0.07 -0.07 0 0 0 -0c0.18,-0.16 0.36,-0.31 0.54,-0.47l0.01 0 0 -0.01c0.18,-0.16 0.36,-0.31 0.55,-0.46l0 0 0 -0c0.28,-0.24 0.57,-0.47 0.86,-0.7l0 0 0 -0c0.1,-0.08 0.19,-0.16 0.29,-0.23l0.02 0 0 -0.02 0.07 -0.06 0 0 0 -0c0.1,-0.08 0.2,-0.16 0.3,-0.23l0.01 0 0 -0.01c0.23,-0.18 0.47,-0.36 0.7,-0.54l0 0 0 -0c0.28,-0.21 0.57,-0.42 0.86,-0.63l0.01 0 0 -0.01c0.18,-0.13 0.36,-0.26 0.54,-0.39l0.01 0 0 -0c0.34,-0.24 0.68,-0.47 1.02,-0.7l0 0 0 -0c0.36,-0.24 0.72,-0.48 1.08,-0.71l0.02 0 0 -0.01c0.08,-0.05 0.15,-0.1 0.23,-0.14l0 0 0 -0c0.47,-0.29 0.94,-0.58 1.41,-0.86l0 0 0 -0c0.18,-0.1 0.35,-0.21 0.53,-0.31l0.02 0 0 -0.01c0.18,-0.1 0.36,-0.2 0.54,-0.3l0.01 0 0 -0c1.25,-0.7 2.53,-1.35 3.83,-1.96l0.02 0 0 -0.01 0.15 -0.07 0 0 0 -0c0.23,-0.11 0.46,-0.21 0.69,-0.31l0.01 0 0 -0.01c0.23,-0.1 0.47,-0.21 0.7,-0.31l0 0 0 -0c0.44,-0.19 0.89,-0.37 1.33,-0.55l0 0 0 -0 0.2 -0.08 0.04 0 0 -0.01c0.13,-0.05 0.25,-0.1 0.38,-0.14l0.02 0 0 -0.01c0.49,-0.19 0.99,-0.37 1.49,-0.54l0.01 0 0 -0 0.22 -0.08 0.02 0 0 -0.01c0.07,-0.02 0.13,-0.05 0.2,-0.07l0.03 0 0 -0.01 0.2 -0.07 0.03 0 0 -0.01c0.07,-0.02 0.14,-0.04 0.21,-0.07l0.03 0 0 -0.01 0.21 -0.07 0.02 0 0 -0.01 0.22 -0.07 0.02 0 0 -0.01c0.33,-0.11 0.67,-0.21 1,-0.31l0.02 0 0 -0.01c0.17,-0.05 0.34,-0.1 0.51,-0.15l0.04 0 0 -0.01 0.22 -0.07 0.01 0 0 -0c0.09,-0.03 0.19,-0.05 0.28,-0.07l0.03 0 0 -0.01c0.18,-0.05 0.36,-0.1 0.54,-0.15l0.01 0 0 -0c0.41,-0.11 0.82,-0.21 1.23,-0.31l0.02 0 0 -0c0.1,-0.03 0.2,-0.05 0.3,-0.07l0.02 0 0 -0c0.22,-0.05 0.45,-0.1 0.68,-0.15l0.03 0 0 -0c0.49,-0.11 0.99,-0.21 1.49,-0.31l0 0 0 0c0.14,-0.03 0.27,-0.05 0.41,-0.08l0.06 0 0 -0.01c0.12,-0.02 0.24,-0.04 0.36,-0.06l0.03 0 0 -0.01c0.15,-0.03 0.29,-0.05 0.44,-0.07l0.03 0 0 -0.01c0.31,-0.05 0.62,-0.1 0.94,-0.15l0 0 0 -0c0.37,-0.06 0.74,-0.11 1.12,-0.16l0.06 0 0 -0.01c0.2,-0.03 0.39,-0.05 0.59,-0.07l0.04 0 0 -0c0.49,-0.06 0.98,-0.11 1.47,-0.15l0.1 0 0 -0.01c0.27,-0.02 0.54,-0.05 0.82,-0.07l0.21 0 0 -0.01c1.32,-0.1 2.66,-0.14 4.01,-0.14l289.82 0c1.35,0 2.68,0.05 4.01,0.14l0 0.01 0.2 0c0.27,0.02 0.54,0.05 0.82,0.07l0 0.01 0.1 0c0.49,0.04 0.98,0.1 1.47,0.15l0 0 0.04 0c0.2,0.02 0.39,0.04 0.59,0.07l0 0.01 0.06 0c0.37,0.05 0.74,0.1 1.12,0.16l0 0 0.01 0c0.31,0.05 0.63,0.1 0.94,0.15l0 0.01 0.03 0c0.15,0.02 0.29,0.05 0.44,0.07l0 0.01 0.03 0c0.12,0.02 0.24,0.04 0.36,0.06l0 0.01 0.06 0c0.14,0.03 0.27,0.05 0.41,0.08l0 0 0 0c0.5,0.1 1,0.2 1.49,0.31l0 0 0.03 0c0.23,0.05 0.45,0.1 0.68,0.15l0 0 0.02 0c0.1,0.02 0.2,0.05 0.3,0.07l0 0 0.02 0c0.41,0.1 0.83,0.2 1.24,0.31l0 0 0 0c0.18,0.05 0.36,0.1 0.54,0.15l0 0.01 0.04 0c0.09,0.03 0.19,0.05 0.28,0.07l0 0 0.01 0 0.22 0.07 0 0.01 0.04 0c0.17,0.05 0.34,0.1 0.51,0.15l0 0.01 0.02 0c0.33,0.1 0.67,0.2 1,0.31l0 0.01 0.02 0 0.22 0.07 0 0.01 0.02 0 0.22 0.07 0 0.01 0.03 0 0.21 0.07 0 0.01 0.03 0 0.2 0.07 0 0.01 0.03 0c0.07,0.02 0.13,0.05 0.2,0.07l0 0.01 0.02 0 0.22 0.08 0 0 0.01 0c0.5,0.17 0.99,0.36 1.48,0.54l0 0 0.02 0c0.13,0.05 0.25,0.1 0.38,0.14l0 0.01 0.04 0 0.2 0.08 0 0 0 0c0.45,0.18 0.89,0.36 1.33,0.55l0 0 0 0c0.24,0.1 0.47,0.2 0.7,0.31l0 0.01 0.01 0c0.23,0.1 0.46,0.21 0.69,0.31l0 0 0 0 0.15 0.07 0 0.01 0.02 0c1.31,0.61 2.59,1.26 3.84,1.96l0 0 0.01 0c0.18,0.1 0.36,0.2 0.54,0.3l0 0.01 0.02 0c0.18,0.1 0.35,0.21 0.53,0.31l0 0 0 0c0.48,0.28 0.95,0.57 1.41,0.86l0 0 0.01 0c0.08,0.05 0.15,0.1 0.23,0.14l0 0.01 0.02 0c0.36,0.23 0.72,0.47 1.08,0.71l0 0 0 0c0.34,0.23 0.68,0.46 1.02,0.7l0 0 0.01 0c0.18,0.13 0.36,0.26 0.54,0.39l0 0.01 0.01 0c0.29,0.21 0.57,0.42 0.86,0.63l0 0 0 0c0.24,0.18 0.47,0.36 0.7,0.54l0 0.01 0.01 0c0.1,0.08 0.2,0.15 0.3,0.23l0 0 0 0 0.07 0.06 0 0.02 0.02 0c0.1,0.08 0.19,0.16 0.29,0.23l0 0 0 0c0.29,0.23 0.58,0.47 0.86,0.7l0 0 0 0c0.18,0.15 0.36,0.31 0.54,0.46l0 0.01 0.01 0c0.18,0.15 0.36,0.31 0.54,0.47l0 0 0 0 0.07 0.07 0 0.01 0.01 0c0.61,0.54 1.21,1.09 1.79,1.65l0 0 0 0 0.08 0.08 0 0 0 0 0.08 0.07 0 0 0 0 0.07 0.07 0 0.01 0.01 0 0.07 0.07 0 0.01 0.01 0c0.32,0.31 0.63,0.62 0.93,0.93l0 0.01 0.01 0 0.07 0.07 0 0.01 0.01 0 0.07 0.07 0 0 0 0 0.07 0.07 0 0 0 0 0.08 0.08 0 0 0 0c0.56,0.58 1.11,1.18 1.65,1.79l0 0.01 0.01 0 0.07 0.07 0 0 0 0c0.16,0.18 0.31,0.36 0.47,0.54l0 0.01 0.01 0c0.16,0.18 0.31,0.36 0.46,0.54l0 0 0 0c0.24,0.29 0.47,0.57 0.7,0.86l0 0 0 0c0.08,0.1 0.16,0.19 0.23,0.29l0 0.02 0.02 0 0.06 0.07 0 0 0 0c0.08,0.1 0.16,0.2 0.23,0.3l0 0.01 0.01 0c0.18,0.23 0.36,0.47 0.54,0.7l0 0 0 0c0.21,0.28 0.42,0.57 0.63,0.86l0 0.01 0.01 0c0.13,0.18 0.26,0.36 0.39,0.54l0 0.01 0 0c0.24,0.34 0.47,0.68 0.7,1.02l0 0 0 0c0.24,0.36 0.48,0.72 0.71,1.08l0 0.02 0.01 0c0.05,0.08 0.1,0.15 0.14,0.23l0 0 0 0c0.29,0.47 0.58,0.94 0.86,1.41l0 0 0 0c0.1,0.18 0.21,0.35 0.31,0.53l0 0.02 0.01 0c0.1,0.18 0.2,0.36 0.3,0.54l0 0.01 0 0c0.7,1.25 1.35,2.53 1.96,3.84l0 0.02 0.01 0 0.07 0.15 0 0.01 0 0c0.11,0.23 0.21,0.46 0.31,0.69l0 0.01 0.01 0c0.1,0.23 0.21,0.47 0.31,0.7l0 0 0 0c0.19,0.44 0.37,0.88 0.55,1.33l0 0 0 0 0.08 0.2 0 0.04 0.01 0c0.05,0.13 0.1,0.25 0.14,0.38l0 0.02 0.01 0c0.19,0.49 0.37,0.99 0.54,1.49l0 0.01 0 0 0.08 0.22 0 0.02 0.01 0c0.02,0.07 0.05,0.13 0.07,0.2l0 0.03 0.01 0 0.07 0.2 0 0.03 0.01 0c0.02,0.07 0.04,0.14 0.07,0.21l0 0.03 0.01 0 0.07 0.21 0 0.02 0.01 0 0.07 0.22 0 0.02 0 0c0.11,0.33 0.21,0.67 0.31,1l0 0.02 0.01 0c0.05,0.17 0.1,0.34 0.15,0.51l0 0.05 0.01 0 0.06 0.22 0 0.01 0 0c0.03,0.09 0.05,0.19 0.08,0.28l0 0.04 0.01 0c0.05,0.18 0.1,0.36 0.15,0.54l0 0 0 0c0.11,0.41 0.21,0.82 0.31,1.24l0 0.02 0.01 0c0.02,0.1 0.05,0.2 0.07,0.3l0 0.01 0 0c0.05,0.23 0.1,0.45 0.15,0.68l0 0.03 0.01 0c0.11,0.49 0.21,0.99 0.31,1.49l0 0 0 0c0.03,0.14 0.05,0.27 0.08,0.41l0 0.06 0.01 0c0.02,0.12 0.04,0.24 0.07,0.36l0 0.03 0 0c0.03,0.15 0.05,0.29 0.07,0.44l0 0.03 0.01 0c0.05,0.31 0.1,0.62 0.15,0.94l0 0.01 0 0c0.06,0.37 0.11,0.74 0.16,1.12l0 0.06 0.01 0c0.03,0.2 0.05,0.39 0.07,0.59l0 0.04 0 0c0.06,0.49 0.11,0.98 0.15,1.47l0 0.1 0.01 0c0.02,0.27 0.05,0.54 0.07,0.82l0 0.2 0.01 0c0.1,1.32 0.14,2.66 0.14,4.01l0 289.82c0,1.35 -0.05,2.68 -0.14,4.01l-0.01 0 0 0.21c-0.02,0.3 -0.05,0.59 -0.08,0.89l-0 0 0 0.03c-0.04,0.49 -0.1,0.98 -0.15,1.47l-0.01 0 0 0.05c-0.02,0.19 -0.04,0.39 -0.07,0.58l-0.01 0 0 0.07c-0.02,0.19 -0.05,0.37 -0.08,0.56l-0 0 0 0.01c-0.07,0.5 -0.15,0.99 -0.23,1.49l-0.01 0 0 0.05c-0.02,0.14 -0.04,0.29 -0.07,0.43l-0.01 0 0 0.05c-0.05,0.27 -0.1,0.54 -0.16,0.81l-0 0 0 0.02c-0.1,0.49 -0.2,0.99 -0.3,1.48l-0.01 0 0 0.04c-0.03,0.12 -0.05,0.23 -0.08,0.35l-0 0 0 0.01 -0.07 0.3 -0.01 0 0 0.03c-0.02,0.09 -0.05,0.19 -0.07,0.28l-0.01 0 0 0.04c-0.12,0.51 -0.26,1.02 -0.39,1.53l0 0 0 0c-0.05,0.18 -0.1,0.37 -0.15,0.55l-0.01 0 0 0.03c-0.05,0.17 -0.1,0.35 -0.15,0.52l-0 0 0 0.01c-0.26,0.9 -0.55,1.78 -0.85,2.66l-0.01 0 0 0.03 -0.07 0.2 -0.01 0 0 0.02 -0.08 0.22 -0 0 0 0.01c-0.15,0.42 -0.31,0.84 -0.47,1.25l-0 0 0 0.01c-0.05,0.13 -0.1,0.25 -0.15,0.38l-0.01 0 0 0.03c-0.05,0.12 -0.1,0.24 -0.15,0.36l-0.01 0 0 0.02 -0.15 0.37 -0.01 0 0 0.01c-0.15,0.36 -0.3,0.73 -0.46,1.09l-0.01 0 0 0.02c-0.08,0.18 -0.15,0.36 -0.23,0.53l-0 0 0 0.01 -0.07 0.15 -0.01 0 0 0.02c-0.27,0.6 -0.56,1.2 -0.85,1.79l-0.01 0 0 0.02 -0.07 0.14 -0.01 0 0 0.02 -0.07 0.13 -0.01 0 0 0.02 -0.06 0.13 -0.01 0 0 0.02 -0.07 0.13 -0.01 0 0 0.02 -0.07 0.14 -0 0 0 0.01 -0.08 0.15 -0 0 0 0c-0.3,0.58 -0.62,1.16 -0.94,1.73l-0 0 0 0.01c-0.07,0.13 -0.15,0.26 -0.22,0.39l-0.01 0 0 0.03 -0.08 0.13 -0 0 0 0c-0.08,0.13 -0.15,0.26 -0.23,0.39l-0 0 0 0.01c-0.15,0.26 -0.31,0.52 -0.47,0.78l-0 0 0 0c-0.13,0.21 -0.26,0.42 -0.39,0.63l-0 0 0 0c-0.05,0.08 -0.1,0.16 -0.15,0.23l-0.01 0 0 0.02c-0.05,0.07 -0.1,0.14 -0.14,0.22l-0.01 0 0 0.02c-0.3,0.47 -0.62,0.93 -0.93,1.39l-0.01 0 0 0.01 -0.16 0.22 -0 0 0 0c-0.13,0.18 -0.26,0.36 -0.39,0.55l-0.01 0 0 0.01c-0.28,0.39 -0.57,0.78 -0.86,1.17l-0 0 0 0c-0.18,0.24 -0.36,0.47 -0.54,0.7l-0.01 0 0 0.01c-0.1,0.13 -0.2,0.25 -0.3,0.38l-0.01 0 0 0.01c-0.36,0.45 -0.72,0.89 -1.09,1.32l-0.01 0 0 0.01c-0.13,0.15 -0.26,0.31 -0.39,0.46l-0 0 0 0 -0.07 0.07 -0.01 0 0 0.01c-0.46,0.53 -0.93,1.05 -1.41,1.56l-0 0 0 0 -0.07 0.07 -0.01 0 0 0.01 -0.06 0.07 -0.02 0 0 0.02 -0.06 0.06 -0.02 0 0 0.02c-0.68,0.72 -1.39,1.42 -2.11,2.1l-0.02 0 0 0.01 -0.07 0.06 -0.01 0 0 0.01 -0.07 0.07 -0 0 0 0c-0.51,0.48 -1.03,0.95 -1.56,1.41l-0.02 0 0 0.01 -0.07 0.06 -0.01 0 0 0.01c-0.18,0.16 -0.37,0.31 -0.55,0.47l0 0 0 0c-0.41,0.35 -0.82,0.69 -1.24,1.02l-0.01 0 0 0.01c-0.13,0.1 -0.25,0.2 -0.38,0.3l-0.01 0 0 0.01c-0.23,0.18 -0.47,0.36 -0.7,0.54l-0 0 0 0c-0.21,0.16 -0.42,0.31 -0.63,0.47l-0 0 0 0c-0.18,0.13 -0.36,0.26 -0.54,0.39l-0.01 0 0 0.01c-0.18,0.13 -0.36,0.26 -0.54,0.38l-0.01 0 0 0c-0.61,0.43 -1.23,0.85 -1.86,1.25l-0.03 0 0 0.02c-0.07,0.05 -0.15,0.09 -0.23,0.14l-0.01 0 0 0.01c-0.46,0.29 -0.93,0.58 -1.4,0.86l-0.01 0 0 0.01c-0.13,0.08 -0.26,0.15 -0.38,0.23l-0.01 0 0 0c-0.18,0.1 -0.36,0.21 -0.54,0.31l-0.01 0 0 0.01c-0.52,0.29 -1.04,0.58 -1.57,0.86l0 0 0 0 -0.15 0.08 -0.01 0 0 0 -0.14 0.07 -0.02 0 0 0.01 -0.13 0.07 -0.03 0 0 0.01 -0.13 0.06 -0.03 0 0 0.02 -0.13 0.06 -0.03 0 0 0.01c-0.42,0.21 -0.83,0.42 -1.25,0.61l-0 0 0 0c-0.28,0.13 -0.56,0.26 -0.84,0.39l-0.03 0 0 0.01 -0.14 0.07 -0.01 0 0 0c-0.23,0.11 -0.47,0.21 -0.7,0.31l-0 0 0 0c-0.43,0.19 -0.87,0.37 -1.31,0.55l-0.03 0 0 0.01c-0.12,0.05 -0.24,0.1 -0.36,0.15l-0.04 0 0 0.02c-0.12,0.05 -0.25,0.09 -0.37,0.14l-0.02 0 0 0.01c-0.34,0.13 -0.68,0.26 -1.02,0.39 -0.07,0.03 -0.15,0.05 -0.22,0.08l-0.01 0 0 0c-0.86,0.31 -1.72,0.59 -2.59,0.86 -0.17,0.05 -0.35,0.1 -0.53,0.16l-0.02 0 0 0.01c-0.17,0.05 -0.34,0.1 -0.51,0.15l-0.04 0 0 0.01c-0.18,0.05 -0.36,0.1 -0.54,0.15l-0.01 0 0 0c-0.51,0.14 -1.01,0.27 -1.53,0.39l-0.05 0 0 0.01c-0.09,0.02 -0.18,0.05 -0.27,0.07l-0.04 0 0 0.01 -0.3 0.07 -0.02 0 0 0c-0.23,0.05 -0.47,0.1 -0.7,0.15l-0 0 0 0c-0.38,0.08 -0.77,0.16 -1.15,0.23l-0.02 0 0 0c-0.13,0.02 -0.26,0.05 -0.39,0.07l-0.01 0 0 0c-0.14,0.03 -0.28,0.05 -0.42,0.08l-0.06 0 0 0.01c-0.14,0.02 -0.28,0.05 -0.42,0.07l-0.05 0 0 0.01c-0.49,0.08 -0.99,0.16 -1.48,0.23l-0.01 0 0 0c-0.18,0.03 -0.36,0.05 -0.55,0.08l-0.08 0 0 0.01c-0.19,0.03 -0.38,0.05 -0.58,0.07l-0.05 0 0 0.01c-0.48,0.06 -0.97,0.11 -1.46,0.15l-0.03 0 0 0c-0.29,0.03 -0.59,0.05 -0.88,0.08l-0.22 0 0 0.01c-1.32,0.1 -2.66,0.14 -4.01,0.14l-289.82 0c-1.35,0 -2.69,-0.05 -4.01,-0.14z"/>
   </clipPath>
 </defs>
 <g id="Layer_x0020_1">
  <metadata id="CorelCorpID_0Corel-Layer"/>
  <path class="fil0" d="M52.26 402.21l0 -0.01 -0.21 0c-0.27,-0.02 -0.54,-0.05 -0.81,-0.07l0 -0.01 -0.1 0c-0.49,-0.04 -0.99,-0.1 -1.47,-0.15l0 -0 -0.04 0c-0.2,-0.02 -0.39,-0.04 -0.59,-0.07l0 -0.01 -0.06 0c-0.37,-0.05 -0.74,-0.1 -1.12,-0.16l0 -0 -0 0c-0.31,-0.05 -0.63,-0.1 -0.94,-0.15l0 -0 -0.03 0c-0.15,-0.03 -0.29,-0.05 -0.44,-0.07l0 -0.01 -0.03 0c-0.12,-0.02 -0.24,-0.04 -0.36,-0.07l0 -0.01 -0.06 0c-0.14,-0.03 -0.27,-0.05 -0.41,-0.08l0 0 -0 0c-0.5,-0.1 -1,-0.2 -1.49,-0.31l0 -0 -0.03 0c-0.23,-0.05 -0.45,-0.1 -0.68,-0.15l0 -0 -0.02 0c-0.1,-0.02 -0.2,-0.05 -0.3,-0.07l0 -0 -0.02 0c-0.41,-0.1 -0.83,-0.2 -1.23,-0.31l0 -0 -0.01 0c-0.18,-0.05 -0.36,-0.1 -0.54,-0.15l0 -0.01 -0.03 0c-0.09,-0.03 -0.19,-0.05 -0.28,-0.08l0 -0 -0.01 0 -0.22 -0.06 0 -0.01 -0.04 0c-0.17,-0.05 -0.34,-0.1 -0.51,-0.15l0 -0.01 -0.02 0c-0.33,-0.1 -0.67,-0.2 -1,-0.31l0 -0 -0.02 0 -0.22 -0.07 0 -0.01 -0.02 0 -0.21 -0.07 0 -0.01 -0.03 0 -0.21 -0.07 0 -0.01 -0.03 0 -0.2 -0.07 0 -0.01 -0.03 0c-0.07,-0.02 -0.13,-0.05 -0.2,-0.07l0 -0.01 -0.02 0 -0.22 -0.08 0 -0 -0.01 0c-0.5,-0.18 -0.99,-0.36 -1.49,-0.54l0 -0.01 -0.02 0c-0.13,-0.05 -0.25,-0.09 -0.38,-0.14l0 -0.01 -0.04 0 -0.2 -0.08 0 -0 -0 0c-0.45,-0.18 -0.89,-0.36 -1.33,-0.55l0 -0 -0 0c-0.24,-0.1 -0.47,-0.2 -0.7,-0.31l0 -0.01 -0.01 0c-0.23,-0.1 -0.46,-0.21 -0.69,-0.31l0 -0 -0.01 0 -0.15 -0.07 0 -0.01 -0.02 0c-1.31,-0.61 -2.58,-1.26 -3.83,-1.96l0 -0.01 -0.01 0c-0.18,-0.1 -0.36,-0.2 -0.54,-0.3l0 -0.01 -0.02 0c-0.18,-0.1 -0.35,-0.21 -0.53,-0.31l0 -0 -0 0c-0.48,-0.28 -0.95,-0.57 -1.41,-0.86l0 -0 -0 0c-0.08,-0.05 -0.15,-0.1 -0.23,-0.14l0 -0.01 -0.02 0c-0.36,-0.23 -0.72,-0.47 -1.08,-0.71l0 0 0 0 -0.24 -0.16c-0.26,-0.18 -0.52,-0.36 -0.79,-0.54l0 -0 -0.01 0c-0.18,-0.13 -0.36,-0.26 -0.54,-0.39l0 -0 -0.01 0c-0.29,-0.21 -0.57,-0.42 -0.86,-0.63l0 -0 -0 0c-0.24,-0.18 -0.47,-0.36 -0.7,-0.54l0 -0.01 -0.01 0c-0.1,-0.08 -0.2,-0.15 -0.3,-0.23l0 -0 -0 0 -0.07 -0.06 0 -0.02 -0.02 0c-0.1,-0.08 -0.19,-0.16 -0.29,-0.23l0 -0 -0 0c-0.29,-0.23 -0.58,-0.47 -0.86,-0.7l0 -0 -0 0c-0.18,-0.15 -0.36,-0.31 -0.55,-0.46l0 -0.01 -0.01 0c-0.18,-0.16 -0.36,-0.31 -0.54,-0.47l0 -0 -0 0 -0.07 -0.07 0 -0.01 -0.01 0c-0.61,-0.54 -1.21,-1.09 -1.79,-1.65l0 -0 0 0 -0.08 -0.08 0 -0 -0 0 -0.08 -0.07 0 -0 -0 0 -0.07 -0.07 0 -0.01 -0.01 0 -0.07 -0.07 0 -0.01 -0.01 0c-0.32,-0.31 -0.63,-0.62 -0.93,-0.93l0 -0.01 -0.01 0 -0.07 -0.07 0 -0.01 -0.01 0 -0.07 -0.07 0 -0 -0 0 -0.07 -0.08 0 -0 -0 0 -0.08 -0.08 0 0 0 0c-0.56,-0.59 -1.11,-1.18 -1.65,-1.79l0 -0.01 -0.01 0 -0.06 -0.07 0 -0 -0 0c-0.16,-0.18 -0.31,-0.36 -0.47,-0.54l0 -0.01 -0.01 0c-0.16,-0.18 -0.31,-0.36 -0.46,-0.55l0 -0 -0 0c-0.24,-0.29 -0.47,-0.57 -0.7,-0.86l0 -0 -0 0c-0.08,-0.1 -0.16,-0.19 -0.23,-0.29l0 -0.02 -0.02 0 -0.06 -0.07 0 -0 -0 0c-0.08,-0.1 -0.15,-0.2 -0.23,-0.3l0 -0.01 -0.01 0c-0.18,-0.23 -0.36,-0.47 -0.54,-0.71l0 -0 0 0c-0.21,-0.28 -0.42,-0.57 -0.63,-0.86l0 -0.01 -0.01 0c-0.13,-0.18 -0.26,-0.36 -0.39,-0.54l0 -0.01 -0 0c-0.18,-0.26 -0.37,-0.52 -0.54,-0.79 -0.05,-0.08 -0.1,-0.16 -0.16,-0.23l0 -0 0 0c-0.24,-0.36 -0.48,-0.72 -0.71,-1.08l0 -0.02 -0.01 0c-0.05,-0.08 -0.1,-0.15 -0.14,-0.23l0 -0 -0 0c-0.29,-0.47 -0.58,-0.94 -0.86,-1.41l0 -0 -0 0c-0.1,-0.18 -0.21,-0.35 -0.31,-0.53l0 -0.02 -0.01 0c-0.1,-0.18 -0.2,-0.36 -0.3,-0.54l0 -0.01 -0.01 0c-0.7,-1.25 -1.35,-2.53 -1.96,-3.83l0 -0.02 -0.01 0 -0.07 -0.15 0 -0.01 -0 0c-0.11,-0.23 -0.21,-0.46 -0.31,-0.69l0 -0.01 -0.01 0c-0.1,-0.23 -0.21,-0.47 -0.31,-0.7l0 -0 -0 0c-0.19,-0.44 -0.37,-0.89 -0.55,-1.33l0 -0 -0 0 -0.08 -0.2 0 -0.04 -0.01 0c-0.05,-0.13 -0.1,-0.25 -0.14,-0.38l0 -0.02 -0.01 0c-0.19,-0.49 -0.37,-0.99 -0.54,-1.49l0 -0.01 -0 0 -0.08 -0.22 0 -0.02 -0.01 0c-0.02,-0.07 -0.05,-0.13 -0.07,-0.2l0 -0.03 -0.01 0 -0.07 -0.2 0 -0.03 -0.01 0c-0.02,-0.07 -0.04,-0.14 -0.07,-0.21l0 -0.03 -0.01 0 -0.07 -0.21 0 -0.02 -0.01 0 -0.07 -0.22 0 -0.02 -0 0c-0.11,-0.33 -0.21,-0.67 -0.31,-1l0 -0.02 -0.01 0c-0.05,-0.17 -0.1,-0.34 -0.15,-0.51l0 -0.05 -0.01 0 -0.06 -0.22 0 -0.01 -0 0c-0.03,-0.09 -0.05,-0.19 -0.08,-0.28l0 -0.04 -0.01 0c-0.05,-0.18 -0.1,-0.36 -0.15,-0.54l0 -0.01 -0 0c-0.11,-0.41 -0.21,-0.82 -0.31,-1.24l0 -0.02 -0.01 0c-0.02,-0.1 -0.05,-0.2 -0.07,-0.3l0 -0.01 -0 0c-0.05,-0.23 -0.1,-0.45 -0.15,-0.68l0 -0.03 -0.01 0c-0.11,-0.49 -0.21,-0.99 -0.31,-1.49l0 -0 0 0c-0.03,-0.13 -0.05,-0.27 -0.08,-0.41l0 -0.06 -0.01 0c-0.02,-0.12 -0.05,-0.24 -0.07,-0.36l0 -0.03 -0.01 0c-0.03,-0.15 -0.05,-0.29 -0.07,-0.44l0 -0.03 -0 0c-0.05,-0.31 -0.1,-0.62 -0.15,-0.94l0 -0.01 0 0c-0.06,-0.37 -0.11,-0.74 -0.16,-1.12l0 -0.06 -0.01 0c-0.03,-0.2 -0.05,-0.39 -0.07,-0.59l0 -0.04 -0 0c-0.06,-0.49 -0.11,-0.98 -0.15,-1.47l0 -0.1 -0.01 0c-0.03,-0.27 -0.05,-0.54 -0.07,-0.81l0 -0.21 -0.01 0c-0.1,-1.32 -0.14,-2.66 -0.14,-4.01l0 -289.82c0,-1.35 0.05,-2.68 0.14,-4.01l0.01 0 0 -0.21c0.02,-0.27 0.04,-0.54 0.07,-0.81l0.01 0 0 -0.1c0.04,-0.49 0.1,-0.98 0.15,-1.47l0 0 0 -0.04c0.02,-0.2 0.04,-0.4 0.07,-0.59l0.01 0 0 -0.06c0.05,-0.37 0.1,-0.74 0.16,-1.11l0 0 0 -0.01c0.05,-0.31 0.1,-0.62 0.15,-0.94l0 0 0 -0.03c0.03,-0.15 0.05,-0.29 0.07,-0.44l0.01 0 0 -0.03c0.02,-0.12 0.04,-0.24 0.07,-0.36l0.01 0 0 -0.06c0.02,-0.14 0.05,-0.27 0.08,-0.41l0 0 0 -0c0.1,-0.5 0.2,-1 0.31,-1.49l0.01 0 0 -0.03c0.05,-0.23 0.1,-0.45 0.15,-0.68l0 0 0 -0.01c0.02,-0.1 0.05,-0.2 0.07,-0.3l0.01 0 0 -0.02c0.1,-0.41 0.2,-0.82 0.31,-1.23l0 0 0 -0.01c0.05,-0.18 0.1,-0.36 0.15,-0.54l0.01 0 0 -0.04c0.03,-0.09 0.05,-0.19 0.08,-0.28l0 0 0 -0.01 0.06 -0.22 0.01 0 0 -0.05c0.05,-0.17 0.1,-0.34 0.15,-0.51l0.01 0 0 -0.02c0.1,-0.34 0.2,-0.67 0.31,-1l0 0 0 -0.02 0.07 -0.22 0.01 0 0 -0.02 0.07 -0.21 0.01 0 0 -0.03 0.07 -0.21 0.01 0 0 -0.03 0.07 -0.2 0.01 0 0 -0.03c0.02,-0.07 0.05,-0.13 0.07,-0.2l0.01 0 0 -0.02 0.08 -0.22 0 0 0 -0.01c0.17,-0.5 0.35,-0.99 0.54,-1.49l0.01 0 0 -0.02c0.05,-0.13 0.1,-0.25 0.14,-0.38l0.01 0 0 -0.04 0.08 -0.2 0 0 0 -0c0.18,-0.45 0.36,-0.89 0.55,-1.33l0 0 0 -0c0.1,-0.24 0.2,-0.47 0.31,-0.7l0.01 0 0 -0.01c0.1,-0.23 0.21,-0.46 0.31,-0.69l0 0 0 -0.01 0.07 -0.15 0.01 0 0 -0.02c0.61,-1.31 1.26,-2.59 1.96,-3.84l0.01 0 0 -0.01c0.1,-0.18 0.2,-0.36 0.3,-0.54l0.01 0 0 -0.02c0.1,-0.18 0.21,-0.35 0.31,-0.53l0 0 0 -0c0.28,-0.48 0.57,-0.95 0.86,-1.41l0 0 0 -0.01c0.05,-0.08 0.1,-0.15 0.14,-0.23l0.01 0 0 -0.02c0.23,-0.36 0.47,-0.72 0.71,-1.08l0 0 0 -0 0.16 -0.23 0 0 0 0c0.18,-0.26 0.36,-0.53 0.54,-0.79l0 0 0 -0.01c0.13,-0.18 0.26,-0.36 0.39,-0.54l0.01 0 0 -0.01c0.21,-0.29 0.42,-0.57 0.63,-0.86l0 0 0 -0c0.18,-0.24 0.36,-0.47 0.54,-0.71l0.01 0 0 -0.01c0.08,-0.1 0.15,-0.2 0.23,-0.3l0 0 0 -0 0.06 -0.07 0.02 0 0 -0.02c0.08,-0.1 0.16,-0.19 0.23,-0.29l0 0 0 -0c0.23,-0.29 0.47,-0.58 0.7,-0.86l0 0 0 -0c0.15,-0.18 0.31,-0.37 0.46,-0.55l0.01 0 0 -0.01c0.16,-0.18 0.31,-0.36 0.47,-0.54l0 0 0 -0 0.06 -0.07 0.01 0 0 -0.01c0.54,-0.61 1.09,-1.21 1.65,-1.79l0 0 0 -0 0.08 -0.08 0 0 0 -0 0.07 -0.08 0 0 0 -0 0.07 -0.07 0.01 0 0 -0.01 0.07 -0.07 0.01 0 0 -0.01c0.31,-0.32 0.62,-0.63 0.93,-0.93l0.01 0 0 -0.01 0.07 -0.07 0.01 0 0 -0.01 0.07 -0.07 0 0 0 -0 0.08 -0.07 0 0 0 -0 0.08 -0.08 0 0 0 -0c0.59,-0.56 1.18,-1.11 1.79,-1.65l0.01 0 0 -0.01 0.07 -0.07 0 0 0 -0c0.18,-0.16 0.36,-0.31 0.54,-0.47l0.01 0 0 -0.01c0.18,-0.16 0.36,-0.31 0.55,-0.46l0 0 0 -0c0.28,-0.24 0.57,-0.47 0.86,-0.7l0 0 0 -0c0.1,-0.08 0.19,-0.16 0.29,-0.23l0.02 0 0 -0.02 0.07 -0.06 0 0 0 -0c0.1,-0.08 0.2,-0.16 0.3,-0.23l0.01 0 0 -0.01c0.23,-0.18 0.47,-0.36 0.7,-0.54l0 0 0 -0c0.28,-0.21 0.57,-0.42 0.86,-0.63l0.01 0 0 -0.01c0.18,-0.13 0.36,-0.26 0.54,-0.39l0.01 0 0 -0c0.34,-0.24 0.68,-0.47 1.02,-0.7l0 0 0 -0c0.36,-0.24 0.72,-0.48 1.08,-0.71l0.02 0 0 -0.01c0.08,-0.05 0.15,-0.1 0.23,-0.14l0 0 0 -0c0.47,-0.29 0.94,-0.58 1.41,-0.86l0 0 0 -0c0.18,-0.1 0.35,-0.21 0.53,-0.31l0.02 0 0 -0.01c0.18,-0.1 0.36,-0.2 0.54,-0.3l0.01 0 0 -0c1.25,-0.7 2.53,-1.35 3.83,-1.96l0.02 0 0 -0.01 0.15 -0.07 0 0 0 -0c0.23,-0.11 0.46,-0.21 0.69,-0.31l0.01 0 0 -0.01c0.23,-0.1 0.47,-0.21 0.7,-0.31l0 0 0 -0c0.44,-0.19 0.89,-0.37 1.33,-0.55l0 0 0 -0 0.2 -0.08 0.04 0 0 -0.01c0.13,-0.05 0.25,-0.1 0.38,-0.14l0.02 0 0 -0.01c0.49,-0.19 0.99,-0.37 1.49,-0.54l0.01 0 0 -0 0.22 -0.08 0.02 0 0 -0.01c0.07,-0.02 0.13,-0.05 0.2,-0.07l0.03 0 0 -0.01 0.2 -0.07 0.03 0 0 -0.01c0.07,-0.02 0.14,-0.04 0.21,-0.07l0.03 0 0 -0.01 0.21 -0.07 0.02 0 0 -0.01 0.22 -0.07 0.02 0 0 -0.01c0.33,-0.11 0.67,-0.21 1,-0.31l0.02 0 0 -0.01c0.17,-0.05 0.34,-0.1 0.51,-0.15l0.04 0 0 -0.01 0.22 -0.07 0.01 0 0 -0c0.09,-0.03 0.19,-0.05 0.28,-0.07l0.03 0 0 -0.01c0.18,-0.05 0.36,-0.1 0.54,-0.15l0.01 0 0 -0c0.41,-0.11 0.82,-0.21 1.23,-0.31l0.02 0 0 -0c0.1,-0.03 0.2,-0.05 0.3,-0.07l0.02 0 0 -0c0.22,-0.05 0.45,-0.1 0.68,-0.15l0.03 0 0 -0c0.49,-0.11 0.99,-0.21 1.49,-0.31l0 0 0 0c0.14,-0.03 0.27,-0.05 0.41,-0.08l0.06 0 0 -0.01c0.12,-0.02 0.24,-0.04 0.36,-0.06l0.03 0 0 -0.01c0.15,-0.03 0.29,-0.05 0.44,-0.07l0.03 0 0 -0.01c0.31,-0.05 0.62,-0.1 0.94,-0.15l0 0 0 -0c0.37,-0.06 0.74,-0.11 1.12,-0.16l0.06 0 0 -0.01c0.2,-0.03 0.39,-0.05 0.59,-0.07l0.04 0 0 -0c0.49,-0.06 0.98,-0.11 1.47,-0.15l0.1 0 0 -0.01c0.27,-0.02 0.54,-0.05 0.82,-0.07l0.21 0 0 -0.01c1.32,-0.1 2.66,-0.14 4.01,-0.14l289.82 0c1.35,0 2.68,0.05 4.01,0.14l0 0.01 0.2 0c0.27,0.02 0.54,0.05 0.82,0.07l0 0.01 0.1 0c0.49,0.04 0.98,0.1 1.47,0.15l0 0 0.04 0c0.2,0.02 0.39,0.04 0.59,0.07l0 0.01 0.06 0c0.37,0.05 0.74,0.1 1.12,0.16l0 0 0.01 0c0.31,0.05 0.63,0.1 0.94,0.15l0 0.01 0.03 0c0.15,0.02 0.29,0.05 0.44,0.07l0 0.01 0.03 0c0.12,0.02 0.24,0.04 0.36,0.06l0 0.01 0.06 0c0.14,0.03 0.27,0.05 0.41,0.08l0 0 0 0c0.5,0.1 1,0.2 1.49,0.31l0 0 0.03 0c0.23,0.05 0.45,0.1 0.68,0.15l0 0 0.02 0c0.1,0.02 0.2,0.05 0.3,0.07l0 0 0.02 0c0.41,0.1 0.83,0.2 1.24,0.31l0 0 0 0c0.18,0.05 0.36,0.1 0.54,0.15l0 0.01 0.04 0c0.09,0.03 0.19,0.05 0.28,0.07l0 0 0.01 0 0.22 0.07 0 0.01 0.04 0c0.17,0.05 0.34,0.1 0.51,0.15l0 0.01 0.02 0c0.33,0.1 0.67,0.2 1,0.31l0 0.01 0.02 0 0.22 0.07 0 0.01 0.02 0 0.22 0.07 0 0.01 0.03 0 0.21 0.07 0 0.01 0.03 0 0.2 0.07 0 0.01 0.03 0c0.07,0.02 0.13,0.05 0.2,0.07l0 0.01 0.02 0 0.22 0.08 0 0 0.01 0c0.5,0.17 0.99,0.36 1.48,0.54l0 0 0.02 0c0.13,0.05 0.25,0.1 0.38,0.14l0 0.01 0.04 0 0.2 0.08 0 0 0 0c0.45,0.18 0.89,0.36 1.33,0.55l0 0 0 0c0.24,0.1 0.47,0.2 0.7,0.31l0 0.01 0.01 0c0.23,0.1 0.46,0.21 0.69,0.31l0 0 0 0 0.15 0.07 0 0.01 0.02 0c1.31,0.61 2.59,1.26 3.84,1.96l0 0 0.01 0c0.18,0.1 0.36,0.2 0.54,0.3l0 0.01 0.02 0c0.18,0.1 0.35,0.21 0.53,0.31l0 0 0 0c0.48,0.28 0.95,0.57 1.41,0.86l0 0 0.01 0c0.08,0.05 0.15,0.1 0.23,0.14l0 0.01 0.02 0c0.36,0.23 0.72,0.47 1.08,0.71l0 0 0 0c0.34,0.23 0.68,0.46 1.02,0.7l0 0 0.01 0c0.18,0.13 0.36,0.26 0.54,0.39l0 0.01 0.01 0c0.29,0.21 0.57,0.42 0.86,0.63l0 0 0 0c0.24,0.18 0.47,0.36 0.7,0.54l0 0.01 0.01 0c0.1,0.08 0.2,0.15 0.3,0.23l0 0 0 0 0.07 0.06 0 0.02 0.02 0c0.1,0.08 0.19,0.16 0.29,0.23l0 0 0 0c0.29,0.23 0.58,0.47 0.86,0.7l0 0 0 0c0.18,0.15 0.36,0.31 0.54,0.46l0 0.01 0.01 0c0.18,0.15 0.36,0.31 0.54,0.47l0 0 0 0 0.07 0.07 0 0.01 0.01 0c0.61,0.54 1.21,1.09 1.79,1.65l0 0 0 0 0.08 0.08 0 0 0 0 0.08 0.07 0 0 0 0 0.07 0.07 0 0.01 0.01 0 0.07 0.07 0 0.01 0.01 0c0.32,0.31 0.63,0.62 0.93,0.93l0 0.01 0.01 0 0.07 0.07 0 0.01 0.01 0 0.07 0.07 0 0 0 0 0.07 0.07 0 0 0 0 0.08 0.08 0 0 0 0c0.56,0.58 1.11,1.18 1.65,1.79l0 0.01 0.01 0 0.07 0.07 0 0 0 0c0.16,0.18 0.31,0.36 0.47,0.54l0 0.01 0.01 0c0.16,0.18 0.31,0.36 0.46,0.54l0 0 0 0c0.24,0.29 0.47,0.57 0.7,0.86l0 0 0 0c0.08,0.1 0.16,0.19 0.23,0.29l0 0.02 0.02 0 0.06 0.07 0 0 0 0c0.08,0.1 0.16,0.2 0.23,0.3l0 0.01 0.01 0c0.18,0.23 0.36,0.47 0.54,0.7l0 0 0 0c0.21,0.28 0.42,0.57 0.63,0.86l0 0.01 0.01 0c0.13,0.18 0.26,0.36 0.39,0.54l0 0.01 0 0c0.24,0.34 0.47,0.68 0.7,1.02l0 0 0 0c0.24,0.36 0.48,0.72 0.71,1.08l0 0.02 0.01 0c0.05,0.08 0.1,0.15 0.14,0.23l0 0 0 0c0.29,0.47 0.58,0.94 0.86,1.41l0 0 0 0c0.1,0.18 0.21,0.35 0.31,0.53l0 0.02 0.01 0c0.1,0.18 0.2,0.36 0.3,0.54l0 0.01 0 0c0.7,1.25 1.35,2.53 1.96,3.84l0 0.02 0.01 0 0.07 0.15 0 0.01 0 0c0.11,0.23 0.21,0.46 0.31,0.69l0 0.01 0.01 0c0.1,0.23 0.21,0.47 0.31,0.7l0 0 0 0c0.19,0.44 0.37,0.88 0.55,1.33l0 0 0 0 0.08 0.2 0 0.04 0.01 0c0.05,0.13 0.1,0.25 0.14,0.38l0 0.02 0.01 0c0.19,0.49 0.37,0.99 0.54,1.49l0 0.01 0 0 0.08 0.22 0 0.02 0.01 0c0.02,0.07 0.05,0.13 0.07,0.2l0 0.03 0.01 0 0.07 0.2 0 0.03 0.01 0c0.02,0.07 0.04,0.14 0.07,0.21l0 0.03 0.01 0 0.07 0.21 0 0.02 0.01 0 0.07 0.22 0 0.02 0 0c0.11,0.33 0.21,0.67 0.31,1l0 0.02 0.01 0c0.05,0.17 0.1,0.34 0.15,0.51l0 0.05 0.01 0 0.06 0.22 0 0.01 0 0c0.03,0.09 0.05,0.19 0.08,0.28l0 0.04 0.01 0c0.05,0.18 0.1,0.36 0.15,0.54l0 0 0 0c0.11,0.41 0.21,0.82 0.31,1.24l0 0.02 0.01 0c0.02,0.1 0.05,0.2 0.07,0.3l0 0.01 0 0c0.05,0.23 0.1,0.45 0.15,0.68l0 0.03 0.01 0c0.11,0.49 0.21,0.99 0.31,1.49l0 0 0 0c0.03,0.14 0.05,0.27 0.08,0.41l0 0.06 0.01 0c0.02,0.12 0.04,0.24 0.07,0.36l0 0.03 0 0c0.03,0.15 0.05,0.29 0.07,0.44l0 0.03 0.01 0c0.05,0.31 0.1,0.62 0.15,0.94l0 0.01 0 0c0.06,0.37 0.11,0.74 0.16,1.12l0 0.06 0.01 0c0.03,0.2 0.05,0.39 0.07,0.59l0 0.04 0 0c0.06,0.49 0.11,0.98 0.15,1.47l0 0.1 0.01 0c0.02,0.27 0.05,0.54 0.07,0.82l0 0.2 0.01 0c0.1,1.32 0.14,2.66 0.14,4.01l0 289.82c0,1.35 -0.05,2.68 -0.14,4.01l-0.01 0 0 0.21c-0.02,0.3 -0.05,0.59 -0.08,0.89l-0 0 0 0.03c-0.04,0.49 -0.1,0.98 -0.15,1.47l-0.01 0 0 0.05c-0.02,0.19 -0.04,0.39 -0.07,0.58l-0.01 0 0 0.07c-0.02,0.19 -0.05,0.37 -0.08,0.56l-0 0 0 0.01c-0.07,0.5 -0.15,0.99 -0.23,1.49l-0.01 0 0 0.05c-0.02,0.14 -0.04,0.29 -0.07,0.43l-0.01 0 0 0.05c-0.05,0.27 -0.1,0.54 -0.16,0.81l-0 0 0 0.02c-0.1,0.49 -0.2,0.99 -0.3,1.48l-0.01 0 0 0.04c-0.03,0.12 -0.05,0.23 -0.08,0.35l-0 0 0 0.01 -0.07 0.3 -0.01 0 0 0.03c-0.02,0.09 -0.05,0.19 -0.07,0.28l-0.01 0 0 0.04c-0.12,0.51 -0.26,1.02 -0.39,1.53l0 0 0 0c-0.05,0.18 -0.1,0.37 -0.15,0.55l-0.01 0 0 0.03c-0.05,0.17 -0.1,0.35 -0.15,0.52l-0 0 0 0.01c-0.26,0.9 -0.55,1.78 -0.85,2.66l-0.01 0 0 0.03 -0.07 0.2 -0.01 0 0 0.02 -0.08 0.22 -0 0 0 0.01c-0.15,0.42 -0.31,0.84 -0.47,1.25l-0 0 0 0.01c-0.05,0.13 -0.1,0.25 -0.15,0.38l-0.01 0 0 0.03c-0.05,0.12 -0.1,0.24 -0.15,0.36l-0.01 0 0 0.02 -0.15 0.37 -0.01 0 0 0.01c-0.15,0.36 -0.3,0.73 -0.46,1.09l-0.01 0 0 0.02c-0.08,0.18 -0.15,0.36 -0.23,0.53l-0 0 0 0.01 -0.07 0.15 -0.01 0 0 0.02c-0.27,0.6 -0.56,1.2 -0.85,1.79l-0.01 0 0 0.02 -0.07 0.14 -0.01 0 0 0.02 -0.07 0.13 -0.01 0 0 0.02 -0.06 0.13 -0.01 0 0 0.02 -0.07 0.13 -0.01 0 0 0.02 -0.07 0.14 -0 0 0 0.01 -0.08 0.15 -0 0 0 0c-0.3,0.58 -0.62,1.16 -0.94,1.73l-0 0 0 0.01c-0.07,0.13 -0.15,0.26 -0.22,0.39l-0.01 0 0 0.03 -0.08 0.13 -0 0 0 0c-0.08,0.13 -0.15,0.26 -0.23,0.39l-0 0 0 0.01c-0.15,0.26 -0.31,0.52 -0.47,0.78l-0 0 0 0c-0.13,0.21 -0.26,0.42 -0.39,0.63l-0 0 0 0c-0.05,0.08 -0.1,0.16 -0.15,0.23l-0.01 0 0 0.02c-0.05,0.07 -0.1,0.14 -0.14,0.22l-0.01 0 0 0.02c-0.3,0.47 -0.62,0.93 -0.93,1.39l-0.01 0 0 0.01 -0.16 0.22 -0 0 0 0c-0.13,0.18 -0.26,0.36 -0.39,0.55l-0.01 0 0 0.01c-0.28,0.39 -0.57,0.78 -0.86,1.17l-0 0 0 0c-0.18,0.24 -0.36,0.47 -0.54,0.7l-0.01 0 0 0.01c-0.1,0.13 -0.2,0.25 -0.3,0.38l-0.01 0 0 0.01c-0.36,0.45 -0.72,0.89 -1.09,1.32l-0.01 0 0 0.01c-0.13,0.15 -0.26,0.31 -0.39,0.46l-0 0 0 0 -0.07 0.07 -0.01 0 0 0.01c-0.46,0.53 -0.93,1.05 -1.41,1.56l-0 0 0 0 -0.07 0.07 -0.01 0 0 0.01 -0.06 0.07 -0.02 0 0 0.02 -0.06 0.06 -0.02 0 0 0.02c-0.68,0.72 -1.39,1.42 -2.11,2.1l-0.02 0 0 0.01 -0.07 0.06 -0.01 0 0 0.01 -0.07 0.07 -0 0 0 0c-0.51,0.48 -1.03,0.95 -1.56,1.41l-0.02 0 0 0.01 -0.07 0.06 -0.01 0 0 0.01c-0.18,0.16 -0.37,0.31 -0.55,0.47l0 0 0 0c-0.41,0.35 -0.82,0.69 -1.24,1.02l-0.01 0 0 0.01c-0.13,0.1 -0.25,0.2 -0.38,0.3l-0.01 0 0 0.01c-0.23,0.18 -0.47,0.36 -0.7,0.54l-0 0 0 0c-0.21,0.16 -0.42,0.31 -0.63,0.47l-0 0 0 0c-0.18,0.13 -0.36,0.26 -0.54,0.39l-0.01 0 0 0.01c-0.18,0.13 -0.36,0.26 -0.54,0.38l-0.01 0 0 0c-0.61,0.43 -1.23,0.85 -1.86,1.25l-0.03 0 0 0.02c-0.07,0.05 -0.15,0.09 -0.23,0.14l-0.01 0 0 0.01c-0.46,0.29 -0.93,0.58 -1.4,0.86l-0.01 0 0 0.01c-0.13,0.08 -0.26,0.15 -0.38,0.23l-0.01 0 0 0c-0.18,0.1 -0.36,0.21 -0.54,0.31l-0.01 0 0 0.01c-0.52,0.29 -1.04,0.58 -1.57,0.86l0 0 0 0 -0.15 0.08 -0.01 0 0 0 -0.14 0.07 -0.02 0 0 0.01 -0.13 0.07 -0.03 0 0 0.01 -0.13 0.06 -0.03 0 0 0.02 -0.13 0.06 -0.03 0 0 0.01c-0.42,0.21 -0.83,0.42 -1.25,0.61l-0 0 0 0c-0.28,0.13 -0.56,0.26 -0.84,0.39l-0.03 0 0 0.01 -0.14 0.07 -0.01 0 0 0c-0.23,0.11 -0.47,0.21 -0.7,0.31l-0 0 0 0c-0.43,0.19 -0.87,0.37 -1.31,0.55l-0.03 0 0 0.01c-0.12,0.05 -0.24,0.1 -0.36,0.15l-0.04 0 0 0.02c-0.12,0.05 -0.25,0.09 -0.37,0.14l-0.02 0 0 0.01c-0.34,0.13 -0.68,0.26 -1.02,0.39 -0.07,0.03 -0.15,0.05 -0.22,0.08l-0.01 0 0 0c-0.86,0.31 -1.72,0.59 -2.59,0.86 -0.17,0.05 -0.35,0.1 -0.53,0.16l-0.02 0 0 0.01c-0.17,0.05 -0.34,0.1 -0.51,0.15l-0.04 0 0 0.01c-0.18,0.05 -0.36,0.1 -0.54,0.15l-0.01 0 0 0c-0.51,0.14 -1.01,0.27 -1.53,0.39l-0.05 0 0 0.01c-0.09,0.02 -0.18,0.05 -0.27,0.07l-0.04 0 0 0.01 -0.3 0.07 -0.02 0 0 0c-0.23,0.05 -0.47,0.1 -0.7,0.15l-0 0 0 0c-0.38,0.08 -0.77,0.16 -1.15,0.23l-0.02 0 0 0c-0.13,0.02 -0.26,0.05 -0.39,0.07l-0.01 0 0 0c-0.14,0.03 -0.28,0.05 -0.42,0.08l-0.06 0 0 0.01c-0.14,0.02 -0.28,0.05 -0.42,0.07l-0.05 0 0 0.01c-0.49,0.08 -0.99,0.16 -1.48,0.23l-0.01 0 0 0c-0.18,0.03 -0.36,0.05 -0.55,0.08l-0.08 0 0 0.01c-0.19,0.03 -0.38,0.05 -0.58,0.07l-0.05 0 0 0.01c-0.48,0.06 -0.97,0.11 -1.46,0.15l-0.03 0 0 0c-0.29,0.03 -0.59,0.05 -0.88,0.08l-0.22 0 0 0.01c-1.32,0.1 -2.66,0.14 -4.01,0.14l-289.82 0c-1.35,0 -2.69,-0.05 -4.01,-0.14z"/>
  <g style="clip-path:url(#id0)">
   <g id="_3045514298528">
    <rect class="fil1" transform="matrix(0.510268 -0.510268 0.510268 0.510268 262.821 3.4246)" width="273.82" height="273.82"/>
   </g>
  </g>
  <path class="fil2" d="M52.26 402.21l0 -0.01 -0.21 0c-0.27,-0.02 -0.54,-0.05 -0.81,-0.07l0 -0.01 -0.1 0c-0.49,-0.04 -0.99,-0.1 -1.47,-0.15l0 -0 -0.04 0c-0.2,-0.02 -0.39,-0.04 -0.59,-0.07l0 -0.01 -0.06 0c-0.37,-0.05 -0.74,-0.1 -1.12,-0.16l0 -0 -0 0c-0.31,-0.05 -0.63,-0.1 -0.94,-0.15l0 -0 -0.03 0c-0.15,-0.03 -0.29,-0.05 -0.44,-0.07l0 -0.01 -0.03 0c-0.12,-0.02 -0.24,-0.04 -0.36,-0.07l0 -0.01 -0.06 0c-0.14,-0.03 -0.27,-0.05 -0.41,-0.08l0 0 -0 0c-0.5,-0.1 -1,-0.2 -1.49,-0.31l0 -0 -0.03 0c-0.23,-0.05 -0.45,-0.1 -0.68,-0.15l0 -0 -0.02 0c-0.1,-0.02 -0.2,-0.05 -0.3,-0.07l0 -0 -0.02 0c-0.41,-0.1 -0.83,-0.2 -1.23,-0.31l0 -0 -0.01 0c-0.18,-0.05 -0.36,-0.1 -0.54,-0.15l0 -0.01 -0.03 0c-0.09,-0.03 -0.19,-0.05 -0.28,-0.08l0 -0 -0.01 0 -0.22 -0.06 0 -0.01 -0.04 0c-0.17,-0.05 -0.34,-0.1 -0.51,-0.15l0 -0.01 -0.02 0c-0.33,-0.1 -0.67,-0.2 -1,-0.31l0 -0 -0.02 0 -0.22 -0.07 0 -0.01 -0.02 0 -0.21 -0.07 0 -0.01 -0.03 0 -0.21 -0.07 0 -0.01 -0.03 0 -0.2 -0.07 0 -0.01 -0.03 0c-0.07,-0.02 -0.13,-0.05 -0.2,-0.07l0 -0.01 -0.02 0 -0.22 -0.08 0 -0 -0.01 0c-0.5,-0.18 -0.99,-0.36 -1.49,-0.54l0 -0.01 -0.02 0c-0.13,-0.05 -0.25,-0.09 -0.38,-0.14l0 -0.01 -0.04 0 -0.2 -0.08 0 -0 -0 0c-0.45,-0.18 -0.89,-0.36 -1.33,-0.55l0 -0 -0 0c-0.24,-0.1 -0.47,-0.2 -0.7,-0.31l0 -0.01 -0.01 0c-0.23,-0.1 -0.46,-0.21 -0.69,-0.31l0 -0 -0.01 0 -0.15 -0.07 0 -0.01 -0.02 0c-1.31,-0.61 -2.58,-1.26 -3.83,-1.96l0 -0.01 -0.01 0c-0.18,-0.1 -0.36,-0.2 -0.54,-0.3l0 -0.01 -0.02 0c-0.18,-0.1 -0.35,-0.21 -0.53,-0.31l0 -0 -0 0c-0.48,-0.28 -0.95,-0.57 -1.41,-0.86l0 -0 -0 0c-0.08,-0.05 -0.15,-0.1 -0.23,-0.14l0 -0.01 -0.02 0c-0.36,-0.23 -0.72,-0.47 -1.08,-0.71l0 0 0 0 -0.24 -0.16c-0.26,-0.18 -0.52,-0.36 -0.79,-0.54l0 -0 -0.01 0c-0.18,-0.13 -0.36,-0.26 -0.54,-0.39l0 -0 -0.01 0c-0.29,-0.21 -0.57,-0.42 -0.86,-0.63l0 -0 -0 0c-0.24,-0.18 -0.47,-0.36 -0.7,-0.54l0 -0.01 -0.01 0c-0.1,-0.08 -0.2,-0.15 -0.3,-0.23l0 -0 -0 0 -0.07 -0.06 0 -0.02 -0.02 0c-0.1,-0.08 -0.19,-0.16 -0.29,-0.23l0 -0 -0 0c-0.29,-0.23 -0.58,-0.47 -0.86,-0.7l0 -0 -0 0c-0.18,-0.15 -0.36,-0.31 -0.55,-0.46l0 -0.01 -0.01 0c-0.18,-0.16 -0.36,-0.31 -0.54,-0.47l0 -0 -0 0 -0.07 -0.07 0 -0.01 -0.01 0c-0.61,-0.54 -1.21,-1.09 -1.79,-1.65l0 -0 0 0 -0.08 -0.08 0 -0 -0 0 -0.08 -0.07 0 -0 -0 0 -0.07 -0.07 0 -0.01 -0.01 0 -0.07 -0.07 0 -0.01 -0.01 0c-0.32,-0.31 -0.63,-0.62 -0.93,-0.93l0 -0.01 -0.01 0 -0.07 -0.07 0 -0.01 -0.01 0 -0.07 -0.07 0 -0 -0 0 -0.07 -0.08 0 -0 -0 0 -0.08 -0.08 0 0 0 0c-0.56,-0.59 -1.11,-1.18 -1.65,-1.79l0 -0.01 -0.01 0 -0.06 -0.07 0 -0 -0 0c-0.16,-0.18 -0.31,-0.36 -0.47,-0.54l0 -0.01 -0.01 0c-0.16,-0.18 -0.31,-0.36 -0.46,-0.55l0 -0 -0 0c-0.24,-0.29 -0.47,-0.57 -0.7,-0.86l0 -0 -0 0c-0.08,-0.1 -0.16,-0.19 -0.23,-0.29l0 -0.02 -0.02 0 -0.06 -0.07 0 -0 -0 0c-0.08,-0.1 -0.15,-0.2 -0.23,-0.3l0 -0.01 -0.01 0c-0.18,-0.23 -0.36,-0.47 -0.54,-0.71l0 -0 0 0c-0.21,-0.28 -0.42,-0.57 -0.63,-0.86l0 -0.01 -0.01 0c-0.13,-0.18 -0.26,-0.36 -0.39,-0.54l0 -0.01 -0 0c-0.18,-0.26 -0.37,-0.52 -0.54,-0.79 -0.05,-0.08 -0.1,-0.16 -0.16,-0.23l0 -0 0 0c-0.24,-0.36 -0.48,-0.72 -0.71,-1.08l0 -0.02 -0.01 0c-0.05,-0.08 -0.1,-0.15 -0.14,-0.23l0 -0 -0 0c-0.29,-0.47 -0.58,-0.94 -0.86,-1.41l0 -0 -0 0c-0.1,-0.18 -0.21,-0.35 -0.31,-0.53l0 -0.02 -0.01 0c-0.1,-0.18 -0.2,-0.36 -0.3,-0.54l0 -0.01 -0.01 0c-0.7,-1.25 -1.35,-2.53 -1.96,-3.83l0 -0.02 -0.01 0 -0.07 -0.15 0 -0.01 -0 0c-0.11,-0.23 -0.21,-0.46 -0.31,-0.69l0 -0.01 -0.01 0c-0.1,-0.23 -0.21,-0.47 -0.31,-0.7l0 -0 -0 0c-0.19,-0.44 -0.37,-0.89 -0.55,-1.33l0 -0 -0 0 -0.08 -0.2 0 -0.04 -0.01 0c-0.05,-0.13 -0.1,-0.25 -0.14,-0.38l0 -0.02 -0.01 0c-0.19,-0.49 -0.37,-0.99 -0.54,-1.49l0 -0.01 -0 0 -0.08 -0.22 0 -0.02 -0.01 0c-0.02,-0.07 -0.05,-0.13 -0.07,-0.2l0 -0.03 -0.01 0 -0.07 -0.2 0 -0.03 -0.01 0c-0.02,-0.07 -0.04,-0.14 -0.07,-0.21l0 -0.03 -0.01 0 -0.07 -0.21 0 -0.02 -0.01 0 -0.07 -0.22 0 -0.02 -0 0c-0.11,-0.33 -0.21,-0.67 -0.31,-1l0 -0.02 -0.01 0c-0.05,-0.17 -0.1,-0.34 -0.15,-0.51l0 -0.05 -0.01 0 -0.06 -0.22 0 -0.01 -0 0c-0.03,-0.09 -0.05,-0.19 -0.08,-0.28l0 -0.04 -0.01 0c-0.05,-0.18 -0.1,-0.36 -0.15,-0.54l0 -0.01 -0 0c-0.11,-0.41 -0.21,-0.82 -0.31,-1.24l0 -0.02 -0.01 0c-0.02,-0.1 -0.05,-0.2 -0.07,-0.3l0 -0.01 -0 0c-0.05,-0.23 -0.1,-0.45 -0.15,-0.68l0 -0.03 -0.01 0c-0.11,-0.49 -0.21,-0.99 -0.31,-1.49l0 -0 0 0c-0.03,-0.13 -0.05,-0.27 -0.08,-0.41l0 -0.06 -0.01 0c-0.02,-0.12 -0.05,-0.24 -0.07,-0.36l0 -0.03 -0.01 0c-0.03,-0.15 -0.05,-0.29 -0.07,-0.44l0 -0.03 -0 0c-0.05,-0.31 -0.1,-0.62 -0.15,-0.94l0 -0.01 0 0c-0.06,-0.37 -0.11,-0.74 -0.16,-1.12l0 -0.06 -0.01 0c-0.03,-0.2 -0.05,-0.39 -0.07,-0.59l0 -0.04 -0 0c-0.06,-0.49 -0.11,-0.98 -0.15,-1.47l0 -0.1 -0.01 0c-0.03,-0.27 -0.05,-0.54 -0.07,-0.81l0 -0.21 -0.01 0c-0.1,-1.32 -0.14,-2.66 -0.14,-4.01l0 -289.82c0,-1.35 0.05,-2.68 0.14,-4.01l0.01 0 0 -0.21c0.02,-0.27 0.04,-0.54 0.07,-0.81l0.01 0 0 -0.1c0.04,-0.49 0.1,-0.98 0.15,-1.47l0 0 0 -0.04c0.02,-0.2 0.04,-0.4 0.07,-0.59l0.01 0 0 -0.06c0.05,-0.37 0.1,-0.74 0.16,-1.11l0 0 0 -0.01c0.05,-0.31 0.1,-0.62 0.15,-0.94l0 0 0 -0.03c0.03,-0.15 0.05,-0.29 0.07,-0.44l0.01 0 0 -0.03c0.02,-0.12 0.04,-0.24 0.07,-0.36l0.01 0 0 -0.06c0.02,-0.14 0.05,-0.27 0.08,-0.41l0 0 0 -0c0.1,-0.5 0.2,-1 0.31,-1.49l0.01 0 0 -0.03c0.05,-0.23 0.1,-0.45 0.15,-0.68l0 0 0 -0.01c0.02,-0.1 0.05,-0.2 0.07,-0.3l0.01 0 0 -0.02c0.1,-0.41 0.2,-0.82 0.31,-1.23l0 0 0 -0.01c0.05,-0.18 0.1,-0.36 0.15,-0.54l0.01 0 0 -0.04c0.03,-0.09 0.05,-0.19 0.08,-0.28l0 0 0 -0.01 0.06 -0.22 0.01 0 0 -0.05c0.05,-0.17 0.1,-0.34 0.15,-0.51l0.01 0 0 -0.02c0.1,-0.34 0.2,-0.67 0.31,-1l0 0 0 -0.02 0.07 -0.22 0.01 0 0 -0.02 0.07 -0.21 0.01 0 0 -0.03 0.07 -0.21 0.01 0 0 -0.03 0.07 -0.2 0.01 0 0 -0.03c0.02,-0.07 0.05,-0.13 0.07,-0.2l0.01 0 0 -0.02 0.08 -0.22 0 0 0 -0.01c0.17,-0.5 0.35,-0.99 0.54,-1.49l0.01 0 0 -0.02c0.05,-0.13 0.1,-0.25 0.14,-0.38l0.01 0 0 -0.04 0.08 -0.2 0 0 0 -0c0.18,-0.45 0.36,-0.89 0.55,-1.33l0 0 0 -0c0.1,-0.24 0.2,-0.47 0.31,-0.7l0.01 0 0 -0.01c0.1,-0.23 0.21,-0.46 0.31,-0.69l0 0 0 -0.01 0.07 -0.15 0.01 0 0 -0.02c0.61,-1.31 1.26,-2.59 1.96,-3.84l0.01 0 0 -0.01c0.1,-0.18 0.2,-0.36 0.3,-0.54l0.01 0 0 -0.02c0.1,-0.18 0.21,-0.35 0.31,-0.53l0 0 0 -0c0.28,-0.48 0.57,-0.95 0.86,-1.41l0 0 0 -0.01c0.05,-0.08 0.1,-0.15 0.14,-0.23l0.01 0 0 -0.02c0.23,-0.36 0.47,-0.72 0.71,-1.08l0 0 0 -0 0.16 -0.23 0 0 0 0c0.18,-0.26 0.36,-0.53 0.54,-0.79l0 0 0 -0.01c0.13,-0.18 0.26,-0.36 0.39,-0.54l0.01 0 0 -0.01c0.21,-0.29 0.42,-0.57 0.63,-0.86l0 0 0 -0c0.18,-0.24 0.36,-0.47 0.54,-0.71l0.01 0 0 -0.01c0.08,-0.1 0.15,-0.2 0.23,-0.3l0 0 0 -0 0.06 -0.07 0.02 0 0 -0.02c0.08,-0.1 0.16,-0.19 0.23,-0.29l0 0 0 -0c0.23,-0.29 0.47,-0.58 0.7,-0.86l0 0 0 -0c0.15,-0.18 0.31,-0.37 0.46,-0.55l0.01 0 0 -0.01c0.16,-0.18 0.31,-0.36 0.47,-0.54l0 0 0 -0 0.06 -0.07 0.01 0 0 -0.01c0.54,-0.61 1.09,-1.21 1.65,-1.79l0 0 0 -0 0.08 -0.08 0 0 0 -0 0.07 -0.08 0 0 0 -0 0.07 -0.07 0.01 0 0 -0.01 0.07 -0.07 0.01 0 0 -0.01c0.31,-0.32 0.62,-0.63 0.93,-0.93l0.01 0 0 -0.01 0.07 -0.07 0.01 0 0 -0.01 0.07 -0.07 0 0 0 -0 0.08 -0.07 0 0 0 -0 0.08 -0.08 0 0 0 -0c0.59,-0.56 1.18,-1.11 1.79,-1.65l0.01 0 0 -0.01 0.07 -0.07 0 0 0 -0c0.18,-0.16 0.36,-0.31 0.54,-0.47l0.01 0 0 -0.01c0.18,-0.16 0.36,-0.31 0.55,-0.46l0 0 0 -0c0.28,-0.24 0.57,-0.47 0.86,-0.7l0 0 0 -0c0.1,-0.08 0.19,-0.16 0.29,-0.23l0.02 0 0 -0.02 0.07 -0.06 0 0 0 -0c0.1,-0.08 0.2,-0.16 0.3,-0.23l0.01 0 0 -0.01c0.23,-0.18 0.47,-0.36 0.7,-0.54l0 0 0 -0c0.28,-0.21 0.57,-0.42 0.86,-0.63l0.01 0 0 -0.01c0.18,-0.13 0.36,-0.26 0.54,-0.39l0.01 0 0 -0c0.34,-0.24 0.68,-0.47 1.02,-0.7l0 0 0 -0c0.36,-0.24 0.72,-0.48 1.08,-0.71l0.02 0 0 -0.01c0.08,-0.05 0.15,-0.1 0.23,-0.14l0 0 0 -0c0.47,-0.29 0.94,-0.58 1.41,-0.86l0 0 0 -0c0.18,-0.1 0.35,-0.21 0.53,-0.31l0.02 0 0 -0.01c0.18,-0.1 0.36,-0.2 0.54,-0.3l0.01 0 0 -0c1.25,-0.7 2.53,-1.35 3.83,-1.96l0.02 0 0 -0.01 0.15 -0.07 0 0 0 -0c0.23,-0.11 0.46,-0.21 0.69,-0.31l0.01 0 0 -0.01c0.23,-0.1 0.47,-0.21 0.7,-0.31l0 0 0 -0c0.44,-0.19 0.89,-0.37 1.33,-0.55l0 0 0 -0 0.2 -0.08 0.04 0 0 -0.01c0.13,-0.05 0.25,-0.1 0.38,-0.14l0.02 0 0 -0.01c0.49,-0.19 0.99,-0.37 1.49,-0.54l0.01 0 0 -0 0.22 -0.08 0.02 0 0 -0.01c0.07,-0.02 0.13,-0.05 0.2,-0.07l0.03 0 0 -0.01 0.2 -0.07 0.03 0 0 -0.01c0.07,-0.02 0.14,-0.04 0.21,-0.07l0.03 0 0 -0.01 0.21 -0.07 0.02 0 0 -0.01 0.22 -0.07 0.02 0 0 -0.01c0.33,-0.11 0.67,-0.21 1,-0.31l0.02 0 0 -0.01c0.17,-0.05 0.34,-0.1 0.51,-0.15l0.04 0 0 -0.01 0.22 -0.07 0.01 0 0 -0c0.09,-0.03 0.19,-0.05 0.28,-0.07l0.03 0 0 -0.01c0.18,-0.05 0.36,-0.1 0.54,-0.15l0.01 0 0 -0c0.41,-0.11 0.82,-0.21 1.23,-0.31l0.02 0 0 -0c0.1,-0.03 0.2,-0.05 0.3,-0.07l0.02 0 0 -0c0.22,-0.05 0.45,-0.1 0.68,-0.15l0.03 0 0 -0c0.49,-0.11 0.99,-0.21 1.49,-0.31l0 0 0 0c0.14,-0.03 0.27,-0.05 0.41,-0.08l0.06 0 0 -0.01c0.12,-0.02 0.24,-0.04 0.36,-0.06l0.03 0 0 -0.01c0.15,-0.03 0.29,-0.05 0.44,-0.07l0.03 0 0 -0.01c0.31,-0.05 0.62,-0.1 0.94,-0.15l0 0 0 -0c0.37,-0.06 0.74,-0.11 1.12,-0.16l0.06 0 0 -0.01c0.2,-0.03 0.39,-0.05 0.59,-0.07l0.04 0 0 -0c0.49,-0.06 0.98,-0.11 1.47,-0.15l0.1 0 0 -0.01c0.27,-0.02 0.54,-0.05 0.82,-0.07l0.21 0 0 -0.01c1.32,-0.1 2.66,-0.14 4.01,-0.14l289.82 0c1.35,0 2.68,0.05 4.01,0.14l0 0.01 0.2 0c0.27,0.02 0.54,0.05 0.82,0.07l0 0.01 0.1 0c0.49,0.04 0.98,0.1 1.47,0.15l0 0 0.04 0c0.2,0.02 0.39,0.04 0.59,0.07l0 0.01 0.06 0c0.37,0.05 0.74,0.1 1.12,0.16l0 0 0.01 0c0.31,0.05 0.63,0.1 0.94,0.15l0 0.01 0.03 0c0.15,0.02 0.29,0.05 0.44,0.07l0 0.01 0.03 0c0.12,0.02 0.24,0.04 0.36,0.06l0 0.01 0.06 0c0.14,0.03 0.27,0.05 0.41,0.08l0 0 0 0c0.5,0.1 1,0.2 1.49,0.31l0 0 0.03 0c0.23,0.05 0.45,0.1 0.68,0.15l0 0 0.02 0c0.1,0.02 0.2,0.05 0.3,0.07l0 0 0.02 0c0.41,0.1 0.83,0.2 1.24,0.31l0 0 0 0c0.18,0.05 0.36,0.1 0.54,0.15l0 0.01 0.04 0c0.09,0.03 0.19,0.05 0.28,0.07l0 0 0.01 0 0.22 0.07 0 0.01 0.04 0c0.17,0.05 0.34,0.1 0.51,0.15l0 0.01 0.02 0c0.33,0.1 0.67,0.2 1,0.31l0 0.01 0.02 0 0.22 0.07 0 0.01 0.02 0 0.22 0.07 0 0.01 0.03 0 0.21 0.07 0 0.01 0.03 0 0.2 0.07 0 0.01 0.03 0c0.07,0.02 0.13,0.05 0.2,0.07l0 0.01 0.02 0 0.22 0.08 0 0 0.01 0c0.5,0.17 0.99,0.36 1.48,0.54l0 0 0.02 0c0.13,0.05 0.25,0.1 0.38,0.14l0 0.01 0.04 0 0.2 0.08 0 0 0 0c0.45,0.18 0.89,0.36 1.33,0.55l0 0 0 0c0.24,0.1 0.47,0.2 0.7,0.31l0 0.01 0.01 0c0.23,0.1 0.46,0.21 0.69,0.31l0 0 0 0 0.15 0.07 0 0.01 0.02 0c1.31,0.61 2.59,1.26 3.84,1.96l0 0 0.01 0c0.18,0.1 0.36,0.2 0.54,0.3l0 0.01 0.02 0c0.18,0.1 0.35,0.21 0.53,0.31l0 0 0 0c0.48,0.28 0.95,0.57 1.41,0.86l0 0 0.01 0c0.08,0.05 0.15,0.1 0.23,0.14l0 0.01 0.02 0c0.36,0.23 0.72,0.47 1.08,0.71l0 0 0 0c0.34,0.23 0.68,0.46 1.02,0.7l0 0 0.01 0c0.18,0.13 0.36,0.26 0.54,0.39l0 0.01 0.01 0c0.29,0.21 0.57,0.42 0.86,0.63l0 0 0 0c0.24,0.18 0.47,0.36 0.7,0.54l0 0.01 0.01 0c0.1,0.08 0.2,0.15 0.3,0.23l0 0 0 0 0.07 0.06 0 0.02 0.02 0c0.1,0.08 0.19,0.16 0.29,0.23l0 0 0 0c0.29,0.23 0.58,0.47 0.86,0.7l0 0 0 0c0.18,0.15 0.36,0.31 0.54,0.46l0 0.01 0.01 0c0.18,0.15 0.36,0.31 0.54,0.47l0 0 0 0 0.07 0.07 0 0.01 0.01 0c0.61,0.54 1.21,1.09 1.79,1.65l0 0 0 0 0.08 0.08 0 0 0 0 0.08 0.07 0 0 0 0 0.07 0.07 0 0.01 0.01 0 0.07 0.07 0 0.01 0.01 0c0.32,0.31 0.63,0.62 0.93,0.93l0 0.01 0.01 0 0.07 0.07 0 0.01 0.01 0 0.07 0.07 0 0 0 0 0.07 0.07 0 0 0 0 0.08 0.08 0 0 0 0c0.56,0.58 1.11,1.18 1.65,1.79l0 0.01 0.01 0 0.07 0.07 0 0 0 0c0.16,0.18 0.31,0.36 0.47,0.54l0 0.01 0.01 0c0.16,0.18 0.31,0.36 0.46,0.54l0 0 0 0c0.24,0.29 0.47,0.57 0.7,0.86l0 0 0 0c0.08,0.1 0.16,0.19 0.23,0.29l0 0.02 0.02 0 0.06 0.07 0 0 0 0c0.08,0.1 0.16,0.2 0.23,0.3l0 0.01 0.01 0c0.18,0.23 0.36,0.47 0.54,0.7l0 0 0 0c0.21,0.28 0.42,0.57 0.63,0.86l0 0.01 0.01 0c0.13,0.18 0.26,0.36 0.39,0.54l0 0.01 0 0c0.24,0.34 0.47,0.68 0.7,1.02l0 0 0 0c0.24,0.36 0.48,0.72 0.71,1.08l0 0.02 0.01 0c0.05,0.08 0.1,0.15 0.14,0.23l0 0 0 0c0.29,0.47 0.58,0.94 0.86,1.41l0 0 0 0c0.1,0.18 0.21,0.35 0.31,0.53l0 0.02 0.01 0c0.1,0.18 0.2,0.36 0.3,0.54l0 0.01 0 0c0.7,1.25 1.35,2.53 1.96,3.84l0 0.02 0.01 0 0.07 0.15 0 0.01 0 0c0.11,0.23 0.21,0.46 0.31,0.69l0 0.01 0.01 0c0.1,0.23 0.21,0.47 0.31,0.7l0 0 0 0c0.19,0.44 0.37,0.88 0.55,1.33l0 0 0 0 0.08 0.2 0 0.04 0.01 0c0.05,0.13 0.1,0.25 0.14,0.38l0 0.02 0.01 0c0.19,0.49 0.37,0.99 0.54,1.49l0 0.01 0 0 0.08 0.22 0 0.02 0.01 0c0.02,0.07 0.05,0.13 0.07,0.2l0 0.03 0.01 0 0.07 0.2 0 0.03 0.01 0c0.02,0.07 0.04,0.14 0.07,0.21l0 0.03 0.01 0 0.07 0.21 0 0.02 0.01 0 0.07 0.22 0 0.02 0 0c0.11,0.33 0.21,0.67 0.31,1l0 0.02 0.01 0c0.05,0.17 0.1,0.34 0.15,0.51l0 0.05 0.01 0 0.06 0.22 0 0.01 0 0c0.03,0.09 0.05,0.19 0.08,0.28l0 0.04 0.01 0c0.05,0.18 0.1,0.36 0.15,0.54l0 0 0 0c0.11,0.41 0.21,0.82 0.31,1.24l0 0.02 0.01 0c0.02,0.1 0.05,0.2 0.07,0.3l0 0.01 0 0c0.05,0.23 0.1,0.45 0.15,0.68l0 0.03 0.01 0c0.11,0.49 0.21,0.99 0.31,1.49l0 0 0 0c0.03,0.14 0.05,0.27 0.08,0.41l0 0.06 0.01 0c0.02,0.12 0.04,0.24 0.07,0.36l0 0.03 0 0c0.03,0.15 0.05,0.29 0.07,0.44l0 0.03 0.01 0c0.05,0.31 0.1,0.62 0.15,0.94l0 0.01 0 0c0.06,0.37 0.11,0.74 0.16,1.12l0 0.06 0.01 0c0.03,0.2 0.05,0.39 0.07,0.59l0 0.04 0 0c0.06,0.49 0.11,0.98 0.15,1.47l0 0.1 0.01 0c0.02,0.27 0.05,0.54 0.07,0.82l0 0.2 0.01 0c0.1,1.32 0.14,2.66 0.14,4.01l0 289.82c0,1.35 -0.05,2.68 -0.14,4.01l-0.01 0 0 0.21c-0.02,0.3 -0.05,0.59 -0.08,0.89l-0 0 0 0.03c-0.04,0.49 -0.1,0.98 -0.15,1.47l-0.01 0 0 0.05c-0.02,0.19 -0.04,0.39 -0.07,0.58l-0.01 0 0 0.07c-0.02,0.19 -0.05,0.37 -0.08,0.56l-0 0 0 0.01c-0.07,0.5 -0.15,0.99 -0.23,1.49l-0.01 0 0 0.05c-0.02,0.14 -0.04,0.29 -0.07,0.43l-0.01 0 0 0.05c-0.05,0.27 -0.1,0.54 -0.16,0.81l-0 0 0 0.02c-0.1,0.49 -0.2,0.99 -0.3,1.48l-0.01 0 0 0.04c-0.03,0.12 -0.05,0.23 -0.08,0.35l-0 0 0 0.01 -0.07 0.3 -0.01 0 0 0.03c-0.02,0.09 -0.05,0.19 -0.07,0.28l-0.01 0 0 0.04c-0.12,0.51 -0.26,1.02 -0.39,1.53l0 0 0 0c-0.05,0.18 -0.1,0.37 -0.15,0.55l-0.01 0 0 0.03c-0.05,0.17 -0.1,0.35 -0.15,0.52l-0 0 0 0.01c-0.26,0.9 -0.55,1.78 -0.85,2.66l-0.01 0 0 0.03 -0.07 0.2 -0.01 0 0 0.02 -0.08 0.22 -0 0 0 0.01c-0.15,0.42 -0.31,0.84 -0.47,1.25l-0 0 0 0.01c-0.05,0.13 -0.1,0.25 -0.15,0.38l-0.01 0 0 0.03c-0.05,0.12 -0.1,0.24 -0.15,0.36l-0.01 0 0 0.02 -0.15 0.37 -0.01 0 0 0.01c-0.15,0.36 -0.3,0.73 -0.46,1.09l-0.01 0 0 0.02c-0.08,0.18 -0.15,0.36 -0.23,0.53l-0 0 0 0.01 -0.07 0.15 -0.01 0 0 0.02c-0.27,0.6 -0.56,1.2 -0.85,1.79l-0.01 0 0 0.02 -0.07 0.14 -0.01 0 0 0.02 -0.07 0.13 -0.01 0 0 0.02 -0.06 0.13 -0.01 0 0 0.02 -0.07 0.13 -0.01 0 0 0.02 -0.07 0.14 -0 0 0 0.01 -0.08 0.15 -0 0 0 0c-0.3,0.58 -0.62,1.16 -0.94,1.73l-0 0 0 0.01c-0.07,0.13 -0.15,0.26 -0.22,0.39l-0.01 0 0 0.03 -0.08 0.13 -0 0 0 0c-0.08,0.13 -0.15,0.26 -0.23,0.39l-0 0 0 0.01c-0.15,0.26 -0.31,0.52 -0.47,0.78l-0 0 0 0c-0.13,0.21 -0.26,0.42 -0.39,0.63l-0 0 0 0c-0.05,0.08 -0.1,0.16 -0.15,0.23l-0.01 0 0 0.02c-0.05,0.07 -0.1,0.14 -0.14,0.22l-0.01 0 0 0.02c-0.3,0.47 -0.62,0.93 -0.93,1.39l-0.01 0 0 0.01 -0.16 0.22 -0 0 0 0c-0.13,0.18 -0.26,0.36 -0.39,0.55l-0.01 0 0 0.01c-0.28,0.39 -0.57,0.78 -0.86,1.17l-0 0 0 0c-0.18,0.24 -0.36,0.47 -0.54,0.7l-0.01 0 0 0.01c-0.1,0.13 -0.2,0.25 -0.3,0.38l-0.01 0 0 0.01c-0.36,0.45 -0.72,0.89 -1.09,1.32l-0.01 0 0 0.01c-0.13,0.15 -0.26,0.31 -0.39,0.46l-0 0 0 0 -0.07 0.07 -0.01 0 0 0.01c-0.46,0.53 -0.93,1.05 -1.41,1.56l-0 0 0 0 -0.07 0.07 -0.01 0 0 0.01 -0.06 0.07 -0.02 0 0 0.02 -0.06 0.06 -0.02 0 0 0.02c-0.68,0.72 -1.39,1.42 -2.11,2.1l-0.02 0 0 0.01 -0.07 0.06 -0.01 0 0 0.01 -0.07 0.07 -0 0 0 0c-0.51,0.48 -1.03,0.95 -1.56,1.41l-0.02 0 0 0.01 -0.07 0.06 -0.01 0 0 0.01c-0.18,0.16 -0.37,0.31 -0.55,0.47l0 0 0 0c-0.41,0.35 -0.82,0.69 -1.24,1.02l-0.01 0 0 0.01c-0.13,0.1 -0.25,0.2 -0.38,0.3l-0.01 0 0 0.01c-0.23,0.18 -0.47,0.36 -0.7,0.54l-0 0 0 0c-0.21,0.16 -0.42,0.31 -0.63,0.47l-0 0 0 0c-0.18,0.13 -0.36,0.26 -0.54,0.39l-0.01 0 0 0.01c-0.18,0.13 -0.36,0.26 -0.54,0.38l-0.01 0 0 0c-0.61,0.43 -1.23,0.85 -1.86,1.25l-0.03 0 0 0.02c-0.07,0.05 -0.15,0.09 -0.23,0.14l-0.01 0 0 0.01c-0.46,0.29 -0.93,0.58 -1.4,0.86l-0.01 0 0 0.01c-0.13,0.08 -0.26,0.15 -0.38,0.23l-0.01 0 0 0c-0.18,0.1 -0.36,0.21 -0.54,0.31l-0.01 0 0 0.01c-0.52,0.29 -1.04,0.58 -1.57,0.86l0 0 0 0 -0.15 0.08 -0.01 0 0 0 -0.14 0.07 -0.02 0 0 0.01 -0.13 0.07 -0.03 0 0 0.01 -0.13 0.06 -0.03 0 0 0.02 -0.13 0.06 -0.03 0 0 0.01c-0.42,0.21 -0.83,0.42 -1.25,0.61l-0 0 0 0c-0.28,0.13 -0.56,0.26 -0.84,0.39l-0.03 0 0 0.01 -0.14 0.07 -0.01 0 0 0c-0.23,0.11 -0.47,0.21 -0.7,0.31l-0 0 0 0c-0.43,0.19 -0.87,0.37 -1.31,0.55l-0.03 0 0 0.01c-0.12,0.05 -0.24,0.1 -0.36,0.15l-0.04 0 0 0.02c-0.12,0.05 -0.25,0.09 -0.37,0.14l-0.02 0 0 0.01c-0.34,0.13 -0.68,0.26 -1.02,0.39 -0.07,0.03 -0.15,0.05 -0.22,0.08l-0.01 0 0 0c-0.86,0.31 -1.72,0.59 -2.59,0.86 -0.17,0.05 -0.35,0.1 -0.53,0.16l-0.02 0 0 0.01c-0.17,0.05 -0.34,0.1 -0.51,0.15l-0.04 0 0 0.01c-0.18,0.05 -0.36,0.1 -0.54,0.15l-0.01 0 0 0c-0.51,0.14 -1.01,0.27 -1.53,0.39l-0.05 0 0 0.01c-0.09,0.02 -0.18,0.05 -0.27,0.07l-0.04 0 0 0.01 -0.3 0.07 -0.02 0 0 0c-0.23,0.05 -0.47,0.1 -0.7,0.15l-0 0 0 0c-0.38,0.08 -0.77,0.16 -1.15,0.23l-0.02 0 0 0c-0.13,0.02 -0.26,0.05 -0.39,0.07l-0.01 0 0 0c-0.14,0.03 -0.28,0.05 -0.42,0.08l-0.06 0 0 0.01c-0.14,0.02 -0.28,0.05 -0.42,0.07l-0.05 0 0 0.01c-0.49,0.08 -0.99,0.16 -1.48,0.23l-0.01 0 0 0c-0.18,0.03 -0.36,0.05 -0.55,0.08l-0.08 0 0 0.01c-0.19,0.03 -0.38,0.05 -0.58,0.07l-0.05 0 0 0.01c-0.48,0.06 -0.97,0.11 -1.46,0.15l-0.03 0 0 0c-0.29,0.03 -0.59,0.05 -0.88,0.08l-0.22 0 0 0.01c-1.32,0.1 -2.66,0.14 -4.01,0.14l-289.82 0c-1.35,0 -2.69,-0.05 -4.01,-0.14z"/>
  <g id="_3045514299536">
   <path class="fil3 str0" d="M228.21 303.51l-25.06 -35.77c-0.6,-0.82 -1.47,-1.25 -2.4,-1.31 -0.11,0 -0.16,-0.06 -0.27,-0.06 -1.15,0 -2.08,0.55 -2.68,1.47l-19.5 29.93 -4.31 6.66 25.88 -8.14c0.71,-0.22 1.47,-0.27 2.18,-0.06l26.16 7.26zm82.79 -110.58c0,48.44 -31.56,90.76 -77.43,104.85l7.04 10.1c0.93,1.31 0.93,3.06 0,4.42 -0.93,1.31 -2.62,1.91 -4.15,1.47l-35.39 -9.83 -35 11.03c-0.38,0.11 -0.77,0.16 -1.15,0.16 -1.2,0 -2.29,-0.55 -3.06,-1.53 -0.98,-1.26 -1.04,-3.06 -0.16,-4.37l7.37 -11.36c-45.98,-14.03 -77.71,-56.41 -77.71,-104.96 0,-17.09 3.82,-33.47 11.36,-48.66 0.93,-1.91 3.28,-2.68 5.13,-1.75 1.91,0.93 2.68,3.22 1.75,5.13 -6.99,14.14 -10.54,29.38 -10.54,45.27 0,45.93 30.42,85.96 74.32,98.3l6.61 -10.16c-40.57,-9.67 -69.52,-45.82 -69.52,-88.14 0,-50.02 40.68,-90.76 90.7,-90.76 50.08,0 90.76,40.74 90.76,90.76 0,36.7 -21.9,69.57 -55.75,83.77 -1.58,0.66 -3.39,0.16 -4.42,-1.09 -0.27,-0.27 -0.44,-0.6 -0.6,-0.98 -0.82,-1.97 0.11,-4.2 2.02,-5.02 31.02,-12.94 51.11,-43.03 51.11,-76.67 0,-45.82 -37.3,-83.06 -83.12,-83.06 -0.16,0 -0.27,0 -0.44,0 -45.6,0.22 -82.62,37.41 -82.62,83.06 0,39.65 27.8,73.4 66.35,81.31l6.88 -10.59c1.97,-3.06 5.35,-4.92 8.96,-4.97 3.66,0.05 7.04,1.69 9.12,4.64l13.11 18.73 6.44 9.23c43.91,-12.4 74.38,-52.42 74.38,-98.35 0,-56.3 -45.82,-102.12 -102.17,-102.12 -29.54,0 -57.61,12.78 -77.05,35.06 -1.36,1.58 -3.77,1.75 -5.41,0.38 -1.58,-1.42 -1.75,-3.82 -0.33,-5.41 20.86,-23.97 51.06,-37.73 82.79,-37.73 60.56,0 109.82,49.26 109.82,109.82z"/>
   <path class="fil3 str0" d="M242.24 227.99l0 -19.06c0,-10.76 -8.3,-19.61 -18.84,-20.43l-2.78 3.06c-4.97,5.46 -12.01,8.57 -19.44,8.57 -7.37,0 -14.47,-3.11 -19.44,-8.57l-2.73 -3.06c-10.54,0.82 -18.89,9.67 -18.89,20.43l0 19.06c0,4.86 3.99,8.79 8.85,8.79l5.95 0 0 -21.68c0,-2.08 1.75,-3.82 3.88,-3.82 2.08,0 3.82,1.75 3.82,3.82l0 21.68 37.19 0 0 -21.68c0,-2.08 1.69,-3.82 3.82,-3.82 2.13,0 3.82,1.75 3.82,3.82l0 21.68 6.01 0c4.86,0 8.79,-3.93 8.79,-8.79zm7.7 -19.06l0 19.06c0,9.06 -7.43,16.49 -16.49,16.49l-64.49 0c-9.12,0 -16.49,-7.43 -16.49,-16.49l0 -19.06c0,-15.51 12.61,-28.18 28.18,-28.18 1.09,0 2.13,0.49 2.84,1.26l3.93 4.37c3.6,3.93 8.47,6.12 13.76,6.12 5.3,0 10.21,-2.18 13.76,-6.12l3.99 -4.37c0.71,-0.77 1.75,-1.26 2.84,-1.26 15.51,0 28.18,12.67 28.18,28.18z"/>
   <path class="fil3 str0" d="M216.74 144.16c0,-2.68 -1.31,-5.13 -3.55,-6.55 -2.84,-1.86 -7.32,-4.1 -12.07,-4.1 -4.37,0 -8.79,2.08 -11.69,3.77 -2.35,1.37 -3.77,3.99 -3.77,6.77 0,5.84 1.26,11.3 3.66,15.84 3.22,6.12 7.21,9.12 11.74,9.01 4.75,0.06 8.74,-2.84 11.96,-8.9 2.4,-4.59 3.71,-10.05 3.71,-15.84zm7.7 0c0,7.04 -1.64,13.76 -4.64,19.44 -4.53,8.52 -10.81,12.94 -18.19,12.94 -0.16,0 -0.38,0 -0.55,0 -3.28,0.11 -7.54,-0.71 -11.69,-4.2 -2.4,-2.02 -4.7,-4.86 -6.83,-8.85 -3,-5.63 -4.59,-12.34 -4.59,-19.33 0,-5.63 2.89,-10.7 7.54,-13.49 5.46,-3.22 10.7,-4.86 15.62,-4.86 6.66,0 12.5,2.89 16.27,5.35 4.37,2.84 7.04,7.7 7.04,13z"/>
  </g>
 </g>
</svg>
