<?xml version="1.0" encoding="UTF-8"?>
<!DOCTYPE svg PUBLIC "-//W3C//DTD SVG 1.1//EN" "http://www.w3.org/Graphics/SVG/1.1/DTD/svg11.dtd">
<!-- Creator: CorelDRAW X6 -->
<svg xmlns="http://www.w3.org/2000/svg" xml:space="preserve" width="53.4859mm" height="53.4858mm" version="1.1" style="shape-rendering:geometricPrecision; text-rendering:geometricPrecision; image-rendering:optimizeQuality; fill-rule:evenodd; clip-rule:evenodd"
viewBox="0 0 5349 5349"
 xmlns:xlink="http://www.w3.org/1999/xlink">
 <defs>
  <style type="text/css">
   <![CDATA[
    .fil2 {fill:none}
    .fil3 {fill:#898989}
    .fil0 {fill:#D9DADA}
    .fil1 {fill:#E31E24}
   ]]>
  </style>
    <clipPath id="id0">
     <path d="M695 5347l0 0 -3 0c-4,0 -7,-1 -11,-1l0 0 -1 0c-7,-1 -13,-1 -20,-2l0 0 0 0c-3,0 -5,-1 -8,-1l0 0 -1 0c-5,-1 -10,-1 -15,-2l0 0 0 0c-4,-1 -8,-1 -12,-2l0 0 0 0c-2,0 -4,-1 -6,-1l0 0 0 0c-2,0 -3,-1 -5,-1l0 0 -1 0c-2,0 -4,-1 -5,-1l0 0 0 0c-7,-1 -13,-3 -20,-4l0 0 0 0c-3,-1 -6,-1 -9,-2l0 0 0 0c-1,0 -3,-1 -4,-1l0 0 0 0c-5,-1 -11,-3 -16,-4l0 0 0 0c-2,-1 -5,-1 -7,-2l0 0 0 0c-1,0 -2,-1 -4,-1l0 0 0 0 -3 -1 0 0 -1 0c-2,-1 -4,-1 -7,-2l0 0 0 0c-4,-1 -9,-3 -13,-4l0 0 0 0 -3 -1 0 0 0 0 -3 -1 0 0 0 0 -3 -1 0 0 0 0 -3 -1 0 0 0 0c-1,0 -2,-1 -3,-1l0 0 0 0 -3 -1 0 0 0 0c-7,-2 -13,-5 -20,-7l0 0 0 0c-2,-1 -3,-1 -5,-2l0 0 0 0 -3 -1 0 0 0 0c-6,-2 -12,-5 -18,-7l0 0 0 0c-3,-1 -6,-3 -9,-4l0 0 0 0c-3,-1 -6,-3 -9,-4l0 0 0 0 -2 -1 0 0 0 0c-17,-8 -34,-17 -51,-26l0 0 0 0c-2,-1 -5,-3 -7,-4l0 0 0 0c-2,-1 -5,-3 -7,-4l0 0 0 0c-6,-4 -13,-8 -19,-11l0 0 0 0c-1,-1 -2,-1 -3,-2l0 0 0 0c-5,-3 -10,-6 -14,-9l0 0 0 0 -3 -2c-4,-2 -7,-5 -10,-7l0 0 0 0c-2,-2 -5,-3 -7,-5l0 0 0 0c-4,-3 -8,-6 -11,-8l0 0 0 0c-3,-2 -6,-5 -9,-7l0 0 0 0c-1,-1 -3,-2 -4,-3l0 0 0 0 -1 -1 0 0 0 0c-1,-1 -3,-2 -4,-3l0 0 0 0c-4,-3 -8,-6 -11,-9l0 0 0 0c-2,-2 -5,-4 -7,-6l0 0 0 0c-2,-2 -5,-4 -7,-6l0 0 0 0 -1 -1 0 0 0 0c-8,-7 -16,-14 -24,-22l0 0 0 0 -1 -1 0 0 0 0 -1 -1 0 0 0 0 -1 -1 0 0 0 0 -1 -1 0 0 0 0c-4,-4 -8,-8 -12,-12l0 0 0 0 -1 -1 0 0 0 0 -1 -1 0 0 0 0 -1 -1 0 0 0 0 -1 -1 0 0 0 0c-7,-8 -15,-16 -22,-24l0 0 0 0 -1 -1 0 0 0 0c-2,-2 -4,-5 -6,-7l0 0 0 0c-2,-2 -4,-5 -6,-7l0 0 0 0c-3,-4 -6,-8 -9,-11l0 0 0 0c-1,-1 -2,-3 -3,-4l0 0 0 0 -1 -1 0 0 0 0c-1,-1 -2,-3 -3,-4l0 0 0 0c-2,-3 -5,-6 -7,-9l0 0 0 0c-3,-4 -6,-8 -8,-11l0 0 0 0c-2,-2 -3,-5 -5,-7l0 0 0 0c-2,-3 -5,-7 -7,-10 -1,-1 -1,-2 -2,-3l0 0 0 0c-3,-5 -6,-10 -9,-14l0 0 0 0c-1,-1 -1,-2 -2,-3l0 0 0 0c-4,-6 -8,-12 -11,-19l0 0 0 0c-1,-2 -3,-5 -4,-7l0 0 0 0c-1,-2 -3,-5 -4,-7l0 0 0 0c-9,-17 -18,-34 -26,-51l0 0 0 0 -1 -2 0 0 0 0c-1,-3 -3,-6 -4,-9l0 0 0 0c-1,-3 -3,-6 -4,-9l0 0 0 0c-2,-6 -5,-12 -7,-18l0 0 0 0 -1 -3 0 0 0 0c-1,-2 -1,-3 -2,-5l0 0 0 0c-2,-7 -5,-13 -7,-20l0 0 0 0 -1 -3 0 0 0 0c0,-1 -1,-2 -1,-3l0 0 0 0 -1 -3 0 0 0 0c0,-1 -1,-2 -1,-3l0 0 0 0 -1 -3 0 0 0 0 -1 -3 0 0 0 0c-1,-4 -3,-9 -4,-13l0 0 0 0c-1,-2 -1,-4 -2,-7l0 -1 0 0 -1 -3 0 0 0 0c0,-1 -1,-2 -1,-4l0 0 0 0c-1,-2 -1,-5 -2,-7l0 0 0 0c-1,-5 -3,-11 -4,-16l0 0 0 0c0,-1 -1,-3 -1,-4l0 0 0 0c-1,-3 -1,-6 -2,-9l0 0 0 0c-1,-7 -3,-13 -4,-20l0 0 0 0c0,-2 -1,-4 -1,-5l0 -1 0 0c0,-2 -1,-3 -1,-5l0 0 0 0c0,-2 -1,-4 -1,-6l0 0 0 0c-1,-4 -1,-8 -2,-12l0 0 0 0c-1,-5 -1,-10 -2,-15l0 -1 0 0c0,-3 -1,-5 -1,-8l0 0 0 0c-1,-6 -1,-13 -2,-20l0 -1 0 0c0,-4 -1,-7 -1,-11l0 -3 0 0c-1,-18 -2,-35 -2,-53l0 -3853c0,-18 1,-36 2,-53l0 0 0 -3c0,-4 1,-7 1,-11l0 0 0 -1c1,-7 1,-13 2,-20l0 0 0 0c0,-3 1,-5 1,-8l0 0 0 -1c1,-5 1,-10 2,-15l0 0 0 0c1,-4 1,-8 2,-12l0 0 0 0c0,-2 1,-4 1,-6l0 0 0 0c0,-2 1,-3 1,-5l0 0 0 -1c0,-2 1,-4 1,-5l0 0 0 0c1,-7 3,-13 4,-20l0 0 0 0c1,-3 1,-6 2,-9l0 0 0 0c0,-1 1,-3 1,-4l0 0 0 0c1,-5 3,-11 4,-16l0 0 0 0c1,-2 1,-5 2,-7l0 0 0 0c0,-1 1,-2 1,-4l0 0 0 0 1 -3 0 0 0 -1c1,-2 1,-4 2,-7l0 0 0 0c1,-4 3,-9 4,-13l0 0 0 0 1 -3 0 0 0 0 1 -3 0 0 0 0 1 -3 0 0 0 0 1 -3 0 0 0 0c0,-1 1,-2 1,-3l0 0 0 0 1 -3 0 0 0 0c2,-7 5,-13 7,-20l0 0 0 0c1,-2 1,-3 2,-5l0 0 0 0 1 -3 0 0 0 0c2,-6 5,-12 7,-18l0 0 0 0c1,-3 3,-6 4,-9l0 0 0 0c1,-3 3,-6 4,-9l0 0 0 0 1 -2 0 0 0 0c8,-17 17,-34 26,-51l0 0 0 0c1,-2 3,-5 4,-7l0 0 0 0c1,-2 3,-5 4,-7l0 0 0 0c4,-6 8,-13 11,-19l0 0 0 0c1,-1 1,-2 2,-3l0 0 0 0c3,-5 6,-10 9,-14l0 0 0 0 2 -3 0 0 0 0c2,-4 5,-7 7,-10l0 0 0 0c2,-2 3,-5 5,-7l0 0 0 0c3,-4 6,-8 8,-11l0 0 0 0c2,-3 5,-6 7,-9l0 0 0 0c1,-1 2,-3 3,-4l0 0 0 0 1 -1 0 0 0 0c1,-1 2,-3 3,-4l0 0 0 0c3,-4 6,-8 9,-11l0 0 0 0c2,-2 4,-5 6,-7l0 0 0 0c2,-2 4,-5 6,-7l0 0 0 0 1 -1 0 0 0 0c7,-8 14,-16 22,-24l0 0 0 0 1 -1 0 0 0 0 1 -1 0 0 0 0 1 -1 0 0 0 0 1 -1 0 0 0 0c4,-4 8,-8 12,-12l0 0 0 0 1 -1 0 0 0 0 1 -1 0 0 0 0 1 -1 0 0 0 0 1 -1 0 0 0 0c8,-7 16,-15 24,-22l0 0 0 0 1 -1 0 0 0 0c2,-2 5,-4 7,-6l0 0 0 0c2,-2 5,-4 7,-6l0 0 0 0c4,-3 8,-6 11,-9l0 0 0 0c1,-1 3,-2 4,-3l0 0 0 0 1 -1 0 0 0 0c1,-1 3,-2 4,-3l0 0 0 0c3,-2 6,-5 9,-7l0 0 0 0c4,-3 8,-6 11,-8l0 0 0 0c2,-2 5,-3 7,-5l0 0 0 0c4,-3 9,-6 14,-9l0 0 0 0c5,-3 10,-6 14,-9l0 0 0 0c1,-1 2,-1 3,-2l0 0 0 0c6,-4 12,-8 19,-11l0 0 0 0c2,-1 5,-3 7,-4l0 0 0 0c2,-1 5,-3 7,-4l0 0 0 0c17,-9 34,-18 51,-26l0 0 0 0 2 -1 0 0 0 0c3,-1 6,-3 9,-4l0 0 0 0c3,-1 6,-3 9,-4l0 0 0 0c6,-2 12,-5 18,-7l0 0 0 0 3 -1 0 0 0 0c2,-1 3,-1 5,-2l0 0 0 0c7,-2 13,-5 20,-7l0 0 0 0 3 -1 0 0 0 0c1,0 2,-1 3,-1l0 0 0 0 3 -1 0 0 0 0c1,0 2,-1 3,-1l0 0 0 0 3 -1 0 0 0 0 3 -1 0 0 0 0c4,-1 9,-3 13,-4l0 0 0 0c2,-1 4,-1 7,-2l1 0 0 0 3 -1 0 0 0 0c1,0 2,-1 4,-1l0 0 0 0c2,-1 5,-1 7,-2l0 0 0 0c5,-1 11,-3 16,-4l0 0 0 0c1,0 3,-1 4,-1l0 0 0 0c3,-1 6,-1 9,-2l0 0 0 0c7,-1 13,-3 20,-4l0 0 0 0c2,0 4,-1 5,-1l1 0 0 0c2,0 3,-1 5,-1l0 0 0 0c2,0 4,-1 6,-1l0 0 0 0c4,-1 8,-1 12,-2l0 0 0 0c5,-1 10,-1 15,-2l1 0 0 0c3,0 5,-1 8,-1l0 0 0 0c7,-1 13,-1 20,-2l1 0 0 0c4,0 7,-1 11,-1l3 0 0 0c18,-1 35,-2 53,-2l3853 0c18,0 36,1 53,2l0 0 3 0c4,0 7,1 11,1l0 0 1 0c7,1 13,1 20,2l0 0 0 0c3,0 5,1 8,1l0 0 1 0c5,1 10,1 15,2l0 0 0 0c4,1 8,1 12,2l0 0 0 0c2,0 4,1 6,1l0 0 0 0c2,0 3,1 5,1l0 0 1 0c2,0 4,1 5,1l0 0 0 0c7,1 13,3 20,4l0 0 0 0c3,1 6,1 9,2l0 0 0 0c1,0 3,1 4,1l0 0 0 0c5,1 11,3 16,4l0 0 0 0c2,1 5,1 7,2l0 0 0 0c1,0 2,1 4,1l0 0 0 0 3 1 0 0 1 0c2,1 4,1 7,2l0 0 0 0c4,1 9,3 13,4l0 0 0 0 3 1 0 0 0 0 3 1 0 0 0 0 3 1 0 0 0 0 3 1 0 0 0 0c1,0 2,1 3,1l0 0 0 0 3 1 0 0 0 0c7,2 13,5 20,7l0 0 0 0c2,1 3,1 5,2l0 0 0 0 3 1 0 0 0 0c6,2 12,5 18,7l0 0 0 0c3,1 6,3 9,4l0 0 0 0c3,1 6,3 9,4l0 0 0 0 2 1 0 0 0 0c17,8 34,17 51,26l0 0 0 0c2,1 5,3 7,4l0 0 0 0c2,1 5,3 7,4l0 0 0 0c6,4 13,8 19,11l0 0 0 0c1,1 2,1 3,2l0 0 0 0c5,3 10,6 14,9l0 0 0 0c5,3 9,6 14,9l0 0 0 0c2,2 5,3 7,5l0 0 0 0c4,3 8,6 11,8l0 0 0 0c3,2 6,5 9,7l0 0 0 0c1,1 3,2 4,3l0 0 0 0 1 1 0 0 0 0c1,1 3,2 4,3l0 0 0 0c4,3 8,6 11,9l0 0 0 0c2,2 5,4 7,6l0 0 0 0c2,2 5,4 7,6l0 0 0 0 1 1 0 0 0 0c8,7 16,14 24,22l0 0 0 0 1 1 0 0 0 0 1 1 0 0 0 0 1 1 0 0 0 0 1 1 0 0 0 0c4,4 8,8 12,12l0 0 0 0 1 1 0 0 0 0 1 1 0 0 0 0 1 1 0 0 0 0 1 1 0 0 0 0c7,8 15,16 22,24l0 0 0 0 1 1 0 0 0 0c2,2 4,5 6,7l0 0 0 0c2,2 4,5 6,7l0 0 0 0c3,4 6,8 9,11l0 0 0 0c1,1 2,3 3,4l0 0 0 0 1 1 0 0 0 0c1,1 2,3 3,4l0 0 0 0c2,3 5,6 7,9l0 0 0 0c3,4 6,8 8,11l0 0 0 0c2,2 3,5 5,7l0 0 0 0c3,4 6,9 9,14l0 0 0 0c3,5 6,10 9,14l0 0 0 0c1,1 1,2 2,3l0 0 0 0c4,6 8,12 11,19l0 0 0 0c1,2 3,5 4,7l0 0 0 0c1,2 3,5 4,7l0 0 0 0c9,17 18,34 26,51l0 0 0 0 1 2 0 0 0 0c1,3 3,6 4,9l0 0 0 0c1,3 3,6 4,9l0 0 0 0c2,6 5,12 7,18l0 0 0 0 1 3 0 0 0 0c1,2 1,3 2,5l0 0 0 0c2,7 5,13 7,20l0 0 0 0 1 3 0 0 0 0c0,1 1,2 1,3l0 0 0 0 1 3 0 0 0 0c0,1 1,2 1,3l0 0 0 0 1 3 0 0 0 0 1 3 0 0 0 0c1,4 3,9 4,13l0 0 0 0c1,2 1,4 2,7l0 1 0 0 1 3 0 0 0 0c0,1 1,2 1,4l0 0 0 0c1,2 1,5 2,7l0 0 0 0c1,5 3,11 4,16l0 0 0 0c0,1 1,3 1,4l0 0 0 0c1,3 1,6 2,9l0 0 0 0c1,7 3,13 4,20l0 0 0 0c0,2 1,4 1,5l0 1 0 0c0,2 1,3 1,5l0 0 0 0c0,2 1,4 1,6l0 0 0 0c1,4 1,8 2,12l0 0 0 0c1,5 1,10 2,15l0 1 0 0c0,3 1,5 1,8l0 0 0 0c1,7 1,13 2,20l0 1 0 0c0,4 1,7 1,11l0 3 0 0c1,18 2,35 2,53l0 3853c0,18 -1,36 -2,53l0 0 0 3c0,4 -1,8 -1,12l0 0 0 0c-1,7 -1,13 -2,19l0 0 0 1c0,3 -1,5 -1,8l0 0 0 1c0,2 -1,5 -1,7l0 0 0 0c-1,7 -2,13 -3,20l0 0 0 1c0,2 -1,4 -1,6l0 0 0 1c-1,4 -1,7 -2,11l0 0 0 0c-1,7 -3,13 -4,20l0 0 0 1c0,2 -1,3 -1,5l0 0 0 0 -1 4 0 0 0 0c0,1 -1,2 -1,4l0 0 0 1c-2,7 -3,14 -5,20l0 0 0 0c-1,2 -1,5 -2,7l0 0 0 0c-1,2 -1,5 -2,7l0 0 0 0c-3,12 -7,24 -11,35l0 0 0 0 -1 3 0 0 0 0 -1 3 0 0 0 0c-2,6 -4,11 -6,17l0 0 0 0c-1,2 -1,3 -2,5l0 0 0 0c-1,2 -1,3 -2,5l0 0 0 0 -2 5 0 0 0 0c-2,5 -4,10 -6,14l0 0 0 0c-1,2 -2,5 -3,7l0 0 0 0 -1 2 0 0 0 0c-4,8 -7,16 -11,24l0 0 0 0 -1 2 0 0 0 0 -1 2 0 0 0 0 -1 2 0 0 0 0 -1 2 0 0 0 0 -1 2 0 0 0 0 -1 2 0 0 0 0c-4,8 -8,15 -12,23l0 0 0 0c-1,2 -2,3 -3,5l0 0 0 0 -1 2 0 0 0 0c-1,2 -2,3 -3,5l0 0 0 0c-2,3 -4,7 -6,10l0 0 0 0c-2,3 -3,6 -5,8l0 0 0 0c-1,1 -1,2 -2,3l0 0 0 0c-1,1 -1,2 -2,3l0 0 0 0c-4,6 -8,12 -12,19l0 0 0 0 -2 3 0 0 0 0c-2,2 -3,5 -5,7l0 0 0 0c-4,5 -8,10 -11,16l0 0 0 0c-2,3 -5,6 -7,9l0 0 0 0c-1,2 -3,3 -4,5l0 0 0 0c-5,6 -10,12 -14,18l0 0 0 0c-2,2 -3,4 -5,6l0 0 0 0 -1 1 0 0 0 0c-6,7 -12,14 -19,21l0 0 0 0 -1 1 0 0 0 0 -1 1 0 0 0 0 -1 1 0 0 0 0c-9,10 -18,19 -28,28l0 0 0 0 -1 1 0 0 0 0 -1 1 0 0 0 0c-7,6 -14,13 -21,19l0 0 0 0 -1 1 0 0 0 0c-2,2 -5,4 -7,6l0 0 0 0c-5,5 -11,9 -17,14l0 0 0 0c-2,1 -3,3 -5,4l0 0 0 0c-3,2 -6,5 -9,7l0 0 0 0c-3,2 -6,4 -8,6l0 0 0 0c-2,2 -5,3 -7,5l0 0 0 0c-2,2 -5,3 -7,5l0 0 0 0c-8,6 -16,11 -25,17l0 0 0 0c-1,1 -2,1 -3,2l0 0 0 0c-6,4 -12,8 -19,11l0 0 0 0c-2,1 -3,2 -5,3l0 0 0 0c-2,1 -5,3 -7,4l0 0 0 0c-7,4 -14,8 -21,11l0 0 0 0 -2 1 0 0 0 0 -2 1 0 0 0 0 -2 1 0 0 0 0 -2 1 0 0 0 0 -2 1 0 0 0 0c-6,3 -11,5 -17,8l0 0 0 0c-4,2 -7,3 -11,5l0 0 0 0 -2 1 0 0 0 0c-3,1 -6,3 -9,4l0 0 0 0c-6,2 -12,5 -17,7l0 0 0 0c-2,1 -3,1 -5,2l0 0 0 0c-2,1 -3,1 -5,2l0 0 0 0c-5,2 -9,3 -14,5 -1,0 -2,1 -3,1l0 0 0 0c-11,4 -23,8 -34,11 -2,1 -5,1 -7,2l0 0 0 0c-2,1 -5,1 -7,2l-1 0 0 0c-2,1 -5,1 -7,2l0 0 0 0c-7,2 -13,4 -20,5l-1 0 0 0c-1,0 -2,1 -4,1l-1 0 0 0 -4 1 0 0 0 0c-3,1 -6,1 -9,2l0 0 0 0c-5,1 -10,2 -15,3l0 0 0 0c-2,0 -3,1 -5,1l0 0 0 0c-2,0 -4,1 -6,1l-1 0 0 0c-2,0 -4,1 -6,1l-1 0 0 0c-7,1 -13,2 -20,3l0 0 0 0c-2,0 -5,1 -7,1l-1 0 0 0c-3,0 -5,1 -8,1l-1 0 0 0c-6,1 -13,1 -19,2l0 0 0 0c-4,0 -8,1 -12,1l-3 0 0 0c-18,1 -35,2 -53,2l-3853 0c-18,0 -36,-1 -53,-2z"/>
    </clipPath>
 </defs>
 <g id="Layer_x0020_1">
  <metadata id="CorelCorpID_0Corel-Layer"/>
  <g id="_383689512">
   <path class="fil0" d="M695 5347l0 0 -3 0c-4,0 -7,-1 -11,-1l0 0 -1 0c-7,-1 -13,-1 -20,-2l0 0 0 0c-3,0 -5,-1 -8,-1l0 0 -1 0c-5,-1 -10,-1 -15,-2l0 0 0 0c-4,-1 -8,-1 -12,-2l0 0 0 0c-2,0 -4,-1 -6,-1l0 0 0 0c-2,0 -3,-1 -5,-1l0 0 -1 0c-2,0 -4,-1 -5,-1l0 0 0 0c-7,-1 -13,-3 -20,-4l0 0 0 0c-3,-1 -6,-1 -9,-2l0 0 0 0c-1,0 -3,-1 -4,-1l0 0 0 0c-5,-1 -11,-3 -16,-4l0 0 0 0c-2,-1 -5,-1 -7,-2l0 0 0 0c-1,0 -2,-1 -4,-1l0 0 0 0 -3 -1 0 0 -1 0c-2,-1 -4,-1 -7,-2l0 0 0 0c-4,-1 -9,-3 -13,-4l0 0 0 0 -3 -1 0 0 0 0 -3 -1 0 0 0 0 -3 -1 0 0 0 0 -3 -1 0 0 0 0c-1,0 -2,-1 -3,-1l0 0 0 0 -3 -1 0 0 0 0c-7,-2 -13,-5 -20,-7l0 0 0 0c-2,-1 -3,-1 -5,-2l0 0 0 0 -3 -1 0 0 0 0c-6,-2 -12,-5 -18,-7l0 0 0 0c-3,-1 -6,-3 -9,-4l0 0 0 0c-3,-1 -6,-3 -9,-4l0 0 0 0 -2 -1 0 0 0 0c-17,-8 -34,-17 -51,-26l0 0 0 0c-2,-1 -5,-3 -7,-4l0 0 0 0c-2,-1 -5,-3 -7,-4l0 0 0 0c-6,-4 -13,-8 -19,-11l0 0 0 0c-1,-1 -2,-1 -3,-2l0 0 0 0c-5,-3 -10,-6 -14,-9l0 0 0 0 -3 -2c-4,-2 -7,-5 -10,-7l0 0 0 0c-2,-2 -5,-3 -7,-5l0 0 0 0c-4,-3 -8,-6 -11,-8l0 0 0 0c-3,-2 -6,-5 -9,-7l0 0 0 0c-1,-1 -3,-2 -4,-3l0 0 0 0 -1 -1 0 0 0 0c-1,-1 -3,-2 -4,-3l0 0 0 0c-4,-3 -8,-6 -11,-9l0 0 0 0c-2,-2 -5,-4 -7,-6l0 0 0 0c-2,-2 -5,-4 -7,-6l0 0 0 0 -1 -1 0 0 0 0c-8,-7 -16,-14 -24,-22l0 0 0 0 -1 -1 0 0 0 0 -1 -1 0 0 0 0 -1 -1 0 0 0 0 -1 -1 0 0 0 0c-4,-4 -8,-8 -12,-12l0 0 0 0 -1 -1 0 0 0 0 -1 -1 0 0 0 0 -1 -1 0 0 0 0 -1 -1 0 0 0 0c-7,-8 -15,-16 -22,-24l0 0 0 0 -1 -1 0 0 0 0c-2,-2 -4,-5 -6,-7l0 0 0 0c-2,-2 -4,-5 -6,-7l0 0 0 0c-3,-4 -6,-8 -9,-11l0 0 0 0c-1,-1 -2,-3 -3,-4l0 0 0 0 -1 -1 0 0 0 0c-1,-1 -2,-3 -3,-4l0 0 0 0c-2,-3 -5,-6 -7,-9l0 0 0 0c-3,-4 -6,-8 -8,-11l0 0 0 0c-2,-2 -3,-5 -5,-7l0 0 0 0c-2,-3 -5,-7 -7,-10 -1,-1 -1,-2 -2,-3l0 0 0 0c-3,-5 -6,-10 -9,-14l0 0 0 0c-1,-1 -1,-2 -2,-3l0 0 0 0c-4,-6 -8,-12 -11,-19l0 0 0 0c-1,-2 -3,-5 -4,-7l0 0 0 0c-1,-2 -3,-5 -4,-7l0 0 0 0c-9,-17 -18,-34 -26,-51l0 0 0 0 -1 -2 0 0 0 0c-1,-3 -3,-6 -4,-9l0 0 0 0c-1,-3 -3,-6 -4,-9l0 0 0 0c-2,-6 -5,-12 -7,-18l0 0 0 0 -1 -3 0 0 0 0c-1,-2 -1,-3 -2,-5l0 0 0 0c-2,-7 -5,-13 -7,-20l0 0 0 0 -1 -3 0 0 0 0c0,-1 -1,-2 -1,-3l0 0 0 0 -1 -3 0 0 0 0c0,-1 -1,-2 -1,-3l0 0 0 0 -1 -3 0 0 0 0 -1 -3 0 0 0 0c-1,-4 -3,-9 -4,-13l0 0 0 0c-1,-2 -1,-4 -2,-7l0 -1 0 0 -1 -3 0 0 0 0c0,-1 -1,-2 -1,-4l0 0 0 0c-1,-2 -1,-5 -2,-7l0 0 0 0c-1,-5 -3,-11 -4,-16l0 0 0 0c0,-1 -1,-3 -1,-4l0 0 0 0c-1,-3 -1,-6 -2,-9l0 0 0 0c-1,-7 -3,-13 -4,-20l0 0 0 0c0,-2 -1,-4 -1,-5l0 -1 0 0c0,-2 -1,-3 -1,-5l0 0 0 0c0,-2 -1,-4 -1,-6l0 0 0 0c-1,-4 -1,-8 -2,-12l0 0 0 0c-1,-5 -1,-10 -2,-15l0 -1 0 0c0,-3 -1,-5 -1,-8l0 0 0 0c-1,-6 -1,-13 -2,-20l0 -1 0 0c0,-4 -1,-7 -1,-11l0 -3 0 0c-1,-18 -2,-35 -2,-53l0 -3853c0,-18 1,-36 2,-53l0 0 0 -3c0,-4 1,-7 1,-11l0 0 0 -1c1,-7 1,-13 2,-20l0 0 0 0c0,-3 1,-5 1,-8l0 0 0 -1c1,-5 1,-10 2,-15l0 0 0 0c1,-4 1,-8 2,-12l0 0 0 0c0,-2 1,-4 1,-6l0 0 0 0c0,-2 1,-3 1,-5l0 0 0 -1c0,-2 1,-4 1,-5l0 0 0 0c1,-7 3,-13 4,-20l0 0 0 0c1,-3 1,-6 2,-9l0 0 0 0c0,-1 1,-3 1,-4l0 0 0 0c1,-5 3,-11 4,-16l0 0 0 0c1,-2 1,-5 2,-7l0 0 0 0c0,-1 1,-2 1,-4l0 0 0 0 1 -3 0 0 0 -1c1,-2 1,-4 2,-7l0 0 0 0c1,-4 3,-9 4,-13l0 0 0 0 1 -3 0 0 0 0 1 -3 0 0 0 0 1 -3 0 0 0 0 1 -3 0 0 0 0c0,-1 1,-2 1,-3l0 0 0 0 1 -3 0 0 0 0c2,-7 5,-13 7,-20l0 0 0 0c1,-2 1,-3 2,-5l0 0 0 0 1 -3 0 0 0 0c2,-6 5,-12 7,-18l0 0 0 0c1,-3 3,-6 4,-9l0 0 0 0c1,-3 3,-6 4,-9l0 0 0 0 1 -2 0 0 0 0c8,-17 17,-34 26,-51l0 0 0 0c1,-2 3,-5 4,-7l0 0 0 0c1,-2 3,-5 4,-7l0 0 0 0c4,-6 8,-13 11,-19l0 0 0 0c1,-1 1,-2 2,-3l0 0 0 0c3,-5 6,-10 9,-14l0 0 0 0 2 -3 0 0 0 0c2,-4 5,-7 7,-10l0 0 0 0c2,-2 3,-5 5,-7l0 0 0 0c3,-4 6,-8 8,-11l0 0 0 0c2,-3 5,-6 7,-9l0 0 0 0c1,-1 2,-3 3,-4l0 0 0 0 1 -1 0 0 0 0c1,-1 2,-3 3,-4l0 0 0 0c3,-4 6,-8 9,-11l0 0 0 0c2,-2 4,-5 6,-7l0 0 0 0c2,-2 4,-5 6,-7l0 0 0 0 1 -1 0 0 0 0c7,-8 14,-16 22,-24l0 0 0 0 1 -1 0 0 0 0 1 -1 0 0 0 0 1 -1 0 0 0 0 1 -1 0 0 0 0c4,-4 8,-8 12,-12l0 0 0 0 1 -1 0 0 0 0 1 -1 0 0 0 0 1 -1 0 0 0 0 1 -1 0 0 0 0c8,-7 16,-15 24,-22l0 0 0 0 1 -1 0 0 0 0c2,-2 5,-4 7,-6l0 0 0 0c2,-2 5,-4 7,-6l0 0 0 0c4,-3 8,-6 11,-9l0 0 0 0c1,-1 3,-2 4,-3l0 0 0 0 1 -1 0 0 0 0c1,-1 3,-2 4,-3l0 0 0 0c3,-2 6,-5 9,-7l0 0 0 0c4,-3 8,-6 11,-8l0 0 0 0c2,-2 5,-3 7,-5l0 0 0 0c4,-3 9,-6 14,-9l0 0 0 0c5,-3 10,-6 14,-9l0 0 0 0c1,-1 2,-1 3,-2l0 0 0 0c6,-4 12,-8 19,-11l0 0 0 0c2,-1 5,-3 7,-4l0 0 0 0c2,-1 5,-3 7,-4l0 0 0 0c17,-9 34,-18 51,-26l0 0 0 0 2 -1 0 0 0 0c3,-1 6,-3 9,-4l0 0 0 0c3,-1 6,-3 9,-4l0 0 0 0c6,-2 12,-5 18,-7l0 0 0 0 3 -1 0 0 0 0c2,-1 3,-1 5,-2l0 0 0 0c7,-2 13,-5 20,-7l0 0 0 0 3 -1 0 0 0 0c1,0 2,-1 3,-1l0 0 0 0 3 -1 0 0 0 0c1,0 2,-1 3,-1l0 0 0 0 3 -1 0 0 0 0 3 -1 0 0 0 0c4,-1 9,-3 13,-4l0 0 0 0c2,-1 4,-1 7,-2l1 0 0 0 3 -1 0 0 0 0c1,0 2,-1 4,-1l0 0 0 0c2,-1 5,-1 7,-2l0 0 0 0c5,-1 11,-3 16,-4l0 0 0 0c1,0 3,-1 4,-1l0 0 0 0c3,-1 6,-1 9,-2l0 0 0 0c7,-1 13,-3 20,-4l0 0 0 0c2,0 4,-1 5,-1l1 0 0 0c2,0 3,-1 5,-1l0 0 0 0c2,0 4,-1 6,-1l0 0 0 0c4,-1 8,-1 12,-2l0 0 0 0c5,-1 10,-1 15,-2l1 0 0 0c3,0 5,-1 8,-1l0 0 0 0c7,-1 13,-1 20,-2l1 0 0 0c4,0 7,-1 11,-1l3 0 0 0c18,-1 35,-2 53,-2l3853 0c18,0 36,1 53,2l0 0 3 0c4,0 7,1 11,1l0 0 1 0c7,1 13,1 20,2l0 0 0 0c3,0 5,1 8,1l0 0 1 0c5,1 10,1 15,2l0 0 0 0c4,1 8,1 12,2l0 0 0 0c2,0 4,1 6,1l0 0 0 0c2,0 3,1 5,1l0 0 1 0c2,0 4,1 5,1l0 0 0 0c7,1 13,3 20,4l0 0 0 0c3,1 6,1 9,2l0 0 0 0c1,0 3,1 4,1l0 0 0 0c5,1 11,3 16,4l0 0 0 0c2,1 5,1 7,2l0 0 0 0c1,0 2,1 4,1l0 0 0 0 3 1 0 0 1 0c2,1 4,1 7,2l0 0 0 0c4,1 9,3 13,4l0 0 0 0 3 1 0 0 0 0 3 1 0 0 0 0 3 1 0 0 0 0 3 1 0 0 0 0c1,0 2,1 3,1l0 0 0 0 3 1 0 0 0 0c7,2 13,5 20,7l0 0 0 0c2,1 3,1 5,2l0 0 0 0 3 1 0 0 0 0c6,2 12,5 18,7l0 0 0 0c3,1 6,3 9,4l0 0 0 0c3,1 6,3 9,4l0 0 0 0 2 1 0 0 0 0c17,8 34,17 51,26l0 0 0 0c2,1 5,3 7,4l0 0 0 0c2,1 5,3 7,4l0 0 0 0c6,4 13,8 19,11l0 0 0 0c1,1 2,1 3,2l0 0 0 0c5,3 10,6 14,9l0 0 0 0c5,3 9,6 14,9l0 0 0 0c2,2 5,3 7,5l0 0 0 0c4,3 8,6 11,8l0 0 0 0c3,2 6,5 9,7l0 0 0 0c1,1 3,2 4,3l0 0 0 0 1 1 0 0 0 0c1,1 3,2 4,3l0 0 0 0c4,3 8,6 11,9l0 0 0 0c2,2 5,4 7,6l0 0 0 0c2,2 5,4 7,6l0 0 0 0 1 1 0 0 0 0c8,7 16,14 24,22l0 0 0 0 1 1 0 0 0 0 1 1 0 0 0 0 1 1 0 0 0 0 1 1 0 0 0 0c4,4 8,8 12,12l0 0 0 0 1 1 0 0 0 0 1 1 0 0 0 0 1 1 0 0 0 0 1 1 0 0 0 0c7,8 15,16 22,24l0 0 0 0 1 1 0 0 0 0c2,2 4,5 6,7l0 0 0 0c2,2 4,5 6,7l0 0 0 0c3,4 6,8 9,11l0 0 0 0c1,1 2,3 3,4l0 0 0 0 1 1 0 0 0 0c1,1 2,3 3,4l0 0 0 0c2,3 5,6 7,9l0 0 0 0c3,4 6,8 8,11l0 0 0 0c2,2 3,5 5,7l0 0 0 0c3,4 6,9 9,14l0 0 0 0c3,5 6,10 9,14l0 0 0 0c1,1 1,2 2,3l0 0 0 0c4,6 8,12 11,19l0 0 0 0c1,2 3,5 4,7l0 0 0 0c1,2 3,5 4,7l0 0 0 0c9,17 18,34 26,51l0 0 0 0 1 2 0 0 0 0c1,3 3,6 4,9l0 0 0 0c1,3 3,6 4,9l0 0 0 0c2,6 5,12 7,18l0 0 0 0 1 3 0 0 0 0c1,2 1,3 2,5l0 0 0 0c2,7 5,13 7,20l0 0 0 0 1 3 0 0 0 0c0,1 1,2 1,3l0 0 0 0 1 3 0 0 0 0c0,1 1,2 1,3l0 0 0 0 1 3 0 0 0 0 1 3 0 0 0 0c1,4 3,9 4,13l0 0 0 0c1,2 1,4 2,7l0 1 0 0 1 3 0 0 0 0c0,1 1,2 1,4l0 0 0 0c1,2 1,5 2,7l0 0 0 0c1,5 3,11 4,16l0 0 0 0c0,1 1,3 1,4l0 0 0 0c1,3 1,6 2,9l0 0 0 0c1,7 3,13 4,20l0 0 0 0c0,2 1,4 1,5l0 1 0 0c0,2 1,3 1,5l0 0 0 0c0,2 1,4 1,6l0 0 0 0c1,4 1,8 2,12l0 0 0 0c1,5 1,10 2,15l0 1 0 0c0,3 1,5 1,8l0 0 0 0c1,7 1,13 2,20l0 1 0 0c0,4 1,7 1,11l0 3 0 0c1,18 2,35 2,53l0 3853c0,18 -1,36 -2,53l0 0 0 3c0,4 -1,8 -1,12l0 0 0 0c-1,7 -1,13 -2,19l0 0 0 1c0,3 -1,5 -1,8l0 0 0 1c0,2 -1,5 -1,7l0 0 0 0c-1,7 -2,13 -3,20l0 0 0 1c0,2 -1,4 -1,6l0 0 0 1c-1,4 -1,7 -2,11l0 0 0 0c-1,7 -3,13 -4,20l0 0 0 1c0,2 -1,3 -1,5l0 0 0 0 -1 4 0 0 0 0c0,1 -1,2 -1,4l0 0 0 1c-2,7 -3,14 -5,20l0 0 0 0c-1,2 -1,5 -2,7l0 0 0 0c-1,2 -1,5 -2,7l0 0 0 0c-3,12 -7,24 -11,35l0 0 0 0 -1 3 0 0 0 0 -1 3 0 0 0 0c-2,6 -4,11 -6,17l0 0 0 0c-1,2 -1,3 -2,5l0 0 0 0c-1,2 -1,3 -2,5l0 0 0 0 -2 5 0 0 0 0c-2,5 -4,10 -6,14l0 0 0 0c-1,2 -2,5 -3,7l0 0 0 0 -1 2 0 0 0 0c-4,8 -7,16 -11,24l0 0 0 0 -1 2 0 0 0 0 -1 2 0 0 0 0 -1 2 0 0 0 0 -1 2 0 0 0 0 -1 2 0 0 0 0 -1 2 0 0 0 0c-4,8 -8,15 -12,23l0 0 0 0c-1,2 -2,3 -3,5l0 0 0 0 -1 2 0 0 0 0c-1,2 -2,3 -3,5l0 0 0 0c-2,3 -4,7 -6,10l0 0 0 0c-2,3 -3,6 -5,8l0 0 0 0c-1,1 -1,2 -2,3l0 0 0 0c-1,1 -1,2 -2,3l0 0 0 0c-4,6 -8,12 -12,19l0 0 0 0 -2 3 0 0 0 0c-2,2 -3,5 -5,7l0 0 0 0c-4,5 -8,10 -11,16l0 0 0 0c-2,3 -5,6 -7,9l0 0 0 0c-1,2 -3,3 -4,5l0 0 0 0c-5,6 -10,12 -14,18l0 0 0 0c-2,2 -3,4 -5,6l0 0 0 0 -1 1 0 0 0 0c-6,7 -12,14 -19,21l0 0 0 0 -1 1 0 0 0 0 -1 1 0 0 0 0 -1 1 0 0 0 0c-9,10 -18,19 -28,28l0 0 0 0 -1 1 0 0 0 0 -1 1 0 0 0 0c-7,6 -14,13 -21,19l0 0 0 0 -1 1 0 0 0 0c-2,2 -5,4 -7,6l0 0 0 0c-5,5 -11,9 -17,14l0 0 0 0c-2,1 -3,3 -5,4l0 0 0 0c-3,2 -6,5 -9,7l0 0 0 0c-3,2 -6,4 -8,6l0 0 0 0c-2,2 -5,3 -7,5l0 0 0 0c-2,2 -5,3 -7,5l0 0 0 0c-8,6 -16,11 -25,17l0 0 0 0c-1,1 -2,1 -3,2l0 0 0 0c-6,4 -12,8 -19,11l0 0 0 0c-2,1 -3,2 -5,3l0 0 0 0c-2,1 -5,3 -7,4l0 0 0 0c-7,4 -14,8 -21,11l0 0 0 0 -2 1 0 0 0 0 -2 1 0 0 0 0 -2 1 0 0 0 0 -2 1 0 0 0 0 -2 1 0 0 0 0c-6,3 -11,5 -17,8l0 0 0 0c-4,2 -7,3 -11,5l0 0 0 0 -2 1 0 0 0 0c-3,1 -6,3 -9,4l0 0 0 0c-6,2 -12,5 -17,7l0 0 0 0c-2,1 -3,1 -5,2l0 0 0 0c-2,1 -3,1 -5,2l0 0 0 0c-5,2 -9,3 -14,5 -1,0 -2,1 -3,1l0 0 0 0c-11,4 -23,8 -34,11 -2,1 -5,1 -7,2l0 0 0 0c-2,1 -5,1 -7,2l-1 0 0 0c-2,1 -5,1 -7,2l0 0 0 0c-7,2 -13,4 -20,5l-1 0 0 0c-1,0 -2,1 -4,1l-1 0 0 0 -4 1 0 0 0 0c-3,1 -6,1 -9,2l0 0 0 0c-5,1 -10,2 -15,3l0 0 0 0c-2,0 -3,1 -5,1l0 0 0 0c-2,0 -4,1 -6,1l-1 0 0 0c-2,0 -4,1 -6,1l-1 0 0 0c-7,1 -13,2 -20,3l0 0 0 0c-2,0 -5,1 -7,1l-1 0 0 0c-3,0 -5,1 -8,1l-1 0 0 0c-6,1 -13,1 -19,2l0 0 0 0c-4,0 -8,1 -12,1l-3 0 0 0c-18,1 -35,2 -53,2l-3853 0c-18,0 -36,-1 -53,-2z"/>
   <g style="clip-path:url(#id0)">
    <g>
     <rect class="fil1" transform="matrix(1.07449 -1.07449 1.07449 1.07449 3493.74 45.5218)" width="1729" height="1729"/>
    </g>
   </g>
   <path class="fil2" d="M695 5347l0 0 -3 0c-4,0 -7,-1 -11,-1l0 0 -1 0c-7,-1 -13,-1 -20,-2l0 0 0 0c-3,0 -5,-1 -8,-1l0 0 -1 0c-5,-1 -10,-1 -15,-2l0 0 0 0c-4,-1 -8,-1 -12,-2l0 0 0 0c-2,0 -4,-1 -6,-1l0 0 0 0c-2,0 -3,-1 -5,-1l0 0 -1 0c-2,0 -4,-1 -5,-1l0 0 0 0c-7,-1 -13,-3 -20,-4l0 0 0 0c-3,-1 -6,-1 -9,-2l0 0 0 0c-1,0 -3,-1 -4,-1l0 0 0 0c-5,-1 -11,-3 -16,-4l0 0 0 0c-2,-1 -5,-1 -7,-2l0 0 0 0c-1,0 -2,-1 -4,-1l0 0 0 0 -3 -1 0 0 -1 0c-2,-1 -4,-1 -7,-2l0 0 0 0c-4,-1 -9,-3 -13,-4l0 0 0 0 -3 -1 0 0 0 0 -3 -1 0 0 0 0 -3 -1 0 0 0 0 -3 -1 0 0 0 0c-1,0 -2,-1 -3,-1l0 0 0 0 -3 -1 0 0 0 0c-7,-2 -13,-5 -20,-7l0 0 0 0c-2,-1 -3,-1 -5,-2l0 0 0 0 -3 -1 0 0 0 0c-6,-2 -12,-5 -18,-7l0 0 0 0c-3,-1 -6,-3 -9,-4l0 0 0 0c-3,-1 -6,-3 -9,-4l0 0 0 0 -2 -1 0 0 0 0c-17,-8 -34,-17 -51,-26l0 0 0 0c-2,-1 -5,-3 -7,-4l0 0 0 0c-2,-1 -5,-3 -7,-4l0 0 0 0c-6,-4 -13,-8 -19,-11l0 0 0 0c-1,-1 -2,-1 -3,-2l0 0 0 0c-5,-3 -10,-6 -14,-9l0 0 0 0 -3 -2c-4,-2 -7,-5 -10,-7l0 0 0 0c-2,-2 -5,-3 -7,-5l0 0 0 0c-4,-3 -8,-6 -11,-8l0 0 0 0c-3,-2 -6,-5 -9,-7l0 0 0 0c-1,-1 -3,-2 -4,-3l0 0 0 0 -1 -1 0 0 0 0c-1,-1 -3,-2 -4,-3l0 0 0 0c-4,-3 -8,-6 -11,-9l0 0 0 0c-2,-2 -5,-4 -7,-6l0 0 0 0c-2,-2 -5,-4 -7,-6l0 0 0 0 -1 -1 0 0 0 0c-8,-7 -16,-14 -24,-22l0 0 0 0 -1 -1 0 0 0 0 -1 -1 0 0 0 0 -1 -1 0 0 0 0 -1 -1 0 0 0 0c-4,-4 -8,-8 -12,-12l0 0 0 0 -1 -1 0 0 0 0 -1 -1 0 0 0 0 -1 -1 0 0 0 0 -1 -1 0 0 0 0c-7,-8 -15,-16 -22,-24l0 0 0 0 -1 -1 0 0 0 0c-2,-2 -4,-5 -6,-7l0 0 0 0c-2,-2 -4,-5 -6,-7l0 0 0 0c-3,-4 -6,-8 -9,-11l0 0 0 0c-1,-1 -2,-3 -3,-4l0 0 0 0 -1 -1 0 0 0 0c-1,-1 -2,-3 -3,-4l0 0 0 0c-2,-3 -5,-6 -7,-9l0 0 0 0c-3,-4 -6,-8 -8,-11l0 0 0 0c-2,-2 -3,-5 -5,-7l0 0 0 0c-2,-3 -5,-7 -7,-10 -1,-1 -1,-2 -2,-3l0 0 0 0c-3,-5 -6,-10 -9,-14l0 0 0 0c-1,-1 -1,-2 -2,-3l0 0 0 0c-4,-6 -8,-12 -11,-19l0 0 0 0c-1,-2 -3,-5 -4,-7l0 0 0 0c-1,-2 -3,-5 -4,-7l0 0 0 0c-9,-17 -18,-34 -26,-51l0 0 0 0 -1 -2 0 0 0 0c-1,-3 -3,-6 -4,-9l0 0 0 0c-1,-3 -3,-6 -4,-9l0 0 0 0c-2,-6 -5,-12 -7,-18l0 0 0 0 -1 -3 0 0 0 0c-1,-2 -1,-3 -2,-5l0 0 0 0c-2,-7 -5,-13 -7,-20l0 0 0 0 -1 -3 0 0 0 0c0,-1 -1,-2 -1,-3l0 0 0 0 -1 -3 0 0 0 0c0,-1 -1,-2 -1,-3l0 0 0 0 -1 -3 0 0 0 0 -1 -3 0 0 0 0c-1,-4 -3,-9 -4,-13l0 0 0 0c-1,-2 -1,-4 -2,-7l0 -1 0 0 -1 -3 0 0 0 0c0,-1 -1,-2 -1,-4l0 0 0 0c-1,-2 -1,-5 -2,-7l0 0 0 0c-1,-5 -3,-11 -4,-16l0 0 0 0c0,-1 -1,-3 -1,-4l0 0 0 0c-1,-3 -1,-6 -2,-9l0 0 0 0c-1,-7 -3,-13 -4,-20l0 0 0 0c0,-2 -1,-4 -1,-5l0 -1 0 0c0,-2 -1,-3 -1,-5l0 0 0 0c0,-2 -1,-4 -1,-6l0 0 0 0c-1,-4 -1,-8 -2,-12l0 0 0 0c-1,-5 -1,-10 -2,-15l0 -1 0 0c0,-3 -1,-5 -1,-8l0 0 0 0c-1,-6 -1,-13 -2,-20l0 -1 0 0c0,-4 -1,-7 -1,-11l0 -3 0 0c-1,-18 -2,-35 -2,-53l0 -3853c0,-18 1,-36 2,-53l0 0 0 -3c0,-4 1,-7 1,-11l0 0 0 -1c1,-7 1,-13 2,-20l0 0 0 0c0,-3 1,-5 1,-8l0 0 0 -1c1,-5 1,-10 2,-15l0 0 0 0c1,-4 1,-8 2,-12l0 0 0 0c0,-2 1,-4 1,-6l0 0 0 0c0,-2 1,-3 1,-5l0 0 0 -1c0,-2 1,-4 1,-5l0 0 0 0c1,-7 3,-13 4,-20l0 0 0 0c1,-3 1,-6 2,-9l0 0 0 0c0,-1 1,-3 1,-4l0 0 0 0c1,-5 3,-11 4,-16l0 0 0 0c1,-2 1,-5 2,-7l0 0 0 0c0,-1 1,-2 1,-4l0 0 0 0 1 -3 0 0 0 -1c1,-2 1,-4 2,-7l0 0 0 0c1,-4 3,-9 4,-13l0 0 0 0 1 -3 0 0 0 0 1 -3 0 0 0 0 1 -3 0 0 0 0 1 -3 0 0 0 0c0,-1 1,-2 1,-3l0 0 0 0 1 -3 0 0 0 0c2,-7 5,-13 7,-20l0 0 0 0c1,-2 1,-3 2,-5l0 0 0 0 1 -3 0 0 0 0c2,-6 5,-12 7,-18l0 0 0 0c1,-3 3,-6 4,-9l0 0 0 0c1,-3 3,-6 4,-9l0 0 0 0 1 -2 0 0 0 0c8,-17 17,-34 26,-51l0 0 0 0c1,-2 3,-5 4,-7l0 0 0 0c1,-2 3,-5 4,-7l0 0 0 0c4,-6 8,-13 11,-19l0 0 0 0c1,-1 1,-2 2,-3l0 0 0 0c3,-5 6,-10 9,-14l0 0 0 0 2 -3 0 0 0 0c2,-4 5,-7 7,-10l0 0 0 0c2,-2 3,-5 5,-7l0 0 0 0c3,-4 6,-8 8,-11l0 0 0 0c2,-3 5,-6 7,-9l0 0 0 0c1,-1 2,-3 3,-4l0 0 0 0 1 -1 0 0 0 0c1,-1 2,-3 3,-4l0 0 0 0c3,-4 6,-8 9,-11l0 0 0 0c2,-2 4,-5 6,-7l0 0 0 0c2,-2 4,-5 6,-7l0 0 0 0 1 -1 0 0 0 0c7,-8 14,-16 22,-24l0 0 0 0 1 -1 0 0 0 0 1 -1 0 0 0 0 1 -1 0 0 0 0 1 -1 0 0 0 0c4,-4 8,-8 12,-12l0 0 0 0 1 -1 0 0 0 0 1 -1 0 0 0 0 1 -1 0 0 0 0 1 -1 0 0 0 0c8,-7 16,-15 24,-22l0 0 0 0 1 -1 0 0 0 0c2,-2 5,-4 7,-6l0 0 0 0c2,-2 5,-4 7,-6l0 0 0 0c4,-3 8,-6 11,-9l0 0 0 0c1,-1 3,-2 4,-3l0 0 0 0 1 -1 0 0 0 0c1,-1 3,-2 4,-3l0 0 0 0c3,-2 6,-5 9,-7l0 0 0 0c4,-3 8,-6 11,-8l0 0 0 0c2,-2 5,-3 7,-5l0 0 0 0c4,-3 9,-6 14,-9l0 0 0 0c5,-3 10,-6 14,-9l0 0 0 0c1,-1 2,-1 3,-2l0 0 0 0c6,-4 12,-8 19,-11l0 0 0 0c2,-1 5,-3 7,-4l0 0 0 0c2,-1 5,-3 7,-4l0 0 0 0c17,-9 34,-18 51,-26l0 0 0 0 2 -1 0 0 0 0c3,-1 6,-3 9,-4l0 0 0 0c3,-1 6,-3 9,-4l0 0 0 0c6,-2 12,-5 18,-7l0 0 0 0 3 -1 0 0 0 0c2,-1 3,-1 5,-2l0 0 0 0c7,-2 13,-5 20,-7l0 0 0 0 3 -1 0 0 0 0c1,0 2,-1 3,-1l0 0 0 0 3 -1 0 0 0 0c1,0 2,-1 3,-1l0 0 0 0 3 -1 0 0 0 0 3 -1 0 0 0 0c4,-1 9,-3 13,-4l0 0 0 0c2,-1 4,-1 7,-2l1 0 0 0 3 -1 0 0 0 0c1,0 2,-1 4,-1l0 0 0 0c2,-1 5,-1 7,-2l0 0 0 0c5,-1 11,-3 16,-4l0 0 0 0c1,0 3,-1 4,-1l0 0 0 0c3,-1 6,-1 9,-2l0 0 0 0c7,-1 13,-3 20,-4l0 0 0 0c2,0 4,-1 5,-1l1 0 0 0c2,0 3,-1 5,-1l0 0 0 0c2,0 4,-1 6,-1l0 0 0 0c4,-1 8,-1 12,-2l0 0 0 0c5,-1 10,-1 15,-2l1 0 0 0c3,0 5,-1 8,-1l0 0 0 0c7,-1 13,-1 20,-2l1 0 0 0c4,0 7,-1 11,-1l3 0 0 0c18,-1 35,-2 53,-2l3853 0c18,0 36,1 53,2l0 0 3 0c4,0 7,1 11,1l0 0 1 0c7,1 13,1 20,2l0 0 0 0c3,0 5,1 8,1l0 0 1 0c5,1 10,1 15,2l0 0 0 0c4,1 8,1 12,2l0 0 0 0c2,0 4,1 6,1l0 0 0 0c2,0 3,1 5,1l0 0 1 0c2,0 4,1 5,1l0 0 0 0c7,1 13,3 20,4l0 0 0 0c3,1 6,1 9,2l0 0 0 0c1,0 3,1 4,1l0 0 0 0c5,1 11,3 16,4l0 0 0 0c2,1 5,1 7,2l0 0 0 0c1,0 2,1 4,1l0 0 0 0 3 1 0 0 1 0c2,1 4,1 7,2l0 0 0 0c4,1 9,3 13,4l0 0 0 0 3 1 0 0 0 0 3 1 0 0 0 0 3 1 0 0 0 0 3 1 0 0 0 0c1,0 2,1 3,1l0 0 0 0 3 1 0 0 0 0c7,2 13,5 20,7l0 0 0 0c2,1 3,1 5,2l0 0 0 0 3 1 0 0 0 0c6,2 12,5 18,7l0 0 0 0c3,1 6,3 9,4l0 0 0 0c3,1 6,3 9,4l0 0 0 0 2 1 0 0 0 0c17,8 34,17 51,26l0 0 0 0c2,1 5,3 7,4l0 0 0 0c2,1 5,3 7,4l0 0 0 0c6,4 13,8 19,11l0 0 0 0c1,1 2,1 3,2l0 0 0 0c5,3 10,6 14,9l0 0 0 0c5,3 9,6 14,9l0 0 0 0c2,2 5,3 7,5l0 0 0 0c4,3 8,6 11,8l0 0 0 0c3,2 6,5 9,7l0 0 0 0c1,1 3,2 4,3l0 0 0 0 1 1 0 0 0 0c1,1 3,2 4,3l0 0 0 0c4,3 8,6 11,9l0 0 0 0c2,2 5,4 7,6l0 0 0 0c2,2 5,4 7,6l0 0 0 0 1 1 0 0 0 0c8,7 16,14 24,22l0 0 0 0 1 1 0 0 0 0 1 1 0 0 0 0 1 1 0 0 0 0 1 1 0 0 0 0c4,4 8,8 12,12l0 0 0 0 1 1 0 0 0 0 1 1 0 0 0 0 1 1 0 0 0 0 1 1 0 0 0 0c7,8 15,16 22,24l0 0 0 0 1 1 0 0 0 0c2,2 4,5 6,7l0 0 0 0c2,2 4,5 6,7l0 0 0 0c3,4 6,8 9,11l0 0 0 0c1,1 2,3 3,4l0 0 0 0 1 1 0 0 0 0c1,1 2,3 3,4l0 0 0 0c2,3 5,6 7,9l0 0 0 0c3,4 6,8 8,11l0 0 0 0c2,2 3,5 5,7l0 0 0 0c3,4 6,9 9,14l0 0 0 0c3,5 6,10 9,14l0 0 0 0c1,1 1,2 2,3l0 0 0 0c4,6 8,12 11,19l0 0 0 0c1,2 3,5 4,7l0 0 0 0c1,2 3,5 4,7l0 0 0 0c9,17 18,34 26,51l0 0 0 0 1 2 0 0 0 0c1,3 3,6 4,9l0 0 0 0c1,3 3,6 4,9l0 0 0 0c2,6 5,12 7,18l0 0 0 0 1 3 0 0 0 0c1,2 1,3 2,5l0 0 0 0c2,7 5,13 7,20l0 0 0 0 1 3 0 0 0 0c0,1 1,2 1,3l0 0 0 0 1 3 0 0 0 0c0,1 1,2 1,3l0 0 0 0 1 3 0 0 0 0 1 3 0 0 0 0c1,4 3,9 4,13l0 0 0 0c1,2 1,4 2,7l0 1 0 0 1 3 0 0 0 0c0,1 1,2 1,4l0 0 0 0c1,2 1,5 2,7l0 0 0 0c1,5 3,11 4,16l0 0 0 0c0,1 1,3 1,4l0 0 0 0c1,3 1,6 2,9l0 0 0 0c1,7 3,13 4,20l0 0 0 0c0,2 1,4 1,5l0 1 0 0c0,2 1,3 1,5l0 0 0 0c0,2 1,4 1,6l0 0 0 0c1,4 1,8 2,12l0 0 0 0c1,5 1,10 2,15l0 1 0 0c0,3 1,5 1,8l0 0 0 0c1,7 1,13 2,20l0 1 0 0c0,4 1,7 1,11l0 3 0 0c1,18 2,35 2,53l0 3853c0,18 -1,36 -2,53l0 0 0 3c0,4 -1,8 -1,12l0 0 0 0c-1,7 -1,13 -2,19l0 0 0 1c0,3 -1,5 -1,8l0 0 0 1c0,2 -1,5 -1,7l0 0 0 0c-1,7 -2,13 -3,20l0 0 0 1c0,2 -1,4 -1,6l0 0 0 1c-1,4 -1,7 -2,11l0 0 0 0c-1,7 -3,13 -4,20l0 0 0 1c0,2 -1,3 -1,5l0 0 0 0 -1 4 0 0 0 0c0,1 -1,2 -1,4l0 0 0 1c-2,7 -3,14 -5,20l0 0 0 0c-1,2 -1,5 -2,7l0 0 0 0c-1,2 -1,5 -2,7l0 0 0 0c-3,12 -7,24 -11,35l0 0 0 0 -1 3 0 0 0 0 -1 3 0 0 0 0c-2,6 -4,11 -6,17l0 0 0 0c-1,2 -1,3 -2,5l0 0 0 0c-1,2 -1,3 -2,5l0 0 0 0 -2 5 0 0 0 0c-2,5 -4,10 -6,14l0 0 0 0c-1,2 -2,5 -3,7l0 0 0 0 -1 2 0 0 0 0c-4,8 -7,16 -11,24l0 0 0 0 -1 2 0 0 0 0 -1 2 0 0 0 0 -1 2 0 0 0 0 -1 2 0 0 0 0 -1 2 0 0 0 0 -1 2 0 0 0 0c-4,8 -8,15 -12,23l0 0 0 0c-1,2 -2,3 -3,5l0 0 0 0 -1 2 0 0 0 0c-1,2 -2,3 -3,5l0 0 0 0c-2,3 -4,7 -6,10l0 0 0 0c-2,3 -3,6 -5,8l0 0 0 0c-1,1 -1,2 -2,3l0 0 0 0c-1,1 -1,2 -2,3l0 0 0 0c-4,6 -8,12 -12,19l0 0 0 0 -2 3 0 0 0 0c-2,2 -3,5 -5,7l0 0 0 0c-4,5 -8,10 -11,16l0 0 0 0c-2,3 -5,6 -7,9l0 0 0 0c-1,2 -3,3 -4,5l0 0 0 0c-5,6 -10,12 -14,18l0 0 0 0c-2,2 -3,4 -5,6l0 0 0 0 -1 1 0 0 0 0c-6,7 -12,14 -19,21l0 0 0 0 -1 1 0 0 0 0 -1 1 0 0 0 0 -1 1 0 0 0 0c-9,10 -18,19 -28,28l0 0 0 0 -1 1 0 0 0 0 -1 1 0 0 0 0c-7,6 -14,13 -21,19l0 0 0 0 -1 1 0 0 0 0c-2,2 -5,4 -7,6l0 0 0 0c-5,5 -11,9 -17,14l0 0 0 0c-2,1 -3,3 -5,4l0 0 0 0c-3,2 -6,5 -9,7l0 0 0 0c-3,2 -6,4 -8,6l0 0 0 0c-2,2 -5,3 -7,5l0 0 0 0c-2,2 -5,3 -7,5l0 0 0 0c-8,6 -16,11 -25,17l0 0 0 0c-1,1 -2,1 -3,2l0 0 0 0c-6,4 -12,8 -19,11l0 0 0 0c-2,1 -3,2 -5,3l0 0 0 0c-2,1 -5,3 -7,4l0 0 0 0c-7,4 -14,8 -21,11l0 0 0 0 -2 1 0 0 0 0 -2 1 0 0 0 0 -2 1 0 0 0 0 -2 1 0 0 0 0 -2 1 0 0 0 0c-6,3 -11,5 -17,8l0 0 0 0c-4,2 -7,3 -11,5l0 0 0 0 -2 1 0 0 0 0c-3,1 -6,3 -9,4l0 0 0 0c-6,2 -12,5 -17,7l0 0 0 0c-2,1 -3,1 -5,2l0 0 0 0c-2,1 -3,1 -5,2l0 0 0 0c-5,2 -9,3 -14,5 -1,0 -2,1 -3,1l0 0 0 0c-11,4 -23,8 -34,11 -2,1 -5,1 -7,2l0 0 0 0c-2,1 -5,1 -7,2l-1 0 0 0c-2,1 -5,1 -7,2l0 0 0 0c-7,2 -13,4 -20,5l-1 0 0 0c-1,0 -2,1 -4,1l-1 0 0 0 -4 1 0 0 0 0c-3,1 -6,1 -9,2l0 0 0 0c-5,1 -10,2 -15,3l0 0 0 0c-2,0 -3,1 -5,1l0 0 0 0c-2,0 -4,1 -6,1l-1 0 0 0c-2,0 -4,1 -6,1l-1 0 0 0c-7,1 -13,2 -20,3l0 0 0 0c-2,0 -5,1 -7,1l-1 0 0 0c-3,0 -5,1 -8,1l-1 0 0 0c-6,1 -13,1 -19,2l0 0 0 0c-4,0 -8,1 -12,1l-3 0 0 0c-18,1 -35,2 -53,2l-3853 0c-18,0 -36,-1 -53,-2z"/>
   <path class="fil3" d="M3978 1160c28,0 50,23 50,50 0,28 -23,50 -50,50 -28,0 -50,-23 -50,-50 0,-28 23,-50 50,-50z"/>
   <path class="fil3" d="M3072 1474c28,0 50,23 50,50 0,28 -23,50 -50,50 -28,0 -50,-23 -50,-50 0,-28 23,-50 50,-50z"/>
   <path class="fil3" d="M2406 1160c28,0 50,23 50,50 0,28 -23,50 -50,50 -28,0 -50,-23 -50,-50 0,-28 23,-50 50,-50z"/>
   <path class="fil3" d="M1460 1227c28,0 50,23 50,50 0,28 -23,50 -50,50 -28,0 -50,-23 -50,-50 0,-28 23,-50 50,-50z"/>
   <path class="fil3" d="M1096 3903c-17,0 -34,-17 -34,-34l0 -2144c0,-140 112,-257 246,-257 67,0 129,28 174,73 45,45 73,112 73,179l0 67c0,17 -17,34 -34,34 -17,0 -34,-17 -34,-34l0 -67c0,-50 -17,-95 -50,-129 -34,-34 -78,-50 -123,-50 -95,0 -174,84 -174,190l0 2144c-11,17 -28,28 -45,28z"/>
   <path class="fil3" d="M3895 4267l-2452 0c-106,0 -207,-39 -274,-118 -67,-73 -106,-174 -106,-280l0 -6c11,-134 118,-235 246,-235 67,0 129,34 174,84l0 -1925c0,-17 17,-34 34,-34l2306 0c17,0 34,17 34,34 0,17 -17,34 -34,34l-2273 0 0 2065c0,17 -17,34 -34,34 -17,0 -34,-17 -34,-34 -6,-101 -84,-185 -174,-185 -90,0 -168,73 -174,174 6,190 134,325 313,325l2452 0c179,0 308,-140 313,-325 -6,-95 -84,-174 -174,-174 -90,0 -168,84 -173,185 0,17 -17,34 -34,34 -17,0 -34,-17 -34,-34l0 -1959c0,-17 17,-34 34,-34 17,0 34,17 34,34l0 1786c45,-50 106,-84 173,-84 129,0 235,106 246,235 0,0 0,0 0,6 0,106 -39,207 -106,280 -84,78 -179,118 -285,118z"/>
   <path class="fil3" d="M4242 3903c-17,0 -34,-17 -34,-34l0 -2144c0,-106 -78,-190 -174,-190 -45,0 -90,17 -123,50 -34,34 -50,78 -50,129l0 207c0,17 -17,34 -34,34 -17,0 -34,-17 -34,-34l0 -207c0,-67 28,-134 73,-179 45,-45 106,-73 173,-73 134,0 246,118 246,257l0 2144c-6,28 -22,39 -45,39z"/>
   <path class="fil3" d="M3475 1155c-78,0 -140,62 -140,140 0,78 62,140 140,140 78,0 140,-62 140,-140 0,-78 -62,-140 -140,-140zm0 353c-118,0 -213,-95 -213,-213 0,-118 95,-213 213,-213 118,0 213,95 213,213 0,118 -101,213 -213,213z"/>
   <path class="fil3" d="M1863 1328c-56,0 -106,45 -106,106 0,56 45,106 106,106 56,0 106,-45 106,-106 0,-62 -45,-106 -106,-106zm0 280c-95,0 -174,-78 -174,-173 0,-95 78,-174 174,-174 95,0 174,78 174,174 0,95 -78,173 -174,173z"/>
   <path class="fil3" d="M1829 3533l353 0 0 -174 -353 0 0 174zm386 73l-420 0c-17,0 -34,-17 -34,-34l0 -246c0,-17 17,-34 34,-34l420 0c17,0 34,17 34,34l0 246c0,17 -17,34 -34,34z"/>
   <path class="fil3" d="M1829 3046l353 0 0 -173 -353 0 0 173zm386 67l-420 0c-17,0 -34,-17 -34,-34l0 -246c0,-17 17,-34 34,-34l420 0c17,0 34,17 34,34l0 246c0,17 -17,34 -34,34z"/>
   <path class="fil3" d="M2495 3533l353 0 0 -174 -353 0 0 174zm386 73l-420 0c-17,0 -34,-17 -34,-34l0 -246c0,-17 17,-34 34,-34l420 0c17,0 34,17 34,34l0 246c0,17 -17,34 -34,34z"/>
   <path class="fil3" d="M2495 3046l353 0 0 -173 -353 0 0 173zm386 67l-420 0c-17,0 -34,-17 -34,-34l0 -246c0,-17 17,-34 34,-34l420 0c17,0 34,17 34,34l0 246c0,17 -17,34 -34,34z"/>
   <path class="fil3" d="M2462 2380l420 0 0 -246 -420 0 0 246zm453 67l-493 0c-17,0 -34,-17 -34,-34l0 -313c0,-17 17,-34 34,-34l493 0c17,0 34,17 34,34l0 313c0,22 -17,34 -34,34z"/>
   <path class="fil3" d="M3161 3533l353 0 0 -174 -353 0 0 174zm381 73l-420 0c-17,0 -34,-17 -34,-34l0 -246c0,-17 17,-34 34,-34l420 0c17,0 34,17 34,34l0 246c6,17 -11,34 -34,34z"/>
   <path class="fil3" d="M3161 3046l353 0 0 -173 -353 0 0 173zm381 67l-420 0c-17,0 -34,-17 -34,-34l0 -246c0,-17 17,-34 34,-34l420 0c17,0 34,17 34,34l0 246c6,17 -11,34 -34,34z"/>
   <path class="fil3" d="M3335 3360c-17,0 -34,-17 -34,-34l0 -246c0,-17 17,-34 34,-34 17,0 34,17 34,34l0 246c0,17 -17,34 -34,34z"/>
   <path class="fil3" d="M2669 3360c-17,0 -34,-17 -34,-34l0 -246c0,-17 17,-34 34,-34 17,0 34,17 34,34l0 246c0,17 -17,34 -34,34z"/>
   <path class="fil3" d="M2669 2867c-17,0 -34,-17 -34,-34l0 -420c0,-17 17,-34 34,-34 17,0 34,17 34,34l0 420c0,22 -17,34 -34,34z"/>
   <path class="fil3" d="M2003 3360c-17,0 -34,-17 -34,-34l0 -246c0,-17 17,-34 34,-34 17,0 34,17 34,34l0 246c6,17 -11,34 -34,34z"/>
   <path class="fil3" d="M3335 2867c-17,0 -34,-17 -34,-34l0 -174 -1259 0 0 174c0,17 -17,34 -34,34 -17,0 -39,-11 -39,-34l0 -213c0,-17 17,-34 34,-34l1332 0c17,0 34,17 34,34l0 213c0,22 -17,34 -34,34z"/>
  </g>
 </g>
</svg>
