<?xml version="1.0" encoding="UTF-8"?>
<!DOCTYPE svg PUBLIC "-//W3C//DTD SVG 1.1//EN" "http://www.w3.org/Graphics/SVG/1.1/DTD/svg11.dtd">
<!-- Creator: CorelDRAW X6 -->
<svg xmlns="http://www.w3.org/2000/svg" xml:space="preserve" width="53.4859mm" height="53.4858mm" version="1.1" style="shape-rendering:geometricPrecision; text-rendering:geometricPrecision; image-rendering:optimizeQuality; fill-rule:evenodd; clip-rule:evenodd"
viewBox="0 0 5349 5349"
 xmlns:xlink="http://www.w3.org/1999/xlink">
 <defs>
  <style type="text/css">
   <![CDATA[
    .fil2 {fill:none}
    .fil3 {fill:#898989}
    .fil0 {fill:#D9DADA}
    .fil1 {fill:#E31E24}
   ]]>
  </style>
    <clipPath id="id0">
     <path d="M695 5347l0 0 -3 0c-4,0 -7,-1 -11,-1l0 0 -1 0c-7,-1 -13,-1 -20,-2l0 0 -1 0c-3,0 -5,-1 -8,-1l0 0 -1 0c-5,-1 -10,-1 -15,-2l0 0 0 0c-4,-1 -8,-1 -12,-2l0 0 0 0c-2,0 -4,-1 -6,-1l0 0 0 0c-2,0 -3,-1 -5,-1l0 0 -1 0c-2,0 -4,-1 -5,-1l0 0 0 0c-7,-1 -13,-3 -20,-4l0 0 0 0c-3,-1 -6,-1 -9,-2l0 0 0 0c-1,0 -3,-1 -4,-1l0 0 0 0c-5,-1 -11,-3 -16,-4l0 0 0 0c-2,-1 -5,-1 -7,-2l0 0 0 0c-1,0 -2,-1 -4,-1l0 0 0 0 -3 -1 0 0 -1 0c-2,-1 -4,-1 -7,-2l0 0 0 0c-4,-1 -9,-3 -13,-4l0 0 0 0 -3 -1 0 0 0 0 -3 -1 0 0 0 0 -3 -1 0 0 0 0 -3 -1 0 0 0 0c-1,0 -2,-1 -3,-1l0 0 0 0 -3 -1 0 0 0 0c-7,-2 -13,-5 -20,-7l0 0 0 0c-2,-1 -3,-1 -5,-2l0 0 -1 0 -3 -1 0 0 0 0c-6,-2 -12,-5 -18,-7l0 0 0 0c-3,-1 -6,-3 -9,-4l0 0 0 0c-3,-1 -6,-3 -9,-4l0 0 0 0 -2 -1 0 0 0 0c-17,-8 -34,-17 -51,-26l0 0 0 0c-2,-1 -5,-3 -7,-4l0 0 0 0c-2,-1 -5,-3 -7,-4l0 0 0 0c-6,-4 -13,-8 -19,-11l0 0 0 0c-1,-1 -2,-1 -3,-2l0 0 0 0c-5,-3 -10,-6 -14,-9l0 0 0 0 -3 -2c-4,-2 -7,-5 -10,-7l0 0 0 0c-2,-2 -5,-3 -7,-5l0 0 0 0c-4,-3 -8,-6 -11,-8l0 0 0 0c-3,-2 -6,-5 -9,-7l0 0 0 0c-1,-1 -3,-2 -4,-3l0 0 0 0 -1 -1 0 0 0 0c-1,-1 -3,-2 -4,-3l0 0 0 0c-4,-3 -8,-6 -11,-9l0 0 0 0c-2,-2 -5,-4 -7,-6l0 0 0 0c-2,-2 -5,-4 -7,-6l0 0 0 0 -1 -1 0 0 0 0c-8,-7 -16,-14 -24,-22l0 0 0 0 -1 -1 0 0 0 0 -1 -1 0 0 0 0 -1 -1 0 0 0 0 -1 -1 0 0 0 0c-4,-4 -8,-8 -12,-12l0 0 0 0 -1 -1 0 0 0 0 -1 -1 0 0 0 0 -1 -1 0 0 0 0 -1 -1 0 0 0 0c-7,-8 -15,-16 -22,-24l0 0 0 0 -1 -1 0 0 0 0c-2,-2 -4,-5 -6,-7l0 0 0 0c-2,-2 -4,-5 -6,-7l0 0 0 0c-3,-4 -6,-8 -9,-11l0 0 0 0c-1,-1 -2,-3 -3,-4l0 0 0 0 -1 -1 0 0 0 0c-1,-1 -2,-3 -3,-4l0 0 0 0c-2,-3 -5,-6 -7,-9l0 0 0 0c-3,-4 -6,-8 -8,-11l0 0 0 0c-2,-2 -3,-5 -5,-7l0 0 0 0c-2,-3 -5,-7 -7,-10 -1,-1 -1,-2 -2,-3l0 0 0 0c-3,-5 -6,-10 -9,-14l0 0 0 0c-1,-1 -1,-2 -2,-3l0 0 0 0c-4,-6 -8,-12 -11,-19l0 0 0 0c-1,-2 -3,-5 -4,-7l0 0 0 0c-1,-2 -3,-5 -4,-7l0 0 0 0c-9,-17 -18,-34 -26,-51l0 0 0 0 -1 -2 0 0 0 0c-1,-3 -3,-6 -4,-9l0 0 0 0c-1,-3 -3,-6 -4,-9l0 0 0 0c-3,-6 -5,-12 -7,-18l0 0 0 0 -1 -3 0 0 0 0c-1,-2 -1,-3 -2,-5l0 0 0 0c-3,-7 -5,-13 -7,-20l0 0 0 0 -1 -3 0 0 0 0c0,-1 -1,-2 -1,-3l0 0 0 0 -1 -3 0 0 0 0c0,-1 -1,-2 -1,-3l0 0 0 0 -1 -3 0 0 0 0 -1 -3 0 0 0 0c-1,-4 -3,-9 -4,-13l0 0 0 0c-1,-2 -1,-4 -2,-7l0 -1 0 0 -1 -3 0 0 0 0c0,-1 -1,-2 -1,-4l0 0 0 0c-1,-2 -1,-5 -2,-7l0 0 0 0c-1,-5 -3,-11 -4,-16l0 0 0 0c0,-1 -1,-3 -1,-4l0 0 0 0c-1,-3 -1,-6 -2,-9l0 0 0 0c-1,-7 -3,-13 -4,-20l0 0 0 0c0,-2 -1,-4 -1,-5l0 -1 0 0c0,-2 -1,-3 -1,-5l0 0 0 0c0,-2 -1,-4 -1,-6l0 0 0 0c-1,-4 -1,-8 -2,-12l0 0 0 0c-1,-5 -1,-10 -2,-15l0 -1 0 0c0,-3 -1,-5 -1,-8l0 0 0 0c-1,-7 -1,-13 -2,-20l0 -1 0 0c0,-4 -1,-7 -1,-11l0 -3 0 0c-1,-18 -2,-35 -2,-53l0 -3853c0,-18 1,-36 2,-53l0 0 0 -3c0,-4 1,-7 1,-11l0 0 0 -1c1,-7 1,-13 2,-20l0 0 0 0c0,-3 1,-5 1,-8l0 0 0 -1c1,-5 1,-10 2,-15l0 0 0 0c1,-4 1,-8 2,-12l0 0 0 0c0,-2 1,-4 1,-6l0 0 0 0c0,-2 1,-3 1,-5l0 0 0 -1c0,-2 1,-4 1,-5l0 0 0 0c1,-7 3,-13 4,-20l0 0 0 0c1,-3 1,-6 2,-9l0 0 0 0c0,-1 1,-3 1,-4l0 0 0 0c1,-5 3,-11 4,-16l0 0 0 0c1,-2 1,-5 2,-7l0 0 0 0c0,-1 1,-2 1,-4l0 0 0 0 1 -3 0 0 0 -1c1,-2 1,-4 2,-7l0 0 0 0c1,-4 3,-9 4,-13l0 0 0 0 1 -3 0 0 0 0 1 -3 0 0 0 0 1 -3 0 0 0 0 1 -3 0 0 0 0c0,-1 1,-2 1,-3l0 0 0 0 1 -3 0 0 0 0c2,-7 5,-13 7,-20l0 0 0 0c1,-2 1,-3 2,-5l0 0 0 0 1 -3 0 0 0 0c2,-6 5,-12 7,-18l0 0 0 0c1,-3 3,-6 4,-9l0 0 0 0c1,-3 3,-6 4,-9l0 0 0 0 1 -2 0 0 0 0c8,-17 17,-34 26,-51l0 0 0 0c1,-2 3,-5 4,-7l0 0 0 0c1,-2 3,-5 4,-7l0 0 0 0c4,-6 8,-13 11,-19l0 0 0 0c1,-1 1,-2 2,-3l0 0 0 0c3,-5 6,-10 9,-14l0 0 0 0 2 -3 0 0 0 0c2,-4 5,-7 7,-10l0 0 0 0c2,-2 3,-5 5,-7l0 0 0 0c3,-4 6,-8 8,-11l0 0 0 0c2,-3 5,-6 7,-9l0 0 0 0c1,-1 2,-3 3,-4l0 0 0 0 1 -1 0 0 0 0c1,-1 2,-3 3,-4l0 0 0 0c3,-4 6,-8 9,-11l0 0 0 0c2,-2 4,-5 6,-7l0 0 0 0c2,-2 4,-5 6,-7l0 0 0 0 1 -1 0 0 0 0c7,-8 14,-16 22,-24l0 0 0 0 1 -1 0 0 0 0 1 -1 0 0 0 0 1 -1 0 0 0 0 1 -1 0 0 0 0c4,-4 8,-8 12,-12l0 0 0 0 1 -1 0 0 0 0 1 -1 0 0 0 0 1 -1 0 0 0 0 1 -1 0 0 0 0c8,-7 16,-15 24,-22l0 0 0 0 1 -1 0 0 0 0c2,-2 5,-4 7,-6l0 0 0 0c2,-2 5,-4 7,-6l0 0 0 0c4,-3 8,-6 11,-9l0 0 0 0c1,-1 3,-2 4,-3l0 0 0 0 1 -1 0 0 0 0c1,-1 3,-2 4,-3l0 0 0 0c3,-2 6,-5 9,-7l0 0 0 0c4,-3 8,-6 11,-8l0 0 0 0c2,-2 5,-3 7,-5l0 0 0 0c4,-3 9,-6 14,-9l0 0 0 0c5,-3 10,-6 14,-9l0 0 0 0c1,-1 2,-1 3,-2l0 0 0 0c6,-4 12,-8 19,-11l0 0 0 0c2,-1 5,-3 7,-4l0 0 0 0c2,-1 5,-3 7,-4l0 0 0 0c17,-9 34,-18 51,-26l0 0 0 0 2 -1 0 0 0 0c3,-1 6,-3 9,-4l0 0 0 0c3,-1 6,-3 9,-4l0 0 0 0c6,-3 12,-5 18,-7l0 0 0 0 3 -1 1 0 0 0c2,-1 3,-1 5,-2l0 0 0 0c7,-3 13,-5 20,-7l0 0 0 0 3 -1 0 0 0 0c1,0 2,-1 3,-1l0 0 0 0 3 -1 0 0 0 0c1,0 2,-1 3,-1l0 0 0 0 3 -1 0 0 0 0 3 -1 0 0 0 0c4,-1 9,-3 13,-4l0 0 0 0c2,-1 4,-1 7,-2l1 0 0 0 3 -1 0 0 0 0c1,0 2,-1 4,-1l0 0 0 0c2,-1 5,-1 7,-2l0 0 0 0c5,-1 11,-3 16,-4l0 0 0 0c1,0 3,-1 4,-1l0 0 0 0c3,-1 6,-1 9,-2l0 0 0 0c7,-1 13,-3 20,-4l0 0 0 0c2,0 4,-1 5,-1l1 0 0 0c2,0 3,-1 5,-1l0 0 0 0c2,0 4,-1 6,-1l0 0 0 0c4,-1 8,-1 12,-2l0 0 0 0c5,-1 10,-1 15,-2l1 0 0 0c3,0 5,-1 8,-1l1 0 0 0c7,-1 13,-1 20,-2l1 0 0 0c4,0 7,-1 11,-1l3 0 0 0c18,-1 35,-2 53,-2l3853 0c18,0 36,1 53,2l0 0 3 0c4,0 7,1 11,1l0 0 1 0c7,1 13,1 20,2l0 0 1 0c3,0 5,1 8,1l0 0 1 0c5,1 10,1 15,2l0 0 0 0c4,1 8,1 12,2l0 0 0 0c2,0 4,1 6,1l0 0 0 0c2,0 3,1 5,1l0 0 1 0c2,0 4,1 5,1l0 0 0 0c7,1 13,3 20,4l0 0 0 0c3,1 6,1 9,2l0 0 0 0c1,0 3,1 4,1l0 0 0 0c6,1 11,3 16,4l0 0 0 0c2,1 5,1 7,2l0 0 0 0c1,0 2,1 4,1l0 0 0 0 3 1 0 0 1 0c2,1 4,1 7,2l0 0 0 0c4,1 9,3 13,4l0 0 0 0 3 1 0 0 0 0 3 1 0 0 0 0 3 1 0 0 0 0 3 1 0 0 0 0c1,0 2,1 3,1l0 0 0 0 3 1 0 0 0 0c7,2 13,5 20,7l0 0 0 0c2,1 3,1 5,2l0 0 1 0 3 1 0 0 0 0c6,2 12,5 18,7l0 0 0 0c3,1 6,3 9,4l0 0 0 0c3,1 6,3 9,4l0 0 0 0 2 1 0 0 0 0c17,8 34,17 51,26l0 0 0 0c2,1 5,3 7,4l0 0 0 0c2,1 5,3 7,4l0 0 0 0c6,4 13,8 19,11l0 0 0 0c1,1 2,1 3,2l0 0 0 0c5,3 10,6 14,9l0 0 0 0c5,3 9,6 14,9l0 0 0 0c2,2 5,3 7,5l0 0 0 0c4,3 8,6 11,8l0 0 0 0c3,2 6,5 9,7l0 0 0 0c1,1 3,2 4,3l0 0 0 0 1 1 0 0 0 0c1,1 3,2 4,3l0 0 0 0c4,3 8,6 11,9l0 0 0 0c2,2 5,4 7,6l0 0 0 0c2,2 5,4 7,6l0 0 0 0 1 1 0 0 0 0c8,7 16,14 24,22l0 0 0 0 1 1 0 0 0 0 1 1 0 0 0 0 1 1 0 0 0 0 1 1 0 0 0 0c4,4 8,8 12,12l0 0 0 0 1 1 0 0 0 0 1 1 0 0 0 0 1 1 0 0 0 0 1 1 0 0 0 0c7,8 15,16 22,24l0 0 0 0 1 1 0 0 0 0c2,2 4,5 6,7l0 0 0 0c2,2 4,5 6,7l0 0 0 0c3,4 6,8 9,11l0 0 0 0c1,1 2,3 3,4l0 0 0 0 1 1 0 0 0 0c1,1 2,3 3,4l0 0 0 0c2,3 5,6 7,9l0 0 0 0c3,4 6,8 8,11l0 0 0 0c2,2 3,5 5,7l0 0 0 0c3,4 6,9 9,14l0 0 0 0c3,5 6,10 9,14l0 0 0 0c1,1 1,2 2,3l0 0 0 0c4,6 8,12 11,19l0 0 0 0c1,2 3,5 4,7l0 0 0 0c1,2 3,5 4,7l0 0 0 0c9,17 18,34 26,51l0 0 0 0 1 2 0 0 0 0c1,3 3,6 4,9l0 0 0 0c1,3 3,6 4,9l0 0 0 0c2,6 5,12 7,18l0 0 0 0 1 3 0 0 0 0c1,2 1,3 2,5l0 0 0 0c3,7 5,13 7,20l0 0 0 0 1 3 0 0 0 0c0,1 1,2 1,3l0 0 0 0 1 3 0 0 0 0c0,1 1,2 1,3l0 0 0 0 1 3 0 0 0 0 1 3 0 0 0 0c1,4 3,9 4,13l0 0 0 0c1,2 1,4 2,7l0 1 0 0 1 3 0 0 0 0c0,1 1,2 1,4l0 0 0 0c1,2 1,5 2,7l0 0 0 0c1,5 3,11 4,16l0 0 0 0c0,1 1,3 1,4l0 0 0 0c1,3 1,6 2,9l0 0 0 0c1,7 3,13 4,20l0 0 0 0c0,2 1,4 1,5l0 1 0 0c0,2 1,3 1,5l0 0 0 0c0,2 1,4 1,6l0 0 0 0c1,4 1,8 2,12l0 0 0 0c1,5 1,10 2,15l0 1 0 0c0,3 1,5 1,8l0 0 0 0c1,7 1,13 2,20l0 1 0 0c0,4 1,7 1,11l0 3 0 0c1,18 2,35 2,53l0 3853c0,18 -1,36 -2,53l0 0 0 3c0,4 -1,8 -1,12l0 0 0 0c-1,7 -1,13 -2,19l0 0 0 1c0,3 -1,5 -1,8l0 0 0 1c0,2 -1,5 -1,7l0 0 0 0c-1,7 -2,13 -3,20l0 0 0 1c0,2 -1,4 -1,6l0 0 0 1c-1,4 -1,7 -2,11l0 0 0 0c-1,7 -3,13 -4,20l0 0 0 1c0,2 -1,3 -1,5l0 0 0 0 -1 4 0 0 0 0c0,1 -1,2 -1,4l0 0 0 1c-2,7 -3,14 -5,20l0 0 0 0c-1,2 -1,5 -2,7l0 0 0 0c-1,2 -1,5 -2,7l0 0 0 0c-4,12 -7,24 -11,35l0 0 0 0 -1 3 0 0 0 0 -1 3 0 0 0 0c-2,6 -4,11 -6,17l0 0 0 0c-1,2 -1,3 -2,5l0 0 0 0c-1,2 -1,3 -2,5l0 0 0 0 -2 5 0 0 0 0c-2,5 -4,10 -6,14l0 0 0 0c-1,2 -2,5 -3,7l0 0 0 0 -1 2 0 0 0 0c-4,8 -7,16 -11,24l0 0 0 0 -1 2 0 0 0 0 -1 2 0 0 0 0 -1 2 0 0 0 0 -1 2 0 0 0 0 -1 2 0 0 0 0 -1 2 0 0 0 0c-4,8 -8,15 -12,23l0 0 0 0c-1,2 -2,3 -3,5l0 0 0 0 -1 2 0 0 0 0c-1,2 -2,3 -3,5l0 0 0 0c-2,3 -4,7 -6,10l0 0 0 0c-2,3 -3,6 -5,8l0 0 0 0c-1,1 -1,2 -2,3l0 0 0 0c-1,1 -1,2 -2,3l0 0 0 0c-4,6 -8,12 -12,19l0 0 0 0 -2 3 0 0 0 0c-2,2 -3,5 -5,7l0 0 0 0c-4,5 -8,10 -11,16l0 0 0 0c-2,3 -5,6 -7,9l0 0 0 0c-1,2 -3,3 -4,5l0 0 0 0c-5,6 -10,12 -14,18l0 0 0 0c-2,2 -3,4 -5,6l0 0 0 0 -1 1 0 0 0 0c-6,7 -12,14 -19,21l0 0 0 0 -1 1 0 0 0 0 -1 1 0 0 0 0 -1 1 0 0 0 0c-9,10 -18,19 -28,28l0 0 0 0 -1 1 0 0 0 0 -1 1 0 0 0 0c-7,6 -14,13 -21,19l0 0 0 0 -1 1 0 0 0 0c-2,2 -5,4 -7,6l0 0 0 0c-5,5 -11,9 -17,14l0 0 0 0c-2,1 -3,3 -5,4l0 0 0 0c-3,2 -6,5 -9,7l0 0 0 0c-3,2 -6,4 -8,6l0 0 0 0c-2,2 -5,3 -7,5l0 0 0 0c-2,2 -5,3 -7,5l0 0 0 0c-8,6 -16,11 -25,17l0 0 0 0c-1,1 -2,1 -3,2l0 0 0 0c-6,4 -12,8 -19,11l0 0 0 0c-2,1 -3,2 -5,3l0 0 0 0c-2,1 -5,3 -7,4l0 0 0 0c-7,4 -14,8 -21,11l0 0 0 0 -2 1 0 0 0 0 -2 1 0 0 0 0 -2 1 0 0 0 0 -2 1 0 0 0 0 -2 1 0 0 0 0c-6,3 -11,6 -17,8l0 0 0 0c-4,2 -7,3 -11,5l0 0 0 0 -2 1 0 0 0 0c-3,1 -6,3 -9,4l0 0 0 0c-6,3 -12,5 -17,7l0 0 0 0c-2,1 -3,1 -5,2l0 0 0 0c-2,1 -3,1 -5,2l0 0 0 0c-5,2 -9,3 -14,5 -1,0 -2,1 -3,1l0 0 0 0c-11,4 -23,8 -34,11 -2,1 -5,1 -7,2l0 0 0 0c-2,1 -5,1 -7,2l-1 0 0 0c-2,1 -5,1 -7,2l0 0 0 0c-7,2 -13,4 -20,5l-1 0 0 0c-1,0 -2,1 -4,1l-1 0 0 0 -4 1 0 0 0 0c-3,1 -6,1 -9,2l0 0 0 0c-5,1 -10,2 -15,3l0 0 0 0c-2,0 -3,1 -5,1l0 0 0 0c-2,0 -4,1 -6,1l-1 0 0 0c-2,0 -4,1 -6,1l-1 0 0 0c-7,1 -13,2 -20,3l0 0 0 0c-2,0 -5,1 -7,1l-1 0 0 0c-3,0 -5,1 -8,1l-1 0 0 0c-6,1 -13,1 -19,2l0 0 0 0c-4,0 -8,1 -12,1l-3 0 0 0c-18,1 -35,2 -53,2l-3853 0c-18,0 -36,-1 -53,-2z"/>
    </clipPath>
 </defs>
 <g id="Layer_x0020_1">
  <metadata id="CorelCorpID_0Corel-Layer"/>
  <g id="_384532112">
   <path class="fil0" d="M695 5347l0 0 -3 0c-4,0 -7,-1 -11,-1l0 0 -1 0c-7,-1 -13,-1 -20,-2l0 0 -1 0c-3,0 -5,-1 -8,-1l0 0 -1 0c-5,-1 -10,-1 -15,-2l0 0 0 0c-4,-1 -8,-1 -12,-2l0 0 0 0c-2,0 -4,-1 -6,-1l0 0 0 0c-2,0 -3,-1 -5,-1l0 0 -1 0c-2,0 -4,-1 -5,-1l0 0 0 0c-7,-1 -13,-3 -20,-4l0 0 0 0c-3,-1 -6,-1 -9,-2l0 0 0 0c-1,0 -3,-1 -4,-1l0 0 0 0c-5,-1 -11,-3 -16,-4l0 0 0 0c-2,-1 -5,-1 -7,-2l0 0 0 0c-1,0 -2,-1 -4,-1l0 0 0 0 -3 -1 0 0 -1 0c-2,-1 -4,-1 -7,-2l0 0 0 0c-4,-1 -9,-3 -13,-4l0 0 0 0 -3 -1 0 0 0 0 -3 -1 0 0 0 0 -3 -1 0 0 0 0 -3 -1 0 0 0 0c-1,0 -2,-1 -3,-1l0 0 0 0 -3 -1 0 0 0 0c-7,-2 -13,-5 -20,-7l0 0 0 0c-2,-1 -3,-1 -5,-2l0 0 -1 0 -3 -1 0 0 0 0c-6,-2 -12,-5 -18,-7l0 0 0 0c-3,-1 -6,-3 -9,-4l0 0 0 0c-3,-1 -6,-3 -9,-4l0 0 0 0 -2 -1 0 0 0 0c-17,-8 -34,-17 -51,-26l0 0 0 0c-2,-1 -5,-3 -7,-4l0 0 0 0c-2,-1 -5,-3 -7,-4l0 0 0 0c-6,-4 -13,-8 -19,-11l0 0 0 0c-1,-1 -2,-1 -3,-2l0 0 0 0c-5,-3 -10,-6 -14,-9l0 0 0 0 -3 -2c-4,-2 -7,-5 -10,-7l0 0 0 0c-2,-2 -5,-3 -7,-5l0 0 0 0c-4,-3 -8,-6 -11,-8l0 0 0 0c-3,-2 -6,-5 -9,-7l0 0 0 0c-1,-1 -3,-2 -4,-3l0 0 0 0 -1 -1 0 0 0 0c-1,-1 -3,-2 -4,-3l0 0 0 0c-4,-3 -8,-6 -11,-9l0 0 0 0c-2,-2 -5,-4 -7,-6l0 0 0 0c-2,-2 -5,-4 -7,-6l0 0 0 0 -1 -1 0 0 0 0c-8,-7 -16,-14 -24,-22l0 0 0 0 -1 -1 0 0 0 0 -1 -1 0 0 0 0 -1 -1 0 0 0 0 -1 -1 0 0 0 0c-4,-4 -8,-8 -12,-12l0 0 0 0 -1 -1 0 0 0 0 -1 -1 0 0 0 0 -1 -1 0 0 0 0 -1 -1 0 0 0 0c-7,-8 -15,-16 -22,-24l0 0 0 0 -1 -1 0 0 0 0c-2,-2 -4,-5 -6,-7l0 0 0 0c-2,-2 -4,-5 -6,-7l0 0 0 0c-3,-4 -6,-8 -9,-11l0 0 0 0c-1,-1 -2,-3 -3,-4l0 0 0 0 -1 -1 0 0 0 0c-1,-1 -2,-3 -3,-4l0 0 0 0c-2,-3 -5,-6 -7,-9l0 0 0 0c-3,-4 -6,-8 -8,-11l0 0 0 0c-2,-2 -3,-5 -5,-7l0 0 0 0c-2,-3 -5,-7 -7,-10 -1,-1 -1,-2 -2,-3l0 0 0 0c-3,-5 -6,-10 -9,-14l0 0 0 0c-1,-1 -1,-2 -2,-3l0 0 0 0c-4,-6 -8,-12 -11,-19l0 0 0 0c-1,-2 -3,-5 -4,-7l0 0 0 0c-1,-2 -3,-5 -4,-7l0 0 0 0c-9,-17 -18,-34 -26,-51l0 0 0 0 -1 -2 0 0 0 0c-1,-3 -3,-6 -4,-9l0 0 0 0c-1,-3 -3,-6 -4,-9l0 0 0 0c-3,-6 -5,-12 -7,-18l0 0 0 0 -1 -3 0 0 0 0c-1,-2 -1,-3 -2,-5l0 0 0 0c-3,-7 -5,-13 -7,-20l0 0 0 0 -1 -3 0 0 0 0c0,-1 -1,-2 -1,-3l0 0 0 0 -1 -3 0 0 0 0c0,-1 -1,-2 -1,-3l0 0 0 0 -1 -3 0 0 0 0 -1 -3 0 0 0 0c-1,-4 -3,-9 -4,-13l0 0 0 0c-1,-2 -1,-4 -2,-7l0 -1 0 0 -1 -3 0 0 0 0c0,-1 -1,-2 -1,-4l0 0 0 0c-1,-2 -1,-5 -2,-7l0 0 0 0c-1,-5 -3,-11 -4,-16l0 0 0 0c0,-1 -1,-3 -1,-4l0 0 0 0c-1,-3 -1,-6 -2,-9l0 0 0 0c-1,-7 -3,-13 -4,-20l0 0 0 0c0,-2 -1,-4 -1,-5l0 -1 0 0c0,-2 -1,-3 -1,-5l0 0 0 0c0,-2 -1,-4 -1,-6l0 0 0 0c-1,-4 -1,-8 -2,-12l0 0 0 0c-1,-5 -1,-10 -2,-15l0 -1 0 0c0,-3 -1,-5 -1,-8l0 0 0 0c-1,-7 -1,-13 -2,-20l0 -1 0 0c0,-4 -1,-7 -1,-11l0 -3 0 0c-1,-18 -2,-35 -2,-53l0 -3853c0,-18 1,-36 2,-53l0 0 0 -3c0,-4 1,-7 1,-11l0 0 0 -1c1,-7 1,-13 2,-20l0 0 0 0c0,-3 1,-5 1,-8l0 0 0 -1c1,-5 1,-10 2,-15l0 0 0 0c1,-4 1,-8 2,-12l0 0 0 0c0,-2 1,-4 1,-6l0 0 0 0c0,-2 1,-3 1,-5l0 0 0 -1c0,-2 1,-4 1,-5l0 0 0 0c1,-7 3,-13 4,-20l0 0 0 0c1,-3 1,-6 2,-9l0 0 0 0c0,-1 1,-3 1,-4l0 0 0 0c1,-5 3,-11 4,-16l0 0 0 0c1,-2 1,-5 2,-7l0 0 0 0c0,-1 1,-2 1,-4l0 0 0 0 1 -3 0 0 0 -1c1,-2 1,-4 2,-7l0 0 0 0c1,-4 3,-9 4,-13l0 0 0 0 1 -3 0 0 0 0 1 -3 0 0 0 0 1 -3 0 0 0 0 1 -3 0 0 0 0c0,-1 1,-2 1,-3l0 0 0 0 1 -3 0 0 0 0c2,-7 5,-13 7,-20l0 0 0 0c1,-2 1,-3 2,-5l0 0 0 0 1 -3 0 0 0 0c2,-6 5,-12 7,-18l0 0 0 0c1,-3 3,-6 4,-9l0 0 0 0c1,-3 3,-6 4,-9l0 0 0 0 1 -2 0 0 0 0c8,-17 17,-34 26,-51l0 0 0 0c1,-2 3,-5 4,-7l0 0 0 0c1,-2 3,-5 4,-7l0 0 0 0c4,-6 8,-13 11,-19l0 0 0 0c1,-1 1,-2 2,-3l0 0 0 0c3,-5 6,-10 9,-14l0 0 0 0 2 -3 0 0 0 0c2,-4 5,-7 7,-10l0 0 0 0c2,-2 3,-5 5,-7l0 0 0 0c3,-4 6,-8 8,-11l0 0 0 0c2,-3 5,-6 7,-9l0 0 0 0c1,-1 2,-3 3,-4l0 0 0 0 1 -1 0 0 0 0c1,-1 2,-3 3,-4l0 0 0 0c3,-4 6,-8 9,-11l0 0 0 0c2,-2 4,-5 6,-7l0 0 0 0c2,-2 4,-5 6,-7l0 0 0 0 1 -1 0 0 0 0c7,-8 14,-16 22,-24l0 0 0 0 1 -1 0 0 0 0 1 -1 0 0 0 0 1 -1 0 0 0 0 1 -1 0 0 0 0c4,-4 8,-8 12,-12l0 0 0 0 1 -1 0 0 0 0 1 -1 0 0 0 0 1 -1 0 0 0 0 1 -1 0 0 0 0c8,-7 16,-15 24,-22l0 0 0 0 1 -1 0 0 0 0c2,-2 5,-4 7,-6l0 0 0 0c2,-2 5,-4 7,-6l0 0 0 0c4,-3 8,-6 11,-9l0 0 0 0c1,-1 3,-2 4,-3l0 0 0 0 1 -1 0 0 0 0c1,-1 3,-2 4,-3l0 0 0 0c3,-2 6,-5 9,-7l0 0 0 0c4,-3 8,-6 11,-8l0 0 0 0c2,-2 5,-3 7,-5l0 0 0 0c4,-3 9,-6 14,-9l0 0 0 0c5,-3 10,-6 14,-9l0 0 0 0c1,-1 2,-1 3,-2l0 0 0 0c6,-4 12,-8 19,-11l0 0 0 0c2,-1 5,-3 7,-4l0 0 0 0c2,-1 5,-3 7,-4l0 0 0 0c17,-9 34,-18 51,-26l0 0 0 0 2 -1 0 0 0 0c3,-1 6,-3 9,-4l0 0 0 0c3,-1 6,-3 9,-4l0 0 0 0c6,-3 12,-5 18,-7l0 0 0 0 3 -1 1 0 0 0c2,-1 3,-1 5,-2l0 0 0 0c7,-3 13,-5 20,-7l0 0 0 0 3 -1 0 0 0 0c1,0 2,-1 3,-1l0 0 0 0 3 -1 0 0 0 0c1,0 2,-1 3,-1l0 0 0 0 3 -1 0 0 0 0 3 -1 0 0 0 0c4,-1 9,-3 13,-4l0 0 0 0c2,-1 4,-1 7,-2l1 0 0 0 3 -1 0 0 0 0c1,0 2,-1 4,-1l0 0 0 0c2,-1 5,-1 7,-2l0 0 0 0c5,-1 11,-3 16,-4l0 0 0 0c1,0 3,-1 4,-1l0 0 0 0c3,-1 6,-1 9,-2l0 0 0 0c7,-1 13,-3 20,-4l0 0 0 0c2,0 4,-1 5,-1l1 0 0 0c2,0 3,-1 5,-1l0 0 0 0c2,0 4,-1 6,-1l0 0 0 0c4,-1 8,-1 12,-2l0 0 0 0c5,-1 10,-1 15,-2l1 0 0 0c3,0 5,-1 8,-1l1 0 0 0c7,-1 13,-1 20,-2l1 0 0 0c4,0 7,-1 11,-1l3 0 0 0c18,-1 35,-2 53,-2l3853 0c18,0 36,1 53,2l0 0 3 0c4,0 7,1 11,1l0 0 1 0c7,1 13,1 20,2l0 0 1 0c3,0 5,1 8,1l0 0 1 0c5,1 10,1 15,2l0 0 0 0c4,1 8,1 12,2l0 0 0 0c2,0 4,1 6,1l0 0 0 0c2,0 3,1 5,1l0 0 1 0c2,0 4,1 5,1l0 0 0 0c7,1 13,3 20,4l0 0 0 0c3,1 6,1 9,2l0 0 0 0c1,0 3,1 4,1l0 0 0 0c6,1 11,3 16,4l0 0 0 0c2,1 5,1 7,2l0 0 0 0c1,0 2,1 4,1l0 0 0 0 3 1 0 0 1 0c2,1 4,1 7,2l0 0 0 0c4,1 9,3 13,4l0 0 0 0 3 1 0 0 0 0 3 1 0 0 0 0 3 1 0 0 0 0 3 1 0 0 0 0c1,0 2,1 3,1l0 0 0 0 3 1 0 0 0 0c7,2 13,5 20,7l0 0 0 0c2,1 3,1 5,2l0 0 1 0 3 1 0 0 0 0c6,2 12,5 18,7l0 0 0 0c3,1 6,3 9,4l0 0 0 0c3,1 6,3 9,4l0 0 0 0 2 1 0 0 0 0c17,8 34,17 51,26l0 0 0 0c2,1 5,3 7,4l0 0 0 0c2,1 5,3 7,4l0 0 0 0c6,4 13,8 19,11l0 0 0 0c1,1 2,1 3,2l0 0 0 0c5,3 10,6 14,9l0 0 0 0c5,3 9,6 14,9l0 0 0 0c2,2 5,3 7,5l0 0 0 0c4,3 8,6 11,8l0 0 0 0c3,2 6,5 9,7l0 0 0 0c1,1 3,2 4,3l0 0 0 0 1 1 0 0 0 0c1,1 3,2 4,3l0 0 0 0c4,3 8,6 11,9l0 0 0 0c2,2 5,4 7,6l0 0 0 0c2,2 5,4 7,6l0 0 0 0 1 1 0 0 0 0c8,7 16,14 24,22l0 0 0 0 1 1 0 0 0 0 1 1 0 0 0 0 1 1 0 0 0 0 1 1 0 0 0 0c4,4 8,8 12,12l0 0 0 0 1 1 0 0 0 0 1 1 0 0 0 0 1 1 0 0 0 0 1 1 0 0 0 0c7,8 15,16 22,24l0 0 0 0 1 1 0 0 0 0c2,2 4,5 6,7l0 0 0 0c2,2 4,5 6,7l0 0 0 0c3,4 6,8 9,11l0 0 0 0c1,1 2,3 3,4l0 0 0 0 1 1 0 0 0 0c1,1 2,3 3,4l0 0 0 0c2,3 5,6 7,9l0 0 0 0c3,4 6,8 8,11l0 0 0 0c2,2 3,5 5,7l0 0 0 0c3,4 6,9 9,14l0 0 0 0c3,5 6,10 9,14l0 0 0 0c1,1 1,2 2,3l0 0 0 0c4,6 8,12 11,19l0 0 0 0c1,2 3,5 4,7l0 0 0 0c1,2 3,5 4,7l0 0 0 0c9,17 18,34 26,51l0 0 0 0 1 2 0 0 0 0c1,3 3,6 4,9l0 0 0 0c1,3 3,6 4,9l0 0 0 0c2,6 5,12 7,18l0 0 0 0 1 3 0 0 0 0c1,2 1,3 2,5l0 0 0 0c3,7 5,13 7,20l0 0 0 0 1 3 0 0 0 0c0,1 1,2 1,3l0 0 0 0 1 3 0 0 0 0c0,1 1,2 1,3l0 0 0 0 1 3 0 0 0 0 1 3 0 0 0 0c1,4 3,9 4,13l0 0 0 0c1,2 1,4 2,7l0 1 0 0 1 3 0 0 0 0c0,1 1,2 1,4l0 0 0 0c1,2 1,5 2,7l0 0 0 0c1,5 3,11 4,16l0 0 0 0c0,1 1,3 1,4l0 0 0 0c1,3 1,6 2,9l0 0 0 0c1,7 3,13 4,20l0 0 0 0c0,2 1,4 1,5l0 1 0 0c0,2 1,3 1,5l0 0 0 0c0,2 1,4 1,6l0 0 0 0c1,4 1,8 2,12l0 0 0 0c1,5 1,10 2,15l0 1 0 0c0,3 1,5 1,8l0 0 0 0c1,7 1,13 2,20l0 1 0 0c0,4 1,7 1,11l0 3 0 0c1,18 2,35 2,53l0 3853c0,18 -1,36 -2,53l0 0 0 3c0,4 -1,8 -1,12l0 0 0 0c-1,7 -1,13 -2,19l0 0 0 1c0,3 -1,5 -1,8l0 0 0 1c0,2 -1,5 -1,7l0 0 0 0c-1,7 -2,13 -3,20l0 0 0 1c0,2 -1,4 -1,6l0 0 0 1c-1,4 -1,7 -2,11l0 0 0 0c-1,7 -3,13 -4,20l0 0 0 1c0,2 -1,3 -1,5l0 0 0 0 -1 4 0 0 0 0c0,1 -1,2 -1,4l0 0 0 1c-2,7 -3,14 -5,20l0 0 0 0c-1,2 -1,5 -2,7l0 0 0 0c-1,2 -1,5 -2,7l0 0 0 0c-4,12 -7,24 -11,35l0 0 0 0 -1 3 0 0 0 0 -1 3 0 0 0 0c-2,6 -4,11 -6,17l0 0 0 0c-1,2 -1,3 -2,5l0 0 0 0c-1,2 -1,3 -2,5l0 0 0 0 -2 5 0 0 0 0c-2,5 -4,10 -6,14l0 0 0 0c-1,2 -2,5 -3,7l0 0 0 0 -1 2 0 0 0 0c-4,8 -7,16 -11,24l0 0 0 0 -1 2 0 0 0 0 -1 2 0 0 0 0 -1 2 0 0 0 0 -1 2 0 0 0 0 -1 2 0 0 0 0 -1 2 0 0 0 0c-4,8 -8,15 -12,23l0 0 0 0c-1,2 -2,3 -3,5l0 0 0 0 -1 2 0 0 0 0c-1,2 -2,3 -3,5l0 0 0 0c-2,3 -4,7 -6,10l0 0 0 0c-2,3 -3,6 -5,8l0 0 0 0c-1,1 -1,2 -2,3l0 0 0 0c-1,1 -1,2 -2,3l0 0 0 0c-4,6 -8,12 -12,19l0 0 0 0 -2 3 0 0 0 0c-2,2 -3,5 -5,7l0 0 0 0c-4,5 -8,10 -11,16l0 0 0 0c-2,3 -5,6 -7,9l0 0 0 0c-1,2 -3,3 -4,5l0 0 0 0c-5,6 -10,12 -14,18l0 0 0 0c-2,2 -3,4 -5,6l0 0 0 0 -1 1 0 0 0 0c-6,7 -12,14 -19,21l0 0 0 0 -1 1 0 0 0 0 -1 1 0 0 0 0 -1 1 0 0 0 0c-9,10 -18,19 -28,28l0 0 0 0 -1 1 0 0 0 0 -1 1 0 0 0 0c-7,6 -14,13 -21,19l0 0 0 0 -1 1 0 0 0 0c-2,2 -5,4 -7,6l0 0 0 0c-5,5 -11,9 -17,14l0 0 0 0c-2,1 -3,3 -5,4l0 0 0 0c-3,2 -6,5 -9,7l0 0 0 0c-3,2 -6,4 -8,6l0 0 0 0c-2,2 -5,3 -7,5l0 0 0 0c-2,2 -5,3 -7,5l0 0 0 0c-8,6 -16,11 -25,17l0 0 0 0c-1,1 -2,1 -3,2l0 0 0 0c-6,4 -12,8 -19,11l0 0 0 0c-2,1 -3,2 -5,3l0 0 0 0c-2,1 -5,3 -7,4l0 0 0 0c-7,4 -14,8 -21,11l0 0 0 0 -2 1 0 0 0 0 -2 1 0 0 0 0 -2 1 0 0 0 0 -2 1 0 0 0 0 -2 1 0 0 0 0c-6,3 -11,6 -17,8l0 0 0 0c-4,2 -7,3 -11,5l0 0 0 0 -2 1 0 0 0 0c-3,1 -6,3 -9,4l0 0 0 0c-6,3 -12,5 -17,7l0 0 0 0c-2,1 -3,1 -5,2l0 0 0 0c-2,1 -3,1 -5,2l0 0 0 0c-5,2 -9,3 -14,5 -1,0 -2,1 -3,1l0 0 0 0c-11,4 -23,8 -34,11 -2,1 -5,1 -7,2l0 0 0 0c-2,1 -5,1 -7,2l-1 0 0 0c-2,1 -5,1 -7,2l0 0 0 0c-7,2 -13,4 -20,5l-1 0 0 0c-1,0 -2,1 -4,1l-1 0 0 0 -4 1 0 0 0 0c-3,1 -6,1 -9,2l0 0 0 0c-5,1 -10,2 -15,3l0 0 0 0c-2,0 -3,1 -5,1l0 0 0 0c-2,0 -4,1 -6,1l-1 0 0 0c-2,0 -4,1 -6,1l-1 0 0 0c-7,1 -13,2 -20,3l0 0 0 0c-2,0 -5,1 -7,1l-1 0 0 0c-3,0 -5,1 -8,1l-1 0 0 0c-6,1 -13,1 -19,2l0 0 0 0c-4,0 -8,1 -12,1l-3 0 0 0c-18,1 -35,2 -53,2l-3853 0c-18,0 -36,-1 -53,-2z"/>
   <g style="clip-path:url(#id0)">
    <g>
     <rect class="fil1" transform="matrix(1.07449 -1.07449 1.07449 1.07449 3493.75 45.5215)" width="1729" height="1729"/>
    </g>
   </g>
   <path class="fil2" d="M695 5347l0 0 -3 0c-4,0 -7,-1 -11,-1l0 0 -1 0c-7,-1 -13,-1 -20,-2l0 0 -1 0c-3,0 -5,-1 -8,-1l0 0 -1 0c-5,-1 -10,-1 -15,-2l0 0 0 0c-4,-1 -8,-1 -12,-2l0 0 0 0c-2,0 -4,-1 -6,-1l0 0 0 0c-2,0 -3,-1 -5,-1l0 0 -1 0c-2,0 -4,-1 -5,-1l0 0 0 0c-7,-1 -13,-3 -20,-4l0 0 0 0c-3,-1 -6,-1 -9,-2l0 0 0 0c-1,0 -3,-1 -4,-1l0 0 0 0c-5,-1 -11,-3 -16,-4l0 0 0 0c-2,-1 -5,-1 -7,-2l0 0 0 0c-1,0 -2,-1 -4,-1l0 0 0 0 -3 -1 0 0 -1 0c-2,-1 -4,-1 -7,-2l0 0 0 0c-4,-1 -9,-3 -13,-4l0 0 0 0 -3 -1 0 0 0 0 -3 -1 0 0 0 0 -3 -1 0 0 0 0 -3 -1 0 0 0 0c-1,0 -2,-1 -3,-1l0 0 0 0 -3 -1 0 0 0 0c-7,-2 -13,-5 -20,-7l0 0 0 0c-2,-1 -3,-1 -5,-2l0 0 -1 0 -3 -1 0 0 0 0c-6,-2 -12,-5 -18,-7l0 0 0 0c-3,-1 -6,-3 -9,-4l0 0 0 0c-3,-1 -6,-3 -9,-4l0 0 0 0 -2 -1 0 0 0 0c-17,-8 -34,-17 -51,-26l0 0 0 0c-2,-1 -5,-3 -7,-4l0 0 0 0c-2,-1 -5,-3 -7,-4l0 0 0 0c-6,-4 -13,-8 -19,-11l0 0 0 0c-1,-1 -2,-1 -3,-2l0 0 0 0c-5,-3 -10,-6 -14,-9l0 0 0 0 -3 -2c-4,-2 -7,-5 -10,-7l0 0 0 0c-2,-2 -5,-3 -7,-5l0 0 0 0c-4,-3 -8,-6 -11,-8l0 0 0 0c-3,-2 -6,-5 -9,-7l0 0 0 0c-1,-1 -3,-2 -4,-3l0 0 0 0 -1 -1 0 0 0 0c-1,-1 -3,-2 -4,-3l0 0 0 0c-4,-3 -8,-6 -11,-9l0 0 0 0c-2,-2 -5,-4 -7,-6l0 0 0 0c-2,-2 -5,-4 -7,-6l0 0 0 0 -1 -1 0 0 0 0c-8,-7 -16,-14 -24,-22l0 0 0 0 -1 -1 0 0 0 0 -1 -1 0 0 0 0 -1 -1 0 0 0 0 -1 -1 0 0 0 0c-4,-4 -8,-8 -12,-12l0 0 0 0 -1 -1 0 0 0 0 -1 -1 0 0 0 0 -1 -1 0 0 0 0 -1 -1 0 0 0 0c-7,-8 -15,-16 -22,-24l0 0 0 0 -1 -1 0 0 0 0c-2,-2 -4,-5 -6,-7l0 0 0 0c-2,-2 -4,-5 -6,-7l0 0 0 0c-3,-4 -6,-8 -9,-11l0 0 0 0c-1,-1 -2,-3 -3,-4l0 0 0 0 -1 -1 0 0 0 0c-1,-1 -2,-3 -3,-4l0 0 0 0c-2,-3 -5,-6 -7,-9l0 0 0 0c-3,-4 -6,-8 -8,-11l0 0 0 0c-2,-2 -3,-5 -5,-7l0 0 0 0c-2,-3 -5,-7 -7,-10 -1,-1 -1,-2 -2,-3l0 0 0 0c-3,-5 -6,-10 -9,-14l0 0 0 0c-1,-1 -1,-2 -2,-3l0 0 0 0c-4,-6 -8,-12 -11,-19l0 0 0 0c-1,-2 -3,-5 -4,-7l0 0 0 0c-1,-2 -3,-5 -4,-7l0 0 0 0c-9,-17 -18,-34 -26,-51l0 0 0 0 -1 -2 0 0 0 0c-1,-3 -3,-6 -4,-9l0 0 0 0c-1,-3 -3,-6 -4,-9l0 0 0 0c-3,-6 -5,-12 -7,-18l0 0 0 0 -1 -3 0 0 0 0c-1,-2 -1,-3 -2,-5l0 0 0 0c-3,-7 -5,-13 -7,-20l0 0 0 0 -1 -3 0 0 0 0c0,-1 -1,-2 -1,-3l0 0 0 0 -1 -3 0 0 0 0c0,-1 -1,-2 -1,-3l0 0 0 0 -1 -3 0 0 0 0 -1 -3 0 0 0 0c-1,-4 -3,-9 -4,-13l0 0 0 0c-1,-2 -1,-4 -2,-7l0 -1 0 0 -1 -3 0 0 0 0c0,-1 -1,-2 -1,-4l0 0 0 0c-1,-2 -1,-5 -2,-7l0 0 0 0c-1,-5 -3,-11 -4,-16l0 0 0 0c0,-1 -1,-3 -1,-4l0 0 0 0c-1,-3 -1,-6 -2,-9l0 0 0 0c-1,-7 -3,-13 -4,-20l0 0 0 0c0,-2 -1,-4 -1,-5l0 -1 0 0c0,-2 -1,-3 -1,-5l0 0 0 0c0,-2 -1,-4 -1,-6l0 0 0 0c-1,-4 -1,-8 -2,-12l0 0 0 0c-1,-5 -1,-10 -2,-15l0 -1 0 0c0,-3 -1,-5 -1,-8l0 0 0 0c-1,-7 -1,-13 -2,-20l0 -1 0 0c0,-4 -1,-7 -1,-11l0 -3 0 0c-1,-18 -2,-35 -2,-53l0 -3853c0,-18 1,-36 2,-53l0 0 0 -3c0,-4 1,-7 1,-11l0 0 0 -1c1,-7 1,-13 2,-20l0 0 0 0c0,-3 1,-5 1,-8l0 0 0 -1c1,-5 1,-10 2,-15l0 0 0 0c1,-4 1,-8 2,-12l0 0 0 0c0,-2 1,-4 1,-6l0 0 0 0c0,-2 1,-3 1,-5l0 0 0 -1c0,-2 1,-4 1,-5l0 0 0 0c1,-7 3,-13 4,-20l0 0 0 0c1,-3 1,-6 2,-9l0 0 0 0c0,-1 1,-3 1,-4l0 0 0 0c1,-5 3,-11 4,-16l0 0 0 0c1,-2 1,-5 2,-7l0 0 0 0c0,-1 1,-2 1,-4l0 0 0 0 1 -3 0 0 0 -1c1,-2 1,-4 2,-7l0 0 0 0c1,-4 3,-9 4,-13l0 0 0 0 1 -3 0 0 0 0 1 -3 0 0 0 0 1 -3 0 0 0 0 1 -3 0 0 0 0c0,-1 1,-2 1,-3l0 0 0 0 1 -3 0 0 0 0c2,-7 5,-13 7,-20l0 0 0 0c1,-2 1,-3 2,-5l0 0 0 0 1 -3 0 0 0 0c2,-6 5,-12 7,-18l0 0 0 0c1,-3 3,-6 4,-9l0 0 0 0c1,-3 3,-6 4,-9l0 0 0 0 1 -2 0 0 0 0c8,-17 17,-34 26,-51l0 0 0 0c1,-2 3,-5 4,-7l0 0 0 0c1,-2 3,-5 4,-7l0 0 0 0c4,-6 8,-13 11,-19l0 0 0 0c1,-1 1,-2 2,-3l0 0 0 0c3,-5 6,-10 9,-14l0 0 0 0 2 -3 0 0 0 0c2,-4 5,-7 7,-10l0 0 0 0c2,-2 3,-5 5,-7l0 0 0 0c3,-4 6,-8 8,-11l0 0 0 0c2,-3 5,-6 7,-9l0 0 0 0c1,-1 2,-3 3,-4l0 0 0 0 1 -1 0 0 0 0c1,-1 2,-3 3,-4l0 0 0 0c3,-4 6,-8 9,-11l0 0 0 0c2,-2 4,-5 6,-7l0 0 0 0c2,-2 4,-5 6,-7l0 0 0 0 1 -1 0 0 0 0c7,-8 14,-16 22,-24l0 0 0 0 1 -1 0 0 0 0 1 -1 0 0 0 0 1 -1 0 0 0 0 1 -1 0 0 0 0c4,-4 8,-8 12,-12l0 0 0 0 1 -1 0 0 0 0 1 -1 0 0 0 0 1 -1 0 0 0 0 1 -1 0 0 0 0c8,-7 16,-15 24,-22l0 0 0 0 1 -1 0 0 0 0c2,-2 5,-4 7,-6l0 0 0 0c2,-2 5,-4 7,-6l0 0 0 0c4,-3 8,-6 11,-9l0 0 0 0c1,-1 3,-2 4,-3l0 0 0 0 1 -1 0 0 0 0c1,-1 3,-2 4,-3l0 0 0 0c3,-2 6,-5 9,-7l0 0 0 0c4,-3 8,-6 11,-8l0 0 0 0c2,-2 5,-3 7,-5l0 0 0 0c4,-3 9,-6 14,-9l0 0 0 0c5,-3 10,-6 14,-9l0 0 0 0c1,-1 2,-1 3,-2l0 0 0 0c6,-4 12,-8 19,-11l0 0 0 0c2,-1 5,-3 7,-4l0 0 0 0c2,-1 5,-3 7,-4l0 0 0 0c17,-9 34,-18 51,-26l0 0 0 0 2 -1 0 0 0 0c3,-1 6,-3 9,-4l0 0 0 0c3,-1 6,-3 9,-4l0 0 0 0c6,-3 12,-5 18,-7l0 0 0 0 3 -1 1 0 0 0c2,-1 3,-1 5,-2l0 0 0 0c7,-3 13,-5 20,-7l0 0 0 0 3 -1 0 0 0 0c1,0 2,-1 3,-1l0 0 0 0 3 -1 0 0 0 0c1,0 2,-1 3,-1l0 0 0 0 3 -1 0 0 0 0 3 -1 0 0 0 0c4,-1 9,-3 13,-4l0 0 0 0c2,-1 4,-1 7,-2l1 0 0 0 3 -1 0 0 0 0c1,0 2,-1 4,-1l0 0 0 0c2,-1 5,-1 7,-2l0 0 0 0c5,-1 11,-3 16,-4l0 0 0 0c1,0 3,-1 4,-1l0 0 0 0c3,-1 6,-1 9,-2l0 0 0 0c7,-1 13,-3 20,-4l0 0 0 0c2,0 4,-1 5,-1l1 0 0 0c2,0 3,-1 5,-1l0 0 0 0c2,0 4,-1 6,-1l0 0 0 0c4,-1 8,-1 12,-2l0 0 0 0c5,-1 10,-1 15,-2l1 0 0 0c3,0 5,-1 8,-1l1 0 0 0c7,-1 13,-1 20,-2l1 0 0 0c4,0 7,-1 11,-1l3 0 0 0c18,-1 35,-2 53,-2l3853 0c18,0 36,1 53,2l0 0 3 0c4,0 7,1 11,1l0 0 1 0c7,1 13,1 20,2l0 0 1 0c3,0 5,1 8,1l0 0 1 0c5,1 10,1 15,2l0 0 0 0c4,1 8,1 12,2l0 0 0 0c2,0 4,1 6,1l0 0 0 0c2,0 3,1 5,1l0 0 1 0c2,0 4,1 5,1l0 0 0 0c7,1 13,3 20,4l0 0 0 0c3,1 6,1 9,2l0 0 0 0c1,0 3,1 4,1l0 0 0 0c6,1 11,3 16,4l0 0 0 0c2,1 5,1 7,2l0 0 0 0c1,0 2,1 4,1l0 0 0 0 3 1 0 0 1 0c2,1 4,1 7,2l0 0 0 0c4,1 9,3 13,4l0 0 0 0 3 1 0 0 0 0 3 1 0 0 0 0 3 1 0 0 0 0 3 1 0 0 0 0c1,0 2,1 3,1l0 0 0 0 3 1 0 0 0 0c7,2 13,5 20,7l0 0 0 0c2,1 3,1 5,2l0 0 1 0 3 1 0 0 0 0c6,2 12,5 18,7l0 0 0 0c3,1 6,3 9,4l0 0 0 0c3,1 6,3 9,4l0 0 0 0 2 1 0 0 0 0c17,8 34,17 51,26l0 0 0 0c2,1 5,3 7,4l0 0 0 0c2,1 5,3 7,4l0 0 0 0c6,4 13,8 19,11l0 0 0 0c1,1 2,1 3,2l0 0 0 0c5,3 10,6 14,9l0 0 0 0c5,3 9,6 14,9l0 0 0 0c2,2 5,3 7,5l0 0 0 0c4,3 8,6 11,8l0 0 0 0c3,2 6,5 9,7l0 0 0 0c1,1 3,2 4,3l0 0 0 0 1 1 0 0 0 0c1,1 3,2 4,3l0 0 0 0c4,3 8,6 11,9l0 0 0 0c2,2 5,4 7,6l0 0 0 0c2,2 5,4 7,6l0 0 0 0 1 1 0 0 0 0c8,7 16,14 24,22l0 0 0 0 1 1 0 0 0 0 1 1 0 0 0 0 1 1 0 0 0 0 1 1 0 0 0 0c4,4 8,8 12,12l0 0 0 0 1 1 0 0 0 0 1 1 0 0 0 0 1 1 0 0 0 0 1 1 0 0 0 0c7,8 15,16 22,24l0 0 0 0 1 1 0 0 0 0c2,2 4,5 6,7l0 0 0 0c2,2 4,5 6,7l0 0 0 0c3,4 6,8 9,11l0 0 0 0c1,1 2,3 3,4l0 0 0 0 1 1 0 0 0 0c1,1 2,3 3,4l0 0 0 0c2,3 5,6 7,9l0 0 0 0c3,4 6,8 8,11l0 0 0 0c2,2 3,5 5,7l0 0 0 0c3,4 6,9 9,14l0 0 0 0c3,5 6,10 9,14l0 0 0 0c1,1 1,2 2,3l0 0 0 0c4,6 8,12 11,19l0 0 0 0c1,2 3,5 4,7l0 0 0 0c1,2 3,5 4,7l0 0 0 0c9,17 18,34 26,51l0 0 0 0 1 2 0 0 0 0c1,3 3,6 4,9l0 0 0 0c1,3 3,6 4,9l0 0 0 0c2,6 5,12 7,18l0 0 0 0 1 3 0 0 0 0c1,2 1,3 2,5l0 0 0 0c3,7 5,13 7,20l0 0 0 0 1 3 0 0 0 0c0,1 1,2 1,3l0 0 0 0 1 3 0 0 0 0c0,1 1,2 1,3l0 0 0 0 1 3 0 0 0 0 1 3 0 0 0 0c1,4 3,9 4,13l0 0 0 0c1,2 1,4 2,7l0 1 0 0 1 3 0 0 0 0c0,1 1,2 1,4l0 0 0 0c1,2 1,5 2,7l0 0 0 0c1,5 3,11 4,16l0 0 0 0c0,1 1,3 1,4l0 0 0 0c1,3 1,6 2,9l0 0 0 0c1,7 3,13 4,20l0 0 0 0c0,2 1,4 1,5l0 1 0 0c0,2 1,3 1,5l0 0 0 0c0,2 1,4 1,6l0 0 0 0c1,4 1,8 2,12l0 0 0 0c1,5 1,10 2,15l0 1 0 0c0,3 1,5 1,8l0 0 0 0c1,7 1,13 2,20l0 1 0 0c0,4 1,7 1,11l0 3 0 0c1,18 2,35 2,53l0 3853c0,18 -1,36 -2,53l0 0 0 3c0,4 -1,8 -1,12l0 0 0 0c-1,7 -1,13 -2,19l0 0 0 1c0,3 -1,5 -1,8l0 0 0 1c0,2 -1,5 -1,7l0 0 0 0c-1,7 -2,13 -3,20l0 0 0 1c0,2 -1,4 -1,6l0 0 0 1c-1,4 -1,7 -2,11l0 0 0 0c-1,7 -3,13 -4,20l0 0 0 1c0,2 -1,3 -1,5l0 0 0 0 -1 4 0 0 0 0c0,1 -1,2 -1,4l0 0 0 1c-2,7 -3,14 -5,20l0 0 0 0c-1,2 -1,5 -2,7l0 0 0 0c-1,2 -1,5 -2,7l0 0 0 0c-4,12 -7,24 -11,35l0 0 0 0 -1 3 0 0 0 0 -1 3 0 0 0 0c-2,6 -4,11 -6,17l0 0 0 0c-1,2 -1,3 -2,5l0 0 0 0c-1,2 -1,3 -2,5l0 0 0 0 -2 5 0 0 0 0c-2,5 -4,10 -6,14l0 0 0 0c-1,2 -2,5 -3,7l0 0 0 0 -1 2 0 0 0 0c-4,8 -7,16 -11,24l0 0 0 0 -1 2 0 0 0 0 -1 2 0 0 0 0 -1 2 0 0 0 0 -1 2 0 0 0 0 -1 2 0 0 0 0 -1 2 0 0 0 0c-4,8 -8,15 -12,23l0 0 0 0c-1,2 -2,3 -3,5l0 0 0 0 -1 2 0 0 0 0c-1,2 -2,3 -3,5l0 0 0 0c-2,3 -4,7 -6,10l0 0 0 0c-2,3 -3,6 -5,8l0 0 0 0c-1,1 -1,2 -2,3l0 0 0 0c-1,1 -1,2 -2,3l0 0 0 0c-4,6 -8,12 -12,19l0 0 0 0 -2 3 0 0 0 0c-2,2 -3,5 -5,7l0 0 0 0c-4,5 -8,10 -11,16l0 0 0 0c-2,3 -5,6 -7,9l0 0 0 0c-1,2 -3,3 -4,5l0 0 0 0c-5,6 -10,12 -14,18l0 0 0 0c-2,2 -3,4 -5,6l0 0 0 0 -1 1 0 0 0 0c-6,7 -12,14 -19,21l0 0 0 0 -1 1 0 0 0 0 -1 1 0 0 0 0 -1 1 0 0 0 0c-9,10 -18,19 -28,28l0 0 0 0 -1 1 0 0 0 0 -1 1 0 0 0 0c-7,6 -14,13 -21,19l0 0 0 0 -1 1 0 0 0 0c-2,2 -5,4 -7,6l0 0 0 0c-5,5 -11,9 -17,14l0 0 0 0c-2,1 -3,3 -5,4l0 0 0 0c-3,2 -6,5 -9,7l0 0 0 0c-3,2 -6,4 -8,6l0 0 0 0c-2,2 -5,3 -7,5l0 0 0 0c-2,2 -5,3 -7,5l0 0 0 0c-8,6 -16,11 -25,17l0 0 0 0c-1,1 -2,1 -3,2l0 0 0 0c-6,4 -12,8 -19,11l0 0 0 0c-2,1 -3,2 -5,3l0 0 0 0c-2,1 -5,3 -7,4l0 0 0 0c-7,4 -14,8 -21,11l0 0 0 0 -2 1 0 0 0 0 -2 1 0 0 0 0 -2 1 0 0 0 0 -2 1 0 0 0 0 -2 1 0 0 0 0c-6,3 -11,6 -17,8l0 0 0 0c-4,2 -7,3 -11,5l0 0 0 0 -2 1 0 0 0 0c-3,1 -6,3 -9,4l0 0 0 0c-6,3 -12,5 -17,7l0 0 0 0c-2,1 -3,1 -5,2l0 0 0 0c-2,1 -3,1 -5,2l0 0 0 0c-5,2 -9,3 -14,5 -1,0 -2,1 -3,1l0 0 0 0c-11,4 -23,8 -34,11 -2,1 -5,1 -7,2l0 0 0 0c-2,1 -5,1 -7,2l-1 0 0 0c-2,1 -5,1 -7,2l0 0 0 0c-7,2 -13,4 -20,5l-1 0 0 0c-1,0 -2,1 -4,1l-1 0 0 0 -4 1 0 0 0 0c-3,1 -6,1 -9,2l0 0 0 0c-5,1 -10,2 -15,3l0 0 0 0c-2,0 -3,1 -5,1l0 0 0 0c-2,0 -4,1 -6,1l-1 0 0 0c-2,0 -4,1 -6,1l-1 0 0 0c-7,1 -13,2 -20,3l0 0 0 0c-2,0 -5,1 -7,1l-1 0 0 0c-3,0 -5,1 -8,1l-1 0 0 0c-6,1 -13,1 -19,2l0 0 0 0c-4,0 -8,1 -12,1l-3 0 0 0c-18,1 -35,2 -53,2l-3853 0c-18,0 -36,-1 -53,-2z"/>
   <path class="fil3" d="M4324 2635c11,28 0,56 -28,67 -28,11 -56,0 -67,-28 -11,-28 0,-56 28,-67 22,-11 56,0 67,28z"/>
   <path class="fil3" d="M4078 3581c11,28 0,56 -28,67 -28,11 -56,0 -67,-28 -11,-28 0,-56 28,-67 22,-11 56,0 67,28z"/>
   <path class="fil3" d="M1559 1202c11,28 0,56 -28,67 -28,11 -56,0 -67,-28 -11,-28 0,-56 28,-67 22,-11 56,0 67,28z"/>
   <path class="fil3" d="M1525 4034c11,28 0,56 -28,67 -28,11 -56,0 -67,-28 -11,-28 0,-56 28,-67 22,-11 56,0 67,28z"/>
   <path class="fil3" d="M1346 2288c11,28 0,56 -28,67 -28,11 -56,0 -67,-28 -11,-28 0,-56 28,-67 28,-11 56,0 67,28z"/>
   <path class="fil3" d="M3619 4320l-1662 0c-118,0 -218,-95 -218,-218l0 -2502c0,-118 95,-218 218,-218l241 0c17,0 34,17 34,34 0,17 -17,34 -34,34l-241 0c-78,0 -146,67 -146,146l0 2508c0,78 67,146 146,146l1662 0c78,0 145,-67 145,-146l0 -2502c0,-78 -67,-146 -145,-146l-235 0c-17,0 -34,-17 -34,-34 0,-17 17,-34 34,-34l235 0c118,0 218,95 218,218l0 2496c0,118 -101,218 -218,218z"/>
   <path class="fil3" d="M2124 2327c0,0 0,-6 0,0 -11,0 -22,-6 -28,-17l-73 -106c-11,-17 -6,-39 6,-50 11,-11 39,-6 50,6l50 73 174 -179c11,-11 34,-17 50,0 11,11 17,34 0,50l-207 213c0,6 -11,11 -22,11z"/>
   <path class="fil3" d="M3557 2322l-1047 0c-17,0 -34,-17 -34,-34 0,-17 17,-34 34,-34l1047 0c17,0 34,17 34,34 0,17 -17,34 -34,34z"/>
   <path class="fil3" d="M3104 2148l-593 0c-17,0 -34,-17 -34,-34 0,-17 17,-34 34,-34l593 0c17,0 34,17 34,34 0,17 -17,34 -34,34z"/>
   <path class="fil3" d="M2124 2747c0,0 0,-6 0,0 -11,0 -22,-6 -28,-17l-73 -106c-11,-17 -6,-39 6,-50 11,-11 39,-6 50,6l50 73 174 -179c11,-11 34,-17 50,0 11,11 17,34 0,50l-207 213c0,6 -11,11 -22,11z"/>
   <path class="fil3" d="M3557 2741l-1047 0c-17,0 -34,-17 -34,-34 0,-17 17,-34 34,-34l1047 0c17,0 34,17 34,34 0,17 -17,34 -34,34z"/>
   <path class="fil3" d="M3104 2568l-593 0c-17,0 -34,-17 -34,-34 0,-17 17,-34 34,-34l593 0c17,0 34,17 34,34 0,17 -17,34 -34,34z"/>
   <path class="fil3" d="M2124 3167c0,0 0,-6 0,0 -11,0 -22,-6 -28,-17l-73 -106c-11,-17 -6,-39 6,-50 11,-11 39,-6 50,6l50 73 174 -179c11,-11 34,-17 50,0 11,11 17,34 0,50l-207 213c0,6 -11,11 -22,11z"/>
   <path class="fil3" d="M3557 3161l-1047 0c-17,0 -34,-17 -34,-34 0,-17 17,-34 34,-34l1047 0c17,0 34,17 34,34 0,17 -17,34 -34,34z"/>
   <path class="fil3" d="M3104 2988l-593 0c-17,0 -34,-17 -34,-34 0,-17 17,-34 34,-34l593 0c17,0 34,17 34,34 0,17 -17,34 -34,34z"/>
   <path class="fil3" d="M2124 3587c0,0 0,-6 0,0 -11,0 -22,-6 -28,-17l-73 -106c-11,-17 -6,-39 6,-50 11,-11 39,-6 50,6l50 73 174 -179c11,-11 34,-17 50,0 11,11 17,34 0,50l-207 207c0,11 -11,17 -22,17z"/>
   <path class="fil3" d="M3557 3581l-1047 0c-17,0 -34,-17 -34,-34 0,-17 17,-34 34,-34l1047 0c17,0 34,17 34,34 0,17 -17,34 -34,34z"/>
   <path class="fil3" d="M3104 3408l-593 0c-17,0 -34,-17 -34,-34 0,-17 17,-34 34,-34l593 0c17,0 34,17 34,34 0,17 -17,34 -34,34z"/>
   <path class="fil3" d="M2253 1381c-17,0 -28,11 -28,28l0 196c0,17 11,28 28,28l1069 0c17,0 28,-11 28,-28l0 -196c0,-17 -11,-28 -28,-28l-224 0c-17,0 -34,-11 -34,-34 -17,-140 -134,-246 -280,-246 -146,0 -263,106 -280,246 0,17 -17,34 -34,34l-218 0zm1069 313l-1069 0c-50,0 -95,-45 -95,-95l0 -196c0,-50 45,-95 95,-95l190 0c34,-162 174,-280 341,-280 168,0 308,118 341,280l196 0c50,0 95,45 95,95l0 196c0,50 -45,95 -95,95z"/>
   <path class="fil3" d="M4151 1728c-56,0 -106,45 -106,106 0,56 45,106 106,106 62,0 106,-45 106,-106 0,-62 -50,-106 -106,-106zm0 280c-95,0 -174,-78 -174,-174 0,-95 78,-174 174,-174 95,0 174,78 174,174 0,95 -78,174 -174,174z"/>
   <path class="fil3" d="M1266 3307c-95,0 -174,78 -174,174 0,95 78,173 174,173 95,0 174,-78 174,-173 0,-95 -73,-174 -174,-174zm0 420c-134,0 -246,-112 -246,-246 0,-134 112,-246 246,-246 134,0 246,112 246,246 0,134 -112,246 -246,246z"/>
  </g>
 </g>
</svg>
