<?xml version="1.0" encoding="UTF-8"?>
<!DOCTYPE svg PUBLIC "-//W3C//DTD SVG 1.1//EN" "http://www.w3.org/Graphics/SVG/1.1/DTD/svg11.dtd">
<!-- Creator: CorelDRAW X6 -->
<svg xmlns="http://www.w3.org/2000/svg" xml:space="preserve" width="53.4859mm" height="53.4859mm" version="1.1" style="shape-rendering:geometricPrecision; text-rendering:geometricPrecision; image-rendering:optimizeQuality; fill-rule:evenodd; clip-rule:evenodd"
viewBox="0 0 5349 5349"
 xmlns:xlink="http://www.w3.org/1999/xlink">
 <defs>
  <style type="text/css">
   <![CDATA[
    .fil2 {fill:none}
    .fil3 {fill:#898989}
    .fil0 {fill:#D9DADA}
    .fil1 {fill:#E31E24}
   ]]>
  </style>
    <clipPath id="id0">
     <path d="M695 5347l0 0 -3 0c-4,0 -7,-1 -11,-1l0 0 -1 0c-7,-1 -13,-1 -20,-2l0 0 0 0c-3,0 -5,-1 -8,-1l0 0 -1 0c-5,-1 -10,-1 -15,-2l0 0 0 0c-4,-1 -8,-1 -12,-2l0 0 0 0c-2,0 -4,-1 -6,-1l0 0 0 0c-2,0 -3,-1 -5,-1l0 0 -1 0c-2,0 -4,-1 -5,-1l0 0 0 0c-7,-1 -13,-3 -20,-4l0 0 0 0c-3,-1 -6,-1 -9,-2l0 0 0 0c-1,0 -3,-1 -4,-1l0 0 0 0c-5,-1 -11,-3 -16,-4l0 0 0 0c-2,-1 -5,-1 -7,-2l0 0 0 0c-1,0 -2,-1 -4,-1l0 0 0 0 -3 -1 0 0 -1 0c-2,-1 -4,-1 -7,-2l0 0 0 0c-4,-1 -9,-3 -13,-4l0 0 0 0 -3 -1 0 0 0 0 -3 -1 0 0 0 0 -3 -1 0 0 0 0 -3 -1 0 0 0 0c-1,0 -2,-1 -3,-1l0 0 0 0 -3 -1 0 0 0 0c-7,-2 -13,-5 -20,-7l0 0 0 0c-2,-1 -3,-1 -5,-2l0 0 0 0 -3 -1 0 0 0 0c-6,-2 -12,-5 -18,-7l0 0 0 0c-3,-1 -6,-3 -9,-4l0 0 0 0c-3,-1 -6,-3 -9,-4l0 0 0 0 -2 -1 0 0 0 0c-17,-8 -34,-17 -51,-26l0 0 0 0c-2,-1 -5,-3 -7,-4l0 0 0 0c-2,-1 -5,-3 -7,-4l0 0 0 0c-6,-4 -13,-8 -19,-11l0 0 0 0c-1,-1 -2,-1 -3,-2l0 0 0 0c-5,-3 -10,-6 -14,-9l0 0 0 0 -3 -2c-4,-2 -7,-5 -10,-7l0 0 0 0c-2,-2 -5,-3 -7,-5l0 0 0 0c-4,-3 -8,-6 -11,-8l0 0 0 0c-3,-2 -6,-5 -9,-7l0 0 0 0c-1,-1 -3,-2 -4,-3l0 0 0 0 -1 -1 0 0 0 0c-1,-1 -3,-2 -4,-3l0 0 0 0c-4,-3 -8,-6 -11,-9l0 0 0 0c-2,-2 -5,-4 -7,-6l0 0 0 0c-2,-2 -5,-4 -7,-6l0 0 0 0 -1 -1 0 0 0 0c-8,-7 -16,-14 -24,-22l0 0 0 0 -1 -1 0 0 0 0 -1 -1 0 0 0 0 -1 -1 0 0 0 0 -1 -1 0 0 0 0c-4,-4 -8,-8 -12,-12l0 0 0 0 -1 -1 0 0 0 0 -1 -1 0 0 0 0 -1 -1 0 0 0 0 -1 -1 0 0 0 0c-7,-8 -15,-16 -22,-24l0 0 0 0 -1 -1 0 0 0 0c-2,-2 -4,-5 -6,-7l0 0 0 0c-2,-2 -4,-5 -6,-7l0 0 0 0c-3,-4 -6,-8 -9,-11l0 0 0 0c-1,-1 -2,-3 -3,-4l0 0 0 0 -1 -1 0 0 0 0c-1,-1 -2,-3 -3,-4l0 0 0 0c-2,-3 -5,-6 -7,-9l0 0 0 0c-3,-4 -6,-8 -8,-11l0 0 0 0c-2,-2 -3,-5 -5,-7l0 0 0 0c-2,-3 -5,-7 -7,-10 -1,-1 -1,-2 -2,-3l0 0 0 0c-3,-5 -6,-10 -9,-14l0 0 0 0c-1,-1 -1,-2 -2,-3l0 0 0 0c-4,-6 -8,-12 -11,-19l0 0 0 0c-1,-2 -3,-5 -4,-7l0 0 0 0c-1,-2 -3,-5 -4,-7l0 0 0 0c-9,-17 -18,-34 -26,-51l0 0 0 0 -1 -2 0 0 0 0c-1,-3 -3,-6 -4,-9l0 0 0 0c-1,-3 -3,-6 -4,-9l0 0 0 0c-2,-6 -5,-12 -7,-18l0 0 0 0 -1 -3 0 0 0 0c-1,-2 -1,-3 -2,-5l0 0 0 0c-2,-7 -5,-13 -7,-20l0 0 0 0 -1 -3 0 0 0 0c0,-1 -1,-2 -1,-3l0 0 0 0 -1 -3 0 0 0 0c0,-1 -1,-2 -1,-3l0 0 0 0 -1 -3 0 0 0 0 -1 -3 0 0 0 0c-1,-4 -3,-9 -4,-13l0 0 0 0c-1,-2 -1,-4 -2,-7l0 -1 0 0 -1 -3 0 0 0 0c0,-1 -1,-2 -1,-4l0 0 0 0c-1,-2 -1,-5 -2,-7l0 0 0 0c-1,-5 -3,-11 -4,-16l0 0 0 0c0,-1 -1,-3 -1,-4l0 0 0 0c-1,-3 -1,-6 -2,-9l0 0 0 0c-1,-7 -3,-13 -4,-20l0 0 0 0c0,-2 -1,-4 -1,-5l0 -1 0 0c0,-2 -1,-3 -1,-5l0 0 0 0c0,-2 -1,-4 -1,-6l0 0 0 0c-1,-4 -1,-8 -2,-12l0 0 0 0c-1,-5 -1,-10 -2,-15l0 -1 0 0c0,-3 -1,-5 -1,-8l0 0 0 0c-1,-7 -1,-13 -2,-20l0 -1 0 0c0,-4 -1,-7 -1,-11l0 -3 0 0c-1,-18 -2,-35 -2,-53l0 -3853c0,-18 1,-36 2,-53l0 0 0 -3c0,-4 1,-7 1,-11l0 0 0 -1c1,-7 1,-13 2,-20l0 0 0 0c0,-3 1,-5 1,-8l0 0 0 -1c1,-5 1,-10 2,-15l0 0 0 0c1,-4 1,-8 2,-12l0 0 0 0c0,-2 1,-4 1,-6l0 0 0 0c0,-2 1,-3 1,-5l0 0 0 -1c0,-2 1,-4 1,-5l0 0 0 0c1,-7 3,-13 4,-20l0 0 0 0c1,-3 1,-6 2,-9l0 0 0 0c0,-1 1,-3 1,-4l0 0 0 0c1,-5 3,-11 4,-16l0 0 0 0c1,-2 1,-5 2,-7l0 0 0 0c0,-1 1,-2 1,-4l0 0 0 0 1 -3 0 0 0 -1c1,-2 1,-4 2,-7l0 0 0 0c1,-4 3,-9 4,-13l0 0 0 0 1 -3 0 0 0 0 1 -3 0 0 0 0 1 -3 0 0 0 0 1 -3 0 0 0 0c0,-1 1,-2 1,-3l0 0 0 0 1 -3 0 0 0 0c2,-7 5,-13 7,-20l0 0 0 0c1,-2 1,-3 2,-5l0 0 0 0 1 -3 0 0 0 0c2,-6 5,-12 7,-18l0 0 0 0c1,-3 3,-6 4,-9l0 0 0 0c1,-3 3,-6 4,-9l0 0 0 0 1 -2 0 0 0 0c8,-17 17,-34 26,-51l0 0 0 0c1,-2 3,-5 4,-7l0 0 0 0c1,-2 3,-5 4,-7l0 0 0 0c4,-6 8,-13 11,-19l0 0 0 0c1,-1 1,-2 2,-3l0 0 0 0c3,-5 6,-10 9,-14l0 0 0 0 2 -3 0 0 0 0c2,-4 5,-7 7,-10l0 0 0 0c2,-2 3,-5 5,-7l0 0 0 0c3,-4 6,-8 8,-11l0 0 0 0c2,-3 5,-6 7,-9l0 0 0 0c1,-1 2,-3 3,-4l0 0 0 0 1 -1 0 0 0 0c1,-1 2,-3 3,-4l0 0 0 0c3,-4 6,-8 9,-11l0 0 0 0c2,-2 4,-5 6,-7l0 0 0 0c2,-2 4,-5 6,-7l0 0 0 0 1 -1 0 0 0 0c7,-8 14,-16 22,-24l0 0 0 0 1 -1 0 0 0 0 1 -1 0 0 0 0 1 -1 0 0 0 0 1 -1 0 0 0 0c4,-4 8,-8 12,-12l0 0 0 0 1 -1 0 0 0 0 1 -1 0 0 0 0 1 -1 0 0 0 0 1 -1 0 0 0 0c8,-7 16,-15 24,-22l0 0 0 0 1 -1 0 0 0 0c2,-2 5,-4 7,-6l0 0 0 0c2,-2 5,-4 7,-6l0 0 0 0c4,-3 8,-6 11,-9l0 0 0 0c1,-1 3,-2 4,-3l0 0 0 0 1 -1 0 0 0 0c1,-1 3,-2 4,-3l0 0 0 0c3,-2 6,-5 9,-7l0 0 0 0c4,-3 8,-6 11,-8l0 0 0 0c2,-2 5,-3 7,-5l0 0 0 0c4,-3 9,-6 14,-9l0 0 0 0c5,-3 10,-6 14,-9l0 0 0 0c1,-1 2,-1 3,-2l0 0 0 0c6,-4 12,-8 19,-11l0 0 0 0c2,-1 5,-3 7,-4l0 0 0 0c2,-1 5,-3 7,-4l0 0 0 0c17,-9 34,-18 51,-26l0 0 0 0 2 -1 0 0 0 0c3,-1 6,-3 9,-4l0 0 0 0c3,-1 6,-3 9,-4l0 0 0 0c6,-3 12,-5 18,-7l0 0 0 0 3 -1 0 0 0 0c2,-1 3,-1 5,-2l0 0 0 0c7,-2 13,-5 20,-7l0 0 0 0 3 -1 0 0 0 0c1,0 2,-1 3,-1l0 0 0 0 3 -1 0 0 0 0c1,0 2,-1 3,-1l0 0 0 0 3 -1 0 0 0 0 3 -1 0 0 0 0c4,-1 9,-3 13,-4l0 0 0 0c2,-1 4,-1 7,-2l1 0 0 0 3 -1 0 0 0 0c1,0 2,-1 4,-1l0 0 0 0c2,-1 5,-1 7,-2l0 0 0 0c5,-1 11,-3 16,-4l0 0 0 0c1,0 3,-1 4,-1l0 0 0 0c3,-1 6,-1 9,-2l0 0 0 0c7,-1 13,-3 20,-4l0 0 0 0c2,0 4,-1 5,-1l1 0 0 0c2,0 3,-1 5,-1l0 0 0 0c2,0 4,-1 6,-1l0 0 0 0c4,-1 8,-1 12,-2l0 0 0 0c5,-1 10,-1 15,-2l1 0 0 0c3,0 5,-1 8,-1l0 0 0 0c6,-1 13,-1 20,-2l1 0 0 0c4,0 7,-1 11,-1l3 0 0 0c18,-1 35,-2 53,-2l3853 0c18,0 36,1 53,2l0 0 3 0c4,0 7,1 11,1l0 0 1 0c7,1 13,1 20,2l0 0 0 0c3,0 5,1 8,1l0 0 1 0c5,1 10,1 15,2l0 0 0 0c4,1 8,1 12,2l0 0 0 0c2,0 4,1 6,1l0 0 0 0c2,0 3,1 5,1l0 0 1 0c2,0 4,1 5,1l0 0 0 0c7,1 13,3 20,4l0 0 0 0c3,1 6,1 9,2l0 0 0 0c1,0 3,1 4,1l0 0 0 0c6,1 11,3 16,4l0 0 0 0c2,1 5,1 7,2l0 0 0 0c1,0 2,1 4,1l0 0 0 0 3 1 0 0 1 0c2,1 4,1 7,2l0 0 0 0c4,1 9,3 13,4l0 0 0 0 3 1 0 0 0 0 3 1 0 0 0 0 3 1 0 0 0 0 3 1 0 0 0 0c1,0 2,1 3,1l0 0 0 0 3 1 0 0 0 0c7,2 13,5 20,7l0 0 0 0c2,1 3,1 5,2l0 0 0 0 3 1 0 0 0 0c6,2 12,5 18,7l0 0 0 0c3,1 6,3 9,4l0 0 0 0c3,1 6,3 9,4l0 0 0 0 2 1 0 0 0 0c17,8 34,17 51,26l0 0 0 0c2,1 5,3 7,4l0 0 0 0c2,1 5,3 7,4l0 0 0 0c6,4 13,8 19,11l0 0 0 0c1,1 2,1 3,2l0 0 0 0c5,3 10,6 14,9l0 0 0 0c5,3 9,6 14,9l0 0 0 0c2,2 5,3 7,5l0 0 0 0c4,3 8,6 11,8l0 0 0 0c3,2 6,5 9,7l0 0 0 0c1,1 3,2 4,3l0 0 0 0 1 1 0 0 0 0c1,1 3,2 4,3l0 0 0 0c4,3 8,6 11,9l0 0 0 0c2,2 5,4 7,6l0 0 0 0c2,2 5,4 7,6l0 0 0 0 1 1 0 0 0 0c8,7 16,14 24,22l0 0 0 0 1 1 0 0 0 0 1 1 0 0 0 0 1 1 0 0 0 0 1 1 0 0 0 0c4,4 8,8 12,12l0 0 0 0 1 1 0 0 0 0 1 1 0 0 0 0 1 1 0 0 0 0 1 1 0 0 0 0c7,8 15,16 22,24l0 0 0 0 1 1 0 0 0 0c2,2 4,5 6,7l0 0 0 0c2,2 4,5 6,7l0 0 0 0c3,4 6,8 9,11l0 0 0 0c1,1 2,3 3,4l0 0 0 0 1 1 0 0 0 0c1,1 2,3 3,4l0 0 0 0c2,3 5,6 7,9l0 0 0 0c3,4 6,8 8,11l0 0 0 0c2,2 3,5 5,7l0 0 0 0c3,4 6,9 9,14l0 0 0 0c3,5 6,10 9,14l0 0 0 0c1,1 1,2 2,3l0 0 0 0c4,6 8,12 11,19l0 0 0 0c1,2 3,5 4,7l0 0 0 0c1,2 3,5 4,7l0 0 0 0c9,17 18,34 26,51l0 0 0 0 1 2 0 0 0 0c1,3 3,6 4,9l0 0 0 0c1,3 3,6 4,9l0 0 0 0c2,6 5,12 7,18l0 0 0 0 1 3 0 0 0 0c1,2 1,3 2,5l0 0 0 0c2,7 5,13 7,20l0 0 0 0 1 3 0 0 0 0c0,1 1,2 1,3l0 0 0 0 1 3 0 0 0 0c0,1 1,2 1,3l0 0 0 0 1 3 0 0 0 0 1 3 0 0 0 0c1,4 3,9 4,13l0 0 0 0c1,2 1,4 2,7l0 1 0 0 1 3 0 0 0 0c0,1 1,2 1,4l0 0 0 0c1,2 1,5 2,7l0 0 0 0c1,5 3,11 4,16l0 0 0 0c0,1 1,3 1,4l0 0 0 0c1,3 1,6 2,9l0 0 0 0c1,7 3,13 4,20l0 0 0 0c0,2 1,4 1,5l0 1 0 0c0,2 1,3 1,5l0 0 0 0c0,2 1,4 1,6l0 0 0 0c1,4 1,8 2,12l0 0 0 0c1,5 1,10 2,15l0 1 0 0c0,3 1,5 1,8l0 0 0 0c1,6 1,13 2,20l0 1 0 0c0,4 1,7 1,11l0 3 0 0c1,18 2,35 2,53l0 3853c0,18 -1,36 -2,53l0 0 0 3c0,4 -1,8 -1,12l0 0 0 0c-1,7 -1,13 -2,19l0 0 0 1c0,3 -1,5 -1,8l0 0 0 1c0,2 -1,5 -1,7l0 0 0 0c-1,7 -2,13 -3,20l0 0 0 1c0,2 -1,4 -1,6l0 0 0 1c-1,4 -1,7 -2,11l0 0 0 0c-1,7 -3,13 -4,20l0 0 0 1c0,2 -1,3 -1,5l0 0 0 0 -1 4 0 0 0 0c0,1 -1,2 -1,4l0 0 0 1c-2,7 -3,14 -5,20l0 0 0 0c-1,2 -1,5 -2,7l0 0 0 0c-1,2 -1,5 -2,7l0 0 0 0c-4,12 -7,24 -11,35l0 0 0 0 -1 3 0 0 0 0 -1 3 0 0 0 0c-2,6 -4,11 -6,17l0 0 0 0c-1,2 -1,3 -2,5l0 0 0 0c-1,2 -1,3 -2,5l0 0 0 0 -2 5 0 0 0 0c-2,5 -4,10 -6,14l0 0 0 0c-1,2 -2,5 -3,7l0 0 0 0 -1 2 0 0 0 0c-4,8 -7,16 -11,24l0 0 0 0 -1 2 0 0 0 0 -1 2 0 0 0 0 -1 2 0 0 0 0 -1 2 0 0 0 0 -1 2 0 0 0 0 -1 2 0 0 0 0c-4,8 -8,15 -12,23l0 0 0 0c-1,2 -2,3 -3,5l0 0 0 0 -1 2 0 0 0 0c-1,2 -2,3 -3,5l0 0 0 0c-2,3 -4,7 -6,10l0 0 0 0c-2,3 -3,6 -5,8l0 0 0 0c-1,1 -1,2 -2,3l0 0 0 0c-1,1 -1,2 -2,3l0 0 0 0c-4,6 -8,12 -12,19l0 0 0 0 -2 3 0 0 0 0c-2,2 -3,5 -5,7l0 0 0 0c-4,5 -8,10 -11,16l0 0 0 0c-2,3 -5,6 -7,9l0 0 0 0c-1,2 -3,3 -4,5l0 0 0 0c-5,6 -10,12 -14,18l0 0 0 0c-2,2 -3,4 -5,6l0 0 0 0 -1 1 0 0 0 0c-6,7 -12,14 -19,21l0 0 0 0 -1 1 0 0 0 0 -1 1 0 0 0 0 -1 1 0 0 0 0c-9,10 -18,19 -28,28l0 0 0 0 -1 1 0 0 0 0 -1 1 0 0 0 0c-7,6 -14,13 -21,19l0 0 0 0 -1 1 0 0 0 0c-2,2 -5,4 -7,6l0 0 0 0c-5,5 -11,9 -17,14l0 0 0 0c-2,1 -3,3 -5,4l0 0 0 0c-3,2 -6,5 -9,7l0 0 0 0c-3,2 -6,4 -8,6l0 0 0 0c-2,2 -5,3 -7,5l0 0 0 0c-2,2 -5,3 -7,5l0 0 0 0c-8,6 -16,11 -25,17l0 0 0 0c-1,1 -2,1 -3,2l0 0 0 0c-6,4 -12,8 -19,11l0 0 0 0c-2,1 -3,2 -5,3l0 0 0 0c-2,1 -5,3 -7,4l0 0 0 0c-7,4 -14,8 -21,11l0 0 0 0 -2 1 0 0 0 0 -2 1 0 0 0 0 -2 1 0 0 0 0 -2 1 0 0 0 0 -2 1 0 0 0 0c-6,3 -11,6 -17,8l0 0 0 0c-4,2 -7,3 -11,5l0 0 0 0 -2 1 0 0 0 0c-3,1 -6,3 -9,4l0 0 0 0c-6,3 -12,5 -17,7l0 0 0 0c-2,1 -3,1 -5,2l0 0 0 0c-2,1 -3,1 -5,2l0 0 0 0c-5,2 -9,3 -14,5 -1,0 -2,1 -3,1l0 0 0 0c-11,4 -23,8 -34,11 -2,1 -5,1 -7,2l0 0 0 0c-2,1 -5,1 -7,2l-1 0 0 0c-2,1 -5,1 -7,2l0 0 0 0c-7,2 -13,4 -20,5l-1 0 0 0c-1,0 -2,1 -4,1l-1 0 0 0 -4 1 0 0 0 0c-3,1 -6,1 -9,2l0 0 0 0c-5,1 -10,2 -15,3l0 0 0 0c-2,0 -3,1 -5,1l0 0 0 0c-2,0 -4,1 -6,1l-1 0 0 0c-2,0 -4,1 -6,1l-1 0 0 0c-7,1 -13,2 -20,3l0 0 0 0c-2,0 -5,1 -7,1l-1 0 0 0c-3,0 -5,1 -8,1l-1 0 0 0c-6,1 -13,1 -19,2l0 0 0 0c-4,0 -8,1 -12,1l-3 0 0 0c-18,1 -35,2 -53,2l-3853 0c-18,0 -36,-1 -53,-2z"/>
    </clipPath>
 </defs>
 <g id="Layer_x0020_1">
  <metadata id="CorelCorpID_0Corel-Layer"/>
  <g id="_382409008">
   <path class="fil0" d="M695 5347l0 0 -3 0c-4,0 -7,-1 -11,-1l0 0 -1 0c-7,-1 -13,-1 -20,-2l0 0 0 0c-3,0 -5,-1 -8,-1l0 0 -1 0c-5,-1 -10,-1 -15,-2l0 0 0 0c-4,-1 -8,-1 -12,-2l0 0 0 0c-2,0 -4,-1 -6,-1l0 0 0 0c-2,0 -3,-1 -5,-1l0 0 -1 0c-2,0 -4,-1 -5,-1l0 0 0 0c-7,-1 -13,-3 -20,-4l0 0 0 0c-3,-1 -6,-1 -9,-2l0 0 0 0c-1,0 -3,-1 -4,-1l0 0 0 0c-5,-1 -11,-3 -16,-4l0 0 0 0c-2,-1 -5,-1 -7,-2l0 0 0 0c-1,0 -2,-1 -4,-1l0 0 0 0 -3 -1 0 0 -1 0c-2,-1 -4,-1 -7,-2l0 0 0 0c-4,-1 -9,-3 -13,-4l0 0 0 0 -3 -1 0 0 0 0 -3 -1 0 0 0 0 -3 -1 0 0 0 0 -3 -1 0 0 0 0c-1,0 -2,-1 -3,-1l0 0 0 0 -3 -1 0 0 0 0c-7,-2 -13,-5 -20,-7l0 0 0 0c-2,-1 -3,-1 -5,-2l0 0 0 0 -3 -1 0 0 0 0c-6,-2 -12,-5 -18,-7l0 0 0 0c-3,-1 -6,-3 -9,-4l0 0 0 0c-3,-1 -6,-3 -9,-4l0 0 0 0 -2 -1 0 0 0 0c-17,-8 -34,-17 -51,-26l0 0 0 0c-2,-1 -5,-3 -7,-4l0 0 0 0c-2,-1 -5,-3 -7,-4l0 0 0 0c-6,-4 -13,-8 -19,-11l0 0 0 0c-1,-1 -2,-1 -3,-2l0 0 0 0c-5,-3 -10,-6 -14,-9l0 0 0 0 -3 -2c-4,-2 -7,-5 -10,-7l0 0 0 0c-2,-2 -5,-3 -7,-5l0 0 0 0c-4,-3 -8,-6 -11,-8l0 0 0 0c-3,-2 -6,-5 -9,-7l0 0 0 0c-1,-1 -3,-2 -4,-3l0 0 0 0 -1 -1 0 0 0 0c-1,-1 -3,-2 -4,-3l0 0 0 0c-4,-3 -8,-6 -11,-9l0 0 0 0c-2,-2 -5,-4 -7,-6l0 0 0 0c-2,-2 -5,-4 -7,-6l0 0 0 0 -1 -1 0 0 0 0c-8,-7 -16,-14 -24,-22l0 0 0 0 -1 -1 0 0 0 0 -1 -1 0 0 0 0 -1 -1 0 0 0 0 -1 -1 0 0 0 0c-4,-4 -8,-8 -12,-12l0 0 0 0 -1 -1 0 0 0 0 -1 -1 0 0 0 0 -1 -1 0 0 0 0 -1 -1 0 0 0 0c-7,-8 -15,-16 -22,-24l0 0 0 0 -1 -1 0 0 0 0c-2,-2 -4,-5 -6,-7l0 0 0 0c-2,-2 -4,-5 -6,-7l0 0 0 0c-3,-4 -6,-8 -9,-11l0 0 0 0c-1,-1 -2,-3 -3,-4l0 0 0 0 -1 -1 0 0 0 0c-1,-1 -2,-3 -3,-4l0 0 0 0c-2,-3 -5,-6 -7,-9l0 0 0 0c-3,-4 -6,-8 -8,-11l0 0 0 0c-2,-2 -3,-5 -5,-7l0 0 0 0c-2,-3 -5,-7 -7,-10 -1,-1 -1,-2 -2,-3l0 0 0 0c-3,-5 -6,-10 -9,-14l0 0 0 0c-1,-1 -1,-2 -2,-3l0 0 0 0c-4,-6 -8,-12 -11,-19l0 0 0 0c-1,-2 -3,-5 -4,-7l0 0 0 0c-1,-2 -3,-5 -4,-7l0 0 0 0c-9,-17 -18,-34 -26,-51l0 0 0 0 -1 -2 0 0 0 0c-1,-3 -3,-6 -4,-9l0 0 0 0c-1,-3 -3,-6 -4,-9l0 0 0 0c-2,-6 -5,-12 -7,-18l0 0 0 0 -1 -3 0 0 0 0c-1,-2 -1,-3 -2,-5l0 0 0 0c-2,-7 -5,-13 -7,-20l0 0 0 0 -1 -3 0 0 0 0c0,-1 -1,-2 -1,-3l0 0 0 0 -1 -3 0 0 0 0c0,-1 -1,-2 -1,-3l0 0 0 0 -1 -3 0 0 0 0 -1 -3 0 0 0 0c-1,-4 -3,-9 -4,-13l0 0 0 0c-1,-2 -1,-4 -2,-7l0 -1 0 0 -1 -3 0 0 0 0c0,-1 -1,-2 -1,-4l0 0 0 0c-1,-2 -1,-5 -2,-7l0 0 0 0c-1,-5 -3,-11 -4,-16l0 0 0 0c0,-1 -1,-3 -1,-4l0 0 0 0c-1,-3 -1,-6 -2,-9l0 0 0 0c-1,-7 -3,-13 -4,-20l0 0 0 0c0,-2 -1,-4 -1,-5l0 -1 0 0c0,-2 -1,-3 -1,-5l0 0 0 0c0,-2 -1,-4 -1,-6l0 0 0 0c-1,-4 -1,-8 -2,-12l0 0 0 0c-1,-5 -1,-10 -2,-15l0 -1 0 0c0,-3 -1,-5 -1,-8l0 0 0 0c-1,-7 -1,-13 -2,-20l0 -1 0 0c0,-4 -1,-7 -1,-11l0 -3 0 0c-1,-18 -2,-35 -2,-53l0 -3853c0,-18 1,-36 2,-53l0 0 0 -3c0,-4 1,-7 1,-11l0 0 0 -1c1,-7 1,-13 2,-20l0 0 0 0c0,-3 1,-5 1,-8l0 0 0 -1c1,-5 1,-10 2,-15l0 0 0 0c1,-4 1,-8 2,-12l0 0 0 0c0,-2 1,-4 1,-6l0 0 0 0c0,-2 1,-3 1,-5l0 0 0 -1c0,-2 1,-4 1,-5l0 0 0 0c1,-7 3,-13 4,-20l0 0 0 0c1,-3 1,-6 2,-9l0 0 0 0c0,-1 1,-3 1,-4l0 0 0 0c1,-5 3,-11 4,-16l0 0 0 0c1,-2 1,-5 2,-7l0 0 0 0c0,-1 1,-2 1,-4l0 0 0 0 1 -3 0 0 0 -1c1,-2 1,-4 2,-7l0 0 0 0c1,-4 3,-9 4,-13l0 0 0 0 1 -3 0 0 0 0 1 -3 0 0 0 0 1 -3 0 0 0 0 1 -3 0 0 0 0c0,-1 1,-2 1,-3l0 0 0 0 1 -3 0 0 0 0c2,-7 5,-13 7,-20l0 0 0 0c1,-2 1,-3 2,-5l0 0 0 0 1 -3 0 0 0 0c2,-6 5,-12 7,-18l0 0 0 0c1,-3 3,-6 4,-9l0 0 0 0c1,-3 3,-6 4,-9l0 0 0 0 1 -2 0 0 0 0c8,-17 17,-34 26,-51l0 0 0 0c1,-2 3,-5 4,-7l0 0 0 0c1,-2 3,-5 4,-7l0 0 0 0c4,-6 8,-13 11,-19l0 0 0 0c1,-1 1,-2 2,-3l0 0 0 0c3,-5 6,-10 9,-14l0 0 0 0 2 -3 0 0 0 0c2,-4 5,-7 7,-10l0 0 0 0c2,-2 3,-5 5,-7l0 0 0 0c3,-4 6,-8 8,-11l0 0 0 0c2,-3 5,-6 7,-9l0 0 0 0c1,-1 2,-3 3,-4l0 0 0 0 1 -1 0 0 0 0c1,-1 2,-3 3,-4l0 0 0 0c3,-4 6,-8 9,-11l0 0 0 0c2,-2 4,-5 6,-7l0 0 0 0c2,-2 4,-5 6,-7l0 0 0 0 1 -1 0 0 0 0c7,-8 14,-16 22,-24l0 0 0 0 1 -1 0 0 0 0 1 -1 0 0 0 0 1 -1 0 0 0 0 1 -1 0 0 0 0c4,-4 8,-8 12,-12l0 0 0 0 1 -1 0 0 0 0 1 -1 0 0 0 0 1 -1 0 0 0 0 1 -1 0 0 0 0c8,-7 16,-15 24,-22l0 0 0 0 1 -1 0 0 0 0c2,-2 5,-4 7,-6l0 0 0 0c2,-2 5,-4 7,-6l0 0 0 0c4,-3 8,-6 11,-9l0 0 0 0c1,-1 3,-2 4,-3l0 0 0 0 1 -1 0 0 0 0c1,-1 3,-2 4,-3l0 0 0 0c3,-2 6,-5 9,-7l0 0 0 0c4,-3 8,-6 11,-8l0 0 0 0c2,-2 5,-3 7,-5l0 0 0 0c4,-3 9,-6 14,-9l0 0 0 0c5,-3 10,-6 14,-9l0 0 0 0c1,-1 2,-1 3,-2l0 0 0 0c6,-4 12,-8 19,-11l0 0 0 0c2,-1 5,-3 7,-4l0 0 0 0c2,-1 5,-3 7,-4l0 0 0 0c17,-9 34,-18 51,-26l0 0 0 0 2 -1 0 0 0 0c3,-1 6,-3 9,-4l0 0 0 0c3,-1 6,-3 9,-4l0 0 0 0c6,-3 12,-5 18,-7l0 0 0 0 3 -1 0 0 0 0c2,-1 3,-1 5,-2l0 0 0 0c7,-2 13,-5 20,-7l0 0 0 0 3 -1 0 0 0 0c1,0 2,-1 3,-1l0 0 0 0 3 -1 0 0 0 0c1,0 2,-1 3,-1l0 0 0 0 3 -1 0 0 0 0 3 -1 0 0 0 0c4,-1 9,-3 13,-4l0 0 0 0c2,-1 4,-1 7,-2l1 0 0 0 3 -1 0 0 0 0c1,0 2,-1 4,-1l0 0 0 0c2,-1 5,-1 7,-2l0 0 0 0c5,-1 11,-3 16,-4l0 0 0 0c1,0 3,-1 4,-1l0 0 0 0c3,-1 6,-1 9,-2l0 0 0 0c7,-1 13,-3 20,-4l0 0 0 0c2,0 4,-1 5,-1l1 0 0 0c2,0 3,-1 5,-1l0 0 0 0c2,0 4,-1 6,-1l0 0 0 0c4,-1 8,-1 12,-2l0 0 0 0c5,-1 10,-1 15,-2l1 0 0 0c3,0 5,-1 8,-1l0 0 0 0c6,-1 13,-1 20,-2l1 0 0 0c4,0 7,-1 11,-1l3 0 0 0c18,-1 35,-2 53,-2l3853 0c18,0 36,1 53,2l0 0 3 0c4,0 7,1 11,1l0 0 1 0c7,1 13,1 20,2l0 0 0 0c3,0 5,1 8,1l0 0 1 0c5,1 10,1 15,2l0 0 0 0c4,1 8,1 12,2l0 0 0 0c2,0 4,1 6,1l0 0 0 0c2,0 3,1 5,1l0 0 1 0c2,0 4,1 5,1l0 0 0 0c7,1 13,3 20,4l0 0 0 0c3,1 6,1 9,2l0 0 0 0c1,0 3,1 4,1l0 0 0 0c6,1 11,3 16,4l0 0 0 0c2,1 5,1 7,2l0 0 0 0c1,0 2,1 4,1l0 0 0 0 3 1 0 0 1 0c2,1 4,1 7,2l0 0 0 0c4,1 9,3 13,4l0 0 0 0 3 1 0 0 0 0 3 1 0 0 0 0 3 1 0 0 0 0 3 1 0 0 0 0c1,0 2,1 3,1l0 0 0 0 3 1 0 0 0 0c7,2 13,5 20,7l0 0 0 0c2,1 3,1 5,2l0 0 0 0 3 1 0 0 0 0c6,2 12,5 18,7l0 0 0 0c3,1 6,3 9,4l0 0 0 0c3,1 6,3 9,4l0 0 0 0 2 1 0 0 0 0c17,8 34,17 51,26l0 0 0 0c2,1 5,3 7,4l0 0 0 0c2,1 5,3 7,4l0 0 0 0c6,4 13,8 19,11l0 0 0 0c1,1 2,1 3,2l0 0 0 0c5,3 10,6 14,9l0 0 0 0c5,3 9,6 14,9l0 0 0 0c2,2 5,3 7,5l0 0 0 0c4,3 8,6 11,8l0 0 0 0c3,2 6,5 9,7l0 0 0 0c1,1 3,2 4,3l0 0 0 0 1 1 0 0 0 0c1,1 3,2 4,3l0 0 0 0c4,3 8,6 11,9l0 0 0 0c2,2 5,4 7,6l0 0 0 0c2,2 5,4 7,6l0 0 0 0 1 1 0 0 0 0c8,7 16,14 24,22l0 0 0 0 1 1 0 0 0 0 1 1 0 0 0 0 1 1 0 0 0 0 1 1 0 0 0 0c4,4 8,8 12,12l0 0 0 0 1 1 0 0 0 0 1 1 0 0 0 0 1 1 0 0 0 0 1 1 0 0 0 0c7,8 15,16 22,24l0 0 0 0 1 1 0 0 0 0c2,2 4,5 6,7l0 0 0 0c2,2 4,5 6,7l0 0 0 0c3,4 6,8 9,11l0 0 0 0c1,1 2,3 3,4l0 0 0 0 1 1 0 0 0 0c1,1 2,3 3,4l0 0 0 0c2,3 5,6 7,9l0 0 0 0c3,4 6,8 8,11l0 0 0 0c2,2 3,5 5,7l0 0 0 0c3,4 6,9 9,14l0 0 0 0c3,5 6,10 9,14l0 0 0 0c1,1 1,2 2,3l0 0 0 0c4,6 8,12 11,19l0 0 0 0c1,2 3,5 4,7l0 0 0 0c1,2 3,5 4,7l0 0 0 0c9,17 18,34 26,51l0 0 0 0 1 2 0 0 0 0c1,3 3,6 4,9l0 0 0 0c1,3 3,6 4,9l0 0 0 0c2,6 5,12 7,18l0 0 0 0 1 3 0 0 0 0c1,2 1,3 2,5l0 0 0 0c2,7 5,13 7,20l0 0 0 0 1 3 0 0 0 0c0,1 1,2 1,3l0 0 0 0 1 3 0 0 0 0c0,1 1,2 1,3l0 0 0 0 1 3 0 0 0 0 1 3 0 0 0 0c1,4 3,9 4,13l0 0 0 0c1,2 1,4 2,7l0 1 0 0 1 3 0 0 0 0c0,1 1,2 1,4l0 0 0 0c1,2 1,5 2,7l0 0 0 0c1,5 3,11 4,16l0 0 0 0c0,1 1,3 1,4l0 0 0 0c1,3 1,6 2,9l0 0 0 0c1,7 3,13 4,20l0 0 0 0c0,2 1,4 1,5l0 1 0 0c0,2 1,3 1,5l0 0 0 0c0,2 1,4 1,6l0 0 0 0c1,4 1,8 2,12l0 0 0 0c1,5 1,10 2,15l0 1 0 0c0,3 1,5 1,8l0 0 0 0c1,6 1,13 2,20l0 1 0 0c0,4 1,7 1,11l0 3 0 0c1,18 2,35 2,53l0 3853c0,18 -1,36 -2,53l0 0 0 3c0,4 -1,8 -1,12l0 0 0 0c-1,7 -1,13 -2,19l0 0 0 1c0,3 -1,5 -1,8l0 0 0 1c0,2 -1,5 -1,7l0 0 0 0c-1,7 -2,13 -3,20l0 0 0 1c0,2 -1,4 -1,6l0 0 0 1c-1,4 -1,7 -2,11l0 0 0 0c-1,7 -3,13 -4,20l0 0 0 1c0,2 -1,3 -1,5l0 0 0 0 -1 4 0 0 0 0c0,1 -1,2 -1,4l0 0 0 1c-2,7 -3,14 -5,20l0 0 0 0c-1,2 -1,5 -2,7l0 0 0 0c-1,2 -1,5 -2,7l0 0 0 0c-4,12 -7,24 -11,35l0 0 0 0 -1 3 0 0 0 0 -1 3 0 0 0 0c-2,6 -4,11 -6,17l0 0 0 0c-1,2 -1,3 -2,5l0 0 0 0c-1,2 -1,3 -2,5l0 0 0 0 -2 5 0 0 0 0c-2,5 -4,10 -6,14l0 0 0 0c-1,2 -2,5 -3,7l0 0 0 0 -1 2 0 0 0 0c-4,8 -7,16 -11,24l0 0 0 0 -1 2 0 0 0 0 -1 2 0 0 0 0 -1 2 0 0 0 0 -1 2 0 0 0 0 -1 2 0 0 0 0 -1 2 0 0 0 0c-4,8 -8,15 -12,23l0 0 0 0c-1,2 -2,3 -3,5l0 0 0 0 -1 2 0 0 0 0c-1,2 -2,3 -3,5l0 0 0 0c-2,3 -4,7 -6,10l0 0 0 0c-2,3 -3,6 -5,8l0 0 0 0c-1,1 -1,2 -2,3l0 0 0 0c-1,1 -1,2 -2,3l0 0 0 0c-4,6 -8,12 -12,19l0 0 0 0 -2 3 0 0 0 0c-2,2 -3,5 -5,7l0 0 0 0c-4,5 -8,10 -11,16l0 0 0 0c-2,3 -5,6 -7,9l0 0 0 0c-1,2 -3,3 -4,5l0 0 0 0c-5,6 -10,12 -14,18l0 0 0 0c-2,2 -3,4 -5,6l0 0 0 0 -1 1 0 0 0 0c-6,7 -12,14 -19,21l0 0 0 0 -1 1 0 0 0 0 -1 1 0 0 0 0 -1 1 0 0 0 0c-9,10 -18,19 -28,28l0 0 0 0 -1 1 0 0 0 0 -1 1 0 0 0 0c-7,6 -14,13 -21,19l0 0 0 0 -1 1 0 0 0 0c-2,2 -5,4 -7,6l0 0 0 0c-5,5 -11,9 -17,14l0 0 0 0c-2,1 -3,3 -5,4l0 0 0 0c-3,2 -6,5 -9,7l0 0 0 0c-3,2 -6,4 -8,6l0 0 0 0c-2,2 -5,3 -7,5l0 0 0 0c-2,2 -5,3 -7,5l0 0 0 0c-8,6 -16,11 -25,17l0 0 0 0c-1,1 -2,1 -3,2l0 0 0 0c-6,4 -12,8 -19,11l0 0 0 0c-2,1 -3,2 -5,3l0 0 0 0c-2,1 -5,3 -7,4l0 0 0 0c-7,4 -14,8 -21,11l0 0 0 0 -2 1 0 0 0 0 -2 1 0 0 0 0 -2 1 0 0 0 0 -2 1 0 0 0 0 -2 1 0 0 0 0c-6,3 -11,6 -17,8l0 0 0 0c-4,2 -7,3 -11,5l0 0 0 0 -2 1 0 0 0 0c-3,1 -6,3 -9,4l0 0 0 0c-6,3 -12,5 -17,7l0 0 0 0c-2,1 -3,1 -5,2l0 0 0 0c-2,1 -3,1 -5,2l0 0 0 0c-5,2 -9,3 -14,5 -1,0 -2,1 -3,1l0 0 0 0c-11,4 -23,8 -34,11 -2,1 -5,1 -7,2l0 0 0 0c-2,1 -5,1 -7,2l-1 0 0 0c-2,1 -5,1 -7,2l0 0 0 0c-7,2 -13,4 -20,5l-1 0 0 0c-1,0 -2,1 -4,1l-1 0 0 0 -4 1 0 0 0 0c-3,1 -6,1 -9,2l0 0 0 0c-5,1 -10,2 -15,3l0 0 0 0c-2,0 -3,1 -5,1l0 0 0 0c-2,0 -4,1 -6,1l-1 0 0 0c-2,0 -4,1 -6,1l-1 0 0 0c-7,1 -13,2 -20,3l0 0 0 0c-2,0 -5,1 -7,1l-1 0 0 0c-3,0 -5,1 -8,1l-1 0 0 0c-6,1 -13,1 -19,2l0 0 0 0c-4,0 -8,1 -12,1l-3 0 0 0c-18,1 -35,2 -53,2l-3853 0c-18,0 -36,-1 -53,-2z"/>
   <g style="clip-path:url(#id0)">
    <g>
     <rect class="fil1" transform="matrix(1.07449 -1.07449 1.07449 1.07449 3493.74 45.5302)" width="1729" height="1729"/>
    </g>
   </g>
   <path class="fil2" d="M695 5347l0 0 -3 0c-4,0 -7,-1 -11,-1l0 0 -1 0c-7,-1 -13,-1 -20,-2l0 0 0 0c-3,0 -5,-1 -8,-1l0 0 -1 0c-5,-1 -10,-1 -15,-2l0 0 0 0c-4,-1 -8,-1 -12,-2l0 0 0 0c-2,0 -4,-1 -6,-1l0 0 0 0c-2,0 -3,-1 -5,-1l0 0 -1 0c-2,0 -4,-1 -5,-1l0 0 0 0c-7,-1 -13,-3 -20,-4l0 0 0 0c-3,-1 -6,-1 -9,-2l0 0 0 0c-1,0 -3,-1 -4,-1l0 0 0 0c-5,-1 -11,-3 -16,-4l0 0 0 0c-2,-1 -5,-1 -7,-2l0 0 0 0c-1,0 -2,-1 -4,-1l0 0 0 0 -3 -1 0 0 -1 0c-2,-1 -4,-1 -7,-2l0 0 0 0c-4,-1 -9,-3 -13,-4l0 0 0 0 -3 -1 0 0 0 0 -3 -1 0 0 0 0 -3 -1 0 0 0 0 -3 -1 0 0 0 0c-1,0 -2,-1 -3,-1l0 0 0 0 -3 -1 0 0 0 0c-7,-2 -13,-5 -20,-7l0 0 0 0c-2,-1 -3,-1 -5,-2l0 0 0 0 -3 -1 0 0 0 0c-6,-2 -12,-5 -18,-7l0 0 0 0c-3,-1 -6,-3 -9,-4l0 0 0 0c-3,-1 -6,-3 -9,-4l0 0 0 0 -2 -1 0 0 0 0c-17,-8 -34,-17 -51,-26l0 0 0 0c-2,-1 -5,-3 -7,-4l0 0 0 0c-2,-1 -5,-3 -7,-4l0 0 0 0c-6,-4 -13,-8 -19,-11l0 0 0 0c-1,-1 -2,-1 -3,-2l0 0 0 0c-5,-3 -10,-6 -14,-9l0 0 0 0 -3 -2c-4,-2 -7,-5 -10,-7l0 0 0 0c-2,-2 -5,-3 -7,-5l0 0 0 0c-4,-3 -8,-6 -11,-8l0 0 0 0c-3,-2 -6,-5 -9,-7l0 0 0 0c-1,-1 -3,-2 -4,-3l0 0 0 0 -1 -1 0 0 0 0c-1,-1 -3,-2 -4,-3l0 0 0 0c-4,-3 -8,-6 -11,-9l0 0 0 0c-2,-2 -5,-4 -7,-6l0 0 0 0c-2,-2 -5,-4 -7,-6l0 0 0 0 -1 -1 0 0 0 0c-8,-7 -16,-14 -24,-22l0 0 0 0 -1 -1 0 0 0 0 -1 -1 0 0 0 0 -1 -1 0 0 0 0 -1 -1 0 0 0 0c-4,-4 -8,-8 -12,-12l0 0 0 0 -1 -1 0 0 0 0 -1 -1 0 0 0 0 -1 -1 0 0 0 0 -1 -1 0 0 0 0c-7,-8 -15,-16 -22,-24l0 0 0 0 -1 -1 0 0 0 0c-2,-2 -4,-5 -6,-7l0 0 0 0c-2,-2 -4,-5 -6,-7l0 0 0 0c-3,-4 -6,-8 -9,-11l0 0 0 0c-1,-1 -2,-3 -3,-4l0 0 0 0 -1 -1 0 0 0 0c-1,-1 -2,-3 -3,-4l0 0 0 0c-2,-3 -5,-6 -7,-9l0 0 0 0c-3,-4 -6,-8 -8,-11l0 0 0 0c-2,-2 -3,-5 -5,-7l0 0 0 0c-2,-3 -5,-7 -7,-10 -1,-1 -1,-2 -2,-3l0 0 0 0c-3,-5 -6,-10 -9,-14l0 0 0 0c-1,-1 -1,-2 -2,-3l0 0 0 0c-4,-6 -8,-12 -11,-19l0 0 0 0c-1,-2 -3,-5 -4,-7l0 0 0 0c-1,-2 -3,-5 -4,-7l0 0 0 0c-9,-17 -18,-34 -26,-51l0 0 0 0 -1 -2 0 0 0 0c-1,-3 -3,-6 -4,-9l0 0 0 0c-1,-3 -3,-6 -4,-9l0 0 0 0c-2,-6 -5,-12 -7,-18l0 0 0 0 -1 -3 0 0 0 0c-1,-2 -1,-3 -2,-5l0 0 0 0c-2,-7 -5,-13 -7,-20l0 0 0 0 -1 -3 0 0 0 0c0,-1 -1,-2 -1,-3l0 0 0 0 -1 -3 0 0 0 0c0,-1 -1,-2 -1,-3l0 0 0 0 -1 -3 0 0 0 0 -1 -3 0 0 0 0c-1,-4 -3,-9 -4,-13l0 0 0 0c-1,-2 -1,-4 -2,-7l0 -1 0 0 -1 -3 0 0 0 0c0,-1 -1,-2 -1,-4l0 0 0 0c-1,-2 -1,-5 -2,-7l0 0 0 0c-1,-5 -3,-11 -4,-16l0 0 0 0c0,-1 -1,-3 -1,-4l0 0 0 0c-1,-3 -1,-6 -2,-9l0 0 0 0c-1,-7 -3,-13 -4,-20l0 0 0 0c0,-2 -1,-4 -1,-5l0 -1 0 0c0,-2 -1,-3 -1,-5l0 0 0 0c0,-2 -1,-4 -1,-6l0 0 0 0c-1,-4 -1,-8 -2,-12l0 0 0 0c-1,-5 -1,-10 -2,-15l0 -1 0 0c0,-3 -1,-5 -1,-8l0 0 0 0c-1,-7 -1,-13 -2,-20l0 -1 0 0c0,-4 -1,-7 -1,-11l0 -3 0 0c-1,-18 -2,-35 -2,-53l0 -3853c0,-18 1,-36 2,-53l0 0 0 -3c0,-4 1,-7 1,-11l0 0 0 -1c1,-7 1,-13 2,-20l0 0 0 0c0,-3 1,-5 1,-8l0 0 0 -1c1,-5 1,-10 2,-15l0 0 0 0c1,-4 1,-8 2,-12l0 0 0 0c0,-2 1,-4 1,-6l0 0 0 0c0,-2 1,-3 1,-5l0 0 0 -1c0,-2 1,-4 1,-5l0 0 0 0c1,-7 3,-13 4,-20l0 0 0 0c1,-3 1,-6 2,-9l0 0 0 0c0,-1 1,-3 1,-4l0 0 0 0c1,-5 3,-11 4,-16l0 0 0 0c1,-2 1,-5 2,-7l0 0 0 0c0,-1 1,-2 1,-4l0 0 0 0 1 -3 0 0 0 -1c1,-2 1,-4 2,-7l0 0 0 0c1,-4 3,-9 4,-13l0 0 0 0 1 -3 0 0 0 0 1 -3 0 0 0 0 1 -3 0 0 0 0 1 -3 0 0 0 0c0,-1 1,-2 1,-3l0 0 0 0 1 -3 0 0 0 0c2,-7 5,-13 7,-20l0 0 0 0c1,-2 1,-3 2,-5l0 0 0 0 1 -3 0 0 0 0c2,-6 5,-12 7,-18l0 0 0 0c1,-3 3,-6 4,-9l0 0 0 0c1,-3 3,-6 4,-9l0 0 0 0 1 -2 0 0 0 0c8,-17 17,-34 26,-51l0 0 0 0c1,-2 3,-5 4,-7l0 0 0 0c1,-2 3,-5 4,-7l0 0 0 0c4,-6 8,-13 11,-19l0 0 0 0c1,-1 1,-2 2,-3l0 0 0 0c3,-5 6,-10 9,-14l0 0 0 0 2 -3 0 0 0 0c2,-4 5,-7 7,-10l0 0 0 0c2,-2 3,-5 5,-7l0 0 0 0c3,-4 6,-8 8,-11l0 0 0 0c2,-3 5,-6 7,-9l0 0 0 0c1,-1 2,-3 3,-4l0 0 0 0 1 -1 0 0 0 0c1,-1 2,-3 3,-4l0 0 0 0c3,-4 6,-8 9,-11l0 0 0 0c2,-2 4,-5 6,-7l0 0 0 0c2,-2 4,-5 6,-7l0 0 0 0 1 -1 0 0 0 0c7,-8 14,-16 22,-24l0 0 0 0 1 -1 0 0 0 0 1 -1 0 0 0 0 1 -1 0 0 0 0 1 -1 0 0 0 0c4,-4 8,-8 12,-12l0 0 0 0 1 -1 0 0 0 0 1 -1 0 0 0 0 1 -1 0 0 0 0 1 -1 0 0 0 0c8,-7 16,-15 24,-22l0 0 0 0 1 -1 0 0 0 0c2,-2 5,-4 7,-6l0 0 0 0c2,-2 5,-4 7,-6l0 0 0 0c4,-3 8,-6 11,-9l0 0 0 0c1,-1 3,-2 4,-3l0 0 0 0 1 -1 0 0 0 0c1,-1 3,-2 4,-3l0 0 0 0c3,-2 6,-5 9,-7l0 0 0 0c4,-3 8,-6 11,-8l0 0 0 0c2,-2 5,-3 7,-5l0 0 0 0c4,-3 9,-6 14,-9l0 0 0 0c5,-3 10,-6 14,-9l0 0 0 0c1,-1 2,-1 3,-2l0 0 0 0c6,-4 12,-8 19,-11l0 0 0 0c2,-1 5,-3 7,-4l0 0 0 0c2,-1 5,-3 7,-4l0 0 0 0c17,-9 34,-18 51,-26l0 0 0 0 2 -1 0 0 0 0c3,-1 6,-3 9,-4l0 0 0 0c3,-1 6,-3 9,-4l0 0 0 0c6,-3 12,-5 18,-7l0 0 0 0 3 -1 0 0 0 0c2,-1 3,-1 5,-2l0 0 0 0c7,-2 13,-5 20,-7l0 0 0 0 3 -1 0 0 0 0c1,0 2,-1 3,-1l0 0 0 0 3 -1 0 0 0 0c1,0 2,-1 3,-1l0 0 0 0 3 -1 0 0 0 0 3 -1 0 0 0 0c4,-1 9,-3 13,-4l0 0 0 0c2,-1 4,-1 7,-2l1 0 0 0 3 -1 0 0 0 0c1,0 2,-1 4,-1l0 0 0 0c2,-1 5,-1 7,-2l0 0 0 0c5,-1 11,-3 16,-4l0 0 0 0c1,0 3,-1 4,-1l0 0 0 0c3,-1 6,-1 9,-2l0 0 0 0c7,-1 13,-3 20,-4l0 0 0 0c2,0 4,-1 5,-1l1 0 0 0c2,0 3,-1 5,-1l0 0 0 0c2,0 4,-1 6,-1l0 0 0 0c4,-1 8,-1 12,-2l0 0 0 0c5,-1 10,-1 15,-2l1 0 0 0c3,0 5,-1 8,-1l0 0 0 0c6,-1 13,-1 20,-2l1 0 0 0c4,0 7,-1 11,-1l3 0 0 0c18,-1 35,-2 53,-2l3853 0c18,0 36,1 53,2l0 0 3 0c4,0 7,1 11,1l0 0 1 0c7,1 13,1 20,2l0 0 0 0c3,0 5,1 8,1l0 0 1 0c5,1 10,1 15,2l0 0 0 0c4,1 8,1 12,2l0 0 0 0c2,0 4,1 6,1l0 0 0 0c2,0 3,1 5,1l0 0 1 0c2,0 4,1 5,1l0 0 0 0c7,1 13,3 20,4l0 0 0 0c3,1 6,1 9,2l0 0 0 0c1,0 3,1 4,1l0 0 0 0c6,1 11,3 16,4l0 0 0 0c2,1 5,1 7,2l0 0 0 0c1,0 2,1 4,1l0 0 0 0 3 1 0 0 1 0c2,1 4,1 7,2l0 0 0 0c4,1 9,3 13,4l0 0 0 0 3 1 0 0 0 0 3 1 0 0 0 0 3 1 0 0 0 0 3 1 0 0 0 0c1,0 2,1 3,1l0 0 0 0 3 1 0 0 0 0c7,2 13,5 20,7l0 0 0 0c2,1 3,1 5,2l0 0 0 0 3 1 0 0 0 0c6,2 12,5 18,7l0 0 0 0c3,1 6,3 9,4l0 0 0 0c3,1 6,3 9,4l0 0 0 0 2 1 0 0 0 0c17,8 34,17 51,26l0 0 0 0c2,1 5,3 7,4l0 0 0 0c2,1 5,3 7,4l0 0 0 0c6,4 13,8 19,11l0 0 0 0c1,1 2,1 3,2l0 0 0 0c5,3 10,6 14,9l0 0 0 0c5,3 9,6 14,9l0 0 0 0c2,2 5,3 7,5l0 0 0 0c4,3 8,6 11,8l0 0 0 0c3,2 6,5 9,7l0 0 0 0c1,1 3,2 4,3l0 0 0 0 1 1 0 0 0 0c1,1 3,2 4,3l0 0 0 0c4,3 8,6 11,9l0 0 0 0c2,2 5,4 7,6l0 0 0 0c2,2 5,4 7,6l0 0 0 0 1 1 0 0 0 0c8,7 16,14 24,22l0 0 0 0 1 1 0 0 0 0 1 1 0 0 0 0 1 1 0 0 0 0 1 1 0 0 0 0c4,4 8,8 12,12l0 0 0 0 1 1 0 0 0 0 1 1 0 0 0 0 1 1 0 0 0 0 1 1 0 0 0 0c7,8 15,16 22,24l0 0 0 0 1 1 0 0 0 0c2,2 4,5 6,7l0 0 0 0c2,2 4,5 6,7l0 0 0 0c3,4 6,8 9,11l0 0 0 0c1,1 2,3 3,4l0 0 0 0 1 1 0 0 0 0c1,1 2,3 3,4l0 0 0 0c2,3 5,6 7,9l0 0 0 0c3,4 6,8 8,11l0 0 0 0c2,2 3,5 5,7l0 0 0 0c3,4 6,9 9,14l0 0 0 0c3,5 6,10 9,14l0 0 0 0c1,1 1,2 2,3l0 0 0 0c4,6 8,12 11,19l0 0 0 0c1,2 3,5 4,7l0 0 0 0c1,2 3,5 4,7l0 0 0 0c9,17 18,34 26,51l0 0 0 0 1 2 0 0 0 0c1,3 3,6 4,9l0 0 0 0c1,3 3,6 4,9l0 0 0 0c2,6 5,12 7,18l0 0 0 0 1 3 0 0 0 0c1,2 1,3 2,5l0 0 0 0c2,7 5,13 7,20l0 0 0 0 1 3 0 0 0 0c0,1 1,2 1,3l0 0 0 0 1 3 0 0 0 0c0,1 1,2 1,3l0 0 0 0 1 3 0 0 0 0 1 3 0 0 0 0c1,4 3,9 4,13l0 0 0 0c1,2 1,4 2,7l0 1 0 0 1 3 0 0 0 0c0,1 1,2 1,4l0 0 0 0c1,2 1,5 2,7l0 0 0 0c1,5 3,11 4,16l0 0 0 0c0,1 1,3 1,4l0 0 0 0c1,3 1,6 2,9l0 0 0 0c1,7 3,13 4,20l0 0 0 0c0,2 1,4 1,5l0 1 0 0c0,2 1,3 1,5l0 0 0 0c0,2 1,4 1,6l0 0 0 0c1,4 1,8 2,12l0 0 0 0c1,5 1,10 2,15l0 1 0 0c0,3 1,5 1,8l0 0 0 0c1,6 1,13 2,20l0 1 0 0c0,4 1,7 1,11l0 3 0 0c1,18 2,35 2,53l0 3853c0,18 -1,36 -2,53l0 0 0 3c0,4 -1,8 -1,12l0 0 0 0c-1,7 -1,13 -2,19l0 0 0 1c0,3 -1,5 -1,8l0 0 0 1c0,2 -1,5 -1,7l0 0 0 0c-1,7 -2,13 -3,20l0 0 0 1c0,2 -1,4 -1,6l0 0 0 1c-1,4 -1,7 -2,11l0 0 0 0c-1,7 -3,13 -4,20l0 0 0 1c0,2 -1,3 -1,5l0 0 0 0 -1 4 0 0 0 0c0,1 -1,2 -1,4l0 0 0 1c-2,7 -3,14 -5,20l0 0 0 0c-1,2 -1,5 -2,7l0 0 0 0c-1,2 -1,5 -2,7l0 0 0 0c-4,12 -7,24 -11,35l0 0 0 0 -1 3 0 0 0 0 -1 3 0 0 0 0c-2,6 -4,11 -6,17l0 0 0 0c-1,2 -1,3 -2,5l0 0 0 0c-1,2 -1,3 -2,5l0 0 0 0 -2 5 0 0 0 0c-2,5 -4,10 -6,14l0 0 0 0c-1,2 -2,5 -3,7l0 0 0 0 -1 2 0 0 0 0c-4,8 -7,16 -11,24l0 0 0 0 -1 2 0 0 0 0 -1 2 0 0 0 0 -1 2 0 0 0 0 -1 2 0 0 0 0 -1 2 0 0 0 0 -1 2 0 0 0 0c-4,8 -8,15 -12,23l0 0 0 0c-1,2 -2,3 -3,5l0 0 0 0 -1 2 0 0 0 0c-1,2 -2,3 -3,5l0 0 0 0c-2,3 -4,7 -6,10l0 0 0 0c-2,3 -3,6 -5,8l0 0 0 0c-1,1 -1,2 -2,3l0 0 0 0c-1,1 -1,2 -2,3l0 0 0 0c-4,6 -8,12 -12,19l0 0 0 0 -2 3 0 0 0 0c-2,2 -3,5 -5,7l0 0 0 0c-4,5 -8,10 -11,16l0 0 0 0c-2,3 -5,6 -7,9l0 0 0 0c-1,2 -3,3 -4,5l0 0 0 0c-5,6 -10,12 -14,18l0 0 0 0c-2,2 -3,4 -5,6l0 0 0 0 -1 1 0 0 0 0c-6,7 -12,14 -19,21l0 0 0 0 -1 1 0 0 0 0 -1 1 0 0 0 0 -1 1 0 0 0 0c-9,10 -18,19 -28,28l0 0 0 0 -1 1 0 0 0 0 -1 1 0 0 0 0c-7,6 -14,13 -21,19l0 0 0 0 -1 1 0 0 0 0c-2,2 -5,4 -7,6l0 0 0 0c-5,5 -11,9 -17,14l0 0 0 0c-2,1 -3,3 -5,4l0 0 0 0c-3,2 -6,5 -9,7l0 0 0 0c-3,2 -6,4 -8,6l0 0 0 0c-2,2 -5,3 -7,5l0 0 0 0c-2,2 -5,3 -7,5l0 0 0 0c-8,6 -16,11 -25,17l0 0 0 0c-1,1 -2,1 -3,2l0 0 0 0c-6,4 -12,8 -19,11l0 0 0 0c-2,1 -3,2 -5,3l0 0 0 0c-2,1 -5,3 -7,4l0 0 0 0c-7,4 -14,8 -21,11l0 0 0 0 -2 1 0 0 0 0 -2 1 0 0 0 0 -2 1 0 0 0 0 -2 1 0 0 0 0 -2 1 0 0 0 0c-6,3 -11,6 -17,8l0 0 0 0c-4,2 -7,3 -11,5l0 0 0 0 -2 1 0 0 0 0c-3,1 -6,3 -9,4l0 0 0 0c-6,3 -12,5 -17,7l0 0 0 0c-2,1 -3,1 -5,2l0 0 0 0c-2,1 -3,1 -5,2l0 0 0 0c-5,2 -9,3 -14,5 -1,0 -2,1 -3,1l0 0 0 0c-11,4 -23,8 -34,11 -2,1 -5,1 -7,2l0 0 0 0c-2,1 -5,1 -7,2l-1 0 0 0c-2,1 -5,1 -7,2l0 0 0 0c-7,2 -13,4 -20,5l-1 0 0 0c-1,0 -2,1 -4,1l-1 0 0 0 -4 1 0 0 0 0c-3,1 -6,1 -9,2l0 0 0 0c-5,1 -10,2 -15,3l0 0 0 0c-2,0 -3,1 -5,1l0 0 0 0c-2,0 -4,1 -6,1l-1 0 0 0c-2,0 -4,1 -6,1l-1 0 0 0c-7,1 -13,2 -20,3l0 0 0 0c-2,0 -5,1 -7,1l-1 0 0 0c-3,0 -5,1 -8,1l-1 0 0 0c-6,1 -13,1 -19,2l0 0 0 0c-4,0 -8,1 -12,1l-3 0 0 0c-18,1 -35,2 -53,2l-3853 0c-18,0 -36,-1 -53,-2z"/>
   <g>
    <g>
     <path class="fil3" d="M1502 2163c-11,0 -20,9 -20,20 0,11 9,20 20,20l813 0c11,0 20,-9 20,-20 0,-11 -9,-20 -20,-20l-813 0zm813 133l-813 0c-62,0 -112,-50 -112,-112 0,-62 50,-112 112,-112l813 0c61,0 112,50 112,112 1,61 -49,112 -112,112z"/>
     <path class="fil3" d="M2301 2163l-786 0c-25,0 -46,-20 -46,-46l0 -28c0,-197 133,-371 323,-424 13,-4 28,-1 39,7 12,8 19,21 19,35l17 309c1,25 -17,46 -44,48 -25,1 -46,-17 -48,-44l-15 -248c-116,54 -194,169 -201,296l693 0c-7,-129 -85,-243 -201,-296l-15 248c-1,25 -23,45 -48,44 -25,-1 -45,-23 -44,-48l17 -309c1,-13 8,-27 19,-35 12,-8 25,-11 39,-7 190,53 323,227 323,424l0 28c5,27 -16,46 -41,46z"/>
     <path class="fil3" d="M1996 2066c-1,0 -1,0 -3,0 -25,-1 -45,-23 -44,-48l20 -344 -121 0 20 344c1,25 -17,46 -44,48 -25,1 -46,-19 -48,-44l-23 -392c-1,-12 4,-25 12,-35 8,-9 21,-15 33,-15l218 0c12,0 25,5 33,15 9,9 13,21 12,35l-23 392c0,24 -20,44 -44,44z"/>
     <path class="fil3" d="M1908 2850c-106,0 -207,-41 -283,-117 -77,-76 -118,-177 -118,-286l0 -177c0,-8 0,-17 1,-25 1,-25 24,-44 49,-42 25,1 44,24 42,49 0,7 -1,13 -1,20l0 177c0,84 32,161 92,220 58,58 135,90 219,90l1 0c170,-1 308,-139 308,-309l0 -182c0,-5 0,-9 0,-15 -1,-25 19,-46 44,-48 25,-1 46,19 48,44 0,7 0,13 0,20l0 182c0,220 -179,401 -400,401 -1,-3 -1,-3 -3,-3z"/>
     <path class="fil3" d="M2061 3264c-11,0 -23,-4 -31,-12l-389 -347c-19,-17 -21,-46 -4,-65 17,-19 46,-21 65,-4l355 315 212 -255c16,-20 45,-23 65,-5 20,16 23,45 5,65l-243 292c-8,9 -20,16 -32,16 -1,0 -3,0 -4,0z"/>
     <path class="fil3" d="M1757 3264c-1,0 -3,0 -4,0 -12,-1 -24,-7 -32,-16l-240 -288c-16,-20 -13,-48 5,-65 20,-16 48,-13 65,5l210 252 117 -104c0,0 1,0 1,-1l254 -211c20,-16 48,-13 65,5 16,20 13,48 -7,65l-254 211 -151 134c-8,8 -19,12 -29,12z"/>
     <path class="fil3" d="M1804 3900c-1,0 -4,0 -5,0 -25,-3 -44,-25 -40,-50l64 -550 -54 -109c-12,-23 -3,-50 21,-61 23,-12 50,-1 61,21l60 121c4,8 5,17 4,25l-66 563c-1,23 -21,40 -44,40z"/>
     <path class="fil3" d="M2013 3900c-23,0 -42,-17 -45,-41l-66 -563c-1,-9 0,-17 4,-25l60 -121c12,-23 39,-32 61,-21 23,12 32,39 21,61l-54 109 64 550c3,25 -15,48 -40,50 -1,1 -3,1 -4,1z"/>
     <path class="fil3" d="M1947 3337l-77 0c-25,0 -46,-20 -46,-46 0,-27 20,-46 46,-46l77 0c25,0 46,20 46,46 0,27 -21,46 -46,46z"/>
     <path class="fil3" d="M1670 2918c-25,0 -46,-20 -46,-46l0 -158c0,-25 20,-46 46,-46 27,0 46,20 46,46l0 159c0,25 -21,45 -46,45z"/>
     <path class="fil3" d="M2834 3900l-1850 0c-25,0 -46,-20 -46,-46l0 -498c0,-155 98,-296 243,-351l474 -177c24,-9 50,3 58,27 9,24 -3,50 -27,58l-473 178c-110,41 -183,147 -183,264l0 452 1758 0 0 -452c0,-117 -74,-223 -183,-264l-458 -177c-24,-9 -36,-36 -27,-60 9,-24 36,-36 60,-27l458 177c145,54 243,195 243,351l0 499c-3,25 -23,45 -48,45z"/>
     <path class="fil3" d="M2162 2918c-25,0 -46,-20 -46,-46l0 -174c0,-25 20,-46 46,-46 25,0 46,20 46,46l0 175c0,25 -21,45 -46,45z"/>
     <path class="fil3" d="M3539 3900l-705 0c-25,0 -46,-20 -46,-46 0,-25 20,-46 46,-46l660 0 0 -2205 -931 0 0 1406c0,25 -20,46 -46,46 -25,0 -46,-20 -46,-46l0 -1453c0,-25 20,-46 46,-46l1023 0c25,0 46,20 46,46l0 2298c0,27 -21,46 -46,46z"/>
     <path class="fil3" d="M3371 3900l-550 0c-25,0 -46,-20 -46,-46 0,-25 20,-46 46,-46l503 0 0 -534c0,-12 -11,-23 -21,-23l-506 0c-25,0 -46,-20 -46,-46 0,-27 20,-46 46,-46l506 0c62,0 114,50 114,114l0 583c-1,25 -21,45 -46,45z"/>
     <path class="fil3" d="M3028 3900c-25,0 -46,-20 -46,-46l0 -648c0,-25 20,-46 46,-46 27,0 46,20 46,46l0 649c0,25 -21,45 -46,45z"/>
     <path class="fil3" d="M1322 3900c-25,0 -46,-20 -46,-46l0 -401c0,-25 20,-46 46,-46 27,0 46,20 46,46l0 402c0,25 -21,45 -46,45z"/>
     <path class="fil3" d="M2494 3900c-25,0 -46,-20 -46,-46l0 -401c0,-25 20,-46 46,-46 25,0 46,20 46,46l0 402c0,25 -20,45 -46,45z"/>
     <path class="fil3" d="M2746 1919l124 0 0 -60 -124 0 0 60zm169 92l-215 0c-25,0 -46,-20 -46,-46l0 -151c0,-25 20,-46 46,-46l215 0c25,0 46,20 46,46l0 151c-1,27 -21,46 -46,46z"/>
     <path class="fil3" d="M3187 1919l124 0 0 -60 -124 0 0 60zm169 92l-215 0c-25,0 -46,-20 -46,-46l0 -151c0,-25 20,-46 46,-46l215 0c25,0 46,20 46,46l0 151c0,27 -21,46 -46,46z"/>
     <path class="fil3" d="M2746 2276l124 0 0 -60 -124 0 0 60zm169 92l-215 0c-25,0 -46,-20 -46,-46l0 -151c0,-25 20,-46 46,-46l215 0c25,0 46,20 46,46l0 151c-1,25 -21,46 -46,46z"/>
     <path class="fil3" d="M3187 2276l124 0 0 -60 -124 0 0 60zm169 92l-215 0c-25,0 -46,-20 -46,-46l0 -151c0,-25 20,-46 46,-46l215 0c25,0 46,20 46,46l0 151c0,25 -21,46 -46,46z"/>
     <path class="fil3" d="M2746 2632l124 0 0 -60 -124 0 0 60zm169 92l-215 0c-25,0 -46,-20 -46,-46l0 -151c0,-25 20,-46 46,-46l215 0c25,0 46,20 46,46l0 151c-1,27 -21,46 -46,46z"/>
     <path class="fil3" d="M3187 2632l124 0 0 -60 -124 0 0 60zm169 92l-215 0c-25,0 -46,-20 -46,-46l0 -151c0,-25 20,-46 46,-46l215 0c25,0 46,20 46,46l0 151c0,27 -21,46 -46,46z"/>
     <path class="fil3" d="M3585 3809l765 0 0 -1106 -765 0 0 1106zm811 92l-857 0c-25,0 -46,-20 -46,-46l0 -1198c0,-25 20,-46 46,-46l857 0c25,0 46,20 46,46l0 1199c-1,25 -21,45 -46,45z"/>
     <path class="fil3" d="M4288 2702c-12,0 -24,-4 -32,-13l-64 -64c-15,-15 -17,-37 -8,-56 15,-25 25,-52 33,-81 5,-20 24,-35 44,-35l117 0 0 -112 -117 0c-21,0 -39,-13 -44,-35 -8,-28 -19,-56 -33,-81 -11,-19 -8,-41 8,-56l82 -82 -80 -80 -82 82c-15,15 -37,17 -56,8 -25,-15 -52,-25 -81,-33 -20,-5 -35,-24 -35,-44l0 -117 -112 0 0 117c0,21 -13,39 -35,44 -28,8 -54,19 -81,33 -19,11 -41,8 -56,-8l-82 -82 -7 7c-19,19 -46,19 -65,0 -19,-17 -19,-46 0,-65l16 -16c15,-15 35,-23 56,-23l0 0c21,0 41,8 56,23l68 68c12,-5 24,-11 37,-15l0 -96c0,-44 36,-80 80,-80l138 0c44,0 80,36 80,80l0 96c12,4 25,9 37,15l68 -68c15,-15 35,-23 56,-23 21,0 41,8 56,23l97 97c31,31 31,81 0,112l-68 68c5,12 11,24 15,37l96 0c44,0 80,36 80,80l0 138c0,44 -36,80 -80,80l-96 0c-4,12 -9,25 -15,37l40 40c19,19 19,46 0,65 -8,11 -20,15 -32,15z"/>
     <path class="fil3" d="M3887 2272c-68,0 -122,54 -122,122 0,68 54,122 122,122 66,0 122,-54 122,-122 0,-68 -54,-122 -122,-122zm0 335c-118,0 -214,-96 -214,-214 0,-118 96,-214 214,-214 118,0 214,96 214,214 0,118 -96,214 -214,214z"/>
     <path class="fil3" d="M4236 3036l-535 0c-25,0 -46,-20 -46,-46 0,-27 20,-46 46,-46l535 0c25,0 46,20 46,46 0,27 -21,46 -46,46z"/>
     <path class="fil3" d="M4236 3301l-535 0c-25,0 -46,-20 -46,-46 0,-27 20,-46 46,-46l535 0c25,0 46,20 46,46 0,27 -21,46 -46,46z"/>
     <path class="fil3" d="M4236 3567l-535 0c-25,0 -46,-20 -46,-46 0,-27 20,-46 46,-46l535 0c25,0 46,20 46,46 0,27 -21,46 -46,46z"/>
    </g>
    <path class="fil3" d="M2157 1216c16,39 0,78 -39,93 -39,16 -78,0 -93,-39 -16,-39 0,-78 39,-93 31,-16 78,0 93,39z"/>
    <path class="fil3" d="M1127 1275c-96,0 -175,79 -175,175 0,96 79,175 175,175 96,0 175,-79 175,-175 0,-96 -73,-175 -175,-175zm0 423c-136,0 -248,-113 -248,-248 0,-136 113,-248 248,-248 135,0 248,113 248,248 0,135 -113,248 -248,248z"/>
    <path class="fil3" d="M3337 4121c-84,0 -154,69 -154,154 0,84 69,154 154,154 84,0 154,-69 154,-154 0,-84 -64,-154 -154,-154zm0 372c-119,0 -218,-99 -218,-218 0,-119 99,-218 218,-218 119,0 218,99 218,218 0,119 -99,218 -218,218z"/>
    <path class="fil3" d="M2585 4128c16,39 0,78 -39,93 -39,16 -78,0 -93,-39 -16,-39 0,-78 39,-93 31,-16 78,0 93,39z"/>
    <path class="fil3" d="M3972 1390c16,39 0,78 -39,93 -39,16 -78,0 -93,-39 -16,-39 0,-78 39,-93 31,-16 78,0 93,39z"/>
    <path class="fil3" d="M1070 2313c16,39 0,78 -39,93 -39,16 -78,0 -93,-39 -16,-39 0,-78 39,-93 31,-16 78,0 93,39z"/>
    <path class="fil3" d="M2966 975c-72,0 -131,59 -131,131 0,72 59,131 131,131 72,0 131,-59 131,-131 0,-72 -55,-131 -131,-131zm0 317c-101,0 -186,-85 -186,-186 0,-101 85,-186 186,-186 101,0 186,85 186,186 0,101 -85,186 -186,186z"/>
   </g>
  </g>
 </g>
</svg>
